<svg width="670" height="572" viewBox="0 0 670 572" fill="none" xmlns="http://www.w3.org/2000/svg">
<path d="M292.718 40.1973C279.927 49.7035 263.87 56.7652 263.87 56.7652C263.87 56.7652 272.035 63.5553 285.642 57.58C304.693 49.4319 296.528 37.4813 292.718 40.1973Z" fill="url(#paint0_linear_430_4379)"/>
<path d="M343.61 5.1605C341.977 4.20912e-06 349.597 0 349.597 0C349.597 0 358.306 10.8642 346.876 15.7531C346.876 15.7531 344.426 7.60494 343.61 5.1605Z" fill="url(#paint1_linear_430_4379)"/>
<path d="M330.002 13.8517L322.11 20.6418L332.18 17.9258L330.002 13.8517Z" fill="url(#paint2_linear_430_4379)"/>
<path d="M317.211 55.4075H315.851V79.5803H317.211V55.4075Z" fill="url(#paint3_linear_430_4379)"/>
<path d="M328.369 52.6914H327.009V80.3951H328.369V52.6914Z" fill="url(#paint4_linear_430_4379)"/>
<path d="M51.3224 506.272C55.4047 500.839 58.1261 494.592 58.1261 486.988C58.3983 470.963 47.5123 450.864 42.8858 435.654C39.8922 426.148 38.5314 418.272 41.2529 408.494C46.968 387.037 57.5819 366.123 74.7272 351.457C83.1638 344.395 92.9611 337.605 103.031 333.259C115.005 328.37 125.619 325.111 134.056 314.79C147.935 297.407 143.036 280.296 139.498 260.198C135.961 238.198 138.954 212.395 159.093 199.63C178.688 187.407 204.27 188.222 226.314 192.296C255.434 197.728 286.459 196.37 312.585 181.704C327.281 173.556 338.983 162.963 356.401 160.247C400.217 153.457 420.356 183.333 454.919 203.704C471.247 213.21 490.842 209.136 508.532 212.395C524.861 215.111 542.006 225.975 546.36 243.086C552.076 266.173 537.379 292.247 549.898 314.518C555.886 325.111 565.955 332.444 576.025 338.963C608.955 360.42 621.201 387.309 617.119 426.691C616.03 437.284 614.125 448.42 611.132 458.741C603.512 485.358 618.752 489.432 626.644 502.197C634.264 514.963 637.258 567.111 594.803 572C594.803 572 46.1516 572 44.7908 572C26.2847 571.728 18.3925 553.531 25.4683 538.321C30.9113 525.827 43.7023 517.407 51.3224 506.272Z" fill="#D2D4FF"/>
<path d="M441.039 380.519C441.039 380.519 427.976 337.877 416.274 334.074C404.843 330.272 409.742 297.679 407.565 293.605C405.115 289.259 387.698 282.198 375.996 302.568C364.293 322.667 362.388 327.012 346.331 334.889C330.003 342.766 317.756 389.753 324.015 418.543C330.275 447.605 319.117 472.049 319.117 472.049L346.331 466.346L396.951 454.938L441.039 380.519Z" fill="#5650EB"/>
<path d="M353.951 385.136L355.584 382.692C356.129 382.963 365.11 389.21 368.92 399.531C370.552 391.655 372.73 384.05 374.907 376.988C374.907 376.716 375.179 376.445 375.179 375.901C384.16 346.296 395.046 324.025 395.318 323.482L398.039 324.84C397.767 325.111 388.514 344.124 380.078 369.926C386.337 365.037 395.862 362.864 396.407 362.593L396.951 365.309C392.324 366.395 380.622 370.469 377.901 376.716C369.464 404.148 362.932 437.556 368.103 465.803L365.382 466.346C361.844 447.334 363.749 425.877 367.559 405.506C365.654 393.013 353.951 385.136 353.951 385.136Z" fill="white"/>
<path d="M403.21 468.518C403.21 468.518 380.894 396 417.09 382.148C453.286 368.296 467.982 355.802 478.596 324.568C488.937 293.333 520.506 293.605 528.399 290.074C536.291 286.272 552.348 269.161 557.246 261.284C562.962 252.321 578.474 249.333 586.638 255.309C609.227 272.691 591.537 314.247 574.392 328.642C561.056 339.778 555.069 408.222 519.146 422.617C507.988 426.963 499.007 445.16 493.836 455.21C489.754 463.358 486.488 471.235 478.051 475.58C467.165 481.012 454.646 482.099 442.672 481.827C437.229 481.827 419.267 482.914 415.457 479.654L403.21 468.518Z" fill="#7A70EA"/>
<path d="M558.335 305.556L556.702 303.654C542.278 315.333 516.152 347.926 491.931 379.704C492.203 369.383 489.209 358.247 488.937 357.704L486.488 358.247C486.488 358.518 490.57 372.642 488.937 383.506C472.88 404.963 457.912 425.605 448.387 438.914C447.57 428.321 441.855 414.198 441.583 413.383L439.134 414.198C439.134 414.469 446.21 432.123 445.938 442.173C441.311 448.691 438.317 453.037 437.501 453.852L439.678 455.21C439.95 454.667 449.748 440.815 463.899 421.259C465.26 419.63 479.956 416.642 493.019 414.741L492.747 412.296C487.848 413.111 474.241 415.012 466.893 417.185C479.412 400.074 494.652 379.432 509.62 360.148C515.608 356.346 539.829 352.815 540.101 352.815L539.829 350.37C539.012 350.37 522.411 352.815 512.886 356.074C531.12 333.802 547.993 313.975 558.335 305.556Z" fill="white"/>
<path d="M477.235 542.938C477.235 542.938 539.557 549.185 575.48 504.099C611.404 459.012 608.41 460.099 646.783 446.247C685.156 432.395 668.827 384.593 648.688 386.222C628.549 387.852 603.512 407.136 576.025 402.79C548.538 398.716 467.165 422.074 444.577 487.803C444.577 487.803 425.254 531.259 477.235 542.938Z" fill="#8D84FB"/>
<path d="M620.929 425.334L620.113 422.889C598.885 430.222 572.215 443.531 546.633 457.655C556.158 438.914 556.158 423.704 556.158 422.889H553.436C553.436 423.161 553.436 440.272 542.006 460.099C497.102 485.087 456.552 511.704 455.735 512.247L457.096 514.42C457.64 514.148 484.855 496.222 519.146 476.124C540.373 474.222 558.607 484.272 558.607 484.543L559.968 482.371C559.151 482.099 543.911 473.408 524.044 473.408C556.43 454.667 593.442 435.111 620.929 425.334Z" fill="white"/>
<path d="M316.395 443.802C316.395 443.802 334.629 380.79 304.965 354.173C275.028 327.556 268.497 331.358 264.415 304.198C262.509 290.346 249.991 281.383 236.383 280.839C214.339 280.296 220.599 302.839 227.947 315.062C237.744 331.358 221.959 343.852 216.244 357.432C208.352 375.63 219.51 397.358 229.035 412.839C236.928 425.605 247.813 437.012 260.604 445.16C268.497 450.321 277.75 454.395 286.731 457.383L316.395 443.802Z" fill="#5650EB"/>
<path d="M291.357 385.136L289.724 382.691C289.18 382.963 280.199 389.21 276.389 399.531C274.756 391.654 272.579 384.049 270.402 376.988C270.402 376.716 270.13 376.444 270.13 375.901C261.149 346.296 250.263 324.025 249.991 323.482L247.269 324.84C247.541 325.111 256.794 344.124 265.231 369.926C258.972 365.037 249.446 362.864 248.902 362.593L248.358 365.309C252.984 366.395 264.687 370.469 267.408 376.716C275.845 404.148 282.376 437.556 277.206 465.803L279.927 466.346C283.465 447.333 281.56 425.877 277.75 405.506C279.383 393.012 291.085 385.136 291.357 385.136Z" fill="white"/>
<path d="M263.87 448.691C263.87 448.691 248.358 390.025 193.656 379.432C193.656 379.432 151.201 370.741 132.967 343.308C114.733 315.876 102.214 299.037 82.3474 305.284C82.3474 305.284 49.6896 334.617 93.5055 370.741C99.2206 375.358 107.113 377.802 113.1 382.42C126.98 393.284 137.049 406.049 143.036 422.889C148.207 438.099 153.922 453.852 168.346 462.543C181.682 470.691 195.833 477.21 211.346 479.111C217.333 479.926 223.32 479.926 229.308 479.926C231.485 479.926 248.086 481.012 248.902 479.383C248.358 479.383 263.87 448.691 263.87 448.691Z" fill="#7A70EA"/>
<path d="M236.928 497.58C232.573 476.938 222.232 457.654 209.713 440L209.441 439.728C205.631 434.296 201.548 429.136 197.194 424.247H197.466C193.112 415.284 197.466 403.877 197.466 403.877L194.745 402.79C194.472 403.333 191.479 411.21 192.84 419.63C159.638 382.42 120.448 357.975 119.904 357.432L118.271 359.877C119.087 360.42 167.258 390.568 201.821 434.84C192.84 430.222 185.492 431.852 185.219 431.852L185.764 434.568C185.764 434.568 196.378 432.395 206.991 441.901C219.238 459.012 229.308 478.296 233.662 498.395L236.928 497.58Z" fill="#E1E2FF"/>
<path d="M190.934 551.901C190.934 551.901 128.34 561.407 106.568 511.975C106.568 511.975 102.486 481.556 76.36 479.926C50.5059 478.296 40.4364 467.975 35.8099 449.506C31.1834 431.037 15.9431 420.988 6.14572 414.469C-3.65162 407.951 -6.64525 366.124 35.5378 375.358C35.5378 375.358 50.506 387.852 76.0879 393.556C101.67 399.531 104.119 407.136 111.195 419.358C118.543 431.852 117.727 429.679 140.043 437.284C162.359 444.889 204.814 468.247 212.706 512.519L190.934 551.901Z" fill="#8D84FB"/>
<path d="M140.315 488.889C146.574 478.568 143.036 464.716 142.764 464.173L140.043 464.988C140.043 464.988 143.036 477.481 138.41 486.716C125.347 471.506 108.474 454.938 88.6067 440.543C90.7839 431.852 86.7017 420.173 86.4295 419.63L83.708 420.716C83.708 420.716 87.2459 431.309 86.1574 438.914C75.2714 431.309 63.8412 424.519 51.3224 418.815L50.2338 421.531C67.3791 429.136 82.6194 438.914 95.9547 449.506C89.151 453.852 81.2587 453.309 81.2587 453.309L80.9865 456.296C81.2587 456.296 90.5117 456.84 98.1319 451.407C120.992 469.877 138.41 490.518 150.657 506.815C145.214 510.617 136.233 510.074 136.233 510.074V513.062C136.777 513.062 146.302 513.333 152.562 509.259C164.264 525.556 170.251 537.235 170.251 537.506L171.612 537.234L172.973 536.963C172.428 534.79 161.27 513.605 140.315 488.889Z" fill="white"/>
<path d="M350.958 435.111L349.325 433.482C391.508 392.469 402.394 346.84 411.103 310.444C414.913 294.963 418.451 280.025 423.894 267.802L425.799 268.617C420.356 280.839 416.818 295.235 413.28 310.988C404.843 347.654 393.685 393.556 350.958 435.111Z" fill="#2E28D4"/>
<path d="M413.552 305.827C413.552 305.827 430.425 288.987 441.311 295.506C452.741 302.024 441.311 319.407 413.552 305.827Z" fill="#2E28D4"/>
<path d="M416.001 296.321C416.001 296.321 420.9 277.037 411.375 273.778C401.577 270.519 394.229 286.815 416.001 296.321Z" fill="#2E28D4"/>
<path d="M408.653 327.556C408.653 327.556 414.096 305.556 403.21 302.025C392.324 298.222 383.888 316.963 408.653 327.556Z" fill="#2E28D4"/>
<path d="M397.495 362.864C397.495 362.864 397.495 340.321 386.065 339.234C374.635 338.419 370.825 358.518 397.495 362.864Z" fill="#2E28D4"/>
<path d="M376.268 403.062C376.268 403.062 381.711 384.593 372.458 380.79C363.204 376.716 355.584 392.198 376.268 403.062Z" fill="#2E28D4"/>
<path d="M423.893 267.803C423.893 267.803 440.767 250.963 451.653 257.482C463.083 264 451.653 281.383 423.893 267.803Z" fill="#2E28D4"/>
<path d="M402.938 348.198C402.938 348.198 420.084 338.691 426.615 346.568C433.147 354.716 419.811 365.58 402.938 348.198Z" fill="#2E28D4"/>
<path d="M390.147 379.432C390.147 379.432 399.672 362.321 409.47 365.852C418.995 369.111 413.552 385.407 390.147 379.432Z" fill="#2E28D4"/>
<path d="M368.647 413.383C368.647 413.383 377.9 401.975 383.888 406.321C390.147 410.667 383.616 422.346 368.647 413.383Z" fill="#2E28D4"/>
<path d="M290.269 437.284L291.357 435.654C249.991 403.062 236.383 363.951 225.225 332.173C220.599 318.593 215.972 305.827 209.985 295.506L208.352 296.593C214.339 306.913 218.694 319.407 223.32 332.988C234.478 364.765 248.358 404.42 290.269 437.284Z" fill="#2E28D4"/>
<path d="M222.776 328.37C222.776 328.37 206.447 315.062 197.194 321.852C187.669 328.642 199.643 343.037 222.776 328.37Z" fill="#2E28D4"/>
<path d="M219.782 320.222C219.782 320.222 213.795 303.383 221.959 299.852C230.124 296.049 238.288 309.901 219.782 320.222Z" fill="#2E28D4"/>
<path d="M229.035 347.383C229.035 347.383 222.232 328.37 231.485 324.296C241.01 319.679 249.991 335.432 229.035 347.383Z" fill="#2E28D4"/>
<path d="M242.371 377.531C242.371 377.531 240.193 357.432 250.263 355.531C260.332 353.629 265.503 371.012 242.371 377.531Z" fill="#2E28D4"/>
<path d="M264.959 411.21C264.959 411.21 258.427 395.185 266.047 391.111C273.94 386.766 282.376 399.531 264.959 411.21Z" fill="#2E28D4"/>
<path d="M209.985 295.778C209.985 295.778 193.656 282.469 184.403 289.259C174.878 296.049 186.852 310.173 209.985 295.778Z" fill="#2E28D4"/>
<path d="M236.111 365.037C236.111 365.037 220.054 358.247 215.156 365.852C209.985 373.457 222.776 381.876 236.111 365.037Z" fill="#2E28D4"/>
<path d="M250.535 391.383C250.535 391.383 240.465 377.259 232.301 381.062C223.864 384.864 230.124 398.987 250.535 391.383Z" fill="#2E28D4"/>
<path d="M272.579 419.629C272.579 419.629 263.326 410.395 258.427 414.741C253.256 419.086 260.06 428.864 272.579 419.629Z" fill="#2E28D4"/>
<path d="M217.605 505.457L218.694 504.099C185.22 477.753 173.789 445.704 164.808 419.901C160.998 409.037 157.188 398.444 152.562 390.025L151.201 390.839C156.1 399.259 159.638 409.58 163.448 420.444C172.429 446.518 183.587 478.839 217.605 505.457Z" fill="#2E28D4"/>
<path d="M162.903 416.914C162.903 416.914 149.568 406.05 141.948 411.482C134.328 417.185 143.853 428.864 162.903 416.914Z" fill="#2E28D4"/>
<path d="M160.454 410.395C160.454 410.395 155.555 396.815 162.087 393.827C168.891 390.568 175.422 401.975 160.454 410.395Z" fill="#2E28D4"/>
<path d="M168.074 432.395C168.074 432.395 162.631 416.914 169.979 413.655C177.599 410.124 184.947 422.889 168.074 432.395Z" fill="#2E28D4"/>
<path d="M178.688 457.111C178.688 457.111 177.055 440.815 184.947 439.185C193.384 437.555 197.466 451.679 178.688 457.111Z" fill="#2E28D4"/>
<path d="M197.194 484.272C197.194 484.272 192.023 471.235 198.283 467.975C204.542 464.445 211.074 475.037 197.194 484.272Z" fill="#2E28D4"/>
<path d="M152.562 390.296C152.562 390.296 139.226 379.432 131.606 384.864C123.986 390.568 133.511 402.247 152.562 390.296Z" fill="#2E28D4"/>
<path d="M173.789 446.79C173.789 446.79 160.726 441.358 156.644 447.334C152.29 453.58 162.903 460.642 173.789 446.79Z" fill="#2E28D4"/>
<path d="M185.22 468.247C185.22 468.247 177.055 456.839 170.251 459.827C163.72 463.086 168.891 474.222 185.22 468.247Z" fill="#2E28D4"/>
<path d="M203.181 491.333C203.181 491.333 195.561 483.728 191.479 487.259C187.669 490.79 193.112 498.667 203.181 491.333Z" fill="#2E28D4"/>
<path d="M446.754 505.457L445.666 504.099C479.14 477.753 490.57 445.704 499.551 419.901C503.361 409.037 507.171 398.444 511.798 390.025L513.158 390.839C508.26 399.259 504.722 409.58 500.912 420.444C491.931 446.518 480.773 478.839 446.754 505.457Z" fill="#2E28D4"/>
<path d="M501.456 416.914C501.456 416.914 514.791 406.05 522.412 411.482C530.032 417.185 520.506 428.864 501.456 416.914Z" fill="#2E28D4"/>
<path d="M503.905 410.395C503.905 410.395 508.804 396.815 502.272 393.827C495.469 390.568 488.937 401.975 503.905 410.395Z" fill="#2E28D4"/>
<path d="M496.285 432.395C496.285 432.395 501.728 416.914 494.38 413.655C486.76 410.124 479.412 422.889 496.285 432.395Z" fill="#2E28D4"/>
<path d="M485.671 457.111C485.671 457.111 487.304 440.815 479.412 439.185C470.975 437.556 466.893 451.679 485.671 457.111Z" fill="#2E28D4"/>
<path d="M467.165 484.272C467.165 484.272 472.336 471.235 466.077 467.975C459.817 464.445 453.286 475.037 467.165 484.272Z" fill="#2E28D4"/>
<path d="M512.07 390.296C512.07 390.296 525.405 379.432 533.025 384.864C540.373 390.568 530.848 402.247 512.07 390.296Z" fill="#2E28D4"/>
<path d="M490.57 446.79C490.57 446.79 503.633 441.358 507.715 447.334C512.07 453.58 501.456 460.642 490.57 446.79Z" fill="#2E28D4"/>
<path d="M479.14 468.247C479.14 468.247 487.304 456.839 494.108 459.827C500.912 463.086 495.469 474.222 479.14 468.247Z" fill="#2E28D4"/>
<path d="M461.178 491.333C461.178 491.333 468.798 483.729 472.88 487.259C476.69 490.79 471.247 498.667 461.178 491.333Z" fill="#2E28D4"/>
<path d="M126.98 571.728C116.094 571.728 112.011 538.321 147.119 526.098C153.922 523.654 160.726 521.481 165.625 516.049C173.517 507.358 171.612 495.679 176.238 485.629C182.498 472.049 199.643 469.876 212.706 467.703C220.871 466.345 230.668 464.987 237.744 460.37C248.086 453.58 248.358 438.37 257.339 430.222C265.503 422.889 277.206 418.543 288.091 421.802C307.414 428.049 316.667 440.814 336.806 427.234C349.597 418.543 369.464 421.259 375.995 435.111C387.97 460.913 418.723 439.185 439.95 455.481C469.07 478.024 452.469 491.876 463.899 510.617C469.887 520.666 493.564 521.21 509.348 532.345C531.12 547.555 528.943 571.728 518.873 571.728C518.601 571.728 127.252 571.728 126.98 571.728Z" fill="#2E28D4"/>
<path d="M329.186 25.5309C326.192 34.7655 316.667 40.4691 306.87 38.2963C300.61 36.9383 295.44 32.321 293.262 26.8889L329.186 25.5309Z" fill="#2E28D4"/>
<path d="M350.958 21.4567C350.958 41.5555 334.085 57.5801 314.218 57.5801C303.604 57.5801 294.351 53.2345 287.547 45.9011C287.547 45.9011 287.547 35.3085 332.452 23.3579C335.718 22.5431 329.458 14.1233 329.458 14.1233C325.104 2.17273 343.338 -3.80257 347.692 7.87644C347.692 7.60484 350.958 16.5678 350.958 21.4567Z" fill="url(#paint5_linear_430_4379)"/>
<path d="M292.446 39.9256C278.839 48.617 262.51 54.5923 262.51 54.5923C262.51 54.5923 270.13 61.9256 284.282 56.7651C303.604 49.975 296.256 37.2096 292.446 39.9256Z" fill="url(#paint6_linear_430_4379)"/>
<path d="M332.452 23.358C331.363 34.2222 322.382 42.9136 311.224 42.9136C303.876 42.9136 297.345 39.1111 293.534 33.679L332.452 23.358Z" fill="url(#paint7_linear_430_4379)"/>
<path d="M332.724 277.037H304.693V571.728H332.724V277.037Z" fill="#F01A63"/>
<path d="M276.328 279.432L217 219.679V135.481L276.328 76H360.694L420.295 135.481V219.679L360.694 279.432H276.328Z" fill="#F01A63"/>
<path d="M357.217 270.79H279.927L225.225 216.198V138.79L279.927 84.1975H357.217L411.919 138.79V216.198L357.217 270.79ZM281.016 268.074H356.129L409.198 214.839V139.877L356.129 86.6419H281.016L227.947 139.877V215.111L281.016 268.074Z" fill="white"/>
<path opacity="0.1" d="M332.724 279.21H304.693V286H332.724V279.21Z" fill="#231F20"/>
<path d="M245 197.53V186.416L270.272 150.013H285.547V185.611H292.105V197.53H285.547V208H271.871V197.53H245ZM272.831 165.154L259.395 185.611H272.831V165.154Z" fill="white"/>
<path d="M295.604 177.799C295.604 168.564 297.363 161.289 300.882 155.973C304.454 150.658 310.186 148 318.077 148C325.967 148 331.672 150.658 335.191 155.973C338.763 161.289 340.549 168.564 340.549 177.799C340.549 187.141 338.763 194.47 335.191 199.785C331.672 205.101 325.967 207.758 318.077 207.758C310.186 207.758 304.454 205.101 300.882 199.785C297.363 194.47 295.604 187.141 295.604 177.799ZM327.114 177.799C327.114 172.376 326.527 168.215 325.354 165.315C324.181 162.362 321.756 160.886 318.077 160.886C314.398 160.886 311.972 162.362 310.799 165.315C309.626 168.215 309.04 172.376 309.04 177.799C309.04 181.45 309.253 184.483 309.679 186.899C310.106 189.262 310.959 191.195 312.239 192.698C313.572 194.148 315.518 194.872 318.077 194.872C320.636 194.872 322.555 194.148 323.835 192.698C325.168 191.195 326.047 189.262 326.474 186.899C326.9 184.483 327.114 181.45 327.114 177.799Z" fill="white"/>
<path d="M344.895 197.53V186.416L370.167 150.013H385.442V185.611H392V197.53H385.442V208H371.767V197.53H344.895ZM372.726 165.154L359.291 185.611H372.726V165.154Z" fill="white"/>
<path d="M337.078 11.1359C338.431 11.1359 339.528 10.0415 339.528 8.6915C339.528 7.34147 338.431 6.24707 337.078 6.24707C335.726 6.24707 334.629 7.34147 334.629 8.6915C334.629 10.0415 335.726 11.1359 337.078 11.1359Z" fill="white"/>
<defs>
<linearGradient id="paint0_linear_430_4379" x1="263.87" y1="60.0397" x2="281.685" y2="30.2064" gradientUnits="userSpaceOnUse">
<stop stop-color="#2E28D4"/>
<stop offset="1" stop-color="#AC27FD"/>
</linearGradient>
<linearGradient id="paint1_linear_430_4379" x1="343.38" y1="15.7531" x2="357.238" y2="7.49169" gradientUnits="userSpaceOnUse">
<stop stop-color="#2E28D4"/>
<stop offset="1" stop-color="#AC27FD"/>
</linearGradient>
<linearGradient id="paint2_linear_430_4379" x1="322.11" y1="20.6418" x2="328.405" y2="11.3065" gradientUnits="userSpaceOnUse">
<stop stop-color="#2E28D4"/>
<stop offset="1" stop-color="#AC27FD"/>
</linearGradient>
<linearGradient id="paint3_linear_430_4379" x1="315.851" y1="79.5803" x2="318.564" y2="79.4276" gradientUnits="userSpaceOnUse">
<stop stop-color="#011F70"/>
<stop offset="1" stop-color="#AC27FD"/>
</linearGradient>
<linearGradient id="paint4_linear_430_4379" x1="327.009" y1="80.3951" x2="329.724" y2="80.2618" gradientUnits="userSpaceOnUse">
<stop stop-color="#011F70"/>
<stop offset="1" stop-color="#AC27FD"/>
</linearGradient>
<linearGradient id="paint5_linear_430_4379" x1="350.958" y1="1.56922" x2="295.375" y2="64.4948" gradientUnits="userSpaceOnUse">
<stop stop-color="#2E28D4"/>
<stop offset="1" stop-color="#011F70"/>
</linearGradient>
<linearGradient id="paint6_linear_430_4379" x1="297.041" y1="39.5522" x2="280.923" y2="68.7647" gradientUnits="userSpaceOnUse">
<stop stop-color="#2E28D4"/>
<stop offset="1" stop-color="#011F70"/>
</linearGradient>
<linearGradient id="paint7_linear_430_4379" x1="293.534" y1="42.9136" x2="309.225" y2="11.6871" gradientUnits="userSpaceOnUse">
<stop stop-color="#2E28D4"/>
<stop offset="1" stop-color="#AC27FD"/>
</linearGradient>
</defs>
</svg>
