<svg width="80" height="80" viewBox="0 0 80 80" fill="none" xmlns="http://www.w3.org/2000/svg">
<g clip-path="url(#clip0_521_2337)">
<path d="M6.58836 66.2531C-2.97445 62.292 -1.12148 42.0342 5.74695 45.3605C8.29383 46.5938 9.03602 50.4453 12.1057 51.1952C14.2171 51.9064 21.244 49.6706 13.0901 36.4291C-4.66242 7.59954 54.714 -15.5894 45.6595 25.5434C44.6616 29.4113 48.4591 30.8141 51.8923 31.2044C110.057 37.8164 66.7235 97.0537 22.9493 69.4047C15.6379 64.7866 11.2818 68.1972 6.58836 66.2531Z" fill="url(#paint0_linear_521_2337)"/>
<path d="M61.1158 9.04083V69.7096C61.1158 71.0033 60.0673 72.0533 58.772 72.0533H21.2283C20.0423 72.0533 19.0642 71.1736 18.9064 70.0315V70.0299C18.8923 69.9252 18.8845 69.819 18.8845 69.7096V9.04083C18.8845 7.74708 19.933 6.69708 21.2283 6.69708H58.772C60.0673 6.69708 61.1158 7.74693 61.1158 9.04083Z" fill="#8383FF"/>
<path d="M25.5548 60.9986C25.5548 65.2424 22.758 68.8345 18.9064 70.0299C18.8923 69.9252 18.8845 69.8189 18.8845 69.7095V51.9578C22.747 53.1484 25.5548 56.7455 25.5548 60.9986Z" fill="#6C6CFF"/>
<path d="M61.1159 14.9627V33.0424C57.2534 31.8517 54.4456 28.2549 54.4456 24.0017C54.4456 19.75 57.2534 16.1533 61.1159 14.9627Z" fill="#6C6CFF"/>
<path d="M22.9467 66.4282V12.3221C22.9467 11.4591 23.6462 10.7596 24.5092 10.7596H55.4909C56.3538 10.7596 57.0534 11.4591 57.0534 12.3221V66.4282C57.0534 67.2911 56.3538 67.9907 55.4909 67.9907H24.5092C23.6463 67.9907 22.9467 67.2911 22.9467 66.4282Z" fill="white"/>
<path d="M54.2162 67.9906H25.7841V56.4369C25.7841 56.0055 26.1339 55.6556 26.5653 55.6556H53.4348C53.8662 55.6556 54.2161 56.0055 54.2161 56.4369V67.9906H54.2162Z" fill="#FFE8DC"/>
<path d="M53.435 42.3438H26.5653C26.1339 42.3438 25.7841 41.994 25.7841 41.5625V35.1972C25.7841 34.7658 26.1339 34.416 26.5653 34.416H53.4348C53.8662 34.416 54.2161 34.7658 54.2161 35.1972V41.5625C54.2162 41.9941 53.8664 42.3438 53.435 42.3438Z" fill="#FFAB66"/>
<path d="M57.0534 17.483V30.5221C55.4377 28.8252 54.4456 26.5299 54.4456 24.0017C54.4456 21.4752 55.4377 19.1799 57.0534 17.483Z" fill="#D9D9FF"/>
<path d="M25.5548 60.9986C25.5548 63.3986 24.6611 65.5908 23.1861 67.258C23.0345 67.0174 22.947 66.733 22.947 66.4283V54.4783C24.5626 56.175 25.5548 58.4703 25.5548 60.9986Z" fill="#B3B3FF"/>
<path d="M47.8647 13.4866H32.1357C31.4329 13.4866 30.8166 13.0174 30.6296 12.3401L29.0712 6.69708H50.9293L49.3708 12.3401C49.1838 13.0174 48.5676 13.4866 47.8647 13.4866Z" fill="#FFAB66"/>
<path d="M33.6956 11.2969C34.2377 11.2969 34.6771 10.8575 34.6771 10.3154C34.6771 9.77326 34.2377 9.3338 33.6956 9.3338C33.1534 9.3338 32.714 9.77326 32.714 10.3154C32.714 10.8575 33.1534 11.2969 33.6956 11.2969Z" fill="#FF8B00"/>
<path d="M46.3046 11.2969C46.8467 11.2969 47.2861 10.8575 47.2861 10.3154C47.2861 9.77326 46.8467 9.3338 46.3046 9.3338C45.7625 9.3338 45.323 9.77326 45.323 10.3154C45.323 10.8575 45.7625 11.2969 46.3046 11.2969Z" fill="#FF8B00"/>
<path d="M61.1158 9.04083V69.7096C61.1158 71.0033 60.0673 72.0533 58.772 72.0533H21.2283C20.0423 72.0533 19.0642 71.1736 18.9064 70.0315V70.0299C18.8923 69.9252 18.8845 69.819 18.8845 69.7096V9.04083C18.8845 7.74708 19.933 6.69708 21.2283 6.69708H58.772C60.0673 6.69708 61.1158 7.74693 61.1158 9.04083Z" fill="url(#paint1_linear_521_2337)"/>
<path d="M16.0971 66.7054C21.3204 66.7054 25.5546 62.4711 25.5546 57.2479C25.5546 52.0247 21.3204 47.7904 16.0971 47.7904C10.8739 47.7904 6.63965 52.0247 6.63965 57.2479C6.63965 62.4711 10.8739 66.7054 16.0971 66.7054Z" fill="#FFC599"/>
<path d="M16.0973 64.395C20.0445 64.395 23.2444 61.1951 23.2444 57.2478C23.2444 53.3005 20.0445 50.1006 16.0973 50.1006C12.15 50.1006 8.95007 53.3005 8.95007 57.2478C8.95007 61.1951 12.15 64.395 16.0973 64.395Z" fill="#FF9D33"/>
<path d="M17.1151 56.4667H16.8783V54.876H18.3554C18.7868 54.876 19.1367 54.5262 19.1367 54.0948C19.1367 53.6634 18.7868 53.3135 18.3554 53.3135H16.8783V52.9207C16.8783 52.4893 16.5284 52.1395 16.097 52.1395C15.6656 52.1395 15.3158 52.4893 15.3158 52.9207V53.3135H15.0789C13.7787 53.3135 12.7211 54.3712 12.7211 55.6713C12.7211 56.9715 13.7787 58.0292 15.0789 58.0292H15.3158V59.6198H13.8387C13.4073 59.6198 13.0575 59.9696 13.0575 60.401C13.0575 60.8324 13.4073 61.1823 13.8387 61.1823H15.3158V61.5751C15.3158 62.0065 15.6656 62.3563 16.097 62.3563C16.5284 62.3563 16.8783 62.0065 16.8783 61.5751V61.1823H17.1151C18.4151 61.1823 19.4728 60.1246 19.4728 58.8245C19.4728 57.5243 18.4153 56.4667 17.1151 56.4667ZM15.079 56.4667C14.6404 56.4667 14.2837 56.1099 14.2837 55.6713C14.2837 55.2327 14.6404 54.876 15.079 54.876H15.3159V56.4667H15.079ZM17.1151 59.6198H16.8783V58.0292H17.1151C17.5536 58.0292 17.9103 58.3859 17.9103 58.8245C17.9103 59.2631 17.5537 59.6198 17.1151 59.6198Z" fill="#FFD6BB"/>
<path d="M63.9031 29.7099C69.1263 29.7099 73.3606 25.4757 73.3606 20.2524C73.3606 15.0292 69.1263 10.7949 63.9031 10.7949C58.6798 10.7949 54.4456 15.0292 54.4456 20.2524C54.4456 25.4757 58.6798 29.7099 63.9031 29.7099Z" fill="#FF9494"/>
<path d="M63.903 27.3996C67.8503 27.3996 71.0502 24.1997 71.0502 20.2524C71.0502 16.3051 67.8503 13.1052 63.903 13.1052C59.9558 13.1052 56.7559 16.3051 56.7559 20.2524C56.7559 24.1997 59.9558 27.3996 63.903 27.3996Z" fill="#FF4D4D"/>
<path d="M67.182 24.6271C67.566 24.4306 67.7179 23.9598 67.5213 23.5757C67.3246 23.1916 66.8538 23.0398 66.4699 23.2363C65.9924 23.4809 65.4806 23.6048 64.949 23.6048C63.9042 23.6048 62.9701 23.124 62.3548 22.3724H64.5053C64.9367 22.3724 65.2865 22.0226 65.2865 21.5912C65.2865 21.1598 64.9367 20.8099 64.5053 20.8099H61.647C61.6164 20.6282 61.5967 20.4427 61.5967 20.2524C61.5967 20.0621 61.6164 19.8766 61.647 19.6949H64.5053C64.9367 19.6949 65.2865 19.3451 65.2865 18.9137C65.2865 18.4823 64.9367 18.1324 64.5053 18.1324H62.3548C62.9701 17.3809 63.9043 16.9001 64.949 16.9001C65.4806 16.9001 65.9923 17.024 66.4699 17.2687C66.8542 17.4652 67.3248 17.3134 67.5213 16.9293C67.7179 16.5452 67.566 16.0745 67.182 15.8779C66.4818 15.5195 65.7304 15.3376 64.9488 15.3376C62.9976 15.3376 61.3084 16.4807 60.5154 18.1324H59.7301C59.2987 18.1324 58.9489 18.4823 58.9489 18.9137C58.9489 19.3451 59.2987 19.6949 59.7301 19.6949H60.0665C60.0457 19.8781 60.034 20.0638 60.034 20.2524C60.034 20.441 60.0457 20.6268 60.0665 20.8099H59.7301C59.2987 20.8099 58.9489 21.1598 58.9489 21.5912C58.9489 22.0226 59.2987 22.3724 59.7301 22.3724H60.5154C61.3084 24.0241 62.9976 25.1673 64.9488 25.1673C65.7304 25.1673 66.4818 24.9856 67.182 24.6271Z" fill="#FFB3B3"/>
<path d="M9.87301 71.7474C9.67317 71.7474 9.47301 71.6712 9.32067 71.5185L8.46676 70.6647L7.61285 71.5185C7.30801 71.8237 6.81301 71.8237 6.50816 71.5185C6.20301 71.2135 6.20301 70.7188 6.50816 70.4138L7.91442 69.0076C8.21926 68.7024 8.71426 68.7024 9.0191 69.0076L10.4254 70.4138C10.7305 70.7188 10.7305 71.2135 10.4254 71.5185C10.2729 71.671 10.0729 71.7474 9.87301 71.7474Z" fill="#FF6C6C"/>
<path d="M14.1275 10.8182C13.9277 10.8182 13.7275 10.742 13.5752 10.5893L12.7213 9.73554L11.8674 10.5893C11.5625 10.8945 11.0675 10.8945 10.7627 10.5893C10.4575 10.2843 10.4575 9.78961 10.7627 9.48461L12.1689 8.07835C12.4738 7.7732 12.9688 7.7732 13.2736 8.07835L14.6799 9.48461C14.985 9.78961 14.985 10.2843 14.6799 10.5893C14.5275 10.742 14.3274 10.8182 14.1275 10.8182Z" fill="#FF9D33"/>
<path d="M68.1342 63.0078C67.9344 63.0078 67.7342 62.9316 67.5819 62.7789L66.728 61.9252L65.8741 62.7789C65.5692 63.0841 65.0742 63.0841 64.7694 62.7789C64.4642 62.4739 64.4642 61.9792 64.7694 61.6742L66.1756 60.268C66.4805 59.9628 66.9755 59.9628 67.2803 60.268L68.6866 61.6742C68.9917 61.9792 68.9917 62.4739 68.6866 62.7789C68.5341 62.9316 68.3341 63.0078 68.1342 63.0078Z" fill="#FF9D33"/>
<path d="M68.1342 37.5681C67.9344 37.5681 67.7342 37.4919 67.5819 37.3392C67.2767 37.0342 67.2767 36.5395 67.5819 36.2345L69.1444 34.672C69.4492 34.3669 69.9442 34.3669 70.2491 34.672C70.5542 34.977 70.5542 35.4717 70.2491 35.7767L68.6866 37.3392C68.5341 37.4917 68.3341 37.5681 68.1342 37.5681Z" fill="#6C6CFF"/>
<path d="M13.5025 44.6877C13.3027 44.6877 13.1025 44.6115 12.9502 44.4588C12.645 44.1538 12.645 43.6591 12.9502 43.3541L14.5127 41.7916C14.8175 41.4865 15.3125 41.4865 15.6174 41.7916C15.9225 42.0966 15.9225 42.5913 15.6174 42.8963L14.0549 44.4588C13.9025 44.6115 13.7024 44.6877 13.5025 44.6877Z" fill="#6C6CFF"/>
<path d="M33.1977 39.7389H29.0974C28.666 39.7389 28.3162 39.3891 28.3162 38.9577V37.8021C28.3162 37.3707 28.666 37.0208 29.0974 37.0208H33.1977C33.6291 37.0208 33.979 37.3707 33.979 37.8021V38.9577C33.979 39.3892 33.6291 39.7389 33.1977 39.7389Z" fill="#FF8B00"/>
<path d="M42.0503 39.7389H37.95C37.5185 39.7389 37.1687 39.3891 37.1687 38.9577V37.8021C37.1687 37.3707 37.5185 37.0208 37.95 37.0208H42.0503C42.4817 37.0208 42.8315 37.3707 42.8315 37.8021V38.9577C42.8315 39.3892 42.4817 39.7389 42.0503 39.7389Z" fill="#FF8B00"/>
<path d="M50.9027 39.7389H46.8024C46.371 39.7389 46.0211 39.3891 46.0211 38.9577V37.8021C46.0211 37.3707 46.371 37.0208 46.8024 37.0208H50.9027C51.3341 37.0208 51.6839 37.3707 51.6839 37.8021V38.9577C51.6839 39.3892 51.3341 39.7389 50.9027 39.7389Z" fill="#FF8B00"/>
<path d="M37.808 46.6747H28.3419C27.9105 46.6747 27.5607 46.3248 27.5607 45.8934C27.5607 45.462 27.9105 45.1122 28.3419 45.1122H37.808C38.2394 45.1122 38.5893 45.462 38.5893 45.8934C38.5893 46.3248 38.2394 46.6747 37.808 46.6747Z" fill="#FFAB66"/>
<path d="M37.808 50.1006H28.3419C27.9105 50.1006 27.5607 49.7508 27.5607 49.3194C27.5607 48.888 27.9105 48.5381 28.3419 48.5381H37.808C38.2394 48.5381 38.5893 48.888 38.5893 49.3194C38.5893 49.7508 38.2394 50.1006 37.808 50.1006Z" fill="#FFAB66"/>
<path d="M37.808 53.5266H28.3419C27.9105 53.5266 27.5607 53.1767 27.5607 52.7453C27.5607 52.3139 27.9105 51.9641 28.3419 51.9641H37.808C38.2394 51.9641 38.5893 52.3139 38.5893 52.7453C38.5893 53.1767 38.2394 53.5266 37.808 53.5266Z" fill="#FFAB66"/>
<path d="M51.658 46.6747H42.1919C41.7605 46.6747 41.4106 46.3248 41.4106 45.8934C41.4106 45.462 41.7605 45.1122 42.1919 45.1122H51.658C52.0894 45.1122 52.4392 45.462 52.4392 45.8934C52.4392 46.3248 52.0895 46.6747 51.658 46.6747Z" fill="#FFAB66"/>
<path d="M51.658 50.1006H42.1919C41.7605 50.1006 41.4106 49.7508 41.4106 49.3194C41.4106 48.888 41.7605 48.5381 42.1919 48.5381H51.658C52.0894 48.5381 52.4392 48.888 52.4392 49.3194C52.4392 49.7508 52.0895 50.1006 51.658 50.1006Z" fill="#FFAB66"/>
<path d="M51.658 53.5266H42.1919C41.7605 53.5266 41.4106 53.1767 41.4106 52.7453C41.4106 52.3139 41.7605 51.9641 42.1919 51.9641H51.658C52.0894 51.9641 52.4392 52.3139 52.4392 52.7453C52.4392 53.1767 52.0895 53.5266 51.658 53.5266Z" fill="#FFAB66"/>
<path d="M51.658 60.7747H28.342C27.9106 60.7747 27.5608 60.4249 27.5608 59.9935C27.5608 59.5621 27.9106 59.2122 28.342 59.2122H51.6581C52.0895 59.2122 52.4394 59.5621 52.4394 59.9935C52.4394 60.4249 52.0895 60.7747 51.658 60.7747Z" fill="#FFAB66"/>
<path d="M51.658 63.8881H28.342C27.9106 63.8881 27.5608 63.5383 27.5608 63.1069C27.5608 62.6755 27.9106 62.3256 28.342 62.3256H51.6581C52.0895 62.3256 52.4394 62.6755 52.4394 63.1069C52.4394 63.5383 52.0895 63.8881 51.658 63.8881Z" fill="#FFAB66"/>
<path d="M45.2772 28.0296L51.7183 23.4197C52.1402 23.1177 52.1402 22.4905 51.7183 22.1885L45.2772 17.5786C44.7311 17.1879 43.9844 17.6486 44.0889 18.3121L44.3694 20.0919H38.9667C38.5486 20.0919 38.2097 20.4308 38.2097 20.849V24.7593C38.2097 25.1774 38.5486 25.5163 38.9667 25.5163H44.3694L44.0889 27.2961C43.9844 27.9596 44.7311 28.4205 45.2772 28.0296Z" fill="#6C6CFF"/>
<path d="M34.7228 20.8649L28.2817 25.4748C27.8599 25.7768 27.8599 26.404 28.2817 26.706L34.7228 31.3159C35.2689 31.7067 36.0156 31.2459 35.9111 30.5824L35.6306 28.8026H41.0333C41.4514 28.8026 41.7903 28.4637 41.7903 28.0456V24.1353C41.7903 23.7171 41.4514 23.3782 41.0333 23.3782H35.6306L35.9111 21.5984C36.0156 20.9351 35.2689 20.4742 34.7228 20.8649Z" fill="#FF6C6C"/>
<path d="M27.1902 17.0143C27.6217 17.0143 27.9714 16.6645 27.9714 16.233C27.9714 15.8015 27.6217 15.4518 27.1902 15.4518C26.7587 15.4518 26.4089 15.8015 26.4089 16.233C26.4089 16.6645 26.7587 17.0143 27.1902 17.0143Z" fill="#FF8B00"/>
<path d="M29.6959 17.0143C30.1274 17.0143 30.4772 16.6645 30.4772 16.233C30.4772 15.8015 30.1274 15.4518 29.6959 15.4518C29.2645 15.4518 28.9147 15.8015 28.9147 16.233C28.9147 16.6645 29.2645 17.0143 29.6959 17.0143Z" fill="#FF8B00"/>
<path d="M32.2015 17.0143C32.633 17.0143 32.9828 16.6645 32.9828 16.233C32.9828 15.8015 32.633 15.4518 32.2015 15.4518C31.7701 15.4518 31.4203 15.8015 31.4203 16.233C31.4203 16.6645 31.7701 17.0143 32.2015 17.0143Z" fill="#FF8B00"/>
</g>
<defs>
<linearGradient id="paint0_linear_521_2337" x1="0.000144352" y1="40" x2="80.0001" y2="40" gradientUnits="userSpaceOnUse">
<stop stop-color="#5650EB" stop-opacity="0.1"/>
<stop offset="1" stop-color="#5650EB" stop-opacity="0.5"/>
</linearGradient>
<linearGradient id="paint1_linear_521_2337" x1="40.0001" y1="72.0533" x2="40.0001" y2="6.69708" gradientUnits="userSpaceOnUse">
<stop stop-color="#FF4D4D" stop-opacity="0.4"/>
<stop offset="0.1463" stop-color="#FF4D4D" stop-opacity="0.342"/>
<stop offset="1" stop-color="#FF4D4D" stop-opacity="0"/>
</linearGradient>
<clipPath id="clip0_521_2337">
<rect width="80" height="80" fill="white"/>
</clipPath>
</defs>
</svg>
