<svg width="80" height="80" viewBox="0 0 80 80" fill="none" xmlns="http://www.w3.org/2000/svg">
<g clip-path="url(#clip0_525_2635)">
<path d="M77.9133 38.2644C77.1601 34.5734 75.0905 30.7753 71.5169 29.5839C68.5606 28.5983 64.9144 29.7527 62.4042 27.9061C56.2925 23.41 59.0901 16.8613 48.4855 17.8461C46.1331 18.0645 43.4339 17.7303 41.9606 15.883C40.4572 13.9977 40.8705 11.2891 40.4234 8.91954C39.5347 4.20907 34.9534 0.625324 30.1786 0.202199C15.5472 -1.09405 9.24687 3.83048 3.59077 15.2044C2.31515 17.7695 1.09187 20.7177 1.97827 23.4422C4.95562 32.592 17.0019 28.3263 24.2839 29.0747C34.4572 30.1203 28.6042 39.2858 34.843 41.1035C36.1847 41.4944 37.5651 40.6425 38.9495 40.4531C42.7208 39.9374 46.0683 43.7635 46.2508 47.5655C46.6078 55.0009 41.5948 61.7049 38.2573 68.1169C35.6442 73.137 36.3942 78.702 42.3345 79.742C60.4984 82.9219 81.5347 56.0138 77.9133 38.2644Z" fill="url(#paint0_linear_525_2635)"/>
<path d="M69.5188 40.0001C69.5188 49.8641 64.6782 58.6001 57.2438 63.9579L43.1782 64.9672L30.6876 68.0188C18.9485 64.1188 10.4813 53.0469 10.4813 40.0001C10.4813 26.0985 20.0938 14.4391 33.0344 11.3079H33.036L47.2548 17.9047L61.9657 20.2829C66.661 25.5079 69.5188 32.4219 69.5188 40.0001Z" fill="#8399FE"/>
<path d="M36.3188 23.7907V38.8501C36.3188 40.0001 35.3876 40.9313 34.2376 40.9313H30.6532L28.8876 43.1735C28.3891 43.8079 27.4266 43.8079 26.9266 43.1735L25.161 40.9313H10.4969C10.486 40.6219 10.4813 40.311 10.4813 40.0001C10.4813 32.3922 13.361 25.4547 18.0876 20.2219L34.4282 21.7188C35.5001 21.8172 36.3188 22.7157 36.3188 23.7907Z" fill="#6583FE"/>
<path d="M69.5189 40.0001C69.5189 46.786 67.2283 53.0376 63.3767 58.0235H54.8392L53.0736 60.2657C52.5736 60.9001 51.6111 60.9001 51.1126 60.2657L49.347 58.0235H45.7626C44.6126 58.0235 43.6814 57.0923 43.6814 55.9423V40.8829C43.6814 39.8079 44.5001 38.9094 45.572 38.811L69.3298 36.6344C69.4548 37.7391 69.5189 38.8626 69.5189 40.0001Z" fill="#6583FE"/>
<path d="M37.5704 39.4777V45.2711C37.5704 45.6158 37.4335 45.9464 37.1897 46.19L30.0197 53.36C29.776 53.6038 29.4455 53.7407 29.1008 53.7407H22.4497C21.7319 53.7407 21.15 53.1588 21.15 52.441V47.8902C21.15 47.1724 20.5682 46.5905 19.8504 46.5905H15.7605C15.0427 46.5905 14.4608 46.0086 14.4608 45.2908V39.2147C14.4608 38.87 14.324 38.5394 14.0802 38.2958L10.886 35.1016C11.9672 28.6329 15.1516 22.8766 19.7125 18.5594L21.6916 20.5397C21.9352 20.7835 22.0719 21.1138 22.0719 21.4585V31.7977C22.0719 32.1424 22.2088 32.473 22.4525 32.7166L25.796 36.06C26.0397 36.3038 26.3702 36.4407 26.7149 36.4407H34.5322C34.8768 36.4407 35.2072 36.5775 35.451 36.821L37.1894 38.5583C37.4333 38.8021 37.5704 39.1329 37.5704 39.4777Z" fill="#01ECA5"/>
<path d="M36.3188 37.6876V38.8501C36.3188 40.0001 35.3875 40.9313 34.2375 40.9313H30.6532L28.8875 43.1735C28.3891 43.8079 27.4266 43.8079 26.9266 43.1735L25.161 40.9313H14.461V39.2157C14.461 38.8704 14.3235 38.5391 14.0797 38.2954L10.886 35.1016C11.8344 29.4313 14.3985 24.3079 18.0875 20.2219H18.0891L21.7047 20.5532C21.9391 20.7954 22.0719 21.1204 22.0719 21.4579V31.7969C22.0719 32.1422 22.2094 32.4735 22.4532 32.7172L25.7954 36.0594C26.0391 36.3032 26.3704 36.4407 26.7157 36.4407H34.5329C34.8766 36.4407 35.2079 36.5782 35.4516 36.8204L36.3188 37.6876Z" fill="#00D890"/>
<path d="M57.5638 32.0353L60.088 34.5583C60.3319 34.8021 60.469 35.1327 60.469 35.4775V40.8738C60.469 41.5916 59.8871 42.1735 59.1693 42.1735H58.0651C57.7204 42.1735 57.3898 42.3103 57.1462 42.5541L54.2396 45.4607C53.7321 45.9682 53.7321 46.7911 54.2396 47.2986L54.3329 47.3919C54.8404 47.8994 54.8404 48.7224 54.3329 49.2299L51.1443 52.4185C50.6368 52.926 49.8138 52.926 49.3063 52.4185L47.3732 50.4853C47.1294 50.2416 46.9926 49.9111 46.9926 49.5664V42.8932C46.9926 42.5485 47.1294 42.2178 47.3732 41.9743L49.9916 39.3558C50.2354 39.1121 50.3723 38.7816 50.3723 38.4369V28.8652C50.3723 28.5205 50.2354 28.1899 49.9916 27.9463L47.0326 24.9872C46.7888 24.7435 46.4584 24.6066 46.1137 24.6066H40.3263C39.9816 24.6066 39.651 24.4697 39.4074 24.226L33.4155 18.2341C33.1718 17.9904 33.0349 17.6599 33.0349 17.3152V11.3079C35.2677 10.7672 37.6005 10.4813 40.0005 10.4813C48.724 10.4813 56.563 14.2657 61.9662 20.2829L57.564 24.685C57.3202 24.9288 57.1833 25.2593 57.1833 25.6039V31.1161C57.1829 31.461 57.3199 31.7916 57.5638 32.0353Z" fill="#01ECA5"/>
<path d="M57.2437 63.9578C52.3937 67.4578 46.4359 69.5188 40 69.5188C36.7469 69.5188 33.6156 68.9922 30.6875 68.0188L31.8397 63.2433C31.9805 62.6597 32.5027 62.2485 33.1031 62.2485H35.6145C36.1275 62.2485 36.5925 61.9468 36.8014 61.4783L38.6066 57.4313C38.8155 56.9628 39.2805 56.6611 39.7934 56.6611H42.4598C42.8653 56.6611 43.2475 56.8503 43.4933 57.1727L45.8605 60.2771C46.2331 60.7658 46.8973 60.9266 47.4523 60.6625C47.8478 60.4744 48.3114 60.498 48.6856 60.7253L49.8063 61.4061C50.0611 61.561 50.3613 61.6235 50.6567 61.5832L54.3897 61.0739C54.8759 61.0077 55.3577 61.2202 55.6358 61.6246C56.0228 62.1875 56.6156 63.0488 57.2437 63.9578Z" fill="#01ECA5"/>
<path d="M34.428 17.9688L7.30078 15.4838C6.08171 15.3721 5.03015 16.3318 5.03015 17.556V35.1005C5.03015 36.2497 5.96171 37.1813 7.11093 37.1813H25.1612L26.9259 39.4233C27.4258 40.0585 28.3881 40.0585 28.8881 39.4233L30.6528 37.1813H34.2383C35.3875 37.1813 36.3191 36.2497 36.3191 35.1005V20.0411C36.3191 18.9652 35.4992 18.0669 34.428 17.9688Z" fill="#01ECA5"/>
<path d="M5.03015 26.0802H20.3983V32.4496H5.03015V26.0802Z" fill="#02FFB3"/>
<path d="M10.2384 22.1522H15.3295C15.7609 22.1522 16.1107 21.8025 16.1107 21.371C16.1107 20.9394 15.7609 20.5897 15.3295 20.5897H10.2384C9.80684 20.5897 9.45715 20.9394 9.45715 21.371C9.45715 21.8025 9.80684 22.1522 10.2384 22.1522Z" fill="#97FFD2"/>
<path d="M10.2384 26.8615H20.9545C21.3859 26.8615 21.7357 26.5118 21.7357 26.0802C21.7357 25.6486 21.3859 25.299 20.9545 25.299H10.2384C9.80684 25.299 9.45715 25.6486 9.45715 26.0802C9.45715 26.5118 9.80684 26.8615 10.2384 26.8615Z" fill="white"/>
<path d="M10.2384 30.0461H30.017C30.4484 30.0461 30.7982 29.6965 30.7982 29.2649C30.7982 28.8333 30.4484 28.4836 30.017 28.4836H10.2384C9.80684 28.4836 9.45715 28.8333 9.45715 29.2649C9.45715 29.6965 9.80684 30.0461 10.2384 30.0461Z" fill="white"/>
<path d="M10.2384 33.2308H30.017C30.4484 33.2308 30.7982 32.8811 30.7982 32.4496C30.7982 32.018 30.4484 31.6683 30.017 31.6683H10.2384C9.80684 31.6683 9.45715 32.018 9.45715 32.4496C9.45715 32.8811 9.80684 33.2308 10.2384 33.2308Z" fill="white"/>
<path d="M30.4857 23.246C30.9172 23.246 31.267 22.8962 31.267 22.4647C31.267 22.0332 30.9172 21.6835 30.4857 21.6835C30.0542 21.6835 29.7045 22.0332 29.7045 22.4647C29.7045 22.8962 30.0542 23.246 30.4857 23.246Z" fill="#00D890"/>
<path d="M27.5927 23.246C28.0241 23.246 28.3739 22.8962 28.3739 22.4647C28.3739 22.0332 28.0241 21.6835 27.5927 21.6835C27.1612 21.6835 26.8114 22.0332 26.8114 22.4647C26.8114 22.8962 27.1612 23.246 27.5927 23.246Z" fill="#00D890"/>
<path d="M24.6995 23.246C25.1309 23.246 25.4807 22.8962 25.4807 22.4647C25.4807 22.0332 25.1309 21.6835 24.6995 21.6835C24.268 21.6835 23.9182 22.0332 23.9182 22.4647C23.9182 22.8962 24.268 23.246 24.6995 23.246Z" fill="#00D890"/>
<path d="M72.6999 42.9938V49.3625H74.9702V52.1922C74.9702 53.3422 74.0374 54.2735 72.889 54.2735H54.839L53.0733 56.5157C52.5733 57.1501 51.6108 57.1501 51.1124 56.5157L49.3468 54.2735H45.7624C44.6124 54.2735 43.6812 53.3422 43.6812 52.1922V37.1329C43.6812 36.0579 44.4999 35.1594 45.5718 35.061L72.6983 32.5766C73.9187 32.4641 74.9702 33.4235 74.9702 34.6485V42.9938H72.6999Z" fill="#FF7EB8"/>
<path d="M59.6012 42.9938H74.9693V49.3632H59.6012V42.9938Z" fill="#FFA8CF"/>
<path d="M69.5602 39.0658H64.4691C64.0377 39.0658 63.6879 38.7161 63.6879 38.2846C63.6879 37.853 64.0377 37.5033 64.4691 37.5033H69.5602C69.9918 37.5033 70.3415 37.853 70.3415 38.2846C70.3415 38.7161 69.9918 39.0658 69.5602 39.0658Z" fill="#FFC4DF"/>
<path d="M69.5602 43.7751H58.8441C58.4127 43.7751 58.0629 43.4254 58.0629 42.9938C58.0629 42.5622 58.4127 42.2126 58.8441 42.2126H69.5602C69.9918 42.2126 70.3415 42.5622 70.3415 42.9938C70.3415 43.4254 69.9918 43.7751 69.5602 43.7751Z" fill="#FFDBED"/>
<path d="M69.5602 46.9597H49.7816C49.3502 46.9597 49.0004 46.61 49.0004 46.1785C49.0004 45.7469 49.3502 45.3972 49.7816 45.3972H69.5602C69.9918 45.3972 70.3415 45.7469 70.3415 46.1785C70.3415 46.61 69.9918 46.9597 69.5602 46.9597Z" fill="#FFDBED"/>
<path d="M69.5602 50.1444H49.7816C49.3502 50.1444 49.0004 49.7947 49.0004 49.3632C49.0004 48.9316 49.3502 48.5819 49.7816 48.5819H69.5602C69.9918 48.5819 70.3415 48.9316 70.3415 49.3632C70.3415 49.7947 69.9918 50.1444 69.5602 50.1444Z" fill="#FFDBED"/>
<path d="M49.3129 40.1596C49.7443 40.1596 50.0941 39.8098 50.0941 39.3783C50.0941 38.9469 49.7443 38.5971 49.3129 38.5971C48.8814 38.5971 48.5316 38.9469 48.5316 39.3783C48.5316 39.8098 48.8814 40.1596 49.3129 40.1596Z" fill="#FE2C8F"/>
<path d="M52.2059 40.1596C52.6374 40.1596 52.9872 39.8098 52.9872 39.3783C52.9872 38.9469 52.6374 38.5971 52.2059 38.5971C51.7745 38.5971 51.4247 38.9469 51.4247 39.3783C51.4247 39.8098 51.7745 40.1596 52.2059 40.1596Z" fill="#FE2C8F"/>
<path d="M55.0991 40.1596C55.5306 40.1596 55.8804 39.8098 55.8804 39.3783C55.8804 38.9469 55.5306 38.5971 55.0991 38.5971C54.6676 38.5971 54.3179 38.9469 54.3179 39.3783C54.3179 39.8098 54.6676 40.1596 55.0991 40.1596Z" fill="#FE2C8F"/>
<path d="M27.5926 76.9136C27.3926 76.9136 27.1928 76.8374 27.0401 76.6847L25.3995 75.0441C25.0944 74.7391 25.0944 74.2444 25.3995 73.9394L27.0401 72.2988C27.3453 71.9936 27.8398 71.9936 28.145 72.2988L29.7856 73.9394C30.0908 74.2444 30.0908 74.7391 29.7856 75.0441L28.145 76.6847C27.9925 76.8374 27.7926 76.9136 27.5926 76.9136ZM27.057 74.4917L27.5928 75.0275L28.1286 74.4917L27.5928 73.956L27.057 74.4917Z" fill="#02FFB3"/>
<path d="M66.514 16.6539C66.314 16.6539 66.1142 16.5777 65.9615 16.425L64.3209 14.7844C64.0158 14.4794 64.0158 13.9847 64.3209 13.6797L65.9615 12.0391C66.2667 11.7339 66.7612 11.7339 67.0664 12.0391L68.707 13.6797C69.0122 13.9847 69.0122 14.4794 68.707 14.7844L67.0664 16.425C66.9139 16.5777 66.714 16.6539 66.514 16.6539ZM65.9783 14.232L66.514 14.7678L67.0498 14.232L66.514 13.6963L65.9783 14.232Z" fill="#6583FE"/>
<path d="M69.5603 24.8085C69.3603 24.8085 69.1605 24.7322 69.0078 24.5796C68.7026 24.2746 68.7026 23.7799 69.0078 23.4749L70.5703 21.9124C70.8755 21.6072 71.37 21.6072 71.6751 21.9124C71.9803 22.2174 71.9803 22.7121 71.6751 23.0171L70.1126 24.5796C69.9601 24.7322 69.7603 24.8085 69.5603 24.8085Z" fill="#FF7EB8"/>
<path d="M18.4705 71.6739C18.2705 71.6739 18.0706 71.5977 17.918 71.445C17.6128 71.14 17.6128 70.6453 17.918 70.3403L19.4805 68.7778C19.7856 68.4727 20.2801 68.4727 20.5853 68.7778C20.8905 69.0828 20.8905 69.5775 20.5853 69.8825L19.0228 71.445C18.8703 71.5977 18.6705 71.6739 18.4705 71.6739Z" fill="#FF7EB8"/>
<path d="M18.4705 12.7394C18.2705 12.7394 18.0706 12.6632 17.918 12.5105C17.6128 12.2055 17.6128 11.7108 17.918 11.4058L19.4805 9.84331C19.7856 9.53815 20.2801 9.53815 20.5853 9.84331C20.8905 10.1483 20.8905 10.643 20.5853 10.948L19.0228 12.5105C18.8703 12.6632 18.6705 12.7394 18.4705 12.7394Z" fill="#6583FE"/>
<path d="M74.9703 42.9938V34.6484C74.9703 33.4234 73.9187 32.4641 72.6984 32.5766L68.6686 32.9456C67.4945 28.1599 65.1547 23.8314 61.9656 20.2828C56.5625 14.2656 48.7234 10.4813 40 10.4813C37.6 10.4813 35.2672 10.7672 33.0344 11.3078C28.8512 12.32 25.0167 14.2244 21.7414 16.8066L7.30078 15.4838C6.08171 15.372 5.03015 16.3317 5.03015 17.5559V35.1005C5.03015 36.2497 5.96171 37.1813 7.11093 37.1813H10.6156C10.5277 38.1092 10.4811 39.0492 10.4811 40.0002C10.4811 53.047 18.9483 64.1189 30.6873 68.0189C33.6155 68.9923 36.7467 69.5189 39.9998 69.5189C46.4358 69.5189 52.3936 67.458 57.2436 63.958C60.7758 61.4123 63.7208 58.1031 65.8411 54.2736H72.8889C74.0373 54.2736 74.9702 53.3423 74.9702 52.1923V49.3627H72.6998V42.9939H74.9703V42.9938Z" fill="url(#paint1_linear_525_2635)"/>
</g>
<defs>
<linearGradient id="paint0_linear_525_2635" x1="1.67617" y1="40.0001" x2="78.3237" y2="40.0001" gradientUnits="userSpaceOnUse">
<stop stop-color="#5650EB" stop-opacity="0.1"/>
<stop offset="1" stop-color="#5650EB" stop-opacity="0.5"/>
</linearGradient>
<linearGradient id="paint1_linear_525_2635" x1="40.0003" y1="69.5187" x2="40.0003" y2="10.4813" gradientUnits="userSpaceOnUse">
<stop stop-color="#FF7EB8" stop-opacity="0.6"/>
<stop offset="0.0094" stop-color="#FF83BB" stop-opacity="0.594"/>
<stop offset="0.0786" stop-color="#FFA4CD" stop-opacity="0.553"/>
<stop offset="0.156" stop-color="#FFC1DD" stop-opacity="0.506"/>
<stop offset="0.2421" stop-color="#FFD8E9" stop-opacity="0.454"/>
<stop offset="0.3408" stop-color="#FFE9F3" stop-opacity="0.395"/>
<stop offset="0.46" stop-color="#FFF6FA" stop-opacity="0.323"/>
<stop offset="0.6202" stop-color="#FFFDFE" stop-opacity="0.227"/>
<stop offset="0.9972" stop-color="white" stop-opacity="0"/>
</linearGradient>
<clipPath id="clip0_525_2635">
<rect width="80" height="80" fill="white"/>
</clipPath>
</defs>
</svg>
