<svg width="80" height="80" viewBox="0 0 80 80" fill="none" xmlns="http://www.w3.org/2000/svg">
<g clip-path="url(#clip0_525_2908)">
<path d="M63.1341 2.85912C55.9907 -0.381657 45.3854 2.38287 44.1238 12.4265C42.7936 23.0171 52.0972 32.6757 36.6111 32.6757C27.1385 32.6757 18.9944 26.4716 19.8993 15.5377C20.6844 6.05006 20.8115 -2.70478 10.5044 0.782249C0.710048 4.09569 0.418799 20.0421 4.52645 28.7716C7.99192 36.1363 20.0358 45.8813 14.0618 53.9382C10.1721 59.184 -2.5198 60.1804 0.736924 68.3708C3.94786 76.446 13.0144 79.7669 21.1507 79.9901C38.5993 80.4683 36.7707 63.9876 32.3066 52.3291C30.7821 48.3474 34.9136 47.0463 38.2797 48.7563C48.141 53.7655 51.5208 78.8393 64.8671 73.914C72.529 71.0863 67.1474 55.5802 58.9502 43.8537C55.4149 38.7962 52.3013 27.9355 60.4402 26.8294C65.5293 26.1379 69.5499 31.431 73.3055 34.433C84.7496 43.5805 80.8621 10.9016 63.1341 2.85912Z" fill="url(#paint0_linear_525_2908)"/>
<path d="M58.4453 11.8931V68.1087C58.4453 70.8228 56.2437 73.0244 53.5296 73.0244H26.4703C23.7562 73.0244 21.5546 70.8228 21.5546 68.1087V11.8931C21.5546 9.17904 23.7562 6.97748 26.4703 6.97748H53.5296C56.2437 6.97748 58.4453 9.17904 58.4453 11.8931Z" fill="#FFF3EE"/>
<path d="M58.4452 47.3782V61.4376C56.7749 62.9345 54.5687 63.8454 52.1484 63.8454C46.9359 63.8454 42.7109 59.6204 42.7109 54.4079C42.7109 49.1954 46.9359 44.9704 52.1484 44.9704C54.5687 44.9704 56.7749 45.8813 58.4452 47.3782Z" fill="#FFE8DC"/>
<path d="M37.289 54.4079C37.289 59.6204 33.064 63.8454 27.8515 63.8454C25.4312 63.8454 23.2249 62.9345 21.5546 61.4376V47.3782C23.2249 45.8813 25.4312 44.9704 27.8515 44.9704C33.064 44.9704 37.289 49.1954 37.289 54.4079Z" fill="#FFE8DC"/>
<path d="M48.2071 9.51525L48.7899 6.9765H31.2101L31.7929 9.51525C31.9638 10.2598 32.6263 10.7874 33.3901 10.7874H46.6099C47.3737 10.7874 48.0362 10.2598 48.2071 9.51525Z" fill="#4D4DFF"/>
<path d="M58.4453 11.8923V68.1079C58.4453 70.822 56.2437 73.0236 53.5296 73.0236H26.4703C23.7562 73.0236 21.5546 70.822 21.5546 68.1079V11.8923C21.5546 9.17825 23.7562 6.97668 26.4703 6.97668H53.5296C56.2437 6.97668 58.4453 9.17825 58.4453 11.8923Z" fill="url(#paint1_linear_525_2908)"/>
<path d="M52.1482 60.0956C57.3607 60.0956 61.5862 55.8701 61.5862 50.6576C61.5862 45.4452 57.3607 41.2196 52.1482 41.2196C46.9358 41.2196 42.7103 45.4452 42.7103 50.6576C42.7103 55.8701 46.9358 60.0956 52.1482 60.0956Z" fill="#FFAB66"/>
<path d="M52.1482 57.5284C55.9428 57.5284 59.019 54.4523 59.019 50.6577C59.019 46.863 55.9428 43.7869 52.1482 43.7869C48.3536 43.7869 45.2774 46.863 45.2774 50.6577C45.2774 54.4523 48.3536 57.5284 52.1482 57.5284Z" fill="white"/>
<path d="M52.1483 44.8965C52.5797 44.8965 52.9295 45.2464 52.9295 45.6778V50.6576C52.9295 50.7981 52.8925 50.93 52.8275 51.0439C52.6762 51.3093 52.3737 51.4775 52.0373 51.4312C51.647 51.3776 51.367 51.024 51.367 50.63V45.6778C51.367 45.2464 51.7167 44.8965 52.1483 44.8965Z" fill="#6C6CFF"/>
<path d="M54.386 48.0455L52.7539 49.2438C52.1758 48.9964 51.4761 49.1183 51.0172 49.6147C50.4813 50.1942 50.4813 51.1197 51.0164 51.7C51.6074 52.3408 52.6064 52.3625 53.2247 51.7569C53.5721 51.4167 53.723 50.9525 53.678 50.5038L55.3107 49.305C55.6585 49.0497 55.7333 48.5608 55.478 48.213C55.2227 47.865 54.7338 47.79 54.386 48.0455Z" fill="#FF4D4D"/>
<path d="M27.8517 60.0956C33.0642 60.0956 37.2897 55.8701 37.2897 50.6576C37.2897 45.4452 33.0642 41.2196 27.8517 41.2196C22.6393 41.2196 18.4138 45.4452 18.4138 50.6576C18.4138 55.8701 22.6393 60.0956 27.8517 60.0956Z" fill="#8383FF"/>
<path d="M27.8517 57.5284C31.6463 57.5284 34.7225 54.4523 34.7225 50.6577C34.7225 46.863 31.6463 43.7869 27.8517 43.7869C24.0571 43.7869 20.9809 46.863 20.9809 50.6577C20.9809 54.4523 24.0571 57.5284 27.8517 57.5284Z" fill="white"/>
<path d="M22.2055 51.8017C22.1199 51.3789 22.3932 50.9665 22.8161 50.8809L27.6968 49.892C27.8344 49.8642 27.971 49.8743 28.0957 49.9153C28.3858 50.0109 28.6107 50.2739 28.6322 50.6128C28.6572 51.0061 28.3661 51.3506 27.98 51.4289L23.1265 52.4123C22.7033 52.4979 22.2911 52.2245 22.2055 51.8017Z" fill="#6C6CFF"/>
<path d="M28.6381 47.309L27.7397 49.1234C27.1125 49.1695 26.5474 49.5993 26.3678 50.2512C26.1583 51.0123 26.5838 51.8342 27.3258 52.1034C28.1452 52.4007 29.0424 51.9607 29.313 51.1387C29.465 50.677 29.3856 50.1953 29.1394 49.8173L30.0381 48.0022C30.2296 47.6154 30.0714 47.1468 29.6847 46.9554C29.2983 46.764 28.8297 46.9223 28.6381 47.309Z" fill="#FF4D4D"/>
<path d="M40 40.7022C46.7956 40.7022 52.3046 35.1932 52.3046 28.3976C52.3046 21.602 46.7956 16.0931 40 16.0931C33.2044 16.0931 27.6955 21.602 27.6955 28.3976C27.6955 35.1932 33.2044 40.7022 40 40.7022Z" fill="#9494FF"/>
<path d="M37.4705 35.0864L37.2055 35.8175C37.1226 36.0465 36.916 36.2079 36.6737 36.2331L35.0766 36.3992C34.8809 36.4195 34.7055 36.5295 34.602 36.6968L33.3354 38.7428C29.9423 36.5517 27.6959 32.7372 27.6959 28.3975C27.6959 25.7792 28.5134 23.3529 29.9073 21.3582L30.142 23.472C30.1777 23.7939 30.4498 24.0375 30.7737 24.0375H31.2809C31.5243 24.0375 31.7463 24.1764 31.8526 24.3953L33.1068 26.9772C33.1941 27.157 33.1918 27.3673 33.1005 27.5451L31.4904 30.682C31.4054 30.8476 31.3973 31.0422 31.4682 31.2143L32.0154 32.5428C32.1385 32.8418 32.4668 33.0007 32.7777 32.9118L34.489 32.4228C34.6909 32.3651 34.9084 32.4109 35.0699 32.545L37.279 34.3803C37.4852 34.5522 37.5618 34.8343 37.4705 35.0864Z" fill="#FFAB66"/>
<path d="M46.9713 29.4045C46.7602 29.627 46.738 29.9683 46.9185 30.2163L48.8997 32.9406C48.9957 33.0722 49.0371 33.2356 49.016 33.3964L48.5119 37.2828C47.4282 38.3214 46.1549 39.1638 44.7488 39.7524L43.6644 34.8935C43.6601 34.875 43.6549 34.8566 43.6491 34.8381L42.8786 32.4233C42.8183 32.2339 42.6721 32.0839 42.4846 32.0178L38.3694 30.5628C38.2429 30.5183 38.1343 30.4344 38.058 30.3244L35.5854 26.7336C35.4747 26.5735 35.4443 26.3719 35.5008 26.1863L36.4708 23.031C36.5529 22.7639 36.7994 22.5822 37.0785 22.5822H39.3796C39.4958 22.5822 39.6104 22.5505 39.7094 22.49L42.999 20.491C43.0988 20.4306 43.2126 20.3981 43.3294 20.3981H46.4161C46.596 20.3981 46.7677 20.3219 46.8885 20.1883L47.9532 19.0085C49.4997 20.3199 50.7176 22.0063 51.4671 23.9278L49.103 25.0199C48.9238 25.1031 48.7929 25.2645 48.7496 25.4578L48.1769 28.0055C48.1515 28.1174 48.0961 28.221 48.0174 28.3036L46.9713 29.4045Z" fill="#FFAB66"/>
<path d="M36.7414 17.6603C36.7414 18.9329 35.146 21.247 34.1642 22.5504C33.7874 23.0508 33.0386 23.0508 32.6619 22.5504C31.6802 21.247 30.0847 18.9329 30.0847 17.6603C30.0847 15.822 31.5749 14.3318 33.4132 14.3318C35.2513 14.3318 36.7414 15.822 36.7414 17.6603Z" fill="#FF8B00"/>
<path d="M33.4132 19.3371C34.346 19.3371 35.1022 18.5809 35.1022 17.648C35.1022 16.7152 34.346 15.959 33.4132 15.959C32.4803 15.959 31.7241 16.7152 31.7241 17.648C31.7241 18.5809 32.4803 19.3371 33.4132 19.3371Z" fill="#FFF3EE"/>
<path d="M50.6633 29.7915C50.6633 31.0642 49.0678 33.3783 48.0861 34.6817C47.7093 35.182 46.9605 35.182 46.5838 34.6817C45.6021 33.3783 44.0066 31.0642 44.0066 29.7915C44.0066 27.9533 45.4967 26.4631 47.335 26.4631C49.1733 26.4631 50.6633 27.9534 50.6633 29.7915Z" fill="#4D4DFF"/>
<path d="M47.3349 31.4685C48.2677 31.4685 49.0239 30.7122 49.0239 29.7794C49.0239 28.8466 48.2677 28.0903 47.3349 28.0903C46.402 28.0903 45.6458 28.8466 45.6458 29.7794C45.6458 30.7122 46.402 31.4685 47.3349 31.4685Z" fill="#D9D9FF"/>
<path d="M52.4328 64.7262H47.8561C47.4247 64.7262 47.0748 64.3764 47.0748 63.9449C47.0748 63.5135 47.4247 63.1637 47.8561 63.1637H52.4328C52.8642 63.1637 53.2141 63.5135 53.2141 63.9449C53.2141 64.3764 52.8644 64.7262 52.4328 64.7262Z" fill="#8383FF"/>
<path d="M52.4328 67.5982H43.9042C43.4728 67.5982 43.1229 67.2484 43.1229 66.817C43.1229 66.3855 43.4728 66.0357 43.9042 66.0357H52.4328C52.8642 66.0357 53.214 66.3855 53.214 66.817C53.214 67.2484 52.8643 67.5982 52.4328 67.5982Z" fill="#8383FF"/>
<path d="M31.5189 64.7262H36.0956C36.527 64.7262 36.8768 64.3764 36.8768 63.9449C36.8768 63.5135 36.527 63.1637 36.0956 63.1637H31.5189C31.0875 63.1637 30.7376 63.5135 30.7376 63.9449C30.7376 64.3764 31.0875 64.7262 31.5189 64.7262Z" fill="#8383FF"/>
<path d="M27.5671 67.5982H36.0957C36.5271 67.5982 36.877 67.2484 36.877 66.817C36.877 66.3856 36.5271 66.0357 36.0957 66.0357H27.5671C27.1357 66.0357 26.7859 66.3856 26.7859 66.817C26.7859 67.2484 27.1356 67.5982 27.5671 67.5982Z" fill="#8383FF"/>
<path d="M62.6798 75.6337C62.48 75.6337 62.2798 75.5575 62.1275 75.405L61.2736 74.5512L60.4197 75.405C60.1148 75.71 59.6198 75.71 59.315 75.405C59.0098 75.0998 59.0098 74.6051 59.315 74.3001L60.7212 72.8939C61.0261 72.5889 61.5211 72.5889 61.8259 72.8939L63.2322 74.3001C63.5373 74.6053 63.5373 75.1 63.2322 75.405C63.0798 75.5575 62.8798 75.6337 62.6798 75.6337Z" fill="#FF6C6C"/>
<path d="M14.9992 53.7818C14.7994 53.7818 14.5992 53.7055 14.4469 53.553L13.593 52.6993L12.7391 53.553C12.4342 53.858 11.9392 53.858 11.6344 53.553C11.3292 53.2479 11.3292 52.7532 11.6344 52.4482L13.0406 51.042C13.3455 50.737 13.8405 50.737 14.1453 51.042L15.5516 52.4482C15.8567 52.7534 15.8567 53.248 15.5516 53.553C15.3992 53.7055 15.1991 53.7818 14.9992 53.7818Z" fill="#6C6CFF"/>
<path d="M62.293 38.89C62.1601 38.89 62.0255 38.8561 61.9022 38.7847L61.8868 38.7758C61.5133 38.5596 61.386 38.0816 61.6024 37.7082C61.8186 37.3347 62.2965 37.2074 62.6699 37.4236L62.6854 37.4325C63.0588 37.6488 63.1862 38.1268 62.9697 38.5002C62.8249 38.7502 62.5626 38.89 62.293 38.89Z" fill="#6C6CFF"/>
<path d="M66.1838 41.1365C66.0508 41.1365 65.9163 41.1026 65.793 41.0312L65.7775 41.0223C65.4041 40.806 65.2767 40.3281 65.4931 39.9546C65.7094 39.5812 66.1872 39.4538 66.5607 39.6701L66.5761 39.679C66.9496 39.8953 67.0769 40.3732 66.8605 40.7467C66.7157 40.9967 66.4535 41.1365 66.1838 41.1365Z" fill="#6C6CFF"/>
<path d="M62.293 38.89C62.1601 38.89 62.0255 38.8561 61.9022 38.7847L61.8868 38.7758C61.5133 38.5596 61.386 38.0816 61.6024 37.7082C61.8186 37.3347 62.2965 37.2074 62.6699 37.4236L62.6854 37.4325C63.0588 37.6488 63.1862 38.1268 62.9697 38.5002C62.8249 38.7502 62.5626 38.89 62.293 38.89Z" fill="#6C6CFF"/>
<path d="M66.1838 41.1365C66.0508 41.1365 65.9163 41.1026 65.793 41.0312L65.7775 41.0223C65.4041 40.806 65.2767 40.3281 65.4931 39.9546C65.7094 39.5812 66.1872 39.4538 66.5607 39.6701L66.5761 39.679C66.9496 39.8953 67.0769 40.3732 66.8605 40.7467C66.7157 40.9967 66.4535 41.1365 66.1838 41.1365Z" fill="#6C6CFF"/>
<path d="M66.1699 38.89C65.9002 38.89 65.638 38.7502 65.4932 38.5002C65.2768 38.1269 65.4043 37.6489 65.7775 37.4325L65.793 37.4236C66.1666 37.2074 66.6444 37.3349 66.8605 37.7082C67.0769 38.0814 66.9494 38.5594 66.5761 38.7758L66.5607 38.7847C66.4374 38.8561 66.3029 38.89 66.1699 38.89Z" fill="#6C6CFF"/>
<path d="M62.2791 41.1365C62.0094 41.1365 61.7472 40.9966 61.6024 40.7466C61.386 40.3733 61.5135 39.8954 61.8867 39.679L61.9022 39.6701C62.276 39.454 62.7536 39.5812 62.9697 39.9546C63.1861 40.3279 63.0586 40.8058 62.6853 41.0222L62.6699 41.0311C62.5466 41.1025 62.412 41.1365 62.2791 41.1365Z" fill="#6C6CFF"/>
<path d="M66.1699 38.89C65.9002 38.89 65.638 38.7502 65.4932 38.5002C65.2768 38.1269 65.4043 37.6489 65.7775 37.4325L65.793 37.4236C66.1666 37.2074 66.6444 37.3349 66.8605 37.7082C67.0769 38.0814 66.9494 38.5594 66.5761 38.7758L66.5607 38.7847C66.4374 38.8561 66.3029 38.89 66.1699 38.89Z" fill="#6C6CFF"/>
<path d="M62.2791 41.1365C62.0094 41.1365 61.7472 40.9966 61.6024 40.7466C61.386 40.3733 61.5135 39.8954 61.8867 39.679L61.9022 39.6701C62.276 39.454 62.7536 39.5812 62.9697 39.9546C63.1861 40.3279 63.0586 40.8058 62.6853 41.0222L62.6699 41.0311C62.5466 41.1025 62.412 41.1365 62.2791 41.1365Z" fill="#6C6CFF"/>
<path d="M64.2314 37.7711C63.7999 37.7711 63.4502 37.4213 63.4502 36.9899V36.9721C63.4502 36.5407 63.7999 36.1908 64.2314 36.1908C64.663 36.1908 65.0127 36.5407 65.0127 36.9721V36.9899C65.0127 37.4213 64.663 37.7711 64.2314 37.7711Z" fill="#6C6CFF"/>
<path d="M64.2314 42.2639C63.7999 42.2639 63.4502 41.9141 63.4502 41.4827V41.4649C63.4502 41.0335 63.7999 40.6836 64.2314 40.6836C64.663 40.6836 65.0127 41.0335 65.0127 41.4649V41.4827C65.0127 41.9141 64.663 42.2639 64.2314 42.2639Z" fill="#6C6CFF"/>
<path d="M12.902 59.1332C12.7689 59.1332 12.6342 59.0991 12.5108 59.0276L12.4955 59.0187C12.1222 58.8021 11.9952 58.3241 12.2117 57.9509C12.4284 57.5777 12.9061 57.4505 13.2795 57.6671L13.2948 57.676C13.6681 57.8926 13.7952 58.3705 13.5786 58.7438C13.4338 58.9937 13.1716 59.1332 12.902 59.1332Z" fill="#FF9D33"/>
<path d="M16.7929 61.3796C16.659 61.3796 16.5231 61.345 16.3991 61.2725L16.3838 61.2636C16.0113 61.0457 15.886 60.5672 16.104 60.1947C16.3218 59.8222 16.8005 59.6969 17.1727 59.9149L17.188 59.9238C17.5605 60.1418 17.6859 60.6202 17.4679 60.9927C17.3226 61.241 17.0612 61.3796 16.7929 61.3796Z" fill="#FF9D33"/>
<path d="M12.902 59.1332C12.7689 59.1332 12.6342 59.0991 12.5108 59.0276L12.4955 59.0187C12.1222 58.8021 11.9952 58.3241 12.2117 57.9509C12.4284 57.5777 12.9061 57.4505 13.2795 57.6671L13.2948 57.676C13.6681 57.8926 13.7952 58.3705 13.5786 58.7438C13.4338 58.9937 13.1716 59.1332 12.902 59.1332Z" fill="#FF9D33"/>
<path d="M16.7929 61.3796C16.659 61.3796 16.5231 61.345 16.3991 61.2725L16.3838 61.2636C16.0113 61.0457 15.886 60.5672 16.104 60.1947C16.3218 59.8222 16.8005 59.6969 17.1727 59.9149L17.188 59.9238C17.5605 60.1418 17.6859 60.6202 17.4679 60.9927C17.3226 61.241 17.0612 61.3796 16.7929 61.3796Z" fill="#FF9D33"/>
<path d="M16.7793 59.1332C16.5087 59.1332 16.2456 58.9924 16.101 58.7409C15.8862 58.3666 16.0152 57.8891 16.3895 57.6743L16.4049 57.6654C16.7795 57.4504 17.2567 57.5798 17.4715 57.9538C17.6863 58.3279 17.5573 58.8055 17.1831 59.0204L17.1676 59.0293C17.0449 59.0996 16.911 59.1332 16.7793 59.1332Z" fill="#FF9D33"/>
<path d="M12.8884 61.3796C12.6199 61.3796 12.3585 61.2412 12.2134 60.9928C11.9954 60.6203 12.1207 60.1418 12.4932 59.9239L12.5085 59.9149C12.8807 59.6973 13.3595 59.8223 13.5773 60.1948C13.7952 60.5673 13.6699 61.0457 13.2974 61.2637L13.2821 61.2726C13.1582 61.345 13.0224 61.3796 12.8884 61.3796Z" fill="#FF9D33"/>
<path d="M16.7793 59.1332C16.5087 59.1332 16.2456 58.9924 16.101 58.7409C15.8862 58.3666 16.0152 57.8891 16.3895 57.6743L16.4049 57.6654C16.7795 57.4504 17.2567 57.5798 17.4715 57.9538C17.6863 58.3279 17.5573 58.8055 17.1831 59.0204L17.1676 59.0293C17.0449 59.0996 16.911 59.1332 16.7793 59.1332Z" fill="#FF9D33"/>
<path d="M12.8884 61.3796C12.6199 61.3796 12.3585 61.2412 12.2134 60.9928C11.9954 60.6203 12.1207 60.1418 12.4932 59.9239L12.5085 59.9149C12.8807 59.6973 13.3595 59.8223 13.5773 60.1948C13.7952 60.5673 13.6699 61.0457 13.2974 61.2637L13.2821 61.2726C13.1582 61.345 13.0224 61.3796 12.8884 61.3796Z" fill="#FF9D33"/>
<path d="M14.8406 58.0143C14.4091 58.0143 14.0594 57.6644 14.0594 57.233V57.2152C14.0594 56.7838 14.4091 56.434 14.8406 56.434C15.2722 56.434 15.6219 56.7838 15.6219 57.2152V57.233C15.6219 57.6644 15.2722 58.0143 14.8406 58.0143Z" fill="#FF9D33"/>
<path d="M14.8406 62.507C14.4091 62.507 14.0594 62.1571 14.0594 61.7257V61.7079C14.0594 61.2765 14.4091 60.9267 14.8406 60.9267C15.2722 60.9267 15.6219 61.2765 15.6219 61.7079V61.7257C15.6219 62.1573 15.2722 62.507 14.8406 62.507Z" fill="#FF9D33"/>
<path d="M14.2302 9.69633C14.0963 9.69633 13.9604 9.6618 13.8365 9.5893L13.8211 9.58039C13.4486 9.36242 13.3233 8.88398 13.5413 8.51148C13.7591 8.13914 14.2379 8.01367 14.6101 8.23164L14.6254 8.24055C14.9979 8.45851 15.1232 8.93695 14.9052 9.30945C14.7601 9.55789 14.4986 9.69633 14.2302 9.69633Z" fill="#FF6C6C"/>
<path d="M18.1211 11.9427C17.9872 11.9427 17.8513 11.9082 17.7274 11.8357L17.7121 11.8268C17.3396 11.6088 17.2143 11.1304 17.4322 10.7579C17.65 10.3854 18.1288 10.26 18.501 10.478L18.5163 10.4869C18.8888 10.7049 19.0141 11.1833 18.7961 11.5558C18.6508 11.8043 18.3894 11.9427 18.1211 11.9427Z" fill="#FF6C6C"/>
<path d="M14.2302 9.69633C14.0963 9.69633 13.9604 9.6618 13.8365 9.5893L13.8211 9.58039C13.4486 9.36242 13.3233 8.88398 13.5413 8.51148C13.7591 8.13914 14.2379 8.01367 14.6101 8.23164L14.6254 8.24055C14.9979 8.45851 15.1232 8.93695 14.9052 9.30945C14.7601 9.55789 14.4986 9.69633 14.2302 9.69633Z" fill="#FF6C6C"/>
<path d="M18.1211 11.9427C17.9872 11.9427 17.8513 11.9082 17.7274 11.8357L17.7121 11.8268C17.3396 11.6088 17.2143 11.1304 17.4322 10.7579C17.65 10.3854 18.1288 10.26 18.501 10.478L18.5163 10.4869C18.8888 10.7049 19.0141 11.1833 18.7961 11.5558C18.6508 11.8043 18.3894 11.9427 18.1211 11.9427Z" fill="#FF6C6C"/>
<path d="M18.1074 9.69634C17.8377 9.69634 17.5755 9.5565 17.4307 9.3065C17.2143 8.93322 17.3418 8.45525 17.715 8.23884L17.7305 8.22994C18.1041 8.01369 18.5819 8.14119 18.798 8.51447C19.0144 8.88775 18.8869 9.36572 18.5136 9.58213L18.4982 9.59103C18.3749 9.66244 18.2402 9.69634 18.1074 9.69634Z" fill="#FF6C6C"/>
<path d="M14.2165 11.9427C13.9481 11.9427 13.6866 11.8043 13.5415 11.5559C13.3235 11.1834 13.4488 10.7049 13.8213 10.487L13.8366 10.4781C14.2088 10.2604 14.6876 10.3854 14.9054 10.7579C15.1234 11.1304 14.9981 11.6088 14.6256 11.8268L14.6102 11.8357C14.4863 11.9082 14.3506 11.9427 14.2165 11.9427Z" fill="#FF6C6C"/>
<path d="M18.1074 9.69634C17.8377 9.69634 17.5755 9.5565 17.4307 9.3065C17.2143 8.93322 17.3418 8.45525 17.715 8.23884L17.7305 8.22994C18.1041 8.01369 18.5819 8.14119 18.798 8.51447C19.0144 8.88775 18.8869 9.36572 18.5136 9.58213L18.4982 9.59103C18.3749 9.66244 18.2402 9.69634 18.1074 9.69634Z" fill="#FF6C6C"/>
<path d="M14.2165 11.9427C13.9481 11.9427 13.6866 11.8043 13.5415 11.5559C13.3235 11.1834 13.4488 10.7049 13.8213 10.487L13.8366 10.4781C14.2088 10.2604 14.6876 10.3854 14.9054 10.7579C15.1234 11.1304 14.9981 11.6088 14.6256 11.8268L14.6102 11.8357C14.4863 11.9082 14.3506 11.9427 14.2165 11.9427Z" fill="#FF6C6C"/>
<path d="M16.1688 8.57744C15.7373 8.57744 15.3876 8.2276 15.3876 7.79619V7.77838C15.3876 7.34698 15.7373 6.99713 16.1688 6.99713C16.6004 6.99713 16.9501 7.34698 16.9501 7.77838V7.79619C16.9501 8.2276 16.6004 8.57744 16.1688 8.57744Z" fill="#FF6C6C"/>
<path d="M16.1688 13.0702C15.7373 13.0702 15.3876 12.7204 15.3876 12.289V12.2712C15.3876 11.8398 15.7373 11.4899 16.1688 11.4899C16.6004 11.4899 16.9501 11.8398 16.9501 12.2712V12.289C16.9501 12.7204 16.6004 13.0702 16.1688 13.0702Z" fill="#FF6C6C"/>
</g>
<defs>
<linearGradient id="paint0_linear_525_2908" x1="0.208091" y1="40.0002" x2="79.7919" y2="40.0002" gradientUnits="userSpaceOnUse">
<stop stop-color="#5650EB" stop-opacity="0.1"/>
<stop offset="1" stop-color="#5650EB" stop-opacity="0.5"/>
</linearGradient>
<linearGradient id="paint1_linear_525_2908" x1="39.9999" y1="73.0236" x2="39.9999" y2="6.97668" gradientUnits="userSpaceOnUse">
<stop stop-color="#FF4D4D" stop-opacity="0.4"/>
<stop offset="0.1463" stop-color="#FF4D4D" stop-opacity="0.342"/>
<stop offset="1" stop-color="#FF4D4D" stop-opacity="0"/>
</linearGradient>
<clipPath id="clip0_525_2908">
<rect width="80" height="80" fill="white"/>
</clipPath>
</defs>
</svg>
