<svg width="80" height="80" viewBox="0 0 80 80" fill="none" xmlns="http://www.w3.org/2000/svg">
<g clip-path="url(#clip0_525_3193)">
<path d="M65.1866 31.4319C65.3487 30.1335 65.4281 28.8067 65.4185 27.4573C65.3122 12.3907 54.0036 0.0959835 40.1647 0.000630309C26.0503 -0.0968239 14.5806 12.3306 14.5806 27.6745C14.5806 28.949 14.6598 30.2033 14.8133 31.4319C15.4349 36.4105 13.2935 41.3303 9.40035 44.0283C3.92595 47.822 0.646606 52.654 0.646606 57.9159C0.646606 70.1127 18.2658 80 40 80C61.7342 80 79.3534 70.1125 79.3534 57.9159C79.3534 52.6538 76.0739 47.8219 70.5995 44.0281C66.7063 41.3303 64.5651 36.4105 65.1866 31.4319Z" fill="url(#paint0_linear_525_3193)"/>
<path d="M67.3387 11.4815V65.7261C67.3387 66.6866 66.5602 67.4651 65.5998 67.4651H61.8121C61.5818 67.4651 61.3913 67.3012 61.3375 67.0772C61.1629 66.3512 60.5095 65.8118 59.7299 65.8118C58.9517 65.8118 58.2985 66.3512 58.1239 67.0772C58.0701 67.3012 57.8795 67.4651 57.6492 67.4651H19.3056C19.0753 67.4651 18.8848 67.3012 18.831 67.0772C18.6564 66.3512 18.0032 65.8118 17.225 65.8118C16.4454 65.8118 15.792 66.3512 15.6174 67.0772C15.5636 67.3012 15.3731 67.4651 15.1428 67.4651H11.3551C10.3947 67.4651 9.61615 66.6866 9.61615 65.7261V11.4815C9.61615 10.521 10.3947 9.74249 11.3551 9.74249H15.1428C15.3731 9.74249 15.5636 9.90637 15.6174 10.1304C15.792 10.8563 16.4454 11.3958 17.225 11.3958C18.0032 11.3958 18.6564 10.8563 18.831 10.1304C18.8848 9.90637 19.0753 9.74249 19.3056 9.74249H57.6492C57.8795 9.74249 58.0701 9.90637 58.1239 10.1304C58.2985 10.8563 58.9517 11.3958 59.7299 11.3958C60.5094 11.3958 61.1629 10.8563 61.3375 10.1304C61.3913 9.90637 61.5818 9.74249 61.8121 9.74249H65.5998C66.5601 9.74249 67.3387 10.521 67.3387 11.4815Z" fill="#6C6CFF"/>
<path d="M55.2856 31.4971V45.7104L63.0267 43.4557C63.3715 43.3552 63.6088 43.0391 63.6088 42.6798V34.5274C63.6088 34.1682 63.3715 33.852 63.0267 33.7517L55.2856 31.4971Z" fill="#FFAB66"/>
<path d="M21.6694 31.4971V45.7104L13.9284 43.4557C13.5835 43.3552 13.3463 43.0391 13.3463 42.6798V34.5274C13.3463 34.1682 13.5833 33.852 13.9284 33.7517L21.6694 31.4971Z" fill="#FFAB66"/>
<path d="M63.6087 54.8887V56.7843C63.6087 56.9986 63.5235 57.2042 63.3719 57.3558L58.7431 61.9846C58.5915 62.1362 58.3859 62.2214 58.1716 62.2214H50.033C49.5868 62.2214 49.2249 61.8595 49.2249 61.4133V60.9204C49.2249 60.4742 48.863 60.1123 48.4168 60.1123H28.5381C28.0919 60.1123 27.73 60.4742 27.73 60.9204V61.4133C27.73 61.8595 27.3682 62.2214 26.922 62.2214H18.7832C18.5689 62.2214 18.3633 62.1362 18.2117 61.9846L13.5829 57.3558C13.4313 57.2042 13.3463 56.9986 13.3463 56.7843V54.8887C13.3463 54.4425 13.7081 54.0807 14.1543 54.0807H62.8006C63.2468 54.0807 63.6087 54.4425 63.6087 54.8887Z" fill="#FFAB66"/>
<path d="M13.3463 22.3189V20.4233C13.3463 20.209 13.4314 20.0035 13.583 19.8519L18.2118 15.223C18.3634 15.0714 18.5689 14.9863 18.7832 14.9863H26.922C27.3682 14.9863 27.73 15.3481 27.73 15.7943V16.2873C27.73 16.7335 28.0919 17.0953 28.5381 17.0953H48.4168C48.863 17.0953 49.2249 16.7335 49.2249 16.2873V15.7943C49.2249 15.3481 49.5868 14.9863 50.033 14.9863H58.1718C58.3861 14.9863 58.5917 15.0714 58.7432 15.223L63.3721 19.8519C63.5237 20.0035 63.6088 20.209 63.6088 20.4232V22.3188C63.6088 22.7651 63.247 23.1268 62.8008 23.1268H14.1545C13.7079 23.127 13.3463 22.7651 13.3463 22.3189Z" fill="#FFAB66"/>
<path d="M55.4624 57.3278H21.4923C20.532 57.3278 19.7533 56.5493 19.7533 55.5888V21.6188C19.7533 20.6585 20.5318 19.8799 21.4923 19.8799H55.4624C56.4227 19.8799 57.2014 20.6584 57.2014 21.6188V55.589C57.2014 56.5493 56.4229 57.3278 55.4624 57.3278Z" fill="#EBEBFF"/>
<path d="M61.0231 56.1329C60.5767 56.1329 60.215 55.7711 60.215 55.3249V21.8828C60.215 21.4365 60.5767 21.0747 61.0231 21.0747C61.4695 21.0747 61.8312 21.4365 61.8312 21.8828V55.3247C61.8312 55.7711 61.4695 56.1329 61.0231 56.1329Z" fill="#2C27FF"/>
<path d="M15.9317 56.1329C15.4855 56.1329 15.1236 55.7711 15.1236 55.3249V21.8828C15.1236 21.4365 15.4855 21.0747 15.9317 21.0747C16.3779 21.0747 16.7398 21.4365 16.7398 21.8828V55.3247C16.7398 55.7711 16.3779 56.1329 15.9317 56.1329Z" fill="#2C27FF"/>
<path d="M30.3159 13.4992C29.8696 13.4992 29.5079 13.1373 29.5079 12.6911V12.6725C29.5079 12.2263 29.8696 11.8644 30.3159 11.8644C30.7623 11.8644 31.124 12.2263 31.124 12.6725V12.6911C31.124 13.1375 30.7622 13.4992 30.3159 13.4992Z" fill="#4D4DFF"/>
<path d="M33.0363 13.4992C32.59 13.4992 32.2283 13.1373 32.2283 12.6911V12.6725C32.2283 12.2263 32.59 11.8644 33.0363 11.8644C33.4827 11.8644 33.8444 12.2263 33.8444 12.6725V12.6911C33.8444 13.1375 33.4827 13.4992 33.0363 13.4992Z" fill="#4D4DFF"/>
<path d="M35.7569 13.4992C35.3105 13.4992 34.9489 13.1373 34.9489 12.6911V12.6725C34.9489 12.2263 35.3105 11.8644 35.7569 11.8644C36.2033 11.8644 36.565 12.2263 36.565 12.6725V12.6911C36.565 13.1375 36.2033 13.4992 35.7569 13.4992Z" fill="#4D4DFF"/>
<path d="M38.4776 13.4992C38.0312 13.4992 37.6695 13.1373 37.6695 12.6911V12.6725C37.6695 12.2263 38.0312 11.8644 38.4776 11.8644C38.924 11.8644 39.2856 12.2263 39.2856 12.6725V12.6911C39.2856 13.1375 38.9238 13.4992 38.4776 13.4992Z" fill="#4D4DFF"/>
<path d="M41.1979 13.4992C40.7515 13.4992 40.3898 13.1373 40.3898 12.6911V12.6725C40.3898 12.2263 40.7515 11.8644 41.1979 11.8644C41.6443 11.8644 42.006 12.2263 42.006 12.6725V12.6911C42.006 13.1375 41.6443 13.4992 41.1979 13.4992Z" fill="#4D4DFF"/>
<path d="M43.9186 13.4992C43.4722 13.4992 43.1105 13.1373 43.1105 12.6911V12.6725C43.1105 12.2263 43.4722 11.8644 43.9186 11.8644C44.3649 11.8644 44.7266 12.2263 44.7266 12.6725V12.6911C44.7266 13.1375 44.3649 13.4992 43.9186 13.4992Z" fill="#4D4DFF"/>
<path d="M46.6391 13.4992C46.1928 13.4992 45.8311 13.1373 45.8311 12.6911V12.6725C45.8311 12.2263 46.1928 11.8644 46.6391 11.8644C47.0855 11.8644 47.4472 12.2263 47.4472 12.6725V12.6911C47.4472 13.1375 47.0854 13.4992 46.6391 13.4992Z" fill="#4D4DFF"/>
<path d="M30.3159 15.8037C29.8696 15.8037 29.5079 15.4418 29.5079 14.9956V14.977C29.5079 14.5308 29.8696 14.1689 30.3159 14.1689C30.7623 14.1689 31.124 14.5308 31.124 14.977V14.9956C31.124 15.442 30.7622 15.8037 30.3159 15.8037Z" fill="#4D4DFF"/>
<path d="M33.0363 15.8037C32.59 15.8037 32.2283 15.4418 32.2283 14.9956V14.977C32.2283 14.5308 32.59 14.1689 33.0363 14.1689C33.4827 14.1689 33.8444 14.5308 33.8444 14.977V14.9956C33.8444 15.442 33.4827 15.8037 33.0363 15.8037Z" fill="#4D4DFF"/>
<path d="M35.7569 15.8037C35.3105 15.8037 34.9489 15.4418 34.9489 14.9956V14.977C34.9489 14.5308 35.3105 14.1689 35.7569 14.1689C36.2033 14.1689 36.565 14.5308 36.565 14.977V14.9956C36.565 15.442 36.2033 15.8037 35.7569 15.8037Z" fill="#4D4DFF"/>
<path d="M38.4776 15.8037C38.0312 15.8037 37.6695 15.4418 37.6695 14.9956V14.977C37.6695 14.5308 38.0312 14.1689 38.4776 14.1689C38.924 14.1689 39.2856 14.5308 39.2856 14.977V14.9956C39.2856 15.442 38.9238 15.8037 38.4776 15.8037Z" fill="#4D4DFF"/>
<path d="M41.1979 15.8037C40.7515 15.8037 40.3898 15.4418 40.3898 14.9956V14.977C40.3898 14.5308 40.7515 14.1689 41.1979 14.1689C41.6443 14.1689 42.006 14.5308 42.006 14.977V14.9956C42.006 15.442 41.6443 15.8037 41.1979 15.8037Z" fill="#4D4DFF"/>
<path d="M43.9186 15.8037C43.4722 15.8037 43.1105 15.4418 43.1105 14.9956V14.977C43.1105 14.5308 43.4722 14.1689 43.9186 14.1689C44.3649 14.1689 44.7266 14.5308 44.7266 14.977V14.9956C44.7266 15.442 44.3649 15.8037 43.9186 15.8037Z" fill="#4D4DFF"/>
<path d="M46.6391 15.8037C46.1928 15.8037 45.8311 15.4418 45.8311 14.9956V14.977C45.8311 14.5308 46.1928 14.1689 46.6391 14.1689C47.0855 14.1689 47.4472 14.5308 47.4472 14.977V14.9956C47.4472 15.442 47.0854 15.8037 46.6391 15.8037Z" fill="#4D4DFF"/>
<path d="M30.3159 63.0385C29.8696 63.0385 29.5079 62.6767 29.5079 62.2305V62.2119C29.5079 61.7657 29.8696 61.4038 30.3159 61.4038C30.7623 61.4038 31.124 61.7657 31.124 62.2119V62.2305C31.124 62.6767 30.7622 63.0385 30.3159 63.0385Z" fill="#4D4DFF"/>
<path d="M33.0363 63.0385C32.59 63.0385 32.2283 62.6767 32.2283 62.2305V62.2119C32.2283 61.7657 32.59 61.4038 33.0363 61.4038C33.4827 61.4038 33.8444 61.7657 33.8444 62.2119V62.2305C33.8444 62.6767 33.4827 63.0385 33.0363 63.0385Z" fill="#4D4DFF"/>
<path d="M35.7569 63.0385C35.3105 63.0385 34.9489 62.6767 34.9489 62.2305V62.2119C34.9489 61.7657 35.3105 61.4038 35.7569 61.4038C36.2033 61.4038 36.565 61.7657 36.565 62.2119V62.2305C36.565 62.6767 36.2033 63.0385 35.7569 63.0385Z" fill="#4D4DFF"/>
<path d="M38.4776 63.0385C38.0312 63.0385 37.6695 62.6767 37.6695 62.2305V62.2119C37.6695 61.7657 38.0312 61.4038 38.4776 61.4038C38.924 61.4038 39.2856 61.7657 39.2856 62.2119V62.2305C39.2856 62.6767 38.9238 63.0385 38.4776 63.0385Z" fill="#4D4DFF"/>
<path d="M41.1979 63.0385C40.7515 63.0385 40.3898 62.6767 40.3898 62.2305V62.2119C40.3898 61.7657 40.7515 61.4038 41.1979 61.4038C41.6443 61.4038 42.006 61.7657 42.006 62.2119V62.2305C42.006 62.6767 41.6443 63.0385 41.1979 63.0385Z" fill="#4D4DFF"/>
<path d="M43.9186 63.0385C43.4722 63.0385 43.1105 62.6767 43.1105 62.2305V62.2119C43.1105 61.7657 43.4722 61.4038 43.9186 61.4038C44.3649 61.4038 44.7266 61.7657 44.7266 62.2119V62.2305C44.7266 62.6767 44.3649 63.0385 43.9186 63.0385Z" fill="#4D4DFF"/>
<path d="M46.6391 63.0385C46.1928 63.0385 45.8311 62.6767 45.8311 62.2305V62.2119C45.8311 61.7657 46.1928 61.4038 46.6391 61.4038C47.0855 61.4038 47.4472 61.7657 47.4472 62.2119V62.2305C47.4472 62.6767 47.0854 63.0385 46.6391 63.0385Z" fill="#4D4DFF"/>
<path d="M30.3159 65.3431C29.8696 65.3431 29.5079 64.9813 29.5079 64.535V64.5164C29.5079 64.0702 29.8696 63.7084 30.3159 63.7084C30.7623 63.7084 31.124 64.0702 31.124 64.5164V64.535C31.124 64.9813 30.7622 65.3431 30.3159 65.3431Z" fill="#4D4DFF"/>
<path d="M33.0363 65.3431C32.59 65.3431 32.2283 64.9813 32.2283 64.535V64.5164C32.2283 64.0702 32.59 63.7084 33.0363 63.7084C33.4827 63.7084 33.8444 64.0702 33.8444 64.5164V64.535C33.8444 64.9813 33.4827 65.3431 33.0363 65.3431Z" fill="#4D4DFF"/>
<path d="M35.7569 65.3431C35.3105 65.3431 34.9489 64.9813 34.9489 64.535V64.5164C34.9489 64.0702 35.3105 63.7084 35.7569 63.7084C36.2033 63.7084 36.565 64.0702 36.565 64.5164V64.535C36.565 64.9813 36.2033 65.3431 35.7569 65.3431Z" fill="#4D4DFF"/>
<path d="M38.4776 65.3431C38.0312 65.3431 37.6695 64.9813 37.6695 64.535V64.5164C37.6695 64.0702 38.0312 63.7084 38.4776 63.7084C38.924 63.7084 39.2856 64.0702 39.2856 64.5164V64.535C39.2856 64.9813 38.9238 65.3431 38.4776 65.3431Z" fill="#4D4DFF"/>
<path d="M41.1979 65.3431C40.7515 65.3431 40.3898 64.9813 40.3898 64.535V64.5164C40.3898 64.0702 40.7515 63.7084 41.1979 63.7084C41.6443 63.7084 42.006 64.0702 42.006 64.5164V64.535C42.006 64.9813 41.6443 65.3431 41.1979 65.3431Z" fill="#4D4DFF"/>
<path d="M43.9186 65.3431C43.4722 65.3431 43.1105 64.9813 43.1105 64.535V64.5164C43.1105 64.0702 43.4722 63.7084 43.9186 63.7084C44.3649 63.7084 44.7266 64.0702 44.7266 64.5164V64.535C44.7266 64.9813 44.3649 65.3431 43.9186 65.3431Z" fill="#4D4DFF"/>
<path d="M46.6391 65.3431C46.1928 65.3431 45.8311 64.9813 45.8311 64.535V64.5164C45.8311 64.0702 46.1928 63.7084 46.6391 63.7084C47.0855 63.7084 47.4472 64.0702 47.4472 64.5164V64.535C47.4472 64.9813 47.0854 65.3431 46.6391 65.3431Z" fill="#4D4DFF"/>
<path d="M51.7299 41.2942V35.9134H48.2663C48.0412 35.0906 47.7151 34.31 47.302 33.5849L49.7506 31.1354L45.946 27.3308L43.4966 29.7795C42.7714 29.3664 41.9908 29.0402 41.168 28.8151V25.3515H35.7872V28.8151C34.9644 29.0402 34.1836 29.3664 33.4585 29.7795L31.009 27.3308L27.2044 31.1354L29.6531 33.5849C29.24 34.31 28.9138 35.0906 28.6887 35.9134H25.225V41.2942H28.6886C28.9137 42.117 29.2398 42.8976 29.6529 43.6228L27.2043 46.0722L31.0089 49.8768L33.4583 47.4282C34.1835 47.8413 34.9641 48.1674 35.787 48.3926V51.8561H41.1679V48.3926C41.9906 48.1674 42.7712 47.8413 43.4964 47.4282L45.9458 49.8768L49.7504 46.0722L47.3018 43.6228C47.7149 42.8976 48.041 42.117 48.2662 41.2942H51.7299ZM38.4774 45.1346C34.8707 45.1346 31.9469 42.2108 31.9469 38.604C31.9469 34.9972 34.8707 32.0734 38.4774 32.0734C42.0842 32.0734 45.008 34.9972 45.008 38.604C45.008 42.2108 42.0842 45.1346 38.4774 45.1346Z" fill="#FF6C6C"/>
<path d="M17.5078 75.9512C17.301 75.9512 17.0943 75.8724 16.9364 75.7146L15.1112 73.8895C14.9598 73.7379 14.8746 73.5323 14.8746 73.318C14.8746 73.1037 14.9598 72.8982 15.1112 72.7466L16.9364 70.9216C17.252 70.6061 17.7635 70.6061 18.0791 70.9216L19.9041 72.7466C20.0557 72.8982 20.1407 73.1037 20.1407 73.318C20.1407 73.5323 20.0555 73.7379 19.9041 73.8895L18.0791 75.7146C17.9214 75.8724 17.7145 75.9512 17.5078 75.9512ZM16.8255 73.318L17.5077 74.0002L18.1899 73.318L17.5077 72.6359L16.8255 73.318Z" fill="#FF9D33"/>
<path d="M3.43736 19.5477C3.22306 19.5477 3.01748 19.4626 2.86589 19.3111L1.04093 17.486C0.72529 17.1704 0.72529 16.6587 1.04093 16.3432L2.86589 14.5183C3.18152 14.2028 3.69304 14.2028 4.00867 14.5183L5.83363 16.3432C5.98523 16.4948 6.07024 16.7004 6.07024 16.9147C6.07024 17.129 5.98507 17.3346 5.83363 17.4862L4.00867 19.3111C3.85724 19.4626 3.65166 19.5477 3.43736 19.5477ZM2.75518 16.9145L3.43736 17.5967L4.11954 16.9145L3.43736 16.2323L2.75518 16.9145Z" fill="#FF9D33"/>
<path d="M73.0523 39.9893C71.8927 39.9893 70.9493 39.0459 70.9493 37.8863C70.9493 36.7267 71.8927 35.7834 73.0523 35.7834C74.2119 35.7834 75.1554 36.7267 75.1554 37.8863C75.1552 39.0459 74.2119 39.9893 73.0523 39.9893ZM73.0523 37.3995C72.7838 37.3995 72.5655 37.6179 72.5655 37.8863C72.5655 38.1548 72.7838 38.3731 73.0523 38.3731C73.3207 38.3731 73.5392 38.1548 73.5392 37.8863C73.5391 37.6179 73.3207 37.3995 73.0523 37.3995Z" fill="#6C6CFF"/>
<path d="M27.0027 74.8908C25.8431 74.8908 24.8998 73.9475 24.8998 72.7879C24.8998 71.6283 25.8431 70.6849 27.0027 70.6849C28.1623 70.6849 29.1057 71.6283 29.1057 72.7879C29.1057 73.9475 28.1622 74.8908 27.0027 74.8908ZM27.0027 72.3011C26.7343 72.3011 26.5159 72.5194 26.5159 72.7879C26.5159 73.0563 26.7343 73.2747 27.0027 73.2747C27.2712 73.2747 27.4895 73.0563 27.4895 72.7879C27.4895 72.5194 27.271 72.3011 27.0027 72.3011Z" fill="#6C6CFF"/>
<path d="M19.3327 5.50752C18.1731 5.50752 17.2298 4.56417 17.2298 3.40458C17.2298 2.24499 18.1731 1.30164 19.3327 1.30164C20.4923 1.30164 21.4357 2.24499 21.4357 3.40458C21.4357 4.56417 20.4923 5.50752 19.3327 5.50752ZM19.3327 2.91779C19.0643 2.91779 18.846 3.13613 18.846 3.40458C18.846 3.67302 19.0643 3.89136 19.3327 3.89136C19.6012 3.89136 19.8195 3.67302 19.8195 3.40458C19.8195 3.13613 19.6012 2.91779 19.3327 2.91779Z" fill="#FF6C6C"/>
<path d="M67.3387 11.4815V65.7261C67.3387 66.6866 66.5602 67.4651 65.5997 67.4651H61.8121C61.5818 67.4651 61.3912 67.3012 61.3374 67.0772C61.1629 66.3512 60.5095 65.8118 59.7298 65.8118C58.9516 65.8118 58.2984 66.3512 58.1239 67.0772C58.07 67.3012 57.8795 67.4651 57.6492 67.4651H19.3056C19.0753 67.4651 18.8847 67.3012 18.8309 67.0772C18.6564 66.3512 18.0031 65.8118 17.2249 65.8118C16.4453 65.8118 15.7919 66.3512 15.6174 67.0772C15.5635 67.3012 15.373 67.4651 15.1427 67.4651H11.3551C10.3946 67.4651 9.61609 66.6866 9.61609 65.7261V11.4815C9.61609 10.521 10.3946 9.74249 11.3551 9.74249H15.1427C15.373 9.74249 15.5635 9.90637 15.6174 10.1304C15.7919 10.8563 16.4453 11.3958 17.2249 11.3958C18.0031 11.3958 18.6564 10.8563 18.8309 10.1304C18.8847 9.90637 19.0753 9.74249 19.3056 9.74249H57.6492C57.8795 9.74249 58.07 9.90637 58.1239 10.1304C58.2984 10.8563 58.9516 11.3958 59.7298 11.3958C60.5093 11.3958 61.1629 10.8563 61.3374 10.1304C61.3912 9.90637 61.5818 9.74249 61.8121 9.74249H65.5997C66.56 9.74249 67.3387 10.521 67.3387 11.4815Z" fill="url(#paint1_linear_525_3193)"/>
</g>
<defs>
<linearGradient id="paint0_linear_525_3193" x1="0.646628" y1="40.0001" x2="79.3533" y2="40.0001" gradientUnits="userSpaceOnUse">
<stop stop-color="#5650EB" stop-opacity="0.1"/>
<stop offset="1" stop-color="#5650EB" stop-opacity="0.5"/>
</linearGradient>
<linearGradient id="paint1_linear_525_3193" x1="38.4774" y1="67.4651" x2="38.4774" y2="9.74249" gradientUnits="userSpaceOnUse">
<stop stop-color="#FF4D4D" stop-opacity="0.4"/>
<stop offset="1" stop-color="#FF4D4D" stop-opacity="0"/>
</linearGradient>
<clipPath id="clip0_525_3193">
<rect width="80" height="80" fill="white"/>
</clipPath>
</defs>
</svg>
