<svg width="20" height="20" viewBox="0 0 20 20" fill="none" xmlns="http://www.w3.org/2000/svg">
<path d="M13.9583 2.96669V1.66669C13.9583 1.32502 13.675 1.04169 13.3333 1.04169C12.9917 1.04169 12.7083 1.32502 12.7083 1.66669V2.91669H7.29165V1.66669C7.29165 1.32502 7.00832 1.04169 6.66665 1.04169C6.32499 1.04169 6.04165 1.32502 6.04165 1.66669V2.96669C3.79165 3.17502 2.69999 4.51669 2.53332 6.50835C2.51665 6.75002 2.71665 6.95002 2.94999 6.95002H17.05C17.2917 6.95002 17.4917 6.74169 17.4667 6.50835C17.3 4.51669 16.2083 3.17502 13.9583 2.96669Z" fill="#2E28D4"/>
<path opacity="0.4" d="M16.6667 8.20001C17.125 8.20001 17.5 8.57501 17.5 9.03335V14.1667C17.5 16.6667 16.25 18.3333 13.3333 18.3333H6.66667C3.75 18.3333 2.5 16.6667 2.5 14.1667V9.03335C2.5 8.57501 2.875 8.20001 3.33333 8.20001H16.6667Z" fill="#2E28D4"/>
<path d="M7.08333 12.5C6.86667 12.5 6.65 12.4083 6.49167 12.2583C6.34167 12.1 6.25 11.8833 6.25 11.6666C6.25 11.45 6.34167 11.2333 6.49167 11.075C6.725 10.8416 7.09167 10.7666 7.4 10.9C7.50833 10.9416 7.6 11 7.675 11.075C7.825 11.2333 7.91667 11.45 7.91667 11.6666C7.91667 11.8833 7.825 12.1 7.675 12.2583C7.51667 12.4083 7.3 12.5 7.08333 12.5Z" fill="#2E28D4"/>
<path d="M9.99996 12.5C9.78329 12.5 9.56663 12.4083 9.40829 12.2583C9.25829 12.1 9.16663 11.8833 9.16663 11.6666C9.16663 11.45 9.25829 11.2333 9.40829 11.075C9.48329 11 9.57496 10.9416 9.68329 10.9C9.99163 10.7666 10.3583 10.8416 10.5916 11.075C10.7416 11.2333 10.8333 11.45 10.8333 11.6666C10.8333 11.8833 10.7416 12.1 10.5916 12.2583C10.55 12.2916 10.5083 12.325 10.4666 12.3583C10.4166 12.3916 10.3666 12.4167 10.3166 12.4333C10.2666 12.4583 10.2166 12.475 10.1666 12.4833C10.1083 12.4916 10.0583 12.5 9.99996 12.5Z" fill="#2E28D4"/>
<path d="M12.9167 12.5C12.7 12.5 12.4834 12.4083 12.325 12.2583C12.175 12.1 12.0834 11.8833 12.0834 11.6667C12.0834 11.45 12.175 11.2333 12.325 11.075C12.4084 11 12.4917 10.9416 12.6 10.9C12.75 10.8333 12.9167 10.8166 13.0834 10.85C13.1334 10.8583 13.1834 10.875 13.2334 10.9C13.2834 10.9166 13.3334 10.9417 13.3834 10.975C13.425 11.0083 13.4667 11.0417 13.5084 11.075C13.6584 11.2333 13.75 11.45 13.75 11.6667C13.75 11.8833 13.6584 12.1 13.5084 12.2583C13.4667 12.2916 13.425 12.325 13.3834 12.3583C13.3334 12.3916 13.2834 12.4167 13.2334 12.4333C13.1834 12.4583 13.1334 12.475 13.0834 12.4833C13.025 12.4917 12.9667 12.5 12.9167 12.5Z" fill="#2E28D4"/>
<path d="M7.08333 15.4167C6.975 15.4167 6.86667 15.3917 6.76667 15.35C6.65833 15.3084 6.575 15.25 6.49167 15.175C6.34167 15.0167 6.25 14.8 6.25 14.5833C6.25 14.3667 6.34167 14.15 6.49167 13.9917C6.575 13.9167 6.65833 13.8583 6.76667 13.8167C6.91667 13.75 7.08333 13.7333 7.25 13.7667C7.3 13.775 7.35 13.7917 7.4 13.8167C7.45 13.8333 7.5 13.8584 7.55 13.8917C7.59167 13.925 7.63333 13.9584 7.675 13.9917C7.825 14.15 7.91667 14.3667 7.91667 14.5833C7.91667 14.8 7.825 15.0167 7.675 15.175C7.63333 15.2083 7.59167 15.25 7.55 15.275C7.5 15.3083 7.45 15.3334 7.4 15.35C7.35 15.375 7.3 15.3917 7.25 15.4C7.19167 15.4084 7.14167 15.4167 7.08333 15.4167Z" fill="#2E28D4"/>
<path d="M9.99996 15.4167C9.78329 15.4167 9.56663 15.325 9.40829 15.175C9.25829 15.0167 9.16663 14.8 9.16663 14.5833C9.16663 14.3667 9.25829 14.15 9.40829 13.9917C9.71663 13.6834 10.2833 13.6834 10.5916 13.9917C10.7416 14.15 10.8333 14.3667 10.8333 14.5833C10.8333 14.8 10.7416 15.0167 10.5916 15.175C10.4333 15.325 10.2166 15.4167 9.99996 15.4167Z" fill="#2E28D4"/>
<path d="M12.9167 15.4167C12.7 15.4167 12.4834 15.325 12.325 15.175C12.175 15.0167 12.0834 14.8 12.0834 14.5833C12.0834 14.3667 12.175 14.15 12.325 13.9917C12.6334 13.6834 13.2 13.6834 13.5084 13.9917C13.6584 14.15 13.75 14.3667 13.75 14.5833C13.75 14.8 13.6584 15.0167 13.5084 15.175C13.35 15.325 13.1334 15.4167 12.9167 15.4167Z" fill="#2E28D4"/>
</svg>
