<svg width="44" height="44" viewBox="0 0 44 44" fill="none" xmlns="http://www.w3.org/2000/svg">
<rect width="44" height="44" rx="22" fill="white"/>
<path d="M26.1667 19.2668C26.0083 19.2668 25.85 19.2084 25.725 19.0834L24.0583 17.4168C23.8167 17.1751 23.8167 16.7751 24.0583 16.5334C24.3 16.2918 24.7 16.2918 24.9417 16.5334L26.1667 17.7584L29.0583 14.8751C29.3 14.6334 29.7 14.6334 29.9417 14.8751C30.1833 15.1168 30.1833 15.5168 29.9417 15.7584L26.6083 19.0918C26.4833 19.2001 26.325 19.2668 26.1667 19.2668Z" fill="url(#paint0_linear_825_304)"/>
<path opacity="0.4" d="M21.825 23.8417L19.1 26.5667C18.8 26.3001 18.5083 26.0251 18.225 25.7417C17.3666 24.8751 16.5916 23.9667 15.9 23.0167C15.2166 22.0667 14.6666 21.1167 14.2666 20.1751C13.8666 19.2251 13.6666 18.3167 13.6666 17.4501C13.6666 16.8834 13.7666 16.3417 13.9666 15.8417C14.1666 15.3334 14.4833 14.8667 14.925 14.4501C15.4583 13.9251 16.0416 13.6667 16.6583 13.6667C16.8916 13.6667 17.125 13.7167 17.3333 13.8167C17.55 13.9167 17.7416 14.0667 17.8916 14.2834L19.825 17.0084C19.975 17.2167 20.0833 17.4084 20.1583 17.5917C20.2333 17.7667 20.275 17.9417 20.275 18.1001C20.275 18.3001 20.2166 18.5001 20.1 18.6917C19.9916 18.8834 19.8333 19.0834 19.6333 19.2834L19 19.9417C18.9083 20.0334 18.8666 20.1417 18.8666 20.2751C18.8666 20.3417 18.875 20.4001 18.8916 20.4667C18.9166 20.5334 18.9416 20.5834 18.9583 20.6334C19.1083 20.9084 19.3666 21.2667 19.7333 21.7001C20.1083 22.1334 20.5083 22.5751 20.9416 23.0167C21.2416 23.3084 21.5333 23.5917 21.825 23.8417Z" fill="url(#paint1_linear_825_304)"/>
<path d="M30.3083 27.275C30.3083 27.5083 30.2667 27.75 30.1833 27.9833C30.1583 28.05 30.1333 28.1166 30.1 28.1833C29.9583 28.4833 29.775 28.7666 29.5333 29.0333C29.125 29.4833 28.675 29.8083 28.1667 30.0166C28.1583 30.0166 28.15 30.025 28.1417 30.025C27.65 30.225 27.1167 30.3333 26.5417 30.3333C25.6917 30.3333 24.7833 30.1333 23.825 29.725C22.8667 29.3166 21.9083 28.7666 20.9583 28.075C20.6333 27.8333 20.3083 27.5916 20 27.3333L22.725 24.6083C22.9583 24.7833 23.1667 24.9166 23.3417 25.0083C23.3833 25.025 23.4333 25.05 23.4917 25.075C23.5583 25.1 23.625 25.1083 23.7 25.1083C23.8417 25.1083 23.95 25.0583 24.0417 24.9666L24.675 24.3416C24.8833 24.1333 25.0833 23.975 25.275 23.875C25.4667 23.7583 25.6583 23.7 25.8667 23.7C26.025 23.7 26.1917 23.7333 26.375 23.8083C26.5583 23.8833 26.75 23.9916 26.9583 24.1333L29.7167 26.0916C29.9333 26.2416 30.0833 26.4166 30.175 26.625C30.2583 26.8333 30.3083 27.0416 30.3083 27.275Z" fill="url(#paint2_linear_825_304)"/>
<defs>
<linearGradient id="paint0_linear_825_304" x1="30.1229" y1="14.6938" x2="25.7636" y2="20.648" gradientUnits="userSpaceOnUse">
<stop stop-color="#2E28D4"/>
<stop offset="1" stop-color="#011F70"/>
</linearGradient>
<linearGradient id="paint1_linear_825_304" x1="21.825" y1="13.6667" x2="10.1699" y2="21.0377" gradientUnits="userSpaceOnUse">
<stop stop-color="#2E28D4"/>
<stop offset="1" stop-color="#011F70"/>
</linearGradient>
<linearGradient id="paint2_linear_825_304" x1="30.3083" y1="23.7" x2="24.2712" y2="33.0818" gradientUnits="userSpaceOnUse">
<stop stop-color="#2E28D4"/>
<stop offset="1" stop-color="#011F70"/>
</linearGradient>
</defs>
</svg>
