<svg width="30" height="31" viewBox="0 0 30 31" fill="none" xmlns="http://www.w3.org/2000/svg">
<path d="M20.3125 28.625C21.5206 28.625 22.5 27.6456 22.5 26.4375C22.5 25.2294 21.5206 24.25 20.3125 24.25C19.1044 24.25 18.125 25.2294 18.125 26.4375C18.125 27.6456 19.1044 28.625 20.3125 28.625Z" fill="white"/>
<path d="M10.3125 28.625C11.5206 28.625 12.5 27.6456 12.5 26.4375C12.5 25.2294 11.5206 24.25 10.3125 24.25C9.10438 24.25 8.125 25.2294 8.125 26.4375C8.125 27.6456 9.10438 28.625 10.3125 28.625Z" fill="white"/>
<path opacity="0.4" d="M6.05 5.425L5.8 8.4875C5.75 9.075 6.2125 9.5625 6.8 9.5625H25.9375C26.4625 9.5625 26.9 9.16249 26.9375 8.63749C27.1 6.42499 25.4125 4.625 23.2 4.625H7.86249C7.73749 4.075 7.48749 3.55 7.09999 3.1125C6.48749 2.45 5.61251 2.0625 4.71251 2.0625H2.5C1.9875 2.0625 1.5625 2.4875 1.5625 3C1.5625 3.5125 1.9875 3.9375 2.5 3.9375H4.67501C5.06251 3.9375 5.425 4.10001 5.6875 4.37501C5.95 4.66251 6.075 5.0375 6.05 5.425Z" fill="white"/>
<path d="M25.6376 11.4375H6.46257C5.93757 11.4375 5.51257 11.8375 5.46257 12.35L5.01257 17.7875C4.83757 19.9125 6.51257 21.75 8.65007 21.75H22.5501C24.4251 21.75 26.0751 20.2125 26.2126 18.3375L26.6251 12.5C26.6751 11.925 26.2251 11.4375 25.6376 11.4375Z" fill="white"/>
</svg>
