<svg width="20" height="20" viewBox="0 0 20 20" fill="none" xmlns="http://www.w3.org/2000/svg">
<path opacity="0.4" d="M9.99996 18.3334C14.6023 18.3334 18.3333 14.6024 18.3333 10C18.3333 5.39765 14.6023 1.66669 9.99996 1.66669C5.39759 1.66669 1.66663 5.39765 1.66663 10C1.66663 14.6024 5.39759 18.3334 9.99996 18.3334Z" fill="#2E28D4"/>
<path d="M13.0916 13.275C12.9833 13.275 12.8749 13.25 12.775 13.1834L10.1916 11.6417C9.54995 11.2584 9.07495 10.4167 9.07495 9.67503V6.25836C9.07495 5.9167 9.35828 5.63336 9.69995 5.63336C10.0416 5.63336 10.325 5.9167 10.325 6.25836V9.67503C10.325 9.97503 10.575 10.4167 10.8333 10.5667L13.4166 12.1084C13.7166 12.2834 13.8083 12.6667 13.6333 12.9667C13.5083 13.1667 13.3 13.275 13.0916 13.275Z" fill="#2E28D4"/>
</svg>
