<svg width="40" height="40" viewBox="0 0 40 40" fill="none" xmlns="http://www.w3.org/2000/svg">
<rect opacity="0.2" width="40" height="40" rx="20" fill="url(#paint0_linear_947_5961)"/>
<path d="M29.6602 18.44L28.6802 22.62C27.8402 26.23 26.1802 27.69 23.0602 27.39C22.5602 27.35 22.0202 27.26 21.4402 27.12L19.7602 26.72C15.5902 25.73 14.3002 23.67 15.2802 19.49L16.2602 15.3C16.4602 14.45 16.7002 13.71 17.0002 13.1C18.1702 10.68 20.1602 10.03 23.5002 10.82L25.1702 11.21C29.3602 12.19 30.6402 14.26 29.6602 18.44Z" stroke="url(#paint1_linear_947_5961)" stroke-width="1.5" stroke-linecap="round" stroke-linejoin="round"/>
<path opacity="0.4" d="M23.0603 27.39C22.4403 27.81 21.6603 28.16 20.7103 28.47L19.1303 28.99C15.1603 30.27 13.0703 29.2 11.7803 25.23L10.5003 21.28C9.22034 17.31 10.2803 15.21 14.2503 13.93L15.8303 13.41C16.2403 13.28 16.6303 13.17 17.0003 13.1C16.7003 13.71 16.4603 14.45 16.2603 15.3L15.2803 19.49C14.3003 23.67 15.5903 25.73 19.7603 26.72L21.4403 27.12C22.0203 27.26 22.5603 27.35 23.0603 27.39Z" stroke="url(#paint2_linear_947_5961)" stroke-width="1.5" stroke-linecap="round" stroke-linejoin="round"/>
<path opacity="0.4" d="M20.6396 16.53L25.4896 17.76" stroke="url(#paint3_linear_947_5961)" stroke-width="1.5" stroke-linecap="round" stroke-linejoin="round"/>
<path opacity="0.4" d="M19.6602 20.4L22.5602 21.14" stroke="url(#paint4_linear_947_5961)" stroke-width="1.5" stroke-linecap="round" stroke-linejoin="round"/>
<defs>
<linearGradient id="paint0_linear_947_5961" x1="0" y1="40" x2="40" y2="0" gradientUnits="userSpaceOnUse">
<stop stop-color="#2E28D4"/>
<stop offset="1" stop-color="#AC27FD"/>
</linearGradient>
<linearGradient id="paint1_linear_947_5961" x1="14.9688" y1="27.4281" x2="31.7731" y2="12.5327" gradientUnits="userSpaceOnUse">
<stop stop-color="#011F70"/>
<stop offset="1" stop-color="#AC27FD"/>
</linearGradient>
<linearGradient id="paint2_linear_947_5961" x1="9.98633" y1="29.5023" x2="25.9756" y2="16.7574" gradientUnits="userSpaceOnUse">
<stop stop-color="#011F70"/>
<stop offset="1" stop-color="#AC27FD"/>
</linearGradient>
<linearGradient id="paint3_linear_947_5961" x1="20.6396" y1="17.76" x2="21.2258" y2="15.4487" gradientUnits="userSpaceOnUse">
<stop stop-color="#011F70"/>
<stop offset="1" stop-color="#AC27FD"/>
</linearGradient>
<linearGradient id="paint4_linear_947_5961" x1="19.6602" y1="21.14" x2="20.0147" y2="19.7505" gradientUnits="userSpaceOnUse">
<stop stop-color="#011F70"/>
<stop offset="1" stop-color="#AC27FD"/>
</linearGradient>
</defs>
</svg>
