<svg width="420" height="233" viewBox="0 0 420 233" fill="none" xmlns="http://www.w3.org/2000/svg">
<path d="M14.1566 231.913C7.08738 194.329 15.0075 168.601 37.917 149.255C54.6082 135.186 89.0379 123.591 100.951 103.399C106.056 94.736 108.936 84.3142 112.536 74.4786C127.984 32.2702 149.388 1.2002 199.462 0.0277418C234.022 -0.753894 254.313 15.0742 273.165 35.7876C286.714 50.7038 292.801 71.1566 309.82 78.9078C326.904 86.7242 360.875 94.6708 376.716 106.916C433.858 150.949 410.949 212.372 401.196 231.718" fill="url(#paint0_linear_580_3113)"/>
<path d="M269.892 214.978H190.429C184.08 214.978 178.974 209.897 178.974 203.579V32.9216C178.974 26.6034 184.08 21.5227 190.429 21.5227H269.892C276.241 21.5227 281.347 26.6034 281.347 32.9216V203.579C281.347 209.897 276.176 214.978 269.892 214.978Z" fill="url(#paint1_linear_580_3113)"/>
<path d="M269.107 212.372H191.215C185.978 212.372 181.724 208.138 181.724 202.927V33.6381C181.724 28.4272 185.978 24.1933 191.215 24.1933H269.107C274.343 24.1933 278.598 28.4272 278.598 33.6381V202.927C278.598 208.138 274.343 212.372 269.107 212.372Z" fill="url(#paint2_linear_580_3113)"/>
<path d="M209.542 131.473L210.393 133.166C210.458 133.297 210.524 133.362 210.655 133.362L212.553 133.622C212.88 133.688 212.945 134.013 212.749 134.274L211.375 135.576C211.309 135.642 211.244 135.772 211.244 135.902L211.571 137.791C211.636 138.117 211.309 138.312 211.047 138.182L209.345 137.27C209.214 137.205 209.084 137.205 209.018 137.27L207.316 138.182C207.054 138.312 206.727 138.117 206.793 137.791L207.12 135.902C207.12 135.772 207.12 135.642 206.989 135.576L205.614 134.274C205.418 134.078 205.549 133.688 205.811 133.622L207.709 133.362C207.84 133.362 207.905 133.297 207.971 133.166L208.822 131.473C209.018 131.212 209.411 131.212 209.542 131.473Z" fill="white"/>
<path d="M220.015 131.473L220.866 133.166C220.931 133.297 220.997 133.362 221.127 133.362L223.026 133.622C223.353 133.688 223.418 134.013 223.222 134.274L221.847 135.576C221.782 135.642 221.717 135.772 221.717 135.902L222.044 137.791C222.109 138.117 221.782 138.312 221.52 138.182L219.818 137.27C219.687 137.205 219.556 137.205 219.491 137.27L217.789 138.182C217.527 138.312 217.2 138.117 217.266 137.791L217.593 135.902C217.593 135.772 217.593 135.642 217.462 135.576L216.087 134.274C215.891 134.078 216.022 133.688 216.284 133.622L218.182 133.362C218.313 133.362 218.378 133.297 218.444 133.166L219.295 131.473C219.491 131.212 219.884 131.212 220.015 131.473Z" fill="white"/>
<path d="M230.488 131.473L231.338 133.166C231.404 133.297 231.469 133.362 231.6 133.362L233.499 133.622C233.826 133.688 233.891 134.013 233.695 134.274L232.32 135.576C232.255 135.642 232.189 135.772 232.189 135.902L232.517 137.791C232.582 138.117 232.255 138.312 231.993 138.182L230.291 137.27C230.16 137.205 230.029 137.205 229.964 137.27L228.262 138.182C228 138.312 227.673 138.117 227.738 137.791L228.066 135.902C228.066 135.772 228.066 135.642 227.935 135.576L226.56 134.274C226.364 134.078 226.495 133.688 226.757 133.622L228.655 133.362C228.786 133.362 228.851 133.297 228.917 133.166L229.768 131.473C229.964 131.212 230.357 131.212 230.488 131.473Z" fill="white"/>
<path d="M240.961 131.473L241.811 133.166C241.877 133.297 241.942 133.362 242.073 133.362L243.972 133.622C244.299 133.688 244.364 134.013 244.168 134.274L242.793 135.576C242.728 135.642 242.662 135.772 242.662 135.902L242.99 137.791C243.055 138.117 242.728 138.312 242.466 138.182L240.764 137.27C240.633 137.205 240.502 137.205 240.437 137.27L238.735 138.182C238.473 138.312 238.146 138.117 238.211 137.791L238.539 135.902C238.539 135.772 238.539 135.642 238.408 135.576L237.033 134.274C236.837 134.078 236.968 133.688 237.23 133.622L239.128 133.362C239.259 133.362 239.324 133.297 239.39 133.166L240.241 131.473C240.437 131.212 240.83 131.212 240.961 131.473Z" fill="white"/>
<path d="M251.433 131.473L252.284 133.166C252.35 133.297 252.415 133.362 252.546 133.362L254.444 133.622C254.772 133.688 254.837 134.013 254.641 134.274L253.266 135.576C253.201 135.642 253.135 135.772 253.135 135.902L253.463 137.791C253.528 138.117 253.201 138.312 252.939 138.182L251.237 137.27C251.106 137.205 250.975 137.205 250.91 137.27L249.208 138.182C248.946 138.312 248.619 138.117 248.684 137.791L249.012 135.902C249.012 135.772 249.012 135.642 248.881 135.576L247.506 134.274C247.31 134.078 247.441 133.688 247.702 133.622L249.601 133.362C249.732 133.362 249.797 133.297 249.862 133.166L250.713 131.473C250.91 131.212 251.302 131.212 251.433 131.473Z" fill="white"/>
<path d="M232.124 103.464C250.091 103.464 264.655 88.9705 264.655 71.0915C264.655 53.2125 250.091 38.7187 232.124 38.7187C214.157 38.7187 199.593 53.2125 199.593 71.0915C199.593 88.9705 214.157 103.464 232.124 103.464Z" fill="white"/>
<path d="M237.688 74.674C237.099 73.241 236.837 72.0685 236.706 71.1566C236.64 70.6355 236.64 70.2447 236.706 69.919C236.706 69.4631 236.837 69.2025 236.837 69.2025L236.575 69.2677C236.575 69.2025 236.575 69.2025 236.575 69.2025L232.189 70.4401L227.804 69.2025C227.804 69.2025 227.804 69.2025 227.804 69.2677L227.542 69.2025C227.542 69.2025 227.608 69.4631 227.673 69.919C227.673 70.2447 227.673 70.6355 227.673 71.1566C227.608 72.0685 227.346 73.241 226.691 74.674C226.691 74.674 226.298 75.7162 223.484 76.0419C223.484 76.0419 223.68 76.8235 224.204 77.8657C224.269 77.996 224.335 78.1262 224.4 78.2565C224.597 78.5822 224.793 78.9079 224.989 79.2987C225.382 79.8849 225.775 80.4711 226.298 80.9922C226.822 82.4904 228 83.728 229.309 83.9234C229.964 84.0536 230.619 84.0536 231.208 84.0536C231.469 84.0536 231.666 84.0536 231.928 84.0536C232.059 84.0536 232.124 84.0536 232.255 84.0536C232.386 84.0536 232.451 84.0536 232.582 84.0536C232.779 84.0536 233.04 84.0536 233.302 84.0536C233.891 84.0536 234.546 83.9885 235.2 83.9234C236.51 83.728 237.688 82.4904 238.211 80.9922C238.735 80.406 239.193 79.8198 239.521 79.2987C239.717 78.973 239.913 78.5822 240.11 78.2565C240.241 77.996 240.371 77.7354 240.437 77.54C240.83 76.6932 240.961 76.3024 240.961 76.3024C238.015 75.8465 237.688 74.674 237.688 74.674Z" fill="#EFCDAF"/>
<path d="M256.146 98.2534L248.226 90.3719L247.572 111.671C242.924 113.886 237.688 115.124 232.189 115.124C226.626 115.124 221.389 113.886 216.742 111.606L216.676 108.805L216.087 90.3067L215.04 91.3489H209.214C210.458 85.7472 212.095 80.6665 217.658 77.7354C219.687 76.6932 223.549 75.7162 224.531 75.7162C224.727 75.7162 224.858 75.7813 224.924 75.9767C225.055 76.3024 225.317 76.8235 225.709 77.4749C225.775 77.54 225.775 77.6051 225.84 77.6703C226.888 79.3638 228.655 81.7739 231.339 82.8812C231.928 83.1417 232.582 83.1417 233.171 82.8812C235.789 81.7739 237.622 79.4289 238.67 77.6703C238.67 77.6051 238.735 77.54 238.8 77.4749C239.193 76.8235 239.455 76.2373 239.586 75.9767C239.651 75.8465 239.848 75.7162 239.979 75.7162C241.157 76.107 244.364 76.9538 246.59 77.8657C254.379 82.1647 255.623 91.2838 256.146 98.2534Z" fill="url(#paint3_linear_580_3113)"/>
<path d="M236.706 71.1566C236.64 70.6355 236.64 70.2447 236.706 69.919L236.509 69.5934L232.189 70.7658L227.869 69.5934L227.673 69.919C227.673 70.2447 227.673 70.6355 227.673 71.1566C228.262 72.1337 229.702 73.8924 232.189 73.9575C234.677 73.8924 236.117 72.0685 236.706 71.1566Z" fill="#CC6362"/>
<path d="M224.27 60.9954C224.27 60.9954 224.793 62.6238 225.186 64.7733C225.383 65.9457 225.252 66.532 224.204 66.4017C223.419 66.2714 221.324 63.8614 222.044 61.777C222.175 61.2559 223.026 60.4091 224.27 60.9954Z" fill="#EFCDAF"/>
<path d="M240.175 66.4017C240.11 66.4017 240.11 66.4017 240.044 66.4017C239.128 66.4668 238.997 65.8806 239.193 64.7733C239.193 64.643 239.259 64.4476 239.259 64.3173C239.652 62.4284 240.044 60.9954 240.044 60.9954C241.288 60.4092 242.139 61.2559 242.336 61.7119C243.121 63.8614 241.026 66.2714 240.175 66.4017Z" fill="#EFCDAF"/>
<path opacity="0.5" d="M240.044 66.4668C239.128 66.532 238.997 65.9457 239.193 64.8384C239.193 64.7081 239.259 64.5127 239.259 64.3825L239.455 64.4476C239.455 64.4476 239.455 66.4017 240.044 66.4668Z" fill="#CC6362"/>
<path opacity="0.5" d="M224.335 66.4668C225.251 66.532 225.382 65.9457 225.186 64.8384C225.186 64.7081 225.12 64.5127 225.12 64.3825L224.924 64.4476C224.858 64.4476 224.858 66.4017 224.335 66.4668Z" fill="#CC6362"/>
<path d="M232.189 55.5891H222.895C222.895 55.5891 223.68 58.2596 224.204 61.321C225.12 66.3365 225.317 72.8502 232.189 72.8502C239.128 72.8502 239.259 66.4017 240.175 61.321C240.699 58.3248 241.55 55.5891 241.55 55.5891H232.189Z" fill="#EFCDAF"/>
<path d="M241.878 53.3744C240.699 49.9873 238.015 56.045 238.015 56.045C239.062 56.4358 240.11 61.3862 240.11 61.3862L240.83 60.9302C240.896 60.8651 242.859 56.1753 241.878 53.3744Z" fill="url(#paint4_linear_580_3113)"/>
<path d="M213.601 103.464C214.91 100.989 216.415 96.6901 216.415 96.6901L207.71 93.4333C204.175 100.663 203.062 106.591 203.062 106.591L213.601 103.464Z" fill="#FFC1CD"/>
<path d="M250.517 101.706C249.208 99.2304 247.048 94.736 247.048 94.736L255.95 90.7627C258.11 97.9277 261.121 104.897 261.121 104.897L250.517 101.706Z" fill="#FFC1CD"/>
<path d="M220.735 76.6281C220.735 76.6281 214.451 78.517 212.487 80.8619C210.262 83.4674 208.756 88.2224 205.68 96.4947C205.68 96.4947 212.618 99.8166 216.349 99.9469L220.735 76.6281Z" fill="url(#paint5_linear_580_3113)"/>
<path d="M242.008 76.4327C242.008 76.4327 250.124 78.4519 251.63 80.5363C253.528 83.1417 256.146 87.9618 258.634 96.4947C258.634 96.4947 251.63 99.8166 247.899 99.9469L242.008 76.4327Z" fill="url(#paint6_linear_580_3113)"/>
<path d="M224.4 51.0295C224.4 51.0295 223.157 48.5543 225.84 47.1213C230.226 44.7113 242.139 48.1635 243.513 50.4433C245.281 53.3093 241.811 57.8688 236.248 57.7385C230.684 57.6083 228 55.1982 225.84 56.1101C223.68 57.022 223.353 52.9836 223.353 52.9836L224.4 51.0295Z" fill="url(#paint7_linear_580_3113)"/>
<path d="M225.775 55.8496L224.401 51.0295C224.401 51.0295 221.782 50.1827 221.782 53.3093C221.782 54.9377 222.044 55.3285 222.437 56.4358C222.568 58.7156 223.484 60.8651 223.484 60.8651L224.204 61.321C224.204 61.321 225.252 56.4358 226.299 55.9799L225.775 55.8496Z" fill="url(#paint8_linear_580_3113)"/>
<path d="M246.982 88.4178C246.982 88.4178 246.982 88.6132 247.048 88.9388C247.113 89.2645 247.113 89.7205 247.179 90.2416C247.244 90.7627 247.31 91.414 247.375 92.0654C247.441 92.7168 247.506 93.4333 247.572 94.1498C247.637 94.8663 247.703 95.5828 247.703 96.2341C247.768 96.8855 247.768 97.5369 247.833 98.058C247.899 99.1653 247.899 99.8818 247.899 99.8818C247.899 99.8818 247.834 99.6864 247.768 99.3607C247.703 99.035 247.637 98.579 247.572 98.058C247.506 97.5369 247.375 96.8855 247.31 96.2341C247.244 95.5828 247.179 94.8663 247.113 94.1498C247.048 93.4333 246.982 92.7168 246.982 92.0003C246.917 91.3489 246.917 90.6975 246.917 90.1764C246.917 89.6554 246.917 89.1994 246.917 88.8737C246.982 88.6132 246.982 88.4178 246.982 88.4178Z" fill="url(#paint9_linear_580_3113)"/>
<path d="M217.266 88.4178C217.266 88.4178 217.266 88.6132 217.331 88.9388C217.331 89.2645 217.397 89.7205 217.331 90.2416C217.331 90.7627 217.331 91.414 217.266 92.0654C217.266 92.7168 217.2 93.4333 217.135 94.2149C217.069 94.9314 217.004 95.6479 216.938 96.2993C216.873 96.9506 216.742 97.602 216.676 98.1231C216.611 98.6442 216.48 99.1001 216.48 99.4258C216.415 99.7515 216.349 99.9469 216.349 99.9469C216.349 99.9469 216.349 99.2304 216.415 98.1231C216.415 97.602 216.48 96.9506 216.546 96.2993C216.611 95.6479 216.676 94.9314 216.676 94.2149C216.742 93.4984 216.807 92.7819 216.873 92.1305C216.938 91.4792 217.004 90.8278 217.069 90.3067C217.135 89.7856 217.2 89.3297 217.2 89.004C217.2 88.6132 217.266 88.4178 217.266 88.4178Z" fill="url(#paint10_linear_580_3113)"/>
<path d="M216.546 106.721C216.546 106.721 216.676 114.407 216.546 117.729C216.48 119.813 216.022 122.093 216.087 123.526C216.087 124.438 216.153 125.09 216.546 125.35C218.706 125.871 228.917 126.653 233.302 126.718C238.015 126.718 245.411 125.936 247.637 125.676C248.095 124.829 247.571 123.135 247.637 121.051C247.637 115.254 247.768 106.656 247.768 106.656H234.873" fill="#FFB966"/>
<path d="M232.124 79.0381L229.964 80.6014L230.619 82.9463C230.619 82.9463 231.011 83.1417 232.19 83.1417C233.368 83.0766 233.761 82.9463 233.761 82.9463L234.416 80.6014L232.124 79.0381Z" fill="white"/>
<path d="M224.466 75.7813L226.691 74.6089C226.691 74.6089 227.869 77.0841 232.189 79.1033C232.189 79.1033 231.666 79.5592 231.142 80.9271C230.946 81.4482 230.619 82.9463 230.619 82.9463C230.619 82.9463 226.364 81.6436 224.466 75.7813Z" fill="url(#paint11_linear_580_3113)"/>
<path d="M239.848 75.7813L237.622 74.6089C237.622 74.6089 236.444 77.0841 232.124 79.1033C232.124 79.1033 232.648 79.5592 233.171 80.9271C233.368 81.4482 233.695 82.9463 233.695 82.9463C233.695 82.9463 237.949 81.6436 239.848 75.7813Z" fill="url(#paint12_linear_580_3113)"/>
<path d="M233.368 82.9463L232.124 82.6206L230.88 82.9463C230.88 82.9463 227.935 107.438 228.066 109.587C228.328 113.886 230.88 117.794 231.797 119.162C231.993 119.423 232.32 119.423 232.517 119.162C233.433 117.859 235.986 113.951 236.248 109.587C236.379 107.438 233.368 82.9463 233.368 82.9463Z" fill="white"/>
<path d="M161.629 222.143L160.909 226.311C160.909 226.963 159.665 227.744 158.88 227.81C157.047 227.81 155.214 226.311 155.214 226.311L155.672 221.556L161.629 222.143Z" fill="#E5918F"/>
<path d="M170.269 231.197C170.269 230.415 163.069 227.288 160.843 226.311C160.843 226.311 156.785 226.116 155.149 225.986C154.036 227.093 154.101 230.48 154.363 231.327C154.494 231.653 154.821 231.913 155.149 231.913H166.603H169.942C170.138 231.913 170.269 231.783 170.269 231.587V231.197Z" fill="url(#paint13_linear_580_3113)"/>
<path d="M202.865 121.963L190.102 123.201L188.138 117.729L180.938 119.032C180.938 119.032 183.36 124.829 184.865 128.411C185.585 130.105 189.251 129.714 193.636 128.477C199.462 126.848 204.044 125.35 204.044 125.35L202.865 121.963Z" fill="#EFCDAF"/>
<path d="M182.705 102.292C182.705 102.292 185.781 109.001 188.989 119.032C188.989 119.032 186.632 120.921 181.592 121.833C176.487 122.679 182.705 102.292 182.705 102.292Z" fill="url(#paint14_linear_580_3113)"/>
<path d="M186.829 216.346L186.632 226.311C186.632 226.963 185.389 227.744 184.603 227.81C182.77 227.81 180.938 226.311 180.938 226.311L180.218 221.035L181.003 219.993L180.938 219.798L183.032 219.863L186.829 216.346Z" fill="#E5918F"/>
<path d="M187.941 223.641C184.669 223.966 177.403 224.162 177.403 224.162C176.225 211.265 174.589 195.828 174.458 185.21C173.214 179.674 172.167 174.398 171.381 170.034C171.054 168.275 170.792 166.647 170.53 165.214C169.941 161.761 169.614 159.612 169.614 159.612C169.614 159.612 169.745 146.845 172.363 143.784C174.85 140.918 183.687 140.592 185.847 142.351C186.567 142.937 187.025 155.834 187.156 157.658C187.156 158.049 187.221 159.286 187.287 160.915H187.352L188.269 184.364L187.941 223.641Z" fill="url(#paint15_linear_580_3113)"/>
<path d="M162.348 224.488C157.832 224.227 152.334 222.664 152.334 222.664C153.839 209.702 156.261 194.59 158.094 184.429C158.225 178.566 156.392 164.302 155.803 158.96C154.232 155.248 152.923 145.738 155.803 142.937C158.552 140.266 171.447 141.243 173.476 143.197C174.196 143.849 173.476 156.681 173.476 158.57C173.476 158.96 173.41 160.198 173.345 161.826H173.41L172.298 185.276L162.348 224.488Z" fill="url(#paint16_linear_580_3113)"/>
<path opacity="0.35" d="M173.476 156.16L172.559 177.394L174 183.061L173.476 156.16Z" fill="url(#paint17_linear_580_3113)"/>
<path d="M195.927 231.197C195.927 230.415 189.905 227.744 186.632 226.311C186.632 226.311 182.574 226.116 180.938 225.986C179.825 227.093 179.89 230.48 180.152 231.327C180.283 231.653 180.61 231.913 180.938 231.913H192.392H195.6C195.796 231.913 195.927 231.783 195.927 231.587V231.197Z" fill="url(#paint18_linear_580_3113)"/>
<path d="M179.76 99.8818C177.796 99.2304 175.571 98.6442 174.196 98.5139C173.149 98.5139 173.149 98.3836 171.774 98.5139C170.007 98.7093 167.323 98.9698 164.312 99.4909C163.003 99.7515 155.934 101.966 155.541 103.008C155.017 104.441 153.054 144.696 153.708 145.282C155.018 146.65 178.778 147.757 187.156 144.63C186.502 136.814 185.062 120.986 184.8 118.315C184.145 112.062 183.949 105.874 183.163 103.139C182.64 101.64 181.396 100.338 179.76 99.8818Z" fill="url(#paint19_linear_580_3113)"/>
<path d="M164.312 99.5561C164.312 99.5561 168.174 103.725 172.625 102.422C174.654 101.836 174.196 98.5139 174.196 98.5139C174.196 98.5139 173.279 98.4488 172.821 97.8625C172.756 97.7323 172.559 97.2763 172.363 96.6901C172.036 95.5176 171.577 93.9543 171.577 93.9543L169.941 93.4333L164.901 91.87C164.901 91.87 165.163 96.3644 164.836 98.579C164.836 99.2955 164.312 99.5561 164.312 99.5561Z" fill="#EFCDAF"/>
<path d="M167.847 93.6938C167.847 93.6938 168.96 96.0387 172.429 96.6901C172.102 95.5176 171.644 93.9543 171.644 93.9543L170.007 93.4333L167.847 93.6938Z" fill="#E8A77D"/>
<path d="M169.745 78.5822C170.661 78.7776 173.738 77.0189 174.458 77.9308C175.178 78.8427 176.945 85.0958 177.403 86.3985C177.665 87.2453 178.974 92.4562 177.207 94.2149C175.374 96.1038 169.876 94.8662 169.221 94.6708C167.585 94.2149 164.377 92.7168 163.854 91.2186L163.068 81.9693L169.745 78.5822Z" fill="#EFCDAF"/>
<path d="M160.777 79.1684C159.076 79.95 158.225 81.7739 158.486 84.1188C158.748 86.138 160.712 88.6783 162.61 90.8278C163.527 91.87 164.705 92.847 165.097 93.5635L165.687 92.6516C165.687 92.6516 163.657 89.981 164.639 88.1572C165.752 86.5288 167.192 88.2223 168.043 88.9388C168.174 89.0691 168.37 88.9389 168.305 88.8086C168.305 87.9618 167.978 87.5059 168.436 85.9426C168.959 84.1839 167.912 82.816 167.585 82.4904C167.585 82.4904 173.476 80.7317 174.719 78.6473C175.767 76.8886 176.487 73.8924 174.719 73.0456C173.018 72.1988 170.989 73.7621 169.548 74.2832C165.097 75.5859 159.403 74.9345 160.777 79.1684Z" fill="url(#paint20_linear_580_3113)"/>
<path d="M167.454 88.3526C167.454 88.3526 167.782 88.6783 167.978 89.981C168.175 91.2838 167.978 92.4562 167.258 92.7168C166.538 92.9773 165.098 92.5865 164.574 91.2838C164.116 90.1764 163.592 88.2224 165.032 87.4407C166.407 86.7242 167.454 88.3526 167.454 88.3526Z" fill="#EFCDAF"/>
<path d="M157.374 214.782L153.708 212.893C152.399 212.242 151.941 210.614 152.595 209.376L206.4 107.438L214.647 111.737L160.908 213.675C160.188 214.978 158.617 215.434 157.374 214.782Z" fill="url(#paint21_linear_580_3113)"/>
<path d="M213.142 115.71L204.044 110.955C203.455 110.629 203.193 109.848 203.52 109.261L205.156 106.135L216.546 112.062L214.909 115.189C214.582 115.775 213.797 116.036 213.142 115.71Z" fill="url(#paint22_linear_580_3113)"/>
<path d="M252.808 32.2702C231.011 20.8714 204.044 29.2088 192.589 50.8992C181.134 72.5896 189.512 99.4258 211.309 110.825C233.106 122.224 260.074 113.886 271.528 92.1957C282.983 70.5053 274.605 43.6691 252.808 32.2702ZM215.629 102.683C198.349 93.6287 191.672 72.3291 200.771 55.1331C209.869 37.9371 231.273 31.2932 248.553 40.3471C265.834 49.4011 272.51 70.7007 263.412 87.8967C254.314 105.093 232.91 111.737 215.629 102.683Z" fill="url(#paint23_linear_580_3113)"/>
<path d="M250.582 36.3738C231.077 26.1474 206.989 33.6381 196.712 53.0487C186.436 72.4593 193.963 96.4295 213.469 106.656C232.975 116.882 257.063 109.392 267.339 89.981C277.616 70.5704 270.088 46.6002 250.582 36.3738ZM215.629 102.683C198.349 93.6286 191.672 72.3291 200.771 55.1331C209.869 37.9371 231.273 31.2932 248.553 40.3471C265.834 49.4011 272.51 70.7007 263.412 87.8966C254.313 105.093 232.909 111.737 215.629 102.683Z" fill="url(#paint24_linear_580_3113)"/>
<path d="M194.749 144.826C194.552 144.761 194.16 144.761 193.701 144.696C194.422 144.696 195.076 144.63 195.272 144.435C195.731 143.979 195.011 143.653 194.552 143.523C194.094 143.393 192.654 143.197 191.738 142.937C191.214 142.807 190.56 142.481 190.036 142.22C190.494 142.155 191.803 141.96 192.589 141.895C193.636 141.895 193.963 141.243 193.571 141.113C193.243 140.983 190.101 139.615 188.792 139.68C187.745 139.745 186.567 139.941 186.567 139.941L171.316 127.434L168.763 118.967L159.403 122.484C159.403 122.484 163.134 129.779 164.246 132.124C165.359 134.469 183.818 143.588 183.818 143.588C183.818 143.588 184.145 144.044 185.061 145.152C185.52 145.673 185.978 145.998 186.436 146.194C186.436 146.194 186.436 146.194 186.501 146.194C186.632 146.259 186.763 146.324 186.894 146.324C187.549 146.585 188.858 147.04 189.25 147.106C189.774 147.236 191.803 147.366 192.131 147.04C192.261 146.91 192.261 146.715 192.131 146.65C192.981 146.65 193.898 146.585 194.16 146.389C194.291 146.259 194.291 146.129 194.291 145.998C194.814 145.998 195.272 145.868 195.403 145.738C195.862 145.347 195.142 144.956 194.749 144.826Z" fill="#EFCDAF"/>
<path d="M153.512 105.483C152.137 108.871 152.137 112.062 157.505 124.308C157.505 124.308 164.901 122.875 169.548 120.4C169.548 120.4 167.585 107.307 164.312 104.246C160.974 101.119 155.279 101.119 153.512 105.483Z" fill="url(#paint25_linear_580_3113)"/>
<path d="M210.132 124.112C210.132 123.852 210.066 123.722 210.001 123.591L209.935 123.526C210.001 123.461 210.197 123.266 210.262 123.005C210.328 122.679 210.197 122.549 210.132 122.419L210.066 122.354C210.132 122.354 210.132 122.354 210.132 122.354C210.197 122.289 210.393 122.093 210.393 121.898C210.459 121.637 210.328 121.507 210.262 121.442C210.132 121.246 208.953 121.246 208.56 121.246C208.298 121.246 207.709 121.312 207.709 121.702C207.709 121.898 207.906 122.028 208.233 122.158C208.102 122.158 208.037 122.158 207.906 122.158C207.578 122.158 206.858 122.224 206.858 122.745C206.858 123.005 207.12 123.201 207.709 123.331C207.382 123.396 206.924 123.461 206.924 123.917C206.924 124.178 207.185 124.373 207.775 124.503C207.84 124.503 207.971 124.568 208.037 124.568C207.775 124.568 207.185 124.634 207.185 125.09C207.185 125.285 207.382 125.48 207.906 125.611C208.429 125.741 209.542 125.871 209.673 125.741C209.739 125.676 209.935 125.48 209.935 125.285C209.935 125.09 209.87 124.959 209.87 124.829C209.87 124.764 209.804 124.764 209.739 124.764C209.804 124.764 209.804 124.764 209.87 124.699C209.935 124.634 210.132 124.503 210.132 124.112Z" fill="#EFCDAF"/>
<path d="M38.2733 144.372C41.5991 144.357 44.2825 141.661 44.2669 138.351C44.2513 135.042 41.5426 132.372 38.2167 132.387C34.8909 132.403 32.2075 135.098 32.2231 138.408C32.2387 141.718 34.9474 144.388 38.2733 144.372Z" fill="#AC27FD"/>
<path d="M35.6266 138.638L37.9834 140.918L41.1258 136.684" stroke="white" stroke-width="1.577" stroke-miterlimit="10" stroke-linecap="round" stroke-linejoin="round"/>
<path d="M370.759 139.224C373.253 139.224 375.275 137.212 375.275 134.73C375.275 132.248 373.253 130.235 370.759 130.235C368.265 130.235 366.243 132.248 366.243 134.73C366.243 137.212 368.265 139.224 370.759 139.224Z" fill="url(#paint26_linear_580_3113)"/>
<path d="M368.73 134.925L370.498 136.619L372.92 133.492" stroke="white" stroke-width="1.4684" stroke-miterlimit="10" stroke-linecap="round" stroke-linejoin="round"/>
<path opacity="0.5" d="M63.5759 127.304C64.4798 127.304 65.2125 126.575 65.2125 125.676C65.2125 124.776 64.4798 124.047 63.5759 124.047C62.672 124.047 61.9392 124.776 61.9392 125.676C61.9392 126.575 62.672 127.304 63.5759 127.304Z" fill="#F01A63"/>
<path d="M60.9575 165.8C61.536 165.8 62.005 165.333 62.005 164.758C62.005 164.182 61.536 163.715 60.9575 163.715C60.379 163.715 59.91 164.182 59.91 164.758C59.91 165.333 60.379 165.8 60.9575 165.8Z" fill="#F01A63"/>
<path opacity="0.4" d="M142.908 192.831C143.486 192.831 143.955 192.365 143.955 191.789C143.955 191.214 143.486 190.747 142.908 190.747C142.329 190.747 141.86 191.214 141.86 191.789C141.86 192.365 142.329 192.831 142.908 192.831Z" fill="#F01A63"/>
<path opacity="0.5" d="M59.9759 202.276C61.1329 202.276 62.0708 201.343 62.0708 200.192C62.0708 199.041 61.1329 198.107 59.9759 198.107C58.8189 198.107 57.881 199.041 57.881 200.192C57.881 201.343 58.8189 202.276 59.9759 202.276Z" fill="#F01A63"/>
<path opacity="0.7" d="M385.618 212.047C386.775 212.047 387.713 211.113 387.713 209.962C387.713 208.811 386.775 207.878 385.618 207.878C384.461 207.878 383.523 208.811 383.523 209.962C383.523 211.113 384.461 212.047 385.618 212.047Z" fill="#F01A63"/>
<path d="M195.6 10.3193C196.757 10.3193 197.695 9.38609 197.695 8.23492C197.695 7.08376 196.757 6.15056 195.6 6.15056C194.443 6.15056 193.505 7.08376 193.505 8.23492C193.505 9.38609 194.443 10.3193 195.6 10.3193Z" fill="#F01A63"/>
<path opacity="0.8" d="M86.551 51.4203C88.1057 51.4203 89.3661 50.1663 89.3661 48.6195C89.3661 47.0726 88.1057 45.8186 86.551 45.8186C84.9963 45.8186 83.736 47.0726 83.736 48.6195C83.736 50.1663 84.9963 51.4203 86.551 51.4203Z" fill="#F01A63"/>
<path opacity="0.3" d="M372.92 173.356C374.474 173.356 375.735 172.102 375.735 170.555C375.735 169.008 374.474 167.754 372.92 167.754C371.365 167.754 370.104 169.008 370.104 170.555C370.104 172.102 371.365 173.356 372.92 173.356Z" fill="#F01A63"/>
<path d="M297.973 48.5543C298.877 48.5543 299.609 47.8253 299.609 46.9259C299.609 46.0266 298.877 45.2975 297.973 45.2975C297.069 45.2975 296.336 46.0266 296.336 46.9259C296.336 47.8253 297.069 48.5543 297.973 48.5543Z" fill="#F01A63"/>
<path d="M301.442 196.023C302.346 196.023 303.079 195.294 303.079 194.395C303.079 193.495 302.346 192.766 301.442 192.766C300.538 192.766 299.805 193.495 299.805 194.395C299.805 195.294 300.538 196.023 301.442 196.023Z" fill="#F01A63"/>
<path d="M161.498 34.9408H160.189V33.6381C160.189 33.3776 159.927 33.117 159.665 33.117C159.403 33.117 159.141 33.3776 159.141 33.6381V34.9408H157.832C157.57 34.9408 157.308 35.2014 157.308 35.4619C157.308 35.7225 157.57 35.983 157.832 35.983H159.141V37.2857C159.141 37.5463 159.403 37.8068 159.665 37.8068C159.927 37.8068 160.189 37.5463 160.189 37.2857V35.983H161.498C161.76 35.983 162.022 35.7225 162.022 35.4619C162.022 35.2014 161.76 34.9408 161.498 34.9408Z" fill="#F01A63"/>
<path d="M289.356 108.284V108.784H289.856H291.151C291.156 108.787 291.165 108.793 291.173 108.802C291.174 108.803 291.176 108.804 291.177 108.805C291.176 108.807 291.174 108.808 291.173 108.809C291.165 108.818 291.156 108.823 291.151 108.827H289.856H289.356V109.327V110.613C289.353 110.618 289.348 110.625 289.34 110.633C289.338 110.636 289.335 110.638 289.333 110.64C289.33 110.638 289.328 110.636 289.325 110.633C289.317 110.625 289.312 110.618 289.309 110.613V109.327V108.827H288.809H287.515C287.509 108.823 287.501 108.818 287.492 108.809C287.491 108.808 287.49 108.807 287.489 108.805C287.49 108.804 287.491 108.803 287.492 108.802C287.501 108.793 287.509 108.787 287.515 108.784H288.809H289.309V108.284V106.998C289.312 106.993 289.317 106.986 289.325 106.978C289.328 106.975 289.33 106.973 289.333 106.971C289.335 106.973 289.338 106.975 289.34 106.978C289.348 106.986 289.353 106.993 289.356 106.998V108.284Z" fill="#F01A63" stroke="#AC27FD"/>
<path d="M278.687 221.035V221.535H279.187H280.482C280.487 221.538 280.495 221.544 280.504 221.553C280.505 221.554 280.506 221.555 280.508 221.556C280.506 221.558 280.505 221.559 280.504 221.56C280.495 221.569 280.487 221.574 280.482 221.578H279.187H278.687V222.078V223.364C278.684 223.369 278.679 223.376 278.671 223.384C278.668 223.387 278.666 223.389 278.663 223.391C278.661 223.389 278.659 223.387 278.656 223.384C278.648 223.376 278.643 223.369 278.64 223.364V222.078V221.578H278.14H276.845C276.84 221.574 276.832 221.569 276.823 221.56C276.822 221.559 276.82 221.558 276.819 221.556C276.82 221.555 276.822 221.554 276.823 221.553C276.832 221.544 276.84 221.538 276.845 221.535H278.14H278.64V221.035V219.749C278.643 219.744 278.648 219.737 278.656 219.729C278.659 219.726 278.661 219.724 278.663 219.722C278.666 219.724 278.668 219.726 278.671 219.729C278.679 219.737 278.684 219.744 278.687 219.749V221.035Z" fill="#F01A63" stroke="#AC27FD"/>
<path d="M128.181 132.32H126.872V131.017C126.872 130.756 126.61 130.496 126.348 130.496C126.086 130.496 125.824 130.756 125.824 131.017V132.32H124.515C124.253 132.32 123.991 132.58 123.991 132.841C123.991 133.101 124.253 133.362 124.515 133.362H125.824V134.665C125.824 134.925 126.086 135.186 126.348 135.186C126.61 135.186 126.872 134.925 126.872 134.665V133.362H128.181C128.443 133.362 128.705 133.101 128.705 132.841C128.705 132.58 128.443 132.32 128.181 132.32Z" fill="#BDF3FF"/>
<path d="M398.34 157.918V158.418H398.84H400.149C400.158 158.418 400.166 158.419 400.173 158.421V158.423C400.17 158.428 400.165 158.435 400.157 158.443C400.148 158.452 400.14 158.457 400.135 158.46H398.84H398.34V158.96V160.246C398.337 160.252 398.332 160.259 398.324 160.267C398.321 160.269 398.319 160.272 398.316 160.274C398.314 160.272 398.312 160.269 398.309 160.267C398.301 160.259 398.296 160.252 398.293 160.246V158.96V158.46H397.793H396.498C396.493 158.457 396.485 158.452 396.476 158.443C396.475 158.442 396.473 158.441 396.472 158.439C396.473 158.438 396.475 158.437 396.476 158.436C396.485 158.427 396.493 158.421 396.498 158.418H397.793H398.293V157.918V156.632C398.296 156.627 398.301 156.62 398.309 156.612C398.312 156.609 398.314 156.607 398.316 156.605C398.319 156.607 398.321 156.609 398.324 156.612C398.332 156.62 398.337 156.627 398.34 156.632V157.918Z" fill="#F01A63" stroke="#AC27FD"/>
<path d="M149.388 122.093C148.603 122.093 147.032 122.289 144.872 122.745C139.439 123.982 129.751 126.067 126.282 125.741C123.337 125.48 114.435 116.036 114.042 115.71L116.922 105.614C116.922 105.614 118.689 107.633 121.046 110.238C123.337 112.844 126.217 116.036 128.377 118.446L143.104 118.967C143.104 118.967 148.406 118.836 149.65 118.641L149.388 122.093Z" fill="#EFCDAF"/>
<path d="M115.482 103.529C115.482 103.529 116.595 104.116 116.987 104.441C119.344 106.851 125.497 114.733 125.497 114.733C125.497 114.733 124.711 116.752 118.886 122.158L112.798 116.166L115.482 103.529Z" fill="url(#paint27_linear_580_3113)"/>
<path d="M115.679 115.254L118.494 121.768L114.5 117.859L115.679 115.254Z" fill="url(#paint28_linear_580_3113)"/>
<path d="M116.727 221.101L116.203 228.266C116.203 228.266 113.322 228.787 111.096 228.266L110.769 220.905" fill="#EFCDAF"/>
<path d="M110.965 226.377C110.965 226.377 111.555 226.898 113.649 226.832C113.649 226.832 114.827 225.855 116.202 226.377L121.504 228.982C121.504 228.982 126.02 230.676 126.02 231.913C123.664 231.913 110.769 232.109 110.18 231.913C109.591 231.718 109.787 227.484 110.965 226.377Z" fill="url(#paint29_linear_580_3113)"/>
<path d="M85.7 217.779L82.0345 226.116C82.0345 226.116 79.0889 225.855 76.7325 224.488L78.958 216.085" fill="#EFCDAF"/>
<path d="M74.3103 227.875C74.834 228.396 82.4268 231.913 83.3432 231.913H86.6814C87.2706 231.913 88.5142 231.978 88.4488 231.718C88.3833 231.001 87.1396 229.243 85.176 229.047C84.9141 229.047 82.6232 225.334 82.6232 225.334C81.9686 223.836 79.8086 224.032 79.8086 224.032C77.6486 222.924 77.2558 222.338 77.2558 222.338C75.3576 222.859 73.7867 227.288 74.3103 227.875Z" fill="url(#paint30_linear_580_3113)"/>
<path d="M97.5471 164.497C97.8089 166.256 104.354 180.065 106.515 186.383C106.711 202.602 107.365 222.533 107.496 224.162C109.656 224.553 116.398 224.748 117.184 224.422C118.558 208.79 118.689 184.82 118.689 184.103C118.297 170.099 116.595 157.202 116.464 155.183C116.333 153.098 116.137 141.634 115.089 141.243C112.929 140.462 107.235 138.573 104.682 142.286C101.933 146.129 97.4162 163.715 97.5471 164.497Z" fill="url(#paint31_linear_580_3113)"/>
<path d="M76.5363 219.602C77.0599 219.993 84.0637 222.989 86.4855 223.25C91.1329 210.483 98.7257 188.988 99.773 185.015C100.558 181.888 101.933 168.47 103.504 162.347L107.89 142.546L96.4348 140.071C87.3364 147.822 86.4855 156.615 86.8128 161.11C86.9437 162.934 86.2892 178.892 86.0273 183.321C82.9509 195.437 77.7145 215.108 76.5363 219.602Z" fill="url(#paint32_linear_580_3113)"/>
<path d="M116.006 103.855C114.369 102.487 104.158 100.142 100.885 100.989C97.0234 101.966 92.5725 102.813 91.9179 104.246C91.2634 105.614 90.8706 114.668 90.5433 120.335C91.2633 123.982 94.0125 137.27 94.0125 139.485C94.0125 141.699 92.8343 142.611 93.3579 143.263C94.6016 144.696 102.98 145.282 106.973 145.282C110.507 145.282 116.464 144.37 116.791 143.197C117.249 141.504 116.137 141.569 115.94 139.875C115.809 138.117 117.38 105.418 116.006 103.855Z" fill="url(#paint33_linear_580_3113)"/>
<path d="M80.2668 157.462L156.457 145.933C157.635 145.738 158.421 144.696 158.224 143.523L154.755 120.595C154.559 119.423 153.512 118.641 152.333 118.836L76.1431 130.366C74.9649 130.561 74.1794 131.603 74.3758 132.776L77.8449 155.704C78.0413 156.811 79.154 157.658 80.2668 157.462Z" fill="url(#paint34_linear_580_3113)"/>
<path d="M92.4272 154.701C91.3461 154.865 90.3184 154.818 89.3443 154.56C88.3831 154.285 87.5562 153.818 86.8636 153.159L88.5429 150.382C89.5899 151.423 90.6692 151.86 91.7808 151.692C93.2884 151.464 93.9074 150.467 93.6378 148.701L92.4768 141.096L86.8577 141.945L86.4045 138.977L95.7012 137.571L97.284 147.939C97.5838 149.903 97.3219 151.454 96.4984 152.591C95.6726 153.712 94.3155 154.416 92.4272 154.701ZM109.582 152.108C107.922 152.359 106.368 152.228 104.918 151.715C103.484 151.2 102.291 150.375 101.339 149.242C100.4 148.091 99.8108 146.732 99.5714 145.164C99.332 143.595 99.4901 142.131 100.046 140.769C100.614 139.391 101.506 138.243 102.722 137.328C103.953 136.409 105.398 135.825 107.058 135.574C108.718 135.323 110.265 135.455 111.699 135.97C113.133 136.486 114.327 137.318 115.281 138.466C116.233 139.6 116.829 140.95 117.068 142.518C117.308 144.087 117.143 145.56 116.575 146.939C116.004 148.302 115.111 149.442 113.895 150.358C112.68 151.274 111.242 151.857 109.582 152.108ZM109.101 148.956C110.045 148.814 110.865 148.472 111.562 147.93C112.256 147.374 112.757 146.675 113.064 145.834C113.387 144.991 113.473 144.074 113.322 143.085C113.171 142.095 112.816 141.245 112.256 140.536C111.711 139.824 111.025 139.312 110.198 139.001C109.37 138.675 108.483 138.583 107.539 138.725C106.595 138.868 105.776 139.218 105.082 139.775C104.385 140.316 103.876 141.008 103.553 141.851C103.245 142.692 103.166 143.608 103.318 144.597C103.469 145.587 103.817 146.438 104.362 147.15C104.922 147.859 105.616 148.377 106.445 148.704C107.271 149.015 108.157 149.099 109.101 148.956ZM118.629 134.105L122.33 133.546L124.77 149.532L121.07 150.091L118.629 134.105ZM140.789 130.755L143.229 146.741L140.191 147.2L130.738 138.7L132.219 148.405L128.565 148.958L126.124 132.972L129.185 132.509L138.616 141.013L137.134 131.308L140.789 130.755ZM100.81 181.753C98.526 182.099 96.6479 181.736 95.1758 180.666C93.719 179.593 92.8116 177.885 92.4537 175.54L91.087 166.588L94.7875 166.029L96.1332 174.844C96.5701 177.706 97.9764 178.958 100.352 178.598C101.509 178.423 102.34 177.947 102.845 177.17C103.347 176.378 103.485 175.243 103.26 173.766L101.914 164.951L105.569 164.399L106.936 173.351C107.293 175.696 106.929 177.596 105.843 179.053C104.772 180.508 103.094 181.408 100.81 181.753ZM116.962 179.312C115.698 179.503 114.446 179.521 113.207 179.365C111.981 179.192 110.969 178.886 110.169 178.446L111 175.47C111.762 175.869 112.638 176.149 113.629 176.311C114.62 176.473 115.587 176.482 116.531 176.339C117.582 176.181 118.335 175.911 118.791 175.531C119.245 175.135 119.432 174.678 119.353 174.161C119.295 173.78 119.095 173.491 118.754 173.293C118.425 173.078 118.013 172.93 117.517 172.849C117.037 172.766 116.387 172.693 115.568 172.63C114.305 172.525 113.264 172.386 112.443 172.215C111.622 172.043 110.881 171.68 110.22 171.125C109.574 170.569 109.17 169.758 109.007 168.692C108.865 167.763 108.989 166.888 109.378 166.066C109.764 165.229 110.426 164.513 111.364 163.92C112.316 163.324 113.524 162.916 114.986 162.695C116.006 162.541 117.022 162.512 118.034 162.608C119.046 162.704 119.952 162.925 120.752 163.272L120.039 166.253C118.434 165.639 116.893 165.444 115.416 165.667C114.381 165.824 113.637 166.107 113.186 166.518C112.75 166.927 112.573 167.405 112.657 167.953C112.741 168.501 113.085 168.87 113.69 169.059C114.309 169.23 115.224 169.357 116.436 169.438C117.698 169.543 118.74 169.682 119.561 169.854C120.381 170.025 121.113 170.382 121.757 170.923C122.416 171.462 122.826 172.265 122.989 173.331C123.129 174.244 122.998 175.12 122.596 175.96C122.207 176.782 121.537 177.491 120.584 178.087C119.631 178.682 118.423 179.091 116.962 179.312Z" fill="#FFAF3B"/>
<path d="M91.8765 154.336C90.7953 154.5 89.7676 154.452 88.7935 154.195C87.8323 153.92 87.0054 153.453 86.3129 152.794L87.9921 150.017C89.0391 151.058 90.1184 151.495 91.23 151.326C92.7376 151.099 93.3566 150.102 93.087 148.336L91.926 140.731L86.3069 141.58L85.8537 138.611L95.1504 137.206L96.7332 147.574C97.033 149.538 96.7712 151.088 95.9476 152.225C95.1218 153.347 93.7647 154.051 91.8765 154.336ZM109.031 151.743C107.371 151.994 105.817 151.863 104.367 151.35C102.933 150.834 101.74 150.01 100.788 148.877C99.8493 147.726 99.26 146.366 99.0206 144.798C98.7813 143.23 98.9394 141.766 99.4949 140.404C100.063 139.026 100.955 137.878 102.171 136.962C103.402 136.044 104.847 135.46 106.507 135.209C108.167 134.958 109.714 135.09 111.148 135.605C112.582 136.121 113.776 136.952 114.731 138.101C115.683 139.234 116.278 140.585 116.518 142.153C116.757 143.721 116.593 145.195 116.024 146.574C115.453 147.937 114.56 149.077 113.344 149.993C112.129 150.908 110.691 151.492 109.031 151.743ZM108.55 148.591C109.494 148.449 110.314 148.106 111.011 147.565C111.705 147.008 112.206 146.31 112.514 145.469C112.837 144.626 112.923 143.709 112.772 142.72C112.621 141.73 112.265 140.88 111.705 140.171C111.16 139.459 110.474 138.947 109.648 138.636C108.819 138.309 107.932 138.218 106.988 138.36C106.044 138.503 105.225 138.853 104.531 139.409C103.835 139.951 103.325 140.643 103.002 141.486C102.694 142.327 102.616 143.242 102.767 144.232C102.918 145.222 103.266 146.072 103.811 146.784C104.371 147.494 105.065 148.012 105.894 148.339C106.721 148.65 107.606 148.734 108.55 148.591ZM118.078 133.74L121.779 133.18L124.219 149.166L120.519 149.726L118.078 133.74ZM140.238 130.39L142.679 146.376L139.641 146.835L130.187 138.334L131.669 148.04L128.014 148.593L125.574 132.607L128.634 132.144L138.065 140.648L136.583 130.942L140.238 130.39ZM100.259 181.388C97.9753 181.734 96.0971 181.371 94.6251 180.301C93.1682 179.228 92.2608 177.52 91.9029 175.175L90.5363 166.223L94.2367 165.663L95.5824 174.479C96.0194 177.341 97.4256 178.592 99.8012 178.233C100.959 178.058 101.789 177.582 102.294 176.805C102.796 176.013 102.935 174.878 102.709 173.401L101.363 164.586L105.018 164.034L106.385 172.986C106.743 175.33 106.379 177.231 105.292 178.688C104.221 180.143 102.544 181.043 100.259 181.388ZM116.411 178.947C115.147 179.138 113.895 179.155 112.657 179C111.43 178.827 110.418 178.521 109.618 178.081L110.449 175.105C111.211 175.504 112.088 175.784 113.078 175.946C114.069 176.107 115.036 176.117 115.98 175.974C117.031 175.815 117.785 175.546 118.241 175.165C118.694 174.77 118.882 174.313 118.803 173.795C118.744 173.415 118.545 173.126 118.203 172.928C117.874 172.713 117.462 172.565 116.967 172.484C116.486 172.401 115.837 172.328 115.017 172.265C113.754 172.16 112.713 172.021 111.892 171.849C111.071 171.678 110.33 171.314 109.669 170.76C109.023 170.204 108.619 169.393 108.456 168.327C108.315 167.398 108.438 166.523 108.827 165.701C109.213 164.864 109.875 164.148 110.813 163.555C111.766 162.959 112.973 162.551 114.435 162.33C115.455 162.175 116.471 162.146 117.483 162.243C118.495 162.339 119.401 162.56 120.202 162.906L119.488 165.888C117.883 165.274 116.342 165.079 114.865 165.302C113.83 165.458 113.086 165.742 112.635 166.153C112.199 166.562 112.023 167.04 112.106 167.588C112.19 168.136 112.534 168.505 113.14 168.694C113.758 168.865 114.673 168.991 115.885 169.073C117.147 169.178 118.189 169.317 119.01 169.488C119.831 169.66 120.563 170.017 121.206 170.558C121.865 171.097 122.276 171.9 122.438 172.965C122.578 173.879 122.447 174.755 122.045 175.595C121.657 176.417 120.986 177.126 120.033 177.721C119.08 178.317 117.873 178.726 116.411 178.947Z" fill="white"/>
<path d="M89.9547 156.55C89.6275 155.704 88.5147 154.727 88.5147 154.727C87.7947 154.075 87.0092 153.489 86.9438 153.294C86.551 152.382 86.6165 149.841 86.6165 149.841L86.2237 128.542C86.2237 128.542 87.402 125.285 88.842 121.702C84.5874 120.66 81.9037 119.227 79.7436 118.25C78.8273 121.442 77.7145 124.699 77.4527 126.457C76.7327 130.821 82.8201 151.339 83.1473 152.903C83.2782 153.684 83.3437 154.336 83.3437 154.466C83.4092 154.727 83.3437 157.593 84.391 157.853C85.4383 158.048 88.0565 157.983 88.7765 157.527C88.9074 157.462 89.0383 157.332 89.1693 157.267C89.4965 157.462 89.8238 157.593 90.0202 157.527C90.282 157.397 90.2166 157.202 89.9547 156.55Z" fill="#EFCDAF"/>
<path d="M93.3586 116.166L96.2386 102.162C96.2386 102.162 88.0566 104.116 85.8966 106.591C83.4748 109.392 82.4929 111.671 78.1729 121.963C81.4456 123.461 85.6348 125.155 88.5803 125.545C90.1512 122.94 92.3113 118.706 93.3586 116.166Z" fill="url(#paint35_linear_580_3113)"/>
<path d="M97.9399 101.706C97.9399 101.706 102.587 104.311 106.384 101.119C106.384 101.119 105.86 97.3414 105.86 94.4754C105.86 92.0003 98.0708 88.3526 98.0708 88.3526L97.2198 87.7013C97.2198 87.7013 97.4817 89.0691 97.809 91.0884C98.0053 92.2608 98.2671 93.5635 98.3981 94.9965C98.9872 100.142 97.9399 101.706 97.9399 101.706Z" fill="#EFCDAF"/>
<path d="M100.362 94.9314C100.362 94.9314 102.849 99.2955 106.254 99.9469L106.057 97.7974L100.362 94.9314Z" fill="#E8A77D"/>
<path d="M112.144 83.4023C112.144 83.4023 113.388 86.8545 111.162 88.8086L110.049 83.5325L112.144 83.4023Z" fill="url(#paint36_linear_580_3113)"/>
<path d="M99.4453 93.8241C99.8381 94.3452 100.231 94.8011 100.624 95.3222C101.344 96.1038 102.129 96.7552 102.98 97.3414C104.093 98.1231 105.14 98.5139 106.056 98.7744C106.515 98.9047 106.973 98.9698 107.431 99.035C109.395 99.1652 110.507 98.4487 110.507 98.4487C112.34 95.7782 112.275 91.414 111.816 88.0921C111.686 86.7242 111.424 85.6169 111.227 84.7701C111.096 84.0536 110.966 83.5977 110.966 83.5977V83.5325C110.18 79.2987 104.485 79.1032 100.493 81.5133C100.231 81.6436 100.034 81.7738 99.8381 81.9692C98.7253 82.7509 97.8089 83.7279 97.2853 84.9655C96.3689 86.9848 96.958 89.2645 97.8744 91.2186C97.9398 91.3489 98.0053 91.414 98.0053 91.5443C98.4635 92.3259 98.9871 93.1076 99.4453 93.8241Z" fill="#EFCDAF"/>
<path d="M112.471 77.2794C108.347 80.4711 105.14 74.4134 101.147 76.4327C100.165 76.9538 99.1836 77.9959 99.0527 79.6244C96.6308 78.1914 93.358 80.9271 94.3399 86.5939C95.4526 92.9773 98.4636 95.1268 98.4636 95.1268C98.2672 93.1076 97.0235 88.6783 98.529 88.0921C99.7727 87.6361 100.362 89.0691 100.558 89.7205C100.689 90.1764 100.951 91.3489 101.016 91.5443L101.998 91.414C101.933 90.6975 101.933 89.7856 101.933 88.7434C102.325 88.3526 102.849 87.6361 103.111 86.7242C103.242 86.2031 103.307 85.4866 103.373 84.8353C105.467 85.8774 108.282 86.2683 111.686 84.6399C113.977 83.4674 114.5 75.7162 112.471 77.2794Z" fill="url(#paint37_linear_580_3113)"/>
<path d="M147.752 118.771C147.752 118.771 149.257 118.38 149.715 118.055C150.239 117.729 151.417 118.055 152.006 118.25C152.595 118.446 153.25 119.227 153.774 119.553C154.166 119.813 153.97 120.269 153.25 120.074C152.53 119.879 151.679 119.423 151.679 119.423C151.679 119.423 150.763 119.748 149.846 119.423" fill="#EFCDAF"/>
<path d="M155.083 122.224C155.148 122.158 155.214 122.158 155.214 122.093C155.279 121.898 155.279 121.572 155.018 121.442C155.018 121.442 155.018 121.442 155.083 121.442C155.148 121.246 155.148 120.921 154.952 120.725C155.083 120.53 155.083 120.074 154.69 120.009C154.69 120.009 153.381 120.4 153.184 120.725C153.054 120.856 153.184 121.116 153.446 121.116C153.512 121.116 153.512 121.116 153.577 121.116C153.381 121.246 153.184 121.312 153.119 121.442C152.988 121.637 153.119 121.898 153.446 121.898C153.512 121.898 153.708 121.898 153.905 121.833C153.708 121.898 153.577 122.028 153.512 122.093C153.381 122.224 153.512 122.549 153.774 122.484C153.839 122.484 153.905 122.484 154.036 122.484C153.97 122.549 153.905 122.549 153.839 122.614C153.774 122.745 153.839 122.94 154.036 122.94C154.232 123.005 155.148 122.875 155.279 122.745C155.279 122.614 155.279 122.354 155.083 122.224Z" fill="#EFCDAF"/>
<path d="M321.536 219.537L320.947 226.377C320.947 226.377 317.347 227.679 314.991 226.377L314.86 219.733" fill="#EFCDAF"/>
<path d="M320.882 226.377C320.882 226.377 321.536 227.158 321.733 228.461C321.929 229.764 321.798 231.197 321.798 231.457C321.798 231.718 319.049 231.718 317.478 231.718C315.907 231.718 311.064 231.653 309.689 231.718C308.314 231.783 306.547 231.718 305.565 231.718C304.911 231.718 306.94 229.894 308.38 229.308C309.885 228.656 311.587 227.81 313.027 227.093C314.075 226.572 314.86 226.377 314.86 226.377C314.86 226.377 320.031 226.702 320.882 226.377Z" fill="url(#paint38_linear_580_3113)"/>
<path d="M344.119 218.43L345.035 226.377C345.035 226.377 341.959 227.679 339.602 226.377L337.901 219.733" fill="#EFCDAF"/>
<path d="M345.1 226.377C345.1 226.377 345.951 227.223 346.148 228.526C346.344 229.829 346.082 231.457 346.082 231.718C346.082 231.978 331.748 231.978 331.158 231.718C330.569 231.457 331.486 229.829 333.646 228.917C335.217 228.266 335.806 228.135 337.18 227.419C338.228 226.898 339.668 226.311 339.668 226.311C339.668 226.311 344.25 226.702 345.1 226.377Z" fill="url(#paint39_linear_580_3113)"/>
<path d="M313.813 223.706C317.805 224.162 323.435 223.901 324.416 223.706C324.809 218.625 325.726 192.571 325.922 185.992C326.249 185.08 328.213 174.007 328.933 168.47C328.867 176.417 329.129 186.318 329.195 186.578C330.046 192.245 334.824 213.154 337.508 224.162C340.977 224.488 346.475 223.12 347.13 222.533C346.541 217.713 343.464 192.766 342.548 185.536C343.399 179.609 343.922 172.704 344.25 166.712C344.708 165.018 347.064 152.707 340.977 145.282C340.977 145.282 328.017 145.347 322.126 145.673C317.478 145.933 315.122 145.542 315.122 145.542C315.122 145.542 312.896 181.498 312.7 184.364C312.7 185.08 313.42 212.437 313.813 223.706Z" fill="url(#paint40_linear_580_3113)"/>
<path d="M310.344 109.717L298.169 122.81C298.169 122.81 296.467 126.848 301.376 127.109C306.285 127.369 315.58 116.687 315.58 116.687" fill="#EFCDAF"/>
<path d="M305.434 114.733C305.434 114.733 308.249 119.162 312.438 122.549L320.62 116.817L321.144 103.073C321.144 103.073 315.58 104.506 313.747 106.2C311.98 107.959 309.493 110.499 305.434 114.733Z" fill="url(#paint41_linear_580_3113)"/>
<path d="M315.646 142.807C315.449 144.565 314.664 145.673 315.318 146.585C316.038 147.562 321.733 148.278 325.464 148.278C329.718 148.343 338.817 148.018 340.977 146.845C341.173 146.715 341.828 146.389 341.828 145.998C341.828 145.412 341.239 144.696 341.239 143.263C341.239 141.048 342.09 131.343 342.351 127.565C342.417 126.783 342.482 125.936 342.548 125.155C343.071 119.683 343.922 113.365 344.119 109.848C343.464 108.74 342.744 107.763 342.024 106.982C339.93 104.702 337.9 103.92 337.573 103.79H337.508C334.366 102.878 330.831 102.292 328.606 102.227C322.322 101.966 316.169 104.637 314.664 106.2C314.14 106.721 315.122 111.867 315.253 117.013C315.645 127.434 315.776 141.569 315.646 142.807Z" fill="url(#paint42_linear_580_3113)"/>
<path d="M316.824 81.9693C316.824 81.9693 316.039 88.1572 318.526 88.9389C320.556 89.5902 320.359 86.9196 320.359 86.9196L320.425 83.9885" fill="url(#paint43_linear_580_3113)"/>
<path d="M332.664 102.617C332.664 102.617 331.093 106.721 325.071 106.135C319.835 105.614 322.977 102.552 322.977 102.552C322.977 102.552 323.238 101.706 323.566 100.663C323.893 99.6212 324.286 98.3185 324.482 97.2763L326.577 95.5828L331.028 92.0003C331.028 91.9351 330.439 99.7515 332.664 102.617Z" fill="#EFCDAF"/>
<path d="M329.327 95.5828C329.327 95.5828 327.494 99.4258 323.566 100.663C323.893 99.6212 324.286 98.3185 324.482 97.2763L326.577 95.5828H329.327Z" fill="#CC6362"/>
<path d="M318.199 85.3563C318.199 85.3563 317.348 97.602 321.079 99.035C321.079 99.035 325.203 99.9469 328.868 96.1038C329.915 94.9965 330.701 93.6287 331.225 92.1957C332.141 89.8507 333.515 85.5517 332.665 82.7509C331.617 78.7124 319.443 76.107 318.199 85.3563Z" fill="#EFCDAF"/>
<path d="M328.017 89.5251C328.017 89.5251 328.409 87.2453 330.046 87.7013C332.206 88.2875 330.635 93.7589 328.475 92.5865" fill="#EFCDAF"/>
<path d="M333.057 79.2987C329.784 74.5437 324.744 77.0189 319.311 77.2143C318.526 77.2143 317.806 77.2143 317.216 77.1492C316.038 77.084 315.187 77.084 315.056 77.1492C314.533 77.3446 314.467 80.6014 314.729 81.7087C316.431 88.6132 323.893 87.115 326.118 86.4637C326.249 86.9848 326.446 87.4407 326.838 87.8315C327.166 88.2224 327.755 88.4178 328.409 88.548C328.606 88.0921 328.998 87.7013 329.522 87.6361C329.718 87.6361 329.915 87.6361 330.111 87.7013C330.569 87.8315 330.831 88.1572 330.962 88.6132C331.289 89.4599 331.093 90.7627 330.569 91.6746C330.766 93.2378 330.962 94.6708 331.093 95.5828L331.813 95.3874C331.944 94.5406 332.075 93.3681 332.729 92.3911C333.122 91.8049 334.104 90.0462 334.562 87.7664C334.759 86.8545 337.05 81.1876 333.057 79.2987Z" fill="url(#paint44_linear_580_3113)"/>
<path d="M345.428 114.928C345.428 114.928 347.98 131.277 347.588 132.645C347.195 133.948 342.482 134.86 340.584 132.841C338.686 130.821 336.853 118.12 336.853 118.12" fill="#EFCDAF"/>
<path d="M343.399 107.047C342.155 105.158 337.639 103.725 337.639 103.725L335.479 114.277C335.413 117.794 336.46 125.415 336.46 125.415C337.704 125.545 340.453 125.415 342.613 125.09C345.166 124.699 347.653 123.917 347.653 123.917C347.653 123.917 345.821 110.694 343.399 107.047Z" fill="url(#paint45_linear_580_3113)"/>
<path d="M316.824 139.55L333.318 141.96C333.646 142.025 333.973 141.764 334.038 141.439L337.311 119.227C337.377 118.902 337.115 118.576 336.788 118.511L320.293 116.101C319.965 116.036 319.638 116.296 319.573 116.622L316.3 138.833C316.3 139.159 316.496 139.485 316.824 139.55Z" fill="url(#paint46_linear_580_3113)"/>
<path d="M347.392 129.454L343.137 130.366C343.137 130.366 338.424 129.323 333.384 129.258C329.129 129.193 325.398 128.477 324.286 128.216C323.893 128.086 323.238 127.89 322.78 127.304C322.387 126.848 322.387 126.523 322.06 126.197C321.798 125.871 320.947 125.09 320.686 124.503C320.424 123.917 320.293 123.787 319.966 124.243C319.638 124.699 320.227 125.741 320.358 126.067C320.489 126.392 320.489 126.978 320.489 127.044C320.489 127.109 318.46 126.523 318.198 126.067C318.198 126.067 317.74 126.327 317.675 126.783C317.609 127.044 317.806 127.369 317.806 127.434C317.74 127.565 317.478 127.695 317.413 127.89C317.347 128.086 317.478 128.346 317.544 128.672C317.478 128.867 317.347 128.933 317.216 129.258C317.085 129.584 317.282 129.844 317.413 129.975C317.347 130.17 317.151 130.431 317.216 130.626C317.347 131.017 318.46 131.473 319.573 131.603C321.275 131.799 322.977 130.952 324.875 131.408C333.319 134.599 342.613 136.684 344.511 136.944C346.475 137.14 347.261 136.228 347.588 135.642C347.915 135.121 347.392 129.454 347.392 129.454Z" fill="#EFCDAF"/>
<path d="M301.704 93.6938C301.704 93.7589 301.639 93.8241 301.573 93.9543C301.246 94.5406 300.722 94.9314 300.395 94.8011C300.329 94.8662 300.329 94.8662 300.264 94.9314C300.067 95.1919 299.936 95.2571 299.871 95.2571L298.3 94.736L298.038 94.6708L300.264 90.5673L301.77 91.8049C301.835 91.87 301.77 92.1305 301.639 92.5213C301.9 92.7168 301.9 93.1727 301.704 93.6938Z" fill="url(#paint47_linear_580_3113)"/>
<path d="M297.972 94.6708C297.972 94.6708 296.205 98.4488 293.98 100.273C293.783 100.468 293.521 100.468 293.26 100.338C293.194 100.338 293.129 100.273 292.998 100.207C292.343 99.8818 291.427 99.3607 290.641 98.579C290.314 98.2534 290.445 97.7323 290.838 97.5368C291.754 97.0809 293.26 96.0387 294.765 94.0195C294.961 93.7589 295.158 93.4333 295.354 93.1076L297.972 94.6708Z" fill="url(#paint48_linear_580_3113)"/>
<path d="M294.504 93.4333C294.504 93.4333 294.438 93.6287 294.242 93.8241C293.849 94.28 293.194 94.9314 292.278 94.6057C292.147 94.5406 292.147 94.4755 292.147 94.3452C292.147 94.28 292.212 94.2149 292.343 94.2149C292.54 94.2149 293.063 94.0846 293.456 93.4984C293.587 93.303 293.718 93.1076 293.784 92.847L294.504 93.4333Z" fill="url(#paint49_linear_580_3113)"/>
<path d="M300.067 93.1076C300.002 93.1727 300.002 93.303 299.936 93.3681C299.282 94.5406 298.627 95.3222 298.496 95.2571C290.838 91.0883 285.863 93.1727 285.863 93.1727L287.631 89.5251L288.874 87.0499L292.409 81.2528C292.409 81.2528 293.391 86.5288 301.049 90.6324C301.18 90.6975 300.722 91.87 300.067 93.1076Z" fill="url(#paint50_linear_580_3113)"/>
<path d="M289.66 81.6436C290.052 81.0573 290.314 80.6665 290.576 80.3408C290.903 79.95 291.1 79.8198 291.231 79.8849C291.231 79.8849 292.278 80.3408 292.343 81.2528C292.343 81.3179 292.343 81.383 292.343 81.5133C292.147 82.2949 291.1 84.705 289.594 87.5059C288.089 90.2416 286.649 92.5214 286.06 93.1076C285.994 93.1727 285.929 93.2379 285.863 93.2379C285.078 93.6938 284.161 93.0425 284.161 93.0425C284.03 92.9773 284.03 92.7168 284.161 92.2608C284.292 91.87 284.489 91.414 284.75 90.7627C285.34 89.4599 286.125 87.8315 287.041 86.138C287.958 84.3793 288.874 82.7509 289.66 81.6436Z" fill="url(#paint51_linear_580_3113)"/>
<path d="M294.307 100.012C294.307 100.012 295.551 100.924 295.747 100.989C296.14 101.119 296.401 107.307 296.729 113.365C297.187 122.81 298.038 125.35 298.038 125.35L304.649 117.664C304.649 117.664 298.627 98.6442 298.496 98.1231C298.431 97.7974 298.038 96.8204 297.842 96.3644C297.645 95.9084 297.514 95.6479 297.121 95.2571C296.794 94.9314 295.027 94.3452 294.831 94.4103C294.634 94.4754 294.7 94.8011 294.896 95.1268C295.092 95.4525 295.878 95.7782 296.14 95.9084C296.271 95.9736 296.401 96.4295 296.467 96.7552C296.532 97.0158 296.467 97.2763 296.336 97.4717C296.205 97.6671 296.009 97.9928 295.812 98.3185C295.223 99.1001 294.307 100.012 294.307 100.012Z" fill="#EFCDAF"/>
<path d="M292.409 96.0387C292.409 96.0387 293.522 96.8855 293.718 97.0158C293.914 97.146 294.373 97.3414 294.569 97.146C294.766 96.9506 294.635 96.6901 294.438 96.4295C294.242 96.169 293.325 95.3222 293.129 95.192C292.736 94.9314 291.95 95.4525 292.409 96.0387Z" fill="#EFCDAF"/>
<path d="M291.754 96.6901C291.754 96.6901 292.736 97.4066 292.933 97.5369C293.063 97.6671 293.456 97.7323 293.587 97.602C293.784 97.4066 293.718 97.2112 293.522 97.0158C293.325 96.7552 292.54 96.0387 292.409 95.9084C292.081 95.713 291.427 96.2341 291.754 96.6901Z" fill="#EFCDAF"/>
<path d="M291.296 97.3415C291.296 97.3415 292.147 97.9928 292.343 98.1231C292.474 98.2534 292.802 98.3185 292.933 98.1882C293.064 98.0579 293.064 97.8625 292.867 97.6671C292.671 97.4717 292.016 96.8204 291.885 96.6901C291.623 96.4296 291.034 96.8855 291.296 97.3415Z" fill="#EFCDAF"/>
<path d="M293.129 95.3222C293.129 95.3222 294.111 96.0387 294.307 96.2341C294.438 96.3644 294.831 96.4947 295.027 96.2993C295.224 96.1039 295.158 95.9085 294.962 95.713C294.765 95.4525 293.98 94.736 293.849 94.6057C293.456 94.3452 292.801 94.8011 293.129 95.3222Z" fill="#EFCDAF"/>
<path d="M258.175 53.179C263.634 53.179 268.059 48.7755 268.059 43.3434C268.059 37.9114 263.634 33.5078 258.175 33.5078C252.717 33.5078 248.292 37.9114 248.292 43.3434C248.292 48.7755 252.717 53.179 258.175 53.179Z" fill="url(#paint52_linear_580_3113)"/>
<path d="M251.827 41.5847C252.939 41.8453 255.034 42.5618 256.67 44.4507C256.736 44.5159 256.867 44.5159 256.932 44.4507C257.456 43.6691 259.747 40.4123 264.525 38.1325C264.721 38.0674 264.852 38.2628 264.721 38.3931C262.692 39.9563 258.503 43.7342 257.063 48.3589C256.998 48.4892 256.801 48.4892 256.736 48.3589C256.278 47.1865 254.903 43.9948 251.696 41.7801C251.565 41.7801 251.63 41.5847 251.827 41.5847Z" fill="white"/>
<path d="M258.045 148.083H202.342C201.425 148.083 200.64 147.301 200.64 146.389C200.64 145.477 201.425 144.696 202.342 144.696H258.045C258.961 144.696 259.746 145.477 259.746 146.389C259.681 147.301 258.961 148.083 258.045 148.083Z" fill="white"/>
<path d="M258.045 155.769H202.342C201.425 155.769 200.64 154.987 200.64 154.075C200.64 153.163 201.425 152.382 202.342 152.382H258.045C258.961 152.382 259.746 153.163 259.746 154.075C259.681 154.987 258.961 155.769 258.045 155.769Z" fill="white"/>
<path d="M258.045 163.455H202.342C201.425 163.455 200.64 162.673 200.64 161.761C200.64 160.849 201.425 160.068 202.342 160.068H258.045C258.961 160.068 259.746 160.849 259.746 161.761C259.681 162.673 258.961 163.455 258.045 163.455Z" fill="white"/>
<path d="M258.045 171.141H202.342C201.425 171.141 200.64 170.359 200.64 169.447C200.64 168.535 201.425 167.754 202.342 167.754H258.045C258.961 167.754 259.746 168.535 259.746 169.447C259.681 170.359 258.961 171.141 258.045 171.141Z" fill="white"/>
<path d="M258.045 178.827H202.342C201.425 178.827 200.64 178.045 200.64 177.133C200.64 176.222 201.425 175.44 202.342 175.44H258.045C258.961 175.44 259.746 176.222 259.746 177.133C259.681 178.045 258.961 178.827 258.045 178.827Z" fill="white"/>
<path d="M345.1 81.5784C343.66 79.6895 342.94 77.2794 343.268 74.6089C343.791 70.2447 347.326 66.7274 351.646 66.2063C357.603 65.4898 362.643 70.0493 362.643 75.7813C362.643 81.0574 358.584 85.2261 353.282 85.4866C351.188 85.5518 349.29 85.0307 347.653 83.9885C347.522 83.9234 347.391 83.9234 347.261 83.9885L343.595 85.8774C343.464 85.9426 343.268 85.8123 343.333 85.6169L345.035 81.9693C345.166 81.839 345.166 81.7087 345.1 81.5784Z" fill="url(#paint53_linear_580_3113)"/>
<path d="M357.537 77.2143C358.188 77.2143 358.716 76.6894 358.716 76.0418C358.716 75.3943 358.188 74.8694 357.537 74.8694C356.887 74.8694 356.359 75.3943 356.359 76.0418C356.359 76.6894 356.887 77.2143 357.537 77.2143Z" fill="white"/>
<path d="M352.89 77.2143C353.541 77.2143 354.068 76.6894 354.068 76.0418C354.068 75.3943 353.541 74.8694 352.89 74.8694C352.239 74.8694 351.712 75.3943 351.712 76.0418C351.712 76.6894 352.239 77.2143 352.89 77.2143Z" fill="white"/>
<path d="M348.243 77.2143C348.894 77.2143 349.422 76.6894 349.422 76.0418C349.422 75.3943 348.894 74.8694 348.243 74.8694C347.592 74.8694 347.065 75.3943 347.065 76.0418C347.065 76.6894 347.592 77.2143 348.243 77.2143Z" fill="white"/>
<path d="M84.3905 91.1535C85.8305 89.2645 86.5505 86.8545 86.2233 84.1839C85.6996 79.8198 82.165 76.3024 77.8449 75.7813C71.8885 75.0648 66.8484 79.6244 66.8484 85.3564C66.8484 90.6324 70.9066 94.8011 76.2085 95.0617C78.3031 95.1268 80.2013 94.6057 81.8377 93.5635C81.9686 93.4984 82.0996 93.4984 82.2305 93.5635L85.896 95.4525C86.0269 95.5176 86.2233 95.3874 86.1578 95.1919L84.456 91.5443C84.2596 91.3489 84.2596 91.2186 84.3905 91.1535Z" fill="url(#paint54_linear_580_3113)"/>
<path d="M71.8893 86.7894C72.5401 86.7894 73.0677 86.2644 73.0677 85.6169C73.0677 84.9694 72.5401 84.4445 71.8893 84.4445C71.2385 84.4445 70.7109 84.9694 70.7109 85.6169C70.7109 86.2644 71.2385 86.7894 71.8893 86.7894Z" fill="white"/>
<path d="M76.5361 86.7894C77.1869 86.7894 77.7145 86.2644 77.7145 85.6169C77.7145 84.9694 77.1869 84.4445 76.5361 84.4445C75.8853 84.4445 75.3577 84.9694 75.3577 85.6169C75.3577 86.2644 75.8853 86.7894 76.5361 86.7894Z" fill="white"/>
<path d="M81.2488 86.7894C81.8996 86.7894 82.4272 86.2644 82.4272 85.6169C82.4272 84.9694 81.8996 84.4445 81.2488 84.4445C80.598 84.4445 80.0704 84.9694 80.0704 85.6169C80.0704 86.2644 80.598 86.7894 81.2488 86.7894Z" fill="white"/>
<path d="M323.173 39.6958H308.249C307.333 39.6958 306.547 38.9793 306.547 38.0022V23.1512C306.547 22.2392 307.267 21.4576 308.249 21.4576H323.173C324.089 21.4576 324.875 22.1741 324.875 23.1512V38.0022C324.809 38.9142 324.089 39.6958 323.173 39.6958Z" fill="url(#paint55_linear_580_3113)"/>
<path d="M315.711 29.3391C317.338 29.3391 318.657 28.0268 318.657 26.408C318.657 24.7891 317.338 23.4768 315.711 23.4768C314.084 23.4768 312.765 24.7891 312.765 26.408C312.765 28.0268 314.084 29.3391 315.711 29.3391Z" fill="url(#paint56_linear_580_3113)"/>
<path d="M315.777 30.1207C312.57 30.0556 309.951 32.7262 309.951 35.9179V37.0252C309.951 37.416 310.279 37.6766 310.606 37.6766H320.621C321.013 37.6766 321.275 37.3509 321.275 37.0252V35.7876C321.406 32.7262 318.919 30.1859 315.777 30.1207Z" fill="url(#paint57_linear_580_3113)"/>
<path opacity="0.8" d="M303.34 177.003H270.219C269.041 177.003 268.059 176.026 268.059 174.854V150.102C268.059 148.929 269.041 147.952 270.219 147.952H303.34C304.518 147.952 305.5 148.929 305.5 150.102V174.854C305.434 176.026 304.518 177.003 303.34 177.003Z" fill="url(#paint58_linear_580_3113)"/>
<path d="M276.765 161.436C279.694 161.436 282.067 159.073 282.067 156.16C282.067 153.246 279.694 150.884 276.765 150.884C273.837 150.884 271.464 153.246 271.464 156.16C271.464 159.073 273.837 161.436 276.765 161.436Z" fill="white"/>
<path d="M276.765 151.274C274.082 151.274 271.856 153.489 271.856 156.16C271.856 157.723 272.576 159.156 273.82 160.068C274.671 160.719 275.718 161.045 276.765 161.045C277.813 161.045 278.86 160.719 279.711 160.068C280.955 159.156 281.675 157.658 281.675 156.16C281.675 153.489 279.515 151.274 276.765 151.274ZM279.646 159.677C279.646 158.895 279.318 158.179 278.795 157.658C278.271 157.137 277.551 156.811 276.765 156.811C275.195 156.811 273.951 158.049 273.951 159.612C272.904 158.765 272.249 157.462 272.249 156.094C272.249 153.619 274.278 151.535 276.831 151.535C279.318 151.535 281.413 153.554 281.413 156.094C281.347 157.527 280.693 158.83 279.646 159.677Z" fill="url(#paint59_linear_580_3113)"/>
<path d="M276.765 156.355C277.85 156.355 278.729 155.48 278.729 154.401C278.729 153.322 277.85 152.447 276.765 152.447C275.681 152.447 274.801 153.322 274.801 154.401C274.801 155.48 275.681 156.355 276.765 156.355Z" fill="url(#paint60_linear_580_3113)"/>
<path d="M302.751 152.121H285.798C285.47 152.121 285.143 151.861 285.143 151.47C285.143 151.144 285.405 150.818 285.798 150.818H302.751C303.078 150.818 303.405 151.079 303.405 151.47C303.34 151.861 303.078 152.121 302.751 152.121Z" fill="white"/>
<path d="M302.751 155.313H285.798C285.47 155.313 285.143 155.052 285.143 154.661C285.143 154.336 285.405 154.01 285.798 154.01H302.751C303.078 154.01 303.405 154.271 303.405 154.661C303.34 154.987 303.078 155.313 302.751 155.313Z" fill="white"/>
<path d="M302.751 158.504H285.798C285.47 158.504 285.143 158.244 285.143 157.853C285.143 157.527 285.405 157.202 285.798 157.202H302.751C303.078 157.202 303.405 157.462 303.405 157.853C303.34 158.179 303.078 158.504 302.751 158.504Z" fill="white"/>
<path d="M302.751 161.631H285.798C285.47 161.631 285.143 161.37 285.143 160.98C285.143 160.654 285.405 160.328 285.798 160.328H302.751C303.078 160.328 303.405 160.589 303.405 160.98C303.34 161.37 303.078 161.631 302.751 161.631Z" fill="white"/>
<path d="M302.751 164.823H271.005C270.678 164.823 270.351 164.562 270.351 164.171C270.351 163.846 270.612 163.52 271.005 163.52H302.751C303.078 163.52 303.406 163.781 303.406 164.171C303.34 164.562 303.078 164.823 302.751 164.823Z" fill="white"/>
<path d="M302.751 168.014H271.005C270.678 168.014 270.351 167.754 270.351 167.363C270.351 167.037 270.612 166.712 271.005 166.712H302.751C303.078 166.712 303.406 166.972 303.406 167.363C303.34 167.754 303.078 168.014 302.751 168.014Z" fill="white"/>
<path d="M302.751 171.206H271.005C270.678 171.206 270.351 170.946 270.351 170.555C270.351 170.229 270.612 169.903 271.005 169.903H302.751C303.078 169.903 303.406 170.164 303.406 170.555C303.34 170.88 303.078 171.206 302.751 171.206Z" fill="white"/>
<path d="M302.751 174.398H271.005C270.678 174.398 270.351 174.137 270.351 173.746C270.351 173.421 270.612 173.095 271.005 173.095H302.751C303.078 173.095 303.406 173.356 303.406 173.746C303.34 174.072 303.078 174.398 302.751 174.398Z" fill="white"/>
<path opacity="0.5" d="M366.505 204.686C366.701 203.774 366.963 201.82 366.439 199.149C365.654 195.372 360.744 187.295 353.61 186.383C353.348 186.318 353.152 186.643 353.283 186.904C354.068 188.141 355.835 191.268 356.883 193.939C358.715 198.694 361.399 203.709 365.981 205.077C367.159 207.552 368.141 210.613 368.468 214.001C368.468 214.196 368.665 214.326 368.861 214.326C369.057 214.326 369.188 214.131 369.188 213.935C368.796 210.483 367.683 207.292 366.505 204.686Z" fill="url(#paint61_linear_580_3113)"/>
<path opacity="0.8" d="M369.385 203.188C369.909 201.56 371.022 197.065 369.451 192.115C367.553 186.318 361.007 181.042 358.782 179.413C358.52 179.218 358.193 179.478 358.258 179.739C358.913 182.344 360.876 190.03 362.578 193.613C364.345 197.391 367.618 201.755 368.731 203.253C370.236 210.874 370.236 217.062 370.171 218.56C370.171 218.756 370.302 218.886 370.498 218.886C370.695 218.886 370.825 218.756 370.825 218.56C370.891 217.062 370.891 210.809 369.385 203.188Z" fill="url(#paint62_linear_580_3113)"/>
<path opacity="0.5" d="M385.159 182.279C383.065 183.517 376.716 187.62 374.883 193.483C373.312 198.368 374.425 202.016 375.014 203.318C373.05 210.744 372.788 218.625 372.723 220.384C372.723 220.579 372.854 220.71 373.05 220.71C373.246 220.71 373.377 220.579 373.377 220.384C373.377 218.69 373.639 210.874 375.603 203.514C376.65 202.602 379.596 199.801 381.363 196.088C383.065 192.44 385.028 185.08 385.683 182.67C385.748 182.344 385.421 182.084 385.159 182.279Z" fill="url(#paint63_linear_580_3113)"/>
<path opacity="0.5" d="M382.345 173.486C382.345 173.225 382.018 173.03 381.821 173.225C380.054 174.528 374.228 179.218 372.526 186.122C371.348 190.682 372.854 194.199 373.508 195.372C370.563 206.901 371.348 217.779 371.545 219.798C371.545 219.993 371.741 220.123 371.937 220.123C372.134 220.123 372.265 219.928 372.265 219.733C372.068 217.713 371.283 206.966 374.163 195.567C375.21 194.851 378.287 192.44 380.643 186.057C382.476 180.911 382.476 175.31 382.345 173.486Z" fill="url(#paint64_linear_580_3113)"/>
<g opacity="0.5">
<path d="M364.934 231.913H376.781C376.977 231.913 377.108 231.783 377.108 231.653L380.185 212.828C380.381 211.721 379.465 210.679 378.352 210.679H363.297C362.119 210.679 361.268 211.721 361.464 212.828L364.541 231.653C364.672 231.783 364.803 231.913 364.934 231.913Z" fill="url(#paint65_linear_580_3113)"/>
</g>
<path d="M148.406 47.3167L133.024 57.6083L117.642 47.3167H148.406Z" fill="#3156AA"/>
<path d="M148.406 47.3167L134.202 32.9216C133.547 32.2702 132.5 32.2702 131.911 32.9216L117.707 47.3167H148.406Z" fill="#3156AA"/>
<path d="M145.854 62.0375H120.195V37.8068C120.195 37.2206 120.653 36.7646 121.243 36.7646H144.872C145.461 36.7646 145.919 37.2206 145.919 37.8068V62.0375H145.854Z" fill="#CCF2FF"/>
<path d="M145.854 40.1517H120.195V37.8068C120.195 37.2206 120.653 36.7646 121.243 36.7646H144.872C145.461 36.7646 145.919 37.2206 145.919 37.8068V40.1517H145.854Z" fill="url(#paint66_linear_580_3113)"/>
<path d="M122.225 39.1747C122.622 39.1747 122.945 38.8539 122.945 38.4582C122.945 38.0625 122.622 37.7417 122.225 37.7417C121.827 37.7417 121.505 38.0625 121.505 38.4582C121.505 38.8539 121.827 39.1747 122.225 39.1747Z" fill="white"/>
<path d="M124.646 39.1747C125.044 39.1747 125.366 38.8539 125.366 38.4582C125.366 38.0625 125.044 37.7417 124.646 37.7417C124.248 37.7417 123.926 38.0625 123.926 38.4582C123.926 38.8539 124.248 39.1747 124.646 39.1747Z" fill="white"/>
<path d="M127.002 39.1747C127.4 39.1747 127.722 38.8539 127.722 38.4582C127.722 38.0625 127.4 37.7417 127.002 37.7417C126.605 37.7417 126.282 38.0625 126.282 38.4582C126.282 38.8539 126.605 39.1747 127.002 39.1747Z" fill="white"/>
<path d="M128.05 48.7504H124.123L123.338 50.5742H121.832L125.367 42.7579H126.807L130.341 50.5742H128.836L128.05 48.7504ZM127.527 47.5779L126.021 44.1909L124.581 47.5779H127.527Z" fill="white"/>
<path d="M143.824 42.6269H132.173V43.3434H143.824V42.6269Z" fill="white"/>
<path d="M143.824 44.581H132.173V45.2975H143.824V44.581Z" fill="white"/>
<path d="M143.824 46.5351H132.173V47.2516H143.824V46.5351Z" fill="white"/>
<path d="M143.824 48.4892H132.173V49.2057H143.824V48.4892Z" fill="white"/>
<path d="M143.824 50.5084H132.173V51.2249H143.824V50.5084Z" fill="white"/>
<path d="M143.825 52.4625H122.225V53.179H143.825V52.4625Z" fill="white"/>
<path d="M143.825 54.4166H122.225V55.1331H143.825V54.4166Z" fill="white"/>
<path d="M143.825 56.3707H122.225V57.0872H143.825V56.3707Z" fill="white"/>
<path d="M143.825 58.3248H122.225V59.0413H143.825V58.3248Z" fill="white"/>
<path d="M148.406 47.3167V66.1411C148.406 66.7274 148.144 67.1833 147.752 67.509C147.424 67.7695 147.032 67.965 146.573 67.965H119.54C118.493 67.965 117.708 67.1182 117.708 66.1411V47.3167L133.024 57.6734L148.406 47.3167Z" fill="url(#paint67_linear_580_3113)"/>
<path d="M148.406 47.3167V66.1411C148.406 66.7274 148.144 67.1833 147.752 67.509L133.089 57.6083L148.406 47.3167Z" fill="url(#paint68_linear_580_3113)"/>
<path d="M1 231.913H419" stroke="url(#paint69_linear_580_3113)" stroke-width="2" stroke-miterlimit="10" stroke-linecap="round"/>
<defs>
<linearGradient id="paint0_linear_580_3113" x1="11.6561" y1="231.913" x2="212.323" y2="-116.261" gradientUnits="userSpaceOnUse">
<stop stop-color="#2E28D4"/>
<stop offset="1" stop-color="#AC27FD"/>
</linearGradient>
<linearGradient id="paint1_linear_580_3113" x1="230.158" y1="213.126" x2="230.158" y2="37.9455" gradientUnits="userSpaceOnUse">
<stop stop-color="#7995FD"/>
<stop offset="1" stop-color="#54DEFF"/>
</linearGradient>
<linearGradient id="paint2_linear_580_3113" x1="230.158" y1="29.8602" x2="230.158" y2="190.438" gradientUnits="userSpaceOnUse">
<stop stop-color="#F9DD68"/>
<stop offset="1" stop-color="#F9A942"/>
</linearGradient>
<linearGradient id="paint3_linear_580_3113" x1="232.642" y1="77.654" x2="232.642" y2="102.57" gradientUnits="userSpaceOnUse">
<stop stop-color="#7995FD"/>
<stop offset="1" stop-color="#54DEFF"/>
</linearGradient>
<linearGradient id="paint4_linear_580_3113" x1="240.108" y1="61.017" x2="240.108" y2="52.001" gradientUnits="userSpaceOnUse">
<stop stop-color="#00004F"/>
<stop offset="1" stop-color="#000079"/>
</linearGradient>
<linearGradient id="paint5_linear_580_3113" x1="213.201" y1="77.654" x2="213.201" y2="102.57" gradientUnits="userSpaceOnUse">
<stop stop-color="#7995FD"/>
<stop offset="1" stop-color="#54DEFF"/>
</linearGradient>
<linearGradient id="paint6_linear_580_3113" x1="250.352" y1="77.654" x2="250.352" y2="102.57" gradientUnits="userSpaceOnUse">
<stop stop-color="#7995FD"/>
<stop offset="1" stop-color="#54DEFF"/>
</linearGradient>
<linearGradient id="paint7_linear_580_3113" x1="233.658" y1="61.0171" x2="233.658" y2="52.0066" gradientUnits="userSpaceOnUse">
<stop stop-color="#00004F"/>
<stop offset="1" stop-color="#000079"/>
</linearGradient>
<linearGradient id="paint8_linear_580_3113" x1="223.999" y1="61.0171" x2="223.999" y2="52.0065" gradientUnits="userSpaceOnUse">
<stop stop-color="#00004F"/>
<stop offset="1" stop-color="#000079"/>
</linearGradient>
<linearGradient id="paint9_linear_580_3113" x1="247.438" y1="87.5058" x2="247.438" y2="103.837" gradientUnits="userSpaceOnUse">
<stop stop-color="#D1D3D4"/>
<stop offset="1" stop-color="#A7A9AC"/>
</linearGradient>
<linearGradient id="paint10_linear_580_3113" x1="216.816" y1="87.5058" x2="216.816" y2="103.837" gradientUnits="userSpaceOnUse">
<stop stop-color="#D1D3D4"/>
<stop offset="1" stop-color="#A7A9AC"/>
</linearGradient>
<linearGradient id="paint11_linear_580_3113" x1="225.275" y1="75.2163" x2="230.865" y2="81.1058" gradientUnits="userSpaceOnUse">
<stop stop-color="#7995FD"/>
<stop offset="1" stop-color="#54DEFF"/>
</linearGradient>
<linearGradient id="paint12_linear_580_3113" x1="239.163" y1="75.289" x2="233.409" y2="81.0709" gradientUnits="userSpaceOnUse">
<stop stop-color="#7995FD"/>
<stop offset="1" stop-color="#54DEFF"/>
</linearGradient>
<linearGradient id="paint13_linear_580_3113" x1="154.227" y1="228.945" x2="170.302" y2="228.945" gradientUnits="userSpaceOnUse">
<stop stop-color="#00FFFF"/>
<stop offset="1" stop-color="#5793FB"/>
</linearGradient>
<linearGradient id="paint14_linear_580_3113" x1="184.821" y1="122.904" x2="181.428" y2="99.7697" gradientUnits="userSpaceOnUse">
<stop stop-color="#7995FD"/>
<stop offset="1" stop-color="#54DEFF"/>
</linearGradient>
<linearGradient id="paint15_linear_580_3113" x1="178.509" y1="153.575" x2="180.326" y2="223.696" gradientUnits="userSpaceOnUse">
<stop stop-color="#00006C"/>
<stop offset="1" stop-color="#5793FB"/>
</linearGradient>
<linearGradient id="paint16_linear_580_3113" x1="162.213" y1="153.998" x2="164.03" y2="224.118" gradientUnits="userSpaceOnUse">
<stop stop-color="#00006C"/>
<stop offset="1" stop-color="#5793FB"/>
</linearGradient>
<linearGradient id="paint17_linear_580_3113" x1="172.561" y1="169.611" x2="173.971" y2="169.611" gradientUnits="userSpaceOnUse">
<stop stop-color="#00006C"/>
<stop offset="1" stop-color="#3049B9"/>
</linearGradient>
<linearGradient id="paint18_linear_580_3113" x1="179.987" y1="228.945" x2="195.945" y2="228.945" gradientUnits="userSpaceOnUse">
<stop stop-color="#00FFFF"/>
<stop offset="1" stop-color="#5793FB"/>
</linearGradient>
<linearGradient id="paint19_linear_580_3113" x1="170.991" y1="146.911" x2="165.903" y2="101.62" gradientUnits="userSpaceOnUse">
<stop stop-color="#7995FD"/>
<stop offset="1" stop-color="#54DEFF"/>
</linearGradient>
<linearGradient id="paint20_linear_580_3113" x1="173.195" y1="91.0665" x2="164.272" y2="73.8658" gradientUnits="userSpaceOnUse">
<stop stop-color="#000051"/>
<stop offset="1" stop-color="#30389C"/>
</linearGradient>
<linearGradient id="paint21_linear_580_3113" x1="152.3" y1="215.077" x2="245.669" y2="160.994" gradientUnits="userSpaceOnUse">
<stop stop-color="#2E28D4"/>
<stop offset="1" stop-color="#AC27FD"/>
</linearGradient>
<linearGradient id="paint22_linear_580_3113" x1="208.944" y1="115.233" x2="212.024" y2="101.71" gradientUnits="userSpaceOnUse">
<stop stop-color="#FFFFFD"/>
<stop offset="1" stop-color="#54DEFF"/>
</linearGradient>
<linearGradient id="paint23_linear_580_3113" x1="245.548" y1="45.9894" x2="173.199" y2="184.333" gradientUnits="userSpaceOnUse">
<stop stop-color="#FFFFFD"/>
<stop offset="1" stop-color="#54DEFF"/>
</linearGradient>
<linearGradient id="paint24_linear_580_3113" x1="244.125" y1="48.6835" x2="179.416" y2="172.419" gradientUnits="userSpaceOnUse">
<stop stop-color="#7995FD"/>
<stop offset="1" stop-color="#54DEFF"/>
</linearGradient>
<linearGradient id="paint25_linear_580_3113" x1="168.632" y1="121.167" x2="151.851" y2="105.941" gradientUnits="userSpaceOnUse">
<stop stop-color="#7995FD"/>
<stop offset="1" stop-color="#54DEFF"/>
</linearGradient>
<linearGradient id="paint26_linear_580_3113" x1="374.535" y1="138.479" x2="367.041" y2="130.949" gradientUnits="userSpaceOnUse">
<stop stop-color="#84CF9B"/>
<stop offset="1" stop-color="#79D3FD"/>
</linearGradient>
<linearGradient id="paint27_linear_580_3113" x1="120.248" y1="104.275" x2="116.001" y2="146.398" gradientUnits="userSpaceOnUse">
<stop stop-color="#FFFFFD"/>
<stop offset="1" stop-color="#54DEFF"/>
</linearGradient>
<linearGradient id="paint28_linear_580_3113" x1="119.62" y1="123.132" x2="115.762" y2="117.483" gradientUnits="userSpaceOnUse">
<stop stop-color="#FFFFFD"/>
<stop offset="1" stop-color="#54DEFF"/>
</linearGradient>
<linearGradient id="paint29_linear_580_3113" x1="109.866" y1="229.111" x2="126.076" y2="229.111" gradientUnits="userSpaceOnUse">
<stop stop-color="#00FFFF"/>
<stop offset="1" stop-color="#5793FB"/>
</linearGradient>
<linearGradient id="paint30_linear_580_3113" x1="74.2027" y1="227.135" x2="88.429" y2="227.135" gradientUnits="userSpaceOnUse">
<stop stop-color="#00FFFF"/>
<stop offset="1" stop-color="#5793FB"/>
</linearGradient>
<linearGradient id="paint31_linear_580_3113" x1="107.636" y1="155.49" x2="108.932" y2="210.205" gradientUnits="userSpaceOnUse">
<stop stop-color="#00004F"/>
<stop offset="1" stop-color="#000079"/>
</linearGradient>
<linearGradient id="paint32_linear_580_3113" x1="91.625" y1="155.869" x2="92.9213" y2="210.584" gradientUnits="userSpaceOnUse">
<stop stop-color="#00004F"/>
<stop offset="1" stop-color="#000079"/>
</linearGradient>
<linearGradient id="paint33_linear_580_3113" x1="103.718" y1="104.116" x2="103.718" y2="145.952" gradientUnits="userSpaceOnUse">
<stop stop-color="#FFFFFD"/>
<stop offset="1" stop-color="#54DEFF"/>
</linearGradient>
<linearGradient id="paint34_linear_580_3113" x1="58.8001" y1="106.573" x2="139.369" y2="161.896" gradientUnits="userSpaceOnUse">
<stop stop-color="#F9DD68"/>
<stop offset="1" stop-color="#F9A942"/>
</linearGradient>
<linearGradient id="paint35_linear_580_3113" x1="88.6801" y1="103.04" x2="81.331" y2="147.74" gradientUnits="userSpaceOnUse">
<stop stop-color="#FFFFFD"/>
<stop offset="1" stop-color="#54DEFF"/>
</linearGradient>
<linearGradient id="paint36_linear_580_3113" x1="109.328" y1="76.1604" x2="112.298" y2="88.9494" gradientUnits="userSpaceOnUse">
<stop stop-color="#00B5FF"/>
<stop offset="1" stop-color="#3049B9"/>
</linearGradient>
<linearGradient id="paint37_linear_580_3113" x1="102.915" y1="77.6497" x2="105.884" y2="90.4385" gradientUnits="userSpaceOnUse">
<stop stop-color="#00B5FF"/>
<stop offset="1" stop-color="#3049B9"/>
</linearGradient>
<linearGradient id="paint38_linear_580_3113" x1="305.554" y1="229.05" x2="321.897" y2="229.05" gradientUnits="userSpaceOnUse">
<stop stop-color="#00FFFF"/>
<stop offset="1" stop-color="#5793FB"/>
</linearGradient>
<linearGradient id="paint39_linear_580_3113" x1="330.947" y1="229.147" x2="346.193" y2="229.147" gradientUnits="userSpaceOnUse">
<stop stop-color="#00FFFF"/>
<stop offset="1" stop-color="#5793FB"/>
</linearGradient>
<linearGradient id="paint40_linear_580_3113" x1="312.7" y1="224.211" x2="370.551" y2="198.976" gradientUnits="userSpaceOnUse">
<stop stop-color="#011F70"/>
<stop offset="1" stop-color="#AC27FD"/>
</linearGradient>
<linearGradient id="paint41_linear_580_3113" x1="313.097" y1="147.668" x2="313.34" y2="104.452" gradientUnits="userSpaceOnUse">
<stop stop-color="#7995FD"/>
<stop offset="1" stop-color="#54DEFF"/>
</linearGradient>
<linearGradient id="paint42_linear_580_3113" x1="329.165" y1="147.758" x2="329.407" y2="104.542" gradientUnits="userSpaceOnUse">
<stop stop-color="#7995FD"/>
<stop offset="1" stop-color="#54DEFF"/>
</linearGradient>
<linearGradient id="paint43_linear_580_3113" x1="319.499" y1="93.8231" x2="317.623" y2="74.6534" gradientUnits="userSpaceOnUse">
<stop stop-color="#00004F"/>
<stop offset="1" stop-color="#000079"/>
</linearGradient>
<linearGradient id="paint44_linear_580_3113" x1="326.07" y1="93.0265" x2="324.253" y2="74.4599" gradientUnits="userSpaceOnUse">
<stop stop-color="#00004F"/>
<stop offset="1" stop-color="#000079"/>
</linearGradient>
<linearGradient id="paint45_linear_580_3113" x1="341.423" y1="147.827" x2="341.665" y2="104.611" gradientUnits="userSpaceOnUse">
<stop stop-color="#7995FD"/>
<stop offset="1" stop-color="#54DEFF"/>
</linearGradient>
<linearGradient id="paint46_linear_580_3113" x1="333.308" y1="141.571" x2="320.441" y2="116.442" gradientUnits="userSpaceOnUse">
<stop stop-color="#160EC0"/>
<stop offset="1" stop-color="#5451FF"/>
</linearGradient>
<linearGradient id="paint47_linear_580_3113" x1="301.353" y1="91.3456" x2="299.373" y2="95.0972" gradientUnits="userSpaceOnUse">
<stop stop-color="#FFFFFD"/>
<stop offset="1" stop-color="#54DEFF"/>
</linearGradient>
<linearGradient id="paint48_linear_580_3113" x1="296.228" y1="94.3312" x2="291.805" y2="99.8761" gradientUnits="userSpaceOnUse">
<stop stop-color="#00004F"/>
<stop offset="1" stop-color="#000079"/>
</linearGradient>
<linearGradient id="paint49_linear_580_3113" x1="292.134" y1="93.7741" x2="294.532" y2="93.7741" gradientUnits="userSpaceOnUse">
<stop stop-color="#F9DD68"/>
<stop offset="1" stop-color="#F9A942"/>
</linearGradient>
<linearGradient id="paint50_linear_580_3113" x1="292.656" y1="93.3567" x2="296.435" y2="86.3109" gradientUnits="userSpaceOnUse">
<stop stop-color="#7995FD"/>
<stop offset="1" stop-color="#54DEFF"/>
</linearGradient>
<linearGradient id="paint51_linear_580_3113" x1="291.721" y1="80.0925" x2="284.984" y2="93.2364" gradientUnits="userSpaceOnUse">
<stop stop-color="#FFFFFD"/>
<stop offset="1" stop-color="#54DEFF"/>
</linearGradient>
<linearGradient id="paint52_linear_580_3113" x1="248.292" y1="53.179" x2="267.962" y2="33.4116" gradientUnits="userSpaceOnUse">
<stop stop-color="#2E28D4"/>
<stop offset="1" stop-color="#AC27FD"/>
</linearGradient>
<linearGradient id="paint53_linear_580_3113" x1="343.19" y1="85.8944" x2="362.95" y2="66.4439" gradientUnits="userSpaceOnUse">
<stop stop-color="#011F70"/>
<stop offset="1" stop-color="#AC27FD"/>
</linearGradient>
<linearGradient id="paint54_linear_580_3113" x1="66.8484" y1="95.4694" x2="86.6084" y2="76.019" gradientUnits="userSpaceOnUse">
<stop stop-color="#2E28D4"/>
<stop offset="1" stop-color="#AC27FD"/>
</linearGradient>
<linearGradient id="paint55_linear_580_3113" x1="307.295" y1="21.9771" x2="325.422" y2="40.7381" gradientUnits="userSpaceOnUse">
<stop stop-color="#FFFFFD"/>
<stop offset="1" stop-color="#54DEFF"/>
</linearGradient>
<linearGradient id="paint56_linear_580_3113" x1="311.271" y1="22.0137" x2="324.111" y2="34.9194" gradientUnits="userSpaceOnUse">
<stop stop-color="#00B5FF"/>
<stop offset="1" stop-color="#3049B9"/>
</linearGradient>
<linearGradient id="paint57_linear_580_3113" x1="306.764" y1="26.4995" x2="319.604" y2="39.403" gradientUnits="userSpaceOnUse">
<stop stop-color="#00B5FF"/>
<stop offset="1" stop-color="#3049B9"/>
</linearGradient>
<linearGradient id="paint58_linear_580_3113" x1="306.276" y1="176.727" x2="267.789" y2="148.322" gradientUnits="userSpaceOnUse">
<stop stop-color="#7995FD"/>
<stop offset="1" stop-color="#54DEFF"/>
</linearGradient>
<linearGradient id="paint59_linear_580_3113" x1="271.77" y1="151.918" x2="281.467" y2="160.215" gradientUnits="userSpaceOnUse">
<stop stop-color="#00B5FF"/>
<stop offset="1" stop-color="#3049B9"/>
</linearGradient>
<linearGradient id="paint60_linear_580_3113" x1="272.648" y1="150.892" x2="282.344" y2="159.191" gradientUnits="userSpaceOnUse">
<stop stop-color="#00B5FF"/>
<stop offset="1" stop-color="#3049B9"/>
</linearGradient>
<linearGradient id="paint61_linear_580_3113" x1="390.749" y1="253.872" x2="348.143" y2="169.054" gradientUnits="userSpaceOnUse">
<stop stop-color="#7995FD"/>
<stop offset="1" stop-color="#54DEFF"/>
</linearGradient>
<linearGradient id="paint62_linear_580_3113" x1="396.961" y1="258.693" x2="350.464" y2="166.13" gradientUnits="userSpaceOnUse">
<stop stop-color="#7995FD"/>
<stop offset="1" stop-color="#54DEFF"/>
</linearGradient>
<linearGradient id="paint63_linear_580_3113" x1="410.334" y1="262.844" x2="351.277" y2="145.276" gradientUnits="userSpaceOnUse">
<stop stop-color="#7995FD"/>
<stop offset="1" stop-color="#54DEFF"/>
</linearGradient>
<linearGradient id="paint64_linear_580_3113" x1="421.787" y1="284.987" x2="353.69" y2="149.425" gradientUnits="userSpaceOnUse">
<stop stop-color="#7995FD"/>
<stop offset="1" stop-color="#54DEFF"/>
</linearGradient>
<linearGradient id="paint65_linear_580_3113" x1="378.211" y1="233.193" x2="348.163" y2="173.375" gradientUnits="userSpaceOnUse">
<stop stop-color="#7995FD"/>
<stop offset="1" stop-color="#54DEFF"/>
</linearGradient>
<linearGradient id="paint66_linear_580_3113" x1="120.196" y1="38.4648" x2="145.856" y2="38.4648" gradientUnits="userSpaceOnUse">
<stop stop-color="#00B5FF"/>
<stop offset="1" stop-color="#3049B9"/>
</linearGradient>
<linearGradient id="paint67_linear_580_3113" x1="110.663" y1="75.9223" x2="142.394" y2="49.0051" gradientUnits="userSpaceOnUse">
<stop stop-color="#FFFFFD"/>
<stop offset="1" stop-color="#54DEFF"/>
</linearGradient>
<linearGradient id="paint68_linear_580_3113" x1="152.173" y1="66.9781" x2="133.254" y2="42.8004" gradientUnits="userSpaceOnUse">
<stop stop-color="#00B5FF"/>
<stop offset="1" stop-color="#3049B9"/>
</linearGradient>
<linearGradient id="paint69_linear_580_3113" x1="-nan" y1="-nan" x2="-nan" y2="-nan" gradientUnits="userSpaceOnUse">
<stop stop-color="#7995FD"/>
<stop offset="1" stop-color="#271A74"/>
</linearGradient>
</defs>
</svg>
