<svg width="1920" height="96" viewBox="0 0 1920 96" fill="none" xmlns="http://www.w3.org/2000/svg">
<g clip-path="url(#clip0_2820_451)">
<path d="M958 496.494C540 488.994 147 419.494 -0.000244141 289.994V-350.006H1920.5V290.994C1718.5 401.994 1394.5 484.494 958 496.494Z" fill="#C4C4C4"/>
<path d="M-0.000244141 -349.006H1920V496.994H-0.000244141V-349.006Z" fill="url(#paint0_linear_2820_451)"/>
<path d="M1713.14 390.775C1644.68 336.472 1632.35 277.848 1594.1 206.319C1553.83 131.022 1498.19 89.612 1411.23 73.539C1343.06 60.9395 1178.87 44.1121 1138 -9.00001L1929 -8.99994C1929 -8.99994 1926.85 349.865 1926.85 433.121C1873.06 444.604 1795.47 456.08 1713.14 390.775Z" fill="url(#paint1_linear_2820_451)"/>
<path d="M10.5532 -73.595C65.5076 -68.1496 113.35 -3.95831 96.6906 50.7849C86.2328 85.1504 61.1239 111.155 63.6555 142.725C67.3736 189.093 90.9801 216.387 137.94 231.431C165.862 240.376 222.031 242.27 268.83 246.798C349.384 254.593 392.974 275.005 427.936 335.518C472.466 412.593 402.116 477.577 422.019 538.167L-93 433.02C-92.1955 432.104 -91.9399 427.834 -91.2835 426.887L5.12713 -44.7842" fill="url(#paint2_linear_2820_451)"/>
<g opacity="0.49">
<path opacity="0.49" d="M1930.71 187.53C1895.44 208.101 1859.94 228.673 1821.43 242.31C1782.92 255.948 1740.83 262.073 1701.05 253.058C1661.27 243.928 1624.15 218.04 1607.96 180.48C1598.01 157.481 1596.16 131.362 1584.48 109.173C1564.48 71.6121 1519.96 53.3518 1477.63 49.1913C1435.31 45.0307 1392.52 51.7339 1349.97 49.6536C1307.41 47.5733 1262.08 34.2827 1236.76 0.189246" stroke="white" stroke-miterlimit="10"/>
<path opacity="0.49" d="M1932.21 200.358C1897.06 220.005 1861.56 239.652 1823.39 252.481C1798.42 260.917 1772.05 266.349 1745.69 266.58C1731.92 266.696 1718.05 265.424 1704.4 262.42C1664.97 253.636 1628.2 228.904 1610.97 192.846C1599.63 169.038 1596.97 141.301 1584.02 118.187C1581.13 113.102 1577.89 108.364 1574.19 104.087C1556.27 83.1691 1529.44 71.8432 1501.69 65.8335C1490.7 63.5221 1479.6 61.9041 1468.5 61.0951C1451.38 59.8238 1434.15 59.9394 1417.04 60.4017C1392.75 61.0951 1368.24 63.0598 1343.95 62.0196C1340.37 61.9041 1336.9 61.6729 1333.32 61.3262C1315.97 59.9394 1298.51 56.4723 1282.43 50.2314C1256.42 40.0612 1236.06 23.5345 1222.65 0.0736159" stroke="white" stroke-miterlimit="10"/>
<path opacity="0.49" d="M1933.6 213.302C1898.56 232.025 1863.18 250.747 1825.36 262.882C1800.5 270.857 1774.48 275.942 1748.46 276.057C1734.93 276.173 1721.17 274.902 1707.64 271.897C1668.67 263.46 1631.9 239.999 1613.74 205.212C1600.79 180.596 1597.55 151.241 1583.44 127.202C1580.32 122.001 1576.74 117.032 1572.69 112.524C1553.03 91.0282 1523.77 81.5514 1494.4 76.813C1482.84 74.9639 1471.04 73.6926 1459.25 73.1147C1441.21 72.1901 1423.05 72.3057 1404.9 72.8835C1379.22 73.577 1353.44 75.8884 1327.76 74.2704C1324.06 74.0393 1320.25 73.6926 1316.55 73.3459C1298.28 71.3812 1280.01 66.9894 1263.7 59.1306C1236.99 46.3022 1219.53 26.1929 1208.42 0.420563" stroke="white" stroke-miterlimit="10"/>
<path opacity="0.49" d="M1935.1 226.131C1900.18 243.928 1864.79 261.726 1827.44 273.168C1802.81 280.68 1777.14 285.418 1751.47 285.418C1738.17 285.418 1724.64 284.147 1711.22 281.373C1672.72 273.284 1635.94 251.094 1616.86 217.578C1602.41 192.153 1598.48 161.18 1583.1 136.216C1579.74 130.785 1575.93 125.699 1571.42 121.077C1550.02 99.0025 1518.34 91.3749 1487.35 87.7922C1475.09 86.4053 1462.6 85.4807 1450.23 85.0184C1431.15 84.325 1412.07 84.6717 1392.99 85.134C1365.93 85.8274 1338.75 88.37 1311.81 86.2897C1307.87 85.943 1303.94 85.5963 1300.01 85.0184C1280.82 82.4759 1261.73 77.0441 1245.2 67.5673C1217.91 51.9652 1203.22 28.3887 1194.32 0.42051" stroke="white" stroke-miterlimit="10"/>
<path opacity="0.49" d="M1936.61 238.959C1901.91 255.947 1866.53 272.59 1829.41 283.338C1805.01 290.388 1779.68 294.779 1754.24 294.779C1741.18 294.779 1727.76 293.508 1714.46 290.734C1676.3 282.875 1639.53 262.073 1619.75 229.828C1603.68 203.594 1599.17 171.003 1582.63 145.115C1579.05 139.452 1574.89 134.251 1570.03 129.513C1546.79 106.861 1512.79 101.198 1480.29 98.6555C1467.34 97.7309 1454.27 97.1531 1441.21 96.9219C1421.2 96.5752 1401.08 96.9219 1381.07 97.4998C1352.74 98.3088 1324.18 101.082 1295.85 98.3087C1291.68 97.962 1287.64 97.3842 1283.47 96.8063C1263.35 93.6859 1243.46 87.214 1226.7 76.2347C1198.83 57.9745 1187.03 30.9309 1180.32 0.535776" stroke="white" stroke-miterlimit="10"/>
<path opacity="0.49" d="M1937.99 251.903C1903.42 267.967 1868.15 283.685 1831.37 293.739C1807.09 300.327 1782.23 304.372 1757.02 304.256C1744.3 304.141 1731 302.985 1717.7 300.327C1680 292.815 1643.11 273.399 1622.53 242.31C1604.72 215.382 1599.75 181.058 1581.94 154.245C1578.12 148.467 1573.61 143.035 1568.41 138.181C1543.43 114.951 1507.01 111.137 1472.89 109.75C1459.36 109.288 1445.6 109.057 1431.84 109.057C1410.91 109.057 1389.86 109.519 1368.93 110.097C1339.21 110.906 1309.26 114.027 1279.66 110.675C1275.38 110.213 1270.99 109.635 1266.71 108.826C1245.66 105.012 1224.96 97.6155 1208.08 85.0183C1179.63 63.9844 1170.61 33.4737 1166.1 0.767103" stroke="white" stroke-miterlimit="10"/>
<path opacity="0.49" d="M1939.5 264.731C1905.04 279.871 1869.77 294.664 1833.34 303.91C1809.29 310.035 1784.65 313.733 1759.79 313.502C1747.3 313.386 1734.12 312.115 1721.05 309.573C1683.82 302.407 1646.7 284.378 1625.42 254.445C1605.88 226.824 1600.44 190.766 1581.48 163.029C1577.31 157.019 1572.57 151.472 1567.02 146.386C1540.31 122.694 1501.45 120.614 1465.72 120.499C1451.5 120.499 1437.16 120.499 1422.82 120.73C1400.85 121.076 1378.88 121.539 1357.02 122.116C1326.03 122.925 1294.69 126.277 1263.58 122.463C1259.07 121.885 1254.56 121.192 1250.17 120.267C1228.08 115.876 1206.8 107.439 1189.57 93.3393C1160.66 69.5317 1154.3 35.5539 1152.11 0.535891" stroke="white" stroke-miterlimit="10"/>
<path opacity="0.49" d="M1941 277.559C1883.99 301.252 1824.44 323.788 1762.68 322.979C1715.85 322.401 1657.91 305.99 1628.43 266.927C1602.41 232.602 1599.52 183.947 1565.63 155.054C1537.19 130.784 1495.9 130.553 1458.55 131.593C1421.09 132.634 1382.69 133.789 1344.99 134.714C1312.62 135.523 1279.89 139.221 1247.51 134.829C1219.64 131.016 1191.89 121.076 1170.96 102.238C1141.35 75.6571 1138 38.3276 1138 0.998196" stroke="white" stroke-miterlimit="10"/>
</g>
</g>
<defs>
<linearGradient id="paint0_linear_2820_451" x1="585.212" y1="345.771" x2="926.441" y2="-366.187" gradientUnits="userSpaceOnUse">
<stop offset="0.159655" stop-color="#2E28D4"/>
<stop offset="0.656366" stop-color="#011F70"/>
<stop offset="1" stop-color="#2B274B"/>
</linearGradient>
<linearGradient id="paint1_linear_2820_451" x1="1436.14" y1="216.88" x2="1702.12" y2="-166.429" gradientUnits="userSpaceOnUse">
<stop stop-color="#3528D7"/>
<stop offset="0.65625" stop-color="#0E2266"/>
<stop offset="1" stop-color="#2D2A4F"/>
</linearGradient>
<linearGradient id="paint2_linear_2820_451" x1="350.153" y1="89.7282" x2="38.4433" y2="280.694" gradientUnits="userSpaceOnUse">
<stop offset="0.159655" stop-color="#2E28D4"/>
<stop offset="0.656366" stop-color="#011F70"/>
<stop offset="1" stop-color="#2B274B"/>
</linearGradient>
<clipPath id="clip0_2820_451">
<rect width="1920" height="96" fill="white"/>
</clipPath>
</defs>
</svg>
