<svg width="1920" height="350" viewBox="0 0 1920 350" fill="none" xmlns="http://www.w3.org/2000/svg">
<g clip-path="url(#clip0_2809_4074)">
<path d="M958 496.494C540 488.994 147 419.494 -0.000244141 289.994V-350.006H1920.5V290.994C1718.5 401.994 1394.5 484.494 958 496.494Z" fill="#C4C4C4"/>
<path d="M-0.000244141 -349.006H1920V496.994H-0.000244141V-349.006Z" fill="url(#paint0_radial_2809_4074)"/>
<path d="M1713.14 390.775C1644.68 336.472 1632.35 277.848 1594.1 206.319C1553.83 131.022 1498.19 89.612 1411.23 73.539C1343.06 60.9395 1178.87 44.1121 1138 -9.00001L1929 -8.99994C1929 -8.99994 1926.85 349.865 1926.85 433.121C1873.06 444.604 1795.47 456.08 1713.14 390.775Z" fill="url(#paint1_linear_2809_4074)"/>
<path d="M10.5532 -73.595C65.5076 -68.1496 113.35 -3.95832 96.6906 50.7849C86.2328 85.1504 61.1239 111.155 63.6555 142.725C67.3736 189.093 90.9801 216.387 137.94 231.431C165.862 240.376 222.031 242.27 268.83 246.798C349.384 254.593 392.974 275.005 427.936 335.518C472.466 412.593 402.116 477.577 422.019 538.167L-93 433.02C-92.1955 432.104 -91.9399 427.834 -91.2835 426.887L5.12712 -44.7842" fill="url(#paint2_linear_2809_4074)"/>
<g opacity="0.49">
<path opacity="0.49" d="M-22.8876 233.949C8.34148 215.735 39.7754 197.52 73.8714 185.445C107.967 173.37 145.238 167.947 180.46 175.928C215.682 184.012 248.55 206.934 262.884 240.192C271.69 260.555 273.328 283.682 283.67 303.329C301.383 336.586 340.804 352.755 378.279 356.438C415.753 360.122 453.638 354.187 491.318 356.029C528.997 357.871 569.135 369.639 591.558 399.826" stroke="white" stroke-miterlimit="10"/>
<path opacity="0.49" d="M-24.2185 222.591C6.90822 205.195 38.3421 187.798 72.131 176.44C94.2474 168.97 117.592 164.16 140.937 163.956C153.122 163.853 165.409 164.979 177.491 167.639C212.406 175.417 244.966 197.315 260.222 229.242C270.257 250.322 272.612 274.881 284.079 295.347C286.639 299.85 289.506 304.045 292.783 307.831C308.653 326.353 332.408 336.381 356.982 341.703C366.709 343.749 376.538 345.182 386.368 345.898C401.521 347.024 416.778 346.921 431.931 346.512C453.433 345.898 475.14 344.159 496.642 345.08C499.816 345.182 502.888 345.387 506.062 345.694C521.421 346.921 536.882 349.991 551.114 355.517C574.152 364.522 592.173 379.155 604.05 399.928" stroke="white" stroke-miterlimit="10"/>
<path opacity="0.49" d="M-25.447 211.13C5.57731 194.552 36.9088 177.975 70.3905 167.23C92.4045 160.169 115.442 155.667 138.48 155.564C150.46 155.462 162.644 156.588 174.624 159.248C209.13 166.718 241.69 187.491 257.765 218.293C269.233 240.089 272.1 266.081 284.592 287.365C287.356 291.97 290.53 296.37 294.114 300.361C311.52 319.395 337.425 327.786 363.432 331.981C373.671 333.619 384.115 334.744 394.559 335.256C410.532 336.074 426.607 335.972 442.683 335.46C465.413 334.847 488.246 332.8 510.977 334.233C514.254 334.437 517.632 334.744 520.909 335.051C537.087 336.791 553.264 340.679 567.701 347.638C591.354 358.996 606.815 376.802 616.644 399.621" stroke="white" stroke-miterlimit="10"/>
<path opacity="0.49" d="M-26.7779 199.771C4.14405 184.012 35.4756 168.254 68.5477 158.123C90.3569 151.471 113.088 147.276 135.818 147.276C147.593 147.276 159.573 148.402 171.45 150.857C205.546 158.021 238.106 177.668 255.001 207.344C267.8 229.856 271.281 257.281 284.899 279.384C287.868 284.193 291.247 288.696 295.24 292.789C314.183 312.334 342.238 319.088 369.678 322.26C380.532 323.488 391.59 324.307 402.546 324.716C419.44 325.33 436.335 325.023 453.229 324.614C477.188 324 501.25 321.748 525.107 323.59C528.588 323.897 532.07 324.204 535.551 324.716C552.548 326.967 569.442 331.777 584.084 340.168C608.248 353.982 621.252 374.858 629.136 399.622" stroke="white" stroke-miterlimit="10"/>
<path opacity="0.49" d="M-28.1093 188.413C2.60791 173.37 33.9394 158.635 66.8068 149.118C88.4112 142.876 110.835 138.987 133.361 138.987C144.931 138.987 156.808 140.113 168.583 142.569C202.372 149.527 234.932 167.947 252.441 196.497C266.673 219.726 270.666 248.583 285.308 271.505C288.482 276.519 292.168 281.124 296.469 285.319C317.049 305.376 347.152 310.39 375.924 312.641C387.392 313.46 398.962 313.971 410.532 314.176C428.245 314.483 446.061 314.176 463.775 313.664C488.861 312.948 514.151 310.492 539.237 312.948C542.923 313.255 546.506 313.767 550.193 314.278C568.008 317.041 585.62 322.772 600.466 332.493C625.142 348.661 635.586 372.606 641.525 399.519" stroke="white" stroke-miterlimit="10"/>
<path opacity="0.49" d="M-29.3378 176.952C1.27701 162.728 32.5061 148.811 65.0663 139.908C86.5683 134.076 108.582 130.494 130.903 130.596C142.166 130.699 153.941 131.722 165.716 134.076C199.096 140.727 231.758 157.918 249.984 185.445C265.752 209.288 270.155 239.68 285.923 263.421C289.302 268.537 293.295 273.347 297.902 277.644C320.019 298.213 352.272 301.59 382.477 302.818C394.457 303.227 406.641 303.432 418.826 303.432C437.358 303.432 455.993 303.022 474.526 302.511C500.841 301.794 527.36 299.031 553.572 301.999C557.36 302.408 561.251 302.92 565.039 303.636C583.674 307.013 602.002 313.562 616.951 324.716C642.139 343.34 650.126 370.355 654.119 399.315" stroke="white" stroke-miterlimit="10"/>
<path opacity="0.49" d="M-30.6691 165.593C-0.156745 152.188 31.0724 139.09 63.3254 130.903C84.6226 125.48 106.432 122.205 128.446 122.41C139.504 122.512 151.176 123.638 162.747 125.889C195.716 132.234 228.584 148.197 247.424 174.701C264.728 199.157 269.54 231.084 286.332 255.644C290.018 260.965 294.216 265.877 299.131 270.379C322.783 291.357 357.186 293.199 388.825 293.301C401.419 293.301 414.115 293.301 426.812 293.096C446.266 292.789 465.72 292.38 485.072 291.868C512.513 291.152 540.261 288.184 567.804 291.561C571.797 292.073 575.79 292.687 579.681 293.506C599.238 297.394 618.077 304.864 633.334 317.348C658.931 338.428 664.563 368.513 666.508 399.519" stroke="white" stroke-miterlimit="10"/>
<path opacity="0.49" d="M-32 154.234C18.4785 133.257 71.2097 113.302 125.886 114.019C167.354 114.53 218.652 129.061 244.762 163.649C267.8 194.041 270.359 237.122 300.36 262.704C325.548 284.193 362.101 284.398 395.173 283.477C428.348 282.556 462.342 281.533 495.721 280.714C524.39 279.998 553.367 276.723 582.036 280.612C606.712 283.989 631.286 292.789 649.819 309.469C676.031 333.005 679 366.057 679 399.11" stroke="white" stroke-miterlimit="10"/>
</g>
<g opacity="0.49">
<path opacity="0.49" d="M1930.71 187.53C1895.44 208.101 1859.94 228.673 1821.43 242.31C1782.92 255.948 1740.83 262.073 1701.05 253.058C1661.27 243.928 1624.15 218.04 1607.96 180.48C1598.01 157.481 1596.16 131.362 1584.48 109.173C1564.48 71.6121 1519.96 53.3518 1477.63 49.1913C1435.31 45.0307 1392.52 51.7339 1349.97 49.6536C1307.41 47.5733 1262.08 34.2827 1236.76 0.189246" stroke="white" stroke-miterlimit="10"/>
<path opacity="0.49" d="M1932.21 200.358C1897.06 220.005 1861.56 239.652 1823.39 252.481C1798.42 260.917 1772.05 266.349 1745.69 266.58C1731.92 266.696 1718.05 265.424 1704.4 262.42C1664.97 253.636 1628.2 228.904 1610.97 192.846C1599.63 169.038 1596.97 141.301 1584.02 118.187C1581.13 113.102 1577.89 108.364 1574.19 104.087C1556.27 83.1691 1529.44 71.8432 1501.69 65.8335C1490.7 63.5221 1479.6 61.9041 1468.5 61.0951C1451.38 59.8238 1434.15 59.9394 1417.04 60.4017C1392.75 61.0951 1368.24 63.0598 1343.95 62.0196C1340.37 61.9041 1336.9 61.6729 1333.32 61.3262C1315.97 59.9394 1298.51 56.4723 1282.43 50.2314C1256.41 40.0612 1236.06 23.5345 1222.65 0.0736159" stroke="white" stroke-miterlimit="10"/>
<path opacity="0.49" d="M1933.6 213.302C1898.56 232.025 1863.18 250.747 1825.36 262.882C1800.5 270.857 1774.48 275.942 1748.46 276.057C1734.93 276.173 1721.17 274.902 1707.64 271.897C1668.67 263.46 1631.9 239.999 1613.74 205.212C1600.79 180.596 1597.55 151.241 1583.44 127.202C1580.32 122.001 1576.74 117.032 1572.69 112.524C1553.03 91.0282 1523.77 81.5514 1494.4 76.813C1482.84 74.9639 1471.04 73.6926 1459.25 73.1147C1441.21 72.1901 1423.05 72.3057 1404.9 72.8835C1379.22 73.577 1353.44 75.8884 1327.76 74.2704C1324.06 74.0393 1320.25 73.6926 1316.55 73.3459C1298.28 71.3812 1280.01 66.9894 1263.7 59.1306C1236.99 46.3022 1219.53 26.1929 1208.43 0.420563" stroke="white" stroke-miterlimit="10"/>
<path opacity="0.49" d="M1935.1 226.131C1900.18 243.928 1864.79 261.726 1827.44 273.168C1802.81 280.68 1777.14 285.418 1751.47 285.418C1738.17 285.418 1724.64 284.147 1711.22 281.373C1672.72 273.284 1635.94 251.094 1616.86 217.578C1602.41 192.153 1598.48 161.18 1583.1 136.216C1579.74 130.785 1575.93 125.699 1571.42 121.077C1550.02 99.0025 1518.34 91.3749 1487.35 87.7922C1475.09 86.4053 1462.6 85.4807 1450.23 85.0184C1431.15 84.325 1412.07 84.6717 1392.99 85.134C1365.93 85.8274 1338.75 88.37 1311.81 86.2897C1307.87 85.943 1303.94 85.5963 1300.01 85.0184C1280.81 82.4759 1261.73 77.0441 1245.2 67.5673C1217.91 51.9652 1203.22 28.3887 1194.32 0.42051" stroke="white" stroke-miterlimit="10"/>
<path opacity="0.49" d="M1936.61 238.959C1901.91 255.947 1866.53 272.59 1829.41 283.338C1805.01 290.388 1779.68 294.779 1754.24 294.779C1741.18 294.779 1727.76 293.508 1714.46 290.734C1676.3 282.875 1639.53 262.073 1619.75 229.828C1603.68 203.594 1599.17 171.003 1582.63 145.115C1579.05 139.452 1574.89 134.251 1570.03 129.513C1546.79 106.861 1512.79 101.198 1480.29 98.6555C1467.34 97.7309 1454.27 97.1531 1441.21 96.9219C1421.2 96.5752 1401.08 96.9219 1381.07 97.4998C1352.74 98.3088 1324.18 101.082 1295.85 98.3087C1291.68 97.962 1287.64 97.3842 1283.47 96.8063C1263.35 93.6859 1243.46 87.214 1226.7 76.2347C1198.83 57.9745 1187.03 30.9309 1180.32 0.535776" stroke="white" stroke-miterlimit="10"/>
<path opacity="0.49" d="M1937.99 251.903C1903.42 267.967 1868.15 283.685 1831.37 293.739C1807.09 300.327 1782.23 304.372 1757.02 304.256C1744.3 304.141 1731 302.985 1717.7 300.327C1680 292.815 1643.11 273.399 1622.53 242.31C1604.72 215.382 1599.75 181.058 1581.94 154.245C1578.12 148.467 1573.61 143.035 1568.41 138.181C1543.43 114.951 1507.01 111.137 1472.89 109.75C1459.36 109.288 1445.6 109.057 1431.84 109.057C1410.91 109.057 1389.86 109.519 1368.93 110.097C1339.21 110.906 1309.26 114.027 1279.66 110.675C1275.38 110.213 1270.99 109.635 1266.71 108.826C1245.66 105.012 1224.96 97.6155 1208.08 85.0183C1179.63 63.9844 1170.61 33.4737 1166.1 0.767103" stroke="white" stroke-miterlimit="10"/>
<path opacity="0.49" d="M1939.5 264.731C1905.04 279.871 1869.77 294.664 1833.34 303.91C1809.29 310.035 1784.65 313.733 1759.79 313.502C1747.3 313.386 1734.12 312.115 1721.05 309.573C1683.82 302.407 1646.7 284.378 1625.42 254.445C1605.88 226.824 1600.44 190.766 1581.48 163.029C1577.31 157.019 1572.57 151.472 1567.02 146.386C1540.31 122.694 1501.45 120.614 1465.72 120.499C1451.5 120.499 1437.16 120.499 1422.82 120.73C1400.85 121.076 1378.88 121.539 1357.02 122.116C1326.03 122.925 1294.69 126.277 1263.58 122.463C1259.07 121.885 1254.56 121.192 1250.17 120.267C1228.08 115.876 1206.8 107.439 1189.57 93.3393C1160.66 69.5317 1154.3 35.5539 1152.11 0.535891" stroke="white" stroke-miterlimit="10"/>
<path opacity="0.49" d="M1941 277.559C1883.99 301.252 1824.44 323.788 1762.68 322.979C1715.85 322.401 1657.91 305.99 1628.43 266.927C1602.41 232.602 1599.52 183.947 1565.63 155.054C1537.19 130.784 1495.9 130.553 1458.55 131.593C1421.09 132.634 1382.69 133.789 1344.99 134.714C1312.62 135.523 1279.89 139.221 1247.51 134.829C1219.64 131.016 1191.89 121.076 1170.96 102.238C1141.35 75.6571 1138 38.3276 1138 0.998196" stroke="white" stroke-miterlimit="10"/>
</g>
</g>
<defs>
<radialGradient id="paint0_radial_2809_4074" cx="0" cy="0" r="1" gradientUnits="userSpaceOnUse" gradientTransform="translate(1293 496.994) rotate(-146.804) scale(1545.17 722.664)">
<stop offset="0.00597321" stop-color="#201D3C"/>
<stop offset="0.411492" stop-color="#011F70"/>
<stop offset="1" stop-color="#1B1835"/>
</radialGradient>
<linearGradient id="paint1_linear_2809_4074" x1="1436.14" y1="216.88" x2="1702.12" y2="-166.429" gradientUnits="userSpaceOnUse">
<stop stop-color="#3528D7"/>
<stop offset="0.65625" stop-color="#0E2266"/>
<stop offset="1" stop-color="#2D2A4F"/>
</linearGradient>
<linearGradient id="paint2_linear_2809_4074" x1="350.153" y1="89.7282" x2="38.4433" y2="280.694" gradientUnits="userSpaceOnUse">
<stop offset="0.159655" stop-color="#2E28D4"/>
<stop offset="0.656366" stop-color="#011F70"/>
<stop offset="1" stop-color="#2B274B"/>
</linearGradient>
<clipPath id="clip0_2809_4074">
<rect width="1920" height="350" fill="white"/>
</clipPath>
</defs>
</svg>
