<svg width="466" height="454" viewBox="0 0 466 454" fill="none" xmlns="http://www.w3.org/2000/svg">
<path opacity="0.5" d="M434.235 307.604C388.515 414.472 267.82 460.385 173.243 452.558C147.415 450.423 95.4691 446.121 54.9085 407.76C-22.9945 334.094 -10.9945 180.1 63.577 89.4528C73.1834 77.7763 139.652 -0.45014 243.237 0.601073C319.086 1.36118 372.31 44.2021 378.779 49.5552C386.962 56.2992 404.995 72.3261 421.248 97.7331C459.448 157.442 462.811 240.827 434.235 307.604Z" fill="url(#paint0_linear_1964_11606)"/>
<path d="M17.9381 36.4233C17.6955 34.5473 20.3963 33.5931 21.8356 35.0325C36.5041 49.6201 70.9515 92.3316 54.4717 159.173C33.8033 243.027 51.1725 276.164 74.8006 297.706C74.8006 297.706 40.6119 285.237 21.7548 251.485C-24.5956 168.617 22.2561 69.6901 17.9381 36.4233Z" fill="url(#paint1_linear_1964_11606)"/>
<path d="M27.383 64.2401C28.418 73.9112 29.2266 83.5986 29.6309 93.2859C30.0999 102.973 30.2132 112.644 30.0029 122.316C29.7442 131.97 29.259 141.625 28.321 151.232C27.4153 160.838 26.0406 170.396 24.6336 179.97C23.2751 189.561 21.852 199.216 21.5609 209.049C21.2698 218.865 22.3048 228.908 25.4423 238.531C26.2185 240.925 27.0595 243.334 28.046 245.663C28.984 248.008 30.0514 250.337 31.1512 252.634C33.3991 257.227 35.9867 261.722 38.9463 266.024C44.8978 274.628 52.321 282.488 60.6822 289.345C61.5555 290.073 62.9301 290.057 63.7388 289.313C64.5312 288.585 64.4827 287.421 63.6579 286.709C61.6687 284.995 59.7118 283.264 57.852 281.453C56.8978 280.563 56.0083 279.642 55.0865 278.736C54.197 277.798 53.2751 276.892 52.4342 275.938C48.9733 272.154 45.8034 268.175 42.9894 264.035C37.3291 255.771 33.0272 246.763 30.0191 237.561C28.5797 232.952 27.5123 228.262 26.8816 223.539C26.2509 218.817 26.0407 214.046 26.1377 209.259C26.3318 199.701 27.6579 190.143 28.9355 180.537C30.197 170.93 31.3938 161.275 32.1215 151.588C32.5097 146.736 32.7846 141.884 32.9625 137.032C33.0757 134.607 33.1242 132.165 33.1727 129.739C33.2051 127.313 33.2212 124.871 33.2051 122.445C33.1404 112.709 32.7522 102.989 31.9921 93.2697C31.1835 83.55 30.0838 73.8465 28.5474 64.1916C28.4989 63.9166 28.2078 63.7226 27.9005 63.7387C27.577 63.7387 27.3668 63.9813 27.383 64.2401Z" fill="white"/>
<path d="M60.4229 248.089C58.741 250.418 55.2315 250.256 53.7113 247.814C45.3825 234.326 25.3124 194.089 43.3124 142.434C58.5145 98.8168 62.6224 73.7171 63.6897 62.2022C63.9162 59.7602 67.1183 59.0324 68.3798 61.1349C82.3366 84.2292 121.571 163.895 60.4229 248.089Z" fill="url(#paint2_linear_1964_11606)"/>
<path d="M56.6869 247.038C56.6223 247.054 56.5414 247.07 56.4767 247.086C55.8621 247.151 55.3123 246.714 55.2314 246.1C55.1506 245.404 47.5818 175.652 65.9861 114.051C66.164 113.453 66.7947 113.113 67.3769 113.291C67.9753 113.469 68.3149 114.1 68.137 114.682C49.8783 175.83 57.3985 245.146 57.4632 245.841C57.5117 246.375 57.1883 246.876 56.6869 247.038Z" fill="white"/>
<path d="M21.9811 374.509C21.9811 378.698 25.4096 382.11 29.5983 382.11H441.399C445.588 382.11 449.016 378.682 449.016 374.509L452.445 137.857C452.445 133.668 447.512 125.501 438.488 126.116L36.0188 115.701C30.7627 115.571 25.6846 117.593 21.9649 121.296C18.2452 125 16.2075 130.078 16.3369 135.334L21.9811 374.509Z" fill="url(#paint3_linear_1964_11606)"/>
<path d="M29.5016 367.199C29.5016 371.162 32.7361 374.396 36.6983 374.396H431.469C435.431 374.396 438.666 371.162 438.666 367.199L441.9 152.364C441.512 139.442 430.192 134.784 423.318 135.059L37.604 124.709C33.9167 124.612 30.3426 126.035 27.7226 128.639C25.1027 131.243 23.6633 134.817 23.7603 138.504L29.5016 367.199Z" fill="url(#paint4_linear_1964_11606)"/>
<path d="M434.412 265.135C434.396 265.135 434.396 265.135 434.412 265.135C433.814 265.119 433.345 264.649 433.361 264.067L433.62 246.649C433.636 246.067 434.105 245.614 434.671 245.614H434.687C435.269 245.63 435.738 246.099 435.722 246.682L435.464 264.1C435.447 264.682 434.978 265.135 434.412 265.135Z" fill="white"/>
<path d="M435.043 222.456C435.027 222.456 435.027 222.456 435.043 222.456C434.445 222.439 433.976 221.97 433.992 221.388L434.978 154.66C434.962 150.698 433.749 147.528 431.404 145.28C427.005 141.075 420.035 141.286 419.728 141.302L296.445 138.003C295.862 137.986 295.41 137.501 295.41 136.919C295.426 136.337 295.879 135.835 296.493 135.9L419.711 139.199C420.472 139.151 427.911 139.021 432.86 143.76C435.641 146.429 437.065 150.1 437.081 154.676L436.094 221.42C436.078 221.987 435.609 222.456 435.043 222.456Z" fill="white"/>
<path d="M1.28036 401.76H464.704C465.205 401.76 465.625 401.356 465.625 400.838V381.868C465.625 381.367 465.221 380.946 464.704 380.946H1.28036C0.779008 380.946 0.358521 381.35 0.358521 381.868V400.838C0.374693 401.34 0.779008 401.76 1.28036 401.76Z" fill="url(#paint5_linear_1964_11606)"/>
<path d="M404.914 262.644C404.914 270.488 398.559 276.827 390.731 276.827H343.54C335.696 276.827 329.356 270.472 329.356 262.644V262.466C329.356 254.623 335.712 248.283 343.54 248.283H390.731C398.575 248.283 404.914 254.639 404.914 262.466V262.644Z" fill="url(#paint6_linear_1964_11606)"/>
<path d="M345.917 254.526C346.871 254.331 348.585 254.186 350.267 254.186C352.483 254.186 353.842 254.461 354.957 255.237C355.976 255.852 356.656 256.919 356.656 258.294C356.656 259.798 355.701 261.189 353.939 261.836V261.884C355.669 262.321 357.238 263.679 357.238 265.943C357.238 267.399 356.607 268.547 355.653 269.323C354.488 270.342 352.564 270.86 349.588 270.86C347.939 270.86 346.677 270.73 345.917 270.633V254.526ZM348.877 260.995H350.413C352.483 260.995 353.647 260.024 353.647 258.633C353.647 257.097 352.483 256.402 350.591 256.402C349.718 256.402 349.2 256.45 348.893 256.531V260.995H348.877ZM348.877 268.515C349.265 268.563 349.782 268.58 350.461 268.58C352.386 268.58 354.084 267.852 354.084 265.83C354.084 263.938 352.434 263.162 350.364 263.162H348.877V268.515Z" fill="white"/>
<path d="M362.865 254.315V263.857C362.865 267.059 364.208 268.547 366.213 268.547C368.38 268.547 369.658 267.059 369.658 263.857V254.315H372.65V263.663C372.65 268.709 370.046 270.941 366.116 270.941C362.332 270.941 359.874 268.822 359.874 263.679V254.299H362.865V254.315Z" fill="white"/>
<path d="M379.783 270.682V263.857L374.607 254.315H378.004L379.977 258.52C380.543 259.733 380.947 260.655 381.384 261.771H381.432C381.853 260.72 382.306 259.701 382.872 258.52L384.845 254.315H388.225L382.791 263.792V270.682H379.783Z" fill="white"/>
<g opacity="0.8">
<path opacity="0.8" d="M405.253 167.986C404.768 167.404 404.024 167.162 403.232 167.178L330.828 168.698L329 162.892C328.741 162.083 327.981 161.566 327.124 161.582L317.178 161.841C316.111 161.873 315.254 162.617 315.254 163.668C315.254 164.736 316.111 165.431 317.178 165.399L325.669 165.205L341.032 214.321C341.291 215.145 342.068 215.711 342.941 215.728L393.755 216.407C394.952 216.423 395.922 215.679 395.922 214.547C395.922 213.415 394.952 212.655 393.755 212.639L344.413 212.105L340.45 199.345L394.66 199.426C395.776 199.426 396.747 198.698 397.054 197.695L405.609 170.024C405.884 169.313 405.739 168.569 405.253 167.986Z" fill="white"/>
<path opacity="0.8" d="M350.396 218.752C346.208 218.687 342.828 221.938 342.828 226.013C342.828 230.073 346.208 233.469 350.396 233.582C354.601 233.695 358.046 230.445 358.046 226.337C358.046 222.229 354.601 218.817 350.396 218.752ZM350.396 229.636C348.439 229.588 346.855 228.003 346.855 226.11C346.855 224.202 348.439 222.682 350.396 222.73C352.353 222.763 353.954 224.348 353.954 226.256C353.954 228.164 352.353 229.668 350.396 229.636Z" fill="white"/>
<path opacity="0.8" d="M384.278 219.286C379.895 219.221 376.338 222.552 376.338 226.709C376.338 230.865 379.895 234.358 384.278 234.472C388.693 234.585 392.3 231.253 392.3 227.048C392.3 222.844 388.693 219.35 384.278 219.286ZM384.278 230.428C382.224 230.38 380.559 228.763 380.559 226.806C380.559 224.849 382.224 223.296 384.278 223.345C386.332 223.377 388.014 225.011 388.014 226.968C388.014 228.924 386.332 230.477 384.278 230.428Z" fill="white"/>
</g>
<path d="M164.202 50.2669C217.668 17.2427 263.291 17.5338 315.803 42.7467C319.199 44.3801 321.35 47.8249 321.317 51.5931L321.285 53.7763C321.204 60.4556 314.557 65.0486 308.282 62.7521C262.886 46.1429 228.859 37.3613 173.841 67.0378C167.792 70.3046 160.353 66.3585 159.641 59.5014C159.269 55.8141 161.032 52.2238 164.202 50.2669Z" fill="url(#paint7_linear_1964_11606)"/>
<path d="M173.631 24.7304L145.038 68.5256C144.164 69.8517 145.038 71.6469 146.623 71.7762L196.757 76.0781C198.617 76.2398 199.96 74.3315 199.183 72.6172C187.216 57.221 180.197 41.3072 177.286 24.9892C176.606 23.5013 174.536 23.3558 173.631 24.7304Z" fill="url(#paint8_linear_1964_11606)"/>
<path d="M123.707 432.536C123.707 432.536 122.672 438.391 122.17 444.181C121.976 446.445 123.723 448.402 125.987 448.499C133.701 448.822 150.197 449.437 156.116 449.178C157.006 449.146 157.588 448.224 157.265 447.399C156.99 446.704 156.456 446.138 155.777 445.83L128.526 433.313L123.707 432.536Z" fill="url(#paint9_linear_1964_11606)"/>
<path d="M122.865 429.092L123.69 436.094C123.69 436.094 128.461 438.31 131.728 435.819L129.755 428.024L122.865 429.092Z" fill="url(#paint10_linear_1964_11606)"/>
<path d="M123.48 297.544C123.124 299.372 121.555 388.725 131.113 428.768C131.275 429.415 130.935 430.094 130.321 430.353C128.849 430.952 125.987 431.825 122.542 431.938C121.474 431.97 120.52 431.275 120.213 430.256C117.48 420.973 104.396 374.412 102.698 329.954C100.79 280.272 102.698 328.256 102.698 328.256L103.814 297.544H123.48Z" fill="url(#paint11_linear_1964_11606)"/>
<path d="M92.3638 435.593C92.3638 435.593 90.7142 438.553 89.1293 446.396C88.8382 447.819 89.8247 449.162 91.264 449.307C93.8031 449.55 97.733 449.873 100.87 449.857C102.326 449.841 103.442 448.579 103.28 447.156C102.924 444.294 101.841 439.588 98.5093 435.933L92.3638 435.593Z" fill="url(#paint12_linear_1964_11606)"/>
<path d="M90.9246 426.585L92.8653 437.162C92.8653 437.162 94.7898 438.585 98.5742 437.55L97.6523 426.164L90.9246 426.585Z" fill="url(#paint13_linear_1964_11606)"/>
<path d="M85.6851 300.294C77.8738 347.437 87.3833 416.817 90.5854 430.402C90.7795 431.226 91.4587 431.873 92.2997 432.003C93.7229 432.245 96.0841 432.439 98.4129 431.76C99.2053 431.534 99.7714 430.806 99.8037 429.965C100.24 418.984 99.4641 351.593 106.742 324.957C107.114 323.615 107.938 322.434 109.071 321.625L123.205 311.582L124.289 295.345L85.6851 300.294Z" fill="url(#paint14_linear_1964_11606)"/>
<path d="M131.728 212.639C131.728 212.639 95.8414 203.695 70.7417 216.989L85.6851 300.294C85.6851 300.294 109.459 302.202 124.289 297.496L131.728 212.639Z" fill="url(#paint15_linear_1964_11606)"/>
<path d="M91.4749 187.685L88.7255 211.329C88.5476 211.669 88.6285 212.073 88.9358 212.299C90.7794 213.706 97.5234 218.024 107.081 213.803C108.084 213.367 108.844 212.526 109.135 211.474L105.254 190.984L91.4749 187.685Z" fill="url(#paint16_linear_1964_11606)"/>
<path d="M113.502 175.361C113.502 175.361 116.995 192.439 114.229 198.116C111.464 203.792 101.874 200.493 94.8061 193.151L93.577 175.458L113.502 175.361Z" fill="url(#paint17_linear_1964_11606)"/>
<path d="M97.4907 185.421C97.8788 185.372 98.1376 184.984 98.0244 184.612C97.6847 183.464 97.0702 181.167 97.1996 179.34C97.1996 179.34 96.0513 178.014 101.404 178.305C106.758 178.58 114.763 178.919 117.577 175.119C120.326 171.415 119.388 159.803 110.526 166.224C110.186 166.466 109.717 166.337 109.555 165.949C108.908 164.267 106.984 160.628 102.65 161.21C98.5904 161.76 97.4098 164.267 97.0702 165.609C96.9732 165.997 96.5365 166.208 96.1645 166.014C94.4502 165.14 90.1807 163.555 86.8492 167.421C84.0998 170.607 84.5688 173 85.2643 174.31C85.4907 174.73 85.1834 175.232 84.7144 175.248C83.4206 175.264 81.5769 175.814 80.9139 178.66C79.992 182.59 84.4071 183.512 85.6847 183.706C85.895 183.739 86.0729 183.868 86.1699 184.062C86.8815 185.534 90.1645 191.89 95.1295 193.992C95.5661 194.17 96.0351 193.83 96.019 193.377L95.6955 186.262C95.6793 185.938 95.9219 185.647 96.2454 185.598L97.4907 185.421Z" fill="url(#paint18_linear_1964_11606)"/>
<path d="M98.1212 186.601C98.1212 186.601 93.6575 181.119 92.299 184.224C90.9405 187.329 95.954 190.385 98.9945 189.965L98.1212 186.601Z" fill="url(#paint19_linear_1964_11606)"/>
<path d="M150.456 229.005C150.456 229.005 163.992 235.297 179.825 218.493C190.644 207.011 197.259 214.046 199.361 218.687C201.448 223.329 196.45 222.941 194.704 222.941C192.957 222.941 192.747 217.895 189.658 218.59C186.585 219.27 187.491 218.364 187.297 221.453C187.103 224.542 170.558 259.426 150.1 242.429L150.456 229.005Z" fill="url(#paint20_linear_1964_11606)"/>
<path d="M212.316 231.27L176.542 229.022C173.275 228.811 170.413 231.173 170.008 234.423L162.003 296.639C161.518 300.342 164.413 303.625 168.148 303.625H214.822C218.364 303.625 221.194 300.666 221.016 297.124L218.122 237.173C217.976 234.003 215.469 231.48 212.316 231.27Z" fill="url(#paint21_linear_1964_11606)"/>
<path d="M207.043 237.593C207.658 237.593 208.175 237.108 208.208 236.477C208.24 235.684 208.871 216.892 195.642 214.822C192.812 214.385 190.305 215.048 188.186 216.795C181.75 222.116 181.2 235.814 181.183 236.396C181.167 237.043 181.669 237.577 182.299 237.593C182.93 237.609 183.48 237.108 183.496 236.477C183.496 236.348 184.03 223.248 189.658 218.59C191.275 217.264 193.103 216.779 195.286 217.119C206.493 218.865 205.895 236.218 205.895 236.396C205.863 237.043 206.364 237.577 207.011 237.609C207.011 237.593 207.027 237.593 207.043 237.593Z" fill="url(#paint22_linear_1964_11606)"/>
<path d="M131.728 212.639L153.561 229.005C153.561 229.005 153.949 241.264 151.054 247.07L126.731 241.086L131.728 212.639Z" fill="url(#paint23_linear_1964_11606)"/>
<path d="M64.1757 262.709C64.1757 262.709 66.6178 293.987 87.2216 295.345C87.2216 295.345 96.0518 294.536 99.8847 297.544C103.718 300.553 101.858 305.194 101.858 305.194L85.2486 303.172C85.2486 303.172 61.4911 307.135 47.1946 267.35L64.1757 262.709Z" fill="url(#paint24_linear_1964_11606)"/>
<path d="M70.7414 216.989C70.7414 216.989 42.5528 233.76 47.1943 267.35C47.1943 267.35 57.2697 271.717 64.5797 265.863C64.5797 265.863 70.2886 244.03 82.6768 242.946L70.7414 216.989Z" fill="url(#paint25_linear_1964_11606)"/>
<path d="M205.475 173.55C227.313 173.55 245.016 155.846 245.016 134.008C245.016 112.17 227.313 94.4663 205.475 94.4663C183.636 94.4663 165.933 112.17 165.933 134.008C165.933 155.846 183.636 173.55 205.475 173.55Z" fill="url(#paint26_linear_1964_11606)"/>
<path d="M205.475 172.24C226.589 172.24 243.706 155.123 243.706 134.008C243.706 112.893 226.589 95.7762 205.475 95.7762C184.36 95.7762 167.243 112.893 167.243 134.008C167.243 155.123 184.36 172.24 205.475 172.24Z" fill="url(#paint27_linear_1964_11606)"/>
<path d="M173.938 118.984C173.809 118.984 173.68 118.952 173.55 118.887C173.13 118.677 172.968 118.159 173.178 117.739C179.372 105.48 191.744 97.8625 205.475 97.8625C207.658 97.8625 209.857 98.0566 211.992 98.4448C212.461 98.5256 212.768 98.9784 212.671 99.4313C212.59 99.9003 212.138 100.191 211.685 100.111C209.647 99.7386 207.561 99.5445 205.475 99.5445C192.391 99.5445 180.601 106.806 174.715 118.483C174.553 118.806 174.262 118.984 173.938 118.984Z" fill="white"/>
<path opacity="0.78" d="M206.3 167.21C224.172 167.21 238.661 152.722 238.661 134.849C238.661 116.977 224.172 102.488 206.3 102.488C188.427 102.488 173.938 116.977 173.938 134.849C173.938 152.722 188.427 167.21 206.3 167.21Z" fill="white"/>
<path d="M203.13 158.898V155.372C199.459 155.226 195.836 154.353 193.249 153.237C192.327 152.833 191.858 151.798 192.117 150.827L193.006 147.544C193.33 146.348 194.64 145.717 195.788 146.202C198.343 147.27 201.497 148.127 204.909 148.127C208.451 148.127 211.087 146.93 211.087 144.472C211.087 142.256 209.049 140.93 204.133 139.62C197.13 137.695 192.084 134.639 192.084 128.477C192.084 122.898 196.16 118.644 203.227 117.512V113.987C203.227 112.854 204.149 111.933 205.281 111.933H207.351C208.483 111.933 209.405 112.854 209.405 113.987V117.14C212.801 117.27 215.276 117.852 217.233 118.547C218.235 118.903 218.785 119.987 218.51 121.005L217.685 124.046C217.362 125.21 216.117 125.857 214.985 125.42C213.173 124.741 210.618 124.03 207.303 124.03C203.114 124.03 201.917 125.76 201.917 127.329C201.917 129.253 204.44 130.563 209.89 132.245C217.685 134.574 220.92 137.825 220.92 143.631C220.92 148.968 216.958 153.755 209.292 154.951V158.898C209.292 160.03 208.37 160.951 207.238 160.951H205.184C204.052 160.951 203.13 160.03 203.13 158.898Z" fill="url(#paint28_linear_1964_11606)"/>
<path d="M272.962 199.798C286.592 199.798 297.642 188.749 297.642 175.119C297.642 161.489 286.592 150.439 272.962 150.439C259.332 150.439 248.283 161.489 248.283 175.119C248.283 188.749 259.332 199.798 272.962 199.798Z" fill="url(#paint29_linear_1964_11606)"/>
<path d="M272.962 198.973C286.136 198.973 296.816 188.293 296.816 175.119C296.816 161.944 286.136 151.264 272.962 151.264C259.787 151.264 249.107 161.944 249.107 175.119C249.107 188.293 259.787 198.973 272.962 198.973Z" fill="url(#paint30_linear_1964_11606)"/>
<path d="M253.297 166.127C253.151 166.127 253.022 166.094 252.877 166.03C252.424 165.803 252.23 165.237 252.472 164.784C256.402 157.005 264.262 152.17 272.963 152.17C274.353 152.17 275.744 152.299 277.103 152.542C277.604 152.639 277.944 153.108 277.847 153.625C277.75 154.127 277.281 154.466 276.763 154.369C275.518 154.143 274.24 154.03 272.963 154.03C264.957 154.03 257.728 158.477 254.122 165.625C253.96 165.949 253.637 166.127 253.297 166.127Z" fill="white"/>
<path opacity="0.78" d="M273.48 195.819C284.627 195.819 293.663 186.783 293.663 175.636C293.663 164.489 284.627 155.453 273.48 155.453C262.333 155.453 253.297 164.489 253.297 175.636C253.297 186.783 262.333 195.819 273.48 195.819Z" fill="white"/>
<path d="M271.507 190.644V188.445C269.211 188.348 266.946 187.814 265.345 187.102C264.763 186.844 264.472 186.213 264.65 185.598L265.216 183.544C265.426 182.801 266.235 182.412 266.946 182.704C268.548 183.367 270.504 183.9 272.639 183.9C274.839 183.9 276.488 183.156 276.488 181.62C276.488 180.229 275.211 179.42 272.154 178.596C267.787 177.399 264.634 175.491 264.634 171.642C264.634 168.164 267.173 165.512 271.588 164.801V162.601C271.588 161.89 272.154 161.323 272.866 161.323H274.159C274.871 161.323 275.437 161.89 275.437 162.601V164.574C277.555 164.655 279.092 165.027 280.321 165.447C280.952 165.674 281.291 166.337 281.113 166.984L280.596 168.876C280.402 169.604 279.626 170.008 278.914 169.733C277.782 169.313 276.197 168.86 274.127 168.86C271.507 168.86 270.763 169.943 270.763 170.914C270.763 172.111 272.332 172.935 275.728 173.987C280.58 175.442 282.601 177.464 282.601 181.086C282.601 184.418 280.127 187.41 275.356 188.154V190.612C275.356 191.323 274.79 191.889 274.078 191.889H272.785C272.073 191.922 271.507 191.356 271.507 190.644Z" fill="url(#paint31_linear_1964_11606)"/>
<path d="M224.688 224.299C236.237 224.299 245.599 214.937 245.599 203.388C245.599 191.839 236.237 182.477 224.688 182.477C213.139 182.477 203.777 191.839 203.777 203.388C203.777 214.937 213.139 224.299 224.688 224.299Z" fill="url(#paint32_linear_1964_11606)"/>
<path d="M224.688 223.604C235.853 223.604 244.904 214.553 244.904 203.388C244.904 192.223 235.853 183.172 224.688 183.172C213.523 183.172 204.472 192.223 204.472 203.388C204.472 214.553 213.523 223.604 224.688 223.604Z" fill="url(#paint33_linear_1964_11606)"/>
<path d="M207.998 195.771C207.885 195.771 207.755 195.739 207.642 195.69C207.254 195.496 207.092 195.027 207.302 194.639C210.634 188.04 217.297 183.933 224.672 183.933C225.852 183.933 227.033 184.046 228.181 184.24C228.601 184.321 228.893 184.725 228.812 185.146C228.731 185.566 228.327 185.857 227.906 185.776C226.855 185.582 225.771 185.485 224.672 185.485C217.879 185.485 211.766 189.253 208.693 195.318C208.564 195.609 208.289 195.771 207.998 195.771Z" fill="white"/>
<path opacity="0.78" d="M225.124 220.935C234.574 220.935 242.235 213.275 242.235 203.825C242.235 194.375 234.574 186.714 225.124 186.714C215.674 186.714 208.014 194.375 208.014 203.825C208.014 213.275 215.674 220.935 225.124 220.935Z" fill="white"/>
<path d="M223.443 216.552V214.693C221.502 214.612 219.578 214.159 218.219 213.561C217.734 213.35 217.491 212.8 217.621 212.283L218.09 210.552C218.268 209.922 218.963 209.582 219.561 209.841C220.92 210.407 222.586 210.86 224.381 210.86C226.257 210.86 227.648 210.229 227.648 208.919C227.648 207.755 226.564 207.043 223.976 206.348C220.273 205.329 217.604 203.712 217.604 200.461C217.604 197.517 219.755 195.269 223.491 194.655V192.795C223.491 192.197 223.976 191.712 224.575 191.712H225.675C226.273 191.712 226.758 192.197 226.758 192.795V194.461C228.553 194.526 229.863 194.833 230.898 195.205C231.432 195.399 231.723 195.965 231.577 196.515L231.141 198.116C230.979 198.73 230.316 199.07 229.718 198.844C228.763 198.488 227.405 198.1 225.658 198.1C223.443 198.1 222.812 199.021 222.812 199.846C222.812 200.865 224.138 201.561 227.033 202.45C231.157 203.679 232.871 205.393 232.871 208.466C232.871 211.28 230.785 213.819 226.726 214.45V216.536C226.726 217.135 226.241 217.62 225.642 217.62H224.542C223.928 217.636 223.443 217.151 223.443 216.552Z" fill="url(#paint34_linear_1964_11606)"/>
<path d="M282.601 133.733C300.483 133.733 314.979 119.237 314.979 101.356C314.979 83.4742 300.483 68.9784 282.601 68.9784C264.72 68.9784 250.224 83.4742 250.224 101.356C250.224 119.237 264.72 133.733 282.601 133.733Z" fill="url(#paint35_linear_1964_11606)"/>
<path d="M282.601 132.666C299.893 132.666 313.911 118.648 313.911 101.356C313.911 84.0637 299.893 70.0458 282.601 70.0458C265.309 70.0458 251.291 84.0637 251.291 101.356C251.291 118.648 265.309 132.666 282.601 132.666Z" fill="url(#paint36_linear_1964_11606)"/>
<path d="M256.79 89.2749C256.644 89.2749 256.515 89.2426 256.37 89.1779C255.917 88.9515 255.723 88.3854 255.965 87.9326C261.076 77.8086 271.281 71.5337 282.601 71.5337C284.413 71.5337 286.224 71.6954 287.987 72.0189C288.488 72.1159 288.828 72.6011 288.731 73.1024C288.634 73.6038 288.165 73.9434 287.647 73.8464C285.998 73.5391 284.299 73.3935 282.601 73.3935C271.976 73.3935 262.402 79.2965 257.615 88.7736C257.453 89.097 257.13 89.2749 256.79 89.2749Z" fill="white"/>
<path opacity="0.78" d="M283.28 128.526C297.91 128.526 309.771 116.665 309.771 102.035C309.771 87.4047 297.91 75.5444 283.28 75.5444C268.65 75.5444 256.79 87.4047 256.79 102.035C256.79 116.665 268.65 128.526 283.28 128.526Z" fill="white"/>
<path d="M280.677 121.733V118.854C277.669 118.741 274.693 118.03 272.59 117.108C271.83 116.784 271.458 115.927 271.669 115.135L272.396 112.45C272.671 111.464 273.739 110.962 274.677 111.35C276.763 112.224 279.35 112.919 282.148 112.919C285.043 112.919 287.194 111.933 287.194 109.927C287.194 108.116 285.528 107.032 281.501 105.949C275.76 104.38 271.636 101.873 271.636 96.8275C271.636 92.2668 274.968 88.7736 280.757 87.8518V84.9731C280.757 84.0512 281.501 83.2911 282.439 83.2911H284.137C285.059 83.2911 285.819 84.0351 285.819 84.9731V87.5607C288.601 87.6739 290.623 88.1429 292.224 88.7089C293.048 89 293.501 89.8895 293.275 90.7305L292.596 93.221C292.337 94.1752 291.318 94.7089 290.38 94.3531C288.908 93.7871 286.806 93.2048 284.089 93.2048C280.66 93.2048 279.674 94.628 279.674 95.9057C279.674 97.4744 281.728 98.558 286.191 99.9326C292.563 101.841 295.216 104.493 295.216 109.248C295.216 113.615 291.981 117.544 285.706 118.515V121.733C285.706 122.655 284.962 123.415 284.024 123.415H282.326C281.437 123.415 280.677 122.655 280.677 121.733Z" fill="url(#paint37_linear_1964_11606)"/>
<path d="M325.652 311.534C278.978 353.614 234.035 361.507 177.852 346.127C174.213 345.124 171.48 342.132 170.849 338.412L170.477 336.261C169.361 329.679 175.07 323.97 181.652 325.102C229.296 333.302 264.326 335.841 313.151 296.784C318.52 292.482 326.541 295.038 328.466 301.652C329.501 305.194 328.401 309.043 325.652 311.534Z" fill="url(#paint38_linear_1964_11606)"/>
<path d="M320.946 338.348L341.21 290.137C341.824 288.666 340.66 287.081 339.075 287.226L288.989 291.981C287.129 292.159 286.143 294.278 287.226 295.814C301.765 308.817 311.517 323.21 317.307 338.736C318.245 340.094 320.299 339.868 320.946 338.348Z" fill="url(#paint39_linear_1964_11606)"/>
<defs>
<linearGradient id="paint0_linear_1964_11606" x1="453.158" y1="0.59059" x2="0.341168" y2="451.943" gradientUnits="userSpaceOnUse">
<stop stop-color="#2E28D4"/>
<stop offset="1" stop-color="#011F70"/>
</linearGradient>
<linearGradient id="paint1_linear_1964_11606" x1="1.12354" y1="34.3364" x2="137.783" y2="72.5665" gradientUnits="userSpaceOnUse">
<stop stop-color="#3C8CE7"/>
<stop offset="1" stop-color="#00EAFF"/>
</linearGradient>
<linearGradient id="paint2_linear_1964_11606" x1="36.0422" y1="59.8989" x2="141.578" y2="91.9361" gradientUnits="userSpaceOnUse">
<stop stop-color="#3C8CE7"/>
<stop offset="1" stop-color="#00EAFF"/>
</linearGradient>
<linearGradient id="paint3_linear_1964_11606" x1="273.113" y1="363.918" x2="175.854" y2="72.1409" gradientUnits="userSpaceOnUse">
<stop stop-color="#2B3582"/>
<stop offset="1" stop-color="#150E42"/>
</linearGradient>
<linearGradient id="paint4_linear_1964_11606" x1="18.4175" y1="404.738" x2="721.807" y2="-103.121" gradientUnits="userSpaceOnUse">
<stop stop-color="#53D8FF"/>
<stop offset="1" stop-color="#3840F7"/>
</linearGradient>
<linearGradient id="paint5_linear_1964_11606" x1="227.704" y1="442.837" x2="248.918" y2="236.633" gradientUnits="userSpaceOnUse">
<stop stop-color="#2B3582"/>
<stop offset="1" stop-color="#150E42"/>
</linearGradient>
<linearGradient id="paint6_linear_1964_11606" x1="372.771" y1="166.62" x2="367.063" y2="263.649" gradientUnits="userSpaceOnUse">
<stop stop-color="#A737D5"/>
<stop offset="1" stop-color="#EF497A"/>
</linearGradient>
<linearGradient id="paint7_linear_1964_11606" x1="372.181" y1="-19.056" x2="155.255" y2="104.542" gradientUnits="userSpaceOnUse">
<stop stop-color="#A737D5"/>
<stop offset="1" stop-color="#EF497A"/>
</linearGradient>
<linearGradient id="paint8_linear_1964_11606" x1="356.285" y1="-46.9572" x2="139.358" y2="76.6407" gradientUnits="userSpaceOnUse">
<stop stop-color="#A737D5"/>
<stop offset="1" stop-color="#EF497A"/>
</linearGradient>
<linearGradient id="paint9_linear_1964_11606" x1="155.247" y1="424.45" x2="55.4683" y2="532.981" gradientUnits="userSpaceOnUse">
<stop stop-color="#2B3582"/>
<stop offset="1" stop-color="#150E42"/>
</linearGradient>
<linearGradient id="paint10_linear_1964_11606" x1="122.86" y1="432.511" x2="131.723" y2="432.511" gradientUnits="userSpaceOnUse">
<stop stop-color="#F9B776"/>
<stop offset="1" stop-color="#F47960"/>
</linearGradient>
<linearGradient id="paint11_linear_1964_11606" x1="17.1283" y1="432.6" x2="165.159" y2="330.941" gradientUnits="userSpaceOnUse">
<stop stop-color="#CB236D"/>
<stop offset="1" stop-color="#4C246D"/>
</linearGradient>
<linearGradient id="paint12_linear_1964_11606" x1="132.863" y1="403.872" x2="33.0857" y2="512.402" gradientUnits="userSpaceOnUse">
<stop stop-color="#2B3582"/>
<stop offset="1" stop-color="#150E42"/>
</linearGradient>
<linearGradient id="paint13_linear_1964_11606" x1="90.9188" y1="432.056" x2="98.571" y2="432.056" gradientUnits="userSpaceOnUse">
<stop stop-color="#F9B776"/>
<stop offset="1" stop-color="#F47960"/>
</linearGradient>
<linearGradient id="paint14_linear_1964_11606" x1="10.0949" y1="422.359" x2="158.126" y2="320.7" gradientUnits="userSpaceOnUse">
<stop stop-color="#CB236D"/>
<stop offset="1" stop-color="#4C246D"/>
</linearGradient>
<linearGradient id="paint15_linear_1964_11606" x1="124.663" y1="215.576" x2="-22.6683" y2="441.606" gradientUnits="userSpaceOnUse">
<stop stop-color="#FDF53F"/>
<stop offset="1" stop-color="#D93C65"/>
</linearGradient>
<linearGradient id="paint16_linear_1964_11606" x1="89.4783" y1="200.87" x2="110.262" y2="204.015" gradientUnits="userSpaceOnUse">
<stop stop-color="#F9B776"/>
<stop offset="1" stop-color="#F47960"/>
</linearGradient>
<linearGradient id="paint17_linear_1964_11606" x1="112.651" y1="193.616" x2="93.0495" y2="172.005" gradientUnits="userSpaceOnUse">
<stop stop-color="#F9B776"/>
<stop offset="1" stop-color="#F47960"/>
</linearGradient>
<linearGradient id="paint18_linear_1964_11606" x1="84.926" y1="152.918" x2="108.614" y2="186.39" gradientUnits="userSpaceOnUse">
<stop stop-color="#2B3582"/>
<stop offset="1" stop-color="#150E42"/>
</linearGradient>
<linearGradient id="paint19_linear_1964_11606" x1="104.775" y1="197.202" x2="87.138" y2="177.758" gradientUnits="userSpaceOnUse">
<stop stop-color="#F9B776"/>
<stop offset="1" stop-color="#F47960"/>
</linearGradient>
<linearGradient id="paint20_linear_1964_11606" x1="175.25" y1="243.208" x2="174.274" y2="202.594" gradientUnits="userSpaceOnUse">
<stop stop-color="#F9B776"/>
<stop offset="1" stop-color="#F47960"/>
</linearGradient>
<linearGradient id="paint21_linear_1964_11606" x1="211.553" y1="215.922" x2="173.377" y2="335.678" gradientUnits="userSpaceOnUse">
<stop stop-color="#9CFFFB"/>
<stop offset="1" stop-color="#9BFFFA"/>
</linearGradient>
<linearGradient id="paint22_linear_1964_11606" x1="199.129" y1="198.234" x2="191.406" y2="263.875" gradientUnits="userSpaceOnUse">
<stop stop-color="#9CFFFB"/>
<stop offset="1" stop-color="#9BFFFA"/>
</linearGradient>
<linearGradient id="paint23_linear_1964_11606" x1="142.932" y1="227.484" x2="-4.39891" y2="453.514" gradientUnits="userSpaceOnUse">
<stop stop-color="#FDF53F"/>
<stop offset="1" stop-color="#D93C65"/>
</linearGradient>
<linearGradient id="paint24_linear_1964_11606" x1="75.1337" y1="301.333" x2="73.8916" y2="249.659" gradientUnits="userSpaceOnUse">
<stop stop-color="#F9B776"/>
<stop offset="1" stop-color="#F47960"/>
</linearGradient>
<linearGradient id="paint25_linear_1964_11606" x1="95.6525" y1="196.666" x2="-51.679" y2="422.697" gradientUnits="userSpaceOnUse">
<stop stop-color="#FDF53F"/>
<stop offset="1" stop-color="#D93C65"/>
</linearGradient>
<linearGradient id="paint26_linear_1964_11606" x1="151.352" y1="196.831" x2="204.4" y2="135.257" gradientUnits="userSpaceOnUse">
<stop stop-color="#FDF53F"/>
<stop offset="1" stop-color="#D93C65"/>
</linearGradient>
<linearGradient id="paint27_linear_1964_11606" x1="234.376" y1="90.3473" x2="77.5103" y2="327.326" gradientUnits="userSpaceOnUse">
<stop stop-color="#FDF53F"/>
<stop offset="1" stop-color="#D93C65"/>
</linearGradient>
<linearGradient id="paint28_linear_1964_11606" x1="229.697" y1="97.1375" x2="146.169" y2="237.366" gradientUnits="userSpaceOnUse">
<stop stop-color="#FDF53F"/>
<stop offset="1" stop-color="#D93C65"/>
</linearGradient>
<linearGradient id="paint29_linear_1964_11606" x1="239.197" y1="214.302" x2="272.292" y2="175.889" gradientUnits="userSpaceOnUse">
<stop stop-color="#FDF53F"/>
<stop offset="1" stop-color="#D93C65"/>
</linearGradient>
<linearGradient id="paint30_linear_1964_11606" x1="290.992" y1="147.871" x2="193.129" y2="295.714" gradientUnits="userSpaceOnUse">
<stop stop-color="#FDF53F"/>
<stop offset="1" stop-color="#D93C65"/>
</linearGradient>
<linearGradient id="paint31_linear_1964_11606" x1="288.073" y1="152.107" x2="235.963" y2="239.59" gradientUnits="userSpaceOnUse">
<stop stop-color="#FDF53F"/>
<stop offset="1" stop-color="#D93C65"/>
</linearGradient>
<linearGradient id="paint32_linear_1964_11606" x1="196.056" y1="236.61" x2="224.113" y2="204.043" gradientUnits="userSpaceOnUse">
<stop stop-color="#FDF53F"/>
<stop offset="1" stop-color="#D93C65"/>
</linearGradient>
<linearGradient id="paint33_linear_1964_11606" x1="239.968" y1="180.291" x2="157.002" y2="305.628" gradientUnits="userSpaceOnUse">
<stop stop-color="#FDF53F"/>
<stop offset="1" stop-color="#D93C65"/>
</linearGradient>
<linearGradient id="paint34_linear_1964_11606" x1="237.493" y1="183.882" x2="193.315" y2="258.049" gradientUnits="userSpaceOnUse">
<stop stop-color="#FDF53F"/>
<stop offset="1" stop-color="#D93C65"/>
</linearGradient>
<linearGradient id="paint35_linear_1964_11606" x1="238.287" y1="152.789" x2="281.723" y2="102.372" gradientUnits="userSpaceOnUse">
<stop stop-color="#FDF53F"/>
<stop offset="1" stop-color="#D93C65"/>
</linearGradient>
<linearGradient id="paint36_linear_1964_11606" x1="306.267" y1="65.6004" x2="177.825" y2="259.639" gradientUnits="userSpaceOnUse">
<stop stop-color="#FDF53F"/>
<stop offset="1" stop-color="#D93C65"/>
</linearGradient>
<linearGradient id="paint37_linear_1964_11606" x1="302.436" y1="71.1603" x2="234.043" y2="185.979" gradientUnits="userSpaceOnUse">
<stop stop-color="#FDF53F"/>
<stop offset="1" stop-color="#D93C65"/>
</linearGradient>
<linearGradient id="paint38_linear_1964_11606" x1="191.149" y1="401.232" x2="278.054" y2="279.672" gradientUnits="userSpaceOnUse">
<stop stop-color="#A737D5"/>
<stop offset="1" stop-color="#EF497A"/>
</linearGradient>
<linearGradient id="paint39_linear_1964_11606" x1="225.429" y1="425.736" x2="312.333" y2="304.179" gradientUnits="userSpaceOnUse">
<stop stop-color="#A737D5"/>
<stop offset="1" stop-color="#EF497A"/>
</linearGradient>
</defs>
</svg>
