<svg width="20" height="20" viewBox="0 0 20 20" fill="none" xmlns="http://www.w3.org/2000/svg">
<path opacity="0.4" d="M10.0003 1.66669C5.40033 1.66669 1.66699 5.40002 1.66699 10C1.66699 14.6 5.40033 18.3334 10.0003 18.3334C14.6003 18.3334 18.3337 14.6 18.3337 10C18.3337 5.40002 14.6003 1.66669 10.0003 1.66669ZM10.0003 14.1667C7.70033 14.1667 5.83366 12.3 5.83366 10C5.83366 7.70002 7.70033 5.83335 10.0003 5.83335C12.3003 5.83335 14.167 7.70002 14.167 10C14.167 12.3 12.3003 14.1667 10.0003 14.1667Z" fill="#2E28D4"/>
<path d="M9.99967 5.83331V14.1666C7.69967 14.1666 5.83301 12.3 5.83301 9.99998C5.83301 7.69998 7.69967 5.83331 9.99967 5.83331Z" fill="#2E28D4"/>
</svg>
