<svg width="200" height="52" viewBox="0 0 200 52" fill="none" xmlns="http://www.w3.org/2000/svg">
<path d="M200 46.7875C200 49.6673 197.425 52 194.241 52H5.76678C2.58371 52 0 49.6673 0 46.7875V5.21933C0 2.34087 2.58371 0 5.76678 0H194.239C197.425 0 199.999 2.34087 199.999 5.21933L200 46.7875Z" fill="#1D3888"/>
<path d="M39.1707 26.7379C39.132 22.548 42.6894 20.5096 42.852 20.4147C40.8374 17.5508 37.7147 17.1595 36.6174 17.1283C33.9947 16.8592 31.4507 18.6584 30.1147 18.6584C28.752 18.6584 26.6947 17.1543 24.4774 17.1985C21.624 17.2414 18.9547 18.8521 17.4907 21.3533C14.4694 26.4532 16.7227 33.9477 19.6174 38.07C21.0654 40.0889 22.7574 42.3431 24.972 42.2638C27.1387 42.1767 27.948 40.917 30.5627 40.917C33.1534 40.917 33.9134 42.2638 36.172 42.2131C38.4974 42.1767 39.9614 40.1851 41.3587 38.148C43.032 35.834 43.704 33.5551 43.7307 33.4381C43.676 33.4199 39.2147 31.7598 39.1707 26.7379Z" fill="white"/>
<path d="M34.904 14.4165C36.0694 12.9956 36.8667 11.0625 36.6454 9.10083C34.9587 9.17363 32.8494 10.2383 31.6347 11.628C30.56 12.8526 29.6 14.8598 29.848 16.7474C31.7427 16.8852 33.688 15.8153 34.904 14.4165Z" fill="white"/>
<path d="M70.5266 39.974H67.4986L65.84 34.8923H60.0746L58.4946 39.974H55.5466L61.2586 22.6736H64.7866L70.5266 39.974ZM65.34 32.7603L63.84 28.2428C63.6813 27.7813 63.384 26.6945 62.9453 24.9837H62.892C62.7173 25.7195 62.436 26.8063 62.0493 28.2428L60.576 32.7603H65.34Z" fill="white"/>
<path d="M85.216 33.5833C85.216 35.7049 84.628 37.3819 83.452 38.613C82.3987 39.7089 81.0907 40.2562 79.5293 40.2562C77.844 40.2562 76.6333 39.666 75.896 38.4856H75.8427V45.0571H73V31.606C73 30.2722 72.964 28.9033 72.8947 27.4993H75.3947L75.5533 29.4766H75.6067C76.5547 27.9868 77.9933 27.2432 79.924 27.2432C81.4333 27.2432 82.6933 27.8243 83.7013 28.9878C84.712 30.1526 85.216 31.684 85.216 33.5833ZM82.32 33.6847C82.32 32.4705 82.04 31.4695 81.4773 30.6817C80.8627 29.8601 80.0373 29.4493 79.0027 29.4493C78.3013 29.4493 77.664 29.6781 77.0947 30.1292C76.524 30.5842 76.1506 31.1783 75.976 31.9141C75.888 32.2573 75.844 32.5381 75.844 32.7591V34.8391C75.844 35.7465 76.1293 36.5122 76.7 37.1375C77.2707 37.7628 78.012 38.0748 78.924 38.0748C79.9947 38.0748 80.828 37.6718 81.424 36.8684C82.0213 36.0637 82.32 35.0029 82.32 33.6847Z" fill="white"/>
<path d="M99.9321 33.5833C99.9321 35.7049 99.3441 37.3819 98.1667 38.613C97.1147 39.7089 95.8067 40.2562 94.2454 40.2562C92.5601 40.2562 91.3494 39.666 90.6134 38.4856H90.5601V45.0571H87.7174V31.606C87.7174 30.2722 87.6814 28.9033 87.6121 27.4993H90.1121L90.2707 29.4766H90.3241C91.2707 27.9868 92.7094 27.2432 94.6414 27.2432C96.1494 27.2432 97.4094 27.8243 98.4201 28.9878C99.4267 30.1526 99.9321 31.684 99.9321 33.5833ZM97.0361 33.6847C97.0361 32.4705 96.7547 31.4695 96.1921 30.6817C95.5774 29.8601 94.7547 29.4493 93.7187 29.4493C93.0161 29.4493 92.3801 29.6781 91.8094 30.1292C91.2387 30.5842 90.8667 31.1783 90.6921 31.9141C90.6054 32.2573 90.5601 32.5381 90.5601 32.7591V34.8391C90.5601 35.7465 90.8454 36.5122 91.4134 37.1375C91.9841 37.7615 92.7254 38.0748 93.6401 38.0748C94.7107 38.0748 95.5441 37.6718 96.1401 36.8684C96.7374 36.0637 97.0361 35.0029 97.0361 33.6847Z" fill="white"/>
<path d="M116.385 35.1225C116.385 36.5941 115.861 37.7914 114.809 38.7157C113.653 39.7258 112.044 40.2302 109.976 40.2302C108.067 40.2302 106.536 39.8714 105.377 39.1525L106.036 36.8424C107.284 37.5782 108.653 37.9474 110.145 37.9474C111.216 37.9474 112.049 37.7108 112.648 37.2402C113.244 36.7696 113.541 36.1378 113.541 35.35C113.541 34.648 113.296 34.0565 112.804 33.5768C112.315 33.0971 111.497 32.6512 110.356 32.2391C107.249 31.1094 105.697 29.4545 105.697 27.2783C105.697 25.8561 106.241 24.69 107.331 23.7826C108.416 22.8739 109.864 22.4202 111.675 22.4202C113.289 22.4202 114.631 22.6945 115.701 23.2418L114.991 25.5012C113.991 24.9708 112.86 24.7056 111.595 24.7056C110.595 24.7056 109.813 24.9461 109.253 25.4245C108.78 25.8522 108.543 26.3735 108.543 26.991C108.543 27.6748 108.813 28.2403 109.357 28.6849C109.831 29.0957 110.691 29.5403 111.939 30.02C113.465 30.6193 114.587 31.32 115.308 32.1234C116.027 32.9242 116.385 33.9265 116.385 35.1225Z" fill="white"/>
<path d="M125.784 29.5792H122.651V35.6359C122.651 37.1764 123.203 37.946 124.309 37.946C124.817 37.946 125.239 37.9031 125.572 37.8173L125.651 39.922C125.091 40.1261 124.353 40.2288 123.44 40.2288C122.317 40.2288 121.44 39.8947 120.807 39.2278C120.176 38.5596 119.859 37.439 119.859 35.8647V29.5766H117.992V27.4966H119.859V25.2125L122.651 24.3909V27.4966H125.784V29.5792Z" fill="white"/>
<path d="M139.921 33.6339C139.921 35.5514 139.359 37.1257 138.236 38.3568C137.059 39.6243 135.496 40.2561 133.548 40.2561C131.671 40.2561 130.176 39.649 129.061 38.4348C127.947 37.2206 127.389 35.6879 127.389 33.8406C127.389 31.9075 127.963 30.3241 129.113 29.093C130.261 27.8606 131.811 27.2444 133.759 27.2444C135.636 27.2444 137.147 27.8515 138.287 29.067C139.377 30.2461 139.921 31.7684 139.921 33.6339ZM136.972 33.7236C136.972 32.5731 136.72 31.5864 136.209 30.7635C135.613 29.7677 134.761 29.2711 133.657 29.2711C132.515 29.2711 131.647 29.769 131.051 30.7635C130.54 31.5877 130.288 32.59 130.288 33.7756C130.288 34.9261 130.54 35.9128 131.051 36.7344C131.665 37.7302 132.524 38.2268 133.632 38.2268C134.717 38.2268 135.569 37.7198 136.184 36.7084C136.708 35.8699 136.972 34.8728 136.972 33.7236Z" fill="white"/>
<path d="M149.161 29.9368C148.88 29.8861 148.58 29.8601 148.265 29.8601C147.265 29.8601 146.492 30.228 145.948 30.9651C145.475 31.6151 145.237 32.4367 145.237 33.4286V39.9741H142.396L142.423 31.4279C142.423 29.9901 142.387 28.681 142.316 27.5006H144.792L144.896 29.8874H144.975C145.275 29.0671 145.748 28.4067 146.396 27.9114C147.029 27.4655 147.713 27.2432 148.451 27.2432C148.713 27.2432 148.951 27.2614 149.161 27.2939V29.9368Z" fill="white"/>
<path d="M161.875 33.1464C161.875 33.643 161.841 34.0616 161.771 34.4035H153.243C153.276 35.6359 153.688 36.5784 154.48 37.2284C155.199 37.8095 156.128 38.1007 157.269 38.1007C158.532 38.1007 159.684 37.9044 160.72 37.5105L161.165 39.4345C159.955 39.9493 158.525 40.2054 156.876 40.2054C154.892 40.2054 153.335 39.636 152.201 38.4985C151.071 37.361 150.504 35.8335 150.504 33.9173C150.504 32.0362 151.031 30.4697 152.085 29.2204C153.189 27.8866 154.681 27.2197 156.559 27.2197C158.403 27.2197 159.799 27.8866 160.747 29.2204C161.497 30.2799 161.875 31.5903 161.875 33.1464ZM159.164 32.4275C159.183 31.6059 158.997 30.8961 158.612 30.2968C158.12 29.5259 157.364 29.1411 156.347 29.1411C155.417 29.1411 154.661 29.5168 154.084 30.2708C153.611 30.8701 153.329 31.589 153.243 32.4262H159.164V32.4275Z" fill="white"/>
<path d="M64.4 12.0306C64.4 13.5607 63.9293 14.7125 62.9893 15.486C62.1186 16.1997 60.8813 16.5572 59.2786 16.5572C58.484 16.5572 57.804 16.5234 57.2346 16.4558V8.0955C57.9773 7.9785 58.7773 7.9187 59.6413 7.9187C61.168 7.9187 62.3186 8.2424 63.0946 8.8898C63.964 9.6217 64.4 10.6682 64.4 12.0306ZM62.9266 12.0683C62.9266 11.0764 62.6573 10.3159 62.1186 9.7855C61.58 9.2564 60.7933 8.9912 59.7573 8.9912C59.3173 8.9912 58.9426 9.0198 58.632 9.0796V15.4353C58.804 15.4613 59.1186 15.473 59.576 15.473C60.6453 15.473 61.4706 15.1831 62.052 14.6033C62.6333 14.0235 62.9266 13.1785 62.9266 12.0683Z" fill="white"/>
<path d="M72.212 13.367C72.212 14.3095 71.936 15.0817 71.384 15.6875C70.8054 16.3102 70.0387 16.6209 69.0814 16.6209C68.1587 16.6209 67.424 16.3232 66.876 15.7252C66.3294 15.1285 66.056 14.3758 66.056 13.4684C66.056 12.5194 66.3374 11.7407 66.9027 11.1362C67.468 10.5317 68.228 10.2288 69.1854 10.2288C70.108 10.2288 70.8494 10.5265 71.4107 11.1232C71.944 11.703 72.212 12.4518 72.212 13.367ZM70.7627 13.4112C70.7627 12.8457 70.6374 12.3608 70.388 11.9565C70.0947 11.4677 69.6774 11.2233 69.1347 11.2233C68.5734 11.2233 68.1467 11.4677 67.8534 11.9565C67.6027 12.3608 67.4787 12.8535 67.4787 13.4359C67.4787 14.0014 67.604 14.4863 67.8534 14.8906C68.156 15.3794 68.5774 15.6238 69.1214 15.6238C69.6547 15.6238 70.0734 15.3755 70.3747 14.8776C70.6334 14.4655 70.7627 13.9767 70.7627 13.4112Z" fill="white"/>
<path d="M82.6866 10.3535L80.72 16.4817H79.44L78.6253 13.8206C78.4186 13.1563 78.2506 12.4959 78.12 11.8407H78.0946C77.9733 12.5141 77.8053 13.1732 77.5893 13.8206L76.724 16.4817H75.4293L73.58 10.3535H75.016L75.7266 13.2668C75.8986 13.9558 76.04 14.6123 76.1533 15.2337H76.1786C76.2826 14.7215 76.4546 14.0689 76.6973 13.2798L77.5893 10.3548H78.728L79.5826 13.2174C79.7893 13.9155 79.9573 14.5876 80.0866 15.235H80.1253C80.22 14.6045 80.3626 13.9324 80.552 13.2174L81.3146 10.3548H82.6866V10.3535Z" fill="white"/>
<path d="M89.9307 16.4818H88.5334V12.9718C88.5334 11.8902 88.112 11.3494 87.2667 11.3494C86.852 11.3494 86.5174 11.4976 86.2574 11.7953C86 12.093 85.8694 12.444 85.8694 12.8457V16.4805H84.472V12.1047C84.472 11.5665 84.4547 10.9828 84.4214 10.351H85.6494L85.7147 11.3091H85.7534C85.9161 11.0114 86.1587 10.7657 86.4774 10.5694C86.856 10.3406 87.28 10.2249 87.744 10.2249C88.3307 10.2249 88.8187 10.4095 89.2067 10.78C89.6894 11.2337 89.9307 11.911 89.9307 12.8106V16.4818Z" fill="white"/>
<path d="M93.784 16.4818H92.3881V7.54175H93.784V16.4818Z" fill="white"/>
<path d="M102.011 13.367C102.011 14.3095 101.735 15.0817 101.183 15.6875C100.604 16.3102 99.8361 16.6209 98.8801 16.6209C97.9561 16.6209 97.2214 16.3232 96.6747 15.7252C96.1281 15.1285 95.8547 14.3758 95.8547 13.4684C95.8547 12.5194 96.1361 11.7407 96.7014 11.1362C97.2667 10.5317 98.0267 10.2288 98.9827 10.2288C99.9067 10.2288 100.647 10.5265 101.209 11.1232C101.743 11.703 102.011 12.4518 102.011 13.367ZM100.56 13.4112C100.56 12.8457 100.435 12.3608 100.185 11.9565C99.8934 11.4677 99.4747 11.2233 98.9334 11.2233C98.3707 11.2233 97.9441 11.4677 97.6521 11.9565C97.4014 12.3608 97.2774 12.8535 97.2774 13.4359C97.2774 14.0014 97.4027 14.4863 97.6521 14.8906C97.9547 15.3794 98.3761 15.6238 98.9201 15.6238C99.4534 15.6238 99.8707 15.3755 100.172 14.8776C100.432 14.4655 100.56 13.9767 100.56 13.4112Z" fill="white"/>
<path d="M108.773 16.4818H107.519L107.415 15.7759H107.376C106.947 16.3388 106.335 16.6209 105.54 16.6209C104.947 16.6209 104.467 16.435 104.105 16.0658C103.777 15.7304 103.613 15.3131 103.613 14.8178C103.613 14.069 103.933 13.4983 104.577 13.1031C105.22 12.7079 106.124 12.5142 107.288 12.5233V12.4089C107.288 11.6016 106.853 11.1986 105.983 11.1986C105.363 11.1986 104.816 11.3507 104.344 11.6523L104.06 10.7579C104.644 10.4056 105.365 10.2288 106.216 10.2288C107.859 10.2288 108.683 11.0738 108.683 12.7638V15.0206C108.683 15.6329 108.713 16.1204 108.773 16.4818ZM107.323 14.3758V13.4307C105.781 13.4047 105.011 13.8168 105.011 14.6657C105.011 14.9855 105.099 15.2247 105.279 15.3846C105.459 15.5445 105.688 15.6238 105.961 15.6238C106.268 15.6238 106.555 15.5289 106.816 15.3404C107.079 15.1506 107.24 14.9101 107.3 14.615C107.315 14.5487 107.323 14.4681 107.323 14.3758Z" fill="white"/>
<path d="M116.713 16.4818H115.473L115.408 15.4977H115.369C114.973 16.2465 114.299 16.6209 113.351 16.6209C112.593 16.6209 111.963 16.331 111.463 15.7512C110.963 15.1714 110.713 14.4187 110.713 13.4944C110.713 12.5025 110.984 11.6991 111.528 11.0855C112.055 10.5135 112.7 10.2275 113.468 10.2275C114.312 10.2275 114.903 10.5044 115.239 11.0595H115.265V7.54175H116.664V14.8308C116.664 15.4275 116.68 15.9774 116.713 16.4818ZM115.265 13.8974V12.8756C115.265 12.6988 115.252 12.5558 115.227 12.4466C115.148 12.119 114.979 11.8434 114.721 11.6211C114.461 11.3988 114.148 11.287 113.787 11.287C113.265 11.287 112.857 11.4885 112.557 11.8928C112.26 12.2971 112.109 12.8132 112.109 13.4437C112.109 14.0495 112.252 14.5409 112.539 14.9192C112.841 15.3222 113.249 15.5237 113.76 15.5237C114.219 15.5237 114.585 15.356 114.864 15.0193C115.133 14.7086 115.265 14.3342 115.265 13.8974Z" fill="white"/>
<path d="M128.664 13.367C128.664 14.3095 128.388 15.0817 127.836 15.6875C127.257 16.3102 126.492 16.6209 125.533 16.6209C124.612 16.6209 123.877 16.3232 123.328 15.7252C122.781 15.1285 122.508 14.3758 122.508 13.4684C122.508 12.5194 122.789 11.7407 123.355 11.1362C123.92 10.5317 124.68 10.2288 125.639 10.2288C126.56 10.2288 127.303 10.5265 127.863 11.1232C128.396 11.703 128.664 12.4518 128.664 13.367ZM127.216 13.4112C127.216 12.8457 127.091 12.3608 126.841 11.9565C126.547 11.4677 126.131 11.2233 125.587 11.2233C125.027 11.2233 124.6 11.4677 124.305 11.9565C124.055 12.3608 123.931 12.8535 123.931 13.4359C123.931 14.0014 124.056 14.4863 124.305 14.8906C124.608 15.3794 125.029 15.6238 125.573 15.6238C126.107 15.6238 126.527 15.3755 126.828 14.8776C127.085 14.4655 127.216 13.9767 127.216 13.4112Z" fill="white"/>
<path d="M136.177 16.4818H134.781V12.9718C134.781 11.8902 134.36 11.3494 133.513 11.3494C133.099 11.3494 132.764 11.4976 132.505 11.7953C132.247 12.093 132.117 12.444 132.117 12.8457V16.4805H130.719V12.1047C130.719 11.5665 130.703 10.9828 130.669 10.351H131.896L131.961 11.3091H132C132.164 11.0114 132.407 10.7657 132.724 10.5694C133.104 10.3406 133.527 10.2249 133.992 10.2249C134.577 10.2249 135.065 10.4095 135.453 10.78C135.937 11.2337 136.177 11.911 136.177 12.8106V16.4818Z" fill="white"/>
<path d="M145.581 11.3741H144.043V14.3511C144.043 15.1077 144.316 15.486 144.857 15.486C145.108 15.486 145.316 15.4652 145.48 15.4223L145.516 16.4558C145.24 16.5572 144.877 16.6079 144.431 16.6079C143.879 16.6079 143.449 16.4441 143.139 16.1165C142.827 15.7889 142.672 15.2377 142.672 14.4642V11.3741H141.753V10.3536H142.672V9.23039L144.041 8.82739V10.3523H145.58V11.3741H145.581Z" fill="white"/>
<path d="M152.979 16.4818H151.58V12.9978C151.58 11.8993 151.159 11.3494 150.315 11.3494C149.667 11.3494 149.224 11.6679 148.981 12.3049C148.94 12.4388 148.916 12.6026 148.916 12.795V16.4805H147.52V7.54175H148.916V11.235H148.943C149.383 10.5629 150.013 10.2275 150.831 10.2275C151.409 10.2275 151.888 10.4121 152.268 10.7826C152.741 11.2441 152.979 11.9305 152.979 12.8379V16.4818Z" fill="white"/>
<path d="M160.609 13.1277C160.609 13.3721 160.591 13.5775 160.557 13.7452H156.367C156.385 14.351 156.585 14.8125 156.973 15.1323C157.328 15.4183 157.785 15.5613 158.345 15.5613C158.965 15.5613 159.531 15.4651 160.04 15.2714L160.259 16.2178C159.663 16.47 158.961 16.5961 158.149 16.5961C157.176 16.5961 156.409 16.3166 155.855 15.7576C155.297 15.1986 155.021 14.4485 155.021 13.5073C155.021 12.583 155.279 11.8134 155.797 11.1998C156.339 10.5446 157.071 10.217 157.995 10.217C158.899 10.217 159.585 10.5446 160.049 11.1998C160.424 11.7198 160.609 12.3633 160.609 13.1277ZM159.276 12.7754C159.287 12.3711 159.195 12.0227 159.005 11.7289C158.763 11.3506 158.393 11.1608 157.893 11.1608C157.437 11.1608 157.065 11.3454 156.781 11.7159C156.549 12.011 156.412 12.3633 156.367 12.7754H159.276Z" fill="white"/>
</svg>
