<svg width="200" height="52" viewBox="0 0 200 52" fill="none" xmlns="http://www.w3.org/2000/svg">
<path d="M192.593 52H7.40741C3.33519 52 0 49.0734 0 45.5V6.5C0 2.92663 3.33519 2.74817e-06 7.40741 2.74817e-06H192.593C196.665 2.74817e-06 200 2.92663 200 6.5V45.5C200 49.0734 196.665 52 192.593 52Z" fill="#1D3888"/>
<path d="M60.8493 41.1314H57.4415V30.8457L60.8493 32.4457V41.1314Z" fill="white"/>
<path d="M76.8587 41.1314H73.4509V30.8457H76.8587V41.1314Z" fill="white"/>
<path d="M76.5354 29.3551C76.1508 29.7393 75.6905 29.9314 75.1548 29.9314C74.619 29.9314 74.1519 29.7393 73.7535 29.3551C73.3688 28.9571 73.1765 28.4906 73.1765 27.9554C73.1765 27.4203 73.3688 26.9606 73.7535 26.5763C74.1519 26.1921 74.619 26 75.1548 26C75.6905 26 76.1508 26.1921 76.5354 26.5763C76.9339 26.9606 77.1331 27.4203 77.1331 27.9554C77.1331 28.4906 76.9339 28.9571 76.5354 29.3551Z" fill="white"/>
<path d="M60.5261 29.3563C60.1414 29.7405 59.6812 29.9326 59.1454 29.9326C58.6096 29.9326 58.1425 29.7405 57.7441 29.3563C57.3594 28.9584 57.1671 28.4918 57.1671 27.9566C57.1671 27.4215 57.3594 26.9618 57.7441 26.5776C58.1425 26.1933 58.6096 26.0012 59.1454 26.0012C59.6812 26.0012 60.1414 26.1933 60.5261 26.5776C60.9245 26.9618 61.1237 27.4215 61.1237 27.9566C61.1237 28.4918 60.9245 28.9584 60.5261 29.3563Z" fill="white"/>
<path d="M71.5756 26.7319V30.2908H66.4091V32.6359H71.4727V36.1948H66.4091V41.1319H62.7247V26.7319H71.5756Z" fill="white"/>
<path d="M85.0106 30.5486C86.1493 30.5486 87.0651 30.9363 87.7579 31.7119C88.4507 32.4874 88.7971 33.5752 88.7971 34.9752V41.1314H85.381V35.4076C85.381 34.886 85.2438 34.4845 84.9694 34.2031C84.6949 33.9216 84.3176 33.7809 83.8375 33.781C83.3025 33.781 82.8875 33.9423 82.5925 34.2648C82.2975 34.5874 82.15 35.0506 82.15 35.6545V41.1314H78.7341V30.8368H82.1502V31.8663C82.7675 30.9878 83.721 30.5486 85.0106 30.5486Z" fill="white"/>
<path d="M109.231 30.5486C110.369 30.5486 111.285 30.9363 111.978 31.7119C112.671 32.4874 113.017 33.5752 113.017 34.9752V41.1314H109.601V35.4076C109.601 34.886 109.464 34.4845 109.189 34.2031C108.915 33.9216 108.538 33.7809 108.057 33.781C107.522 33.781 107.107 33.9423 106.812 34.2648C106.517 34.5874 106.37 35.0506 106.37 35.6545V41.1314H102.954V30.8368H106.37V31.8663C106.987 30.9878 107.941 30.5486 109.231 30.5486Z" fill="white"/>
<path d="M119.755 41.4057C118.189 41.4057 116.885 40.8848 115.841 39.8429C114.797 38.8011 114.275 37.5125 114.275 35.9771C114.275 34.4418 114.797 33.1532 115.841 32.1113C116.885 31.0695 118.189 30.5486 119.755 30.5486C120.772 30.5486 121.695 30.7851 122.526 31.258C123.357 31.7309 123.999 32.3787 124.452 33.2012L121.527 34.8873C121.156 34.2156 120.559 33.8798 119.735 33.8798C119.158 33.8798 118.677 34.0751 118.292 34.4658C117.908 34.8565 117.716 35.3603 117.716 35.9771C117.716 36.594 117.908 37.0978 118.292 37.4885C118.677 37.8792 119.158 38.0745 119.735 38.0745C120.572 38.0745 121.17 37.7318 121.527 37.0464L124.452 38.7325C123.999 39.555 123.357 40.2062 122.526 40.686C121.695 41.1658 120.772 41.4057 119.755 41.4057Z" fill="white"/>
<path d="M135.675 37.0943H128.568C128.911 37.9305 129.68 38.3486 130.875 38.3486C131.603 38.3486 132.228 38.1087 132.75 37.6289L135.222 39.3561C134.219 40.631 132.743 41.2685 130.793 41.2685C129.048 41.2685 127.647 40.7613 126.59 39.7468C125.546 38.7187 125.024 37.4233 125.024 35.8605C125.024 34.3114 125.539 33.016 126.569 31.9742C127.599 30.9323 128.911 30.4114 130.504 30.4114C132.042 30.4114 133.313 30.9254 134.315 31.9536C135.318 32.968 135.819 34.2566 135.819 35.8194C135.819 36.2992 135.771 36.7241 135.675 37.0943ZM128.526 34.7295H132.482C132.221 33.7699 131.575 33.2902 130.545 33.2902C129.488 33.2902 128.815 33.7699 128.526 34.7295Z" fill="white"/>
<path d="M97.8197 31.7823V30.8364H101.239V41.1178H97.8197V40.1719C97.1194 40.9944 96.1445 41.4057 94.895 41.4057C93.5082 41.4057 92.3548 40.8916 91.4349 39.8635C90.5149 38.8216 90.0549 37.5262 90.0549 35.9771C90.0549 34.4144 90.5149 33.1258 91.4349 32.1113C92.3548 31.0695 93.5082 30.5486 94.895 30.5486C96.1445 30.5486 97.1194 30.9598 97.8197 31.7823ZM94.0918 37.6016C94.4762 38.0129 94.998 38.2185 95.6571 38.2185C96.3162 38.2185 96.8379 38.0129 97.2224 37.6016C97.6206 37.1766 97.8197 36.6351 97.8197 35.9771C97.8197 35.3191 97.6206 34.7776 97.2224 34.3527C96.8379 33.9414 96.3162 33.7358 95.6571 33.7358C94.998 33.7358 94.4762 33.9414 94.0918 34.3527C93.6936 34.7776 93.4945 35.3191 93.4945 35.9771C93.4945 36.6351 93.6936 37.1766 94.0918 37.6016Z" fill="white"/>
<path d="M64.1653 14.4889C64.1653 16.019 63.6947 17.1708 62.7547 17.9443C61.884 18.658 60.6467 19.0155 59.044 19.0155C58.2493 19.0155 57.5693 18.9817 57 18.9141V10.5538C57.7427 10.4368 58.5427 10.377 59.4067 10.377C60.9333 10.377 62.084 10.7007 62.86 11.3481C63.7293 12.08 64.1653 13.1265 64.1653 14.4889ZM62.692 14.5266C62.692 13.5347 62.4227 12.7742 61.884 12.2438C61.3453 11.7147 60.5587 11.4495 59.5227 11.4495C59.0827 11.4495 58.708 11.4781 58.3973 11.5379V17.8936C58.5693 17.9196 58.884 17.9313 59.3413 17.9313C60.4107 17.9313 61.236 17.6414 61.8173 17.0616C62.3987 16.4818 62.692 15.6368 62.692 14.5266Z" fill="white"/>
<path d="M71.9774 15.8252C71.9774 16.7677 71.7014 17.5399 71.1494 18.1457C70.5707 18.7684 69.804 19.0791 68.8467 19.0791C67.924 19.0791 67.1894 18.7814 66.6414 18.1834C66.0947 17.5867 65.8214 16.834 65.8214 15.9266C65.8214 14.9776 66.1027 14.1989 66.668 13.5944C67.2333 12.9899 67.9934 12.687 68.9507 12.687C69.8734 12.687 70.6147 12.9847 71.176 13.5814C71.7094 14.1612 71.9774 14.91 71.9774 15.8252ZM70.528 15.8694C70.528 15.3039 70.4027 14.819 70.1534 14.4147C69.86 13.9259 69.4427 13.6815 68.9 13.6815C68.3387 13.6815 67.912 13.9259 67.6187 14.4147C67.368 14.819 67.244 15.3117 67.244 15.8941C67.244 16.4596 67.3694 16.9445 67.6187 17.3488C67.9214 17.8376 68.3427 18.082 68.8867 18.082C69.42 18.082 69.8387 17.8337 70.14 17.3358C70.3987 16.9237 70.528 16.4349 70.528 15.8694Z" fill="white"/>
<path d="M82.452 12.812L80.4853 18.9402H79.2053L78.3907 16.2791C78.184 15.6148 78.016 14.9544 77.8853 14.2992H77.86C77.7387 14.9726 77.5707 15.6317 77.3547 16.2791L76.4893 18.9402H75.1947L73.3453 12.812H74.7813L75.492 15.7253C75.664 16.4143 75.8053 17.0708 75.9187 17.6922H75.944C76.048 17.18 76.22 16.5274 76.4627 15.7383L77.3547 12.8133H78.4933L79.348 15.6759C79.5547 16.374 79.7227 17.0461 79.852 17.6935H79.8907C79.9853 17.063 80.128 16.3909 80.3173 15.6759L81.08 12.8133H82.452V12.812Z" fill="white"/>
<path d="M89.696 18.94H88.2986V15.43C88.2986 14.3484 87.8773 13.8076 87.032 13.8076C86.6173 13.8076 86.2826 13.9558 86.0226 14.2535C85.7653 14.5512 85.6346 14.9022 85.6346 15.3039V18.9387H84.2373V14.5629C84.2373 14.0247 84.22 13.441 84.1866 12.8092H85.4146L85.48 13.7673H85.5186C85.6813 13.4696 85.924 13.2239 86.2426 13.0276C86.6213 12.7988 87.0453 12.6831 87.5093 12.6831C88.096 12.6831 88.584 12.8677 88.972 13.2382C89.4546 13.6919 89.696 14.3692 89.696 15.2688V18.94Z" fill="white"/>
<path d="M93.5493 18.9401H92.1533V10H93.5493V18.9401Z" fill="white"/>
<path d="M101.776 15.8252C101.776 16.7677 101.5 17.5399 100.948 18.1457C100.369 18.7684 99.6013 19.0791 98.6453 19.0791C97.7213 19.0791 96.9867 18.7814 96.44 18.1834C95.8933 17.5867 95.62 16.834 95.62 15.9266C95.62 14.9776 95.9013 14.1989 96.4667 13.5944C97.032 12.9899 97.792 12.687 98.748 12.687C99.672 12.687 100.412 12.9847 100.975 13.5814C101.508 14.1612 101.776 14.91 101.776 15.8252ZM100.325 15.8694C100.325 15.3039 100.2 14.819 99.9507 14.4147C99.6587 13.9259 99.24 13.6815 98.6987 13.6815C98.136 13.6815 97.7093 13.9259 97.4173 14.4147C97.1667 14.819 97.0427 15.3117 97.0427 15.8941C97.0427 16.4596 97.168 16.9445 97.4173 17.3488C97.72 17.8376 98.1413 18.082 98.6853 18.082C99.2187 18.082 99.636 17.8337 99.9373 17.3358C100.197 16.9237 100.325 16.4349 100.325 15.8694Z" fill="white"/>
<path d="M108.539 18.94H107.284L107.18 18.2341H107.141C106.712 18.797 106.1 19.0791 105.305 19.0791C104.712 19.0791 104.232 18.8932 103.871 18.524C103.543 18.1886 103.379 17.7713 103.379 17.276C103.379 16.5272 103.699 15.9565 104.343 15.5613C104.985 15.1661 105.889 14.9724 107.053 14.9815V14.8671C107.053 14.0598 106.619 13.6568 105.748 13.6568C105.128 13.6568 104.581 13.8089 104.109 14.1105L103.825 13.2161C104.409 12.8638 105.131 12.687 105.981 12.687C107.624 12.687 108.448 13.532 108.448 15.222V17.4788C108.448 18.0911 108.479 18.5786 108.539 18.94ZM107.088 16.834V15.8889C105.547 15.8629 104.776 16.275 104.776 17.1239C104.776 17.4437 104.864 17.6829 105.044 17.8428C105.224 18.0027 105.453 18.082 105.727 18.082C106.033 18.082 106.32 17.9871 106.581 17.7986C106.844 17.6088 107.005 17.3683 107.065 17.0732C107.08 17.0069 107.088 16.9263 107.088 16.834Z" fill="white"/>
<path d="M116.479 18.9401H115.239L115.173 17.956H115.135C114.739 18.7048 114.064 19.0792 113.116 19.0792C112.359 19.0792 111.728 18.7893 111.228 18.2095C110.728 17.6297 110.479 16.877 110.479 15.9527C110.479 14.9608 110.749 14.1574 111.293 13.5438C111.82 12.9718 112.465 12.6858 113.233 12.6858C114.077 12.6858 114.668 12.9627 115.004 13.5178H115.031V10H116.429V17.2891C116.429 17.8858 116.445 18.4357 116.479 18.9401ZM115.031 16.3557V15.3339C115.031 15.1571 115.017 15.0141 114.992 14.9049C114.913 14.5773 114.744 14.3017 114.487 14.0794C114.227 13.8571 113.913 13.7453 113.552 13.7453C113.031 13.7453 112.623 13.9468 112.323 14.3511C112.025 14.7554 111.875 15.2715 111.875 15.902C111.875 16.5078 112.017 16.9992 112.304 17.3775C112.607 17.7805 113.015 17.982 113.525 17.982C113.984 17.982 114.351 17.8143 114.629 17.4776C114.899 17.1669 115.031 16.7925 115.031 16.3557Z" fill="white"/>
<path d="M128.429 15.8252C128.429 16.7677 128.153 17.5399 127.601 18.1457C127.023 18.7684 126.257 19.0791 125.299 19.0791C124.377 19.0791 123.643 18.7814 123.093 18.1834C122.547 17.5867 122.273 16.834 122.273 15.9266C122.273 14.9776 122.555 14.1989 123.12 13.5944C123.685 12.9899 124.445 12.687 125.404 12.687C126.325 12.687 127.068 12.9847 127.628 13.5814C128.161 14.1612 128.429 14.91 128.429 15.8252ZM126.981 15.8694C126.981 15.3039 126.856 14.819 126.607 14.4147C126.312 13.9259 125.896 13.6815 125.352 13.6815C124.792 13.6815 124.365 13.9259 124.071 14.4147C123.82 14.819 123.696 15.3117 123.696 15.8941C123.696 16.4596 123.821 16.9445 124.071 17.3488C124.373 17.8376 124.795 18.082 125.339 18.082C125.872 18.082 126.292 17.8337 126.593 17.3358C126.851 16.9237 126.981 16.4349 126.981 15.8694Z" fill="white"/>
<path d="M135.943 18.94H134.547V15.43C134.547 14.3484 134.125 13.8076 133.279 13.8076C132.864 13.8076 132.529 13.9558 132.271 14.2535C132.012 14.5512 131.883 14.9022 131.883 15.3039V18.9387H130.484V14.5629C130.484 14.0247 130.468 13.441 130.435 12.8092H131.661L131.727 13.7673H131.765C131.929 13.4696 132.172 13.2239 132.489 13.0276C132.869 12.7988 133.292 12.6831 133.757 12.6831C134.343 12.6831 134.831 12.8677 135.219 13.2382C135.703 13.6919 135.943 14.3692 135.943 15.2688V18.94Z" fill="white"/>
<path d="M145.347 13.8323H143.808V16.8093C143.808 17.5659 144.081 17.9442 144.623 17.9442C144.873 17.9442 145.081 17.9234 145.245 17.8805L145.281 18.914C145.005 19.0154 144.643 19.0661 144.196 19.0661C143.644 19.0661 143.215 18.9023 142.904 18.5747C142.592 18.2471 142.437 17.6959 142.437 16.9224V13.8323H141.519V12.8118H142.437V11.6886L143.807 11.2856V12.8105H145.345V13.8323H145.347Z" fill="white"/>
<path d="M152.744 18.9401H151.345V15.4561C151.345 14.3576 150.924 13.8077 150.08 13.8077C149.432 13.8077 148.989 14.1262 148.747 14.7632C148.705 14.8971 148.681 15.0609 148.681 15.2533V18.9388H147.285V10H148.681V13.6933H148.708C149.148 13.0212 149.779 12.6858 150.596 12.6858C151.175 12.6858 151.653 12.8704 152.033 13.2409C152.507 13.7024 152.744 14.3888 152.744 15.2962V18.9401Z" fill="white"/>
<path d="M160.375 15.586C160.375 15.8304 160.356 16.0358 160.323 16.2035H156.132C156.151 16.8093 156.351 17.2708 156.739 17.5906C157.093 17.8766 157.551 18.0196 158.111 18.0196C158.731 18.0196 159.296 17.9234 159.805 17.7297L160.024 18.6761C159.428 18.9283 158.727 19.0544 157.915 19.0544C156.941 19.0544 156.175 18.7749 155.62 18.2159C155.063 17.6569 154.787 16.9068 154.787 15.9656C154.787 15.0413 155.044 14.2717 155.563 13.6581C156.104 13.0029 156.836 12.6753 157.76 12.6753C158.664 12.6753 159.351 13.0029 159.815 13.6581C160.189 14.1781 160.375 14.8216 160.375 15.586ZM159.041 15.2337C159.052 14.8294 158.96 14.481 158.771 14.1872C158.528 13.8089 158.159 13.6191 157.659 13.6191C157.203 13.6191 156.831 13.8037 156.547 14.1742C156.315 14.4693 156.177 14.8216 156.132 15.2337H159.041Z" fill="white"/>
<path fill-rule="evenodd" clip-rule="evenodd" d="M25.0335 35.7966C26.7498 33.7206 28.7255 31.0686 30.9581 27.7669L24.7489 25.6105C27.3973 20.9763 31.4354 16.3822 35.5041 12.95C36.8297 11.8316 38.1581 10.8338 39.4419 10C37.9796 10.6998 36.4475 11.5771 34.9126 12.5918C33.8159 11.9924 32.5962 11.6608 31.3098 11.6608C27.7712 11.6608 24.7237 14.1923 23.3619 17.832C22.7451 19.4762 22.4996 21.2843 22.6363 23.0758C22.2796 21.3673 22.2815 19.6034 22.6419 17.8957C18.8995 18.4381 16 22.2621 16 26.8997C16 31.9157 19.3907 35.9706 23.56 35.9706C24.0563 35.9704 24.5508 35.912 25.0335 35.7965V35.7966Z" fill="white"/>
<path fill-rule="evenodd" clip-rule="evenodd" d="M19.2764 40.1932C18.9973 39.3361 19.3992 37.6216 20.5461 35.2207C20.0789 34.9761 19.6399 34.6808 19.2374 34.3401C17.1052 38.6295 17.2392 40.8863 19.2764 40.1932Z" fill="white"/>
<path opacity="0.2" fill-rule="evenodd" clip-rule="evenodd" d="M28.441 31.3699C25.5777 34.5408 22.5098 35.5308 19.2373 34.3399C20.4623 35.3679 21.9525 35.9706 23.56 35.9706C23.9155 35.9709 24.2703 35.9407 24.6205 35.8803C25.7647 34.6547 27.04 33.158 28.441 31.3699Z" fill="white"/>
<path fill-rule="evenodd" clip-rule="evenodd" d="M25.0335 35.7965C26.0744 34.5375 27.2102 33.0675 28.4409 31.3699C27.04 33.1579 25.7646 34.6547 24.6205 35.8803C18.1488 42.8116 15.8772 41.1039 19.2373 34.3399C19.0475 34.1826 18.8633 34.0118 18.6875 33.8343C14.3619 42.2724 16.5248 46.083 25.0335 35.7965Z" fill="white"/>
<path opacity="0.7" fill-rule="evenodd" clip-rule="evenodd" d="M19.9014 33.8111C16.494 29.0529 17.8726 23.9431 21.7014 21.7532C21.612 20.8892 21.6065 20.022 21.7153 19.0142C18.813 19.9852 16.7368 23.183 16.7368 26.8998C16.7368 29.8465 18.0177 32.3713 19.9014 33.8111L19.9014 33.8111Z" fill="white"/>
<path opacity="0.7" fill-rule="evenodd" clip-rule="evenodd" d="M23.4317 23.8092C23.6158 17.2128 27.7098 14.1589 32.1415 14.9056C32.7554 14.3029 33.3917 13.7102 34.0503 13.1209C30.1461 11.4065 25.7507 13.5998 24.0317 18.1938C23.2949 20.1661 23.2726 21.7298 23.4317 23.8092Z" fill="white"/>
<path fill-rule="evenodd" clip-rule="evenodd" d="M42.4725 31.6513C42.4456 32.7676 42.2663 33.875 41.9395 34.9429C42.4271 35.0746 42.9301 35.141 43.4352 35.1404C47.2306 35.1404 50.3059 31.4504 50.3059 26.8998C50.3059 23.5748 48.665 20.7119 46.3041 19.4093C45.3385 16.8042 43.187 15.1133 40.7954 15.1133C39.9018 15.1147 39.0239 15.3477 38.2474 15.7896C38.2111 15.7327 38.1749 15.6758 38.1386 15.6222C36.5199 17.5108 34.8902 19.8145 33.4446 22.4162L39.2772 24.9477C36.5674 30.0474 32.8725 34.1492 29.3201 37.2566C30.7041 38.3616 32.3646 39.0079 34.1506 39.0079C37.9963 39.0079 41.3562 35.9842 42.4725 31.6513H42.4725Z" fill="white"/>
<path fill-rule="evenodd" clip-rule="evenodd" d="M44.479 16.62C46.4436 12.3709 45.7934 11.1654 43.985 11.9456C43.9906 12.6956 43.6613 13.8777 42.9022 15.5653C43.4812 15.8296 44.0137 16.1858 44.479 16.62H44.479Z" fill="white"/>
<path opacity="0.2" fill-rule="evenodd" clip-rule="evenodd" d="M34.8902 23.0424C38.1107 18.1336 41.3088 15.9437 44.479 16.6201C43.4465 15.6624 42.16 15.1133 40.7954 15.1133C40.4799 15.1135 40.1651 15.1426 39.8549 15.2003C37.9544 17.1625 35.906 19.8078 34.2316 22.7578L34.8902 23.0424Z" fill="white"/>
<path opacity="0.2" fill-rule="evenodd" clip-rule="evenodd" d="M39.3749 27.3752C36.7739 31.2981 33.5282 34.7532 29.7748 37.5946C33.4585 35.3311 37.3152 32.2438 40.4715 28.1387L39.3749 27.3752Z" fill="white"/>
<path fill-rule="evenodd" clip-rule="evenodd" d="M45.1265 17.3131C49.9991 7.22755 44.1749 8.56023 38.1386 15.6221C36.52 17.5107 34.8903 19.8144 33.4447 22.4161L34.2316 22.7577C35.906 19.8077 37.9544 17.1623 39.855 15.2002C44.1051 10.8104 47.6102 9.85276 44.4791 16.62C44.7104 16.836 44.9267 17.0676 45.1265 17.3131Z" fill="white"/>
<path fill-rule="evenodd" clip-rule="evenodd" d="M39.6735 26.9197L39.2772 24.9475C35.2698 32.4916 29.1023 37.8526 24.4419 41.0335C29.3257 38.3749 35.108 33.9917 39.6735 26.9197Z" fill="white"/>
<path opacity="0.7" fill-rule="evenodd" clip-rule="evenodd" d="M45.8045 20.002C50.4064 24.1909 47.8948 31.5977 43.1814 31.0853C43.1227 32.2574 43.0138 33.3791 42.7989 34.3133C46.4463 34.7586 49.6472 31.3398 49.6472 26.8998C49.6472 23.7489 48.1431 21.2911 45.8045 20.002V20.002Z" fill="white"/>
</svg>
