<svg width="40" height="40" viewBox="0 0 40 40" fill="none" xmlns="http://www.w3.org/2000/svg">
<rect opacity="0.1" width="40" height="40" rx="20" fill="#F01A63"/>
<path d="M26 15.9867C23.78 15.7667 21.5467 15.6533 19.32 15.6533C18 15.6533 16.68 15.72 15.36 15.8533L14 15.9867" stroke="#F01A63" stroke-width="1.5" stroke-linecap="round" stroke-linejoin="round"/>
<path opacity="0.34" d="M17.6667 15.3133L17.8134 14.44C17.9201 13.8067 18.0001 13.3333 19.1267 13.3333H20.8734C22.0001 13.3333 22.0867 13.8333 22.1867 14.4467L22.3334 15.3133" stroke="#F01A63" stroke-width="1.5" stroke-linecap="round" stroke-linejoin="round"/>
<path d="M24.5667 18.0933L24.1334 24.8067C24.06 25.8533 24 26.6667 22.14 26.6667H17.86C16 26.6667 15.94 25.8533 15.8667 24.8067L15.4333 18.0933" stroke="#F01A63" stroke-width="1.5" stroke-linecap="round" stroke-linejoin="round"/>
<path opacity="0.34" d="M18.8867 23H21.1067" stroke="#F01A63" stroke-width="1.5" stroke-linecap="round" stroke-linejoin="round"/>
<path opacity="0.34" d="M18.3333 20.3333H21.6666" stroke="#F01A63" stroke-width="1.5" stroke-linecap="round" stroke-linejoin="round"/>
</svg>
