<svg width="56" height="56" viewBox="0 0 56 56" fill="none" xmlns="http://www.w3.org/2000/svg">
<rect opacity="0.2" x="0.5" y="0.5" width="55" height="55" rx="27.5" stroke="url(#paint0_linear_459_1255)"/>
<rect opacity="0.5" x="4.5" y="4.5" width="47" height="47" rx="23.5" stroke="url(#paint1_linear_459_1255)"/>
<rect x="8" y="8" width="40" height="40" rx="20" fill="url(#paint2_linear_459_1255)"/>
<path d="M36.62 24.45C35.57 19.83 31.54 17.75 28 17.75C28 17.75 28 17.75 27.99 17.75C24.46 17.75 20.42 19.82 19.37 24.44C18.2 29.6 21.36 33.97 24.22 36.72C25.28 37.74 26.64 38.25 28 38.25C29.36 38.25 30.72 37.74 31.77 36.72C34.63 33.97 37.79 29.61 36.62 24.45ZM28 29.46C26.26 29.46 24.85 28.05 24.85 26.31C24.85 24.57 26.26 23.16 28 23.16C29.74 23.16 31.15 24.57 31.15 26.31C31.15 28.05 29.74 29.46 28 29.46Z" fill="white"/>
<defs>
<linearGradient id="paint0_linear_459_1255" x1="0" y1="56" x2="56" y2="0" gradientUnits="userSpaceOnUse">
<stop stop-color="#2E28D4"/>
<stop offset="1" stop-color="#AC27FD"/>
</linearGradient>
<linearGradient id="paint1_linear_459_1255" x1="4" y1="52" x2="52" y2="4" gradientUnits="userSpaceOnUse">
<stop stop-color="#2E28D4"/>
<stop offset="1" stop-color="#AC27FD"/>
</linearGradient>
<linearGradient id="paint2_linear_459_1255" x1="8" y1="48" x2="48" y2="8" gradientUnits="userSpaceOnUse">
<stop stop-color="#2E28D4"/>
<stop offset="1" stop-color="#AC27FD"/>
</linearGradient>
</defs>
</svg>
