<svg width="20" height="20" viewBox="0 0 20 20" fill="none" xmlns="http://www.w3.org/2000/svg">
<path opacity="0.4" d="M12.9 2.5H6.26666C3.39166 2.5 1.66666 4.21667 1.66666 7.1V13.725C1.66666 16.6167 3.39166 18.3333 6.26666 18.3333H12.8917C15.775 18.3333 17.4917 16.6167 17.4917 13.7333V7.1C17.5 4.21667 15.775 2.5 12.9 2.5Z" fill="#9CA6C0"/>
<path d="M17.5167 2.48336C16.025 0.98336 14.5667 0.950026 13.0333 2.48336L12.0917 3.41669C12.0083 3.50003 11.9833 3.61669 12.0167 3.72503C12.6 5.76669 14.2333 7.40003 16.275 7.98336C16.3 7.99169 16.3417 7.99169 16.3667 7.99169C16.45 7.99169 16.5333 7.95836 16.5917 7.90003L17.5167 6.96669C18.275 6.20836 18.65 5.48336 18.65 4.74169C18.65 3.99169 18.275 3.25003 17.5167 2.48336Z" fill="#9CA6C0"/>
<path d="M14.8833 8.68328C14.6583 8.57495 14.4417 8.46662 14.2417 8.34162C14.075 8.24162 13.9083 8.13328 13.75 8.01662C13.6167 7.93328 13.4667 7.80828 13.3167 7.68328C13.3 7.67495 13.25 7.63328 13.1833 7.56662C12.925 7.35828 12.65 7.07495 12.3917 6.76662C12.375 6.74995 12.325 6.69995 12.2833 6.62495C12.2 6.53328 12.075 6.37495 11.9667 6.19995C11.875 6.08328 11.7667 5.91662 11.6667 5.74162C11.5417 5.53328 11.4333 5.32495 11.3333 5.10828C11.225 4.87495 11.1417 4.65828 11.0667 4.44995L6.58334 8.93328C6.29167 9.22495 6.00834 9.77495 5.95 10.1833L5.59167 12.6666C5.51667 13.1916 5.65834 13.6833 5.98334 14.0083C6.25834 14.2833 6.63334 14.425 7.05 14.425C7.14167 14.425 7.23334 14.4166 7.325 14.4083L9.8 14.0583C10.2083 14 10.7583 13.725 11.05 13.425L15.5333 8.94162C15.325 8.87495 15.1167 8.78328 14.8833 8.68328Z" fill="#9CA6C0"/>
</svg>
