<svg width="40" height="40" viewBox="0 0 40 40" fill="none" xmlns="http://www.w3.org/2000/svg">
<rect opacity="0.4" width="40" height="40" rx="20" fill="#2E28D4"/>
<path d="M19.9998 13.3335C16.3178 13.3335 13.3331 16.3182 13.3331 20.0002C13.3331 23.3275 15.7711 26.0855 18.9584 26.5862V21.9268H17.2651V20.0002H18.9584V18.5315C18.9584 16.8608 19.9531 15.9382 21.4764 15.9382C22.2058 15.9382 22.9684 16.0682 22.9684 16.0682V17.7082H22.1284C21.2998 17.7082 21.0418 18.2222 21.0418 18.7495V20.0002H22.8904L22.5951 21.9268H21.0418V26.5862C24.2284 26.0862 26.6664 23.3268 26.6664 20.0002C26.6664 16.3182 23.6818 13.3335 19.9998 13.3335Z" fill="white" fill-opacity="0.7"/>
</svg>
