<svg width="155" height="48" viewBox="0 0 155 48" fill="none" xmlns="http://www.w3.org/2000/svg">
<rect x="7.44004" y="40.9619" width="47.4988" height="0.75524" rx="0.37762" transform="rotate(-45 7.44004 40.9619)" stroke="#B31217" stroke-width="0.75524"/>
<rect x="5.89917" y="24.0947" width="25.1747" height="1.51048" transform="rotate(-45 5.89917 24.0947)" fill="#B31217"/>
<rect x="0.612549" width="12.7552" height="12.7552" rx="6.37758" fill="url(#paint0_linear_959_9067)"/>
<rect x="0.612549" y="17.6224" width="12.7552" height="12.7552" rx="6.37758" fill="url(#paint1_linear_959_9067)"/>
<rect x="18.2346" y="17.6224" width="12.7552" height="12.7552" rx="6.37758" fill="url(#paint2_linear_959_9067)"/>
<rect x="0.612549" y="35.2445" width="12.7552" height="12.7552" rx="6.37758" fill="url(#paint3_linear_959_9067)"/>
<rect x="18.2346" width="12.7552" height="12.7552" rx="6.37758" fill="url(#paint4_linear_959_9067)"/>
<rect x="35.8567" width="12.7552" height="12.7552" rx="6.37758" fill="url(#paint5_linear_959_9067)"/>
<rect opacity="0.05" x="18.2346" y="35.2448" width="12.7552" height="12.7552" rx="6.37758" fill="black"/>
<rect opacity="0.05" x="35.8567" y="17.6223" width="12.7552" height="12.7552" rx="6.37758" fill="black"/>
<rect opacity="0.05" x="35.8567" y="35.2448" width="12.7552" height="12.7552" rx="6.37758" fill="black"/>
<path d="M60.7883 19.4347H64.0565V11.8287H71.8355V8.87826H64.0565V3.13987H73.321V0.216543H60.7883V19.4347Z" fill="#1F1F1F"/>
<path d="M76.96 19.4347H80.2283V0.216543H76.96V19.4347Z" fill="#1F1F1F"/>
<path d="M85.0553 19.4347H92.6452C96.8858 19.4347 98.9385 17.2152 98.9385 14.1565C98.9385 11.5038 97.3719 9.82564 95.1301 9.28428V9.25721C97.1018 8.47225 97.9662 6.68577 97.9662 4.89929C97.9662 1.75941 95.6703 0.216543 91.7268 0.216543H85.0553V19.4347ZM88.3235 8.1745V3.13987L91.3757 3.11281C93.6175 3.11281 94.6439 4.11432 94.6439 5.63012C94.6439 7.44367 93.3204 8.1745 91.4837 8.1745H88.3235ZM88.3235 16.5114V10.9896H91.7268C94.2658 10.9896 95.5353 12.0993 95.5353 13.8046C95.5353 15.6182 94.2658 16.5114 92.24 16.5114H88.3235Z" fill="#1F1F1F"/>
<path d="M111.299 19.6513C116.836 19.6513 120.969 15.6723 120.969 9.82564C120.969 3.95191 116.836 0 111.299 0C105.546 0 101.602 4.16845 101.602 9.82564C101.602 15.4828 105.546 19.6513 111.299 19.6513ZM111.299 16.5926C107.545 16.5926 104.979 13.5881 104.979 9.82564C104.979 6.06321 107.545 3.05867 111.299 3.05867C114.837 3.05867 117.565 5.87373 117.565 9.82564C117.565 13.7505 114.837 16.5926 111.299 16.5926Z" fill="#1F1F1F"/>
<path d="M70.2314 47.2994C73.6077 47.2994 76.1467 45.7295 77.7943 43.6723L75.3904 41.6151C74.1749 43.1309 72.3922 44.2407 70.2314 44.2407C66.585 44.2407 63.9651 41.5339 63.9651 37.582C63.9651 33.5218 66.531 30.788 70.1774 30.788C72.2032 30.788 73.9048 31.6542 75.3364 33.4136L77.7403 31.3835C75.7415 28.9203 72.9865 27.7022 70.1774 27.7022C64.0191 27.7022 60.5618 32.1143 60.5618 37.582C60.5618 43.8888 65.0185 47.2994 70.2314 47.2994Z" fill="#1F1F1F"/>
<path d="M81.1035 47.137H93.2581V44.2136H84.3717V27.9188H81.1035V47.137Z" fill="#1F1F1F"/>
<path d="M105 47.3535C110.537 47.3535 114.669 43.3745 114.669 37.5279C114.669 31.6542 110.537 27.7022 105 27.7022C99.2463 27.7022 95.3028 31.8707 95.3028 37.5279C95.3028 43.1851 99.2463 47.3535 105 47.3535ZM105 44.2948C101.245 44.2948 98.6791 41.2903 98.6791 37.5279C98.6791 33.7654 101.245 30.7609 105 30.7609C108.538 30.7609 111.266 33.576 111.266 37.5279C111.266 41.4527 108.538 44.2948 105 44.2948Z" fill="#1F1F1F"/>
<path d="M126.174 47.3535C130.955 47.3535 133.845 44.2136 133.845 39.2332V27.9188H130.577V38.9895C130.577 42.2918 128.74 44.2678 126.174 44.2678C123.419 44.2678 121.799 42.0482 121.799 38.9895V27.9188H118.557V39.2332C118.557 44.4031 121.637 47.3535 126.174 47.3535Z" fill="#1F1F1F"/>
<path d="M138.56 47.137H144.745C150.904 47.137 154.631 43.2121 154.631 37.555C154.631 31.8707 150.742 27.9188 144.664 27.9188H138.56V47.137ZM141.828 44.2136V30.8421H144.718C148.581 30.8421 151.255 33.6572 151.255 37.555C151.255 41.3715 148.608 44.2136 144.556 44.2136H141.828Z" fill="#1F1F1F"/>
<defs>
<linearGradient id="paint0_linear_959_9067" x1="7.03351" y1="0.520619" x2="7.03351" y2="12.3213" gradientUnits="userSpaceOnUse">
<stop stop-color="#E52D27"/>
<stop offset="1" stop-color="#C41C25"/>
</linearGradient>
<linearGradient id="paint1_linear_959_9067" x1="7.03351" y1="18.1431" x2="7.03351" y2="29.9437" gradientUnits="userSpaceOnUse">
<stop stop-color="#E52D27"/>
<stop offset="1" stop-color="#C41C25"/>
</linearGradient>
<linearGradient id="paint2_linear_959_9067" x1="24.6556" y1="18.1431" x2="24.6556" y2="29.9437" gradientUnits="userSpaceOnUse">
<stop stop-color="#E52D27"/>
<stop offset="1" stop-color="#B31217"/>
</linearGradient>
<linearGradient id="paint3_linear_959_9067" x1="7.03351" y1="35.7651" x2="7.03351" y2="47.5658" gradientUnits="userSpaceOnUse">
<stop stop-color="#E52D27"/>
<stop offset="1" stop-color="#C41C25"/>
</linearGradient>
<linearGradient id="paint4_linear_959_9067" x1="24.6556" y1="0.520619" x2="24.6556" y2="12.3213" gradientUnits="userSpaceOnUse">
<stop stop-color="#E52D27"/>
<stop offset="1" stop-color="#C41C25"/>
</linearGradient>
<linearGradient id="paint5_linear_959_9067" x1="42.2777" y1="0.520619" x2="42.2777" y2="12.3213" gradientUnits="userSpaceOnUse">
<stop stop-color="#E52D27"/>
<stop offset="1" stop-color="#C41C25"/>
</linearGradient>
</defs>
</svg>
