<svg width="20" height="20" viewBox="0 0 20 20" fill="none" xmlns="http://www.w3.org/2000/svg">
<path d="M17.3584 6.67494L11.9 2.30828C10.8334 1.45828 9.16672 1.44994 8.10838 2.29994L2.65005 6.67494C1.86672 7.29994 1.39172 8.54994 1.55838 9.53328L2.60838 15.8166C2.85005 17.2249 4.15838 18.3333 5.58338 18.3333H14.4167C15.825 18.3333 17.1584 17.1999 17.4 15.8083L18.45 9.52494C18.6 8.54994 18.125 7.29994 17.3584 6.67494ZM10.625 14.9999C10.625 15.3416 10.3417 15.6249 10 15.6249C9.65838 15.6249 9.37505 15.3416 9.37505 14.9999V12.4999C9.37505 12.1583 9.65838 11.8749 10 11.8749C10.3417 11.8749 10.625 12.1583 10.625 12.4999V14.9999Z" fill="white"/>
</svg>
