<svg width="30" height="30" viewBox="0 0 30 30" fill="none" xmlns="http://www.w3.org/2000/svg">
<path opacity="0.4" d="M26.7124 14.2375V21.725C26.7124 25.175 23.9124 27.975 20.4624 27.975H9.53735C6.08735 27.975 3.28735 25.175 3.28735 21.725V14.325C4.23735 15.35 5.58735 15.9375 7.04985 15.9375C8.62485 15.9375 10.1374 15.15 11.0874 13.8875C11.9374 15.15 13.3874 15.9375 14.9999 15.9375C16.5999 15.9375 18.0249 15.1875 18.8874 13.9375C19.8499 15.175 21.3374 15.9375 22.8874 15.9375C24.3999 15.9375 25.7749 15.325 26.7124 14.2375Z" fill="url(#paint0_linear_1076_5021)"/>
<path d="M18.7372 1.5625H11.2372L10.3122 10.7625C10.2372 11.6125 10.3622 12.4125 10.6747 13.1375C11.3997 14.8375 13.0997 15.9375 14.9997 15.9375C16.9247 15.9375 18.5872 14.8625 19.3372 13.15C19.5622 12.6125 19.6997 11.9875 19.7122 11.35V11.1125L18.7372 1.5625Z" fill="url(#paint1_linear_1076_5021)"/>
<path opacity="0.6" d="M27.9502 10.3375L27.5877 6.875C27.0627 3.1 25.3502 1.5625 21.6877 1.5625H16.8877L17.8127 10.9375C17.8252 11.0625 17.8377 11.2 17.8377 11.4375C17.9127 12.0875 18.1127 12.6875 18.4127 13.225C19.3127 14.875 21.0627 15.9375 22.8877 15.9375C24.5502 15.9375 26.0502 15.2 26.9877 13.9C27.7377 12.9 28.0752 11.6375 27.9502 10.3375Z" fill="url(#paint2_linear_1076_5021)"/>
<path opacity="0.6" d="M8.23731 1.5625C4.56231 1.5625 2.86231 3.1 2.32481 6.9125L1.98731 10.35C1.86231 11.6875 2.22481 12.9875 3.01231 14C3.96231 15.2375 5.42481 15.9375 7.04981 15.9375C8.87481 15.9375 10.6248 14.875 11.5123 13.25C11.8373 12.6875 12.0498 12.0375 12.1123 11.3625L13.0873 1.575H8.23731V1.5625Z" fill="url(#paint3_linear_1076_5021)"/>
<path d="M14.1874 20.825C12.5999 20.9875 11.3999 22.3375 11.3999 23.9375V27.975H18.5874V24.375C18.5999 21.7625 17.0624 20.525 14.1874 20.825Z" fill="url(#paint4_linear_1076_5021)"/>
<defs>
<linearGradient id="paint0_linear_1076_5021" x1="3.28735" y1="27.975" x2="15.731" y2="7.28346" gradientUnits="userSpaceOnUse">
<stop stop-color="#2E28D4"/>
<stop offset="1" stop-color="#AC27FD"/>
</linearGradient>
<linearGradient id="paint1_linear_1076_5021" x1="10.291" y1="15.9375" x2="23.4718" y2="7.29899" gradientUnits="userSpaceOnUse">
<stop stop-color="#2E28D4"/>
<stop offset="1" stop-color="#AC27FD"/>
</linearGradient>
<linearGradient id="paint2_linear_1076_5021" x1="16.8877" y1="15.9375" x2="30.7914" y2="5.21303" gradientUnits="userSpaceOnUse">
<stop stop-color="#2E28D4"/>
<stop offset="1" stop-color="#AC27FD"/>
</linearGradient>
<linearGradient id="paint3_linear_1076_5021" x1="1.96313" y1="15.9375" x2="15.8783" y2="5.16915" gradientUnits="userSpaceOnUse">
<stop stop-color="#2E28D4"/>
<stop offset="1" stop-color="#AC27FD"/>
</linearGradient>
<linearGradient id="paint4_linear_1076_5021" x1="11.3999" y1="27.975" x2="18.594" y2="20.7874" gradientUnits="userSpaceOnUse">
<stop stop-color="#2E28D4"/>
<stop offset="1" stop-color="#AC27FD"/>
</linearGradient>
</defs>
</svg>
