<svg width="21" height="20" viewBox="0 0 21 20" fill="none" xmlns="http://www.w3.org/2000/svg">
<g opacity="0.5">
<path opacity="0.4" d="M17.9505 9.49167V14.4833C17.9505 16.7833 16.0838 18.65 13.7838 18.65H6.50047C4.20047 18.65 2.3338 16.7833 2.3338 14.4833V9.55C2.96713 10.2333 3.86713 10.625 4.84213 10.625C5.89213 10.625 6.90047 10.1 7.5338 9.25834C8.10047 10.1 9.06713 10.625 10.1421 10.625C11.2088 10.625 12.1588 10.125 12.7338 9.29167C13.3755 10.1167 14.3671 10.625 15.4005 10.625C16.4088 10.625 17.3255 10.2167 17.9505 9.49167Z" fill="#2E28D4"/>
<path d="M12.6337 1.04167H7.63371L7.01705 7.175C6.96705 7.74167 7.05038 8.275 7.25871 8.75833C7.74205 9.89167 8.87538 10.625 10.142 10.625C11.4254 10.625 12.5337 9.90833 13.0337 8.76667C13.1837 8.40833 13.2754 7.99167 13.2837 7.56667V7.40833L12.6337 1.04167Z" fill="#2E28D4"/>
<path opacity="0.6" d="M18.7755 6.89167L18.5338 4.58333C18.1838 2.06667 17.0421 1.04167 14.6005 1.04167H11.4005L12.0171 7.29167C12.0255 7.375 12.0338 7.46667 12.0338 7.625C12.0838 8.05833 12.2171 8.45833 12.4171 8.81667C13.0171 9.91667 14.1838 10.625 15.4005 10.625C16.5088 10.625 17.5088 10.1333 18.1338 9.26667C18.6338 8.6 18.8588 7.75833 18.7755 6.89167Z" fill="#2E28D4"/>
<path opacity="0.6" d="M5.63383 1.04167C3.18383 1.04167 2.0505 2.06667 1.69216 4.60833L1.46716 6.9C1.38383 7.79167 1.6255 8.65833 2.1505 9.33333C2.78383 10.1583 3.75883 10.625 4.84216 10.625C6.05883 10.625 7.2255 9.91667 7.81716 8.83333C8.03383 8.45833 8.1755 8.025 8.21716 7.575L8.86716 1.05H5.63383V1.04167Z" fill="#2E28D4"/>
<path d="M9.6004 13.8833C8.54207 13.9917 7.74207 14.8917 7.74207 15.9583V18.65H12.5337V16.25C12.5421 14.5083 11.5171 13.6833 9.6004 13.8833Z" fill="#2E28D4"/>
</g>
</svg>
