<svg width="21" height="20" viewBox="0 0 21 20" fill="none" xmlns="http://www.w3.org/2000/svg">
<path d="M13.6837 18.75C14.4892 18.75 15.1421 18.0971 15.1421 17.2917C15.1421 16.4863 14.4892 15.8333 13.6837 15.8333C12.8783 15.8333 12.2254 16.4863 12.2254 17.2917C12.2254 18.0971 12.8783 18.75 13.6837 18.75Z" fill="url(#paint0_linear_1099_2070)"/>
<path d="M7.01711 18.75C7.82253 18.75 8.47544 18.0971 8.47544 17.2917C8.47544 16.4863 7.82253 15.8333 7.01711 15.8333C6.21169 15.8333 5.55878 16.4863 5.55878 17.2917C5.55878 18.0971 6.21169 18.75 7.01711 18.75Z" fill="url(#paint1_linear_1099_2070)"/>
<path opacity="0.4" d="M4.17544 3.28334L4.00878 5.325C3.97544 5.71667 4.28378 6.04167 4.67545 6.04167H17.4338C17.7838 6.04167 18.0754 5.775 18.1004 5.425C18.2088 3.95 17.0838 2.75 15.6088 2.75H5.38377C5.30044 2.38334 5.13377 2.03333 4.87544 1.74166C4.4671 1.3 3.88378 1.04167 3.28378 1.04167H1.80878C1.46711 1.04167 1.18378 1.325 1.18378 1.66667C1.18378 2.00833 1.46711 2.29167 1.80878 2.29167H3.25878C3.51711 2.29167 3.75878 2.40001 3.93378 2.58334C4.10878 2.77501 4.19211 3.025 4.17544 3.28334Z" fill="url(#paint2_linear_1099_2070)"/>
<path d="M17.2337 7.29167H4.45039C4.10039 7.29167 3.81705 7.55833 3.78372 7.9L3.48372 11.525C3.36705 12.9417 4.48372 14.1667 5.90872 14.1667H15.1754C16.4254 14.1667 17.5254 13.1417 17.6171 11.8917L17.8921 8.00001C17.9254 7.61667 17.6254 7.29167 17.2337 7.29167Z" fill="url(#paint3_linear_1099_2070)"/>
<defs>
<linearGradient id="paint0_linear_1099_2070" x1="12.2254" y1="18.75" x2="15.1421" y2="15.8333" gradientUnits="userSpaceOnUse">
<stop stop-color="#2E28D4"/>
<stop offset="1" stop-color="#AC27FD"/>
</linearGradient>
<linearGradient id="paint1_linear_1099_2070" x1="5.55878" y1="18.75" x2="8.47544" y2="15.8333" gradientUnits="userSpaceOnUse">
<stop stop-color="#2E28D4"/>
<stop offset="1" stop-color="#AC27FD"/>
</linearGradient>
<linearGradient id="paint2_linear_1099_2070" x1="1.18378" y1="6.04167" x2="3.90101" y2="-3.15555" gradientUnits="userSpaceOnUse">
<stop stop-color="#2E28D4"/>
<stop offset="1" stop-color="#AC27FD"/>
</linearGradient>
<linearGradient id="paint3_linear_1099_2070" x1="3.47534" y1="14.1667" x2="8.81693" y2="2.9635" gradientUnits="userSpaceOnUse">
<stop stop-color="#2E28D4"/>
<stop offset="1" stop-color="#AC27FD"/>
</linearGradient>
</defs>
</svg>
