<svg width="21" height="20" viewBox="0 0 21 20" fill="none" xmlns="http://www.w3.org/2000/svg">
<path d="M10.1422 9.99999C12.4434 9.99999 14.3089 8.13451 14.3089 5.83333C14.3089 3.53214 12.4434 1.66666 10.1422 1.66666C7.841 1.66666 5.97552 3.53214 5.97552 5.83333C5.97552 8.13451 7.841 9.99999 10.1422 9.99999Z" fill="#2E28D4"/>
<path opacity="0.4" d="M10.1419 12.0833C5.96692 12.0833 2.56689 14.8833 2.56689 18.3333C2.56689 18.5667 2.75023 18.75 2.98356 18.75H17.3003C17.5336 18.75 17.7169 18.5667 17.7169 18.3333C17.7169 14.8833 14.3169 12.0833 10.1419 12.0833Z" fill="#2E28D4"/>
<path d="M18.0005 12.2833C17.2505 11.5333 16.6588 11.775 16.1505 12.2833L13.2005 15.2334C13.0838 15.35 12.9755 15.5667 12.9505 15.725L12.7922 16.85C12.7338 17.2583 13.0172 17.5417 13.4255 17.4833L14.5505 17.325C14.7088 17.3 14.9338 17.1917 15.0422 17.075L17.9921 14.125C18.5088 13.625 18.7505 13.0333 18.0005 12.2833Z" fill="#2E28D4"/>
</svg>
