<svg width="21" height="20" viewBox="0 0 21 20" fill="none" xmlns="http://www.w3.org/2000/svg">
<path opacity="0.4" d="M17.5671 9.26665C17.5671 13.3417 14.6088 17.1583 10.5671 18.275C10.2921 18.35 9.9921 18.35 9.7171 18.275C5.67543 17.1583 2.7171 13.3417 2.7171 9.26665V5.60833C2.7171 4.925 3.23378 4.15 3.87545 3.89167L8.5171 1.99167C9.55876 1.56667 10.7338 1.56667 11.7754 1.99167L16.4171 3.89167C17.0504 4.15 17.5755 4.925 17.5755 5.60833L17.5671 9.26665Z" fill="#2E28D4"/>
<path d="M12.2254 8.75C12.2254 7.6 11.2921 6.66666 10.1421 6.66666C8.99211 6.66666 8.05878 7.6 8.05878 8.75C8.05878 9.68333 8.67544 10.4583 9.51711 10.725V12.9167C9.51711 13.2583 9.80044 13.5417 10.1421 13.5417C10.4838 13.5417 10.7671 13.2583 10.7671 12.9167V10.725C11.6088 10.4583 12.2254 9.68333 12.2254 8.75Z" fill="#2E28D4"/>
</svg>
