<svg width="18" height="18" viewBox="0 0 18 18" fill="none" xmlns="http://www.w3.org/2000/svg">
<path opacity="0.4" d="M0.808777 4.37251C0.808777 2.33001 2.50064 0.666672 4.57922 0.666672H8.71348C10.7878 0.666672 12.4754 2.325 12.4754 4.36417V13.6275C12.4754 15.6708 10.7836 17.3333 8.70415 17.3333H4.57159C2.4964 17.3333 0.808777 15.675 0.808777 13.6358V12.8525V4.37251Z" fill="#F01A63"/>
<path d="M17.2912 8.54568L14.9197 6.12151C14.6746 5.87151 14.2801 5.87151 14.0358 6.12318C13.7924 6.37484 13.7932 6.78068 14.0375 7.03068L15.3368 8.35818H14.091H7.09911C6.75418 8.35818 6.47418 8.64568 6.47418 8.99985C6.47418 9.35485 6.75418 9.64151 7.09911 9.64151H15.3368L14.0375 10.969C13.7932 11.219 13.7924 11.6248 14.0358 11.8765C14.1584 12.0023 14.3183 12.0657 14.479 12.0657C14.6381 12.0657 14.7979 12.0023 14.9197 11.8782L17.2912 9.45484C17.4089 9.33401 17.4754 9.17068 17.4754 8.99985C17.4754 8.82984 17.4089 8.66651 17.2912 8.54568Z" fill="#F01A63"/>
</svg>
