<svg width="211" height="48" viewBox="0 0 211 48" fill="none" xmlns="http://www.w3.org/2000/svg">
<path d="M78.1738 0.183105H79.2486V10.9306H78.1738V0.183105Z" fill="#9CA6C0"/>
<path d="M88.6122 0.183105H89.687V10.9306H88.7668L82.7796 2.18043V10.9306H81.7048V0.183105H82.625L88.6122 8.93329V0.183105Z" fill="#9CA6C0"/>
<path d="M98.2089 1.19603H93.2179V5.1574H97.9782V6.17033H93.2179V10.9306H92.1432V0.183105H98.2089V1.19603Z" fill="#9CA6C0"/>
<path d="M108.94 9.49443C107.865 10.5739 106.55 11.1137 104.995 11.1137C103.44 11.1137 102.125 10.5739 101.05 9.49443C99.9756 8.41492 99.4382 7.10239 99.4382 5.55684C99.4382 4.01129 99.9756 2.69877 101.05 1.61926C102.125 0.539754 103.44 0 104.995 0C106.55 0 107.865 0.539754 108.94 1.61926C110.015 2.69877 110.552 4.01129 110.552 5.55684C110.552 7.10239 110.015 8.41492 108.94 9.49443ZM101.799 8.75732C102.658 9.63234 103.723 10.0698 104.993 10.0698C106.262 10.0698 107.325 9.63234 108.186 8.75732C109.047 7.8823 109.475 6.81468 109.475 5.55684C109.475 4.299 109.044 3.23139 108.186 2.35637C107.328 1.48135 106.262 1.04384 104.993 1.04384C103.723 1.04384 102.66 1.48135 101.799 2.35637C100.941 3.23139 100.511 4.299 100.511 5.55684C100.511 6.81468 100.941 7.8823 101.799 8.75732Z" fill="#9CA6C0"/>
<path d="M118.995 10.9306L116.477 6.63161H113.467V10.9306H112.392V0.183105H116.691C117.581 0.183105 118.342 0.496971 118.972 1.12708C119.602 1.75719 119.916 2.5157 119.916 3.40736C119.916 4.13496 119.699 4.78171 119.264 5.35C118.829 5.91828 118.275 6.29873 117.6 6.4937L120.225 10.9306H118.995ZM113.467 1.19603V5.6163H116.691C117.286 5.6163 117.792 5.39993 118.211 4.9648C118.629 4.52967 118.841 4.01131 118.841 3.40736C118.841 2.7939 118.632 2.27079 118.211 1.84041C117.79 1.41003 117.283 1.19603 116.691 1.19603H113.467Z" fill="#9CA6C0"/>
<path d="M131.583 0.183105V10.9306H130.508V1.8095L126.747 8.10583H126.592L122.831 1.81188V10.9306H121.756V0.183105H123.092L126.671 6.17033L130.249 0.183105H131.583Z" fill="#9CA6C0"/>
<path d="M141.194 10.9306L140.196 8.28892H135.098L134.099 10.9306H132.962L137.093 0.183105H138.198L142.328 10.9306H141.194ZM135.483 7.27599H139.813L137.649 1.51941L135.483 7.27599Z" fill="#9CA6C0"/>
<path d="M149.699 0.183105V1.19603H146.399V10.9282H145.324V1.19603H142.024V0.183105H149.699Z" fill="#9CA6C0"/>
<path d="M151.236 0.183105H152.31V10.9306H151.236V0.183105Z" fill="#9CA6C0"/>
<path d="M163.655 9.49443C162.58 10.5739 161.265 11.1137 159.71 11.1137C158.155 11.1137 156.84 10.5739 155.765 9.49443C154.69 8.41492 154.153 7.10239 154.153 5.55684C154.153 4.01129 154.69 2.69877 155.765 1.61926C156.84 0.539754 158.155 0 159.71 0C161.265 0 162.58 0.539754 163.655 1.61926C164.729 2.69877 165.267 4.01129 165.267 5.55684C165.267 7.10239 164.729 8.41492 163.655 9.49443ZM156.517 8.75732C157.375 9.63234 158.44 10.0698 159.71 10.0698C160.98 10.0698 162.043 9.63234 162.903 8.75732C163.762 7.8823 164.192 6.81468 164.192 5.55684C164.192 4.299 163.762 3.23139 162.903 2.35637C162.045 1.48135 160.98 1.04384 159.71 1.04384C158.44 1.04384 157.377 1.48135 156.517 2.35637C155.658 3.23139 155.228 4.299 155.228 5.55684C155.228 6.81468 155.656 7.8823 156.517 8.75732Z" fill="#9CA6C0"/>
<path d="M174.017 0.183105H175.092V10.9306H174.172L168.184 2.18043V10.9306H167.11V0.183105H168.03L174.017 8.93329V0.183105Z" fill="#9CA6C0"/>
<path d="M188.54 10.9306L187.542 8.28892H182.444L181.445 10.9306H180.308L184.439 0.183105H185.544L189.674 10.9306H188.54ZM182.831 7.27599H187.161L184.997 1.51941L182.831 7.27599Z" fill="#9CA6C0"/>
<path d="M197.968 0.183105H199.043V10.9306H198.123L192.136 2.18043V10.9306H191.061V0.183105H191.981L197.968 8.93329V0.183105Z" fill="#9CA6C0"/>
<path d="M205.644 0.183164C207.108 0.183164 208.319 0.703895 209.275 1.7406C210.233 2.77969 210.711 4.05179 210.711 5.55454C210.711 7.05729 210.233 8.33177 209.275 9.37086C208.319 10.4099 207.108 10.9283 205.644 10.9283H201.499V0.180786H205.644V0.183164ZM205.644 9.91774C206.821 9.91774 207.786 9.49926 208.537 8.65991C209.289 7.82055 209.667 6.78622 209.667 5.5593C209.667 4.33237 209.291 3.29804 208.537 2.45869C207.786 1.61934 206.821 1.20085 205.644 1.20085H202.574V9.92012H205.644V9.91774Z" fill="#9CA6C0"/>
<path d="M83.1934 29.5367C81.5646 29.5367 80.2188 28.9993 79.1559 27.9245C78.0907 26.8498 77.5604 25.5349 77.5604 23.9798C77.5604 22.4248 78.093 21.1099 79.1559 20.0351C80.2211 18.9603 81.567 18.423 83.1934 18.423C84.1849 18.423 85.098 18.6608 85.9254 19.1363C86.7553 19.6119 87.3949 20.2539 87.8443 21.0623L86.8932 21.6163C86.5555 20.9624 86.0538 20.4393 85.388 20.0494C84.7223 19.6618 83.9899 19.4668 83.1934 19.4668C81.8523 19.4668 80.7561 19.9019 79.9073 20.7722C79.0584 21.6425 78.6328 22.7125 78.6328 23.9798C78.6328 25.2495 79.0584 26.3195 79.9073 27.1898C80.7561 28.0601 81.8523 28.4952 83.1934 28.4952C83.9923 28.4952 84.7223 28.3002 85.388 27.9103C86.0538 27.5227 86.5555 26.9996 86.8932 26.3433L87.8443 26.8807C87.4044 27.6891 86.7671 28.3335 85.9325 28.8162C85.1003 29.2965 84.1849 29.5367 83.1934 29.5367Z" fill="#9CA6C0"/>
<path d="M98.499 27.9174C97.4242 28.9969 96.1093 29.5367 94.5543 29.5367C92.9992 29.5367 91.6843 28.9969 90.6096 27.9174C89.5348 26.8379 88.9974 25.5254 88.9974 23.9798C88.9974 22.4343 89.5348 21.1217 90.6096 20.0422C91.6843 18.9627 92.9992 18.423 94.5543 18.423C96.1093 18.423 97.4242 18.9627 98.499 20.0422C99.5737 21.1217 100.111 22.4343 100.111 23.9798C100.111 25.5254 99.5737 26.8379 98.499 27.9174ZM91.3609 27.1803C92.2193 28.0553 93.2846 28.4928 94.5543 28.4928C95.824 28.4928 96.8869 28.0553 97.7476 27.1803C98.6084 26.3053 99.0364 25.2377 99.0364 23.9798C99.0364 22.722 98.606 21.6544 97.7476 20.7793C96.8892 19.9043 95.824 19.4668 94.5543 19.4668C93.2846 19.4668 92.2217 19.9043 91.3609 20.7793C90.5026 21.6544 90.0722 22.722 90.0722 23.9798C90.0722 25.2377 90.5026 26.3053 91.3609 27.1803Z" fill="#9CA6C0"/>
<path d="M111.779 18.606V29.3535H110.704V20.2347L106.942 26.5287H106.788L103.026 20.2347V29.3535H101.952V18.606H103.288L106.864 24.5932L110.443 18.606H111.779Z" fill="#9CA6C0"/>
<path d="M124.06 18.606V29.3535H122.985V20.2347L119.224 26.5287H119.069L115.308 20.2347V29.3535H114.233V18.606H115.569L119.145 24.5932L122.724 18.606H124.06Z" fill="#9CA6C0"/>
<path d="M133.241 28.4927C132.503 29.1894 131.54 29.5366 130.354 29.5366C129.167 29.5366 128.204 29.1894 127.467 28.4927C126.73 27.796 126.362 26.8639 126.362 25.6988V18.606H127.436V25.6988C127.436 26.5596 127.693 27.2396 128.204 27.7413C128.716 28.243 129.431 28.4927 130.354 28.4927C131.274 28.4927 131.992 28.243 132.503 27.7413C133.015 27.2396 133.271 26.5596 133.271 25.6988V18.606H134.346V25.6988C134.346 26.8663 133.978 27.796 133.241 28.4927Z" fill="#9CA6C0"/>
<path d="M143.558 18.606H144.632V29.3535H143.712L137.725 20.6033V29.3535H136.65V18.606H137.57L143.558 27.3561V18.606Z" fill="#9CA6C0"/>
<path d="M147.089 18.606H148.163V29.3535H147.089V18.606Z" fill="#9CA6C0"/>
<path d="M155.642 29.5367C154.013 29.5367 152.667 28.9993 151.604 27.9245C150.539 26.8498 150.009 25.5349 150.009 23.9798C150.009 22.4248 150.541 21.1099 151.604 20.0351C152.669 18.9603 154.015 18.423 155.642 18.423C156.633 18.423 157.546 18.6608 158.374 19.1363C159.203 19.6119 159.843 20.2539 160.292 21.0623L159.341 21.6163C159.004 20.9624 158.502 20.4393 157.836 20.0494C157.171 19.6618 156.438 19.4668 155.642 19.4668C154.301 19.4668 153.204 19.9019 152.356 20.7722C151.507 21.6425 151.081 22.7125 151.081 23.9798C151.081 25.2495 151.507 26.3195 152.356 27.1898C153.204 28.0601 154.301 28.4952 155.642 28.4952C156.441 28.4952 157.171 28.3002 157.836 27.9103C158.502 27.5227 159.004 26.9996 159.341 26.3433L160.292 26.8807C159.853 27.6891 159.215 28.3335 158.381 28.8162C157.546 29.2965 156.633 29.5367 155.642 29.5367Z" fill="#9CA6C0"/>
<path d="M169.059 29.3535L168.061 26.7118H162.963L161.964 29.3535H160.83L164.958 18.606H166.063L170.194 29.3535H169.059ZM163.348 25.6988H167.678L165.512 19.9423L163.348 25.6988Z" fill="#9CA6C0"/>
<path d="M177.564 18.606V19.6189H174.264V29.3511H173.189V19.6189H169.889V18.606H177.564Z" fill="#9CA6C0"/>
<path d="M179.101 18.606H180.175V29.3535H179.101V18.606Z" fill="#9CA6C0"/>
<path d="M191.52 27.9174C190.445 28.9969 189.13 29.5367 187.575 29.5367C186.02 29.5367 184.705 28.9969 183.63 27.9174C182.555 26.8379 182.018 25.5254 182.018 23.9798C182.018 22.4343 182.555 21.1217 183.63 20.0422C184.705 18.9627 186.02 18.423 187.575 18.423C189.13 18.423 190.445 18.9627 191.52 20.0422C192.594 21.1217 193.132 22.4343 193.132 23.9798C193.132 25.5254 192.594 26.8379 191.52 27.9174ZM184.379 27.1803C185.24 28.0553 186.303 28.4928 187.573 28.4928C188.842 28.4928 189.905 28.0553 190.766 27.1803C191.624 26.3053 192.055 25.2377 192.055 23.9798C192.055 22.722 191.624 21.6544 190.766 20.7793C189.905 19.9043 188.842 19.4668 187.573 19.4668C186.303 19.4668 185.24 19.9043 184.379 20.7793C183.521 21.6544 183.09 22.722 183.09 23.9798C183.09 25.2377 183.521 26.3053 184.379 27.1803Z" fill="#9CA6C0"/>
<path d="M201.882 18.606H202.957V29.3535H202.036L196.049 20.6033V29.3535H194.974V18.606H195.895L201.882 27.3561V18.606Z" fill="#9CA6C0"/>
<path d="M84.9291 37.0288V38.0417H81.6287V47.7739H80.554V38.0417H77.2537V37.0288H84.9291Z" fill="#9CA6C0"/>
<path d="M87.5374 46.7634H92.7566V47.7763H86.4626V37.0288H92.6805V38.0417H87.5374V41.8485H92.2977V42.8615H87.5374V46.7634Z" fill="#9CA6C0"/>
<path d="M99.5452 47.9596C97.9164 47.9596 96.5706 47.4223 95.5077 46.3475C94.4425 45.2728 93.9122 43.9578 93.9122 42.4028C93.9122 40.8477 94.4448 39.5328 95.5077 38.4581C96.573 37.3833 97.9188 36.8459 99.5452 36.8459C100.537 36.8459 101.45 37.0837 102.277 37.5593C103.107 38.0348 103.747 38.6768 104.196 39.4853L103.245 40.0393C102.907 39.3854 102.406 38.8623 101.74 38.4723C101.074 38.0848 100.342 37.8898 99.5452 37.8898C98.2041 37.8898 97.108 38.3249 96.2591 39.1952C95.4102 40.0654 94.9846 41.1354 94.9846 42.4028C94.9846 43.6725 95.4102 44.7425 96.2591 45.6128C97.108 46.483 98.2041 46.9182 99.5452 46.9182C100.344 46.9182 101.074 46.7232 101.74 46.3332C102.406 45.9457 102.907 45.4226 103.245 44.7663L104.196 45.3037C103.756 46.1121 103.119 46.7565 102.284 47.2392C101.45 47.7195 100.537 47.9596 99.5452 47.9596Z" fill="#9CA6C0"/>
<path d="M112.87 37.0288H113.945V47.7763H112.87V42.7569H107.035V47.7763H105.961V37.0288H107.035V41.7415H112.87V37.0288Z" fill="#9CA6C0"/>
<path d="M123.309 37.0288H124.383V47.7763H123.463L117.476 39.0261V47.7763H116.401V37.0288H117.321L123.309 45.779V37.0288Z" fill="#9CA6C0"/>
<path d="M135.73 46.3404C134.655 47.4199 133.34 47.9596 131.785 47.9596C130.23 47.9596 128.915 47.4199 127.841 46.3404C126.766 45.2609 126.229 43.9483 126.229 42.4028C126.229 40.8572 126.766 39.5447 127.841 38.4652C128.915 37.3857 130.23 36.8459 131.785 36.8459C133.34 36.8459 134.655 37.3857 135.73 38.4652C136.805 39.5447 137.342 40.8572 137.342 42.4028C137.342 43.9483 136.805 45.2609 135.73 46.3404ZM128.59 45.6033C129.448 46.4783 130.513 46.9158 131.783 46.9158C133.053 46.9158 134.116 46.4783 134.976 45.6033C135.837 44.7282 136.265 43.6606 136.265 42.4028C136.265 41.145 135.835 40.0773 134.976 39.2023C134.118 38.3273 133.053 37.8898 131.783 37.8898C130.513 37.8898 129.45 38.3273 128.59 39.2023C127.731 40.0773 127.301 41.145 127.301 42.4028C127.301 43.6606 127.731 44.7282 128.59 45.6033Z" fill="#9CA6C0"/>
<path d="M140.257 46.7634H145.17V47.7763H139.182V37.0288H140.257V46.7634Z" fill="#9CA6C0"/>
<path d="M154.828 46.3404C153.754 47.4199 152.439 47.9596 150.884 47.9596C149.329 47.9596 148.014 47.4199 146.939 46.3404C145.864 45.2609 145.327 43.9483 145.327 42.4028C145.327 40.8572 145.864 39.5447 146.939 38.4652C148.014 37.3857 149.329 36.8459 150.884 36.8459C152.439 36.8459 153.754 37.3857 154.828 38.4652C155.903 39.5447 156.441 40.8572 156.441 42.4028C156.441 43.9483 155.903 45.2609 154.828 46.3404ZM147.688 45.6033C148.546 46.4783 149.612 46.9158 150.881 46.9158C152.151 46.9158 153.214 46.4783 154.075 45.6033C154.935 44.7282 155.363 43.6606 155.363 42.4028C155.363 41.145 154.933 40.0773 154.075 39.2023C153.216 38.3273 152.151 37.8898 150.881 37.8898C149.612 37.8898 148.549 38.3273 147.688 39.2023C146.83 40.0773 146.399 41.145 146.399 42.4028C146.399 43.6606 146.83 44.7282 147.688 45.6033Z" fill="#9CA6C0"/>
<path d="M168.553 42.6644V43.2184C168.553 44.5476 168.077 45.6723 167.126 46.5877C166.175 47.5032 164.901 47.9621 163.303 47.9621C161.674 47.9621 160.331 47.4247 159.265 46.3499C158.2 45.2752 157.67 43.9603 157.67 42.4052C157.67 40.8502 158.202 39.5353 159.265 38.4605C160.331 37.3858 161.674 36.8484 163.303 36.8484C164.297 36.8484 165.207 37.0885 166.035 37.5712C166.865 38.0515 167.504 38.6912 167.954 39.4901L167.003 40.0441C166.665 39.3902 166.163 38.8671 165.497 38.4772C164.832 38.0896 164.099 37.8946 163.303 37.8946C161.962 37.8946 160.868 38.3297 160.017 39.2C159.168 40.0703 158.742 41.1403 158.742 42.4076C158.742 43.6773 159.168 44.7473 160.017 45.6176C160.866 46.4879 161.962 46.923 163.303 46.923C164.511 46.923 165.478 46.6186 166.206 46.0099C166.931 45.4012 167.347 44.6261 167.45 43.6845H163.181V42.6715H168.553V42.6644Z" fill="#9CA6C0"/>
<path d="M177.379 37.0288L173.496 43.3703V47.7763H172.421V43.3394L168.553 37.0288H169.766L172.973 42.2956L176.166 37.0288H177.379Z" fill="#9CA6C0"/>
<path d="M70.886 0H69.6068V48H70.886V0Z" fill="#9CA6C0"/>
<path d="M0 0.637207H6.11562V31.6552H0V0.637207Z" fill="#9CA6C0"/>
<path d="M26.5858 32.2759C21.9182 32.2759 18.0615 30.7256 15.0203 27.6226C11.9768 24.522 10.4574 20.6962 10.4574 16.1475C10.4574 11.5679 11.9792 7.73496 15.0203 4.64862C18.0615 1.56227 21.9182 0.0167236 26.5858 0.0167236C29.3916 0.0167236 31.9833 0.675365 34.3611 1.98789C36.7389 3.3028 38.5935 5.08375 39.9227 7.32836L34.6488 10.3862C33.8808 8.99755 32.787 7.91329 31.3699 7.12863C29.9527 6.34634 28.3572 5.95401 26.5834 5.95401C23.5708 5.95401 21.1407 6.90036 19.2932 8.79069C17.4457 10.681 16.5231 13.1325 16.5231 16.1475C16.5231 19.1316 17.4457 21.5688 19.2932 23.4591C21.1383 25.3495 23.5684 26.2934 26.5834 26.2934C28.3549 26.2934 29.9575 25.9035 31.3913 25.1188C32.8227 24.3365 33.9093 23.2642 34.6488 21.9065L39.9227 24.9643C38.5935 27.2089 36.746 28.9898 34.3849 30.3047C32.0214 31.6196 29.4225 32.2759 26.5858 32.2759Z" fill="#9CA6C0"/>
<path d="M64.0737 0.637207V6.48652H55.6992V31.6552H49.5836V6.48652H41.2543V0.637207H64.0737Z" fill="#9CA6C0"/>
<path d="M10.8569 42.1007V42.9162C10.8569 44.4261 10.3742 45.6507 9.40645 46.5851C8.4387 47.522 7.19037 47.9904 5.66147 47.9904C4.03032 47.9904 2.67737 47.4602 1.60737 46.3973C0.534998 45.3344 0 44.0386 0 42.5073C0 40.9665 0.530242 39.6635 1.5931 38.5958C2.65597 37.5282 3.97087 36.9956 5.54258 36.9956C6.52935 36.9956 7.43053 37.2191 8.2461 37.6685C9.06167 38.1179 9.69654 38.7124 10.1483 39.459L8.36499 40.4862C8.11294 40.0534 7.7325 39.7015 7.22366 39.4281C6.71482 39.157 6.14891 39.0191 5.52356 39.0191C4.51776 39.0191 3.68792 39.3496 3.03879 40.0082C2.38966 40.6669 2.0639 41.5015 2.0639 42.5073C2.0639 43.5036 2.39441 44.3263 3.05305 44.9778C3.7117 45.6269 4.58671 45.9527 5.67335 45.9527C6.47942 45.9527 7.14519 45.7743 7.67544 45.4177C8.2033 45.061 8.56472 44.5688 8.75494 43.9458H5.55447V42.103H10.8569V42.1007Z" fill="#9CA6C0"/>
<path d="M21.457 47.7788L19.3289 44.1099H17.7429V47.7788H15.6576V37.2073H19.8853C20.8625 37.2073 21.6924 37.5497 22.3772 38.2345C23.062 38.9193 23.4044 39.7444 23.4044 40.7121C23.4044 41.366 23.2165 41.9723 22.8456 42.5311C22.4723 43.0899 21.9801 43.5107 21.3642 43.7913L23.7063 47.7788H21.457ZM17.7429 39.1547V42.2814H19.8876C20.28 42.2814 20.6176 42.1269 20.9006 41.8201C21.1835 41.5134 21.3238 41.1425 21.3238 40.7097C21.3238 40.277 21.1835 39.9084 20.9006 39.6064C20.6176 39.3045 20.2824 39.1547 19.8876 39.1547H17.7429Z" fill="#9CA6C0"/>
<path d="M37.029 46.3973C35.9614 47.4602 34.6631 47.9904 33.1318 47.9904C31.6005 47.9904 30.3046 47.4602 29.2418 46.3973C28.1789 45.3344 27.6487 44.0338 27.6487 42.493C27.6487 40.9522 28.1789 39.6516 29.2418 38.5887C30.3046 37.5258 31.6005 36.9956 33.1318 36.9956C34.6631 36.9956 35.9614 37.5258 37.029 38.5887C38.0966 39.6516 38.6292 40.9522 38.6292 42.493C38.6292 44.0338 38.0966 45.3344 37.029 46.3973ZM30.7017 44.9778C31.3556 45.6269 32.1664 45.9527 33.1342 45.9527C34.0996 45.9527 34.9104 45.6269 35.5666 44.9778C36.2205 44.3286 36.5487 43.5012 36.5487 42.493C36.5487 41.4848 36.2205 40.655 35.5666 40.0011C34.9128 39.3472 34.1019 39.0191 33.1342 39.0191C32.1688 39.0191 31.358 39.3472 30.7017 40.0011C30.0478 40.655 29.7197 41.4848 29.7197 42.493C29.7197 43.4988 30.0455 44.3286 30.7017 44.9778Z" fill="#9CA6C0"/>
<path d="M47.2843 47.9905C46.1074 47.9905 45.1396 47.6576 44.3858 46.9942C43.6321 46.3308 43.254 45.4391 43.254 44.3216V37.2073H45.3227V44.1551C45.3227 44.7091 45.482 45.1466 45.7982 45.47C46.1145 45.7934 46.6114 45.9527 47.2867 45.9527C47.962 45.9527 48.4566 45.791 48.7752 45.47C49.0915 45.149 49.2508 44.7091 49.2508 44.1551V37.2073H51.3361V44.3216C51.3361 45.4391 50.958 46.3308 50.2043 46.9942C49.4505 47.6576 48.4709 47.9905 47.2843 47.9905Z" fill="#9CA6C0"/>
<path d="M60.4691 37.2073C61.4868 37.2073 62.3428 37.5497 63.0371 38.2345C63.7314 38.9193 64.0785 39.761 64.0785 40.7573C64.0785 41.7536 63.7314 42.5953 63.0371 43.2801C62.3428 43.9649 61.4868 44.3073 60.4691 44.3073H58.612V47.7812H56.5267V37.2097H60.4691V37.2073ZM60.4691 42.3575C60.9113 42.3575 61.2799 42.203 61.5724 41.8962C61.8648 41.5895 62.0099 41.2091 62.0099 40.7573C62.0099 40.2936 61.8648 39.9108 61.5724 39.6088C61.2799 39.3068 60.9137 39.157 60.4691 39.157H58.612V42.3575H60.4691Z" fill="#9CA6C0"/>
</svg>
