<svg width="200" height="52" viewBox="0 0 200 52" fill="none" xmlns="http://www.w3.org/2000/svg">
<path d="M192.593 52H7.40741C3.33519 52 0 49.0734 0 45.5V6.5C0 2.92663 3.33519 2.74817e-06 7.40741 2.74817e-06H192.593C196.665 2.74817e-06 200 2.92663 200 6.5V45.5C200 49.0734 196.665 52 192.593 52Z" fill="#080708"/>
<path d="M60.8493 41.1314H57.4415V30.8457L60.8493 32.4457V41.1314Z" fill="white"/>
<path d="M76.8587 41.1314H73.4509V30.8457H76.8587V41.1314Z" fill="white"/>
<path d="M76.5355 29.3551C76.1508 29.7393 75.6906 29.9314 75.1548 29.9314C74.619 29.9314 74.1519 29.7393 73.7535 29.3551C73.3688 28.9571 73.1765 28.4906 73.1765 27.9554C73.1765 27.4203 73.3688 26.9606 73.7535 26.5763C74.1519 26.1921 74.619 26 75.1548 26C75.6906 26 76.1508 26.1921 76.5355 26.5763C76.9339 26.9606 77.1331 27.4203 77.1331 27.9554C77.1331 28.4906 76.9339 28.9571 76.5355 29.3551Z" fill="white"/>
<path d="M60.5261 29.3562C60.1414 29.7404 59.6812 29.9325 59.1454 29.9325C58.6096 29.9325 58.1425 29.7404 57.7441 29.3562C57.3594 28.9582 57.1671 28.4917 57.1671 27.9565C57.1671 27.4214 57.3594 26.9617 57.7441 26.5774C58.1425 26.1932 58.6096 26.0011 59.1454 26.0011C59.6812 26.0011 60.1414 26.1932 60.5261 26.5774C60.9245 26.9617 61.1237 27.4214 61.1237 27.9565C61.1237 28.4917 60.9245 28.9582 60.5261 29.3562Z" fill="white"/>
<path d="M71.5756 26.7318V30.2907H66.4091V32.6358H71.4726V36.1946H66.4091V41.1318H62.7246V26.7318H71.5756Z" fill="white"/>
<path d="M85.0106 30.5485C86.1493 30.5485 87.065 30.9362 87.7579 31.7117C88.4507 32.4873 88.7971 33.5751 88.7971 34.9751V41.1313H85.381V35.4075C85.381 34.8859 85.2438 34.4844 84.9693 34.2029C84.6949 33.9215 84.3176 33.7808 83.8375 33.7809C83.3024 33.7809 82.8874 33.9421 82.5924 34.2647C82.2975 34.5873 82.15 35.0505 82.15 35.6544V41.1313H78.734V30.8367H82.1501V31.8662C82.7675 30.9877 83.721 30.5485 85.0106 30.5485Z" fill="white"/>
<path d="M109.231 30.5485C110.369 30.5485 111.285 30.9362 111.978 31.7117C112.671 32.4873 113.017 33.5751 113.017 34.9751V41.1313H109.601V35.4075C109.601 34.8859 109.464 34.4844 109.189 34.2029C108.915 33.9215 108.538 33.7808 108.057 33.7809C107.522 33.7809 107.107 33.9421 106.812 34.2647C106.517 34.5873 106.37 35.0505 106.37 35.6544V41.1313H102.954V30.8367H106.37V31.8662C106.987 30.9877 107.941 30.5485 109.231 30.5485Z" fill="white"/>
<path d="M119.755 41.4056C118.189 41.4056 116.885 40.8847 115.841 39.8428C114.797 38.801 114.275 37.5124 114.275 35.977C114.275 34.4417 114.797 33.1531 115.841 32.1112C116.885 31.0694 118.189 30.5485 119.755 30.5485C120.772 30.5485 121.695 30.7849 122.526 31.2579C123.357 31.7308 123.999 32.3785 124.452 33.201L121.527 34.8872C121.156 34.2155 120.559 33.8796 119.735 33.8796C119.158 33.8796 118.677 34.075 118.292 34.4657C117.908 34.8564 117.716 35.3601 117.716 35.977C117.716 36.5939 117.908 37.0977 118.292 37.4884C118.677 37.8791 119.158 38.0744 119.735 38.0744C120.572 38.0744 121.17 37.7317 121.527 37.0463L124.452 38.7324C123.999 39.5549 123.357 40.2061 122.526 40.6859C121.695 41.1657 120.772 41.4056 119.755 41.4056Z" fill="white"/>
<path d="M135.675 37.0943H128.568C128.911 37.9305 129.68 38.3486 130.875 38.3486C131.603 38.3486 132.228 38.1087 132.75 37.6289L135.222 39.3561C134.219 40.631 132.743 41.2685 130.792 41.2685C129.048 41.2685 127.647 40.7613 126.59 39.7468C125.546 38.7187 125.024 37.4233 125.024 35.8605C125.024 34.3114 125.539 33.016 126.569 31.9742C127.599 30.9323 128.911 30.4114 130.504 30.4114C132.042 30.4114 133.313 30.9254 134.315 31.9536C135.318 32.968 135.819 34.2566 135.819 35.8194C135.819 36.2992 135.771 36.7241 135.675 37.0943ZM128.526 34.7295H132.482C132.221 33.7699 131.575 33.2902 130.545 33.2902C129.488 33.2902 128.815 33.7699 128.526 34.7295Z" fill="white"/>
<path d="M97.8197 31.7822V30.8363H101.239V41.1177H97.8197V40.1718C97.1194 40.9943 96.1445 41.4056 94.895 41.4056C93.5082 41.4056 92.3548 40.8915 91.4349 39.8634C90.5149 38.8215 90.0549 37.5261 90.0549 35.977C90.0549 34.4142 90.5149 33.1257 91.4349 32.1112C92.3548 31.0694 93.5082 30.5485 94.895 30.5485C96.1445 30.5485 97.1194 30.9597 97.8197 31.7822ZM94.0918 37.6015C94.4762 38.0127 94.998 38.2184 95.6571 38.2184C96.3162 38.2184 96.8379 38.0127 97.2224 37.6015C97.6206 37.1765 97.8197 36.635 97.8197 35.977C97.8197 35.319 97.6206 34.7775 97.2224 34.3526C96.8379 33.9413 96.3162 33.7357 95.6571 33.7357C94.998 33.7357 94.4762 33.9413 94.0918 34.3526C93.6936 34.7775 93.4945 35.319 93.4945 35.977C93.4945 36.635 93.6936 37.1765 94.0918 37.6015Z" fill="white"/>
<path d="M64.1653 14.4889C64.1653 16.019 63.6947 17.1708 62.7547 17.9443C61.884 18.658 60.6467 19.0155 59.044 19.0155C58.2493 19.0155 57.5693 18.9817 57 18.9141V10.5538C57.7427 10.4368 58.5427 10.377 59.4067 10.377C60.9333 10.377 62.084 10.7007 62.86 11.3481C63.7293 12.08 64.1653 13.1265 64.1653 14.4889ZM62.692 14.5266C62.692 13.5347 62.4227 12.7742 61.884 12.2438C61.3453 11.7147 60.5587 11.4495 59.5227 11.4495C59.0827 11.4495 58.708 11.4781 58.3973 11.5379V17.8936C58.5693 17.9196 58.884 17.9313 59.3413 17.9313C60.4107 17.9313 61.236 17.6414 61.8173 17.0616C62.3987 16.4818 62.692 15.6368 62.692 14.5266Z" fill="white"/>
<path d="M71.9773 15.8253C71.9773 16.7678 71.7013 17.54 71.1493 18.1458C70.5706 18.7685 69.804 19.0792 68.8466 19.0792C67.924 19.0792 67.1893 18.7815 66.6413 18.1835C66.0946 17.5868 65.8213 16.8341 65.8213 15.9267C65.8213 14.9777 66.1026 14.199 66.668 13.5945C67.2333 12.99 67.9933 12.6871 68.9506 12.6871C69.8733 12.6871 70.6146 12.9848 71.176 13.5815C71.7093 14.1613 71.9773 14.9101 71.9773 15.8253ZM70.528 15.8695C70.528 15.304 70.4026 14.8191 70.1533 14.4148C69.86 13.926 69.4426 13.6816 68.9 13.6816C68.3386 13.6816 67.912 13.926 67.6186 14.4148C67.368 14.8191 67.244 15.3118 67.244 15.8942C67.244 16.4597 67.3693 16.9446 67.6186 17.3489C67.9213 17.8377 68.3426 18.0821 68.8866 18.0821C69.42 18.0821 69.8386 17.8338 70.14 17.3359C70.3986 16.9238 70.528 16.435 70.528 15.8695Z" fill="white"/>
<path d="M82.452 12.8119L80.4853 18.9401H79.2053L78.3907 16.279C78.184 15.6147 78.016 14.9543 77.8853 14.2991H77.86C77.7387 14.9725 77.5707 15.6316 77.3547 16.279L76.4893 18.9401H75.1947L73.3453 12.8119H74.7813L75.492 15.7252C75.664 16.4142 75.8053 17.0707 75.9187 17.6921H75.944C76.048 17.1799 76.22 16.5273 76.4627 15.7382L77.3547 12.8132H78.4933L79.348 15.6758C79.5547 16.3739 79.7227 17.046 79.852 17.6934H79.8907C79.9853 17.0629 80.128 16.3908 80.3173 15.6758L81.08 12.8132H82.452V12.8119Z" fill="white"/>
<path d="M89.696 18.9401H88.2986V15.4301C88.2986 14.3485 87.8773 13.8077 87.032 13.8077C86.6173 13.8077 86.2826 13.9559 86.0226 14.2536C85.7653 14.5513 85.6346 14.9023 85.6346 15.304V18.9388H84.2373V14.563C84.2373 14.0248 84.22 13.4411 84.1866 12.8093H85.4146L85.48 13.7674H85.5186C85.6813 13.4697 85.924 13.224 86.2426 13.0277C86.6213 12.7989 87.0453 12.6832 87.5093 12.6832C88.096 12.6832 88.584 12.8678 88.972 13.2383C89.4546 13.692 89.696 14.3693 89.696 15.2689V18.9401Z" fill="white"/>
<path d="M93.5493 18.9401H92.1533V10H93.5493V18.9401Z" fill="white"/>
<path d="M101.776 15.8253C101.776 16.7678 101.5 17.54 100.948 18.1458C100.369 18.7685 99.6013 19.0792 98.6453 19.0792C97.7213 19.0792 96.9867 18.7815 96.44 18.1835C95.8933 17.5868 95.62 16.8341 95.62 15.9267C95.62 14.9777 95.9013 14.199 96.4667 13.5945C97.032 12.99 97.792 12.6871 98.748 12.6871C99.672 12.6871 100.412 12.9848 100.975 13.5815C101.508 14.1613 101.776 14.9101 101.776 15.8253ZM100.325 15.8695C100.325 15.304 100.2 14.8191 99.9507 14.4148C99.6587 13.926 99.24 13.6816 98.6987 13.6816C98.136 13.6816 97.7093 13.926 97.4173 14.4148C97.1667 14.8191 97.0427 15.3118 97.0427 15.8942C97.0427 16.4597 97.168 16.9446 97.4173 17.3489C97.72 17.8377 98.1413 18.0821 98.6853 18.0821C99.2187 18.0821 99.636 17.8338 99.9373 17.3359C100.197 16.9238 100.325 16.435 100.325 15.8695Z" fill="white"/>
<path d="M108.539 18.9401H107.284L107.18 18.2342H107.141C106.712 18.7971 106.1 19.0792 105.305 19.0792C104.712 19.0792 104.232 18.8933 103.871 18.5241C103.543 18.1887 103.379 17.7714 103.379 17.2761C103.379 16.5273 103.699 15.9566 104.343 15.5614C104.985 15.1662 105.889 14.9725 107.053 14.9816V14.8672C107.053 14.0599 106.619 13.6569 105.748 13.6569C105.128 13.6569 104.581 13.809 104.109 14.1106L103.825 13.2162C104.409 12.8639 105.131 12.6871 105.981 12.6871C107.624 12.6871 108.448 13.5321 108.448 15.2221V17.4789C108.448 18.0912 108.479 18.5787 108.539 18.9401ZM107.088 16.8341V15.889C105.547 15.863 104.776 16.2751 104.776 17.124C104.776 17.4438 104.864 17.683 105.044 17.8429C105.224 18.0028 105.453 18.0821 105.727 18.0821C106.033 18.0821 106.32 17.9872 106.581 17.7987C106.844 17.6089 107.005 17.3684 107.065 17.0733C107.08 17.007 107.088 16.9264 107.088 16.8341Z" fill="white"/>
<path d="M116.479 18.9401H115.239L115.173 17.956H115.135C114.739 18.7048 114.064 19.0792 113.116 19.0792C112.359 19.0792 111.728 18.7893 111.228 18.2095C110.728 17.6297 110.479 16.877 110.479 15.9527C110.479 14.9608 110.749 14.1574 111.293 13.5438C111.82 12.9718 112.465 12.6858 113.233 12.6858C114.077 12.6858 114.668 12.9627 115.004 13.5178H115.031V10H116.429V17.2891C116.429 17.8858 116.445 18.4357 116.479 18.9401ZM115.031 16.3557V15.3339C115.031 15.1571 115.017 15.0141 114.992 14.9049C114.913 14.5773 114.744 14.3017 114.487 14.0794C114.227 13.8571 113.913 13.7453 113.552 13.7453C113.031 13.7453 112.623 13.9468 112.323 14.3511C112.025 14.7554 111.875 15.2715 111.875 15.902C111.875 16.5078 112.017 16.9992 112.304 17.3775C112.607 17.7805 113.015 17.982 113.525 17.982C113.984 17.982 114.351 17.8143 114.629 17.4776C114.899 17.1669 115.031 16.7925 115.031 16.3557Z" fill="white"/>
<path d="M128.429 15.8253C128.429 16.7678 128.153 17.54 127.601 18.1458C127.023 18.7685 126.257 19.0792 125.299 19.0792C124.377 19.0792 123.643 18.7815 123.093 18.1835C122.547 17.5868 122.273 16.8341 122.273 15.9267C122.273 14.9777 122.555 14.199 123.12 13.5945C123.685 12.99 124.445 12.6871 125.404 12.6871C126.325 12.6871 127.068 12.9848 127.628 13.5815C128.161 14.1613 128.429 14.9101 128.429 15.8253ZM126.981 15.8695C126.981 15.304 126.856 14.8191 126.607 14.4148C126.312 13.926 125.896 13.6816 125.352 13.6816C124.792 13.6816 124.365 13.926 124.071 14.4148C123.82 14.8191 123.696 15.3118 123.696 15.8942C123.696 16.4597 123.821 16.9446 124.071 17.3489C124.373 17.8377 124.795 18.0821 125.339 18.0821C125.872 18.0821 126.292 17.8338 126.593 17.3359C126.851 16.9238 126.981 16.435 126.981 15.8695Z" fill="white"/>
<path d="M135.943 18.9401H134.547V15.4301C134.547 14.3485 134.125 13.8077 133.279 13.8077C132.864 13.8077 132.529 13.9559 132.271 14.2536C132.012 14.5513 131.883 14.9023 131.883 15.304V18.9388H130.484V14.563C130.484 14.0248 130.468 13.4411 130.435 12.8093H131.661L131.727 13.7674H131.765C131.929 13.4697 132.172 13.224 132.489 13.0277C132.869 12.7989 133.292 12.6832 133.757 12.6832C134.343 12.6832 134.831 12.8678 135.219 13.2383C135.703 13.692 135.943 14.3693 135.943 15.2689V18.9401Z" fill="white"/>
<path d="M145.347 13.8325H143.808V16.8095C143.808 17.5661 144.081 17.9444 144.623 17.9444C144.873 17.9444 145.081 17.9236 145.245 17.8807L145.281 18.9142C145.005 19.0156 144.643 19.0663 144.196 19.0663C143.644 19.0663 143.215 18.9025 142.904 18.5749C142.592 18.2473 142.437 17.6961 142.437 16.9226V13.8325H141.519V12.812H142.437V11.6888L143.807 11.2858V12.8107H145.345V13.8325H145.347Z" fill="white"/>
<path d="M152.744 18.9401H151.345V15.4561C151.345 14.3576 150.924 13.8077 150.08 13.8077C149.432 13.8077 148.989 14.1262 148.747 14.7632C148.705 14.8971 148.681 15.0609 148.681 15.2533V18.9388H147.285V10H148.681V13.6933H148.708C149.148 13.0212 149.779 12.6858 150.596 12.6858C151.175 12.6858 151.653 12.8704 152.033 13.2409C152.507 13.7024 152.744 14.3888 152.744 15.2962V18.9401Z" fill="white"/>
<path d="M160.375 15.5861C160.375 15.8305 160.356 16.0359 160.323 16.2036H156.132C156.151 16.8094 156.351 17.2709 156.739 17.5907C157.093 17.8767 157.551 18.0197 158.111 18.0197C158.731 18.0197 159.296 17.9235 159.805 17.7298L160.024 18.6762C159.428 18.9284 158.727 19.0545 157.915 19.0545C156.941 19.0545 156.175 18.775 155.62 18.216C155.063 17.657 154.787 16.9069 154.787 15.9657C154.787 15.0414 155.044 14.2718 155.563 13.6582C156.104 13.003 156.836 12.6754 157.76 12.6754C158.664 12.6754 159.351 13.003 159.815 13.6582C160.189 14.1782 160.375 14.8217 160.375 15.5861ZM159.041 15.2338C159.052 14.8295 158.96 14.4811 158.771 14.1873C158.528 13.809 158.159 13.6192 157.659 13.6192C157.203 13.6192 156.831 13.8038 156.547 14.1743C156.315 14.4694 156.177 14.8217 156.132 15.2338H159.041Z" fill="white"/>
<path fill-rule="evenodd" clip-rule="evenodd" d="M25.0335 35.7966C26.7498 33.7206 28.7255 31.0686 30.9581 27.7669L24.7489 25.6105C27.3973 20.9763 31.4354 16.3822 35.5041 12.95C36.8297 11.8316 38.1581 10.8338 39.4419 10C37.9796 10.6998 36.4475 11.5771 34.9126 12.5918C33.8159 11.9924 32.5962 11.6608 31.3098 11.6608C27.7712 11.6608 24.7237 14.1923 23.3619 17.832C22.7451 19.4762 22.4996 21.2843 22.6363 23.0758C22.2796 21.3673 22.2815 19.6034 22.6419 17.8957C18.8995 18.4381 16 22.2621 16 26.8997C16 31.9157 19.3907 35.9706 23.56 35.9706C24.0563 35.9704 24.5508 35.912 25.0335 35.7965V35.7966Z" fill="white"/>
<path fill-rule="evenodd" clip-rule="evenodd" d="M19.2764 40.1931C18.9974 39.3359 19.3992 37.6215 20.5462 35.2206C20.0789 34.976 19.64 34.6806 19.2374 34.34C17.1053 38.6294 17.2392 40.8862 19.2764 40.1931Z" fill="white"/>
<path opacity="0.2" fill-rule="evenodd" clip-rule="evenodd" d="M28.441 31.37C25.5777 34.5409 22.5098 35.531 19.2373 34.34C20.4623 35.3681 21.9525 35.9707 23.56 35.9707C23.9155 35.971 24.2703 35.9408 24.6205 35.8804C25.7647 34.6548 27.04 33.1581 28.441 31.37Z" fill="white"/>
<path fill-rule="evenodd" clip-rule="evenodd" d="M25.0335 35.7966C26.0744 34.5376 27.2102 33.0676 28.4409 31.37C27.04 33.158 25.7646 34.6548 24.6205 35.8804C18.1488 42.8117 15.8772 41.104 19.2373 34.34C19.0475 34.1827 18.8633 34.0119 18.6875 33.8344C14.3619 42.2726 16.5248 46.0831 25.0335 35.7966Z" fill="white"/>
<path opacity="0.7" fill-rule="evenodd" clip-rule="evenodd" d="M19.9014 33.8111C16.4939 29.0529 17.8726 23.9431 21.7013 21.7532C21.612 20.8892 21.6064 20.022 21.7152 19.0142C18.8129 19.9852 16.7367 23.183 16.7367 26.8998C16.7367 29.8465 18.0176 32.3713 19.9013 33.8111L19.9014 33.8111Z" fill="white"/>
<path opacity="0.7" fill-rule="evenodd" clip-rule="evenodd" d="M23.4318 23.8092C23.6159 17.2128 27.7099 14.1589 32.1415 14.9056C32.7555 14.3029 33.3918 13.7102 34.0504 13.1209C30.1461 11.4065 25.7508 13.5998 24.0318 18.1938C23.295 20.1661 23.2727 21.7298 23.4318 23.8092Z" fill="white"/>
<path fill-rule="evenodd" clip-rule="evenodd" d="M42.4725 31.6513C42.4456 32.7676 42.2663 33.875 41.9395 34.9429C42.4271 35.0746 42.9301 35.141 43.4352 35.1404C47.2306 35.1404 50.3059 31.4504 50.3059 26.8998C50.3059 23.5748 48.665 20.7119 46.3041 19.4093C45.3385 16.8042 43.187 15.1133 40.7954 15.1133C39.9018 15.1147 39.0239 15.3477 38.2474 15.7896C38.2111 15.7327 38.1749 15.6758 38.1386 15.6222C36.5199 17.5108 34.8902 19.8145 33.4446 22.4162L39.2772 24.9477C36.5674 30.0474 32.8725 34.1492 29.3201 37.2566C30.7041 38.3616 32.3646 39.0079 34.1506 39.0079C37.9963 39.0079 41.3562 35.9842 42.4725 31.6513H42.4725Z" fill="white"/>
<path fill-rule="evenodd" clip-rule="evenodd" d="M44.4791 16.6199C46.4436 12.3708 45.7934 11.1653 43.9851 11.9455C43.9906 12.6955 43.6613 13.8776 42.9022 15.5652C43.4813 15.8295 44.0138 16.1856 44.479 16.6199H44.4791Z" fill="white"/>
<path opacity="0.2" fill-rule="evenodd" clip-rule="evenodd" d="M34.8902 23.0424C38.1107 18.1336 41.3088 15.9437 44.479 16.6201C43.4465 15.6624 42.16 15.1133 40.7954 15.1133C40.4799 15.1135 40.1651 15.1426 39.8549 15.2003C37.9544 17.1625 35.906 19.8078 34.2316 22.7578L34.8902 23.0424Z" fill="white"/>
<path opacity="0.2" fill-rule="evenodd" clip-rule="evenodd" d="M39.3749 27.3752C36.7739 31.2981 33.5282 34.7532 29.7748 37.5946C33.4585 35.3311 37.3152 32.2438 40.4715 28.1387L39.3749 27.3752Z" fill="white"/>
<path fill-rule="evenodd" clip-rule="evenodd" d="M45.1265 17.3132C49.9991 7.22768 44.1749 8.56036 38.1386 15.6223C36.52 17.5108 34.8903 19.8145 33.4447 22.4162L34.2316 22.7578C35.906 19.8078 37.9544 17.1624 39.855 15.2004C44.1051 10.8105 47.6102 9.85288 44.4791 16.6201C44.7104 16.8361 44.9267 17.0677 45.1265 17.3132Z" fill="white"/>
<path fill-rule="evenodd" clip-rule="evenodd" d="M39.6735 26.9199L39.2772 24.9476C35.2698 32.4917 29.1023 37.8527 24.4419 41.0336C29.3257 38.375 35.108 33.9919 39.6735 26.9199Z" fill="white"/>
<path opacity="0.7" fill-rule="evenodd" clip-rule="evenodd" d="M45.8045 20.002C50.4065 24.1909 47.8949 31.5977 43.1814 31.0853C43.1227 32.2574 43.0139 33.3791 42.799 34.3133C46.4463 34.7586 49.6473 31.3398 49.6473 26.8998C49.6473 23.7489 48.1432 21.2911 45.8045 20.002V20.002Z" fill="white"/>
</svg>
