<svg width="43" height="40" viewBox="0 0 43 40" fill="none" xmlns="http://www.w3.org/2000/svg">
<path fill-rule="evenodd" clip-rule="evenodd" d="M11.2852 32.2458C13.4293 29.6507 15.8975 26.3358 18.6866 22.2086L10.9297 19.5132C14.2382 13.7204 19.2828 7.97772 24.3657 3.6875C26.0217 2.28951 27.6813 1.04228 29.285 0C27.4582 0.874797 25.5442 1.97143 23.6267 3.23971C22.2566 2.49045 20.733 2.07603 19.1259 2.07603C14.7053 2.07603 10.8982 5.24036 9.19688 9.79006C8.42642 11.8452 8.11974 14.1054 8.29046 16.3447C7.84483 14.2091 7.8472 12.0042 8.29743 9.86957C3.62227 10.5477 0 15.3276 0 21.1246C0 27.3946 4.2359 32.4633 9.44442 32.4633C10.0644 32.463 10.6822 32.3899 11.2852 32.2456V32.2458Z" fill="url(#paint0_linear_590_2356)"/>
<path fill-rule="evenodd" clip-rule="evenodd" d="M4.09282 37.7415C3.74425 36.67 4.24622 34.5269 5.6791 31.5258C5.09533 31.22 4.54702 30.8509 4.04408 30.425C1.38049 35.7868 1.5478 38.6079 4.09282 37.7415Z" fill="url(#paint1_linear_590_2356)"/>
<path opacity="0.2" fill-rule="evenodd" clip-rule="evenodd" d="M15.542 26.7125C11.9649 30.6762 8.13235 31.9137 4.04419 30.4251C5.57458 31.7101 7.43624 32.4635 9.4444 32.4635C9.88842 32.4638 10.3317 32.426 10.7692 32.3505C12.1986 30.8185 13.7918 28.9477 15.542 26.7125Z" fill="black"/>
<path fill-rule="evenodd" clip-rule="evenodd" d="M11.2851 32.2458C12.5855 30.672 14.0044 28.8346 15.5419 26.7125C13.7917 28.9476 12.1985 30.8185 10.7691 32.3505C2.6844 41.0146 -0.153486 38.88 4.04413 30.4251C3.80699 30.2284 3.57694 30.0149 3.35725 29.7931C-2.04644 40.3407 0.655486 45.1039 11.2851 32.2458Z" fill="url(#paint2_linear_590_2356)"/>
<path opacity="0.7" fill-rule="evenodd" clip-rule="evenodd" d="M4.87391 29.7638C0.617155 23.8161 2.33943 17.4289 7.12248 14.6915C7.01088 13.6115 7.00394 12.5276 7.13988 11.2677C3.51418 12.4816 0.92041 16.4787 0.92041 21.1248C0.92041 24.8082 2.52061 27.9641 4.87383 29.7639L4.87391 29.7638Z" fill="url(#paint3_linear_590_2356)"/>
<path opacity="0.7" fill-rule="evenodd" clip-rule="evenodd" d="M9.28417 17.2614C9.51417 9.01593 14.6287 5.19863 20.165 6.13197C20.932 5.37862 21.7268 4.63768 22.5496 3.90111C17.6722 1.75806 12.1812 4.49968 10.0337 10.2422C9.11328 12.7075 9.08542 14.6622 9.28417 17.2614Z" fill="url(#paint4_linear_590_2356)"/>
<path fill-rule="evenodd" clip-rule="evenodd" d="M33.071 27.0641C33.0373 28.4595 32.8133 29.8438 32.4051 31.1786C33.0143 31.3432 33.6426 31.4262 34.2737 31.4255C39.0151 31.4255 42.8569 26.813 42.8569 21.1248C42.8569 16.9685 40.807 13.3898 37.8576 11.7616C36.6514 8.50531 33.9635 6.3916 30.9757 6.3916C29.8595 6.39334 28.7627 6.68464 27.7927 7.23705C27.7473 7.16594 27.7022 7.09477 27.6567 7.0278C25.6347 9.38844 23.5987 12.2682 21.7928 15.5203L29.0792 18.6846C25.694 25.0592 21.078 30.1866 16.6401 34.0708C18.3692 35.452 20.4436 36.2598 22.6747 36.2598C27.479 36.2598 31.6764 32.4803 33.0709 27.0641H33.071Z" fill="url(#paint5_linear_590_2356)"/>
<path fill-rule="evenodd" clip-rule="evenodd" d="M35.5777 8.27505C38.0319 2.96364 37.2197 1.45679 34.9605 2.43198C34.9675 3.36955 34.5561 4.84709 33.6078 6.9566C34.3312 7.28697 34.9964 7.73221 35.5776 8.27505H35.5777Z" fill="url(#paint6_linear_590_2356)"/>
<path opacity="0.2" fill-rule="evenodd" clip-rule="evenodd" d="M23.5989 16.303C27.622 10.167 31.6173 7.42959 35.5778 8.27508C34.2878 7.07794 32.6806 6.3916 30.9759 6.3916C30.5818 6.39185 30.1885 6.42828 29.801 6.50043C27.4268 8.9531 24.8678 12.2598 22.776 15.9473L23.5989 16.303Z" fill="black"/>
<path opacity="0.2" fill-rule="evenodd" clip-rule="evenodd" d="M29.2014 21.7191C25.9521 26.6226 21.8974 30.9416 17.2084 34.4934C21.8104 31.6639 26.6283 27.8048 30.5714 22.6734L29.2014 21.7191Z" fill="black"/>
<path fill-rule="evenodd" clip-rule="evenodd" d="M36.3866 9.14149C42.4737 -3.46544 35.1978 -1.79959 27.6569 7.02779C25.6348 9.38844 23.5989 12.2681 21.793 15.5203L22.776 15.9472C24.8678 12.2598 27.4268 8.95298 29.8011 6.50042C35.1106 1.01312 39.4894 -0.183932 35.5778 8.27507C35.8668 8.54512 36.137 8.8346 36.3866 9.14149Z" fill="url(#paint7_linear_590_2356)"/>
<path fill-rule="evenodd" clip-rule="evenodd" d="M29.5742 21.1499L29.0792 18.6846C24.0728 28.1147 16.3681 34.816 10.546 38.7921C16.6471 35.4688 23.8707 29.9899 29.5742 21.1499Z" fill="url(#paint8_linear_590_2356)"/>
<path opacity="0.7" fill-rule="evenodd" clip-rule="evenodd" d="M37.2336 12.5024C42.9827 17.7386 39.8451 26.9971 33.9567 26.3567C33.8834 27.8217 33.7474 29.2238 33.4789 30.3916C38.0354 30.9483 42.0343 26.6748 42.0343 21.1247C42.0343 17.1861 40.1552 14.1139 37.2336 12.5025V12.5024Z" fill="url(#paint9_linear_590_2356)"/>
<defs>
<linearGradient id="paint0_linear_590_2356" x1="0" y1="16.2316" x2="29.285" y2="16.2316" gradientUnits="userSpaceOnUse">
<stop stop-color="#AE24FE"/>
<stop offset="0.493" stop-color="#662AED"/>
<stop offset="1" stop-color="#0026BF"/>
</linearGradient>
<linearGradient id="paint1_linear_590_2356" x1="2.11438" y1="34.1605" x2="5.6791" y2="34.1605" gradientUnits="userSpaceOnUse">
<stop stop-color="#AE24FE"/>
<stop offset="0.493" stop-color="#662AED"/>
<stop offset="1" stop-color="#0026BF"/>
</linearGradient>
<linearGradient id="paint2_linear_590_2356" x1="0.648804" y1="33.3563" x2="15.5419" y2="33.3563" gradientUnits="userSpaceOnUse">
<stop stop-color="#AE4AFE"/>
<stop offset="0.493" stop-color="#662AED"/>
<stop offset="1" stop-color="#0026BF"/>
</linearGradient>
<linearGradient id="paint3_linear_590_2356" x1="-3.71931" y1="20.5158" x2="6.4122" y2="20.5158" gradientUnits="userSpaceOnUse">
<stop stop-color="white"/>
<stop offset="1" stop-color="white" stop-opacity="0"/>
</linearGradient>
<linearGradient id="paint4_linear_590_2356" x1="7.71429" y1="-2.03742" x2="15.9447" y2="9.34926" gradientUnits="userSpaceOnUse">
<stop stop-color="white"/>
<stop offset="1" stop-color="white" stop-opacity="0"/>
</linearGradient>
<linearGradient id="paint5_linear_590_2356" x1="16.6401" y1="21.3257" x2="42.8569" y2="21.3257" gradientUnits="userSpaceOnUse">
<stop stop-color="#AE24FE"/>
<stop offset="0.493" stop-color="#662AED"/>
<stop offset="1" stop-color="#0026BF"/>
</linearGradient>
<linearGradient id="paint6_linear_590_2356" x1="33.6078" y1="5.21449" x2="37.0765" y2="5.21449" gradientUnits="userSpaceOnUse">
<stop stop-color="#AE24FE"/>
<stop offset="0.493" stop-color="#662AED"/>
<stop offset="1" stop-color="#0026BF"/>
</linearGradient>
<linearGradient id="paint7_linear_590_2356" x1="21.793" y1="7.99657" x2="38.6548" y2="7.99657" gradientUnits="userSpaceOnUse">
<stop stop-color="#AE4AFE"/>
<stop offset="0.493" stop-color="#662AED"/>
<stop offset="1" stop-color="#0026BF"/>
</linearGradient>
<linearGradient id="paint8_linear_590_2356" x1="10.546" y1="28.7383" x2="29.5742" y2="28.7383" gradientUnits="userSpaceOnUse">
<stop stop-color="#AE24FE"/>
<stop offset="0.493" stop-color="#662AED"/>
<stop offset="1" stop-color="#002698"/>
</linearGradient>
<linearGradient id="paint9_linear_590_2356" x1="47.6466" y1="21.4714" x2="35.7033" y2="21.4714" gradientUnits="userSpaceOnUse">
<stop stop-color="white"/>
<stop offset="1" stop-color="white" stop-opacity="0"/>
</linearGradient>
</defs>
</svg>
