<svg width="40" height="40" viewBox="0 0 40 40" fill="none" xmlns="http://www.w3.org/2000/svg">
<rect opacity="0.4" width="40" height="40" rx="20" fill="#2E28D4"/>
<path d="M19.9998 13.3333C21.8112 13.3333 22.0372 13.3399 22.7478 13.3733C23.4578 13.4066 23.9412 13.5179 24.3665 13.6833C24.8065 13.8526 25.1772 14.0819 25.5478 14.4519C25.8868 14.7852 26.1491 15.1883 26.3165 15.6333C26.4812 16.0579 26.5932 16.5419 26.6265 17.2519C26.6578 17.9626 26.6665 18.1886 26.6665 19.9999C26.6665 21.8113 26.6598 22.0373 26.6265 22.7479C26.5932 23.4579 26.4812 23.9413 26.3165 24.3666C26.1496 24.8118 25.8873 25.215 25.5478 25.5479C25.2145 25.8868 24.8114 26.1491 24.3665 26.3166C23.9418 26.4813 23.4578 26.5933 22.7478 26.6266C22.0372 26.6579 21.8112 26.6666 19.9998 26.6666C18.1885 26.6666 17.9625 26.6599 17.2518 26.6266C16.5418 26.5933 16.0585 26.4813 15.6332 26.3166C15.1881 26.1496 14.7849 25.8872 14.4518 25.5479C14.1128 25.2147 13.8505 24.8116 13.6832 24.3666C13.5178 23.9419 13.4065 23.4579 13.3732 22.7479C13.3418 22.0373 13.3332 21.8113 13.3332 19.9999C13.3332 18.1886 13.3398 17.9626 13.3732 17.2519C13.4065 16.5413 13.5178 16.0586 13.6832 15.6333C13.85 15.188 14.1124 14.7848 14.4518 14.4519C14.785 14.1127 15.1881 13.8504 15.6332 13.6833C16.0585 13.5179 16.5412 13.4066 17.2518 13.3733C17.9625 13.3419 18.1885 13.3333 19.9998 13.3333ZM19.9998 16.6666C19.1158 16.6666 18.2679 17.0178 17.6428 17.6429C17.0177 18.268 16.6665 19.1159 16.6665 19.9999C16.6665 20.884 17.0177 21.7318 17.6428 22.3569C18.2679 22.9821 19.1158 23.3333 19.9998 23.3333C20.8839 23.3333 21.7317 22.9821 22.3569 22.3569C22.982 21.7318 23.3332 20.884 23.3332 19.9999C23.3332 19.1159 22.982 18.268 22.3569 17.6429C21.7317 17.0178 20.8839 16.6666 19.9998 16.6666ZM24.3332 16.4999C24.3332 16.2789 24.2454 16.0669 24.0891 15.9107C23.9328 15.7544 23.7209 15.6666 23.4998 15.6666C23.2788 15.6666 23.0669 15.7544 22.9106 15.9107C22.7543 16.0669 22.6665 16.2789 22.6665 16.4999C22.6665 16.7209 22.7543 16.9329 22.9106 17.0892C23.0669 17.2455 23.2788 17.3333 23.4998 17.3333C23.7209 17.3333 23.9328 17.2455 24.0891 17.0892C24.2454 16.9329 24.3332 16.7209 24.3332 16.4999ZM19.9998 17.9999C20.5303 17.9999 21.039 18.2106 21.4141 18.5857C21.7891 18.9608 21.9998 19.4695 21.9998 19.9999C21.9998 20.5304 21.7891 21.0391 21.4141 21.4141C21.039 21.7892 20.5303 21.9999 19.9998 21.9999C19.4694 21.9999 18.9607 21.7892 18.5856 21.4141C18.2106 21.0391 17.9998 20.5304 17.9998 19.9999C17.9998 19.4695 18.2106 18.9608 18.5856 18.5857C18.9607 18.2106 19.4694 17.9999 19.9998 17.9999Z" fill="white" fill-opacity="0.7"/>
</svg>
