<svg width="151" height="48" viewBox="0 0 151 48" fill="none" xmlns="http://www.w3.org/2000/svg">
<path d="M55.5777 47.9899C54.9088 47.8102 54.4995 47.351 54.1501 46.762C51.1151 41.5207 48.0602 36.2994 45.0053 31.0681C44.606 30.3793 44.606 29.7304 45.0053 29.0415C48.1101 23.7404 51.205 18.4292 54.2998 13.1181C54.6892 12.4592 55.2383 12.1297 56.007 12.1297C62.2366 12.1297 68.4762 12.1297 74.7058 12.1297C75.4446 12.1297 75.9937 12.4392 76.363 13.0781C79.5877 18.6089 82.8123 24.1497 86.0469 29.6805C86.1068 29.7903 86.1667 29.8901 86.2466 30.0498C82.7724 30.0498 79.3481 30.0498 75.8739 30.0498C75.9438 30.1796 75.9737 30.2695 76.0236 30.3493C77.5311 32.945 79.0486 35.5407 80.566 38.1364C80.9155 38.7354 81.4446 39.0449 82.1434 39.0449C84.9487 39.0449 87.7441 39.0449 90.5494 39.0449C91.2383 39.0449 91.7574 38.7553 92.1068 38.1663C93.5245 35.7503 94.9321 33.3344 96.3398 30.9084C96.6492 30.3693 96.6792 29.7903 96.3597 29.2512C94.9321 26.7853 93.5045 24.3294 92.0569 21.8735C91.7274 21.3144 91.1883 21.0548 90.5294 21.0548C87.5244 21.0548 84.5095 21.0548 81.5045 21.0548C81.3847 21.0548 81.2649 21.0548 81.0952 21.0548C81.175 20.9151 81.215 20.8152 81.2749 20.7154C82.8822 17.95 84.4995 15.1946 86.1068 12.4192C86.2366 12.1896 86.3863 12.1097 86.6459 12.1097C89.6609 12.1197 92.6859 12.1197 95.7008 12.1097C96.4496 12.1097 96.9987 12.4292 97.378 13.0781C100.473 18.3893 103.568 23.7004 106.673 29.0016C107.082 29.7004 107.082 30.3593 106.673 31.0582C103.588 36.3294 100.513 41.6106 97.4379 46.8918C97.1284 47.4309 96.6992 47.7703 96.1301 47.96C89.611 47.96 83.0918 47.96 76.5727 47.96C75.9138 47.7803 75.5045 47.341 75.165 46.762C72.0003 41.3111 68.8156 35.8701 65.6409 30.4192C65.571 30.3094 65.5111 30.1896 65.4213 29.9999C68.9055 29.9999 72.3398 29.9999 75.804 29.9999C75.7441 29.8801 75.7241 29.8202 75.6842 29.7703C74.1567 27.1547 72.6393 24.539 71.1118 21.9334C70.7624 21.3344 70.2233 21.0349 69.5344 21.0349C66.769 21.0349 63.9937 21.0349 61.2283 21.0349C60.4795 21.0349 59.9205 21.3444 59.5411 21.9933C58.1634 24.3593 56.7757 26.7354 55.398 29.1014C55.0286 29.7304 55.0286 30.3493 55.398 30.9783C56.7757 33.3344 58.1534 35.6904 59.5311 38.0565C59.9205 38.7154 60.4695 39.0349 61.2383 39.0349C64.2133 39.0249 67.1883 39.0349 70.1534 39.0349C70.2832 39.0349 70.413 39.0349 70.5927 39.0349C70.5028 39.1946 70.4529 39.2944 70.403 39.3943C69.3447 41.2112 68.2765 43.0282 67.2183 44.8452C66.6093 45.8835 66.0203 46.9317 65.4213 47.98C62.1368 47.9899 58.8622 47.9899 55.5777 47.9899Z" fill="#00AEEB"/>
<path d="M2.66587 47.9901C2.12677 47.8503 1.59765 47.6606 1.17835 47.2813C0.519445 46.6723 0.209961 45.9235 0.209961 45.035C0.209961 37.3778 0.209961 29.7205 0.209961 22.0633C0.209961 20.7754 0.209961 19.4876 0.209961 18.1997C0.209961 17.451 0.729095 17.1515 1.36803 17.5209C2.44623 18.1398 3.51445 18.7688 4.59266 19.3778C5.73076 20.0267 6.86886 20.0167 7.99698 19.3678C9.0652 18.7588 10.1234 18.1398 11.1917 17.5209C11.8406 17.1515 12.3597 17.441 12.3597 18.1897C12.3597 27.1648 12.3597 36.1498 12.3597 45.1249C12.3597 46.4626 11.4612 47.5907 10.1734 47.9202C10.0835 47.9402 10.0036 47.9701 9.91379 48.0001C7.49781 47.9901 5.08184 47.9901 2.66587 47.9901Z" fill="#0A163B"/>
<path d="M131.701 47.9601C129.664 47.9601 127.618 47.9601 125.581 47.9601C124.762 47.9601 124.493 47.4909 124.902 46.792C126.4 44.1864 127.907 41.5907 129.405 38.985C129.614 38.6057 129.894 38.4559 130.313 38.4659C132.39 38.4759 134.456 38.4759 136.533 38.4659C137.242 38.4659 137.941 38.3561 138.559 37.9567C139.368 37.4276 139.468 36.4193 138.759 35.7704C138.5 35.5308 138.16 35.3211 137.831 35.2313C137.182 35.0416 136.503 34.9318 135.834 34.812C132.889 34.3228 130.193 33.2745 127.927 31.2978C125.681 29.3411 124.403 26.8752 124.283 23.8802C124.104 19.3178 126.17 16.0233 130.163 13.9068C132.36 12.7388 134.746 12.1897 137.222 12.1697C141.435 12.1398 145.648 12.1498 149.861 12.1398C150.37 12.1398 150.48 12.3195 150.23 12.7687C148.633 15.5541 147.025 18.3295 145.428 21.1148C145.298 21.3444 145.139 21.4243 144.879 21.4243C142.573 21.4143 140.277 21.4143 137.97 21.4243C137.182 21.4243 136.433 21.614 135.854 22.203C135.275 22.792 135.285 23.5308 135.894 24.0998C136.503 24.6689 137.282 24.8486 138.08 24.9684C140.836 25.3577 143.461 26.1265 145.817 27.6539C148.303 29.2612 149.98 31.4676 150.45 34.4326C151.168 39.0649 149.551 43.5774 144.699 46.0932C142.243 47.3711 139.618 47.9301 136.872 47.9701C135.135 47.9701 133.418 47.9601 131.701 47.9601Z" fill="#0A163B"/>
<path d="M40.0835 12.0998C40.2332 12.0998 40.363 12.0998 40.5028 12.0998C43.2382 12.0998 45.9737 12.0998 48.7091 12.0998C49.5078 12.0998 49.8073 12.599 49.4079 13.2878C47.9903 15.7437 46.5727 18.1996 45.165 20.6556C45.0552 20.8552 44.9254 20.9151 44.7058 20.9151C43.2881 20.9051 41.8805 20.9151 40.4629 20.9151C40.3431 20.9151 40.2133 20.9151 40.0635 20.9151C40.0635 21.0549 40.0635 21.1747 40.0635 21.2845C40.0635 26.2063 40.0635 31.1281 40.0635 36.0499C40.0635 36.8186 40.1833 37.5674 40.6625 38.2163C40.9121 38.5557 41.2116 38.7254 41.6509 38.7155C42.4695 38.6955 43.2881 38.7155 44.1068 38.7055C44.4262 38.7055 44.6459 38.8353 44.8056 39.1048C46.2931 41.6905 47.7906 44.2662 49.2782 46.8519C49.6176 47.4409 49.3081 47.97 48.6292 47.97C45.6242 47.97 42.6093 47.99 39.6043 47.97C37.6875 47.9601 35.8206 47.6406 34.0635 46.812C31.3281 45.5141 29.7108 43.3078 28.9221 40.4326C28.5427 39.0549 28.373 37.6373 28.373 36.2096C28.363 31.4276 28.373 26.6356 28.373 21.8536C28.373 21.1248 28.1733 20.9251 27.4446 20.9251C26.7457 20.9251 26.0569 20.9251 25.358 20.9251C24.7391 20.9251 24.4795 20.6655 24.4795 20.0566C24.4795 17.7005 24.4795 15.3444 24.4795 12.9784C24.4795 12.3793 24.7291 12.1198 25.3281 12.1198C26.0668 12.1198 26.8056 12.1198 27.5544 12.1198C28.1334 12.1198 28.383 11.8702 28.383 11.2812C28.383 10.2828 28.393 9.27452 28.373 8.27619C28.363 7.8469 28.5327 7.58734 28.9021 7.37768C31.2782 6.02993 33.6542 4.68218 36.0103 3.31445C36.3996 3.09482 36.779 3.05489 37.1883 3.13476C38.576 3.41429 39.764 4.72211 39.9936 6.19965C40.0336 6.47918 40.0535 6.7687 40.0635 7.04823C40.0735 8.69549 40.0635 10.3527 40.0735 12C40.0635 12 40.0635 12.0199 40.0835 12.0998Z" fill="#0A163B"/>
<path d="M118.852 21.5043C118.852 26.3262 118.852 31.1382 118.862 35.9602C118.862 36.4494 118.942 36.9385 119.042 37.4078C119.102 37.6873 119.262 37.9569 119.421 38.2064C119.661 38.5858 119.99 38.7954 120.499 38.7755C121.638 38.7355 122.776 38.7655 123.914 38.7655C124.383 38.7655 124.523 38.9951 124.293 39.3945C122.696 42.1698 121.088 44.9552 119.471 47.7306C119.411 47.8304 119.252 47.9402 119.132 47.9402C116.017 48.0201 113.092 47.451 110.676 45.3146C109.448 44.2264 108.589 42.8687 108.1 41.3113C107.801 40.3529 107.641 39.3445 107.421 38.3562C107.351 38.0567 107.431 37.7971 107.591 37.5176C108.879 35.3412 110.137 33.1549 111.425 30.9785C111.854 30.2597 111.854 29.5908 111.425 28.862C110.077 26.5958 108.759 24.3096 107.431 22.0234C107.331 21.8537 107.281 21.644 107.281 21.4543C107.271 17.2314 107.281 12.9984 107.271 8.77548C107.271 8.48597 107.361 8.32623 107.611 8.18647C109.947 6.8487 112.293 5.52091 114.619 4.1432C115.528 3.6041 116.416 3.69395 117.275 4.10327C118.393 4.63239 118.862 5.61076 118.862 6.82873C118.842 11.7106 118.852 16.6024 118.852 21.5043Z" fill="#0A163B"/>
<path d="M12.3597 6.84858C12.3597 8.20632 12.3497 9.56406 12.3697 10.9118C12.3697 11.1414 12.2998 11.2512 12.1001 11.3611C10.6625 12.1797 9.24488 13.0083 7.80727 13.827C6.77899 14.416 5.7507 14.406 4.7324 13.817C3.30478 12.9884 1.87716 12.1597 0.439553 11.3511C0.249869 11.2413 0.199951 11.1215 0.199951 10.9218C0.209935 8.24626 0.199952 5.57072 0.209935 2.88519C0.209935 1.23794 1.47782 0 3.11509 0C5.22158 0 7.32807 0 9.43456 0C11.1018 0 12.3497 1.24792 12.3597 2.91514C12.3597 4.22296 12.3597 5.53078 12.3597 6.84858Z" fill="#0A163B"/>
</svg>
