<svg width="40" height="40" viewBox="0 0 40 40" fill="none" xmlns="http://www.w3.org/2000/svg">
<rect opacity="0.4" width="40" height="40" rx="20" fill="#2E28D4"/>
<path d="M24.2233 24.226H22.4467V21.4413C22.4467 20.7773 22.4333 19.9227 21.52 19.9227C20.594 19.9227 20.4527 20.6453 20.4527 21.3927V24.226H18.6753V18.5H20.382V19.28H20.4053C20.644 18.8307 21.224 18.3553 22.0907 18.3553C23.8907 18.3553 24.224 19.5407 24.224 21.0827V24.226H24.2233ZM16.6687 17.7167C16.533 17.7168 16.3987 17.6902 16.2734 17.6384C16.148 17.5866 16.0342 17.5105 15.9383 17.4146C15.8424 17.3186 15.7664 17.2047 15.7147 17.0793C15.6629 16.954 15.6364 16.8196 15.6367 16.684C15.6368 16.4799 15.6975 16.2804 15.811 16.1108C15.9245 15.9411 16.0857 15.809 16.2744 15.731C16.463 15.653 16.6705 15.6327 16.8707 15.6726C17.0708 15.7126 17.2546 15.811 17.3989 15.9554C17.5431 16.0998 17.6413 16.2838 17.681 16.484C17.7207 16.6842 17.7001 16.8917 17.6219 17.0802C17.5436 17.2687 17.4112 17.4298 17.2415 17.5431C17.0717 17.6564 16.8721 17.7168 16.668 17.7167H16.6687ZM17.5593 24.226H15.7773V18.5H17.56V24.226H17.5593ZM25.1133 14H14.886C14.3953 14 14 14.3867 14 14.8647V25.1353C14 25.6133 14.396 26 14.8853 26H25.1107C25.6 26 26 25.6133 26 25.1353V14.8647C26 14.3867 25.6 14 25.1107 14H25.1127H25.1133Z" fill="white" fill-opacity="0.7"/>
</svg>
