<svg width="181" height="48" viewBox="0 0 181 48" fill="none" xmlns="http://www.w3.org/2000/svg">
<path d="M67.6588 35.1428H62.5395V19.7142L67.6588 22.1142V35.1428Z" fill="white"/>
<path d="M91.7066 35.1428H86.5873V19.7142H91.7066V35.1428Z" fill="white"/>
<path d="M91.2231 17.4787C90.6452 18.055 89.9538 18.3432 89.1489 18.3432C88.3439 18.3432 87.6422 18.055 87.0437 17.4787C86.4658 16.8818 86.1769 16.1819 86.1769 15.3792C86.1769 14.5764 86.4658 13.8869 87.0437 13.3106C87.6422 12.7342 88.3439 12.446 89.1489 12.446C89.9538 12.446 90.6452 12.7342 91.2231 13.3106C91.8216 13.8869 92.1208 14.5764 92.1208 15.3792C92.1208 16.1819 91.8216 16.8818 91.2231 17.4787Z" fill="white"/>
<path d="M67.1728 17.4787C66.5949 18.055 65.9035 18.3432 65.0986 18.3432C64.2936 18.3432 63.5919 18.055 62.9934 17.4787C62.4155 16.8818 62.1266 16.1819 62.1266 15.3792C62.1266 14.5764 62.4155 13.8869 62.9934 13.3106C63.5919 12.7342 64.2936 12.446 65.0986 12.446C65.9035 12.446 66.5949 12.7342 67.1728 13.3106C67.7713 13.8869 68.0705 14.5764 68.0705 15.3792C68.0705 16.1819 67.7713 16.8818 67.1728 17.4787Z" fill="white"/>
<path d="M83.7703 13.5427V18.881H76.0088V22.3987H83.6157V27.737H76.0088V35.1427H70.4738V13.5427H83.7703Z" fill="white"/>
<path d="M103.955 19.2688C105.665 19.2688 107.041 19.8504 108.082 21.0137C109.123 22.177 109.643 23.8087 109.643 25.9088V35.1431H104.511V26.5574C104.511 25.775 104.305 25.1727 103.893 24.7505C103.48 24.3284 102.913 24.1173 102.192 24.1174C101.388 24.1174 100.765 24.3593 100.322 24.8432C99.8787 25.327 99.6571 26.0219 99.6571 26.9277V35.1431H94.5254V19.7012H99.6573V21.2454C100.585 19.9277 102.017 19.2688 103.955 19.2688Z" fill="white"/>
<path d="M140.341 19.2688C142.052 19.2688 143.427 19.8504 144.468 21.0137C145.509 22.177 146.029 23.8087 146.029 25.9088V35.1431H140.897V26.5574C140.897 25.775 140.691 25.1727 140.279 24.7505C139.867 24.3284 139.3 24.1173 138.579 24.1174C137.775 24.1174 137.151 24.3593 136.708 24.8432C136.265 25.327 136.044 26.0219 136.044 26.9277V35.1431H130.912V19.7012H136.044V21.2454C136.971 19.9277 138.404 19.2688 140.341 19.2688Z" fill="white"/>
<path d="M156.151 35.5545C153.798 35.5545 151.838 34.7731 150.27 33.2104C148.702 31.6476 147.918 29.7147 147.918 27.4117C147.918 25.1086 148.702 23.1757 150.27 21.6129C151.838 20.0502 153.799 19.2688 156.151 19.2688C157.678 19.2688 159.065 19.6235 160.313 20.3329C161.562 21.0423 162.526 22.0139 163.207 23.2477L158.812 25.7769C158.255 24.7693 157.358 24.2656 156.12 24.2656C155.253 24.2656 154.531 24.5586 153.953 25.1446C153.375 25.7306 153.087 26.4863 153.087 27.4117C153.087 28.337 153.375 29.0927 153.953 29.6787C154.531 30.2647 155.253 30.5577 156.12 30.5577C157.378 30.5577 158.276 30.0437 158.812 29.0155L163.207 31.5448C162.526 32.7785 161.562 33.7553 160.313 34.475C159.065 35.1947 157.678 35.5545 156.151 35.5545Z" fill="white"/>
<path d="M180.064 29.0869H169.387C169.903 30.3412 171.058 30.9683 172.853 30.9683C173.947 30.9683 174.886 30.6085 175.67 29.8888L179.383 32.4797C177.877 34.392 175.659 35.3482 172.73 35.3482C170.109 35.3482 168.005 34.5874 166.416 33.0657C164.848 31.5235 164.064 29.5803 164.064 27.2362C164.064 24.9126 164.838 22.9694 166.385 21.4067C167.933 19.8439 169.903 19.0625 172.296 19.0625C174.607 19.0625 176.515 19.8336 178.022 21.3758C179.528 22.8975 180.281 24.8304 180.281 27.1745C180.281 27.8942 180.209 28.5317 180.064 29.0869ZM169.325 25.5398H175.267C174.875 24.1004 173.906 23.3807 172.358 23.3807C170.769 23.3807 169.758 24.1004 169.325 25.5398Z" fill="white"/>
<path d="M123.198 21.1194V19.7006H128.334V35.1227H123.198V33.7039C122.146 34.9376 120.682 35.5545 118.805 35.5545C116.721 35.5545 114.988 34.7834 113.606 33.2412C112.224 31.6784 111.533 29.7352 111.533 27.4117C111.533 25.0675 112.224 23.1346 113.606 21.6129C114.988 20.0502 116.721 19.2688 118.805 19.2688C120.682 19.2688 122.146 19.8857 123.198 21.1194ZM117.598 29.8483C118.175 30.4652 118.959 30.7737 119.949 30.7737C120.94 30.7737 121.723 30.4652 122.301 29.8483C122.899 29.2109 123.198 28.3987 123.198 27.4117C123.198 26.4246 122.899 25.6124 122.301 24.975C121.723 24.3581 120.94 24.0496 119.949 24.0496C118.959 24.0496 118.175 24.3581 117.598 24.975C117 25.6124 116.701 26.4246 116.701 27.4117C116.701 28.3987 117 29.2109 117.598 29.8483Z" fill="white"/>
<path fill-rule="evenodd" clip-rule="evenodd" d="M13.5708 38.695C16.1493 35.5809 19.1173 31.603 22.4713 26.6504L13.1433 23.4159C17.122 16.4645 23.1883 9.57329 29.3006 4.42501C31.2921 2.74742 33.2877 1.25074 35.2163 0C33.0195 1.04976 30.7178 2.36572 28.412 3.88766C26.7644 2.98855 24.9321 2.49124 22.9996 2.49124C17.6837 2.49124 13.1055 6.28845 11.0596 11.7481C10.1331 14.2143 9.76429 16.9265 9.96958 19.6137C9.4337 17.0509 9.43655 14.4051 9.97796 11.8435C4.35591 12.6573 0 18.3931 0 25.3496C0 32.8736 5.09382 38.9561 11.3573 38.9561C12.1028 38.9557 12.8457 38.868 13.5708 38.6949V38.695Z" fill="white"/>
<path fill-rule="evenodd" clip-rule="evenodd" d="M4.92376 45.2901C4.5046 44.0044 5.10823 41.4327 6.83132 37.8313C6.12932 37.4644 5.46995 37.0214 4.86515 36.5104C1.66208 42.9445 1.86328 46.3298 4.92376 45.2901Z" fill="white"/>
<path opacity="0.2" fill-rule="evenodd" clip-rule="evenodd" d="M18.6881 32.0548C14.3866 36.8112 9.77779 38.2963 4.86163 36.5099C6.70199 38.0519 8.94069 38.9559 11.3556 38.9559C11.8895 38.9564 12.4225 38.9111 12.9487 38.8204C14.6676 36.982 16.5835 34.737 18.6881 32.0548Z" fill="white"/>
<path fill-rule="evenodd" clip-rule="evenodd" d="M13.5692 38.6948C15.133 36.8062 16.8393 34.6013 18.6882 32.0548C16.5835 34.7369 14.6676 36.982 12.9488 38.8204C3.22656 49.2174 -0.186096 46.6558 4.86169 36.5099C4.57652 36.2739 4.29987 36.0177 4.03569 35.7515C-2.46245 48.4087 0.786722 54.1245 13.5692 38.6948Z" fill="white"/>
<path opacity="0.7" fill-rule="evenodd" clip-rule="evenodd" d="M5.86104 35.7164C0.742137 28.5791 2.81324 20.9144 8.56502 17.6296C8.43082 16.3336 8.42247 15.0328 8.58595 13.521C4.22591 14.9776 1.10681 19.7743 1.10681 25.3496C1.10681 29.7696 3.03111 33.5567 5.86094 35.7165L5.86104 35.7164Z" fill="white"/>
<path opacity="0.7" fill-rule="evenodd" clip-rule="evenodd" d="M11.1632 20.714C11.4398 10.8193 17.5902 6.23855 24.2478 7.35856C25.1701 6.45455 26.126 5.56542 27.1154 4.68153C21.2501 2.10987 14.6471 5.39982 12.0646 12.2909C10.9578 15.2492 10.9243 17.5949 11.1632 20.714Z" fill="white"/>
<path fill-rule="evenodd" clip-rule="evenodd" d="M39.7686 32.4774C39.7281 34.1519 39.4587 35.813 38.9678 37.4147C39.7004 37.6123 40.456 37.7119 41.2148 37.711C46.9166 37.711 51.5365 32.176 51.5365 25.3501C51.5365 20.3626 49.0715 16.0682 45.5247 14.1144C44.0741 10.2067 40.8419 7.67029 37.249 7.67029C35.9066 7.67237 34.5877 8.02193 33.4212 8.68483C33.3667 8.59949 33.3124 8.51409 33.2577 8.43372C30.8261 11.2665 28.3778 14.7222 26.2062 18.6247L34.9683 22.4219C30.8974 30.0715 25.3466 36.2243 20.0099 40.8854C22.0891 42.5429 24.5837 43.5122 27.2667 43.5122C33.044 43.5122 38.0916 38.9768 39.7685 32.4774H39.7686Z" fill="white"/>
<path fill-rule="evenodd" clip-rule="evenodd" d="M42.7846 9.92947C45.736 3.55576 44.7592 1.74753 42.0425 2.91777C42.0509 4.04286 41.5562 5.81591 40.4158 8.34732C41.2857 8.74377 42.0857 9.27806 42.7846 9.92947H42.7846Z" fill="white"/>
<path opacity="0.2" fill-rule="evenodd" clip-rule="evenodd" d="M28.3789 19.564C33.2169 12.2007 38.0213 8.91588 42.7839 9.93047C41.2327 8.49389 39.3 7.67029 37.25 7.67029C36.7761 7.67059 36.3031 7.7143 35.8372 7.80088C32.9821 10.7441 29.9048 14.7121 27.3893 19.1371L28.3789 19.564Z" fill="white"/>
<path opacity="0.2" fill-rule="evenodd" clip-rule="evenodd" d="M35.1149 26.0632C31.2076 31.9475 26.3316 37.1302 20.6929 41.3924C26.227 37.9971 32.0208 33.3661 36.7624 27.2084L35.1149 26.0632Z" fill="white"/>
<path fill-rule="evenodd" clip-rule="evenodd" d="M43.7563 10.9697C51.0763 -4.15868 42.3268 -2.15966 33.2586 8.43322C30.8269 11.266 28.3786 14.7217 26.207 18.6242L27.3891 19.1366C29.9046 14.7116 32.9818 10.7435 35.837 7.80038C42.2219 1.2156 47.4876 -0.220866 42.7837 9.92997C43.1313 10.254 43.4562 10.6014 43.7563 10.9697Z" fill="white"/>
<path fill-rule="evenodd" clip-rule="evenodd" d="M35.5622 25.38L34.967 22.4216C28.9467 33.7378 19.6815 41.7793 12.6802 46.5507C20.017 42.5627 28.7036 35.988 35.5622 25.38Z" fill="white"/>
<path opacity="0.7" fill-rule="evenodd" clip-rule="evenodd" d="M44.7751 15.0032C51.6885 21.2865 47.9154 32.3968 40.8345 31.6283C40.7463 33.3863 40.5828 35.0689 40.2599 36.4702C45.7393 37.1383 50.5481 32.01 50.5481 25.3499C50.5481 20.6236 48.2884 16.9369 44.7751 15.0032V15.0032Z" fill="white"/>
</svg>
