<svg width="30" height="30" viewBox="0 0 30 30" fill="none" xmlns="http://www.w3.org/2000/svg">
<path opacity="0.4" d="M15 21.6875C16.1253 21.6875 17.0375 20.7753 17.0375 19.65C17.0375 18.5248 16.1253 17.6125 15 17.6125C13.8747 17.6125 12.9625 18.5248 12.9625 19.65C12.9625 20.7753 13.8747 21.6875 15 21.6875Z" fill="#9CA6C0"/>
<path d="M20.8125 11.8H9.1875C4.0625 11.8 2.5 13.3625 2.5 18.4875V20.8125C2.5 25.9375 4.0625 27.5 9.1875 27.5H20.8125C25.9375 27.5 27.5 25.9375 27.5 20.8125V18.4875C27.5 13.3625 25.9375 11.8 20.8125 11.8ZM15 23.425C12.9125 23.425 11.225 21.725 11.225 19.65C11.225 17.575 12.9125 15.875 15 15.875C17.0875 15.875 18.775 17.575 18.775 19.65C18.775 21.725 17.0875 23.425 15 23.425Z" fill="#9CA6C0"/>
<path opacity="0.4" d="M8.89999 11.8125V10.35C8.89999 6.6875 9.93749 4.25 15 4.25C20.0625 4.25 21.1 6.6875 21.1 10.35V11.8125C21.7375 11.825 22.3125 11.85 22.85 11.925V10.35C22.85 6.975 22.0375 2.5 15 2.5C7.96249 2.5 7.14999 6.975 7.14999 10.35V11.9125C7.67499 11.85 8.26249 11.8125 8.89999 11.8125Z" fill="#9CA6C0"/>
</svg>
