<svg width="30" height="30" viewBox="0 0 30 30" fill="none" xmlns="http://www.w3.org/2000/svg">
<path opacity="0.4" d="M21.25 25.625H8.75C5 25.625 2.5 23.75 2.5 19.375V10.625C2.5 6.25 5 4.375 8.75 4.375H21.25C25 4.375 27.5 6.25 27.5 10.625V19.375C27.5 23.75 25 25.625 21.25 25.625Z" fill="#9CA6C0"/>
<path d="M15 16.0875C13.95 16.0875 12.8875 15.7625 12.075 15.1L8.16247 11.975C7.76247 11.65 7.68747 11.0625 8.01247 10.6625C8.33747 10.2625 8.92497 10.1875 9.32497 10.5125L13.2375 13.6375C14.1875 14.4 15.8 14.4 16.75 13.6375L20.6625 10.5125C21.0625 10.1875 21.6625 10.25 21.975 10.6625C22.3 11.0625 22.2375 11.6625 21.825 11.975L17.9125 15.1C17.1125 15.7625 16.05 16.0875 15 16.0875Z" fill="#9CA6C0"/>
</svg>
