<svg width="44" height="44" viewBox="0 0 44 44" fill="none" xmlns="http://www.w3.org/2000/svg">
<rect width="44" height="44" rx="22" fill="white"/>
<path d="M28.25 18.6667C29.4006 18.6667 30.3333 17.7339 30.3333 16.5833C30.3333 15.4327 29.4006 14.5 28.25 14.5C27.0994 14.5 26.1666 15.4327 26.1666 16.5833C26.1666 17.7339 27.0994 18.6667 28.25 18.6667Z" fill="url(#paint0_linear_825_314)"/>
<path d="M28.25 18.6667C29.4006 18.6667 30.3333 17.7339 30.3333 16.5833C30.3333 15.4327 29.4006 14.5 28.25 14.5C27.0994 14.5 26.1666 15.4327 26.1666 16.5833C26.1666 17.7339 27.0994 18.6667 28.25 18.6667Z" fill="url(#paint1_linear_825_314)"/>
<path opacity="0.4" d="M29.2666 19.7584C29.7916 19.5917 30.3333 20.0001 30.3333 20.5584V24.925C30.3333 27.8417 28.6666 29.0917 26.1666 29.0917H17.8333C15.3333 29.0917 13.6666 27.8417 13.6666 24.925V19.0917C13.6666 16.175 15.3333 14.925 17.8333 14.925H24.1749C24.7166 14.925 25.0833 15.4251 24.9833 15.9501C24.8833 16.4417 24.9 16.9667 25.05 17.5084C25.3583 18.6251 26.2666 19.5167 27.3833 19.8084C28.0416 19.975 28.6833 19.9417 29.2666 19.7584Z" fill="url(#paint2_linear_825_314)"/>
<path d="M22 22.7251C21.3 22.7251 20.5916 22.5084 20.05 22.0667L17.4416 19.9834C17.175 19.7667 17.125 19.3751 17.3416 19.1084C17.5583 18.8417 17.95 18.7917 18.2166 19.0084L20.825 21.0917C21.4583 21.6001 22.5333 21.6001 23.1666 21.0917L24.15 20.3084C24.4166 20.0917 24.8166 20.1334 25.025 20.4084C25.2416 20.6751 25.2 21.0751 24.925 21.2834L23.9416 22.0667C23.4083 22.5084 22.7 22.7251 22 22.7251Z" fill="url(#paint3_linear_825_314)"/>
<defs>
<linearGradient id="paint0_linear_825_314" x1="30.3333" y1="14.5" x2="26.1666" y2="18.6667" gradientUnits="userSpaceOnUse">
<stop stop-color="#2E28D4"/>
<stop offset="1" stop-color="#011F70"/>
</linearGradient>
<linearGradient id="paint1_linear_825_314" x1="30.3333" y1="14.5" x2="26.1666" y2="18.6667" gradientUnits="userSpaceOnUse">
<stop stop-color="#2E28D4"/>
<stop offset="1" stop-color="#011F70"/>
</linearGradient>
<linearGradient id="paint2_linear_825_314" x1="30.3333" y1="14.925" x2="16.3517" y2="31.374" gradientUnits="userSpaceOnUse">
<stop stop-color="#2E28D4"/>
<stop offset="1" stop-color="#011F70"/>
</linearGradient>
<linearGradient id="paint3_linear_825_314" x1="25.1632" y1="18.8728" x2="22.1415" y2="25.1144" gradientUnits="userSpaceOnUse">
<stop stop-color="#2E28D4"/>
<stop offset="1" stop-color="#011F70"/>
</linearGradient>
</defs>
</svg>
