<svg width="1920" height="96" viewBox="0 0 1920 96" fill="none" xmlns="http://www.w3.org/2000/svg">
<g clip-path="url(#clip0_430_2888)">
<path d="M958 496.493C540 488.993 147 419.493 -0.000244141 289.993V-350.007H1920.5V290.993C1718.5 401.993 1394.5 484.493 958 496.493Z" fill="#C4C4C4"/>
<path d="M-0.000244141 -349.007H1920V496.993H-0.000244141V-349.007Z" fill="url(#paint0_radial_430_2888)"/>
<path d="M1713.14 390.775C1644.68 336.472 1632.35 277.848 1594.1 206.319C1553.83 131.022 1498.19 89.612 1411.23 73.539C1343.06 60.9395 1178.87 44.1121 1138 -9.00001L1929 -8.99994C1929 -8.99994 1926.85 349.865 1926.85 433.121C1873.06 444.604 1795.47 456.08 1713.14 390.775Z" fill="url(#paint1_linear_430_2888)"/>
<path d="M10.5532 -73.5951C65.5076 -68.1497 113.35 -3.95844 96.6906 50.7847C86.2328 85.1502 61.1239 111.155 63.6555 142.725C67.3736 189.093 90.9801 216.387 137.94 231.431C165.862 240.376 222.031 242.27 268.83 246.798C349.384 254.592 392.974 275.004 427.936 335.518C472.466 412.593 402.116 477.577 422.019 538.166L-93 433.02C-92.1955 432.104 -91.9399 427.834 -91.2835 426.887L5.12713 -44.7843" fill="url(#paint2_linear_430_2888)"/>
<g opacity="0.49">
<path opacity="0.49" d="M1930.71 190.996C1895.44 211.567 1859.94 232.139 1821.43 245.776C1782.92 259.414 1740.83 265.539 1701.05 256.524C1661.27 247.394 1624.15 221.506 1607.96 183.946C1598.01 160.947 1596.16 134.828 1584.48 112.639C1564.48 75.078 1519.96 56.8178 1477.63 52.6572C1435.31 48.4967 1392.52 55.1998 1349.97 53.1195C1307.41 51.0392 1262.08 37.7486 1236.76 3.65519" stroke="white" stroke-miterlimit="10"/>
<path opacity="0.49" d="M1932.21 203.824C1897.06 223.471 1861.56 243.118 1823.39 255.947C1798.42 264.383 1772.05 269.815 1745.69 270.046C1731.92 270.162 1718.05 268.891 1704.4 265.886C1664.97 257.102 1628.2 232.37 1610.97 196.312C1599.63 172.504 1596.97 144.767 1584.02 121.653C1581.13 116.568 1577.89 111.83 1574.19 107.554C1556.27 86.6352 1529.44 75.3093 1501.69 69.2996C1490.7 66.9882 1479.6 65.3702 1468.5 64.5612C1451.38 63.2899 1434.15 63.4054 1417.04 63.8677C1392.75 64.5612 1368.24 66.5258 1343.95 65.4857C1340.37 65.3701 1336.9 65.139 1333.32 64.7923C1315.97 63.4054 1298.51 59.9383 1282.43 53.6975C1256.42 43.5273 1236.06 27.0006 1222.65 3.53968" stroke="white" stroke-miterlimit="10"/>
<path opacity="0.49" d="M1933.6 216.768C1898.56 235.491 1863.18 254.213 1825.36 266.348C1800.5 274.322 1774.48 279.408 1748.46 279.523C1734.93 279.639 1721.17 278.367 1707.64 275.363C1668.67 266.926 1631.9 243.465 1613.74 208.678C1600.79 184.061 1597.55 154.706 1583.44 130.668C1580.32 125.467 1576.74 120.497 1572.69 115.99C1553.03 94.494 1523.77 85.0172 1494.4 80.2788C1482.84 78.4297 1471.04 77.1584 1459.25 76.5805C1441.21 75.656 1423.05 75.7715 1404.9 76.3494C1379.22 77.0428 1353.44 79.3542 1327.76 77.7362C1324.06 77.5051 1320.25 77.1584 1316.55 76.8117C1298.28 74.847 1280.01 70.4553 1263.7 62.5964C1236.99 49.7681 1219.53 29.6587 1208.42 3.88638" stroke="white" stroke-miterlimit="10"/>
<path opacity="0.49" d="M1935.1 229.596C1900.18 247.394 1864.79 265.192 1827.44 276.634C1802.81 284.146 1777.14 288.884 1751.47 288.884C1738.17 288.884 1724.64 287.613 1711.22 284.839C1672.72 276.749 1635.94 254.56 1616.86 221.044C1602.41 195.619 1598.48 164.646 1583.1 139.682C1579.74 134.25 1575.93 129.165 1571.42 124.542C1550.02 102.468 1518.34 94.8407 1487.35 91.258C1475.09 89.8711 1462.6 88.9465 1450.23 88.4843C1431.15 87.7908 1412.07 88.1376 1392.99 88.5998C1365.93 89.2933 1338.75 91.8358 1311.81 89.7555C1307.87 89.4088 1303.94 89.0621 1300.01 88.4843C1280.82 85.9417 1261.73 80.5099 1245.2 71.0331C1217.91 55.431 1203.22 31.8545 1194.32 3.88633" stroke="white" stroke-miterlimit="10"/>
<path opacity="0.49" d="M1936.61 242.425C1901.91 259.414 1866.53 276.056 1829.41 286.804C1805.01 293.854 1779.68 298.245 1754.24 298.245C1741.18 298.245 1727.76 296.974 1714.46 294.2C1676.3 286.342 1639.53 265.539 1619.75 233.295C1603.68 207.06 1599.17 174.469 1582.63 148.581C1579.05 142.918 1574.89 137.717 1570.03 132.979C1546.79 110.327 1512.79 104.664 1480.29 102.122C1467.34 101.197 1454.27 100.619 1441.21 100.388C1421.2 100.041 1401.08 100.388 1381.07 100.966C1352.74 101.775 1324.18 104.549 1295.85 101.775C1291.68 101.428 1287.64 100.85 1283.47 100.272C1263.35 97.152 1243.46 90.68 1226.7 79.7008C1198.83 61.4406 1187.03 34.397 1180.32 4.00184" stroke="white" stroke-miterlimit="10"/>
<path opacity="0.49" d="M1937.99 255.369C1903.42 271.433 1868.15 287.151 1831.37 297.205C1807.09 303.793 1782.23 307.838 1757.02 307.722C1744.3 307.607 1731 306.451 1717.7 303.793C1680 296.281 1643.11 276.865 1622.53 245.776C1604.72 218.848 1599.75 184.524 1581.94 157.711C1578.12 151.933 1573.61 146.501 1568.41 141.647C1543.43 118.417 1507.01 114.603 1472.89 113.216C1459.36 112.754 1445.6 112.523 1431.84 112.523C1410.91 112.523 1389.86 112.985 1368.93 113.563C1339.21 114.372 1309.26 117.493 1279.66 114.141C1275.38 113.679 1270.99 113.101 1266.71 112.292C1245.66 108.478 1224.96 101.081 1208.08 88.4842C1179.63 67.4503 1170.61 36.9396 1166.1 4.23305" stroke="white" stroke-miterlimit="10"/>
<path opacity="0.49" d="M1939.5 268.197C1905.04 283.337 1869.77 298.13 1833.34 307.376C1809.29 313.501 1784.65 317.199 1759.79 316.968C1747.3 316.852 1734.12 315.581 1721.05 313.039C1683.82 305.873 1646.7 287.844 1625.42 257.911C1605.88 230.29 1600.44 194.232 1581.48 166.495C1577.31 160.485 1572.57 154.937 1567.02 149.852C1540.31 126.16 1501.45 124.08 1465.72 123.964C1451.5 123.964 1437.16 123.964 1422.82 124.196C1400.85 124.542 1378.88 125.005 1357.02 125.582C1326.03 126.391 1294.69 129.743 1263.58 125.929C1259.07 125.351 1254.56 124.658 1250.17 123.733C1228.08 119.342 1206.8 110.905 1189.57 96.8053C1160.66 72.9977 1154.3 39.0198 1152.11 4.00183" stroke="white" stroke-miterlimit="10"/>
<path opacity="0.49" d="M1941 281.025C1883.99 304.717 1824.44 327.254 1762.68 326.445C1715.85 325.867 1657.91 309.456 1628.43 270.393C1602.41 236.068 1599.52 187.413 1565.63 158.52C1537.19 134.25 1495.9 134.019 1458.55 135.059C1421.09 136.099 1382.69 137.255 1344.99 138.18C1312.62 138.989 1279.89 142.687 1247.51 138.295C1219.64 134.481 1191.89 124.542 1170.96 105.704C1141.35 79.123 1138 41.7936 1138 4.46414" stroke="white" stroke-miterlimit="10"/>
</g>
</g>
<defs>
<radialGradient id="paint0_radial_430_2888" cx="0" cy="0" r="1" gradientUnits="userSpaceOnUse" gradientTransform="translate(1920 -349.007) rotate(156.221) scale(2098.12 2436.73)">
<stop offset="0.00143081" stop-color="#F01A63" stop-opacity="0.6"/>
<stop offset="0.421875" stop-color="#AC27FD"/>
<stop offset="1" stop-color="#2E28D4"/>
</radialGradient>
<linearGradient id="paint1_linear_430_2888" x1="1465.01" y1="346.542" x2="1652.77" y2="-120.136" gradientUnits="userSpaceOnUse">
<stop stop-color="#E11D88"/>
<stop offset="0.32277" stop-color="#AC27FD"/>
<stop offset="0.889504" stop-color="#2E28D4"/>
</linearGradient>
<linearGradient id="paint2_linear_430_2888" x1="-46.5799" y1="393.831" x2="345.071" y2="130.18" gradientUnits="userSpaceOnUse">
<stop offset="0.177083" stop-color="#2E28D4"/>
<stop offset="0.661458" stop-color="#AC27FD"/>
<stop offset="1" stop-color="#E21D84"/>
</linearGradient>
<clipPath id="clip0_430_2888">
<rect width="1920" height="96" fill="white"/>
</clipPath>
</defs>
</svg>
