<svg width="282" height="278" viewBox="0 0 282 278" fill="none" xmlns="http://www.w3.org/2000/svg">
<path d="M281.086 174.613C282.783 144.648 257.299 124.287 232.159 112.921C229.335 111.623 226.842 109.994 224.482 108.033C219.934 104.761 216.354 100.853 213.463 96.3623C205.932 84.1088 202.67 70.1331 200.509 55.7335C194.98 18.4695 157.682 -4.38167 121.802 0.70521C117.029 1.35432 112.693 2.75851 108.357 4.82505C106.726 5.58013 105.215 6.45444 103.584 7.42147C102.391 8.17656 101.303 8.82566 100.229 9.69997C96.5699 12.5481 93.7457 15.7936 91.5048 19.3438C89.264 22.8941 87.6199 26.7357 86.3072 30.7628C83.5228 39.2674 82.5548 48.037 80.2743 57.0318C78.7627 63.0989 75.1827 67.9738 69.9718 71.5505C54.4717 82.0555 40.3771 95.594 41.8887 114.974C42.7505 124.936 47.6299 133.931 55.4397 140.422C59.3379 143.562 63.793 145.403 68.3409 147.032C76.0313 149.854 83.9471 151.47 91.4385 154.384C95.0185 155.828 98.4129 157.564 101.463 159.829C104.499 162.094 107.191 164.903 109.325 168.479C112.362 173.566 114.205 178.772 116.313 184.045C127.756 214.844 144.887 251.989 182.172 255.778C185.964 256.109 189.65 256.533 193.442 256.321C196.691 256.109 199.833 255.884 203.095 255.234C205.044 254.903 206.781 254.585 208.624 254.148C225.967 249.71 240.817 241.047 253.4 228.475C258.386 223.388 262.616 218.288 266.62 212.234C268.9 208.764 270.637 205.624 272.586 202.047C273.78 199.769 274.761 197.61 275.729 195.331C276.379 193.702 277.028 192.192 277.572 190.562C278.222 188.509 278.977 186.548 279.442 184.402C280.423 180.746 280.966 177.448 281.086 174.613Z" fill="url(#paint0_linear_1198_7945)"/>
<path d="M26.3212 170.058C32.0134 164.304 30.7826 154.603 24.1546 149.823C22.9239 149.054 21.847 148.285 20.6163 147.823C19.0778 147.362 17.5394 146.901 15.9882 146.747C14.2959 146.747 12.6037 146.593 10.8986 147.054C7.51406 147.977 4.42441 149.823 2.42447 152.911C1.96294 153.68 1.50142 154.295 1.19374 155.064C0.732214 156.448 0.270685 157.986 0.116844 159.537C-0.0369968 161.382 0.270685 163.228 0.886053 164.932C2.886 170.943 8.59095 174.634 14.7574 174.941C15.6805 174.941 16.7574 174.787 17.6804 174.787C19.065 174.634 20.2958 174.018 21.706 173.48C23.4367 172.66 25.0007 171.519 26.3212 170.058Z" fill="#AC27FD"/>
<path d="M76.7828 201.194C80.0206 198.045 79.3205 192.735 75.5505 190.119C74.8504 189.698 74.2379 189.277 73.5378 189.025C72.6628 188.772 71.7877 188.52 70.9053 188.436C69.9428 188.436 68.9802 188.351 68.0104 188.604C66.0852 189.109 64.3278 190.119 63.1902 191.809C62.9277 192.23 62.6652 192.567 62.4902 192.988C62.2277 193.745 61.9652 194.587 61.8777 195.436C61.7902 196.446 61.9652 197.456 62.3152 198.389C63.4528 201.678 66.6978 203.698 70.2053 203.867C70.7303 203.867 71.3429 203.782 71.8679 203.782C72.6555 203.698 73.3555 203.362 74.1577 203.067C75.1421 202.618 76.0317 201.994 76.7828 201.194Z" fill="#AC27FD"/>
<path d="M263.407 24.4125C261.702 13.6729 251.023 5.02238 240.011 6.30395C239.024 6.39366 238.088 6.58589 237.229 6.90628C235.895 7.47017 234.575 8.03406 233.37 8.81581C231.601 10.1999 230.114 11.584 229.114 13.5961C223.537 23.6692 230.37 36.7539 240.19 41.0984C243.459 42.6107 247.049 43.1617 250.741 42.4569C251.664 42.2518 252.6 42.0596 253.587 41.6751C258.843 39.6118 262.702 34.8957 263.446 29.2952C263.651 27.7573 263.651 26.1169 263.407 24.4125Z" fill="#AC27FD"/>
<path d="M202.284 161.685C202.284 161.685 215.425 159.468 213.963 150.83C212.438 141.757 202.284 145.102 202.284 145.102V161.685Z" fill="#EBBE8F"/>
<path d="M198.425 142.667C198.425 142.667 211.463 140.488 210.104 131.812C208.681 122.726 198.425 126.083 198.425 126.083V142.667Z" fill="#EBBE8F"/>
<path d="M37.5958 278L58.9541 249.357C60.4541 247.345 61.5566 245.051 62.1976 242.616L72.5178 203.118C76.4664 188.008 82.4278 173.514 90.2224 159.994L111.799 122.61C114.452 118.009 118.542 114.408 123.439 112.358L153.503 99.7344L125.465 142.68L138.965 180.358H199.027C203.732 180.358 207.552 184.177 207.552 188.88C207.552 193.506 203.796 197.261 199.168 197.261H169.066C164.592 197.261 160.464 199.671 158.259 203.567L140.734 234.632C132.388 246.576 122.324 257.239 110.888 266.261L100.414 278H37.5958Z" fill="#F9D4B3"/>
<path opacity="0.44" d="M79.9793 278L122.26 189.47L82.774 208.68L118.978 174.462L124.26 117.843L138.965 180.358H199.155C203.783 180.358 207.54 184.113 207.54 188.739V188.88C207.54 193.506 203.783 197.261 199.155 197.261H169.054C164.579 197.261 160.451 199.671 158.246 203.567L140.721 234.632C132.375 246.576 122.311 257.239 110.876 266.261L100.402 278H79.9793Z" fill="#D7AE8A"/>
<path d="M129.093 180.306H204.411C207.078 180.306 209.245 178.141 209.245 175.475V31.9268C209.245 29.2612 207.078 27.0953 204.411 27.0953H129.093C126.427 27.0953 124.26 29.2612 124.26 31.9268V175.475C124.26 178.141 126.427 180.306 129.093 180.306Z" fill="#2E28D4"/>
<g opacity="0.36">
<path fill-rule="evenodd" clip-rule="evenodd" d="M202.122 36.2073C202.122 35.4535 201.511 34.8425 200.757 34.8425H184.617C183.863 34.8425 183.252 35.4535 183.252 36.2073C183.252 36.961 183.863 37.572 184.617 37.572H200.757C201.511 37.572 202.122 36.961 202.122 36.2073Z" fill="white"/>
<path opacity="0.36" fill-rule="evenodd" clip-rule="evenodd" d="M188.628 170.4C188.628 168.156 186.81 166.337 184.566 166.337H148.939C146.695 166.337 144.876 168.156 144.876 170.4C144.876 172.643 146.695 174.462 148.939 174.462H184.566C186.81 174.462 188.628 172.643 188.628 170.4Z" fill="white"/>
<path fill-rule="evenodd" clip-rule="evenodd" d="M142.316 36.2073C142.316 35.4535 141.705 34.8425 140.951 34.8425H132.887C132.134 34.8425 131.523 35.4535 131.523 36.2073C131.523 36.961 132.134 37.572 132.887 37.572H140.951C141.705 37.572 142.316 36.961 142.316 36.2073Z" fill="white"/>
<path fill-rule="evenodd" clip-rule="evenodd" d="M150.892 36.2073C150.892 35.4535 150.281 34.8425 149.527 34.8425H146.31C145.556 34.8425 144.945 35.4535 144.945 36.2073C144.945 36.961 145.556 37.572 146.31 37.572H149.527C150.281 37.572 150.892 36.961 150.892 36.2073Z" fill="white"/>
</g>
<path fill-rule="evenodd" clip-rule="evenodd" d="M124.572 12.1075C123.819 12.0984 123.2 12.702 123.191 13.4556L123.101 20.8631C123.092 21.6167 123.696 22.2351 124.449 22.2442C125.203 22.2534 125.821 21.6498 125.831 20.8961L125.92 13.4887C125.929 12.735 125.326 12.1167 124.572 12.1075Z" fill="white"/>
<path fill-rule="evenodd" clip-rule="evenodd" d="M111.473 13.7531C110.934 14.2805 110.925 15.1445 111.452 15.6831L119.157 23.5519C119.685 24.0904 120.549 24.0995 121.087 23.5722C121.626 23.0448 121.635 22.1808 121.107 21.6423L113.403 13.7735C112.875 13.2349 112.011 13.2258 111.473 13.7531Z" fill="white"/>
<path fill-rule="evenodd" clip-rule="evenodd" d="M119.419 27.3259C119.419 26.5722 118.808 25.9612 118.055 25.9612H110.657C109.904 25.9612 109.293 26.5722 109.293 27.3259C109.293 28.0796 109.904 28.6906 110.657 28.6906H118.055C118.808 28.6906 119.419 28.0796 119.419 27.3259Z" fill="white"/>
<path d="M84.3255 269.055L103.748 258.11C120.812 248.921 132.427 232.12 134.991 212.922C136.003 205.361 140.478 198.709 147.093 194.916L169.964 178.666C174.823 174.86 175.759 167.888 172.079 162.941C168.874 158.635 163.105 157.161 158.234 159.391L155.657 160.57C142.926 166.388 130.824 173.488 119.53 181.754L82.7742 208.68L84.3255 269.055Z" fill="#F9D4B3"/>
<path d="M169.809 176.282C171.745 174.757 173.001 172.578 173.322 170.143C173.655 167.695 173.027 165.26 171.553 163.287C169.784 160.916 166.963 159.493 164.002 159.493C162.643 159.493 161.335 159.775 160.104 160.339L155.579 162.402L166.335 178.73L169.809 176.282Z" fill="#FFDAB5"/>
<path d="M164.002 159.75C162.681 159.75 161.412 160.032 160.207 160.583L155.964 162.531L166.412 178.396L169.656 176.09C171.54 174.616 172.745 172.488 173.066 170.118C173.386 167.747 172.771 165.376 171.348 163.453C170.489 162.3 169.361 161.352 168.079 160.724C166.81 160.083 165.412 159.75 164.002 159.75ZM164.002 159.237C166.976 159.237 169.886 160.621 171.758 163.133C174.886 167.337 174.091 173.257 169.963 176.487L166.271 179.114L155.207 162.313L160.002 160.121C161.284 159.519 162.656 159.237 164.002 159.237Z" fill="#F2C494"/>
<path opacity="0.19" d="M130.247 75.2565H225.27C228.373 75.2565 230.885 77.7683 230.885 80.8697V123.674C230.885 126.775 228.373 129.287 225.27 129.287H157.375L151.426 138.027L145.196 129.287H130.247C127.145 129.287 124.632 126.775 124.632 123.674V80.8697C124.619 77.7811 127.145 75.2565 130.247 75.2565Z" fill="#0B6770"/>
<path d="M137.08 68.6051H232.116C235.218 68.6051 237.731 71.117 237.731 74.2184V117.023C237.731 120.124 235.218 122.636 232.116 122.636H164.233L158.285 131.376L152.054 122.636H137.106C134.003 122.636 131.491 120.124 131.491 117.023V74.2184C131.465 71.117 133.978 68.6051 137.08 68.6051Z" fill="white"/>
<path opacity="0.2" d="M143.528 93.493H186.758V107.962H143.528V93.493Z" fill="#9CA6C0"/>
<path d="M178.105 97.7849L176.926 99.7996L179.515 100.649L176.926 101.479L178.189 103.572L180.294 101.834L179.768 104.402H182.23L181.725 101.834L183.809 103.592L185.114 101.459L182.525 100.609L185.093 99.8194L183.893 97.7849L181.704 99.5033L182.251 96.896H179.747L180.294 99.5033L178.105 97.7849Z" fill="#9CA6C0"/>
<path d="M167.186 97.7849L166.007 99.7996L168.597 100.649L166.007 101.479L167.27 103.572L169.375 101.834L168.849 104.402H171.312L170.807 101.834L172.891 103.592L174.196 101.459L171.607 100.609L174.175 99.8194L172.975 97.7849L170.786 99.5033L171.333 96.896H168.828L169.375 99.5033L167.186 97.7849Z" fill="#9CA6C0"/>
<path d="M156.269 97.7849L155.09 99.7996L157.679 100.649L155.09 101.479L156.353 103.572L158.458 101.834L157.932 104.402H160.394L159.889 101.834L161.973 103.592L163.278 101.459L160.689 100.609L163.257 99.8194L162.057 97.7849L159.868 99.5033L160.416 96.896H157.911L158.458 99.5033L156.269 97.7849Z" fill="#9CA6C0"/>
<path d="M145.351 97.7849L144.172 99.7996L146.762 100.649L144.172 101.479L145.435 103.572L147.54 101.834L147.014 104.402H149.477L148.972 101.834L151.056 103.592L152.361 101.459L149.772 100.609L152.34 99.8194L151.14 97.7849L148.951 99.5033L149.498 96.896H146.993L147.54 99.5033L145.351 97.7849Z" fill="#9CA6C0"/>
<path fill-rule="evenodd" clip-rule="evenodd" d="M187.005 107.863H143.514V109.855H187.005V107.863Z" fill="#9CA6C0"/>
<path fill-rule="evenodd" clip-rule="evenodd" d="M174.675 86.9187C174.675 86.165 174.064 85.554 173.31 85.554H144.683C143.929 85.554 143.318 86.165 143.318 86.9187C143.318 87.6724 143.929 88.2834 144.683 88.2834H173.31C174.064 88.2834 174.675 87.6724 174.675 86.9187Z" fill="#9CA6C0"/>
<path fill-rule="evenodd" clip-rule="evenodd" d="M168.747 82.4845C168.747 81.7308 168.136 81.1198 167.382 81.1198H144.652C143.899 81.1198 143.288 81.7308 143.288 82.4845C143.288 83.2382 143.899 83.8492 144.652 83.8492H167.382C168.136 83.8492 168.747 83.2382 168.747 82.4845Z" fill="#9CA6C0"/>
<path d="M210.985 111.973C210.561 111.973 210.164 111.819 209.869 111.524L198.908 101.093C198.113 100.336 197.613 99.324 197.485 98.2346L195.754 82.8687C195.69 82.292 195.857 81.7281 196.216 81.2924C196.575 80.8438 197.087 80.5619 197.664 80.5106L203.292 79.9467C205.844 79.6904 208.42 79.5623 210.985 79.5623C213.549 79.5623 216.125 79.6904 218.677 79.9467L224.305 80.5106C224.882 80.5619 225.394 80.8438 225.753 81.2924C226.112 81.7409 226.279 82.3048 226.215 82.8687L224.484 98.2218C224.356 99.3112 223.856 100.324 223.061 101.08L212.1 111.512C211.805 111.806 211.408 111.973 210.985 111.973Z" fill="url(#paint1_linear_1198_7945)"/>
<path d="M210.984 80.5362C213.523 80.5362 216.048 80.6644 218.574 80.9079L224.202 81.4718C224.856 81.5359 225.33 82.1254 225.253 82.7662L223.522 98.1193C223.42 98.9908 223.022 99.7853 222.394 100.388L211.433 110.82C211.305 110.935 211.138 110.999 210.971 110.999C210.805 110.999 210.638 110.935 210.51 110.82L199.574 100.388C198.946 99.7853 198.536 98.9779 198.446 98.1193L196.715 82.7662C196.639 82.1126 197.113 81.5359 197.767 81.4718L203.395 80.9079C205.92 80.6516 208.459 80.5362 210.984 80.5362ZM210.984 78.6011C208.395 78.6011 205.779 78.7292 203.202 78.9855L197.574 79.5494C196.741 79.6263 195.998 80.0364 195.472 80.69C194.946 81.3436 194.703 82.151 194.805 82.984L196.523 98.3243C196.677 99.6444 197.28 100.862 198.241 101.772L209.202 112.204C209.689 112.665 210.318 112.921 210.984 112.921C211.651 112.921 212.279 112.665 212.766 112.204L223.727 101.772C224.689 100.862 225.291 99.6315 225.445 98.3243L227.176 82.9712C227.266 82.1382 227.035 81.3308 226.509 80.6772C225.984 80.0236 225.24 79.6263 224.407 79.5366L218.779 78.9727C216.202 78.7292 213.574 78.6011 210.984 78.6011Z" fill="#AC27FD"/>
<g opacity="0.8">
<mask id="mask0_1198_7945" style="mask-type:alpha" maskUnits="userSpaceOnUse" x="195" y="73" width="36" height="36">
<g opacity="0.8">
<g opacity="0.8">
<path opacity="0.8" d="M204.049 108.59L195.357 100.272L221.459 73.0392L230.151 81.3565L204.049 108.59Z" fill="url(#paint2_linear_1198_7945)"/>
</g>
</g>
</mask>
<g mask="url(#mask0_1198_7945)">
<path opacity="0.8" d="M204.049 108.59L195.357 100.272L221.459 73.0392L230.151 81.3565L204.049 108.59Z" fill="url(#paint3_linear_1198_7945)"/>
</g>
</g>
<path d="M209.544 97.5779C209.271 97.5779 209.011 97.4636 208.82 97.2637L204.956 93.2224C204.56 92.8082 204.56 92.1228 204.956 91.7086C205.352 91.2945 206.008 91.2945 206.403 91.7086L209.544 94.9931L226.071 78.1441C226.467 77.7299 227.122 77.7299 227.518 78.1441C227.914 78.5582 227.914 79.2437 227.518 79.6578L210.268 97.2637C210.076 97.4636 209.817 97.5779 209.544 97.5779Z" fill="#30D82E"/>
<defs>
<linearGradient id="paint0_linear_1198_7945" x1="12.5" y1="-12.5" x2="248" y2="256" gradientUnits="userSpaceOnUse">
<stop offset="0.00384325" stop-color="#EFDDFA" stop-opacity="0"/>
<stop offset="1" stop-color="white" stop-opacity="0.37"/>
</linearGradient>
<linearGradient id="paint1_linear_1198_7945" x1="200.688" y1="80.8961" x2="218.852" y2="97.3361" gradientUnits="userSpaceOnUse">
<stop stop-color="#FFE887"/>
<stop offset="0.174" stop-color="#FDDF7B"/>
<stop offset="0.4853" stop-color="#F8C65D"/>
<stop offset="0.8953" stop-color="#EF9E2B"/>
<stop offset="1" stop-color="#ED931D"/>
</linearGradient>
<linearGradient id="paint2_linear_1198_7945" x1="195.987" y1="108.85" x2="235.747" y2="66.0603" gradientUnits="userSpaceOnUse">
<stop/>
<stop offset="1" stop-color="white"/>
</linearGradient>
<linearGradient id="paint3_linear_1198_7945" x1="195.987" y1="108.85" x2="235.747" y2="66.0603" gradientUnits="userSpaceOnUse">
<stop stop-color="white"/>
<stop offset="1" stop-color="white"/>
</linearGradient>
</defs>
</svg>
