<svg width="257" height="224" viewBox="0 0 257 224" fill="none" xmlns="http://www.w3.org/2000/svg">
<path d="M225.631 130.594C220.14 138.4 223.939 150.734 218.735 159.009C215.56 163.667 210.278 164.005 205.698 165.332C197.684 168.455 188.863 172.384 182.357 179.774C179.547 183.391 177.647 188.153 174.421 191.145C172.755 187.554 171.376 182.974 170.596 178.161C170.648 178.03 170.7 177.9 170.752 177.796C172.729 173.034 176.008 168.689 180.822 166.581C185.22 164.656 190.554 164.395 194.197 160.987C196.201 159.113 197.241 156.537 198.308 154.065C199.401 151.515 200.598 149.147 202.628 147.221C206.011 143.995 210.825 141.887 212.932 137.489C214.207 134.809 214.025 131.817 214.181 128.928C214.285 127.315 214.493 125.702 215.17 124.219C215.743 122.943 216.549 121.825 217.46 120.784C219.255 118.728 221.415 117.037 223.263 115.007C225.136 112.951 226.489 110.557 227.4 107.955C229.404 102.257 229.378 96.1677 229.976 90.2348C230.497 84.8744 231.563 79.1238 234.894 74.7262C234.998 74.57 235.128 74.4399 235.232 74.2838C236.039 74.466 236.846 74.9083 237.6 75.6109C243.273 82.2723 235.571 93.4615 235.961 101.762C237.314 111.208 241.556 117.427 232.37 124.401C230.028 126.274 227.452 127.914 225.631 130.594Z" fill="url(#paint0_linear_1196_7077)"/>
<path d="M229.976 90.2348C229.403 96.1677 229.403 102.257 227.4 107.955C226.489 110.557 225.11 112.951 223.262 115.007C221.441 117.037 219.281 118.728 217.46 120.784C216.549 121.825 215.742 122.944 215.17 124.219C214.493 125.702 214.285 127.315 214.181 128.928C213.999 131.817 214.207 134.809 212.932 137.489C210.824 141.861 206.01 143.995 202.628 147.221C200.598 149.147 199.401 151.541 198.308 154.065C197.241 156.537 196.174 159.113 194.197 160.987C190.554 164.395 185.219 164.656 180.822 166.581C175.982 168.689 172.729 173.034 170.752 177.796C170.7 177.926 170.648 178.056 170.595 178.161C170.543 177.926 170.517 177.666 170.491 177.432C168.878 166.269 170.804 154.065 181.108 150.474C186.468 149.902 190.97 149.98 191.699 141.679C194.457 128.122 192.688 113.186 206.479 109.178C212.49 106.966 222.456 106.394 224.98 97.6509C225.5 94.06 224.329 90.5731 224.772 86.9822C225.058 80.555 230.028 73.5032 234.816 74.2058C234.946 74.2318 235.102 74.2578 235.232 74.2838C235.102 74.44 234.998 74.5701 234.894 74.7262C231.563 79.1238 230.522 84.8745 229.976 90.2348Z" fill="url(#paint1_linear_1196_7077)"/>
<path d="M229.977 90.2348C229.404 96.1676 229.404 102.257 227.401 107.955C226.49 110.557 225.111 112.951 223.263 115.007C221.442 117.037 219.282 118.728 217.46 120.784C216.55 121.825 215.743 122.943 215.171 124.218C214.494 125.702 214.286 127.315 214.182 128.928C214 131.817 214.208 134.809 212.933 137.489C210.825 141.861 206.011 143.995 202.628 147.221C200.599 149.147 199.402 151.541 198.309 154.065C197.242 156.537 196.175 159.113 194.198 160.986C190.555 164.395 185.22 164.655 180.823 166.581C175.983 168.689 172.73 173.034 170.752 177.796C170.7 177.926 170.648 178.056 170.596 178.16C170.544 177.926 170.518 177.666 170.492 177.432C170.961 176.313 171.533 175.194 172.184 174.101C173.381 172.098 174.864 170.25 176.659 168.741C178.585 167.153 180.771 166.087 183.138 165.332C185.558 164.551 188.056 164.031 190.372 162.99C193.027 161.819 195.004 159.998 196.383 157.422C197.736 154.924 198.543 152.139 200.078 149.745C201.379 147.716 203.201 146.154 205.1 144.697C207.078 143.188 209.186 141.783 210.851 139.909C212.881 137.645 213.583 134.991 213.739 131.999C213.87 129.11 213.791 126.17 215.145 123.516C216.342 121.174 218.319 119.353 220.193 117.557C222.274 115.579 224.278 113.602 225.657 111.052C227.14 108.346 227.947 105.327 228.441 102.309C229.951 93.2272 228.728 81.6998 234.843 74.1797C234.973 74.2057 235.129 74.2317 235.259 74.2577C235.129 74.4139 235.025 74.544 234.921 74.7001C231.564 79.1237 230.523 84.8744 229.977 90.2348Z" fill="white"/>
<path d="M241.503 106.446C241.061 103.141 241.399 99.5765 243.195 96.6881C243.325 96.48 243.038 96.2978 242.882 96.48C241.165 98.8219 240.671 101.788 240.723 104.625C240.749 106.238 240.879 107.825 241.087 109.413C241.295 111.026 241.529 112.639 241.659 114.252C241.894 117.219 241.815 120.367 240.384 123.048C239.239 125.207 237.366 126.847 235.57 128.486C234.53 129.423 233.489 130.36 232.578 131.426C231.745 132.389 230.756 133.612 230.6 134.913C230.574 135.174 230.965 135.382 231.147 135.174C231.537 134.731 231.849 134.211 232.214 133.716C232.552 133.222 232.916 132.78 233.333 132.337C234.165 131.452 235.05 130.62 235.961 129.813C237.808 128.174 239.734 126.56 241.061 124.453C244.574 118.988 242.31 112.327 241.503 106.446Z" fill="url(#paint2_linear_1196_7077)"/>
<path d="M230.575 136.917C230.653 136.709 230.341 136.527 230.211 136.735C229.872 137.255 229.586 137.828 229.378 138.452C229.274 138.765 229.222 139.103 229.196 139.415C229.17 139.727 229.092 140.144 229.196 140.456C229.352 141.028 230.158 140.976 230.237 140.378C230.263 140.274 230.237 140.144 230.211 140.04C230.211 140.04 230.211 139.909 230.211 139.935C230.211 139.779 230.184 139.623 230.211 139.493C230.211 139.207 230.237 138.921 230.263 138.634C230.289 138.036 230.393 137.463 230.575 136.917Z" fill="url(#paint3_linear_1196_7077)"/>
<path d="M228.884 71.5255C227.947 71.9158 227.037 72.3842 226.204 72.9827C225.371 73.5552 224.617 74.3098 223.966 75.0644C222.639 76.6257 221.624 78.4472 221.052 80.4248C220.739 81.5697 220.557 82.7406 220.531 83.9116C220.531 84.2239 220.687 84.5101 221 84.5621C221.286 84.6142 221.624 84.38 221.65 84.0937C221.702 80.2686 223.524 76.5216 226.438 74.0496C227.271 73.347 228.129 72.6704 229.144 72.176C229.561 71.9939 229.3 71.3434 228.884 71.5255Z" fill="url(#paint4_linear_1196_7077)"/>
<path d="M99.0625 15.1115C97.6054 14.7472 95.8359 16.6988 95.1333 19.431C94.5348 21.7209 94.8731 23.8286 95.8619 24.6873C95.8099 24.7654 95.7578 24.8434 95.7318 24.9215C94.5088 27.0032 93.0777 29.1109 91.1521 30.6722C90.996 30.412 90.8138 30.1518 90.6317 29.9176C89.3826 28.1481 88.0035 26.4828 86.5724 24.8695C87.5091 24.0888 87.9775 22.9179 88.4199 21.851C88.9403 20.602 89.3566 19.327 89.7209 18.0519C89.9811 17.0631 90.2153 16.0483 90.3975 15.0335C90.4495 15.0335 90.4755 15.0335 90.5276 15.0335C92.0368 14.9294 93.0777 12.5614 92.8955 9.75115C92.6873 6.94085 91.3082 4.72905 89.799 4.83314C88.2897 4.93722 87.2489 7.30515 87.4311 10.1154C87.5872 12.3272 88.4719 14.1487 89.5908 14.7993C89.4347 15.736 89.2265 16.6728 88.9923 17.6096C88.6801 18.7805 88.2898 19.9254 87.8734 21.0704C87.4311 22.1893 87.0147 23.4903 86.0519 24.271C84.2565 22.2934 82.3569 20.3938 80.5094 18.4422C80.5354 18.4162 80.5614 18.3902 80.5614 18.3642C81.6283 16.2825 82.1487 14.0186 82.0967 11.7027C82.0967 11.3124 82.0707 10.9221 82.0447 10.5318C83.1115 9.82921 83.7881 7.82558 83.632 5.50969C83.4238 2.6994 82.0447 0.487593 80.5354 0.591678C79.0262 0.695763 77.9854 3.06369 78.1675 5.87398C78.3757 8.63223 79.7028 10.792 81.1599 10.792C81.3161 13.1859 81.0298 15.5279 79.9109 17.7917C78.9221 16.7248 77.9593 15.658 77.0226 14.5651C75.5394 12.7956 74.1863 10.9481 73.0153 8.99653C73.926 8.03374 73.822 5.79592 72.703 3.58412C71.428 1.03404 69.2943 -0.501213 67.9412 0.149317C66.5881 0.799848 66.51 3.34993 67.8111 5.90001C69.008 8.26794 70.9596 9.77717 72.3127 9.43889C74.1342 12.5354 76.4761 15.3457 78.9481 18.0259C77.7772 18.0779 76.6062 17.8698 75.4613 17.6876C74.1342 17.4794 72.8071 17.2713 71.5061 17.0111C70.6474 16.8289 69.7887 16.6207 68.93 16.3866C68.5397 15.2156 66.9784 13.9145 64.8446 13.212C62.0864 12.3012 59.4322 12.6655 58.9638 14.0446C58.4694 15.4238 60.3169 17.2973 63.0752 18.208C65.8334 19.1188 68.4876 18.7545 68.956 17.3754C68.982 17.3233 68.982 17.2973 68.982 17.2453C69.7887 17.4794 70.5953 17.6616 71.428 17.8437C72.7551 18.104 74.0822 18.3381 75.4093 18.5203C76.7884 18.7285 78.1675 18.9627 79.5466 18.8065C79.5726 18.8065 79.6247 18.7805 79.6507 18.7805C80.2232 19.379 80.7956 20.0035 81.3681 20.602C82.6692 21.9551 83.9963 23.3082 85.2713 24.7133C81.8885 25.572 78.4017 25.8583 74.9409 25.6241C74.5245 24.4271 72.651 23.2822 70.2831 22.8658C67.3947 22.3714 64.8707 23.126 64.5844 24.5572C64.3242 25.9884 66.4319 27.5497 69.3203 28.0441C72.1306 28.5385 74.6286 27.8099 74.9929 26.4307C78.5578 26.691 82.1487 26.3527 85.6096 25.468C85.7137 25.4419 85.7917 25.3899 85.8438 25.3118C86.6764 26.2226 87.4571 27.1593 88.2377 28.1221C89.0704 29.163 89.8771 30.2559 90.6056 31.3748C90.5796 31.3748 90.5276 31.4008 90.5016 31.4008C88.2117 32.3896 85.7917 33.0662 83.2937 33.4044C82.6431 33.4825 81.9666 33.5606 81.29 33.6126C80.5875 32.5718 78.6619 31.7911 76.3981 31.7391C73.4837 31.635 71.0637 32.7539 71.0117 34.2111C70.9596 35.6683 73.3015 36.9173 76.2159 37.0214C79.1303 37.1255 81.5503 36.0065 81.6023 34.5494C81.6023 34.4973 81.6023 34.4713 81.6023 34.4193C82.1487 34.3672 82.6952 34.3152 83.2156 34.2631C85.8698 33.9509 88.4719 33.2223 90.8919 32.1554C90.9699 32.1294 90.996 32.0773 91.048 32.0513C92.0888 33.6907 92.9996 35.4081 93.8063 37.1775C93.9624 37.5158 94.1185 37.8541 94.2486 38.1923C94.2226 38.1923 94.1705 38.2184 94.1445 38.2184C92.8174 38.7648 91.4643 39.2072 90.0592 39.5454C89.2265 38.6347 87.4311 37.9581 85.3494 37.9061C82.435 37.802 80.015 38.9209 79.963 40.3781C79.9109 41.8353 82.2528 43.0843 85.1672 43.1884C88.0816 43.2925 90.5016 42.1736 90.5536 40.7164C90.5536 40.5863 90.5276 40.4302 90.5016 40.3001C91.8807 39.9618 93.2078 39.5194 94.5088 38.973C94.5349 38.973 94.5348 38.9469 94.5609 38.9469C95.8619 42.0695 96.9028 45.2961 97.8395 48.5228C97.9957 49.0432 98.8284 48.8871 98.6722 48.3666C97.6834 44.9839 96.5905 41.6011 95.2114 38.3485C96.1742 37.6199 97.137 36.8392 97.9957 35.9805C98.0477 36.0065 98.0998 36.0326 98.1518 36.0586C99.5569 36.579 101.561 34.8876 102.627 32.2595C103.694 29.6314 103.434 27.0813 102.003 26.5348C100.598 26.0144 98.5942 27.7058 97.5273 30.3339C96.6946 32.3636 96.6686 34.3412 97.3712 35.382C96.5905 36.1627 95.7318 36.8913 94.8471 37.5418C93.9103 35.4341 92.8435 33.3524 91.5944 31.4008C91.6465 31.3748 91.6725 31.3748 91.7246 31.3227C93.7802 29.6574 95.3415 27.3675 96.6165 25.1037L96.6426 25.0776C98.0737 25.3118 99.7651 23.4123 100.468 20.7321C101.144 17.9739 100.546 15.4758 99.0625 15.1115Z" fill="url(#paint5_linear_1196_7077)"/>
<path d="M202.705 200.981C203.694 200.33 204.136 199.055 203.98 197.884C203.824 196.713 203.121 195.673 202.21 194.918C201.3 194.163 200.233 193.643 199.14 193.227C197.318 192.524 195.341 192.056 193.441 192.212C195.315 190.078 197.37 188.074 199.582 186.227C199.79 186.071 199.973 185.889 200.181 185.733C201.378 187.398 202.575 189.037 203.772 190.703C204.578 191.795 205.385 192.94 206.556 193.669C207.701 194.398 209.288 194.632 210.407 193.877C211.396 193.227 211.838 191.952 211.682 190.781C211.526 189.61 210.823 188.569 209.913 187.814C209.002 187.06 207.935 186.539 206.842 186.123C204.969 185.42 202.939 184.926 200.961 185.134C203.459 183.182 206.114 181.413 208.924 179.904C210.199 181.543 211.474 183.156 212.749 184.796C213.582 185.863 214.466 186.956 215.637 187.658C216.808 188.335 218.396 188.517 219.488 187.71C220.451 187.034 220.842 185.733 220.659 184.562C220.451 183.417 219.723 182.402 218.786 181.673C217.849 180.945 216.756 180.476 215.637 180.112C213.842 179.513 211.942 179.123 210.069 179.305C212.125 178.264 214.206 177.328 216.366 176.547C217.016 176.313 217.641 176.105 218.292 175.897C219.645 177.536 221.024 179.149 222.377 180.789C223.262 181.829 224.146 182.896 225.343 183.547C226.54 184.197 228.128 184.301 229.194 183.495C230.131 182.766 230.495 181.465 230.261 180.32C230.027 179.175 229.246 178.186 228.284 177.484C227.321 176.781 226.228 176.365 225.083 176.027C223.47 175.532 221.752 175.22 220.113 175.35C222.325 174.726 224.589 174.231 226.879 173.893C228.804 174.648 230.73 175.428 232.655 176.183C233.93 176.677 235.231 177.198 236.584 177.198C237.938 177.198 239.395 176.547 239.941 175.298C240.41 174.231 240.123 172.904 239.369 171.993C238.614 171.109 237.443 170.588 236.298 170.432C235.127 170.276 233.956 170.432 232.785 170.666C230.652 171.109 228.518 171.863 226.905 173.294H226.879C224.459 173.659 222.039 174.179 219.697 174.856C221.102 173.815 222.247 172.384 223.184 170.9C223.808 169.912 224.354 168.845 224.615 167.7C224.875 166.555 224.797 165.306 224.224 164.265C223.652 163.25 222.507 162.496 221.336 162.6C219.983 162.704 218.864 163.849 218.396 165.124C217.927 166.399 217.953 167.804 217.979 169.157C218.031 171.239 218.083 173.294 218.161 175.376C215.299 176.313 212.515 177.458 209.835 178.837C211.058 177.458 211.838 175.688 212.411 173.919C212.775 172.8 213.035 171.629 212.983 170.458C212.931 169.287 212.567 168.09 211.734 167.231C210.928 166.373 209.626 165.956 208.508 166.321C207.206 166.763 206.426 168.116 206.296 169.469C206.166 170.822 206.53 172.175 206.894 173.477C207.467 175.454 208.039 177.458 208.612 179.435C208.534 179.487 208.456 179.513 208.351 179.566C205.645 181.075 203.043 182.792 200.597 184.692C201.742 182.974 202.262 180.867 202.471 178.811C202.575 177.64 202.627 176.443 202.341 175.298C202.054 174.153 201.456 173.06 200.467 172.41C199.504 171.733 198.151 171.577 197.136 172.175C195.965 172.852 195.471 174.361 195.601 175.714C195.731 177.067 196.382 178.317 197.006 179.513C197.995 181.413 198.984 183.287 199.973 185.186C199.947 185.212 199.895 185.238 199.869 185.264L199.816 185.238C199.816 185.264 199.842 185.264 199.842 185.29C197.501 187.19 195.315 189.271 193.285 191.535C193.623 189.714 193.441 187.788 193.025 185.967C192.765 184.796 192.4 183.625 191.776 182.61C191.151 181.595 190.189 180.736 189.044 180.398C187.899 180.06 186.546 180.346 185.739 181.231C184.828 182.272 184.828 183.885 185.401 185.16C185.973 186.435 186.988 187.424 187.977 188.387C189.382 189.766 190.813 191.119 192.218 192.498C192.244 192.55 192.296 192.602 192.322 192.654C190.163 195.178 188.263 197.91 186.598 200.799C186.416 201.111 186.858 201.423 187.04 201.137C188.653 198.301 190.553 195.621 192.635 193.123C193.78 194.684 194.898 196.271 196.043 197.832C196.85 198.925 197.657 200.07 198.828 200.799C199.999 201.475 201.56 201.736 202.705 200.981Z" fill="url(#paint6_linear_1196_7077)"/>
<path d="M196.512 34.1851V196.375C196.512 204.416 189.981 210.947 181.94 210.947H101.951C93.8842 210.947 87.3789 204.416 87.3789 196.375V34.1851H196.512Z" fill="url(#paint7_linear_1196_7077)"/>
<path d="M99.8692 30.6723C101.852 30.6723 103.46 29.0646 103.46 27.0814C103.46 25.0982 101.852 23.4905 99.8692 23.4905C97.886 23.4905 96.2783 25.0982 96.2783 27.0814C96.2783 29.0646 97.886 30.6723 99.8692 30.6723Z" fill="white"/>
<path d="M99.8687 29.5011C101.205 29.5011 102.289 28.4176 102.289 27.0811C102.289 25.7446 101.205 24.6611 99.8687 24.6611C98.5322 24.6611 97.4487 25.7446 97.4487 27.0811C97.4487 28.4176 98.5322 29.5011 99.8687 29.5011Z" fill="white"/>
<path d="M108.378 29.5011C109.714 29.5011 110.798 28.4176 110.798 27.0811C110.798 25.7446 109.714 24.6611 108.378 24.6611C107.041 24.6611 105.958 25.7446 105.958 27.0811C105.958 28.4176 107.041 29.5011 108.378 29.5011Z" fill="white"/>
<path d="M110.017 44.099H95.4968C95.0805 44.099 94.7422 43.7607 94.7422 43.3444V43.1362C94.7422 42.7199 95.0805 42.3816 95.4968 42.3816H110.017C110.433 42.3816 110.771 42.7199 110.771 43.1362V43.3444C110.771 43.7607 110.433 44.099 110.017 44.099Z" fill="white"/>
<path d="M110.017 48.8091H95.4968C95.0805 48.8091 94.7422 48.4708 94.7422 48.0545V47.8463C94.7422 47.4299 95.0805 47.0917 95.4968 47.0917H110.017C110.433 47.0917 110.771 47.4299 110.771 47.8463V48.0545C110.771 48.4708 110.433 48.8091 110.017 48.8091Z" fill="white"/>
<path d="M110.017 53.4928H95.4968C95.0805 53.4928 94.7422 53.1545 94.7422 52.7382V52.53C94.7422 52.1137 95.0805 51.7754 95.4968 51.7754H110.017C110.433 51.7754 110.771 52.1137 110.771 52.53V52.7382C110.771 53.1545 110.433 53.4928 110.017 53.4928Z" fill="white"/>
<path d="M165.859 108.58H119.359C116.341 108.58 113.895 111.026 113.895 114.044V118.858C113.895 121.877 116.341 124.323 119.359 124.323H165.885C168.904 124.323 171.35 121.877 171.35 118.858V114.044C171.324 111.026 168.878 108.58 165.859 108.58Z" fill="white"/>
<path d="M114.452 69.3624C114.801 65.7143 112.126 62.474 108.478 62.1251C104.83 61.7761 101.59 64.4506 101.241 68.0988C100.892 71.7469 103.566 74.9872 107.214 75.3362C110.863 75.6851 114.103 73.0106 114.452 69.3624Z" fill="white"/>
<path d="M107.753 69.4439C109.176 69.4439 110.329 68.2906 110.329 66.8678C110.329 65.4451 109.176 64.2917 107.753 64.2917C106.33 64.2917 105.177 65.4451 105.177 66.8678C105.177 68.2906 106.33 69.4439 107.753 69.4439Z" fill="url(#paint8_linear_1196_7077)"/>
<path d="M110.122 69.47C109.914 69.3139 109.627 69.3139 109.419 69.47C108.977 69.8343 108.404 70.0425 107.78 70.0685C107.181 70.0685 106.635 69.8603 106.192 69.522C105.984 69.3659 105.698 69.3659 105.49 69.5481C104.969 69.9904 104.657 70.641 104.657 71.4736V71.5517C104.657 71.9941 105.022 72.3323 105.438 72.3323L110.278 72.3063C110.72 72.3063 111.058 71.942 111.058 71.5257V71.4476C111.058 70.5629 110.694 69.9124 110.122 69.47Z" fill="url(#paint9_linear_1196_7077)"/>
<path d="M108.141 96.8188C111.979 96.806 115.079 93.6851 115.066 89.848C115.053 86.0109 111.932 82.9107 108.095 82.9235C104.258 82.9363 101.158 86.0572 101.171 89.8943C101.183 93.7314 104.304 96.8316 108.141 96.8188Z" fill="white"/>
<path d="M110.486 86.9043V87.815C110.486 87.9972 110.33 88.1533 110.147 88.1533C110.069 88.1533 109.965 88.1273 109.913 88.0492C109.861 87.9972 109.809 87.9191 109.809 87.815V86.9824C109.809 86.54 109.445 86.1757 109.002 86.2017H107.155C106.713 86.2017 106.348 86.566 106.348 87.0084V89.2202H105.698V86.9303C105.698 86.1757 106.296 85.5512 107.051 85.5512H109.054C109.861 85.5252 110.486 86.1497 110.486 86.9043Z" fill="url(#paint10_linear_1196_7077)"/>
<path d="M108.274 91.4059L108.326 92.1085C108.326 92.1345 108.3 92.1606 108.274 92.1606H107.935C107.909 92.1606 107.883 92.1345 107.883 92.1085L107.935 91.4059C107.857 91.3539 107.779 91.2498 107.779 91.1457C107.779 90.9896 107.909 90.8595 108.066 90.8595C108.248 90.8595 108.378 90.9896 108.378 91.1718C108.43 91.2758 108.352 91.3539 108.274 91.4059Z" fill="#C7CBFF"/>
<path d="M111.916 89.402L104.318 89.428C104.292 89.5321 104.266 89.6362 104.266 89.7663V90.7291C104.266 92.6546 106.01 94.2159 108.143 94.2159C109.21 94.2159 110.173 93.8256 110.875 93.1751C111.578 92.5505 111.994 91.6658 111.994 90.703V89.7403C111.968 89.6101 111.942 89.5061 111.916 89.402ZM108.117 92.7327C107.415 92.7327 106.816 92.1602 106.816 91.4577C106.816 90.7551 107.389 90.1566 108.091 90.1566C108.794 90.1566 109.392 90.7291 109.392 91.4316C109.418 92.1602 108.82 92.7327 108.117 92.7327Z" fill="url(#paint11_linear_1196_7077)"/>
<path d="M111.812 89.1941L104.422 89.2201C104.63 88.9339 104.968 88.7257 105.385 88.7257L110.823 88.6997C111.239 88.6997 111.604 88.8819 111.812 89.1941Z" fill="url(#paint12_linear_1196_7077)"/>
<path d="M108.274 91.4059L108.326 92.1085C108.326 92.1345 108.3 92.1606 108.274 92.1606H107.935C107.909 92.1606 107.883 92.1345 107.883 92.1085L107.935 91.4059C107.857 91.3539 107.779 91.2498 107.779 91.1457C107.779 90.9896 107.909 90.8595 108.066 90.8595C108.248 90.8595 108.378 90.9896 108.378 91.1718C108.43 91.2758 108.352 91.3539 108.274 91.4059Z" fill="#C7CBFF"/>
<path d="M108.274 91.4059L108.326 92.1085C108.326 92.1345 108.3 92.1606 108.274 92.1606H107.935C107.909 92.1606 107.883 92.1345 107.883 92.1085L107.935 91.4059C107.857 91.3539 107.779 91.2498 107.779 91.1457C107.779 90.9896 107.909 90.8595 108.066 90.8595C108.248 90.8595 108.378 90.9896 108.378 91.1718C108.43 91.2758 108.352 91.3539 108.274 91.4059Z" fill="#C7CBFF"/>
<path d="M108.274 91.4059L108.326 92.1085C108.326 92.1345 108.3 92.1606 108.274 92.1606H107.935C107.909 92.1606 107.883 92.1345 107.883 92.1085L107.935 91.4059C107.857 91.3539 107.779 91.2498 107.779 91.1457C107.779 90.9896 107.909 90.8595 108.066 90.8595C108.248 90.8595 108.378 90.9896 108.378 91.1718C108.43 91.2758 108.352 91.3539 108.274 91.4059Z" fill="url(#paint13_linear_1196_7077)"/>
<path d="M177.152 73.035L125.032 73.2172C123.184 73.2172 121.675 71.734 121.675 69.8865V67.4665C121.675 65.619 123.158 64.1098 125.006 64.1098L177.126 63.9276C178.974 63.9276 180.483 65.4108 180.483 67.2583V69.6783C180.483 71.5258 179 73.035 177.152 73.035Z" fill="white"/>
<path d="M131.042 86.2803L125.136 86.3063C124.225 86.3063 123.47 87.0609 123.47 87.9717L123.496 93.8785C123.496 94.7892 124.251 95.5438 125.162 95.5438L131.068 95.5178C131.979 95.5178 132.734 94.7632 132.734 93.8524L132.708 87.9456C132.708 87.0089 131.953 86.2803 131.042 86.2803Z" fill="white"/>
<path d="M146.266 86.2277L140.359 86.2537C139.448 86.2537 138.693 87.0083 138.693 87.919L138.719 93.8259C138.719 94.7366 139.474 95.4912 140.385 95.4912L146.292 95.4652C147.202 95.4652 147.957 94.7106 147.957 93.7998L147.931 87.893C147.931 86.9563 147.176 86.2277 146.266 86.2277Z" fill="white"/>
<path d="M161.486 86.1755L155.579 86.2016C154.669 86.2016 153.914 86.9562 153.914 87.8669L153.94 93.7737C153.94 94.6845 154.695 95.4391 155.605 95.4391L161.512 95.4131C162.423 95.4131 163.178 94.6585 163.178 93.7477L163.152 87.8409C163.152 86.9041 162.397 86.1755 161.486 86.1755Z" fill="white"/>
<path d="M176.71 86.1235L170.803 86.1496C169.892 86.1496 169.138 86.9042 169.138 87.8149L169.164 93.7217C169.164 94.6325 169.918 95.3871 170.829 95.3871L176.736 95.3611C177.647 95.3611 178.401 94.6065 178.401 93.6957L178.375 87.7889C178.375 86.8781 177.647 86.1235 176.71 86.1235Z" fill="white"/>
<path d="M128.31 88.3355L128.544 89.9748C128.544 90.0529 128.648 90.1049 128.726 90.0789L130.261 89.5064C130.391 89.4544 130.495 89.6366 130.391 89.7406L129.09 90.7555C129.038 90.8075 129.012 90.9116 129.09 90.9636L130.365 92.0045C130.469 92.1086 130.365 92.2907 130.235 92.2127L128.7 91.6142C128.622 91.5881 128.544 91.6402 128.518 91.7183L128.232 93.3576C128.206 93.5137 127.997 93.5137 127.971 93.3576L127.737 91.7183C127.737 91.6402 127.633 91.5881 127.555 91.6142L126.02 92.1866C125.89 92.2387 125.786 92.0565 125.89 91.9524L127.191 90.9376C127.243 90.8856 127.269 90.7815 127.191 90.7294L125.916 89.6886C125.812 89.5845 125.916 89.4024 126.046 89.4804L127.581 90.0789C127.659 90.1049 127.737 90.0529 127.763 89.9748L128.049 88.3355C128.075 88.2054 128.284 88.2054 128.31 88.3355Z" fill="url(#paint14_linear_1196_7077)"/>
<path d="M143.246 88.2835L143.48 89.9228C143.48 90.0009 143.584 90.0529 143.662 90.0269L145.197 89.4544C145.327 89.4024 145.431 89.5846 145.327 89.6886L144.026 90.7035C143.974 90.7555 143.948 90.8596 144.026 90.9116L145.301 91.9525C145.405 92.0566 145.301 92.2387 145.171 92.1607L143.636 91.5622C143.558 91.5361 143.48 91.5882 143.454 91.6663L143.168 93.3056C143.142 93.4617 142.933 93.4617 142.907 93.3056L142.673 91.6663C142.673 91.5882 142.569 91.5361 142.491 91.5622L140.956 92.1346C140.826 92.1867 140.722 92.0045 140.826 91.9004L142.127 90.8856C142.179 90.8336 142.205 90.7295 142.127 90.6774L140.852 89.6366C140.748 89.5325 140.852 89.3504 140.982 89.4284L142.517 90.0269C142.595 90.0529 142.673 90.0009 142.699 89.9228L142.985 88.2835C143.011 88.1534 143.246 88.1534 143.246 88.2835Z" fill="url(#paint15_linear_1196_7077)"/>
<path d="M158.703 88.1794L158.937 89.8187C158.937 89.8967 159.041 89.9488 159.12 89.9228L160.655 89.3503C160.785 89.2983 160.889 89.4804 160.785 89.5845L159.484 90.5993C159.432 90.6514 159.406 90.7555 159.484 90.8075L160.759 91.8483C160.863 91.9524 160.759 92.1346 160.629 92.0565L159.093 91.458C159.015 91.432 158.937 91.484 158.911 91.5621L158.625 93.2014C158.599 93.3576 158.391 93.3576 158.365 93.2014L158.131 91.5621C158.131 91.484 158.027 91.432 157.949 91.458L156.413 92.0305C156.283 92.0825 156.179 91.9004 156.283 91.7963L157.584 90.7815C157.636 90.7294 157.662 90.6253 157.584 90.5733L156.309 89.5325C156.205 89.4284 156.309 89.2462 156.439 89.3243L157.975 89.9228C158.053 89.9488 158.131 89.8967 158.157 89.8187L158.443 88.1794C158.469 88.0232 158.677 88.0232 158.703 88.1794Z" fill="url(#paint16_linear_1196_7077)"/>
<path d="M173.977 88.1273L174.211 89.7667C174.211 89.8448 174.315 89.8968 174.393 89.8708L175.928 89.2983C176.058 89.2463 176.162 89.4284 176.058 89.5325L174.757 90.5473C174.705 90.5994 174.679 90.7035 174.757 90.7555L176.032 91.7963C176.136 91.9004 176.032 92.0826 175.902 92.0045L174.367 91.406C174.289 91.38 174.211 91.432 174.185 91.5101L173.899 93.1494C173.873 93.3056 173.664 93.3056 173.638 93.1494L173.404 91.5101C173.404 91.432 173.3 91.38 173.222 91.406L171.687 91.9785C171.557 92.0305 171.453 91.8484 171.557 91.7443L172.858 90.7295C172.91 90.6774 172.936 90.5733 172.858 90.5213L171.583 89.4805C171.479 89.3764 171.583 89.1942 171.713 89.2723L173.248 89.8708C173.326 89.8968 173.404 89.8448 173.43 89.7667L173.716 88.1273C173.742 87.9712 173.951 87.9712 173.977 88.1273Z" fill="url(#paint17_linear_1196_7077)"/>
<path d="M127.113 70.4069C127.86 70.4069 128.466 69.8011 128.466 69.0538C128.466 68.3065 127.86 67.7007 127.113 67.7007C126.366 67.7007 125.76 68.3065 125.76 69.0538C125.76 69.8011 126.366 70.4069 127.113 70.4069Z" fill="url(#paint18_linear_1196_7077)"/>
<path d="M132.733 70.4069C133.481 70.4069 134.087 69.8011 134.087 69.0538C134.087 68.3065 133.481 67.7007 132.733 67.7007C131.986 67.7007 131.38 68.3065 131.38 69.0538C131.38 69.8011 131.986 70.4069 132.733 70.4069Z" fill="url(#paint19_linear_1196_7077)"/>
<path d="M138.355 70.4069C139.102 70.4069 139.708 69.8011 139.708 69.0538C139.708 68.3065 139.102 67.7007 138.355 67.7007C137.608 67.7007 137.002 68.3065 137.002 69.0538C137.002 69.8011 137.608 70.4069 138.355 70.4069Z" fill="url(#paint20_linear_1196_7077)"/>
<path d="M143.975 70.4069C144.722 70.4069 145.328 69.8011 145.328 69.0538C145.328 68.3065 144.722 67.7007 143.975 67.7007C143.228 67.7007 142.622 68.3065 142.622 69.0538C142.622 69.8011 143.228 70.4069 143.975 70.4069Z" fill="url(#paint21_linear_1196_7077)"/>
<path d="M149.595 70.4069C150.343 70.4069 150.948 69.8011 150.948 69.0538C150.948 68.3065 150.343 67.7007 149.595 67.7007C148.848 67.7007 148.242 68.3065 148.242 69.0538C148.242 69.8011 148.848 70.4069 149.595 70.4069Z" fill="url(#paint22_linear_1196_7077)"/>
<path d="M155.215 70.4069C155.963 70.4069 156.569 69.8011 156.569 69.0538C156.569 68.3065 155.963 67.7007 155.215 67.7007C154.468 67.7007 153.862 68.3065 153.862 69.0538C153.862 69.8011 154.468 70.4069 155.215 70.4069Z" fill="url(#paint23_linear_1196_7077)"/>
<path d="M160.837 70.4069C161.584 70.4069 162.19 69.8011 162.19 69.0538C162.19 68.3065 161.584 67.7007 160.837 67.7007C160.089 67.7007 159.483 68.3065 159.483 69.0538C159.483 69.8011 160.089 70.4069 160.837 70.4069Z" fill="url(#paint24_linear_1196_7077)"/>
<path d="M166.457 70.4069C167.204 70.4069 167.81 69.8011 167.81 69.0538C167.81 68.3065 167.204 67.7007 166.457 67.7007C165.71 67.7007 165.104 68.3065 165.104 69.0538C165.104 69.8011 165.71 70.4069 166.457 70.4069Z" fill="url(#paint25_linear_1196_7077)"/>
<path d="M162.009 118.598C162.009 118.442 162.009 118.312 162.009 118.208C162.009 117.713 162.087 117.271 162.217 116.933C162.321 116.673 162.478 116.386 162.712 116.1C162.868 115.892 163.18 115.606 163.622 115.215C164.065 114.825 164.351 114.513 164.481 114.279C164.611 114.044 164.689 113.81 164.689 113.524C164.689 113.03 164.507 112.587 164.117 112.223C163.727 111.859 163.258 111.676 162.712 111.676C162.165 111.676 161.723 111.833 161.359 112.171C160.994 112.509 160.76 113.03 160.656 113.758L159.355 113.602C159.485 112.639 159.823 111.911 160.396 111.39C160.968 110.87 161.749 110.636 162.686 110.636C163.701 110.636 164.507 110.922 165.106 111.468C165.704 112.015 166.016 112.691 166.016 113.446C166.016 113.888 165.912 114.305 165.704 114.695C165.496 115.085 165.08 115.528 164.455 116.074C164.039 116.438 163.779 116.699 163.648 116.881C163.518 117.063 163.44 117.245 163.362 117.479C163.31 117.713 163.258 118.078 163.258 118.572H162.009V118.598ZM161.931 121.148V119.717H163.362V121.148H161.931Z" fill="url(#paint26_linear_1196_7077)"/>
<path d="M120.296 120.316V111.208H126.437V112.275H121.493V115.085H125.761V116.152H121.493V120.29H120.296V120.316ZM127.452 117.011C127.452 115.788 127.791 114.877 128.467 114.305C129.04 113.81 129.716 113.576 130.549 113.576C131.459 113.576 132.188 113.862 132.761 114.461C133.333 115.059 133.619 115.866 133.619 116.933C133.619 117.791 133.489 118.442 133.229 118.936C132.969 119.431 132.604 119.795 132.11 120.081C131.616 120.342 131.095 120.498 130.523 120.498C129.612 120.498 128.857 120.211 128.285 119.613C127.712 118.988 127.452 118.13 127.452 117.011ZM128.597 117.011C128.597 117.844 128.779 118.494 129.144 118.91C129.508 119.327 129.976 119.535 130.523 119.535C131.069 119.535 131.538 119.327 131.902 118.91C132.266 118.494 132.448 117.844 132.448 116.985C132.448 116.178 132.266 115.554 131.902 115.137C131.538 114.721 131.069 114.513 130.523 114.513C129.976 114.513 129.508 114.721 129.144 115.137C128.779 115.528 128.597 116.178 128.597 117.011ZM134.92 120.316V113.706H135.935V114.695C136.195 114.227 136.43 113.914 136.638 113.758C136.846 113.602 137.106 113.524 137.366 113.524C137.731 113.524 138.121 113.654 138.511 113.888L138.121 114.929C137.835 114.773 137.574 114.695 137.288 114.695C137.054 114.695 136.82 114.773 136.638 114.903C136.456 115.059 136.299 115.241 136.221 115.528C136.091 115.918 136.039 116.36 136.039 116.829V120.29H134.92V120.316ZM138.954 120.862L140.046 121.018C140.099 121.356 140.229 121.591 140.437 121.747C140.723 121.955 141.087 122.059 141.582 122.059C142.102 122.059 142.492 121.955 142.779 121.747C143.065 121.539 143.247 121.252 143.351 120.888C143.403 120.654 143.429 120.185 143.429 119.457C142.935 120.029 142.336 120.316 141.608 120.316C140.697 120.316 139.994 119.977 139.5 119.327C139.006 118.676 138.745 117.896 138.745 116.985C138.745 116.36 138.85 115.762 139.084 115.241C139.318 114.721 139.63 114.305 140.073 114.018C140.515 113.732 141.009 113.576 141.608 113.576C142.388 113.576 143.039 113.888 143.533 114.513V113.706H144.574V119.405C144.574 120.42 144.47 121.148 144.262 121.591C144.054 122.007 143.715 122.345 143.273 122.605C142.831 122.866 142.258 122.97 141.608 122.97C140.827 122.97 140.177 122.788 139.708 122.449C139.188 122.111 138.954 121.565 138.954 120.862ZM139.89 116.907C139.89 117.765 140.073 118.416 140.411 118.806C140.749 119.197 141.191 119.405 141.712 119.405C142.232 119.405 142.649 119.197 143.013 118.806C143.351 118.416 143.533 117.791 143.533 116.933C143.533 116.126 143.351 115.528 142.987 115.111C142.623 114.695 142.206 114.487 141.686 114.487C141.191 114.487 140.775 114.695 140.411 115.085C140.073 115.502 139.89 116.1 139.89 116.907ZM145.823 117.011C145.823 115.788 146.161 114.877 146.838 114.305C147.41 113.81 148.087 113.576 148.92 113.576C149.83 113.576 150.559 113.862 151.132 114.461C151.704 115.059 151.99 115.866 151.99 116.933C151.99 117.791 151.86 118.442 151.6 118.936C151.34 119.431 150.975 119.795 150.481 120.081C149.987 120.342 149.466 120.498 148.894 120.498C147.983 120.498 147.228 120.211 146.656 119.613C146.109 118.988 145.823 118.13 145.823 117.011ZM146.968 117.011C146.968 117.844 147.15 118.494 147.515 118.91C147.879 119.327 148.347 119.535 148.894 119.535C149.44 119.535 149.909 119.327 150.273 118.91C150.637 118.494 150.819 117.844 150.819 116.985C150.819 116.178 150.637 115.554 150.273 115.137C149.909 114.721 149.44 114.513 148.894 114.513C148.347 114.513 147.879 114.721 147.515 115.137C147.176 115.528 146.968 116.178 146.968 117.011ZM155.763 119.301L155.919 120.29C155.607 120.368 155.321 120.394 155.087 120.394C154.67 120.394 154.358 120.342 154.15 120.211C153.916 120.081 153.76 119.925 153.682 119.717C153.578 119.509 153.551 119.067 153.551 118.39V114.591H152.719V113.732H153.551V112.093L154.67 111.416V113.732H155.789V114.591H154.67V118.442C154.67 118.754 154.696 118.962 154.722 119.067C154.774 119.171 154.827 119.223 154.905 119.275C154.983 119.327 155.113 119.353 155.295 119.353C155.399 119.353 155.555 119.353 155.763 119.301Z" fill="url(#paint27_linear_1196_7077)"/>
<path d="M135.608 204.1C136.207 203.501 136.207 202.528 135.608 201.929C135.008 201.329 134.036 201.329 133.437 201.929C132.837 202.528 132.837 203.501 133.437 204.1C134.036 204.7 135.008 204.7 135.608 204.1Z" fill="white"/>
<path d="M143.673 204.096C144.272 203.496 144.272 202.524 143.673 201.925C143.073 201.325 142.101 201.325 141.502 201.925C140.902 202.524 140.902 203.496 141.502 204.096C142.101 204.695 143.073 204.695 143.673 204.096Z" fill="white"/>
<path d="M151.737 204.092C152.337 203.492 152.337 202.52 151.737 201.921C151.138 201.321 150.166 201.321 149.566 201.921C148.967 202.52 148.966 203.492 149.566 204.092C150.166 204.691 151.138 204.691 151.737 204.092Z" fill="white"/>
<path opacity="0.4" d="M127.634 34.1851L87.3789 80.0865V69.3918L118.24 34.1851H127.634Z" fill="#011F70"/>
<path opacity="0.4" d="M190.891 34.1851L87.3789 152.243V97.0003L142.466 34.1851H190.891Z" fill="#011F70"/>
<path opacity="0.4" d="M196.512 115.97V151.593L144.47 210.947H113.218L196.512 115.97Z" fill="#011F70"/>
<path d="M187.222 19.3009H96.6424C90.5014 19.3009 85.5054 24.297 85.5054 30.438V200.33C85.5054 203.687 86.9886 206.706 89.3565 208.735C89.4346 208.813 89.5126 208.865 89.5907 208.943C91.5163 210.531 93.9623 211.468 96.6424 211.468H187.222C189.902 211.468 192.348 210.531 194.274 208.943C196.772 206.914 198.359 203.791 198.359 200.33V30.438C198.359 24.271 193.363 19.3009 187.222 19.3009ZM195.991 195.959C195.991 202.412 190.449 207.642 183.631 207.642H100.233C93.4158 207.642 87.8733 202.412 87.8733 195.959V41.445C87.8733 37.4377 91.3081 34.185 95.5756 34.185H188.341C192.583 34.185 196.017 37.4377 196.017 41.445V195.959H195.991Z" fill="url(#paint28_linear_1196_7077)"/>
<path opacity="0.8" d="M190.891 50.2402C199.758 50.2402 206.946 43.0521 206.946 34.1851C206.946 25.3181 199.758 18.13 190.891 18.13C182.024 18.13 174.836 25.3181 174.836 34.1851C174.836 43.0521 182.024 50.2402 190.891 50.2402Z" fill="white"/>
<path d="M198.204 43.6828C199.193 42.5639 200.207 41.445 201.196 40.3001C198.49 38.2184 195.784 36.1367 193.078 34.055C195.55 31.7131 198.022 29.3451 200.52 27.0032C199.401 25.9884 198.308 24.9736 197.189 23.9587C195.029 26.6129 192.869 29.2931 190.71 31.9473C188.342 29.5273 185.948 27.1073 183.58 24.6613C182.591 25.7802 181.576 26.8991 180.587 28.0441C183.242 30.1258 185.896 32.2075 188.55 34.2892C186.13 36.6311 183.71 38.973 181.264 41.3409C182.383 42.3557 183.476 43.3706 184.595 44.3854C186.702 41.7312 188.81 39.0771 190.944 36.3969C193.364 38.8169 195.784 41.2629 198.204 43.6828Z" fill="url(#paint29_linear_1196_7077)"/>
<path d="M59.4839 100.487C59.4839 100.487 65.2866 96.3496 69.424 94.2939C72.5465 92.7587 81.732 92.4204 84.7505 96.4797C86.8322 99.29 80.483 99.0298 73.4313 99.5242C68.9556 99.8365 65.2346 108.632 65.2346 108.632L59.4839 100.487Z" fill="#FFDBDB"/>
<path d="M69.7106 169.522C70.231 164.525 65.0268 164.864 63.9339 154.689C63.4915 150.682 65.7033 144.307 66.536 140.352C68.7478 130.125 66.2237 126.118 67.9151 115.788C68.9299 109.543 69.5024 101.84 76.6843 97.1566C81.1339 94.2422 90.8918 92.6028 93.8322 97.9112C107.571 102.439 101.404 119.977 110.408 128.278C115.118 132.832 123.21 133.951 125.838 139.961C128.154 147.846 125.63 152.191 134.295 157.292C136.897 158.957 140.54 160.726 142.232 163.329C151.651 177.718 131.719 184.119 129.169 185.134C109.263 198.535 110.928 192.55 90.0331 194.606C71.6101 200.591 67.3426 192.993 69.7106 169.522Z" fill="#39348A"/>
<path d="M73.7964 100.071C67.0569 106.81 65.938 116.959 65.7299 126.014C65.5477 129.293 65.938 132.701 65.0793 135.902C60.5777 147.586 57.6633 160.804 70.1535 168.559C58.3659 160.18 61.6445 147.976 66.0161 136.396C67.0049 133.04 66.5625 129.475 66.6927 126.04C66.7967 117.037 67.6034 107.175 73.7964 100.071Z" fill="#39348A"/>
<path d="M93.8579 97.9371C111.292 104.807 103.33 123.204 111.891 131.661C118.63 136.006 118.526 146.154 125.812 150.11C135.726 155.288 148.528 158.593 144.443 172.826C147.8 163.719 142.466 157.057 134.373 153.362C130.886 151.489 126.931 150.292 124.016 147.508C119.333 143.162 118.838 135.746 113.738 131.765C112.749 131.114 111.787 130.308 111.084 129.319C108.586 125.598 108.534 120.784 107.493 116.516C106.374 108.528 102.159 100.201 93.8579 97.9371Z" fill="#39348A"/>
<path d="M167.421 180.164C167.004 180.242 166.562 180.294 166.093 180.32L163.023 174.7C163.023 174.7 163.595 174.257 164.194 173.555C164.714 172.93 165.261 172.123 165.443 171.265C165.859 169.417 166.432 165.124 168.305 165.02C170.179 164.916 168.045 170.016 169.554 170.484C171.063 170.978 178.323 162.183 179.963 165.436C181.55 168.637 179.624 178.316 167.421 180.164Z" fill="#FFD0D0"/>
<path d="M132.916 200.695C123.861 204.312 115.248 195.178 107.545 188.309C106.921 195.777 106.374 204.468 106.478 211.233H60.7331C59.8484 200.695 58.0269 170.354 58.0269 170.354C58.0269 170.354 51.8078 163.458 45.1464 155.236C37.5742 145.894 29.4556 134.887 29.1954 130.359C28.6229 120.029 38.459 113.498 62.997 96.9222L71.2717 107.565L49.4399 127.887L47.2801 129.917C52.5104 134.965 67.4986 143.214 67.4986 143.214C67.4986 143.214 70.4911 142.381 72.911 141.445C75.6693 141.809 88.2115 141.523 90.8657 141.601C96.3822 142.537 105.333 146.961 108.82 150.942C112.541 155.652 122.612 168.949 130.522 181.855C131.303 183.495 132.812 185.238 134.763 184.197C140.8 181.595 154.8 175.402 161.045 172.696C162.242 172.176 163.621 172.644 164.246 173.763C165.286 175.741 166.796 177.848 167.394 180.19C168.695 183.469 136.897 200.044 132.916 200.695Z" fill="url(#paint30_linear_1196_7077)"/>
<path d="M153.577 190.52C153.343 190.677 153.083 190.807 152.848 190.963C152.588 191.119 152.328 191.275 152.094 191.405C151.677 191.639 151.261 191.9 150.845 192.134C150.611 192.264 150.35 192.42 150.116 192.55C144.183 195.959 137.834 199.186 132.968 200.695C132.682 200.773 132.422 200.851 132.162 200.929C131.381 201.137 130.626 201.319 129.95 201.423C129.664 201.475 129.403 201.501 129.143 201.527C128.623 201.579 128.128 201.605 127.66 201.553C122.95 201.215 116.367 196.297 110.72 191.197C109.549 190.156 108.43 189.089 107.363 188.048C107.337 188.022 107.285 187.97 107.259 187.944C107.415 186.825 109.107 174.804 109.107 173.503C109.107 173.503 111.397 180.476 114.701 187.45C118.006 194.424 126.125 195.569 130.028 197.624C130.834 198.067 131.745 198.145 132.708 197.989C136.351 197.468 140.853 193.721 144.782 193.279C146.942 193.071 150.376 191.848 153.577 190.52Z" fill="#07217D"/>
<path d="M50.5327 132.831C49.622 132.753 48.7113 132.701 47.7745 132.675C42.6483 132.545 38.563 128.252 38.563 128.252C43.533 129.839 47.8786 128.486 49.4399 127.861L47.2801 129.891C48.2429 130.828 49.3358 131.816 50.5327 132.831Z" fill="#07217D"/>
<path d="M98.2036 146.024C98.2036 148.6 96.4082 151.332 92.8693 154.143C90.3712 156.12 87.4569 157.76 86.0777 158.176C85.6614 158.306 85.193 158.384 84.7507 158.384C82.4088 158.384 80.1969 156.589 78.7137 155.027C77.2826 156.485 75.1488 158.072 72.885 158.072C72.3906 158.072 71.9222 157.994 71.4798 157.864C67.7068 156.693 63.075 151.228 63.3352 147.247C63.4653 145.504 66.1975 143.578 67.4986 143.188C69.4242 142.589 71.4018 142.017 72.937 141.392L74.0039 141.548C74.0559 141.939 74.2381 143.162 74.8626 144.333C75.7733 145.972 77.1004 146.753 79.1041 146.753C83.1634 146.753 86.5461 143.422 88.1074 141.548H90.8657C92.6611 141.861 94.8989 142.329 97.2148 142.954C97.9694 144.02 98.2036 145.113 98.2036 146.024Z" fill="#DAC6F2"/>
<path d="M72.9636 141.392C72.9636 141.392 65.0011 143.786 65.5215 146.883C66.12 150.37 69.4507 154.923 72.1569 155.782C75.1233 156.719 78.7923 151.645 78.7923 151.645C78.7923 151.645 82.5654 157.005 85.4798 156.094C88.3942 155.21 103.955 145.504 90.9182 141.574C90.9182 141.574 86.0523 148.965 79.1566 148.965C72.235 148.965 72.9636 141.392 72.9636 141.392Z" fill="white"/>
<path d="M90.8915 141.575C83.4235 153.232 70.5169 151.723 72.9109 141.262C73.3532 139.363 74.1599 135.225 74.6023 133.378C74.6283 133.3 74.6543 133.222 74.6543 133.144C75.4089 129.969 76.0855 126.925 76.0855 126.925L86.3899 125.467L88.9139 125.103L91.6722 124.713C91.5421 124.947 91.412 125.259 91.3079 125.571C90.293 128.46 89.8767 134.263 89.7206 138.348C89.6165 140.924 90.8915 141.575 90.8915 141.575Z" fill="#FFD0D0"/>
<path d="M89.7204 138.322C89.4862 135.902 87.977 133.534 85.635 134.601C81.6018 136.422 75.6429 134.913 74.6021 133.352C74.6021 133.352 83.7615 127.159 86.3897 125.441C86.9361 125.077 87.2744 124.869 87.2744 124.843C87.3264 124.791 88.029 124.921 88.9137 125.077C89.6683 125.207 90.553 125.389 91.3077 125.545C90.2928 128.46 89.8765 134.263 89.7204 138.322Z" fill="#F5B3B3"/>
<path d="M93.39 125.884C93.1298 125.91 92.8956 125.936 92.6094 125.962L92.7395 125.493L93.9885 120.445C94.7171 119.509 95.3416 118.442 95.8881 117.323V117.297C96.9289 117.115 98.5682 117.037 99.7392 117.999C101.3 119.248 101.483 124.921 93.39 125.884Z" fill="#FFD0D0"/>
<path d="M93.8578 123.932C93.6757 123.932 93.5196 123.932 93.3374 123.932L93.4675 123.62L94.6645 120.289C95.2369 119.717 95.7053 119.04 96.1477 118.312V118.286C96.8763 118.234 97.9692 118.286 98.6978 119.014C99.6606 120.029 99.4003 123.854 93.8578 123.932Z" fill="#F5B3B3"/>
<path d="M98.1778 115.033C95.4195 125.207 85.8177 136.448 74.5765 133.378C61.5659 129.813 64.8446 104.989 75.7215 95.2307C83.4237 99.0038 88.8101 101.112 97.1369 102.204C98.1518 105.951 99.2446 110.922 98.1778 115.033Z" fill="#FFD0D0"/>
<path d="M66.1718 117.609C64.3503 103.037 72.9894 93.9817 78.1416 94.5802C75.3313 102.985 68.4357 108.397 66.1718 117.609Z" fill="#39348A"/>
<path d="M90.8138 129.423C99.5049 109.126 73.4316 111.91 75.2792 95.8553C79.3905 91.692 95.6017 93.6696 98.7503 102.413C100.936 108.45 101.118 121.252 90.8138 129.423Z" fill="#39348A"/>
<path d="M82.2524 101.45C83.3974 110.999 98.4897 110.375 93.7798 121.252C97.2146 110.115 82.7729 112.066 82.2524 101.45Z" fill="#39348A"/>
<path d="M75.3311 96.844C78.0113 108.423 61.696 113.315 63.7777 124.973C61.3317 111.312 77.1526 108.319 75.3311 96.844Z" fill="#39348A"/>
<path d="M74.9151 112.457C74.2125 112.093 73.4059 111.989 72.6252 112.015C72.2609 112.015 71.8706 112.067 71.5063 112.171C71.116 112.249 70.6216 112.353 70.3093 112.613C69.9711 112.899 70.1792 113.576 70.6736 113.472C71.0379 113.394 71.3762 113.185 71.7405 113.055C72.0528 112.951 72.365 112.899 72.7033 112.847C73.4059 112.769 74.0824 112.847 74.785 112.925C75.0712 112.977 75.1493 112.587 74.9151 112.457Z" fill="#39348A"/>
<path d="M82.2267 113.706C83.0854 113.576 83.9441 113.784 84.7247 114.096C85.1151 114.252 85.4794 114.434 85.8176 114.669C86.1819 114.903 86.6503 115.189 86.8585 115.553C87.0927 115.97 86.6503 116.568 86.1819 116.282C85.8437 116.074 85.5574 115.71 85.2452 115.475C84.9589 115.267 84.6467 115.085 84.3344 114.929C83.6579 114.591 82.9293 114.408 82.1747 114.252C81.8624 114.2 81.9405 113.758 82.2267 113.706Z" fill="#39348A"/>
<path d="M74.42 116.776C73.9256 117.921 72.7286 118.494 71.7658 118.077C70.803 117.661 70.4387 116.386 70.9591 115.267C71.4535 114.122 72.6505 113.55 73.6133 113.966C74.5761 114.382 74.9144 115.631 74.42 116.776Z" fill="#FFE0E0"/>
<path d="M74.0551 116.62C73.6647 117.505 72.728 117.973 71.9734 117.635C71.2188 117.297 70.9325 116.308 71.3489 115.423C71.7392 114.538 72.6759 114.07 73.4306 114.408C74.1592 114.72 74.4454 115.709 74.0551 116.62Z" fill="#414591"/>
<path d="M73.5346 116.386C73.2744 116.932 72.7019 117.219 72.2336 117.01C71.7652 116.802 71.583 116.178 71.8432 115.631C72.1035 115.085 72.6759 114.799 73.1443 115.007C73.6127 115.215 73.7948 115.839 73.5346 116.386Z" fill="#191B36"/>
<path d="M72.803 115.371C72.8961 115.161 72.8011 114.915 72.5908 114.822C72.3806 114.729 72.1347 114.824 72.0416 115.034C71.9485 115.244 72.0435 115.49 72.2537 115.583C72.464 115.677 72.7099 115.582 72.803 115.371Z" fill="white"/>
<path d="M72.984 116.986C73.0247 116.894 72.9832 116.786 72.8912 116.745C72.7992 116.704 72.6917 116.746 72.6509 116.838C72.6102 116.93 72.6517 117.038 72.7437 117.078C72.8357 117.119 72.9433 117.077 72.984 116.986Z" fill="white"/>
<path d="M77.6462 121.46C77.5161 121.252 77.2559 121.252 77.0217 121.226C76.8395 121.2 76.6574 121.2 76.5012 121.122C76.3972 121.07 76.267 120.966 76.267 120.836C76.267 120.706 76.3971 120.549 76.4752 120.445C76.7354 120.159 76.9696 119.873 77.1257 119.509C77.2819 119.17 77.49 118.728 77.412 118.364C77.386 118.207 77.1518 118.207 77.0737 118.338C76.9696 118.52 76.9436 118.754 76.8655 118.962C76.7875 119.144 76.6834 119.326 76.5533 119.509C76.3191 119.847 75.9288 120.133 75.7726 120.523C75.5905 120.966 75.7726 121.408 76.189 121.616C76.3711 121.72 76.6053 121.772 76.8135 121.798C77.0477 121.824 77.3599 121.929 77.5681 121.798C77.6722 121.72 77.6982 121.564 77.6462 121.46Z" fill="#F5B3B3"/>
<path d="M81.1339 117.687C80.7956 118.884 81.3161 120.081 82.3049 120.367C83.2937 120.653 84.4126 119.925 84.7509 118.728C85.0891 117.531 84.5687 116.334 83.5799 116.048C82.5651 115.761 81.4722 116.49 81.1339 117.687Z" fill="#FFE0E0"/>
<path d="M81.5244 117.791C81.2381 118.728 81.6545 119.665 82.4611 119.899C83.2418 120.133 84.1005 119.561 84.3867 118.624C84.6729 117.687 84.2566 116.75 83.4499 116.516C82.6433 116.282 81.7846 116.854 81.5244 117.791Z" fill="#414591"/>
<path d="M82.045 117.947C81.8629 118.546 82.1231 119.118 82.6175 119.274C83.1119 119.43 83.6583 119.066 83.8145 118.468C83.9966 117.869 83.7364 117.297 83.242 117.141C82.7736 117.01 82.2272 117.349 82.045 117.947Z" fill="#191B36"/>
<path d="M84.0817 117.892C84.1458 117.671 84.0187 117.44 83.7979 117.376C83.577 117.312 83.3461 117.439 83.282 117.66C83.2179 117.881 83.345 118.112 83.5659 118.176C83.7867 118.24 84.0176 118.113 84.0817 117.892Z" fill="white"/>
<path d="M83.3987 119.251C83.4213 119.153 83.36 119.055 83.262 119.032C83.1639 119.01 83.0662 119.071 83.0437 119.169C83.0212 119.267 83.0824 119.365 83.1804 119.387C83.2785 119.41 83.3762 119.349 83.3987 119.251Z" fill="white"/>
<path d="M78.2972 124.687C78.1411 124.583 77.985 124.479 77.8028 124.401C77.4125 124.218 76.9962 124.14 76.5798 124.14C76.1895 124.14 75.7732 124.218 75.4089 124.349C75.2007 124.427 75.0186 124.531 74.8364 124.635C74.7063 124.739 74.5762 124.999 74.7584 125.103C74.9145 125.207 75.0446 125.129 75.2007 125.077C75.3569 125.025 75.513 124.973 75.6691 124.947C75.9553 124.895 76.2676 124.895 76.5538 124.947C76.8401 125.025 77.0742 125.103 77.3345 125.259C77.4646 125.337 77.5687 125.415 77.6467 125.493C77.8289 125.65 77.985 125.832 78.2452 125.806C78.5054 125.78 78.6876 125.624 78.7136 125.337C78.7656 125.051 78.5054 124.843 78.2972 124.687Z" fill="#E69191"/>
<path d="M58.0275 170.354C58.0275 170.354 51.8084 163.459 45.147 155.236C50.1951 159.165 55.3213 164.317 55.5555 163.12C56.7004 157.213 59.849 153.336 59.849 153.336C57.1167 162.756 58.0275 170.354 58.0275 170.354Z" fill="#07217D"/>
<path d="M54.3065 80.2424L49.2584 84.4318L48.842 83.9374C48.1394 83.0787 47.645 82.2981 47.3848 81.5955C47.1246 80.8929 47.0205 80.1643 47.0466 79.4097C47.0726 78.6551 47.2807 77.1459 47.6971 74.908C47.9313 73.7371 47.8532 72.9044 47.4369 72.41C47.0205 71.9156 46.5782 71.6554 46.0578 71.6294C45.5373 71.6033 44.9909 71.8375 44.4184 72.3059C43.7939 72.8263 43.4296 73.4769 43.3776 74.2315C43.2995 74.9861 43.6378 75.9229 44.3924 77.0678L38.6937 80.7108C37.2886 78.6551 36.7161 76.5734 36.9503 74.4136C37.1845 72.2539 38.5636 70.1461 41.0357 68.0905C42.9612 66.4772 44.8608 65.5924 46.7083 65.4103C49.2323 65.1501 51.236 65.9567 52.7452 67.7522C53.3697 68.5068 53.76 69.4176 53.9162 70.4584C54.0723 71.4993 53.9422 73.0605 53.4998 75.1422C53.1876 76.5994 53.1095 77.6403 53.2136 78.2648C53.3957 78.8893 53.734 79.5398 54.3065 80.2424ZM50.1951 85.915L55.6075 81.4394L59.5628 86.2012L54.1503 90.6769L50.1951 85.915Z" fill="url(#paint31_linear_1196_7077)"/>
<path d="M70.9596 61.1432L72.2086 72.3584L67.8371 73.3992L63.9079 62.8346L62.6328 57.4222L69.6846 55.7568L70.9596 61.1432ZM75.071 79.5662L68.4876 81.1275L67.1085 75.2988L73.6918 73.7375L75.071 79.5662Z" fill="url(#paint32_linear_1196_7077)"/>
<path d="M256.489 211.448H21.5802C21.3979 211.448 21.2417 211.671 21.2417 211.931C21.2417 212.191 21.3979 212.414 21.5802 212.414H256.489C256.672 212.414 256.828 212.191 256.828 211.931C256.828 211.634 256.698 211.448 256.489 211.448Z" fill="white"/>
<path d="M16.0685 212.414H0.342444C0.158051 212.414 0 212.191 0 211.931C0 211.671 0.158051 211.448 0.342444 211.448H16.0685C16.2529 211.448 16.4109 211.671 16.4109 211.931C16.4373 212.191 16.2792 212.414 16.0685 212.414Z" fill="white"/>
<path d="M209.203 224H148.063C147.881 224 147.725 223.777 147.725 223.517C147.725 223.257 147.881 223.034 148.063 223.034H209.177C209.359 223.034 209.515 223.257 209.515 223.517C209.541 223.777 209.385 224 209.203 224Z" fill="white"/>
<path d="M232.347 224H216.618C216.434 224 216.276 223.777 216.276 223.517C216.276 223.257 216.434 223.034 216.618 223.034H232.347C232.532 223.034 232.69 223.257 232.69 223.517C232.69 223.777 232.532 224 232.347 224Z" fill="white"/>
<path opacity="0.8" d="M209.003 23.4643C207.364 20.9142 205.048 18.8065 202.394 17.3233C200.884 16.4906 199.323 15.9442 197.632 15.6059C197.424 15.5538 197.345 15.8401 197.554 15.9181C198.907 16.3865 200.234 17.0631 201.509 17.7917C202.732 18.4942 203.877 19.3529 204.918 20.3157C207.025 22.2933 208.691 24.8174 209.679 27.5496C210.226 29.0849 210.59 30.7242 210.746 32.3375C210.824 33.1702 212.099 33.1702 212.047 32.3375C211.761 29.1629 210.72 26.1185 209.003 23.4643Z" fill="white"/>
<path opacity="0.8" d="M211.188 37.3075C211.162 37.0733 211.188 36.709 210.98 36.5529C210.928 36.5269 210.876 36.5009 210.824 36.5269C210.642 36.657 210.615 36.8912 210.563 37.1254C210.485 37.4116 210.433 37.6978 210.381 37.9841C210.251 38.5826 210.121 39.155 209.913 39.7275C209.523 40.8464 208.976 41.9133 208.274 42.8761C207.805 43.5266 208.898 44.1771 209.34 43.5006C210.043 42.4337 210.589 41.2888 210.902 40.0398C211.058 39.4413 211.162 38.8168 211.214 38.1922C211.214 37.906 211.214 37.6198 211.188 37.3075Z" fill="white"/>
<path d="M236.923 152.373C237.027 152.556 237.053 152.738 237.001 152.946C236.949 153.206 236.741 153.414 236.481 153.492L233.931 154.221C233.671 154.299 233.384 154.221 233.202 154.039C232.994 153.857 232.916 153.57 232.994 153.31L233.619 150.734C233.671 150.474 233.879 150.266 234.139 150.188C234.399 150.11 234.685 150.188 234.868 150.37L236.767 152.191C236.845 152.269 236.871 152.321 236.923 152.373ZM233.593 153.596C233.593 153.622 233.619 153.622 233.619 153.622C233.645 153.648 233.697 153.674 233.775 153.648L236.325 152.92C236.403 152.894 236.429 152.842 236.429 152.816C236.429 152.79 236.455 152.712 236.377 152.66L234.477 150.838C234.425 150.786 234.347 150.786 234.321 150.812C234.295 150.812 234.243 150.838 234.217 150.916L233.593 153.492C233.567 153.544 233.567 153.57 233.593 153.596Z" fill="url(#paint33_linear_1196_7077)"/>
<path d="M21.9882 102.074C22.0923 102.257 22.1183 102.439 22.0663 102.647C22.0142 102.907 21.806 103.115 21.5458 103.193L18.9958 103.922C18.7355 104 18.4493 103.922 18.2672 103.74C18.059 103.558 17.9809 103.271 18.059 103.011L18.6835 100.435C18.7355 100.175 18.9437 99.9667 19.2039 99.8887C19.4641 99.8106 19.7504 99.8887 19.9325 100.071L21.8321 101.892C21.9101 101.97 21.9622 102.022 21.9882 102.074ZM18.6575 103.297C18.6575 103.323 18.6835 103.323 18.6835 103.323C18.7095 103.349 18.7616 103.376 18.8396 103.349L21.3897 102.621C21.4678 102.595 21.4938 102.543 21.4938 102.517C21.4938 102.491 21.5198 102.413 21.4417 102.361L19.5422 100.539C19.4902 100.487 19.4121 100.487 19.3861 100.513C19.3601 100.513 19.308 100.539 19.282 100.617L18.6575 103.193C18.6315 103.219 18.6575 103.271 18.6575 103.297Z" fill="url(#paint34_linear_1196_7077)"/>
<path d="M226.644 47.5598L227.581 46.623C227.789 46.4149 227.789 46.0766 227.581 45.8684C227.373 45.6602 227.034 45.6602 226.826 45.8684L225.889 46.8052L224.953 45.8684C224.745 45.6602 224.406 45.6602 224.198 45.8684C223.99 46.0766 223.99 46.4149 224.198 46.623L225.135 47.5598L224.198 48.4966C223.99 48.7047 223.99 49.043 224.198 49.2512C224.302 49.3553 224.432 49.4073 224.588 49.4073C224.719 49.4073 224.875 49.3553 224.979 49.2512L225.916 48.3144L226.852 49.2512C226.956 49.3553 227.086 49.4073 227.243 49.4073C227.373 49.4073 227.529 49.3553 227.633 49.2512C227.841 49.043 227.841 48.7047 227.633 48.4966L226.644 47.5598Z" fill="url(#paint35_linear_1196_7077)"/>
<path d="M43.4552 175.402L44.3919 174.465C44.6001 174.257 44.6001 173.919 44.3919 173.711C44.1837 173.503 43.8455 173.503 43.6373 173.711L42.7005 174.648L41.7638 173.711C41.5556 173.503 41.2173 173.503 41.0092 173.711C40.801 173.919 40.801 174.257 41.0092 174.465L41.9459 175.402L41.0092 176.339C40.801 176.547 40.801 176.885 41.0092 177.094C41.1132 177.198 41.2433 177.25 41.3995 177.25C41.5296 177.25 41.6857 177.198 41.7898 177.094L42.7266 176.157L43.6633 177.094C43.7674 177.198 43.8975 177.25 44.0536 177.25C44.1837 177.25 44.3399 177.198 44.444 177.094C44.6521 176.885 44.6521 176.547 44.444 176.339L43.4552 175.402Z" fill="url(#paint36_linear_1196_7077)"/>
<path d="M208.143 83.7294C206.972 83.7294 206.009 82.7666 206.009 81.5957C206.009 80.4247 206.972 79.4619 208.143 79.4619C209.314 79.4619 210.277 80.4247 210.277 81.5957C210.277 82.7926 209.314 83.7294 208.143 83.7294ZM208.143 80.1385C207.336 80.1385 206.686 80.789 206.686 81.5957C206.686 82.4023 207.336 83.0528 208.143 83.0528C208.95 83.0528 209.6 82.4023 209.6 81.5957C209.6 80.789 208.95 80.1385 208.143 80.1385Z" fill="#39348A"/>
<path d="M54.8789 46.2329C53.7079 46.2329 52.7451 45.2702 52.7451 44.0992C52.7451 42.9282 53.7079 41.9655 54.8789 41.9655C56.0498 41.9655 57.0126 42.9282 57.0126 44.0992C57.0126 45.2702 56.0498 46.2329 54.8789 46.2329ZM54.8789 42.642C54.0722 42.642 53.4217 43.2925 53.4217 44.0992C53.4217 44.9059 54.0722 45.5564 54.8789 45.5564C55.6855 45.5564 56.3361 44.9059 56.3361 44.0992C56.3361 43.2925 55.6855 42.642 54.8789 42.642Z" fill="#39348A"/>
<path d="M38.9276 65.6709C38.8496 65.5929 38.7715 65.5668 38.6674 65.6189C38.5633 65.6709 38.4593 65.6969 38.3812 65.749C38.3031 65.801 38.2251 65.8531 38.147 65.9311C37.9649 66.0612 37.7827 66.2174 37.6266 66.3735C37.4705 66.5036 37.3404 66.6597 37.1842 66.8158C37.1062 66.8939 37.0281 66.998 36.95 67.1021C36.872 67.2062 36.8199 67.3103 36.7939 67.4404C36.7419 67.5444 36.8199 67.7006 36.924 67.7526C37.0541 67.8047 37.1842 67.8047 37.2623 67.7006C37.3404 67.6225 37.4184 67.5444 37.4965 67.4404C37.5485 67.3623 37.6266 67.2842 37.6786 67.1801C37.7046 67.1541 37.7047 67.1541 37.7307 67.1281C37.7567 67.1021 37.7827 67.05 37.8348 67.024C37.9128 66.946 37.9649 66.8679 38.0429 66.7898C38.173 66.6337 38.3031 66.5036 38.4593 66.3735C38.5373 66.2954 38.6154 66.2434 38.6935 66.1653C38.7715 66.0873 38.8236 66.0092 38.9016 65.9572C38.9797 65.8531 38.9797 65.749 38.9276 65.6709Z" fill="url(#paint37_linear_1196_7077)"/>
<path d="M36.3518 69.0014C36.4039 68.8713 36.2477 68.6892 36.1176 68.8193C33.6456 71.9418 33.4114 76.6777 34.9467 80.2686C35.0508 80.5028 35.389 80.5549 35.5972 80.4508C35.8574 80.3207 35.8834 80.0344 35.7794 79.8002C35.0508 78.0828 34.7125 76.2614 34.8426 74.3878C34.9467 72.5143 35.5452 70.6928 36.3518 69.0014Z" fill="url(#paint38_linear_1196_7077)"/>
<path d="M74.342 67.4402C74.1338 65.905 73.9517 64.3957 73.7435 62.8605C73.6394 62.1319 73.5353 61.3773 73.4052 60.6487C73.2751 59.9461 73.2231 59.0874 72.8848 58.4369C72.8328 58.3328 72.6506 58.3588 72.6506 58.4629C72.5465 59.1915 72.7547 59.9981 72.8328 60.7267C72.9108 61.4813 73.0149 62.2099 73.119 62.9385C73.3012 64.4738 73.4833 66.009 73.5614 67.5443C73.5614 68.1428 74.4461 68.0387 74.342 67.4402Z" fill="url(#paint39_linear_1196_7077)"/>
<path d="M74.7334 71.0309C74.7334 71.0049 74.7074 70.9789 74.6814 70.9528C74.6814 70.9528 74.6814 70.9008 74.6814 70.8748C74.6814 70.7967 74.6554 70.7447 74.6554 70.6666C74.6294 70.5105 74.6033 70.3804 74.5773 70.2243C74.4993 69.938 74.4472 69.6518 74.3952 69.3656C74.3691 69.1574 74.0309 69.2094 74.0309 69.4176C74.0309 69.7038 74.0309 70.0161 74.0309 70.3023C74.0309 70.4584 74.0309 70.5885 74.0569 70.7447C74.0569 70.8227 74.0569 70.9008 74.0569 70.9528C74.0569 70.9789 74.0569 71.0309 74.0569 71.0309C74.0569 71.0309 74.0569 71.0309 74.0569 71.0569C74.0569 71.083 74.0569 71.109 74.0309 71.135C73.9528 71.3952 74.187 71.6294 74.4472 71.6034C74.7334 71.5513 74.8375 71.2651 74.7334 71.0309Z" fill="url(#paint40_linear_1196_7077)"/>
<defs>
<linearGradient id="paint0_linear_1196_7077" x1="196.986" y1="162.199" x2="240.364" y2="96.2529" gradientUnits="userSpaceOnUse">
<stop stop-color="#84D4FF"/>
<stop offset="1" stop-color="#F5CBFB"/>
</linearGradient>
<linearGradient id="paint1_linear_1196_7077" x1="186.451" y1="155.27" x2="229.829" y2="89.3235" gradientUnits="userSpaceOnUse">
<stop stop-color="#84D4FF"/>
<stop offset="1" stop-color="#F5CBFB"/>
</linearGradient>
<linearGradient id="paint2_linear_1196_7077" x1="204.648" y1="167.238" x2="248.026" y2="101.292" gradientUnits="userSpaceOnUse">
<stop stop-color="#84D4FF"/>
<stop offset="1" stop-color="#F5CBFB"/>
</linearGradient>
<linearGradient id="paint3_linear_1196_7077" x1="209.352" y1="170.332" x2="252.73" y2="104.386" gradientUnits="userSpaceOnUse">
<stop stop-color="#84D4FF"/>
<stop offset="1" stop-color="#F5CBFB"/>
</linearGradient>
<linearGradient id="paint4_linear_1196_7077" x1="172.194" y1="144.573" x2="220.725" y2="82.3207" gradientUnits="userSpaceOnUse">
<stop stop-color="#84D4FF"/>
<stop offset="1" stop-color="#F5CBFB"/>
</linearGradient>
<linearGradient id="paint5_linear_1196_7077" x1="67.9297" y1="3.89648" x2="89.2024" y2="29.7936" gradientUnits="userSpaceOnUse">
<stop stop-color="#FF8FD6"/>
<stop offset="1" stop-color="#C32EFF"/>
</linearGradient>
<linearGradient id="paint6_linear_1196_7077" x1="234.527" y1="169.945" x2="190.826" y2="190.639" gradientUnits="userSpaceOnUse">
<stop stop-color="#FF8FD6"/>
<stop offset="1" stop-color="#C32EFF"/>
</linearGradient>
<linearGradient id="paint7_linear_1196_7077" x1="87.3695" y1="122.561" x2="196.504" y2="122.561" gradientUnits="userSpaceOnUse">
<stop stop-color="#B0DEFF"/>
<stop offset="1" stop-color="#82BAFF"/>
</linearGradient>
<linearGradient id="paint8_linear_1196_7077" x1="105.164" y1="66.8691" x2="110.321" y2="66.8691" gradientUnits="userSpaceOnUse">
<stop stop-color="#AD88FF"/>
<stop offset="1" stop-color="#6038BA"/>
</linearGradient>
<linearGradient id="paint9_linear_1196_7077" x1="104.665" y1="70.8294" x2="111.049" y2="70.8294" gradientUnits="userSpaceOnUse">
<stop stop-color="#AD88FF"/>
<stop offset="1" stop-color="#6038BA"/>
</linearGradient>
<linearGradient id="paint10_linear_1196_7077" x1="105.724" y1="87.3697" x2="110.48" y2="87.3697" gradientUnits="userSpaceOnUse">
<stop stop-color="#AD88FF"/>
<stop offset="1" stop-color="#6038BA"/>
</linearGradient>
<linearGradient id="paint11_linear_1196_7077" x1="104.248" y1="91.7899" x2="111.974" y2="91.7899" gradientUnits="userSpaceOnUse">
<stop stop-color="#AD88FF"/>
<stop offset="1" stop-color="#6038BA"/>
</linearGradient>
<linearGradient id="paint12_linear_1196_7077" x1="104.41" y1="88.953" x2="111.803" y2="88.953" gradientUnits="userSpaceOnUse">
<stop stop-color="#AD88FF"/>
<stop offset="1" stop-color="#6038BA"/>
</linearGradient>
<linearGradient id="paint13_linear_1196_7077" x1="107.808" y1="91.5113" x2="108.421" y2="91.5113" gradientUnits="userSpaceOnUse">
<stop stop-color="#AD88FF"/>
<stop offset="1" stop-color="#6038BA"/>
</linearGradient>
<linearGradient id="paint14_linear_1196_7077" x1="125.861" y1="90.8448" x2="130.448" y2="90.8448" gradientUnits="userSpaceOnUse">
<stop stop-color="#FF5C9C"/>
<stop offset="1" stop-color="#FF7ACE"/>
</linearGradient>
<linearGradient id="paint15_linear_1196_7077" x1="140.804" y1="90.795" x2="145.391" y2="90.795" gradientUnits="userSpaceOnUse">
<stop stop-color="#FF5C9C"/>
<stop offset="1" stop-color="#FF7ACE"/>
</linearGradient>
<linearGradient id="paint16_linear_1196_7077" x1="156.257" y1="90.6673" x2="160.845" y2="90.6673" gradientUnits="userSpaceOnUse">
<stop stop-color="#FF5C9C"/>
<stop offset="1" stop-color="#FF7ACE"/>
</linearGradient>
<linearGradient id="paint17_linear_1196_7077" x1="171.514" y1="90.6164" x2="176.102" y2="90.6164" gradientUnits="userSpaceOnUse">
<stop stop-color="#FF5C9C"/>
<stop offset="1" stop-color="#FF7ACE"/>
</linearGradient>
<linearGradient id="paint18_linear_1196_7077" x1="125.738" y1="69.0627" x2="128.469" y2="69.0627" gradientUnits="userSpaceOnUse">
<stop stop-color="#AD88FF"/>
<stop offset="1" stop-color="#6038BA"/>
</linearGradient>
<linearGradient id="paint19_linear_1196_7077" x1="131.361" y1="69.0627" x2="134.093" y2="69.0627" gradientUnits="userSpaceOnUse">
<stop stop-color="#AD88FF"/>
<stop offset="1" stop-color="#6038BA"/>
</linearGradient>
<linearGradient id="paint20_linear_1196_7077" x1="136.986" y1="69.0627" x2="139.718" y2="69.0627" gradientUnits="userSpaceOnUse">
<stop stop-color="#AD88FF"/>
<stop offset="1" stop-color="#6038BA"/>
</linearGradient>
<linearGradient id="paint21_linear_1196_7077" x1="142.609" y1="69.0627" x2="145.341" y2="69.0627" gradientUnits="userSpaceOnUse">
<stop stop-color="#AD88FF"/>
<stop offset="1" stop-color="#6038BA"/>
</linearGradient>
<linearGradient id="paint22_linear_1196_7077" x1="148.233" y1="69.0627" x2="150.964" y2="69.0627" gradientUnits="userSpaceOnUse">
<stop stop-color="#AD88FF"/>
<stop offset="1" stop-color="#6038BA"/>
</linearGradient>
<linearGradient id="paint23_linear_1196_7077" x1="153.856" y1="69.0627" x2="156.587" y2="69.0627" gradientUnits="userSpaceOnUse">
<stop stop-color="#AD88FF"/>
<stop offset="1" stop-color="#6038BA"/>
</linearGradient>
<linearGradient id="paint24_linear_1196_7077" x1="159.48" y1="69.0627" x2="162.212" y2="69.0627" gradientUnits="userSpaceOnUse">
<stop stop-color="#AD88FF"/>
<stop offset="1" stop-color="#6038BA"/>
</linearGradient>
<linearGradient id="paint25_linear_1196_7077" x1="165.104" y1="69.0627" x2="167.835" y2="69.0627" gradientUnits="userSpaceOnUse">
<stop stop-color="#AD88FF"/>
<stop offset="1" stop-color="#6038BA"/>
</linearGradient>
<linearGradient id="paint26_linear_1196_7077" x1="159.317" y1="115.906" x2="165.97" y2="115.906" gradientUnits="userSpaceOnUse">
<stop stop-color="#FF7ACE"/>
<stop offset="1" stop-color="#FF5296"/>
</linearGradient>
<linearGradient id="paint27_linear_1196_7077" x1="138.107" y1="113.033" x2="138.107" y2="124.083" gradientUnits="userSpaceOnUse">
<stop stop-color="#FF7ACE"/>
<stop offset="1" stop-color="#FF5296"/>
</linearGradient>
<linearGradient id="paint28_linear_1196_7077" x1="141.936" y1="26.2536" x2="141.936" y2="228.39" gradientUnits="userSpaceOnUse">
<stop stop-color="#DBECFF"/>
<stop offset="1" stop-color="#C4E6FF"/>
</linearGradient>
<linearGradient id="paint29_linear_1196_7077" x1="180.587" y1="44.3854" x2="201.013" y2="23.7774" gradientUnits="userSpaceOnUse">
<stop stop-color="#2E28D4"/>
<stop offset="1" stop-color="#AC27FD"/>
</linearGradient>
<linearGradient id="paint30_linear_1196_7077" x1="167.433" y1="96.9222" x2="55.159" y2="232.719" gradientUnits="userSpaceOnUse">
<stop stop-color="#2E28D4"/>
<stop offset="1" stop-color="#011F70"/>
</linearGradient>
<linearGradient id="paint31_linear_1196_7077" x1="56.7823" y1="88.6736" x2="44.2881" y2="72.3152" gradientUnits="userSpaceOnUse">
<stop stop-color="#FF5C9C"/>
<stop offset="1" stop-color="#FF7ACE"/>
</linearGradient>
<linearGradient id="paint32_linear_1196_7077" x1="60.6448" y1="59.1988" x2="77.3381" y2="77.4997" gradientUnits="userSpaceOnUse">
<stop stop-color="#FFCA59"/>
<stop offset="1" stop-color="#FF8F5C"/>
</linearGradient>
<linearGradient id="paint33_linear_1196_7077" x1="233.219" y1="151.695" x2="237.403" y2="154.444" gradientUnits="userSpaceOnUse">
<stop stop-color="#FF7ACE"/>
<stop offset="1" stop-color="#FF5296"/>
</linearGradient>
<linearGradient id="paint34_linear_1196_7077" x1="18.2961" y1="101.385" x2="22.4804" y2="104.134" gradientUnits="userSpaceOnUse">
<stop stop-color="#FF7ACE"/>
<stop offset="1" stop-color="#FF5296"/>
</linearGradient>
<linearGradient id="paint35_linear_1196_7077" x1="224.86" y1="46.4011" x2="227.656" y2="49.6205" gradientUnits="userSpaceOnUse">
<stop stop-color="#FFCA59"/>
<stop offset="1" stop-color="#FF8F5C"/>
</linearGradient>
<linearGradient id="paint36_linear_1196_7077" x1="41.6886" y1="174.245" x2="44.4844" y2="177.465" gradientUnits="userSpaceOnUse">
<stop stop-color="#FFCA59"/>
<stop offset="1" stop-color="#FF8F5C"/>
</linearGradient>
<linearGradient id="paint37_linear_1196_7077" x1="38.1544" y1="67.0118" x2="37.6295" y2="66.3244" gradientUnits="userSpaceOnUse">
<stop stop-color="#FF5C9C"/>
<stop offset="1" stop-color="#FF7ACE"/>
</linearGradient>
<linearGradient id="paint38_linear_1196_7077" x1="38.4615" y1="78.2794" x2="33.0379" y2="71.1777" gradientUnits="userSpaceOnUse">
<stop stop-color="#FF5C9C"/>
<stop offset="1" stop-color="#FF7ACE"/>
</linearGradient>
<linearGradient id="paint39_linear_1196_7077" x1="72.6064" y1="63.1633" x2="74.3593" y2="63.1633" gradientUnits="userSpaceOnUse">
<stop stop-color="#FFCA59"/>
<stop offset="1" stop-color="#FF8F5C"/>
</linearGradient>
<linearGradient id="paint40_linear_1196_7077" x1="74.0181" y1="70.4266" x2="74.7695" y2="70.4266" gradientUnits="userSpaceOnUse">
<stop stop-color="#FFCA59"/>
<stop offset="1" stop-color="#FF8F5C"/>
</linearGradient>
</defs>
</svg>
