<svg width="309" height="248" viewBox="0 0 309 248" fill="none" xmlns="http://www.w3.org/2000/svg">
<path opacity="0.35" d="M177.451 22.2573C177.451 13.5567 184.196 7.14931 192.559 7.14931C195.999 7.14931 199.169 8.22845 201.732 10.1169C205.644 4.04678 212.456 0 220.212 0C232.285 0 242.065 9.71227 242.065 21.8526L177.451 22.2573Z" fill="#FBFBFB"/>
<path d="M236.871 248H66.7044C63.6693 248 61.2412 245.572 61.2412 242.537C61.2412 239.502 63.6693 237.074 66.7044 237.074H236.804C239.839 237.074 242.267 239.502 242.267 242.537C242.335 245.505 239.839 248 236.871 248Z" fill="#E0832F"/>
<path opacity="0.35" d="M0 204.092C0 188.917 11.8031 177.654 26.4389 177.654C32.4417 177.654 38.0397 179.542 42.4237 182.914C49.2358 172.258 61.1738 165.243 74.7305 165.243C95.9086 165.243 113.04 182.24 113.04 203.553L0 204.092Z" fill="#FBFBFB"/>
<path opacity="0.35" d="M170.639 116.277C170.639 94.2899 153.508 78.0353 132.397 78.0353C123.697 78.0353 115.671 80.8006 109.196 85.5893C99.3486 70.1441 82.0824 59.9597 62.4555 59.9597C31.8349 59.9597 7.01465 84.5776 7.01465 115.401L170.639 116.277Z" fill="#FBFBFB"/>
<path opacity="0.35" d="M307.42 193.841C307.42 181.363 297.708 172.123 285.703 172.123C280.779 172.123 276.193 173.674 272.551 176.439C266.953 167.671 257.173 161.938 246.044 161.938C228.711 161.938 214.614 175.9 214.614 193.368L307.42 193.841Z" fill="#FBFBFB"/>
<path d="M287.052 142.581L212.592 214.479C212.187 214.816 211.31 214.479 210.568 213.737C209.826 212.995 209.489 212.051 209.894 211.646L284.355 139.681C284.759 139.344 285.636 139.681 286.378 140.423C287.12 141.232 287.457 142.177 287.052 142.581Z" fill="#A797FC"/>
<path d="M301.419 124.371L301.015 124.776C301.015 124.911 298.856 152.294 273.227 152.024L272.957 152.159C273.631 126.462 301.419 124.371 301.419 124.371Z" fill="#A797FC"/>
<path d="M249.688 121.066L249.89 121.606C249.958 121.673 274.913 133.207 265.74 157.217L265.808 157.487C241.999 147.91 249.688 121.066 249.688 121.066Z" fill="#A797FC"/>
<path d="M266.685 157.757L267.157 158.027C267.292 158.027 294.338 153.238 300.475 178.193L300.677 178.396C275.655 184.196 266.685 157.757 266.685 157.757Z" fill="#A797FC"/>
<path d="M234.849 135.837L235.051 136.376C235.119 136.444 260.074 147.977 250.901 171.988L250.969 172.258C227.16 162.613 234.849 135.837 234.849 135.837Z" fill="#A797FC"/>
<path d="M251.846 172.46L252.318 172.73C252.453 172.73 279.499 167.941 285.636 192.896L285.839 193.099C260.816 198.899 251.846 172.46 251.846 172.46Z" fill="#A797FC"/>
<path d="M215.694 155.531L215.897 156.071C215.964 156.138 240.919 167.671 231.746 191.682L231.814 191.952C207.938 182.375 215.694 155.531 215.694 155.531Z" fill="#A797FC"/>
<path d="M232.69 192.222L233.163 192.492C233.297 192.492 260.343 187.703 266.481 212.658L266.683 212.861C241.593 218.661 232.69 192.222 232.69 192.222Z" fill="#A797FC"/>
<path d="M23.6738 142.581L98.1345 214.547C98.5392 214.884 99.416 214.547 100.158 213.805C100.9 213.063 101.237 212.119 100.832 211.714L26.3717 139.749C25.967 139.411 25.0902 139.749 24.3483 140.491C23.6064 141.233 23.3366 142.177 23.6738 142.581Z" fill="#A797FC"/>
<path d="M9.30762 124.371L9.71229 124.776C9.71229 124.911 11.8706 152.294 37.5002 152.024L37.77 152.159C37.1629 126.462 9.30762 124.371 9.30762 124.371Z" fill="#A797FC"/>
<path d="M61.0385 121.066L60.8361 121.606C60.7687 121.673 35.8136 133.207 44.9862 157.217L44.9188 157.487C68.7948 147.91 61.0385 121.066 61.0385 121.066Z" fill="#A797FC"/>
<path d="M44.1101 157.757L43.638 158.027C43.5031 158.027 16.4571 153.238 10.3195 178.193L10.1172 178.396C35.1398 184.196 44.1101 157.757 44.1101 157.757Z" fill="#A797FC"/>
<path d="M75.8773 135.837L75.675 136.376C75.6075 136.444 50.6524 147.977 59.8251 171.988L59.7577 172.258C83.6337 162.613 75.8773 135.837 75.8773 135.837Z" fill="#A797FC"/>
<path d="M58.949 172.46L58.4769 172.73C58.342 172.73 31.296 167.941 25.1584 192.896L24.9561 193.099C49.9786 198.899 58.949 172.46 58.949 172.46Z" fill="#A797FC"/>
<path d="M95.099 155.531L94.8967 156.071C94.8292 156.138 69.8741 167.671 79.0468 191.682L78.9794 191.952C102.788 182.375 95.099 155.531 95.099 155.531Z" fill="#A797FC"/>
<path d="M78.1033 192.222L77.6312 192.492C77.4963 192.492 50.4503 187.703 44.3127 212.658L44.1104 212.861C69.1329 218.661 78.1033 192.222 78.1033 192.222Z" fill="#A797FC"/>
<path d="M49.1011 184.6C50.8547 187.635 51.799 191.21 51.799 194.515C50.8547 190.401 48.6965 186.894 45.7288 184.263C38.1748 183.656 31.0255 184.263 24.9554 185.275C26.8439 187.433 27.6532 190.266 28.1253 193.166C25.8996 190.064 23.4715 187.905 20.5039 186.152C12.2755 187.973 7.01465 190.333 7.01465 190.333L8.29613 190.671C8.36358 190.805 16.3897 203.418 30.5534 212.995C33.4536 213.872 36.4887 214.142 39.6587 212.726C38.1074 214.277 36.4212 215.086 34.6676 215.626C38.1748 217.649 42.0193 219.47 46.1335 220.887C50.2477 220.617 54.0247 217.514 55.8458 213.4C55.5085 216.57 54.5643 219.942 52.8107 222.708C64.344 225.068 77.9007 223.854 92.8738 215.693L93.5482 215.761C81.7451 194.65 64.8161 186.691 49.1011 184.6Z" fill="#8758DA"/>
<path d="M257.779 184.6C256.026 187.635 255.081 191.21 255.081 194.515C256.026 190.401 258.184 186.894 261.151 184.263C268.705 183.656 275.855 184.263 281.925 185.275C280.036 187.433 279.227 190.266 278.755 193.166C280.981 190.064 283.409 187.905 286.376 186.152C294.605 187.973 299.866 190.333 299.866 190.333L298.584 190.671C298.517 190.805 290.491 203.418 276.327 212.995C273.427 213.872 270.392 214.142 267.222 212.726C268.773 214.277 270.459 215.086 272.213 215.626C268.705 217.649 264.861 219.47 260.747 220.887C256.633 220.617 252.856 217.514 251.035 213.4C251.372 216.57 252.316 219.942 254.07 222.708C242.536 225.068 228.98 223.854 214.006 215.693L213.332 215.761C225.203 194.65 242.064 186.691 257.779 184.6Z" fill="#8758DA"/>
<path d="M214.278 60.769C214.75 64.2087 216.166 67.6485 218.19 70.2789C216.369 66.4344 215.964 62.3877 216.706 58.4758C222.304 53.3499 228.307 49.5054 233.77 46.6052C233.567 49.438 234.714 52.2707 236.063 54.8337C235.928 51.0567 236.535 47.8193 237.817 44.5818C245.438 41.0072 251.036 39.5908 251.036 39.5908L250.294 40.67C250.294 40.8049 251.711 55.7105 246.382 71.965C244.629 74.3931 242.403 76.4839 239.031 77.2933C241.189 77.5631 243.01 77.2259 244.764 76.5514C243.212 80.3284 241.324 84.1054 238.896 87.7475C235.523 90.0406 230.6 89.9058 226.62 87.7475C228.846 90.0406 231.612 92.1315 234.714 93.2781C227.025 102.181 215.559 109.533 198.698 112.23L198.226 112.703C194.584 88.6917 203.082 72.0325 214.278 60.769Z" fill="#8758DA"/>
<path d="M186.893 69.4697C188.444 71.628 190.603 73.3816 192.828 74.4608C190.266 72.5723 188.579 69.9419 187.635 67.0417C189.591 61.646 192.221 56.9247 194.852 53.0803C195.729 55.0362 197.482 56.52 199.303 57.7341C197.887 55.2386 197.145 52.8779 196.875 50.315C200.72 45.2565 203.957 42.3563 203.957 42.3563L203.822 43.3006C203.89 43.368 210.027 52.8779 212.186 65.6253C211.848 67.9185 211.106 70.0767 209.15 71.7629C210.702 71.1559 211.781 70.2791 212.725 69.2674C213.062 72.3025 213.062 75.5399 212.725 78.8448C211.241 81.5426 207.936 83.2288 204.564 83.1613C206.857 83.9032 209.42 84.3079 211.916 84.0381C209.892 92.7387 204.834 101.642 194.515 109.398L194.312 109.87C183.588 95.0319 183.386 80.9356 186.893 69.4697Z" fill="#A595FF"/>
<path d="M172.932 216.84H130.711V233.431H172.932V216.84Z" fill="#F4F4F4"/>
<path d="M172.932 216.84H130.711V233.431H172.932V216.84Z" fill="#CDCCD2"/>
<path d="M237.883 96.448H69.4022C65.7601 96.448 61.2412 98.6063 61.2412 103.125V208.206V211.916V216.772C61.2412 220.886 65.7601 225.068 69.4022 225.068H237.816C241.458 225.068 242.267 220.886 242.267 216.772V210.432V208.206V103.058C242.335 98.5388 241.525 96.448 237.883 96.448Z" fill="#444166"/>
<path d="M61.2422 208.206V216.772C61.2422 220.886 65.7611 225.068 69.4032 225.068H237.817C241.459 225.068 242.268 220.886 242.268 216.772V208.206" fill="white"/>
<path d="M236.266 103.732H66.2334V200.99H236.266V103.732Z" fill="url(#paint0_linear_1199_8545)"/>
<path d="M183.791 235.859C183.791 237.276 182.644 238.49 181.16 238.49H122.347C120.931 238.49 119.717 237.343 119.717 235.859C119.717 234.443 120.863 233.229 122.347 233.229H181.16C182.644 233.229 183.791 234.443 183.791 235.859Z" fill="white"/>
<g opacity="0.85">
<path opacity="0.85" d="M222.701 208.475H172.049L108.929 103.85H159.648L222.701 208.475Z" fill="white"/>
</g>
<g opacity="0.85">
<path opacity="0.85" d="M160.32 208.072L95.1792 103.783L66.6494 103.85L131.722 208.072H160.32Z" fill="white"/>
</g>
<path d="M235.455 102.99C232.824 96.1108 233.364 88.0847 237.546 81.3401C244.695 69.9417 259.736 66.4345 271.201 73.5838C282.6 80.7331 286.107 95.7736 278.958 107.239C271.808 118.638 256.768 122.145 245.302 114.996C242.739 113.445 240.648 111.421 238.895 109.195L228.44 111.084L235.455 102.99Z" fill="#FFF9F3"/>
<path d="M268.697 93.679C268.72 92.2637 267.592 91.0971 266.177 91.0735C264.761 91.0498 263.595 92.178 263.571 93.5933C263.548 95.0087 264.676 96.1752 266.091 96.1989C267.506 96.2225 268.673 95.0944 268.697 93.679Z" fill="#525277"/>
<path d="M261.002 93.5525C261.026 92.1372 259.898 90.9706 258.482 90.9469C257.067 90.9232 255.901 92.0514 255.877 93.4667C255.853 94.8821 256.981 96.0486 258.397 96.0723C259.812 96.096 260.979 94.9679 261.002 93.5525Z" fill="#525277"/>
<path d="M252.573 93.4613C252.596 92.0459 251.468 90.8794 250.053 90.8557C248.637 90.832 247.471 91.9602 247.447 93.3755C247.423 94.7909 248.552 95.9574 249.967 95.9811C251.382 96.0048 252.549 94.8766 252.573 93.4613Z" fill="#525277"/>
<path d="M203.957 131.385L204.429 182.307C204.496 186.287 201.191 189.591 197.212 189.659L105.283 190.468C101.236 190.536 97.9986 187.231 97.9311 183.251L97.459 132.33C97.3916 128.35 100.696 125.045 104.676 124.978L196.538 124.101C200.584 124.169 203.889 127.406 203.957 131.385Z" fill="#FFF5BD"/>
<path opacity="0.28" d="M204.09 147.572L204.428 182.24C204.495 186.219 201.19 189.524 197.211 189.591L105.282 190.468C101.235 190.536 97.9975 187.231 97.93 183.251L97.5928 145.212L153.303 173.809L204.09 147.572Z" fill="#F2AF5C"/>
<path opacity="0.22" d="M97.6621 145.212L132.802 163.287L97.9319 184.6L97.6621 145.212Z" fill="#ED7E3D"/>
<path opacity="0.22" d="M203.821 147.91L170.638 165.311L204.158 183.251L203.821 147.91Z" fill="#ED7E3D"/>
<path d="M173.201 124.91C173.201 118.975 167.603 114.928 161.668 114.928C158.228 114.928 155.125 116.547 153.17 119.11C151.214 116.547 148.111 114.928 144.671 114.928C138.736 114.928 133.88 119.784 133.88 125.72C133.88 128.822 135.229 131.655 137.32 133.611L137.387 133.678C137.792 134.083 138.264 134.42 138.736 134.758L153.507 146.358V146.493L153.642 146.426L153.777 146.493V146.358C158.363 142.716 163.286 139.479 167.67 135.499C170.368 132.869 173.201 128.957 173.201 124.91Z" fill="#F9A993"/>
<path d="M134.151 48.9659C134.016 49.9776 133.746 50.9219 133.409 51.7987" stroke="#FEFEFE" stroke-width="4.3007" stroke-linecap="round" stroke-linejoin="round"/>
<path d="M129.7 57.0595C121.877 63.8716 106.094 63.8042 98.2704 60.4993C85.4556 55.0361 75.2038 32.8463 91.1211 24.0783C101.845 18.2105 110.276 25.4272 109.332 36.8931C107.376 61.0389 60.2307 68.7277 44.1785 80.1936C24.5516 94.155 15.1091 123.224 31.7009 143.661C41.2108 155.396 67.0428 159.173 64.6147 135.837C63.0634 120.729 52.272 127.069 52.6093 140.423C52.8791 153.508 60.8377 160.724 74.934 157.892C81.6786 156.543 86.872 150.405 92.3351 147.91" stroke="#FEFEFE" stroke-width="4.3007" stroke-linecap="round" stroke-linejoin="round" stroke-dasharray="8.56 8.56"/>
<path d="M95.3701 146.831C96.3144 146.696 97.2586 146.696 98.2703 146.898" stroke="#FEFEFE" stroke-width="4.3007" stroke-linecap="round" stroke-linejoin="round"/>
<path d="M248.945 183.252C260.232 183.252 269.381 174.102 269.381 162.815C269.381 151.529 260.232 142.379 248.945 142.379C237.658 142.379 228.509 151.529 228.509 162.815C228.509 174.102 237.658 183.252 248.945 183.252Z" fill="#F97658"/>
<path d="M258.29 176.011C258.29 174.869 257.887 173.907 257.08 173.125C256.285 172.343 254.938 171.635 253.039 171.002C250.395 170.195 248.465 169.146 247.249 167.856C246.044 166.552 245.442 164.901 245.442 162.903C245.442 160.867 246.032 159.197 247.211 157.894C248.403 156.591 250.035 155.815 252.108 155.567V151.489H254.883V155.585C256.968 155.871 258.588 156.746 259.742 158.211C260.909 159.675 261.493 161.68 261.493 164.225H258.067C258.067 162.474 257.651 161.084 256.819 160.054C255.987 159.024 254.864 158.508 253.449 158.508C251.972 158.508 250.842 158.893 250.06 159.663C249.278 160.42 248.887 161.481 248.887 162.847C248.887 164.113 249.297 165.125 250.116 165.882C250.948 166.627 252.307 167.309 254.194 167.93C256.093 168.538 257.57 169.215 258.625 169.96C259.693 170.692 260.475 171.548 260.971 172.529C261.48 173.51 261.735 174.658 261.735 175.974C261.735 178.071 261.102 179.76 259.835 181.038C258.582 182.317 256.819 183.074 254.547 183.31V186.866H251.792V183.31C249.483 183.099 247.671 182.28 246.355 180.852C245.051 179.412 244.4 177.463 244.4 175.005H247.844C247.844 176.731 248.297 178.059 249.204 178.99C250.11 179.921 251.394 180.387 253.058 180.387C254.684 180.387 255.963 179.996 256.893 179.214C257.824 178.431 258.29 177.364 258.29 176.011Z" fill="white"/>
<path d="M129.092 26.0343L160.589 43.368L196.403 0L129.092 26.0343Z" fill="#EAE0FF"/>
<path d="M162.681 16.9965L132.061 38.6467L143.324 50.7196L154.115 39.7933L146.764 35.5442L162.681 16.9965Z" fill="#AA90E4"/>
<path opacity="0.6" d="M162.681 16.9965L131.926 38.5793L143.324 50.7196L153.778 39.9956L146.764 35.5442L162.681 16.9965Z" fill="#826BB3"/>
<path d="M146.763 35.5442L162.141 17.4011L131.992 38.7141" fill="#826BB3"/>
<path d="M130.913 26.9784L140.558 32.4416L155.126 22.3921L130.913 26.9784Z" fill="#AA90E4"/>
<path d="M61.24 7.82373L63.3308 11.6682L67.1752 13.759L63.3308 15.8498L61.24 19.6943L59.1491 15.8498L55.3047 13.759L59.1491 11.6682L61.24 7.82373Z" fill="#FBFBFB"/>
<path d="M44.1109 47.0775L45.3924 49.4381L47.753 50.7196L45.3924 52.0011L44.1109 54.3617L42.762 52.0011L40.4014 50.7196L42.762 49.4381L44.1109 47.0775Z" fill="#FBFBFB"/>
<path d="M40.4015 27.1808L41.5481 29.2716L43.7064 30.4182L41.5481 31.5648L40.4015 33.6556L39.2549 31.5648L37.1641 30.4182L39.2549 29.2716L40.4015 27.1808Z" fill="#FBFBFB"/>
<path d="M103.058 80.4634L104.879 83.8357L108.319 85.7242L104.879 87.5452L103.058 90.9176L101.237 87.5452L97.7969 85.7242L101.237 83.8357L103.058 80.4634Z" fill="#FBFBFB"/>
<path d="M151.822 59.6224L153.036 61.9831L155.396 63.1971L153.036 64.4786L151.822 66.7717L150.54 64.4786L148.18 63.1971L150.54 61.9831L151.822 59.6224Z" fill="#FBFBFB"/>
<path d="M13.152 75.27L14.0963 77.0911L15.9173 78.0353L14.0963 79.047L13.152 80.8006L12.1403 79.047L10.3867 78.0353L12.1403 77.0911L13.152 75.27Z" fill="#FBFBFB"/>
<path d="M220.414 131.925L221.763 134.42L224.326 135.837L221.763 137.186L220.414 139.681L219.065 137.186L216.502 135.837L219.065 134.42L220.414 131.925Z" fill="#FBFBFB"/>
<path d="M206.454 111.084L207.87 113.579L210.366 114.928L207.87 116.277L206.454 118.773L205.105 116.277L202.609 114.928L205.105 113.579L206.454 111.084Z" fill="#FBFBFB"/>
<path d="M276.732 23.6063L278.351 26.5065L281.251 28.0578L278.351 29.6765L276.732 32.5767L275.113 29.6765L272.213 28.0578L275.113 26.5065L276.732 23.6063Z" fill="#FBFBFB"/>
<path d="M258.454 1.34888L260.748 5.53055L264.929 7.82372L260.748 10.1169L258.454 14.2986L256.161 10.1169L251.979 7.82372L256.161 5.53055L258.454 1.34888Z" fill="#FBFBFB"/>
<path d="M281.252 67.986L281.859 69.2L283.073 69.8745L281.859 70.5489L281.252 71.763L280.577 70.5489L279.363 69.8745L280.577 69.2L281.252 67.986Z" fill="#FBFBFB"/>
<path d="M264.929 50.1125L266.413 52.8778L269.178 54.3617L266.413 55.9129L264.929 58.6782L263.378 55.9129L260.612 54.3617L263.378 52.8778L264.929 50.1125Z" fill="#FBFBFB"/>
<path d="M305.734 104.137L306.543 105.688L308.094 106.498L306.543 107.307L305.734 108.858L304.924 107.307L303.373 106.498L304.924 105.688L305.734 104.137Z" fill="#FBFBFB"/>
<defs>
<linearGradient id="paint0_linear_1199_8545" x1="151.459" y1="99.477" x2="150.796" y2="270.711" gradientUnits="userSpaceOnUse">
<stop stop-color="#292942"/>
<stop offset="1" stop-color="#19002B"/>
</linearGradient>
</defs>
</svg>
