<svg width="34" height="40" viewBox="0 0 34 40" fill="none" xmlns="http://www.w3.org/2000/svg">
<path d="M27.8785 21.2719C27.8319 16.2185 32.1223 13.76 32.3185 13.6456C29.8887 10.1915 26.1224 9.71951 24.799 9.68188C21.6358 9.35732 18.5675 11.5273 16.9562 11.5273C15.3127 11.5273 12.8313 9.71324 10.157 9.76655C6.71566 9.81829 3.4962 11.7609 1.73049 14.7776C-1.91351 20.9285 0.804214 29.9676 4.29544 34.9394C6.04186 37.3744 8.08256 40.0932 10.7536 39.9975C13.3668 39.8925 14.343 38.3732 17.4965 38.3732C20.6211 38.3732 21.5377 39.9975 24.2618 39.9364C27.0664 39.8925 28.8321 37.4904 30.5174 35.0335C32.5356 32.2426 33.3461 29.4941 33.3783 29.353C33.3123 29.331 27.9316 27.3288 27.8785 21.2719Z" fill="black"/>
<path d="M22.7325 6.41121C24.138 4.69748 25.0997 2.36598 24.8327 0C22.7985 0.0878033 20.2544 1.37193 18.7894 3.04803C17.4933 4.52501 16.3354 6.94587 16.6345 9.22248C18.9197 9.38868 21.2659 8.09828 22.7325 6.41121Z" fill="black"/>
</svg>
