<svg width="1920" height="600" viewBox="0 0 1920 600" fill="none" xmlns="http://www.w3.org/2000/svg">
<g clip-path="url(#clip0_2531_30741)">
<path d="M0 -114H1920V732H0V-114Z" fill="url(#paint0_radial_2531_30741)"/>
<path d="M498.622 134.107C542.838 134.106 575.23 115.205 600.829 85.42C621.761 61.2223 620.977 19.9817 612.5 -11L-6.34657e-06 -11C246.445 1.13831 307.579 34.824 362.981 77.7833C408.831 113.336 439.398 134.107 498.622 134.107Z" fill="url(#paint1_linear_2531_30741)"/>
<path d="M1645.19 411.335C1555.18 339.976 1538.97 262.941 1488.67 168.945C1435.73 69.9993 1362.58 15.5838 1248.24 -5.53742C1158.61 -22.094 942.744 -44.2067 889 -114L1929 -114C1929 -114 1926.17 357.576 1926.17 466.981C1855.46 482.071 1753.44 497.152 1645.19 411.335Z" fill="url(#paint2_linear_2531_30741)"/>
<path d="M-29.208 37.5155C40.7323 44.4459 101.621 126.142 80.4189 195.813C67.1094 239.55 35.1533 272.646 38.3752 312.826C43.1072 371.838 73.1512 406.575 132.917 425.722C168.453 437.106 239.939 439.516 299.5 445.279C402.022 455.199 457.499 481.177 501.994 558.192C558.667 656.286 469.134 738.991 494.463 816.103L-161 682.284C-159.976 681.117 -159.651 675.683 -158.815 674.478L-36.1137 74.183" fill="url(#paint3_linear_2531_30741)"/>
<g opacity="0.49">
<path opacity="0.49" d="M-19.8125 426.075C35.662 393.719 91.5003 361.362 152.068 339.913C212.635 318.463 278.84 308.829 341.408 323.008C403.976 337.368 462.361 378.086 487.825 437.163C503.467 473.336 506.377 514.418 524.747 549.319C556.213 608.396 626.238 637.117 692.808 643.661C759.377 650.204 826.674 639.661 893.607 642.933C960.54 646.205 1031.84 667.11 1071.67 720.733" stroke="white" stroke-miterlimit="10"/>
<path opacity="0.49" d="M-22.1765 405.897C33.1161 374.996 88.9544 344.094 148.976 323.916C188.263 310.647 229.732 302.103 271.202 301.74C292.846 301.558 314.672 303.558 336.134 308.284C398.157 322.099 455.996 360.999 483.096 417.713C500.921 455.159 505.104 498.785 525.475 535.14C530.022 543.138 535.115 550.591 540.935 557.317C569.127 590.218 611.324 608.032 654.976 617.485C672.255 621.12 689.716 623.665 707.177 624.937C734.096 626.937 761.196 626.755 788.115 626.028C826.311 624.937 864.87 621.847 903.066 623.483C908.704 623.665 914.16 624.029 919.799 624.574C947.081 626.755 974.546 632.208 999.828 642.024C1040.75 658.021 1072.76 684.015 1093.86 720.915" stroke="white" stroke-miterlimit="10"/>
<path opacity="0.49" d="M-24.3596 385.539C30.7511 356.091 86.4075 326.643 145.883 307.557C184.988 295.014 225.912 287.016 266.836 286.834C288.116 286.653 309.761 288.652 331.041 293.378C392.336 306.648 450.175 343.548 478.73 398.263C499.101 436.981 504.194 483.152 526.384 520.962C531.295 529.142 536.933 536.958 543.299 544.047C574.219 577.858 620.236 592.763 666.434 600.216C684.623 603.124 703.175 605.124 721.727 606.033C750.101 607.487 778.657 607.305 807.212 606.396C847.59 605.306 888.151 601.67 928.529 604.215C934.349 604.579 940.351 605.124 946.171 605.669C974.909 608.759 1003.65 615.667 1029.29 628.028C1071.31 648.205 1098.77 679.834 1116.23 720.37" stroke="white" stroke-miterlimit="10"/>
<path opacity="0.49" d="M-26.7236 365.361C28.2052 337.368 83.8616 309.374 142.61 291.379C181.351 279.563 221.729 272.11 262.108 272.11C283.024 272.11 304.305 274.11 325.403 278.473C385.97 291.197 443.809 326.098 473.82 378.813C496.556 418.804 502.74 467.519 526.93 506.783C532.205 515.327 538.207 523.325 545.3 530.596C578.949 565.315 628.785 577.312 677.53 582.947C696.809 585.129 716.453 586.583 735.914 587.31C765.925 588.401 795.936 587.855 825.947 587.128C868.508 586.037 911.25 582.038 953.629 585.31C959.813 585.856 965.997 586.401 972.181 587.31C1002.37 591.309 1032.38 599.852 1058.39 614.758C1101.32 639.298 1124.42 676.38 1138.42 720.37" stroke="white" stroke-miterlimit="10"/>
<path opacity="0.49" d="M-29.0884 345.184C25.4767 318.463 81.1331 292.288 139.518 275.383C177.895 264.294 217.728 257.387 257.742 257.387C278.295 257.387 299.393 259.386 320.31 263.749C380.332 276.11 438.171 308.829 469.273 359.545C494.555 400.808 501.648 452.069 527.657 492.787C533.296 501.694 539.844 509.874 547.483 517.326C584.041 552.954 637.515 561.861 688.624 565.86C708.995 567.315 729.548 568.224 750.101 568.587C781.567 569.132 813.215 568.587 844.681 567.678C889.242 566.406 934.167 562.043 978.729 566.406C985.277 566.951 991.642 567.86 998.19 568.769C1029.84 573.677 1061.12 583.856 1087.5 601.125C1131.33 629.846 1149.88 672.381 1160.43 720.188" stroke="white" stroke-miterlimit="10"/>
<path opacity="0.49" d="M-31.2708 324.825C23.1125 299.558 78.587 274.837 136.426 259.022C174.622 248.661 213.727 242.299 253.377 242.481C273.384 242.663 294.301 244.48 315.218 248.661C374.512 260.477 432.532 291.015 464.908 339.913C492.918 382.267 500.739 436.254 528.749 478.426C534.751 487.515 541.845 496.058 550.029 503.693C589.316 540.23 646.61 546.228 700.265 548.41C721.546 549.137 743.19 549.5 764.834 549.5C797.755 549.5 830.858 548.773 863.779 547.864C910.523 546.592 957.631 541.684 1004.19 546.956C1010.92 547.683 1017.83 548.592 1024.56 549.864C1057.67 555.863 1090.22 567.496 1116.78 587.31C1161.52 620.393 1175.71 668.382 1182.8 719.824" stroke="white" stroke-miterlimit="10"/>
<path opacity="0.49" d="M-33.6355 304.648C20.5658 280.836 76.0403 257.568 133.334 243.026C171.165 233.392 209.907 227.575 249.012 227.939C268.655 228.121 289.39 230.12 309.943 234.119C368.509 245.389 426.894 273.747 460.36 320.826C491.099 364.271 499.647 420.985 529.476 464.611C536.024 474.064 543.481 482.789 552.212 490.787C594.227 528.051 655.34 531.323 711.542 531.505C733.913 531.505 756.467 531.505 779.021 531.141C813.578 530.596 848.136 529.869 882.512 528.96C931.257 527.687 980.548 522.416 1029.47 528.415C1036.57 529.323 1043.66 530.414 1050.57 531.868C1085.31 538.776 1118.78 552.045 1145.88 574.222C1191.35 611.668 1201.35 665.11 1204.81 720.188" stroke="white" stroke-miterlimit="10"/>
<path opacity="0.49" d="M-36 284.471C53.6686 247.207 147.339 211.761 244.465 213.033C318.127 213.942 409.251 239.754 455.631 301.195C496.555 355.182 501.102 431.71 554.394 477.154C599.138 515.327 664.07 515.69 722.819 514.054C781.749 512.418 842.134 510.601 901.428 509.146C952.356 507.874 1003.83 502.057 1054.76 508.965C1098.59 514.963 1142.24 530.596 1175.16 560.225C1221.73 602.034 1227 660.747 1227 719.461" stroke="white" stroke-miterlimit="10"/>
</g>
<g opacity="0.49">
<path opacity="0.49" d="M1927.34 237.859C1880.52 265.168 1833.39 292.477 1782.27 310.581C1731.15 328.685 1675.27 336.816 1622.46 324.849C1569.65 312.729 1520.37 278.362 1498.88 228.5C1485.68 197.969 1483.22 163.295 1467.72 133.838C1441.16 83.9753 1382.06 59.7345 1325.87 54.2113C1269.68 48.688 1212.88 57.5866 1156.39 54.825C1099.9 52.0634 1039.72 34.4198 1006.1 -10.84" stroke="white" stroke-miterlimit="10"/>
<path opacity="0.49" d="M1929.33 254.888C1882.66 280.97 1835.54 307.052 1784.88 324.082C1751.72 335.282 1716.72 342.493 1681.71 342.8C1663.45 342.953 1645.03 341.266 1626.91 337.277C1574.56 325.616 1525.74 292.784 1502.87 244.916C1487.83 213.311 1484.3 176.489 1467.1 145.805C1463.26 139.054 1458.97 132.764 1454.05 127.087C1430.26 99.3176 1394.64 84.2821 1357.8 76.3042C1343.22 73.2357 1328.48 71.0878 1313.74 70.0138C1291.02 68.3262 1268.15 68.4796 1245.43 69.0933C1213.19 70.0138 1180.65 72.622 1148.41 71.2412C1143.65 71.0877 1139.04 70.7809 1134.28 70.3206C1111.26 68.4795 1088.08 63.8769 1066.74 55.5921C1032.2 42.0908 1005.18 20.1513 987.372 -10.9935" stroke="white" stroke-miterlimit="10"/>
<path opacity="0.49" d="M1931.18 272.072C1884.66 296.926 1837.69 321.781 1787.49 337.89C1754.48 348.476 1719.94 355.227 1685.4 355.38C1667.44 355.534 1649.17 353.846 1631.21 349.857C1579.48 338.657 1530.66 307.512 1506.56 261.332C1489.36 228.653 1485.06 189.684 1466.34 157.772C1462.19 150.868 1457.43 144.27 1452.06 138.287C1425.96 109.75 1387.12 97.1696 1348.13 90.8792C1332.78 88.4245 1317.12 86.7368 1301.46 85.9697C1277.51 84.7423 1253.41 84.8957 1229.31 85.6628C1195.23 86.5833 1161 89.6518 1126.92 87.5039C1122 87.1971 1116.94 86.7368 1112.03 86.2765C1087.77 83.6683 1063.52 77.8382 1041.87 67.4055C1006.41 50.3755 983.228 23.6799 968.49 -10.5334" stroke="white" stroke-miterlimit="10"/>
<path opacity="0.49" d="M1933.17 289.102C1886.81 312.729 1839.83 336.356 1790.25 351.545C1757.55 361.517 1723.47 367.808 1689.39 367.808C1671.74 367.808 1653.78 366.12 1635.97 362.438C1584.85 351.698 1536.03 322.241 1510.7 277.748C1491.51 243.995 1486.29 202.878 1465.87 169.739C1461.42 162.528 1456.36 155.777 1450.37 149.64C1421.97 120.336 1379.91 110.211 1338.77 105.454C1322.49 103.613 1305.91 102.386 1289.49 101.772C1264.16 100.852 1238.83 101.312 1213.5 101.926C1177.58 102.846 1141.5 106.221 1105.73 103.46C1100.51 103 1095.29 102.539 1090.07 101.772C1064.59 98.3969 1039.26 91.1861 1017.31 78.6054C981.078 57.8933 961.582 26.595 949.761 -10.5334" stroke="white" stroke-miterlimit="10"/>
<path opacity="0.49" d="M1935.17 306.132C1889.11 328.685 1842.14 350.778 1792.86 365.046C1760.47 374.405 1726.85 380.235 1693.08 380.235C1675.73 380.235 1657.92 378.547 1640.27 374.865C1589.61 364.432 1540.79 336.816 1514.54 294.011C1493.2 259.184 1487.21 215.919 1465.26 181.552C1460.5 174.034 1454.98 167.13 1448.53 160.84C1417.67 130.769 1372.54 123.252 1329.4 119.876C1312.21 118.649 1294.86 117.882 1277.51 117.575C1250.96 117.115 1224.24 117.575 1197.69 118.342C1160.08 119.416 1122.16 123.098 1084.55 119.416C1079.02 118.956 1073.65 118.189 1068.12 117.421C1041.41 113.279 1015 104.687 992.745 90.1122C955.748 65.8713 940.09 29.9704 931.186 -10.3798" stroke="white" stroke-miterlimit="10"/>
<path opacity="0.49" d="M1937.01 323.315C1891.11 344.641 1844.29 365.506 1795.47 378.854C1763.23 387.599 1730.23 392.969 1696.76 392.816C1679.87 392.662 1662.22 391.128 1644.56 387.599C1594.52 377.627 1545.55 351.852 1518.22 310.581C1494.58 274.833 1487.98 229.267 1464.34 193.673C1459.27 186.002 1453.29 178.791 1446.38 172.347C1413.22 141.509 1364.86 136.446 1319.58 134.605C1301.62 133.991 1283.35 133.684 1265.08 133.684C1237.29 133.684 1209.35 134.298 1181.57 135.065C1142.11 136.139 1102.35 140.281 1063.05 135.832C1057.37 135.218 1051.54 134.451 1045.86 133.377C1017.92 128.314 990.443 118.495 968.03 101.772C930.265 73.8493 918.291 33.3457 912.304 -10.073" stroke="white" stroke-miterlimit="10"/>
<path opacity="0.49" d="M1939 340.345C1893.26 360.443 1846.44 380.082 1798.08 392.355C1766.15 400.487 1733.45 405.396 1700.44 405.089C1683.86 404.936 1666.36 403.248 1649.02 399.873C1599.59 390.361 1550.31 366.427 1522.06 326.69C1496.12 290.022 1488.9 242.154 1463.73 205.333C1458.2 197.355 1451.9 189.99 1444.54 183.24C1409.07 151.788 1357.49 149.027 1310.06 148.873C1291.18 148.873 1272.14 148.873 1253.1 149.18C1223.94 149.64 1194.77 150.254 1165.76 151.021C1124.61 152.095 1083.01 156.544 1041.72 151.481C1035.73 150.714 1029.74 149.794 1023.91 148.566C994.587 142.736 966.341 131.536 943.467 112.819C905.089 81.2136 896.645 36.1073 893.729 -10.3799" stroke="white" stroke-miterlimit="10"/>
<path opacity="0.49" d="M1941 357.375C1865.32 388.827 1786.26 418.744 1704.28 417.67C1642.11 416.903 1565.2 395.117 1526.05 343.26C1491.51 297.693 1487.67 233.102 1442.69 194.747C1404.93 162.528 1350.13 162.221 1300.54 163.602C1250.8 164.983 1199.84 166.517 1149.79 167.744C1106.81 168.818 1063.36 173.728 1020.38 167.898C983.381 162.835 946.537 149.64 918.751 124.632C879.452 89.3451 875 39.7894 875 -9.76617" stroke="white" stroke-miterlimit="10"/>
</g>
</g>
<defs>
<radialGradient id="paint0_radial_2531_30741" cx="0" cy="0" r="1" gradientUnits="userSpaceOnUse" gradientTransform="translate(1920 -114) rotate(156.221) scale(2098.12 2436.73)">
<stop offset="0.00143081" stop-color="#F01A63" stop-opacity="0.6"/>
<stop offset="0.421875" stop-color="#AC27FD"/>
<stop offset="1" stop-color="#2E28D4"/>
</radialGradient>
<linearGradient id="paint1_linear_2531_30741" x1="582.68" y1="-99.7813" x2="420.442" y2="198.15" gradientUnits="userSpaceOnUse">
<stop stop-color="#2E28D4"/>
<stop offset="0.625" stop-color="#AC27FD"/>
<stop offset="1" stop-color="#DD1E8F"/>
</linearGradient>
<linearGradient id="paint2_linear_2531_30741" x1="1318.95" y1="353.21" x2="1565.59" y2="-260.134" gradientUnits="userSpaceOnUse">
<stop stop-color="#E11D88"/>
<stop offset="0.32277" stop-color="#AC27FD"/>
<stop offset="0.889504" stop-color="#2E28D4"/>
</linearGradient>
<linearGradient id="paint3_linear_2531_30741" x1="-101.921" y1="632.408" x2="396.533" y2="296.86" gradientUnits="userSpaceOnUse">
<stop offset="0.177083" stop-color="#2E28D4"/>
<stop offset="0.661458" stop-color="#AC27FD"/>
<stop offset="1" stop-color="#E21D84"/>
</linearGradient>
<clipPath id="clip0_2531_30741">
<rect width="1920" height="600" fill="white"/>
</clipPath>
</defs>
</svg>
