<svg width="1920" height="350" viewBox="0 0 1920 350" fill="none" xmlns="http://www.w3.org/2000/svg">
<g clip-path="url(#clip0_337_530)">
<path d="M958 496.493C540 488.993 147 419.493 -0.000244141 289.993V-350.007H1920.5V290.993C1718.5 401.993 1394.5 484.493 958 496.493Z" fill="#C4C4C4"/>
<path d="M-0.000244141 -349.007H1920V496.993H-0.000244141V-349.007Z" fill="url(#paint0_radial_337_530)"/>
<path d="M1713.14 390.775C1644.68 336.472 1632.35 277.848 1594.1 206.319C1553.83 131.022 1498.19 89.612 1411.23 73.539C1343.06 60.9395 1178.87 44.1121 1138 -9.00001L1929 -8.99994C1929 -8.99994 1926.85 349.865 1926.85 433.121C1873.06 444.604 1795.47 456.08 1713.14 390.775Z" fill="url(#paint1_linear_337_530)"/>
<path d="M10.5532 -73.595C65.5076 -68.1497 113.35 -3.95838 96.6906 50.7848C86.2328 85.1503 61.1239 111.155 63.6555 142.725C67.3736 189.093 90.9801 216.387 137.94 231.431C165.862 240.376 222.031 242.27 268.83 246.798C349.384 254.592 392.974 275.004 427.936 335.518C472.466 412.593 402.116 477.577 422.019 538.166L-93 433.02C-92.1955 432.104 -91.9399 427.834 -91.2835 426.887L5.12713 -44.7843" fill="url(#paint2_linear_337_530)"/>
<g opacity="0.49">
<path opacity="0.49" d="M-22.8876 233.949C8.34148 215.735 39.7754 197.52 73.8714 185.445C107.967 173.37 145.238 167.947 180.46 175.928C215.682 184.012 248.55 206.934 262.884 240.191C271.69 260.555 273.328 283.682 283.67 303.329C301.383 336.586 340.804 352.754 378.279 356.438C415.753 360.122 453.638 354.187 491.318 356.029C528.997 357.871 569.135 369.639 591.558 399.826" stroke="white" stroke-miterlimit="10"/>
<path opacity="0.49" d="M-24.2185 222.591C6.90822 205.195 38.3421 187.799 72.131 176.44C94.2474 168.97 117.592 164.16 140.937 163.956C153.122 163.853 165.409 164.979 177.491 167.64C212.406 175.417 244.966 197.315 260.222 229.242C270.257 250.322 272.612 274.881 284.079 295.347C286.639 299.85 289.506 304.045 292.783 307.832C308.653 326.353 332.408 336.382 356.982 341.703C366.709 343.749 376.538 345.182 386.368 345.898C401.521 347.024 416.778 346.922 431.931 346.512C453.433 345.898 475.14 344.159 496.642 345.08C499.816 345.182 502.888 345.387 506.062 345.694C521.421 346.922 536.882 349.992 551.114 355.517C574.152 364.522 592.173 379.156 604.05 399.929" stroke="white" stroke-miterlimit="10"/>
<path opacity="0.49" d="M-25.447 211.13C5.57731 194.552 36.9088 177.975 70.3905 167.23C92.4045 160.17 115.442 155.667 138.48 155.565C150.46 155.462 162.644 156.588 174.624 159.249C209.13 166.719 241.69 187.492 257.765 218.293C269.233 240.089 272.1 266.081 284.592 287.366C287.356 291.97 290.53 296.371 294.114 300.361C311.52 319.395 337.425 327.786 363.432 331.981C373.671 333.619 384.115 334.744 394.559 335.256C410.532 336.075 426.607 335.972 442.683 335.461C465.413 334.847 488.246 332.8 510.977 334.233C514.254 334.437 517.632 334.744 520.909 335.051C537.087 336.791 553.264 340.679 567.701 347.638C591.354 358.997 606.815 376.802 616.644 399.622" stroke="white" stroke-miterlimit="10"/>
<path opacity="0.49" d="M-26.7779 199.771C4.14405 184.012 35.4756 168.254 68.5477 158.123C90.3569 151.472 113.088 147.276 135.818 147.276C147.593 147.276 159.573 148.402 171.45 150.858C205.546 158.021 238.106 177.668 255.001 207.344C267.8 229.856 271.281 257.281 284.899 279.384C287.868 284.193 291.247 288.696 295.24 292.789C314.183 312.334 342.238 319.088 369.678 322.26C380.532 323.488 391.59 324.307 402.546 324.716C419.44 325.33 436.335 325.023 453.229 324.614C477.188 324 501.25 321.749 525.107 323.59C528.588 323.897 532.07 324.204 535.551 324.716C552.548 326.967 569.442 331.777 584.084 340.168C608.248 353.982 621.252 374.858 629.136 399.622" stroke="white" stroke-miterlimit="10"/>
<path opacity="0.49" d="M-28.1093 188.413C2.60791 173.37 33.9394 158.635 66.8068 149.118C88.4112 142.876 110.835 138.987 133.361 138.987C144.931 138.987 156.808 140.113 168.583 142.569C202.372 149.527 234.932 167.947 252.441 196.497C266.673 219.726 270.666 248.583 285.308 271.505C288.482 276.519 292.168 281.124 296.469 285.319C317.049 305.376 347.152 310.39 375.924 312.641C387.392 313.46 398.962 313.971 410.532 314.176C428.245 314.483 446.061 314.176 463.775 313.664C488.861 312.948 514.151 310.492 539.237 312.948C542.923 313.255 546.506 313.767 550.193 314.278C568.008 317.041 585.62 322.772 600.466 332.493C625.142 348.661 635.586 372.606 641.525 399.519" stroke="white" stroke-miterlimit="10"/>
<path opacity="0.49" d="M-29.3378 176.952C1.27701 162.728 32.5061 148.811 65.0663 139.908C86.5683 134.075 108.582 130.494 130.903 130.596C142.166 130.698 153.941 131.722 165.716 134.075C199.096 140.727 231.758 157.918 249.984 185.445C265.752 209.288 270.155 239.68 285.923 263.42C289.302 268.537 293.295 273.346 297.902 277.644C320.019 298.213 352.272 301.589 382.477 302.817C394.457 303.227 406.641 303.431 418.826 303.431C437.358 303.431 455.993 303.022 474.526 302.51C500.841 301.794 527.36 299.031 553.572 301.999C557.36 302.408 561.251 302.92 565.039 303.636C583.674 307.013 602.002 313.562 616.951 324.716C642.139 343.34 650.126 370.355 654.119 399.314" stroke="white" stroke-miterlimit="10"/>
<path opacity="0.49" d="M-30.6691 165.593C-0.156745 152.188 31.0724 139.09 63.3254 130.903C84.6226 125.48 106.432 122.205 128.446 122.41C139.504 122.512 151.176 123.638 162.747 125.889C195.716 132.233 228.584 148.197 247.424 174.7C264.728 199.157 269.54 231.084 286.332 255.643C290.018 260.965 294.216 265.876 299.131 270.379C322.783 291.357 357.186 293.198 388.825 293.301C401.419 293.301 414.115 293.301 426.812 293.096C446.266 292.789 465.72 292.38 485.072 291.868C512.513 291.152 540.261 288.184 567.804 291.561C571.797 292.073 575.79 292.687 579.681 293.505C599.238 297.394 618.077 304.864 633.334 317.348C658.931 338.428 664.563 368.513 666.508 399.519" stroke="white" stroke-miterlimit="10"/>
<path opacity="0.49" d="M-32 154.234C18.4785 133.257 71.2097 113.302 125.886 114.019C167.354 114.53 218.652 129.061 244.762 163.649C267.8 194.041 270.359 237.122 300.36 262.704C325.548 284.193 362.101 284.398 395.173 283.477C428.348 282.556 462.342 281.533 495.721 280.714C524.39 279.998 553.367 276.723 582.036 280.612C606.712 283.989 631.286 292.789 649.819 309.469C676.031 333.005 679 366.057 679 399.11" stroke="white" stroke-miterlimit="10"/>
</g>
<g opacity="0.49">
<path opacity="0.49" d="M1930.71 190.996C1895.44 211.567 1859.94 232.139 1821.43 245.776C1782.92 259.414 1740.83 265.539 1701.05 256.524C1661.27 247.394 1624.15 221.506 1607.96 183.946C1598.01 160.947 1596.16 134.828 1584.48 112.639C1564.48 75.078 1519.96 56.8178 1477.63 52.6572C1435.31 48.4967 1392.52 55.1998 1349.97 53.1196C1307.41 51.0393 1262.08 37.7486 1236.76 3.65522" stroke="white" stroke-miterlimit="10"/>
<path opacity="0.49" d="M1932.21 203.824C1897.06 223.471 1861.56 243.118 1823.39 255.947C1798.42 264.383 1772.05 269.815 1745.69 270.046C1731.92 270.162 1718.05 268.89 1704.4 265.886C1664.97 257.102 1628.2 232.37 1610.97 196.312C1599.63 172.504 1596.97 144.767 1584.02 121.653C1581.13 116.568 1577.89 111.83 1574.19 107.553C1556.27 86.6351 1529.44 75.3092 1501.69 69.2995C1490.7 66.9881 1479.6 65.3701 1468.5 64.5611C1451.38 63.2898 1434.15 63.4054 1417.04 63.8677C1392.75 64.5611 1368.24 66.5258 1343.95 65.4856C1340.37 65.3701 1336.9 65.1389 1333.32 64.7922C1315.97 63.4054 1298.51 59.9383 1282.43 53.6974C1256.41 43.5272 1236.06 27.0005 1222.65 3.53962" stroke="white" stroke-miterlimit="10"/>
<path opacity="0.49" d="M1933.6 216.768C1898.56 235.49 1863.18 254.213 1825.36 266.348C1800.5 274.322 1774.48 279.407 1748.46 279.523C1734.93 279.639 1721.17 278.367 1707.64 275.362C1668.67 266.926 1631.9 243.465 1613.74 208.678C1600.79 184.061 1597.55 154.706 1583.44 130.668C1580.32 125.467 1576.74 120.497 1572.69 115.99C1553.03 94.494 1523.77 85.0172 1494.4 80.2787C1482.84 78.4296 1471.04 77.1583 1459.25 76.5805C1441.21 75.6559 1423.05 75.7715 1404.9 76.3493C1379.22 77.0427 1353.44 79.3542 1327.76 77.7362C1324.06 77.505 1320.25 77.1583 1316.55 76.8116C1298.28 74.8469 1280.01 70.4552 1263.7 62.5964C1236.99 49.768 1219.53 29.6586 1208.43 3.88632" stroke="white" stroke-miterlimit="10"/>
<path opacity="0.49" d="M1935.1 229.596C1900.18 247.394 1864.79 265.192 1827.44 276.634C1802.81 284.146 1777.14 288.884 1751.47 288.884C1738.17 288.884 1724.64 287.613 1711.22 284.839C1672.72 276.749 1635.94 254.56 1616.86 221.044C1602.41 195.619 1598.48 164.646 1583.1 139.682C1579.74 134.25 1575.93 129.165 1571.42 124.542C1550.02 102.468 1518.34 94.8407 1487.35 91.258C1475.09 89.8711 1462.6 88.9465 1450.23 88.4843C1431.15 87.7908 1412.07 88.1376 1392.99 88.5998C1365.93 89.2933 1338.75 91.8358 1311.81 89.7555C1307.87 89.4088 1303.94 89.0621 1300.01 88.4843C1280.81 85.9417 1261.73 80.5099 1245.2 71.0331C1217.91 55.431 1203.22 31.8545 1194.32 3.88633" stroke="white" stroke-miterlimit="10"/>
<path opacity="0.49" d="M1936.61 242.425C1901.91 259.414 1866.53 276.056 1829.41 286.804C1805.01 293.854 1779.68 298.245 1754.24 298.245C1741.18 298.245 1727.76 296.974 1714.46 294.2C1676.3 286.342 1639.53 265.539 1619.75 233.295C1603.68 207.06 1599.17 174.469 1582.63 148.581C1579.05 142.918 1574.89 137.717 1570.03 132.979C1546.79 110.327 1512.79 104.664 1480.29 102.122C1467.34 101.197 1454.27 100.619 1441.21 100.388C1421.2 100.041 1401.08 100.388 1381.07 100.966C1352.74 101.775 1324.18 104.549 1295.85 101.775C1291.68 101.428 1287.64 100.85 1283.47 100.272C1263.35 97.152 1243.46 90.6801 1226.7 79.7009C1198.83 61.4406 1187.03 34.3971 1180.32 4.0019" stroke="white" stroke-miterlimit="10"/>
<path opacity="0.49" d="M1937.99 255.369C1903.42 271.433 1868.15 287.151 1831.37 297.205C1807.09 303.793 1782.23 307.838 1757.02 307.722C1744.3 307.607 1731 306.451 1717.7 303.793C1680 296.281 1643.11 276.865 1622.53 245.776C1604.72 218.848 1599.75 184.524 1581.94 157.711C1578.12 151.933 1573.61 146.501 1568.41 141.647C1543.43 118.417 1507.01 114.603 1472.89 113.216C1459.36 112.754 1445.6 112.523 1431.84 112.523C1410.91 112.523 1389.86 112.985 1368.93 113.563C1339.21 114.372 1309.26 117.493 1279.66 114.141C1275.38 113.679 1270.99 113.101 1266.71 112.292C1245.66 108.478 1224.96 101.081 1208.08 88.4842C1179.63 67.4503 1170.61 36.9396 1166.1 4.23305" stroke="white" stroke-miterlimit="10"/>
<path opacity="0.49" d="M1939.5 268.197C1905.04 283.337 1869.77 298.13 1833.34 307.376C1809.29 313.501 1784.65 317.199 1759.79 316.968C1747.3 316.852 1734.12 315.581 1721.05 313.039C1683.82 305.873 1646.7 287.844 1625.42 257.911C1605.88 230.29 1600.44 194.232 1581.48 166.495C1577.31 160.485 1572.57 154.937 1567.02 149.852C1540.31 126.16 1501.45 124.08 1465.72 123.964C1451.5 123.964 1437.16 123.964 1422.82 124.196C1400.85 124.542 1378.88 125.005 1357.02 125.582C1326.03 126.391 1294.69 129.743 1263.58 125.929C1259.07 125.351 1254.56 124.658 1250.17 123.733C1228.08 119.342 1206.8 110.905 1189.57 96.8053C1160.66 72.9977 1154.3 39.0198 1152.11 4.00183" stroke="white" stroke-miterlimit="10"/>
<path opacity="0.49" d="M1941 281.025C1883.99 304.717 1824.44 327.254 1762.68 326.445C1715.85 325.867 1657.91 309.456 1628.43 270.393C1602.41 236.068 1599.52 187.413 1565.63 158.52C1537.19 134.25 1495.9 134.019 1458.55 135.059C1421.09 136.099 1382.69 137.255 1344.99 138.18C1312.62 138.989 1279.89 142.687 1247.51 138.295C1219.64 134.481 1191.89 124.542 1170.96 105.704C1141.35 79.123 1138 41.7936 1138 4.46414" stroke="white" stroke-miterlimit="10"/>
</g>
</g>
<defs>
<radialGradient id="paint0_radial_337_530" cx="0" cy="0" r="1" gradientUnits="userSpaceOnUse" gradientTransform="translate(1920 -349.006) rotate(156.221) scale(2098.12 2436.73)">
<stop offset="0.00143081" stop-color="#F01A63" stop-opacity="0.6"/>
<stop offset="0.421875" stop-color="#AC27FD"/>
<stop offset="1" stop-color="#2E28D4"/>
</radialGradient>
<linearGradient id="paint1_linear_337_530" x1="1465.01" y1="346.542" x2="1652.77" y2="-120.136" gradientUnits="userSpaceOnUse">
<stop stop-color="#E11D88"/>
<stop offset="0.32277" stop-color="#AC27FD"/>
<stop offset="0.889504" stop-color="#2E28D4"/>
</linearGradient>
<linearGradient id="paint2_linear_337_530" x1="-46.5799" y1="393.831" x2="345.071" y2="130.18" gradientUnits="userSpaceOnUse">
<stop offset="0.177083" stop-color="#2E28D4"/>
<stop offset="0.661458" stop-color="#AC27FD"/>
<stop offset="1" stop-color="#E21D84"/>
</linearGradient>
<clipPath id="clip0_337_530">
<rect width="1920" height="350" fill="white"/>
</clipPath>
</defs>
</svg>
