<svg width="769" height="272" viewBox="0 0 769 272" fill="none" xmlns="http://www.w3.org/2000/svg">
<path d="M90.1087 59.84C90.1087 54.2933 91.3088 49.36 93.7088 45.04C96.1088 40.6667 99.4421 37.28 103.709 34.88C108.029 32.4267 112.909 31.2 118.349 31.2C125.015 31.2 130.722 32.96 135.469 36.48C140.215 40 143.389 44.8 144.989 50.88H129.949C128.829 48.5333 127.229 46.7467 125.149 45.52C123.122 44.2933 120.802 43.68 118.189 43.68C113.975 43.68 110.562 45.1467 107.949 48.08C105.335 51.0133 104.029 54.9333 104.029 59.84C104.029 64.7467 105.335 68.6667 107.949 71.6C110.562 74.5333 113.975 76 118.189 76C120.802 76 123.122 75.3867 125.149 74.16C127.229 72.9333 128.829 71.1467 129.949 68.8H144.989C143.389 74.88 140.215 79.68 135.469 83.2C130.722 86.6667 125.015 88.4 118.349 88.4C112.909 88.4 108.029 87.2 103.709 84.8C99.4421 82.3467 96.1088 78.96 93.7088 74.64C91.3088 70.32 90.1087 65.3867 90.1087 59.84ZM179.926 88.56C174.646 88.56 169.793 87.3333 165.366 84.88C160.993 82.4267 157.5 79.0133 154.886 74.64C152.326 70.2133 151.046 65.2533 151.046 59.76C151.046 54.2667 152.326 49.3333 154.886 44.96C157.5 40.5867 160.993 37.1733 165.366 34.72C169.793 32.2667 174.646 31.04 179.926 31.04C185.206 31.04 190.033 32.2667 194.406 34.72C198.833 37.1733 202.3 40.5867 204.806 44.96C207.366 49.3333 208.646 54.2667 208.646 59.76C208.646 65.2533 207.366 70.2133 204.806 74.64C202.246 79.0133 198.78 82.4267 194.406 84.88C190.033 87.3333 185.206 88.56 179.926 88.56ZM179.926 76.08C184.406 76.08 187.98 74.5867 190.646 71.6C193.366 68.6133 194.726 64.6667 194.726 59.76C194.726 54.8 193.366 50.8533 190.646 47.92C187.98 44.9333 184.406 43.44 179.926 43.44C175.393 43.44 171.766 44.9067 169.046 47.84C166.38 50.7733 165.046 54.7467 165.046 59.76C165.046 64.72 166.38 68.6933 169.046 71.68C171.766 74.6133 175.393 76.08 179.926 76.08ZM279.857 31.84V88H266.177V54.32L253.617 88H242.577L229.937 54.24V88H216.257V31.84H232.417L248.177 70.72L263.777 31.84H279.857ZM303.374 31.84V88H289.694V31.84H303.374ZM363.528 88H349.848L326.968 53.36V88H313.288V31.84H326.968L349.848 66.64V31.84H363.528V88ZM410.724 49.6C409.711 47.7333 408.244 46.32 406.324 45.36C404.458 44.3467 402.244 43.84 399.684 43.84C395.258 43.84 391.711 45.3067 389.044 48.24C386.378 51.12 385.044 54.9867 385.044 59.84C385.044 65.0133 386.431 69.0667 389.204 72C392.031 74.88 395.898 76.32 400.804 76.32C404.164 76.32 406.991 75.4667 409.284 73.76C411.631 72.0533 413.338 69.6 414.404 66.4H397.044V56.32H426.804V69.04C425.791 72.4533 424.058 75.6267 421.604 78.56C419.204 81.4933 416.138 83.8667 412.404 85.68C408.671 87.4933 404.458 88.4 399.764 88.4C394.218 88.4 389.258 87.2 384.884 84.8C380.564 82.3467 377.178 78.96 374.724 74.64C372.324 70.32 371.124 65.3867 371.124 59.84C371.124 54.2933 372.324 49.36 374.724 45.04C377.178 40.6667 380.564 37.28 384.884 34.88C389.204 32.4267 394.138 31.2 399.684 31.2C406.404 31.2 412.058 32.8267 416.644 36.08C421.284 39.3333 424.351 43.84 425.844 49.6H410.724ZM471.655 88.56C467.548 88.56 463.868 87.8933 460.615 86.56C457.362 85.2267 454.748 83.2533 452.775 80.64C450.855 78.0267 449.842 74.88 449.735 71.2H464.295C464.508 73.28 465.228 74.88 466.455 76C467.682 77.0667 469.282 77.6 471.255 77.6C473.282 77.6 474.882 77.1467 476.055 76.24C477.228 75.28 477.815 73.9733 477.815 72.32C477.815 70.9333 477.335 69.7867 476.375 68.88C475.468 67.9733 474.322 67.2267 472.935 66.64C471.602 66.0533 469.682 65.3867 467.175 64.64C463.548 63.52 460.588 62.4 458.295 61.28C456.002 60.16 454.028 58.5067 452.375 56.32C450.722 54.1333 449.895 51.28 449.895 47.76C449.895 42.5333 451.788 38.4533 455.575 35.52C459.362 32.5333 464.295 31.04 470.375 31.04C476.562 31.04 481.548 32.5333 485.335 35.52C489.122 38.4533 491.148 42.56 491.415 47.84H476.615C476.508 46.0267 475.842 44.6133 474.615 43.6C473.388 42.5333 471.815 42 469.895 42C468.242 42 466.908 42.4533 465.895 43.36C464.882 44.2133 464.375 45.4667 464.375 47.12C464.375 48.9333 465.228 50.3467 466.935 51.36C468.642 52.3733 471.308 53.4667 474.935 54.64C478.562 55.8667 481.495 57.04 483.735 58.16C486.028 59.28 488.002 60.9067 489.655 63.04C491.308 65.1733 492.135 67.92 492.135 71.28C492.135 74.48 491.308 77.3867 489.655 80C488.055 82.6133 485.708 84.6933 482.615 86.24C479.522 87.7867 475.868 88.56 471.655 88.56ZM527.114 88.56C521.834 88.56 516.98 87.3333 512.554 84.88C508.18 82.4267 504.687 79.0133 502.074 74.64C499.514 70.2133 498.234 65.2533 498.234 59.76C498.234 54.2667 499.514 49.3333 502.074 44.96C504.687 40.5867 508.18 37.1733 512.554 34.72C516.98 32.2667 521.834 31.04 527.114 31.04C532.394 31.04 537.22 32.2667 541.594 34.72C546.02 37.1733 549.487 40.5867 551.994 44.96C554.554 49.3333 555.834 54.2667 555.834 59.76C555.834 65.2533 554.554 70.2133 551.994 74.64C549.434 79.0133 545.967 82.4267 541.594 84.88C537.22 87.3333 532.394 88.56 527.114 88.56ZM527.114 76.08C531.594 76.08 535.167 74.5867 537.834 71.6C540.554 68.6133 541.914 64.6667 541.914 59.76C541.914 54.8 540.554 50.8533 537.834 47.92C535.167 44.9333 531.594 43.44 527.114 43.44C522.58 43.44 518.954 44.9067 516.234 47.84C513.567 50.7733 512.234 54.7467 512.234 59.76C512.234 64.72 513.567 68.6933 516.234 71.68C518.954 74.6133 522.58 76.08 527.114 76.08ZM590.004 88.56C584.724 88.56 579.871 87.3333 575.444 84.88C571.071 82.4267 567.578 79.0133 564.964 74.64C562.404 70.2133 561.124 65.2533 561.124 59.76C561.124 54.2667 562.404 49.3333 564.964 44.96C567.578 40.5867 571.071 37.1733 575.444 34.72C579.871 32.2667 584.724 31.04 590.004 31.04C595.284 31.04 600.111 32.2667 604.484 34.72C608.911 37.1733 612.378 40.5867 614.884 44.96C617.444 49.3333 618.724 54.2667 618.724 59.76C618.724 65.2533 617.444 70.2133 614.884 74.64C612.324 79.0133 608.858 82.4267 604.484 84.88C600.111 87.3333 595.284 88.56 590.004 88.56ZM590.004 76.08C594.484 76.08 598.058 74.5867 600.724 71.6C603.444 68.6133 604.804 64.6667 604.804 59.76C604.804 54.8 603.444 50.8533 600.724 47.92C598.058 44.9333 594.484 43.44 590.004 43.44C585.471 43.44 581.844 44.9067 579.124 47.84C576.458 50.7733 575.124 54.7467 575.124 59.76C575.124 64.72 576.458 68.6933 579.124 71.68C581.844 74.6133 585.471 76.08 590.004 76.08ZM676.575 88H662.895L640.015 53.36V88H626.335V31.84H640.015L662.895 66.64V31.84H676.575V88Z" fill="url(#paint0_linear_443_1359)"/>
<path d="M185.975 156H183.251V145.418H179.761V143.15H189.464V145.418H185.975V156ZM188.753 146.174H191.689L193.543 151.702C193.701 152.183 193.81 152.751 193.868 153.407H193.921C193.986 152.804 194.112 152.235 194.299 151.702L196.118 146.174H198.992L194.835 157.257C194.454 158.282 193.909 159.05 193.2 159.56C192.497 160.069 191.674 160.324 190.731 160.324C190.268 160.324 189.814 160.274 189.368 160.175V158.048C189.691 158.124 190.042 158.162 190.423 158.162C190.898 158.162 191.311 158.016 191.662 157.723C192.02 157.436 192.298 156.999 192.497 156.413L192.656 155.93L188.753 146.174ZM202.368 146.174V149.953H206.112V146.174H208.793V156H206.112V151.948H202.368V156H199.687V146.174H202.368ZM212.574 146.174H215.509L217.364 151.702C217.522 152.183 217.63 152.751 217.689 153.407H217.742C217.806 152.804 217.932 152.235 218.12 151.702L219.939 146.174H222.813L218.656 157.257C218.275 158.282 217.73 159.05 217.021 159.56C216.318 160.069 215.495 160.324 214.551 160.324C214.088 160.324 213.634 160.274 213.189 160.175V158.048C213.511 158.124 213.863 158.162 214.244 158.162C214.718 158.162 215.131 158.016 215.483 157.723C215.84 157.436 216.119 156.999 216.318 156.413L216.476 155.93L212.574 146.174ZM229.484 154.04V148.187H227.472C227.325 149.276 227.123 150.311 226.865 151.289C226.613 152.268 226.262 153.185 225.811 154.04H229.484ZM233.607 159.524H231.198V156H224.589V159.524H222.181V154.04H223.007C223.569 153.167 224.041 152.065 224.422 150.735C224.803 149.405 225.069 147.885 225.222 146.174H232.165V154.04H233.607V159.524ZM240.806 156L240.287 154.664H240.217C239.765 155.232 239.3 155.628 238.819 155.851C238.345 156.067 237.723 156.176 236.956 156.176C236.013 156.176 235.268 155.906 234.723 155.367C234.184 154.828 233.915 154.061 233.915 153.064C233.915 152.021 234.278 151.254 235.005 150.762C235.737 150.264 236.839 149.988 238.309 149.936L240.014 149.883V149.452C240.014 148.456 239.505 147.958 238.485 147.958C237.7 147.958 236.777 148.195 235.717 148.67L234.829 146.859C235.96 146.268 237.214 145.972 238.591 145.972C239.909 145.972 240.92 146.259 241.623 146.833C242.326 147.407 242.678 148.28 242.678 149.452V156H240.806ZM240.014 151.447L238.977 151.482C238.198 151.506 237.618 151.646 237.237 151.904C236.856 152.162 236.666 152.555 236.666 153.082C236.666 153.838 237.099 154.216 237.967 154.216C238.588 154.216 239.083 154.037 239.452 153.68C239.827 153.322 240.014 152.848 240.014 152.256V151.447ZM246.739 150.981L243.575 146.174H246.616L248.523 149.303L250.448 146.174H253.489L250.29 150.981L253.638 156H250.588L248.523 152.634L246.449 156H243.408L246.739 150.981ZM261.198 146.174V148.187H257.093V156H254.412V146.174H261.198ZM267.412 160.324H264.714V156L260.899 146.174H263.853L265.399 150.604C265.552 151.031 265.719 151.664 265.9 152.502L266.015 153.029H266.12C266.331 151.975 266.536 151.166 266.735 150.604L268.3 146.174H271.235L267.412 156V160.324ZM274.514 146.174V150.059C274.514 150.469 274.447 151.471 274.312 153.064L278.847 146.174H282.073V156H279.48V152.08C279.48 151.383 279.539 150.398 279.656 149.127L275.138 156H271.922V146.174H274.514ZM281.282 141.946C281.171 143.042 280.758 143.842 280.043 144.346C279.328 144.844 278.297 145.093 276.949 145.093C275.56 145.093 274.532 144.853 273.864 144.372C273.202 143.892 272.83 143.083 272.748 141.946H275.147C275.188 142.55 275.338 142.975 275.595 143.221C275.859 143.461 276.328 143.581 277.002 143.581C277.593 143.581 278.033 143.449 278.32 143.186C278.613 142.916 278.792 142.503 278.856 141.946H281.282ZM299.652 156H297.148V148.257L297.007 148.802C296.691 150.038 296.406 150.973 296.154 151.605L294.414 156H292.507L290.74 151.57C290.488 150.926 290.219 150.021 289.932 148.854L289.765 148.257V156H287.269V146.174H290.96L292.648 150.366C292.823 150.817 292.985 151.336 293.131 151.922C293.283 152.508 293.386 153.009 293.439 153.425C293.632 152.546 293.781 151.916 293.887 151.535C293.998 151.148 294.118 150.794 294.247 150.472C294.376 150.149 294.959 148.717 295.996 146.174H299.652V156ZM307.994 156L307.475 154.664H307.405C306.954 155.232 306.488 155.628 306.008 155.851C305.533 156.067 304.912 156.176 304.144 156.176C303.201 156.176 302.457 155.906 301.912 155.367C301.373 154.828 301.103 154.061 301.103 153.064C301.103 152.021 301.467 151.254 302.193 150.762C302.926 150.264 304.027 149.988 305.498 149.936L307.203 149.883V149.452C307.203 148.456 306.693 147.958 305.674 147.958C304.889 147.958 303.966 148.195 302.905 148.67L302.017 146.859C303.148 146.268 304.402 145.972 305.779 145.972C307.098 145.972 308.108 146.259 308.811 146.833C309.515 147.407 309.866 148.28 309.866 149.452V156H307.994ZM307.203 151.447L306.166 151.482C305.387 151.506 304.807 151.646 304.426 151.904C304.045 152.162 303.854 152.555 303.854 153.082C303.854 153.838 304.288 154.216 305.155 154.216C305.776 154.216 306.271 154.037 306.641 153.68C307.016 153.322 307.203 152.848 307.203 152.256V151.447ZM314.595 146.174V149.953H318.339V146.174H321.02V156H318.339V151.948H314.595V156H311.915V146.174H314.595ZM329.353 156L328.834 154.664H328.764C328.313 155.232 327.847 155.628 327.367 155.851C326.892 156.067 326.271 156.176 325.503 156.176C324.56 156.176 323.816 155.906 323.271 155.367C322.732 154.828 322.462 154.061 322.462 153.064C322.462 152.021 322.826 151.254 323.552 150.762C324.284 150.264 325.386 149.988 326.857 149.936L328.562 149.883V149.452C328.562 148.456 328.052 147.958 327.033 147.958C326.247 147.958 325.325 148.195 324.264 148.67L323.376 146.859C324.507 146.268 325.761 145.972 327.138 145.972C328.456 145.972 329.467 146.259 330.17 146.833C330.873 147.407 331.225 148.28 331.225 149.452V156H329.353ZM328.562 151.447L327.525 151.482C326.745 151.506 326.165 151.646 325.784 151.904C325.404 152.162 325.213 152.555 325.213 153.082C325.213 153.838 325.647 154.216 326.514 154.216C327.135 154.216 327.63 154.037 327.999 153.68C328.374 153.322 328.562 152.848 328.562 152.256V151.447ZM335.866 146.174V150.059C335.866 150.469 335.799 151.471 335.664 153.064L340.199 146.174H343.425V156H340.832V152.08C340.832 151.383 340.891 150.398 341.008 149.127L336.49 156H333.273V146.174H335.866ZM342.634 141.946C342.522 143.042 342.109 143.842 341.395 144.346C340.68 144.844 339.648 145.093 338.301 145.093C336.912 145.093 335.884 144.853 335.216 144.372C334.554 143.892 334.182 143.083 334.1 141.946H336.499C336.54 142.55 336.689 142.975 336.947 143.221C337.211 143.461 337.68 143.581 338.354 143.581C338.945 143.581 339.385 143.449 339.672 143.186C339.965 142.916 340.144 142.503 340.208 141.946H342.634ZM352.611 156.176C349.552 156.176 348.023 154.497 348.023 151.14C348.023 149.47 348.439 148.195 349.271 147.316C350.103 146.432 351.295 145.989 352.848 145.989C353.985 145.989 355.004 146.212 355.907 146.657L355.116 148.731C354.694 148.562 354.301 148.424 353.938 148.318C353.575 148.207 353.211 148.151 352.848 148.151C351.454 148.151 350.756 149.142 350.756 151.122C350.756 153.044 351.454 154.005 352.848 154.005C353.364 154.005 353.841 153.938 354.281 153.803C354.72 153.662 355.16 153.445 355.599 153.152V155.446C355.165 155.722 354.726 155.912 354.281 156.018C353.841 156.123 353.285 156.176 352.611 156.176ZM363.404 156L362.886 154.664H362.816C362.364 155.232 361.899 155.628 361.418 155.851C360.944 156.067 360.322 156.176 359.555 156.176C358.612 156.176 357.867 155.906 357.322 155.367C356.783 154.828 356.514 154.061 356.514 153.064C356.514 152.021 356.877 151.254 357.604 150.762C358.336 150.264 359.438 149.988 360.908 149.936L362.613 149.883V149.452C362.613 148.456 362.104 147.958 361.084 147.958C360.299 147.958 359.376 148.195 358.316 148.67L357.428 146.859C358.559 146.268 359.813 145.972 361.19 145.972C362.508 145.972 363.519 146.259 364.222 146.833C364.925 147.407 365.277 148.28 365.277 149.452V156H363.404ZM362.613 151.447L361.576 151.482C360.797 151.506 360.217 151.646 359.836 151.904C359.455 152.162 359.265 152.555 359.265 153.082C359.265 153.838 359.698 154.216 360.566 154.216C361.187 154.216 361.682 154.037 362.051 153.68C362.426 153.322 362.613 152.848 362.613 152.256V151.447ZM369.918 146.174V150.059C369.918 150.469 369.851 151.471 369.716 153.064L374.251 146.174H377.477V156H374.884V152.08C374.884 151.383 374.942 150.398 375.06 149.127L370.542 156H367.325V146.174H369.918ZM376.685 141.946C376.574 143.042 376.161 143.842 375.446 144.346C374.731 144.844 373.7 145.093 372.352 145.093C370.964 145.093 369.935 144.853 369.268 144.372C368.605 143.892 368.233 143.083 368.151 141.946H370.551C370.592 142.55 370.741 142.975 370.999 143.221C371.263 143.461 371.731 143.581 372.405 143.581C372.997 143.581 373.436 143.449 373.724 143.186C374.017 142.916 374.195 142.503 374.26 141.946H376.685ZM387.708 146.174V148.187H384.491V156H381.81V148.187H378.585V146.174H387.708ZM398.159 156L397.641 154.664H397.57C397.119 155.232 396.653 155.628 396.173 155.851C395.698 156.067 395.077 156.176 394.31 156.176C393.366 156.176 392.622 155.906 392.077 155.367C391.538 154.828 391.269 154.061 391.269 153.064C391.269 152.021 391.632 151.254 392.358 150.762C393.091 150.264 394.192 149.988 395.663 149.936L397.368 149.883V149.452C397.368 148.456 396.858 147.958 395.839 147.958C395.054 147.958 394.131 148.195 393.07 148.67L392.183 146.859C393.314 146.268 394.567 145.972 395.944 145.972C397.263 145.972 398.273 146.259 398.977 146.833C399.68 147.407 400.031 148.28 400.031 149.452V156H398.159ZM397.368 151.447L396.331 151.482C395.552 151.506 394.972 151.646 394.591 151.904C394.21 152.162 394.02 152.555 394.02 153.082C394.02 153.838 394.453 154.216 395.32 154.216C395.941 154.216 396.437 154.037 396.806 153.68C397.181 153.322 397.368 152.848 397.368 152.256V151.447ZM407.283 150.946V146.174H409.779V150.946L413.277 146.174H416.046L412.425 150.885L416.388 156H413.523L409.779 151.017V156H407.283V151.017L403.539 156H400.674L404.638 150.885L401.016 146.174H403.785L407.283 150.946ZM419.667 146.174V150.059C419.667 150.469 419.6 151.471 419.465 153.064L424 146.174H427.226V156H424.633V152.08C424.633 151.383 424.692 150.398 424.809 149.127L420.292 156H417.075V146.174H419.667ZM438.125 156H435.445V148.187H432.975C432.787 150.384 432.559 152.024 432.289 153.108C432.02 154.187 431.659 154.969 431.208 155.455C430.763 155.936 430.177 156.176 429.45 156.176C428.829 156.176 428.32 156.082 427.921 155.895V153.75C428.208 153.867 428.495 153.926 428.782 153.926C429.116 153.926 429.395 153.686 429.617 153.205C429.846 152.725 430.048 151.925 430.224 150.806C430.406 149.681 430.561 148.137 430.69 146.174H438.125V156ZM449.024 156H446.344V148.187H443.874C443.686 150.384 443.458 152.024 443.188 153.108C442.919 154.187 442.559 154.969 442.107 155.455C441.662 155.936 441.076 156.176 440.35 156.176C439.728 156.176 439.219 156.082 438.82 155.895V153.75C439.107 153.867 439.394 153.926 439.682 153.926C440.016 153.926 440.294 153.686 440.517 153.205C440.745 152.725 440.947 151.925 441.123 150.806C441.305 149.681 441.46 148.137 441.589 146.174H449.024V156ZM457.366 156L456.847 154.664H456.777C456.326 155.232 455.86 155.628 455.38 155.851C454.905 156.067 454.284 156.176 453.516 156.176C452.573 156.176 451.829 155.906 451.284 155.367C450.745 154.828 450.475 154.061 450.475 153.064C450.475 152.021 450.839 151.254 451.565 150.762C452.298 150.264 453.399 149.988 454.87 149.936L456.575 149.883V149.452C456.575 148.456 456.065 147.958 455.046 147.958C454.26 147.958 453.338 148.195 452.277 148.67L451.389 146.859C452.52 146.268 453.774 145.972 455.151 145.972C456.469 145.972 457.48 146.259 458.183 146.833C458.886 147.407 459.238 148.28 459.238 149.452V156H457.366ZM456.575 151.447L455.538 151.482C454.758 151.506 454.178 151.646 453.798 151.904C453.417 152.162 453.226 152.555 453.226 153.082C453.226 153.838 453.66 154.216 454.527 154.216C455.148 154.216 455.643 154.037 456.012 153.68C456.387 153.322 456.575 152.848 456.575 152.256V151.447ZM466.49 150.946V146.174H468.986V150.946L472.484 146.174H475.252L471.631 150.885L475.595 156H472.73L468.986 151.017V156H466.49V151.017L462.745 156H459.88L463.844 150.885L460.223 146.174H462.992L466.49 150.946ZM481.643 156.176C480.413 156.176 479.405 155.974 478.62 155.569V153.478C479.639 153.946 480.597 154.181 481.494 154.181C482.789 154.181 483.492 153.431 483.603 151.931H479.894V150.146H483.603C483.515 148.699 482.886 147.976 481.714 147.976C481.016 147.976 480.255 148.16 479.429 148.529L478.673 146.692C479.112 146.487 479.607 146.32 480.158 146.191C480.715 146.057 481.268 145.989 481.819 145.989C483.354 145.989 484.497 146.405 485.247 147.237C485.997 148.069 486.372 149.317 486.372 150.981C486.372 152.692 485.973 153.987 485.177 154.866C484.386 155.739 483.208 156.176 481.643 156.176ZM489.721 150.981L486.557 146.174H489.598L491.505 149.303L493.43 146.174H496.471L493.272 150.981L496.621 156H493.571L491.505 152.634L489.431 156H486.39L489.721 150.981ZM506.193 156H503.512V148.187H501.042C500.855 150.384 500.626 152.024 500.357 153.108C500.087 154.187 499.727 154.969 499.276 155.455C498.83 155.936 498.244 156.176 497.518 156.176C496.897 156.176 496.387 156.082 495.989 155.895V153.75C496.276 153.867 496.563 153.926 496.85 153.926C497.184 153.926 497.462 153.686 497.685 153.205C497.913 152.725 498.115 151.925 498.291 150.806C498.473 149.681 498.628 148.137 498.757 146.174H506.193V156ZM510.562 156.176C509.331 156.176 508.323 155.974 507.538 155.569V153.478C508.558 153.946 509.516 154.181 510.412 154.181C511.707 154.181 512.41 153.431 512.521 151.931H508.812V150.146H512.521C512.434 148.699 511.804 147.976 510.632 147.976C509.935 147.976 509.173 148.16 508.347 148.529L507.591 146.692C508.03 146.487 508.525 146.32 509.076 146.191C509.633 146.057 510.187 145.989 510.737 145.989C512.272 145.989 513.415 146.405 514.165 147.237C514.915 148.069 515.29 149.317 515.29 150.981C515.29 152.692 514.892 153.987 514.095 154.866C513.304 155.739 512.126 156.176 510.562 156.176ZM518.639 150.981L515.475 146.174H518.516L520.424 149.303L522.348 146.174H525.389L522.19 150.981L525.539 156H522.489L520.424 152.634L518.349 156H515.308L518.639 150.981ZM528.81 150.111C528.81 147.855 529.237 146.145 530.093 144.979C530.954 143.807 532.296 143.065 534.118 142.755C534.757 142.644 535.399 142.553 536.043 142.482C536.693 142.406 537.373 142.321 538.082 142.228L538.39 144.574C536.901 144.744 535.765 144.882 534.98 144.987C534.2 145.093 533.626 145.21 533.257 145.339C532.888 145.462 532.583 145.641 532.343 145.875C532.109 146.109 531.927 146.42 531.798 146.807C531.669 147.188 531.584 147.697 531.543 148.336H531.675C531.985 147.855 532.396 147.486 532.905 147.229C533.415 146.971 533.963 146.842 534.549 146.842C535.762 146.842 536.705 147.214 537.379 147.958C538.053 148.696 538.39 149.757 538.39 151.14C538.39 152.733 537.962 153.973 537.107 154.857C536.257 155.736 535.082 156.176 533.582 156.176C532.082 156.176 530.91 155.64 530.067 154.567C529.229 153.489 528.81 152.004 528.81 150.111ZM533.74 154.005C535.012 154.005 535.648 153.129 535.648 151.377C535.648 149.672 535.073 148.819 533.925 148.819C533.609 148.819 533.292 148.893 532.976 149.039C532.665 149.186 532.378 149.379 532.114 149.619C531.857 149.854 531.666 150.091 531.543 150.331C531.543 151.521 531.734 152.432 532.114 153.064C532.495 153.691 533.037 154.005 533.74 154.005ZM542.02 151.069C542.02 152.042 542.179 152.777 542.495 153.275C542.817 153.773 543.339 154.022 544.059 154.022C544.774 154.022 545.287 153.776 545.598 153.284C545.914 152.786 546.072 152.048 546.072 151.069C546.072 150.097 545.914 149.367 545.598 148.881C545.281 148.395 544.763 148.151 544.042 148.151C543.327 148.151 542.811 148.395 542.495 148.881C542.179 149.361 542.02 150.091 542.02 151.069ZM548.814 151.069C548.814 152.669 548.392 153.92 547.549 154.822C546.705 155.725 545.53 156.176 544.024 156.176C543.081 156.176 542.249 155.971 541.528 155.561C540.807 155.145 540.254 154.55 539.867 153.776C539.48 153.003 539.287 152.101 539.287 151.069C539.287 149.464 539.706 148.216 540.544 147.325C541.382 146.435 542.559 145.989 544.077 145.989C545.02 145.989 545.852 146.194 546.573 146.604C547.294 147.015 547.848 147.604 548.234 148.371C548.621 149.139 548.814 150.038 548.814 151.069ZM559.107 156H556.426V148.187H553.957C553.769 150.384 553.541 152.024 553.271 153.108C553.002 154.187 552.641 154.969 552.19 155.455C551.745 155.936 551.159 156.176 550.432 156.176C549.811 156.176 549.301 156.082 548.903 155.895V153.75C549.19 153.867 549.477 153.926 549.764 153.926C550.098 153.926 550.377 153.686 550.599 153.205C550.828 152.725 551.03 151.925 551.206 150.806C551.387 149.681 551.543 148.137 551.672 146.174H559.107V156ZM563.889 146.174V149.953H567.633V146.174H570.314V156H567.633V151.948H563.889V156H561.208V146.174H563.889ZM574.542 151.069C574.542 152.042 574.7 152.777 575.017 153.275C575.339 153.773 575.86 154.022 576.581 154.022C577.296 154.022 577.809 153.776 578.119 153.284C578.436 152.786 578.594 152.048 578.594 151.069C578.594 150.097 578.436 149.367 578.119 148.881C577.803 148.395 577.284 148.151 576.564 148.151C575.849 148.151 575.333 148.395 575.017 148.881C574.7 149.361 574.542 150.091 574.542 151.069ZM581.336 151.069C581.336 152.669 580.914 153.92 580.07 154.822C579.227 155.725 578.052 156.176 576.546 156.176C575.603 156.176 574.771 155.971 574.05 155.561C573.329 155.145 572.775 154.55 572.389 153.776C572.002 153.003 571.809 152.101 571.809 151.069C571.809 149.464 572.228 148.216 573.065 147.325C573.903 146.435 575.081 145.989 576.599 145.989C577.542 145.989 578.374 146.194 579.095 146.604C579.815 147.015 580.369 147.604 580.756 148.371C581.143 149.139 581.336 150.038 581.336 151.069ZM583.981 156.144C583.441 156.144 582.997 155.988 582.649 155.676C582.313 155.352 582.145 154.956 582.145 154.488C582.145 154.008 582.313 153.606 582.649 153.282C582.997 152.958 583.441 152.796 583.981 152.796C584.509 152.796 584.941 152.958 585.277 153.282C585.625 153.606 585.799 154.008 585.799 154.488C585.799 154.956 585.625 155.352 585.277 155.676C584.941 155.988 584.509 156.144 583.981 156.144ZM143.591 183H140.866V172.418H137.377V170.15H147.08V172.418H143.591V183ZM154.367 183L153.848 181.664H153.778C153.327 182.232 152.861 182.628 152.381 182.851C151.906 183.067 151.285 183.176 150.517 183.176C149.574 183.176 148.83 182.906 148.285 182.367C147.746 181.828 147.476 181.061 147.476 180.064C147.476 179.021 147.839 178.254 148.566 177.762C149.298 177.264 150.4 176.988 151.871 176.936L153.576 176.883V176.452C153.576 175.456 153.066 174.958 152.047 174.958C151.261 174.958 150.339 175.195 149.278 175.67L148.39 173.859C149.521 173.268 150.775 172.972 152.152 172.972C153.47 172.972 154.481 173.259 155.184 173.833C155.887 174.407 156.239 175.28 156.239 176.452V183H154.367ZM153.576 178.447L152.539 178.482C151.759 178.506 151.179 178.646 150.798 178.904C150.418 179.162 150.227 179.555 150.227 180.082C150.227 180.838 150.661 181.216 151.528 181.216C152.149 181.216 152.644 181.037 153.013 180.68C153.388 180.322 153.576 179.848 153.576 179.256V178.447ZM169.512 173.174V175.187H166.295V183H163.614V175.187H160.389V173.174H169.512ZM175.735 187.324H173.037V183L169.222 173.174H172.176L173.722 177.604C173.875 178.031 174.042 178.664 174.223 179.502L174.338 180.029H174.443C174.654 178.975 174.859 178.166 175.058 177.604L176.623 173.174H179.558L175.735 183V187.324ZM185.641 183.176C184.487 183.176 183.582 182.757 182.925 181.919H182.785C182.878 182.739 182.925 183.214 182.925 183.343V187.324H180.245V173.174H182.424L182.802 174.448H182.925C183.552 173.476 184.481 172.989 185.711 172.989C186.872 172.989 187.78 173.438 188.436 174.334C189.092 175.23 189.42 176.476 189.42 178.069C189.42 179.118 189.265 180.029 188.955 180.803C188.65 181.576 188.213 182.165 187.645 182.569C187.077 182.974 186.409 183.176 185.641 183.176ZM184.85 175.134C184.188 175.134 183.705 175.339 183.4 175.749C183.095 176.153 182.937 176.824 182.925 177.762V178.052C182.925 179.106 183.081 179.862 183.391 180.319C183.708 180.776 184.206 181.005 184.885 181.005C186.086 181.005 186.687 180.015 186.687 178.034C186.687 177.067 186.538 176.344 186.239 175.863C185.946 175.377 185.483 175.134 184.85 175.134ZM196.022 177.981L192.858 173.174H195.899L197.807 176.303L199.731 173.174H202.772L199.573 177.981L202.922 183H199.872L197.807 179.634L195.732 183H192.691L196.022 177.981ZM202.29 173.174H205.225L207.08 178.702C207.238 179.183 207.346 179.751 207.405 180.407H207.458C207.522 179.804 207.648 179.235 207.836 178.702L209.655 173.174H212.529L208.372 184.257C207.991 185.282 207.446 186.05 206.737 186.56C206.034 187.069 205.211 187.324 204.267 187.324C203.804 187.324 203.35 187.274 202.905 187.175V185.048C203.227 185.124 203.579 185.162 203.96 185.162C204.434 185.162 204.847 185.016 205.199 184.723C205.556 184.436 205.835 183.999 206.034 183.413L206.192 182.93L202.29 173.174ZM220.009 173.174V175.187H215.905V183H213.224V173.174H220.009ZM227.358 183L226.839 181.664H226.769C226.318 182.232 225.852 182.628 225.371 182.851C224.897 183.067 224.276 183.176 223.508 183.176C222.565 183.176 221.82 182.906 221.276 182.367C220.736 181.828 220.467 181.061 220.467 180.064C220.467 179.021 220.83 178.254 221.557 177.762C222.289 177.264 223.391 176.988 224.861 176.936L226.567 176.883V176.452C226.567 175.456 226.057 174.958 225.037 174.958C224.252 174.958 223.329 175.195 222.269 175.67L221.381 173.859C222.512 173.268 223.766 172.972 225.143 172.972C226.461 172.972 227.472 173.259 228.175 173.833C228.878 174.407 229.23 175.28 229.23 176.452V183H227.358ZM226.567 178.447L225.529 178.482C224.75 178.506 224.17 178.646 223.789 178.904C223.408 179.162 223.218 179.555 223.218 180.082C223.218 180.838 223.651 181.216 224.519 181.216C225.14 181.216 225.635 181.037 226.004 180.68C226.379 180.322 226.567 179.848 226.567 179.256V178.447ZM240.568 181.04H242.001V186.524H239.593V183H231.278V173.174H233.959V180.987H237.879V173.174H240.568V181.04ZM249.191 183L248.672 181.664H248.602C248.151 182.232 247.685 182.628 247.205 182.851C246.73 183.067 246.109 183.176 245.341 183.176C244.398 183.176 243.654 182.906 243.109 182.367C242.57 181.828 242.3 181.061 242.3 180.064C242.3 179.021 242.664 178.254 243.39 177.762C244.123 177.264 245.224 176.988 246.695 176.936L248.4 176.883V176.452C248.4 175.456 247.89 174.958 246.871 174.958C246.086 174.958 245.163 175.195 244.102 175.67L243.214 173.859C244.345 173.268 245.599 172.972 246.976 172.972C248.294 172.972 249.305 173.259 250.008 173.833C250.711 174.407 251.063 175.28 251.063 176.452V183H249.191ZM248.4 178.447L247.363 178.482C246.584 178.506 246.003 178.646 245.623 178.904C245.242 179.162 245.051 179.555 245.051 180.082C245.051 180.838 245.485 181.216 246.352 181.216C246.973 181.216 247.468 181.037 247.837 180.68C248.212 180.322 248.4 179.848 248.4 179.256V178.447ZM259.352 183L258.833 181.664H258.763C258.312 182.232 257.846 182.628 257.366 182.851C256.891 183.067 256.27 183.176 255.502 183.176C254.559 183.176 253.815 182.906 253.27 182.367C252.731 181.828 252.461 181.061 252.461 180.064C252.461 179.021 252.824 178.254 253.551 177.762C254.283 177.264 255.385 176.988 256.856 176.936L258.561 176.883V176.452C258.561 175.456 258.051 174.958 257.032 174.958C256.246 174.958 255.324 175.195 254.263 175.67L253.375 173.859C254.506 173.268 255.76 172.972 257.137 172.972C258.455 172.972 259.466 173.259 260.169 173.833C260.872 174.407 261.224 175.28 261.224 176.452V183H259.352ZM258.561 178.447L257.524 178.482C256.744 178.506 256.164 178.646 255.783 178.904C255.403 179.162 255.212 179.555 255.212 180.082C255.212 180.838 255.646 181.216 256.513 181.216C257.134 181.216 257.629 181.037 257.998 180.68C258.373 180.322 258.561 179.848 258.561 179.256V178.447ZM265.953 173.174V176.953H269.697V173.174H272.378V183H269.697V178.948H265.953V183H263.272V173.174H265.953ZM280.623 181.04V175.187H278.61C278.464 176.276 278.261 177.311 278.004 178.289C277.752 179.268 277.4 180.185 276.949 181.04H280.623ZM284.745 186.524H282.337V183H275.727V186.524H273.319V181.04H274.145C274.708 180.167 275.179 179.065 275.56 177.735C275.941 176.405 276.208 174.885 276.36 173.174H283.303V181.04H284.745V186.524ZM290.811 177.981L287.647 173.174H290.688L292.595 176.303L294.52 173.174H297.561L294.361 177.981L297.71 183H294.66L292.595 179.634L290.521 183H287.48L290.811 177.981ZM303.591 187.324H300.892V183L297.078 173.174H300.031L301.578 177.604C301.73 178.031 301.897 178.664 302.079 179.502L302.193 180.029H302.299C302.51 178.975 302.715 178.166 302.914 177.604L304.478 173.174H307.414L303.591 183V187.324ZM316.81 183H314.129V175.187H311.66C311.472 177.384 311.244 179.024 310.974 180.108C310.705 181.187 310.344 181.969 309.893 182.455C309.448 182.936 308.862 183.176 308.135 183.176C307.514 183.176 307.004 183.082 306.606 182.895V180.75C306.893 180.867 307.18 180.926 307.467 180.926C307.801 180.926 308.08 180.686 308.302 180.205C308.531 179.725 308.733 178.925 308.909 177.806C309.09 176.681 309.246 175.137 309.375 173.174H316.81V183ZM321.179 183.176C319.949 183.176 318.941 182.974 318.156 182.569V180.478C319.175 180.946 320.133 181.181 321.03 181.181C322.325 181.181 323.028 180.431 323.139 178.931H319.43V177.146H323.139C323.051 175.699 322.421 174.976 321.249 174.976C320.552 174.976 319.79 175.16 318.964 175.529L318.208 173.692C318.648 173.487 319.143 173.32 319.694 173.191C320.25 173.057 320.804 172.989 321.355 172.989C322.89 172.989 324.033 173.405 324.783 174.237C325.533 175.069 325.908 176.317 325.908 177.981C325.908 179.692 325.509 180.987 324.712 181.866C323.921 182.739 322.743 183.176 321.179 183.176ZM329.688 183.176C328.457 183.176 327.449 182.974 326.664 182.569V180.478C327.684 180.946 328.642 181.181 329.538 181.181C330.833 181.181 331.536 180.431 331.648 178.931H327.939V177.146H331.648C331.56 175.699 330.93 174.976 329.758 174.976C329.061 174.976 328.299 175.16 327.473 175.529L326.717 173.692C327.156 173.487 327.651 173.32 328.202 173.191C328.759 173.057 329.313 172.989 329.863 172.989C331.398 172.989 332.541 173.405 333.291 174.237C334.041 175.069 334.416 176.317 334.416 177.981C334.416 179.692 334.018 180.987 333.221 181.866C332.43 182.739 331.252 183.176 329.688 183.176ZM342.714 173.174V175.187H338.609V183H335.928V173.174H342.714ZM346.089 183.176C344.859 183.176 343.851 182.974 343.066 182.569V180.478C344.085 180.946 345.043 181.181 345.94 181.181C347.235 181.181 347.938 180.431 348.049 178.931H344.34V177.146H348.049C347.961 175.699 347.332 174.976 346.16 174.976C345.462 174.976 344.701 175.16 343.875 175.529L343.119 173.692C343.558 173.487 344.053 173.32 344.604 173.191C345.161 173.057 345.714 172.989 346.265 172.989C347.8 172.989 348.943 173.405 349.693 174.237C350.443 175.069 350.818 176.317 350.818 177.981C350.818 179.692 350.419 180.987 349.623 181.866C348.832 182.739 347.654 183.176 346.089 183.176ZM354.598 183.176C353.367 183.176 352.36 182.974 351.574 182.569V180.478C352.594 180.946 353.552 181.181 354.448 181.181C355.743 181.181 356.446 180.431 356.558 178.931H352.849V177.146H356.558C356.47 175.699 355.84 174.976 354.668 174.976C353.971 174.976 353.209 175.16 352.383 175.529L351.627 173.692C352.067 173.487 352.562 173.32 353.112 173.191C353.669 173.057 354.223 172.989 354.774 172.989C356.309 172.989 357.451 173.405 358.201 174.237C358.951 175.069 359.326 176.317 359.326 177.981C359.326 179.692 358.928 180.987 358.131 181.866C357.34 182.739 356.162 183.176 354.598 183.176ZM366.991 181.04V175.187H364.978C364.832 176.276 364.63 177.311 364.372 178.289C364.12 179.268 363.768 180.185 363.317 181.04H366.991ZM371.113 186.524H368.705V183H362.096V186.524H359.687V181.04H360.514C361.076 180.167 361.548 179.065 361.929 177.735C362.31 176.405 362.576 174.885 362.728 173.174H369.672V181.04H371.113V186.524ZM381.407 183L380.888 181.664H380.818C380.367 182.232 379.901 182.628 379.42 182.851C378.946 183.067 378.325 183.176 377.557 183.176C376.614 183.176 375.87 182.906 375.325 182.367C374.786 181.828 374.516 181.061 374.516 180.064C374.516 179.021 374.879 178.254 375.606 177.762C376.338 177.264 377.44 176.988 378.911 176.936L380.616 176.883V176.452C380.616 175.456 380.106 174.958 379.086 174.958C378.301 174.958 377.378 175.195 376.318 175.67L375.43 173.859C376.561 173.268 377.815 172.972 379.192 172.972C380.51 172.972 381.521 173.259 382.224 173.833C382.927 174.407 383.279 175.28 383.279 176.452V183H381.407ZM380.616 178.447L379.578 178.482C378.799 178.506 378.219 178.646 377.838 178.904C377.457 179.162 377.267 179.555 377.267 180.082C377.267 180.838 377.701 181.216 378.568 181.216C379.189 181.216 379.684 181.037 380.053 180.68C380.428 180.322 380.616 179.848 380.616 179.256V178.447ZM387.34 177.981L384.176 173.174H387.217L389.124 176.303L391.049 173.174H394.09L390.891 177.981L394.239 183H391.19L389.124 179.634L387.05 183H384.009L387.34 177.981ZM397.606 173.174V177.059C397.606 177.469 397.539 178.471 397.404 180.064L401.939 173.174H405.165V183H402.572V179.08C402.572 178.383 402.631 177.398 402.748 176.127L398.23 183H395.013V173.174H397.606ZM409.947 173.174V176.953H413.691V173.174H416.372V183H413.691V178.948H409.947V183H407.266V173.174H409.947ZM423.694 178.069C423.694 179.042 423.852 179.777 424.169 180.275C424.491 180.773 425.013 181.022 425.733 181.022C426.448 181.022 426.961 180.776 427.271 180.284C427.588 179.786 427.746 179.048 427.746 178.069C427.746 177.097 427.588 176.367 427.271 175.881C426.955 175.395 426.436 175.151 425.716 175.151C425.001 175.151 424.485 175.395 424.169 175.881C423.852 176.361 423.694 177.091 423.694 178.069ZM430.488 178.069C430.488 179.669 430.066 180.92 429.223 181.822C428.379 182.725 427.204 183.176 425.698 183.176C424.755 183.176 423.923 182.971 423.202 182.561C422.481 182.145 421.928 181.55 421.541 180.776C421.154 180.003 420.961 179.101 420.961 178.069C420.961 176.464 421.38 175.216 422.218 174.325C423.056 173.435 424.233 172.989 425.751 172.989C426.694 172.989 427.526 173.194 428.247 173.604C428.968 174.015 429.521 174.604 429.908 175.371C430.295 176.139 430.488 177.038 430.488 178.069ZM437.38 183.176C436.225 183.176 435.32 182.757 434.664 181.919H434.523C434.617 182.739 434.664 183.214 434.664 183.343V187.324H431.983V173.174H434.163L434.541 174.448H434.664C435.291 173.476 436.219 172.989 437.45 172.989C438.61 172.989 439.518 173.438 440.174 174.334C440.831 175.23 441.159 176.476 441.159 178.069C441.159 179.118 441.004 180.029 440.693 180.803C440.388 181.576 439.952 182.165 439.383 182.569C438.815 182.974 438.147 183.176 437.38 183.176ZM436.589 175.134C435.926 175.134 435.443 175.339 435.138 175.749C434.834 176.153 434.675 176.824 434.664 177.762V178.052C434.664 179.106 434.819 179.862 435.13 180.319C435.446 180.776 435.944 181.005 436.624 181.005C437.825 181.005 438.425 180.015 438.425 178.034C438.425 177.067 438.276 176.344 437.977 175.863C437.684 175.377 437.221 175.134 436.589 175.134ZM444.789 178.069C444.789 179.042 444.948 179.777 445.264 180.275C445.586 180.773 446.108 181.022 446.828 181.022C447.543 181.022 448.056 180.776 448.367 180.284C448.683 179.786 448.841 179.048 448.841 178.069C448.841 177.097 448.683 176.367 448.367 175.881C448.05 175.395 447.532 175.151 446.811 175.151C446.096 175.151 445.58 175.395 445.264 175.881C444.948 176.361 444.789 177.091 444.789 178.069ZM451.583 178.069C451.583 179.669 451.161 180.92 450.318 181.822C449.474 182.725 448.299 183.176 446.793 183.176C445.85 183.176 445.018 182.971 444.297 182.561C443.577 182.145 443.023 181.55 442.636 180.776C442.249 180.003 442.056 179.101 442.056 178.069C442.056 176.464 442.475 175.216 443.313 174.325C444.151 173.435 445.328 172.989 446.846 172.989C447.789 172.989 448.621 173.194 449.342 173.604C450.063 174.015 450.617 174.604 451.003 175.371C451.39 176.139 451.583 177.038 451.583 178.069ZM461.876 183H459.195V175.187H456.726C456.538 177.384 456.31 179.024 456.04 180.108C455.771 181.187 455.41 181.969 454.959 182.455C454.514 182.936 453.928 183.176 453.201 183.176C452.58 183.176 452.07 183.082 451.672 182.895V180.75C451.959 180.867 452.246 180.926 452.533 180.926C452.867 180.926 453.146 180.686 453.368 180.205C453.597 179.725 453.799 178.925 453.975 177.806C454.156 176.681 454.312 175.137 454.441 173.174H461.876V183ZM470.13 181.04V175.187H468.117C467.971 176.276 467.768 177.311 467.511 178.289C467.259 179.268 466.907 180.185 466.456 181.04H470.13ZM474.252 186.524H471.844V183H465.234V186.524H462.826V181.04H463.652C464.215 180.167 464.686 179.065 465.067 177.735C465.448 176.405 465.715 174.885 465.867 173.174H472.81V181.04H474.252V186.524ZM477.346 178.069C477.346 179.042 477.504 179.777 477.821 180.275C478.143 180.773 478.665 181.022 479.385 181.022C480.1 181.022 480.613 180.776 480.923 180.284C481.24 179.786 481.398 179.048 481.398 178.069C481.398 177.097 481.24 176.367 480.923 175.881C480.607 175.395 480.088 175.151 479.368 175.151C478.653 175.151 478.137 175.395 477.821 175.881C477.504 176.361 477.346 177.091 477.346 178.069ZM484.14 178.069C484.14 179.669 483.718 180.92 482.875 181.822C482.031 182.725 480.856 183.176 479.35 183.176C478.407 183.176 477.575 182.971 476.854 182.561C476.133 182.145 475.58 181.55 475.193 180.776C474.806 180.003 474.613 179.101 474.613 178.069C474.613 176.464 475.032 175.216 475.87 174.325C476.708 173.435 477.885 172.989 479.403 172.989C480.346 172.989 481.178 173.194 481.899 173.604C482.62 174.015 483.173 174.604 483.56 175.371C483.947 176.139 484.14 177.038 484.14 178.069ZM488.316 173.174V176.953H492.06V173.174H494.74V183H492.06V178.948H488.316V183H485.635V173.174H488.316ZM498.969 178.069C498.969 179.042 499.127 179.777 499.443 180.275C499.766 180.773 500.287 181.022 501.008 181.022C501.723 181.022 502.235 180.776 502.546 180.284C502.862 179.786 503.021 179.048 503.021 178.069C503.021 177.097 502.862 176.367 502.546 175.881C502.229 175.395 501.711 175.151 500.99 175.151C500.275 175.151 499.76 175.395 499.443 175.881C499.127 176.361 498.969 177.091 498.969 178.069ZM505.763 178.069C505.763 179.669 505.341 180.92 504.497 181.822C503.653 182.725 502.479 183.176 500.973 183.176C500.029 183.176 499.197 182.971 498.477 182.561C497.756 182.145 497.202 181.55 496.815 180.776C496.429 180.003 496.235 179.101 496.235 178.069C496.235 176.464 496.654 175.216 497.492 174.325C498.33 173.435 499.508 172.989 501.025 172.989C501.969 172.989 502.801 173.194 503.521 173.604C504.242 174.015 504.796 174.604 505.183 175.371C505.569 176.139 505.763 177.038 505.763 178.069ZM508.946 173.174H511.881L513.736 178.702C513.894 179.183 514.002 179.751 514.061 180.407H514.114C514.178 179.804 514.304 179.235 514.492 178.702L516.311 173.174H519.185L515.028 184.257C514.647 185.282 514.102 186.05 513.393 186.56C512.69 187.069 511.867 187.324 510.923 187.324C510.46 187.324 510.006 187.274 509.561 187.175V185.048C509.883 185.124 510.235 185.162 510.616 185.162C511.09 185.162 511.503 185.016 511.855 184.723C512.212 184.436 512.491 183.999 512.69 183.413L512.848 182.93L508.946 173.174ZM518.474 173.174H521.409L523.264 178.702C523.422 179.183 523.53 179.751 523.589 180.407H523.642C523.706 179.804 523.832 179.235 524.02 178.702L525.839 173.174H528.713L524.556 184.257C524.175 185.282 523.63 186.05 522.921 186.56C522.218 187.069 521.395 187.324 520.451 187.324C519.988 187.324 519.534 187.274 519.089 187.175V185.048C519.411 185.124 519.763 185.162 520.144 185.162C520.618 185.162 521.031 185.016 521.383 184.723C521.74 184.436 522.019 183.999 522.218 183.413L522.376 182.93L518.474 173.174ZM533.168 169.914L532.808 178.536H530.198L529.838 169.914H533.168ZM531.548 183.144C531.008 183.144 530.564 182.988 530.216 182.676C529.88 182.352 529.712 181.956 529.712 181.488C529.712 181.008 529.88 180.606 530.216 180.282C530.564 179.958 531.008 179.796 531.548 179.796C532.076 179.796 532.508 179.958 532.844 180.282C533.192 180.606 533.366 181.008 533.366 181.488C533.366 181.956 533.192 182.352 532.844 182.676C532.508 182.988 532.076 183.144 531.548 183.144ZM541.767 175.081H542.839C544.515 175.081 545.81 175.421 546.724 176.101C547.638 176.78 548.095 177.741 548.095 178.983C548.095 181.661 546.326 183 542.786 183H539.042V170.15H547.163V172.4H541.767V175.081ZM541.767 180.768H542.681C543.601 180.768 544.275 180.621 544.702 180.328C545.13 180.029 545.344 179.581 545.344 178.983C545.344 178.392 545.127 177.967 544.694 177.709C544.26 177.445 543.516 177.313 542.461 177.313H541.767V180.768ZM555.848 183L555.329 181.664H555.259C554.808 182.232 554.342 182.628 553.861 182.851C553.387 183.067 552.766 183.176 551.998 183.176C551.055 183.176 550.311 182.906 549.766 182.367C549.227 181.828 548.957 181.061 548.957 180.064C548.957 179.021 549.32 178.254 550.047 177.762C550.779 177.264 551.881 176.988 553.352 176.936L555.057 176.883V176.452C555.057 175.456 554.547 174.958 553.527 174.958C552.742 174.958 551.819 175.195 550.759 175.67L549.871 173.859C551.002 173.268 552.256 172.972 553.633 172.972C554.951 172.972 555.962 173.259 556.665 173.833C557.368 174.407 557.72 175.28 557.72 176.452V183H555.848ZM555.057 178.447L554.02 178.482C553.24 178.506 552.66 178.646 552.279 178.904C551.898 179.162 551.708 179.555 551.708 180.082C551.708 180.838 552.142 181.216 553.009 181.216C553.63 181.216 554.125 181.037 554.494 180.68C554.869 180.322 555.057 179.848 555.057 179.256V178.447ZM561.262 183H558.362L561.008 179.115C560.375 178.852 559.894 178.471 559.566 177.973C559.244 177.475 559.083 176.889 559.083 176.215C559.083 175.266 559.437 174.521 560.146 173.982C560.861 173.443 561.834 173.174 563.064 173.174H567.635V183H564.954V179.344H563.477L561.262 183ZM561.711 176.232C561.711 176.643 561.872 176.965 562.194 177.199C562.516 177.428 562.938 177.542 563.46 177.542H564.954V175.063H563.117C562.677 175.063 562.332 175.172 562.08 175.389C561.834 175.6 561.711 175.881 561.711 176.232ZM575.115 183.176C573.96 183.176 573.055 182.757 572.399 181.919H572.258C572.352 182.739 572.399 183.214 572.399 183.343V187.324H569.718V173.174H571.898L572.276 174.448H572.399C573.026 173.476 573.955 172.989 575.185 172.989C576.345 172.989 577.253 173.438 577.91 174.334C578.566 175.23 578.894 176.476 578.894 178.069C578.894 179.118 578.739 180.029 578.428 180.803C578.124 181.576 577.687 182.165 577.119 182.569C576.55 182.974 575.882 183.176 575.115 183.176ZM574.324 175.134C573.662 175.134 573.178 175.339 572.874 175.749C572.569 176.153 572.411 176.824 572.399 177.762V178.052C572.399 179.106 572.554 179.862 572.865 180.319C573.181 180.776 573.679 181.005 574.359 181.005C575.56 181.005 576.161 180.015 576.161 178.034C576.161 177.067 576.011 176.344 575.712 175.863C575.419 175.377 574.957 175.134 574.324 175.134ZM589.187 183H586.506V175.187H584.036C583.849 177.384 583.62 179.024 583.351 180.108C583.081 181.187 582.721 181.969 582.27 182.455C581.824 182.936 581.238 183.176 580.512 183.176C579.891 183.176 579.381 183.082 578.983 182.895V180.75C579.27 180.867 579.557 180.926 579.844 180.926C580.178 180.926 580.456 180.686 580.679 180.205C580.907 179.725 581.11 178.925 581.285 177.806C581.467 176.681 581.622 175.137 581.751 173.174H589.187V183ZM597.528 183L597.01 181.664H596.939C596.488 182.232 596.022 182.628 595.542 182.851C595.067 183.067 594.446 183.176 593.679 183.176C592.735 183.176 591.991 182.906 591.446 182.367C590.907 181.828 590.638 181.061 590.638 180.064C590.638 179.021 591.001 178.254 591.727 177.762C592.46 177.264 593.561 176.988 595.032 176.936L596.737 176.883V176.452C596.737 175.456 596.227 174.958 595.208 174.958C594.423 174.958 593.5 175.195 592.439 175.67L591.552 173.859C592.683 173.268 593.936 172.972 595.313 172.972C596.632 172.972 597.643 173.259 598.346 173.833C599.049 174.407 599.4 175.28 599.4 176.452V183H597.528ZM596.737 178.447L595.7 178.482C594.921 178.506 594.341 178.646 593.96 178.904C593.579 179.162 593.389 179.555 593.389 180.082C593.389 180.838 593.822 181.216 594.689 181.216C595.31 181.216 595.806 181.037 596.175 180.68C596.55 180.322 596.737 179.848 596.737 179.256V178.447ZM610.247 183H607.566V175.187H605.096C604.909 177.384 604.68 179.024 604.411 180.108C604.141 181.187 603.781 181.969 603.33 182.455C602.884 182.936 602.298 183.176 601.572 183.176C600.951 183.176 600.441 183.082 600.043 182.895V180.75C600.33 180.867 600.617 180.926 600.904 180.926C601.238 180.926 601.516 180.686 601.739 180.205C601.967 179.725 602.17 178.925 602.345 177.806C602.527 176.681 602.682 175.137 602.811 173.174H610.247V183ZM618.588 183L618.07 181.664H617.999C617.548 182.232 617.082 182.628 616.602 182.851C616.127 183.067 615.506 183.176 614.739 183.176C613.795 183.176 613.051 182.906 612.506 182.367C611.967 181.828 611.698 181.061 611.698 180.064C611.698 179.021 612.061 178.254 612.787 177.762C613.52 177.264 614.621 176.988 616.092 176.936L617.797 176.883V176.452C617.797 175.456 617.287 174.958 616.268 174.958C615.483 174.958 614.56 175.195 613.499 175.67L612.612 173.859C613.743 173.268 614.996 172.972 616.373 172.972C617.692 172.972 618.703 173.259 619.406 173.833C620.109 174.407 620.46 175.28 620.46 176.452V183H618.588ZM617.797 178.447L616.76 178.482C615.981 178.506 615.401 178.646 615.02 178.904C614.639 179.162 614.449 179.555 614.449 180.082C614.449 180.838 614.882 181.216 615.749 181.216C616.37 181.216 616.866 181.037 617.235 180.68C617.61 180.322 617.797 179.848 617.797 179.256V178.447ZM628.749 183L628.231 181.664H628.16C627.709 182.232 627.243 182.628 626.763 182.851C626.288 183.067 625.667 183.176 624.899 183.176C623.956 183.176 623.212 182.906 622.667 182.367C622.128 181.828 621.858 181.061 621.858 180.064C621.858 179.021 622.222 178.254 622.948 177.762C623.681 177.264 624.782 176.988 626.253 176.936L627.958 176.883V176.452C627.958 175.456 627.448 174.958 626.429 174.958C625.644 174.958 624.721 175.195 623.66 175.67L622.773 173.859C623.903 173.268 625.157 172.972 626.534 172.972C627.853 172.972 628.863 173.259 629.566 173.833C630.27 174.407 630.621 175.28 630.621 176.452V183H628.749ZM627.958 178.447L626.921 178.482C626.142 178.506 625.562 178.646 625.181 178.904C624.8 179.162 624.609 179.555 624.609 180.082C624.609 180.838 625.043 181.216 625.91 181.216C626.531 181.216 627.026 181.037 627.396 180.68C627.771 180.322 627.958 179.848 627.958 179.256V178.447Z" fill="#2F3747"/>
<path d="M378.581 259.524L375.389 267H373.685L376.901 259.716H372.797V258.276H378.581V259.524ZM385.467 259.704H381.579V261.756C381.747 261.548 381.987 261.38 382.299 261.252C382.611 261.116 382.943 261.048 383.295 261.048C383.935 261.048 384.459 261.188 384.867 261.468C385.275 261.748 385.571 262.108 385.755 262.548C385.939 262.98 386.031 263.444 386.031 263.94C386.031 264.86 385.767 265.6 385.239 266.16C384.719 266.72 383.975 267 383.007 267C382.095 267 381.367 266.772 380.823 266.316C380.279 265.86 379.971 265.264 379.899 264.528H381.531C381.603 264.848 381.763 265.104 382.011 265.296C382.267 265.488 382.591 265.584 382.983 265.584C383.455 265.584 383.811 265.436 384.051 265.14C384.291 264.844 384.411 264.452 384.411 263.964C384.411 263.468 384.287 263.092 384.039 262.836C383.799 262.572 383.443 262.44 382.971 262.44C382.635 262.44 382.355 262.524 382.131 262.692C381.907 262.86 381.747 263.084 381.651 263.364H380.043V258.228H385.467V259.704ZM387.118 260.4C387.118 259.792 387.294 259.316 387.646 258.972C388.006 258.628 388.466 258.456 389.026 258.456C389.586 258.456 390.042 258.628 390.394 258.972C390.754 259.316 390.934 259.792 390.934 260.4C390.934 261.016 390.754 261.496 390.394 261.84C390.042 262.184 389.586 262.356 389.026 262.356C388.466 262.356 388.006 262.184 387.646 261.84C387.294 261.496 387.118 261.016 387.118 260.4ZM394.822 258.6L390.106 267H388.474L393.178 258.6H394.822ZM389.014 259.464C388.574 259.464 388.354 259.776 388.354 260.4C388.354 261.032 388.574 261.348 389.014 261.348C389.23 261.348 389.398 261.272 389.518 261.12C389.638 260.96 389.698 260.72 389.698 260.4C389.698 259.776 389.47 259.464 389.014 259.464ZM392.386 265.188C392.386 264.572 392.562 264.096 392.914 263.76C393.274 263.416 393.734 263.244 394.294 263.244C394.854 263.244 395.306 263.416 395.65 263.76C396.002 264.096 396.178 264.572 396.178 265.188C396.178 265.804 396.002 266.284 395.65 266.628C395.306 266.972 394.854 267.144 394.294 267.144C393.726 267.144 393.266 266.972 392.914 266.628C392.562 266.284 392.386 265.804 392.386 265.188ZM394.282 264.252C393.826 264.252 393.598 264.564 393.598 265.188C393.598 265.82 393.826 266.136 394.282 266.136C394.73 266.136 394.954 265.82 394.954 265.188C394.954 264.564 394.73 264.252 394.282 264.252Z" fill="#2F3747"/>
<rect opacity="0.4" x="199" y="230" width="370" height="8" rx="4" fill="#9CA6C0"/>
<rect x="199" y="230" width="246.68" height="8" rx="4" fill="url(#paint1_linear_443_1359)"/>
<defs>
<linearGradient id="paint0_linear_443_1359" x1="87" y1="120" x2="133.512" y2="-110.62" gradientUnits="userSpaceOnUse">
<stop stop-color="#011F70"/>
<stop offset="1" stop-color="#AC27FD"/>
</linearGradient>
<linearGradient id="paint1_linear_443_1359" x1="199" y1="238" x2="199.518" y2="222.017" gradientUnits="userSpaceOnUse">
<stop stop-color="#2E28D4"/>
<stop offset="1" stop-color="#AC27FD"/>
</linearGradient>
</defs>
</svg>
