<svg width="1920" height="600" viewBox="0 0 1920 600" fill="none" xmlns="http://www.w3.org/2000/svg">
<g clip-path="url(#clip0_323_331)">
<path d="M-0.00012207 -114H1920V732H-0.00012207V-114Z" fill="url(#paint0_radial_323_331)"/>
<path d="M498.621 134.107C542.838 134.106 575.23 115.205 600.829 85.42C621.761 61.2223 620.977 19.9817 612.5 -11L-0.000128417 -11C246.445 1.13831 307.579 34.824 362.981 77.7833C408.831 113.336 439.398 134.107 498.621 134.107Z" fill="url(#paint1_linear_323_331)"/>
<path d="M1645.19 411.335C1555.18 339.976 1538.97 262.941 1488.67 168.945C1435.73 69.9993 1362.58 15.5838 1248.24 -5.53742C1158.61 -22.094 942.744 -44.2067 889 -114L1929 -114C1929 -114 1926.17 357.576 1926.17 466.981C1855.46 482.071 1753.44 497.152 1645.19 411.335Z" fill="url(#paint2_linear_323_331)"/>
<path d="M-29.208 37.5154C40.7323 44.4458 101.621 126.142 80.4189 195.813C67.1094 239.55 35.1533 272.646 38.3752 312.826C43.1072 371.838 73.1512 406.575 132.917 425.722C168.453 437.106 239.939 439.516 299.5 445.279C402.022 455.199 457.499 481.177 501.994 558.192C558.667 656.286 469.134 738.991 494.463 816.103L-161 682.283C-159.976 681.117 -159.651 675.683 -158.815 674.478L-36.1137 74.1829" fill="url(#paint3_linear_323_331)"/>
<g opacity="0.49">
<path opacity="0.49" d="M-19.8125 426.075C35.662 393.719 91.5003 361.362 152.068 339.913C212.635 318.463 278.84 308.829 341.408 323.008C403.976 337.368 462.361 378.086 487.825 437.163C503.467 473.336 506.377 514.418 524.747 549.319C556.213 608.396 626.238 637.117 692.808 643.661C759.377 650.204 826.674 639.661 893.607 642.933C960.54 646.205 1031.84 667.11 1071.67 720.733" stroke="white" stroke-miterlimit="10"/>
<path opacity="0.49" d="M-22.1766 405.897C33.116 374.996 88.9543 344.094 148.976 323.916C188.263 310.647 229.732 302.103 271.202 301.74C292.846 301.558 314.672 303.558 336.134 308.284C398.156 322.099 455.995 360.999 483.096 417.713C500.921 455.159 505.104 498.785 525.475 535.14C530.022 543.138 535.115 550.591 540.935 557.317C569.127 590.218 611.324 608.032 654.976 617.485C672.255 621.12 689.716 623.665 707.177 624.937C734.096 626.937 761.196 626.755 788.115 626.028C826.311 624.937 864.87 621.847 903.065 623.483C908.704 623.665 914.16 624.029 919.799 624.574C947.081 626.755 974.546 632.208 999.827 642.024C1040.75 658.021 1072.76 684.015 1093.86 720.915" stroke="white" stroke-miterlimit="10"/>
<path opacity="0.49" d="M-24.3596 385.539C30.7511 356.091 86.4075 326.643 145.883 307.557C184.988 295.014 225.912 287.016 266.836 286.834C288.116 286.653 309.761 288.652 331.041 293.378C392.336 306.648 450.175 343.548 478.73 398.263C499.101 436.981 504.194 483.152 526.384 520.962C531.295 529.142 536.933 536.958 543.299 544.047C574.219 577.858 620.236 592.763 666.434 600.216C684.623 603.124 703.175 605.124 721.727 606.033C750.101 607.487 778.657 607.305 807.212 606.396C847.59 605.306 888.151 601.67 928.529 604.215C934.349 604.579 940.351 605.124 946.171 605.669C974.909 608.759 1003.65 615.667 1029.29 628.028C1071.31 648.205 1098.77 679.834 1116.23 720.37" stroke="white" stroke-miterlimit="10"/>
<path opacity="0.49" d="M-26.7236 365.362C28.2052 337.368 83.8616 309.375 142.61 291.379C181.351 279.563 221.729 272.11 262.108 272.11C283.024 272.11 304.305 274.11 325.403 278.473C385.97 291.197 443.809 326.098 473.82 378.813C496.556 418.804 502.74 467.52 526.93 506.783C532.205 515.327 538.207 523.325 545.3 530.596C578.949 565.315 628.785 577.312 677.53 582.947C696.809 585.129 716.453 586.583 735.914 587.31C765.925 588.401 795.936 587.855 825.947 587.128C868.508 586.038 911.25 582.038 953.629 585.31C959.813 585.856 965.997 586.401 972.181 587.31C1002.37 591.309 1032.38 599.852 1058.39 614.758C1101.32 639.298 1124.42 676.38 1138.42 720.37" stroke="white" stroke-miterlimit="10"/>
<path opacity="0.49" d="M-29.0884 345.184C25.4767 318.463 81.1331 292.288 139.518 275.383C177.895 264.294 217.728 257.387 257.742 257.387C278.295 257.387 299.393 259.386 320.31 263.749C380.332 276.11 438.171 308.829 469.273 359.545C494.555 400.808 501.648 452.069 527.657 492.787C533.296 501.694 539.844 509.874 547.483 517.326C584.041 552.954 637.515 561.861 688.624 565.86C708.995 567.315 729.548 568.224 750.101 568.587C781.567 569.132 813.215 568.587 844.681 567.678C889.242 566.406 934.167 562.043 978.729 566.406C985.277 566.951 991.642 567.86 998.19 568.769C1029.84 573.677 1061.12 583.856 1087.5 601.125C1131.33 629.846 1149.88 672.381 1160.43 720.188" stroke="white" stroke-miterlimit="10"/>
<path opacity="0.49" d="M-31.2708 324.825C23.1125 299.559 78.587 274.837 136.426 259.023C174.622 248.661 213.727 242.299 253.377 242.481C273.384 242.663 294.301 244.48 315.218 248.661C374.512 260.477 432.532 291.015 464.908 339.913C492.918 382.267 500.739 436.254 528.749 478.426C534.751 487.515 541.845 496.058 550.029 503.693C589.316 540.23 646.61 546.229 700.265 548.41C721.546 549.137 743.19 549.501 764.834 549.501C797.755 549.501 830.858 548.773 863.779 547.865C910.523 546.592 957.631 541.684 1004.19 546.956C1010.92 547.683 1017.83 548.592 1024.56 549.864C1057.67 555.863 1090.22 567.496 1116.78 587.31C1161.52 620.393 1175.71 668.382 1182.8 719.824" stroke="white" stroke-miterlimit="10"/>
<path opacity="0.49" d="M-33.6355 304.648C20.5658 280.836 76.0403 257.568 133.334 243.026C171.165 233.392 209.907 227.575 249.012 227.939C268.655 228.121 289.39 230.12 309.943 234.119C368.509 245.389 426.894 273.747 460.36 320.826C491.099 364.271 499.647 420.985 529.476 464.611C536.024 474.064 543.481 482.789 552.212 490.787C594.227 528.051 655.34 531.323 711.542 531.505C733.913 531.505 756.467 531.505 779.021 531.141C813.578 530.596 848.136 529.869 882.512 528.96C931.257 527.687 980.548 522.416 1029.47 528.415C1036.57 529.323 1043.66 530.414 1050.57 531.868C1085.31 538.776 1118.78 552.045 1145.88 574.222C1191.35 611.668 1201.35 665.11 1204.81 720.188" stroke="white" stroke-miterlimit="10"/>
<path opacity="0.49" d="M-36 284.471C53.6686 247.207 147.339 211.761 244.465 213.033C318.127 213.942 409.251 239.754 455.631 301.195C496.555 355.182 501.102 431.71 554.394 477.154C599.138 515.327 664.07 515.69 722.819 514.054C781.749 512.418 842.134 510.601 901.428 509.146C952.356 507.874 1003.83 502.057 1054.76 508.965C1098.59 514.963 1142.24 530.596 1175.16 560.225C1221.73 602.034 1227 660.747 1227 719.461" stroke="white" stroke-miterlimit="10"/>
</g>
<g opacity="0.49">
<path opacity="0.49" d="M1927.34 237.859C1880.52 265.168 1833.39 292.477 1782.27 310.581C1731.15 328.685 1675.27 336.816 1622.46 324.849C1569.65 312.729 1520.37 278.362 1498.88 228.5C1485.68 197.969 1483.22 163.295 1467.72 133.838C1441.16 83.9753 1382.06 59.7345 1325.87 54.2113C1269.68 48.688 1212.88 57.5866 1156.39 54.825C1099.9 52.0634 1039.72 34.4198 1006.1 -10.84" stroke="white" stroke-miterlimit="10"/>
<path opacity="0.49" d="M1929.33 254.888C1882.66 280.97 1835.54 307.052 1784.88 324.082C1751.72 335.282 1716.72 342.493 1681.71 342.8C1663.45 342.953 1645.03 341.266 1626.91 337.277C1574.56 325.616 1525.74 292.784 1502.87 244.916C1487.83 213.311 1484.3 176.489 1467.1 145.805C1463.26 139.054 1458.97 132.764 1454.05 127.087C1430.26 99.3176 1394.64 84.2821 1357.8 76.3042C1343.22 73.2357 1328.48 71.0878 1313.74 70.0138C1291.02 68.3262 1268.15 68.4796 1245.43 69.0933C1213.19 70.0138 1180.65 72.622 1148.41 71.2412C1143.65 71.0877 1139.04 70.7809 1134.28 70.3206C1111.26 68.4795 1088.08 63.8769 1066.74 55.5921C1032.2 42.0908 1005.18 20.1513 987.372 -10.9935" stroke="white" stroke-miterlimit="10"/>
<path opacity="0.49" d="M1931.18 272.072C1884.66 296.926 1837.69 321.781 1787.49 337.89C1754.48 348.476 1719.94 355.227 1685.4 355.38C1667.44 355.534 1649.17 353.846 1631.21 349.857C1579.48 338.657 1530.66 307.512 1506.56 261.332C1489.36 228.653 1485.06 189.684 1466.34 157.772C1462.19 150.868 1457.43 144.271 1452.06 138.287C1425.96 109.75 1387.12 97.1697 1348.13 90.8793C1332.78 88.4246 1317.12 86.7369 1301.46 85.9698C1277.51 84.7424 1253.41 84.8958 1229.31 85.6629C1195.23 86.5835 1161 89.6519 1126.92 87.504C1122 87.1972 1116.94 86.7369 1112.03 86.2767C1087.77 83.6685 1063.52 77.8384 1041.87 67.4056C1006.41 50.3757 983.228 23.68 968.49 -10.5333" stroke="white" stroke-miterlimit="10"/>
<path opacity="0.49" d="M1933.17 289.102C1886.81 312.729 1839.83 336.356 1790.25 351.545C1757.55 361.517 1723.47 367.808 1689.39 367.808C1671.74 367.808 1653.78 366.12 1635.97 362.438C1584.85 351.698 1536.03 322.241 1510.7 277.748C1491.51 243.995 1486.29 202.878 1465.87 169.739C1461.42 162.528 1456.36 155.777 1450.37 149.64C1421.97 120.337 1379.91 110.211 1338.77 105.455C1322.49 103.613 1305.91 102.386 1289.49 101.772C1264.16 100.852 1238.83 101.312 1213.5 101.926C1177.58 102.846 1141.5 106.222 1105.73 103.46C1100.51 103 1095.29 102.539 1090.07 101.772C1064.59 98.397 1039.26 91.1862 1017.31 78.6055C981.078 57.8934 961.582 26.5951 949.761 -10.5333" stroke="white" stroke-miterlimit="10"/>
<path opacity="0.49" d="M1935.17 306.132C1889.11 328.685 1842.14 350.778 1792.86 365.046C1760.47 374.405 1726.85 380.235 1693.08 380.235C1675.73 380.235 1657.92 378.547 1640.27 374.865C1589.61 364.432 1540.79 336.816 1514.54 294.011C1493.2 259.184 1487.21 215.919 1465.26 181.552C1460.5 174.034 1454.98 167.13 1448.53 160.84C1417.67 130.769 1372.54 123.252 1329.4 119.876C1312.21 118.649 1294.86 117.882 1277.51 117.575C1250.96 117.115 1224.24 117.575 1197.69 118.342C1160.08 119.416 1122.16 123.098 1084.55 119.416C1079.02 118.956 1073.65 118.189 1068.12 117.421C1041.41 113.279 1015 104.687 992.745 90.1122C955.748 65.8713 940.09 29.9704 931.186 -10.3798" stroke="white" stroke-miterlimit="10"/>
<path opacity="0.49" d="M1937.01 323.315C1891.11 344.641 1844.29 365.506 1795.47 378.854C1763.23 387.599 1730.23 392.969 1696.76 392.816C1679.87 392.662 1662.22 391.128 1644.56 387.599C1594.52 377.627 1545.55 351.852 1518.22 310.581C1494.58 274.834 1487.98 229.267 1464.34 193.673C1459.27 186.002 1453.29 178.791 1446.38 172.347C1413.22 141.509 1364.86 136.446 1319.58 134.605C1301.62 133.991 1283.35 133.684 1265.08 133.684C1237.29 133.684 1209.35 134.298 1181.57 135.065C1142.11 136.139 1102.35 140.282 1063.05 135.832C1057.37 135.219 1051.54 134.451 1045.86 133.378C1017.92 128.315 990.443 118.495 968.03 101.772C930.265 73.8494 918.291 33.3458 912.304 -10.0729" stroke="white" stroke-miterlimit="10"/>
<path opacity="0.49" d="M1939 340.345C1893.26 360.443 1846.44 380.082 1798.08 392.355C1766.15 400.487 1733.45 405.396 1700.44 405.089C1683.86 404.936 1666.36 403.248 1649.02 399.873C1599.59 390.361 1550.31 366.427 1522.06 326.69C1496.12 290.022 1488.9 242.154 1463.73 205.333C1458.2 197.355 1451.9 189.99 1444.54 183.24C1409.07 151.788 1357.49 149.027 1310.06 148.873C1291.18 148.873 1272.14 148.873 1253.1 149.18C1223.94 149.64 1194.77 150.254 1165.76 151.021C1124.61 152.095 1083.01 156.544 1041.72 151.481C1035.73 150.714 1029.74 149.794 1023.91 148.566C994.587 142.736 966.341 131.536 943.467 112.819C905.089 81.2136 896.645 36.1073 893.729 -10.3799" stroke="white" stroke-miterlimit="10"/>
<path opacity="0.49" d="M1941 357.375C1865.32 388.827 1786.26 418.744 1704.28 417.67C1642.11 416.903 1565.2 395.117 1526.05 343.26C1491.51 297.693 1487.67 233.102 1442.69 194.747C1404.93 162.528 1350.13 162.221 1300.54 163.602C1250.8 164.983 1199.84 166.517 1149.79 167.744C1106.81 168.818 1063.36 173.728 1020.38 167.898C983.381 162.835 946.537 149.64 918.751 124.632C879.452 89.3451 875 39.7894 875 -9.76617" stroke="white" stroke-miterlimit="10"/>
</g>
<path opacity="0.3" d="M1446.23 444.604C1400.51 551.472 1279.82 597.385 1185.24 589.558C1159.42 587.423 1107.47 583.121 1066.91 544.76C989.006 471.094 1001.01 317.1 1075.58 226.453C1085.18 214.776 1151.65 136.55 1255.24 137.601C1331.09 138.361 1384.31 181.202 1390.78 186.555C1398.96 193.299 1416.99 209.326 1433.25 234.733C1471.45 294.442 1474.81 377.827 1446.23 444.604Z" fill="url(#paint4_linear_323_331)"/>
<path d="M1029.94 173.423C1029.7 171.547 1032.4 170.593 1033.84 172.032C1048.5 186.62 1082.95 229.332 1066.47 296.173C1045.8 380.027 1063.17 413.164 1086.8 434.706C1086.8 434.706 1052.61 422.237 1033.75 388.485C987.404 305.617 1034.26 206.69 1029.94 173.423Z" fill="url(#paint5_linear_323_331)"/>
<path d="M1039.38 201.24C1040.42 210.911 1041.23 220.599 1041.63 230.286C1042.1 239.973 1042.21 249.644 1042 259.316C1041.74 268.97 1041.26 278.625 1040.32 288.232C1039.42 297.838 1038.04 307.396 1036.63 316.97C1035.28 326.561 1033.85 336.216 1033.56 346.049C1033.27 355.865 1034.3 365.908 1037.44 375.531C1038.22 377.925 1039.06 380.334 1040.05 382.663C1040.98 385.008 1042.05 387.337 1043.15 389.634C1045.4 394.227 1047.99 398.722 1050.95 403.024C1056.9 411.628 1064.32 419.488 1072.68 426.345C1073.56 427.073 1074.93 427.057 1075.74 426.313C1076.53 425.585 1076.48 424.421 1075.66 423.709C1073.67 421.995 1071.71 420.264 1069.85 418.453C1068.9 417.563 1068.01 416.642 1067.09 415.736C1066.2 414.798 1065.28 413.892 1064.43 412.938C1060.97 409.154 1057.8 405.175 1054.99 401.035C1049.33 392.771 1045.03 383.763 1042.02 374.561C1040.58 369.952 1039.51 365.262 1038.88 360.539C1038.25 355.817 1038.04 351.046 1038.14 346.259C1038.33 336.701 1039.66 327.143 1040.94 317.537C1042.2 307.93 1043.39 298.275 1044.12 288.588C1044.51 283.736 1044.78 278.884 1044.96 274.032C1045.08 271.607 1045.12 269.165 1045.17 266.739C1045.2 264.313 1045.22 261.871 1045.2 259.445C1045.14 249.709 1044.75 239.989 1043.99 230.27C1043.18 220.55 1042.08 210.847 1040.55 201.192C1040.5 200.917 1040.21 200.723 1039.9 200.739C1039.58 200.739 1039.37 200.981 1039.38 201.24Z" fill="white"/>
<path d="M1072.42 385.089C1070.74 387.418 1067.23 387.256 1065.71 384.814C1057.38 371.326 1037.31 331.089 1055.31 279.434C1070.51 235.817 1074.62 210.717 1075.69 199.202C1075.92 196.76 1079.12 196.032 1080.38 198.135C1094.34 221.229 1133.57 300.895 1072.42 385.089Z" fill="url(#paint6_linear_323_331)"/>
<path d="M1068.69 384.038C1068.62 384.054 1068.54 384.07 1068.48 384.086C1067.86 384.151 1067.31 383.714 1067.23 383.1C1067.15 382.404 1059.58 312.652 1077.99 251.051C1078.16 250.453 1078.79 250.113 1079.38 250.291C1079.98 250.469 1080.31 251.1 1080.14 251.682C1061.88 312.83 1069.4 382.146 1069.46 382.841C1069.51 383.375 1069.19 383.876 1068.69 384.038Z" fill="white"/>
<path d="M1033.98 511.509C1033.98 515.698 1037.41 519.11 1041.6 519.11H1453.4C1457.59 519.11 1461.02 515.682 1461.02 511.509L1464.44 274.857C1464.44 270.668 1459.51 262.501 1450.49 263.116L1048.02 252.701C1042.76 252.571 1037.68 254.593 1033.96 258.296C1030.25 262 1028.21 267.078 1028.34 272.334L1033.98 511.509Z" fill="url(#paint7_linear_323_331)"/>
<path d="M1041.5 504.199C1041.5 508.162 1044.74 511.396 1048.7 511.396H1443.47C1447.43 511.396 1450.67 508.162 1450.67 504.199L1453.9 289.364C1453.51 276.442 1442.19 271.784 1435.32 272.059L1049.6 261.709C1045.92 261.612 1042.34 263.035 1039.72 265.639C1037.1 268.243 1035.66 271.817 1035.76 275.504L1041.5 504.199Z" fill="url(#paint8_linear_323_331)"/>
<path d="M1446.41 402.135C1446.4 402.135 1446.4 402.135 1446.41 402.135C1445.81 402.119 1445.35 401.649 1445.36 401.067L1445.62 383.649C1445.64 383.067 1446.11 382.614 1446.67 382.614H1446.69C1447.27 382.63 1447.74 383.099 1447.72 383.682L1447.46 401.1C1447.45 401.682 1446.98 402.135 1446.41 402.135Z" fill="white"/>
<path d="M1447.04 359.456C1447.03 359.456 1447.03 359.456 1447.04 359.456C1446.44 359.439 1445.98 358.97 1445.99 358.388L1446.98 291.66C1446.96 287.698 1445.75 284.528 1443.4 282.28C1439.01 278.075 1432.03 278.286 1431.73 278.302L1308.44 275.003C1307.86 274.986 1307.41 274.501 1307.41 273.919C1307.43 273.337 1307.88 272.835 1308.49 272.9L1431.71 276.199C1432.47 276.151 1439.91 276.021 1444.86 280.76C1447.64 283.429 1449.06 287.1 1449.08 291.676L1448.09 358.42C1448.08 358.987 1447.61 359.456 1447.04 359.456Z" fill="white"/>
<path d="M1013.28 538.76H1476.7C1477.2 538.76 1477.63 538.356 1477.63 537.838V518.868C1477.63 518.367 1477.22 517.946 1476.7 517.946H1013.28C1012.78 517.946 1012.36 518.35 1012.36 518.868V537.838C1012.37 538.34 1012.78 538.76 1013.28 538.76Z" fill="url(#paint9_linear_323_331)"/>
<path d="M1416.91 399.644C1416.91 407.488 1410.56 413.827 1402.73 413.827H1355.54C1347.7 413.827 1341.36 407.472 1341.36 399.644V399.466C1341.36 391.623 1347.71 385.283 1355.54 385.283H1402.73C1410.57 385.283 1416.91 391.639 1416.91 399.466V399.644Z" fill="url(#paint10_linear_323_331)"/>
<path d="M1357.92 391.526C1358.87 391.331 1360.59 391.186 1362.27 391.186C1364.48 391.186 1365.84 391.461 1366.96 392.237C1367.98 392.852 1368.66 393.919 1368.66 395.294C1368.66 396.798 1367.7 398.189 1365.94 398.836V398.884C1367.67 399.321 1369.24 400.679 1369.24 402.943C1369.24 404.399 1368.61 405.547 1367.65 406.323C1366.49 407.342 1364.56 407.86 1361.59 407.86C1359.94 407.86 1358.68 407.73 1357.92 407.633V391.526ZM1360.88 397.995H1362.41C1364.48 397.995 1365.65 397.024 1365.65 395.633C1365.65 394.097 1364.48 393.402 1362.59 393.402C1361.72 393.402 1361.2 393.45 1360.89 393.531V397.995H1360.88ZM1360.88 405.515C1361.26 405.563 1361.78 405.58 1362.46 405.58C1364.39 405.58 1366.08 404.852 1366.08 402.83C1366.08 400.938 1364.43 400.162 1362.36 400.162H1360.88V405.515Z" fill="white"/>
<path d="M1374.87 391.315V400.857C1374.87 404.059 1376.21 405.547 1378.21 405.547C1380.38 405.547 1381.66 404.059 1381.66 400.857V391.315H1384.65V400.663C1384.65 405.709 1382.05 407.941 1378.12 407.941C1374.33 407.941 1371.87 405.822 1371.87 400.679V391.299H1374.87V391.315Z" fill="white"/>
<path d="M1391.78 407.682V400.857L1386.61 391.315H1390L1391.98 395.52C1392.54 396.733 1392.95 397.655 1393.38 398.771H1393.43C1393.85 397.72 1394.31 396.701 1394.87 395.52L1396.84 391.315H1400.22L1394.79 400.792V407.682H1391.78Z" fill="white"/>
<g opacity="0.8">
<path opacity="0.8" d="M1417.25 304.986C1416.77 304.404 1416.02 304.162 1415.23 304.178L1342.83 305.698L1341 299.892C1340.74 299.083 1339.98 298.566 1339.12 298.582L1329.18 298.841C1328.11 298.873 1327.25 299.617 1327.25 300.668C1327.25 301.736 1328.11 302.431 1329.18 302.399L1337.67 302.205L1353.03 351.321C1353.29 352.145 1354.07 352.711 1354.94 352.728L1405.75 353.407C1406.95 353.423 1407.92 352.679 1407.92 351.547C1407.92 350.415 1406.95 349.655 1405.75 349.639L1356.41 349.105L1352.45 336.345L1406.66 336.426C1407.78 336.426 1408.75 335.698 1409.05 334.695L1417.61 307.024C1417.88 306.313 1417.74 305.569 1417.25 304.986Z" fill="white"/>
<path opacity="0.8" d="M1362.4 355.752C1358.21 355.687 1354.83 358.938 1354.83 363.013C1354.83 367.073 1358.21 370.469 1362.4 370.582C1366.6 370.695 1370.05 367.445 1370.05 363.337C1370.05 359.229 1366.6 355.817 1362.4 355.752ZM1362.4 366.636C1360.44 366.588 1358.85 365.003 1358.85 363.11C1358.85 361.202 1360.44 359.682 1362.4 359.73C1364.35 359.763 1365.95 361.348 1365.95 363.256C1365.95 365.164 1364.35 366.668 1362.4 366.636Z" fill="white"/>
<path opacity="0.8" d="M1396.28 356.286C1391.9 356.221 1388.34 359.552 1388.34 363.709C1388.34 367.865 1391.9 371.358 1396.28 371.472C1400.69 371.585 1404.3 368.253 1404.3 364.048C1404.3 359.844 1400.69 356.35 1396.28 356.286ZM1396.28 367.428C1394.22 367.38 1392.56 365.763 1392.56 363.806C1392.56 361.849 1394.22 360.296 1396.28 360.345C1398.33 360.377 1400.01 362.011 1400.01 363.968C1400.01 365.924 1398.33 367.477 1396.28 367.428Z" fill="white"/>
</g>
<path d="M1176.2 187.267C1229.67 154.243 1275.29 154.534 1327.8 179.747C1331.2 181.38 1333.35 184.825 1333.32 188.593L1333.29 190.776C1333.2 197.456 1326.56 202.049 1320.28 199.752C1274.89 183.143 1240.86 174.361 1185.84 204.038C1179.79 207.305 1172.35 203.359 1171.64 196.501C1171.27 192.814 1173.03 189.224 1176.2 187.267Z" fill="url(#paint11_linear_323_331)"/>
<path d="M1185.63 161.73L1157.04 205.526C1156.16 206.852 1157.04 208.647 1158.62 208.776L1208.76 213.078C1210.62 213.24 1211.96 211.331 1211.18 209.617C1199.22 194.221 1192.2 178.307 1189.29 161.989C1188.61 160.501 1186.54 160.356 1185.63 161.73Z" fill="url(#paint12_linear_323_331)"/>
<path d="M1135.71 569.536C1135.71 569.536 1134.67 575.391 1134.17 581.181C1133.98 583.445 1135.72 585.402 1137.99 585.499C1145.7 585.822 1162.2 586.437 1168.12 586.178C1169.01 586.146 1169.59 585.224 1169.26 584.399C1168.99 583.704 1168.46 583.138 1167.78 582.83L1140.53 570.313L1135.71 569.536Z" fill="url(#paint13_linear_323_331)"/>
<path d="M1134.87 566.092L1135.69 573.094C1135.69 573.094 1140.46 575.31 1143.73 572.819L1141.75 565.024L1134.87 566.092Z" fill="url(#paint14_linear_323_331)"/>
<path d="M1135.48 434.544C1135.12 436.372 1133.56 525.725 1143.11 565.768C1143.27 566.415 1142.94 567.094 1142.32 567.353C1140.85 567.952 1137.99 568.825 1134.54 568.938C1133.47 568.97 1132.52 568.275 1132.21 567.256C1129.48 557.973 1116.4 511.412 1114.7 466.954C1112.79 417.272 1114.7 465.256 1114.7 465.256L1115.81 434.544H1135.48Z" fill="url(#paint15_linear_323_331)"/>
<path d="M1104.36 572.593C1104.36 572.593 1102.71 575.553 1101.13 583.396C1100.84 584.819 1101.82 586.162 1103.26 586.307C1105.8 586.55 1109.73 586.873 1112.87 586.857C1114.33 586.841 1115.44 585.579 1115.28 584.156C1114.92 581.294 1113.84 576.588 1110.51 572.933L1104.36 572.593Z" fill="url(#paint16_linear_323_331)"/>
<path d="M1102.92 563.585L1104.87 574.162C1104.87 574.162 1106.79 575.585 1110.57 574.55L1109.65 563.164L1102.92 563.585Z" fill="url(#paint17_linear_323_331)"/>
<path d="M1097.69 437.294C1089.87 484.437 1099.38 553.817 1102.59 567.402C1102.78 568.226 1103.46 568.873 1104.3 569.003C1105.72 569.245 1108.08 569.439 1110.41 568.76C1111.21 568.534 1111.77 567.806 1111.8 566.965C1112.24 555.984 1111.46 488.593 1118.74 461.957C1119.11 460.615 1119.94 459.434 1121.07 458.625L1135.21 448.582L1136.29 432.345L1097.69 437.294Z" fill="url(#paint18_linear_323_331)"/>
<path d="M1143.73 349.639C1143.73 349.639 1107.84 340.695 1082.74 353.989L1097.69 437.294C1097.69 437.294 1121.46 439.202 1136.29 434.496L1143.73 349.639Z" fill="url(#paint19_linear_323_331)"/>
<path d="M1103.47 324.685L1100.73 348.329C1100.55 348.669 1100.63 349.073 1100.94 349.299C1102.78 350.706 1109.52 355.024 1119.08 350.803C1120.08 350.367 1120.84 349.526 1121.14 348.474L1117.25 327.984L1103.47 324.685Z" fill="url(#paint20_linear_323_331)"/>
<path d="M1125.5 312.361C1125.5 312.361 1128.99 329.439 1126.23 335.116C1123.46 340.792 1113.87 337.493 1106.81 330.151L1105.58 312.458L1125.5 312.361Z" fill="url(#paint21_linear_323_331)"/>
<path d="M1109.49 322.421C1109.88 322.372 1110.14 321.984 1110.02 321.612C1109.68 320.464 1109.07 318.167 1109.2 316.34C1109.2 316.34 1108.05 315.014 1113.4 315.305C1118.76 315.58 1126.76 315.919 1129.58 312.119C1132.33 308.415 1131.39 296.803 1122.53 303.224C1122.19 303.466 1121.72 303.337 1121.56 302.949C1120.91 301.267 1118.98 297.628 1114.65 298.21C1110.59 298.76 1109.41 301.267 1109.07 302.609C1108.97 302.997 1108.54 303.208 1108.16 303.014C1106.45 302.14 1102.18 300.555 1098.85 304.421C1096.1 307.607 1096.57 310 1097.26 311.31C1097.49 311.73 1097.18 312.232 1096.71 312.248C1095.42 312.264 1093.58 312.814 1092.91 315.66C1091.99 319.59 1096.41 320.512 1097.68 320.706C1097.89 320.739 1098.07 320.868 1098.17 321.062C1098.88 322.534 1102.16 328.89 1107.13 330.992C1107.57 331.17 1108.04 330.83 1108.02 330.377L1107.7 323.262C1107.68 322.938 1107.92 322.647 1108.25 322.598L1109.49 322.421Z" fill="url(#paint22_linear_323_331)"/>
<path d="M1110.12 323.601C1110.12 323.601 1105.66 318.119 1104.3 321.224C1102.94 324.329 1107.95 327.385 1110.99 326.965L1110.12 323.601Z" fill="url(#paint23_linear_323_331)"/>
<path d="M1162.46 366.005C1162.46 366.005 1175.99 372.297 1191.83 355.493C1202.64 344.011 1209.26 351.046 1211.36 355.687C1213.45 360.329 1208.45 359.941 1206.7 359.941C1204.96 359.941 1204.75 354.895 1201.66 355.59C1198.59 356.27 1199.49 355.364 1199.3 358.453C1199.1 361.542 1182.56 396.426 1162.1 379.429L1162.46 366.005Z" fill="url(#paint24_linear_323_331)"/>
<path d="M1224.32 368.27L1188.54 366.022C1185.28 365.811 1182.41 368.173 1182.01 371.423L1174 433.639C1173.52 437.342 1176.41 440.625 1180.15 440.625H1226.82C1230.36 440.625 1233.19 437.666 1233.02 434.124L1230.12 374.173C1229.98 371.003 1227.47 368.48 1224.32 368.27Z" fill="url(#paint25_linear_323_331)"/>
<path d="M1219.04 374.593C1219.66 374.593 1220.18 374.108 1220.21 373.477C1220.24 372.684 1220.87 353.892 1207.64 351.822C1204.81 351.385 1202.3 352.048 1200.19 353.795C1193.75 359.116 1193.2 372.814 1193.18 373.396C1193.17 374.043 1193.67 374.577 1194.3 374.593C1194.93 374.609 1195.48 374.108 1195.5 373.477C1195.5 373.348 1196.03 360.248 1201.66 355.59C1203.28 354.264 1205.1 353.779 1207.29 354.119C1218.49 355.865 1217.89 373.218 1217.89 373.396C1217.86 374.043 1218.36 374.577 1219.01 374.609C1219.01 374.593 1219.03 374.593 1219.04 374.593Z" fill="url(#paint26_linear_323_331)"/>
<path d="M1143.73 349.639L1165.56 366.005C1165.56 366.005 1165.95 378.264 1163.05 384.07L1138.73 378.086L1143.73 349.639Z" fill="url(#paint27_linear_323_331)"/>
<path d="M1076.18 399.709C1076.18 399.709 1078.62 430.987 1099.22 432.345C1099.22 432.345 1108.05 431.536 1111.88 434.544C1115.72 437.553 1113.86 442.194 1113.86 442.194L1097.25 440.172C1097.25 440.172 1073.49 444.135 1059.19 404.35L1076.18 399.709Z" fill="url(#paint28_linear_323_331)"/>
<path d="M1082.74 353.989C1082.74 353.989 1054.55 370.76 1059.19 404.35C1059.19 404.35 1069.27 408.717 1076.58 402.863C1076.58 402.863 1082.29 381.03 1094.68 379.946L1082.74 353.989Z" fill="url(#paint29_linear_323_331)"/>
<path d="M1217.47 310.55C1239.31 310.55 1257.02 292.846 1257.02 271.008C1257.02 249.17 1239.31 231.466 1217.47 231.466C1195.64 231.466 1177.93 249.17 1177.93 271.008C1177.93 292.846 1195.64 310.55 1217.47 310.55Z" fill="url(#paint30_linear_323_331)"/>
<path d="M1217.47 309.24C1238.59 309.24 1255.71 292.123 1255.71 271.008C1255.71 249.893 1238.59 232.776 1217.47 232.776C1196.36 232.776 1179.24 249.893 1179.24 271.008C1179.24 292.123 1196.36 309.24 1217.47 309.24Z" fill="url(#paint31_linear_323_331)"/>
<path d="M1185.94 255.984C1185.81 255.984 1185.68 255.952 1185.55 255.887C1185.13 255.677 1184.97 255.159 1185.18 254.739C1191.37 242.48 1203.74 234.863 1217.47 234.863C1219.66 234.863 1221.86 235.057 1223.99 235.445C1224.46 235.526 1224.77 235.978 1224.67 236.431C1224.59 236.9 1224.14 237.191 1223.68 237.111C1221.65 236.739 1219.56 236.544 1217.47 236.544C1204.39 236.544 1192.6 243.806 1186.71 255.483C1186.55 255.806 1186.26 255.984 1185.94 255.984Z" fill="white"/>
<path opacity="0.78" d="M1218.3 304.21C1236.17 304.21 1250.66 289.722 1250.66 271.849C1250.66 253.977 1236.17 239.488 1218.3 239.488C1200.43 239.488 1185.94 253.977 1185.94 271.849C1185.94 289.722 1200.43 304.21 1218.3 304.21Z" fill="white"/>
<path d="M1215.13 295.898V292.372C1211.46 292.226 1207.84 291.353 1205.25 290.237C1204.33 289.833 1203.86 288.798 1204.12 287.827L1205.01 284.544C1205.33 283.348 1206.64 282.717 1207.79 283.202C1210.34 284.27 1213.5 285.127 1216.91 285.127C1220.45 285.127 1223.09 283.93 1223.09 281.472C1223.09 279.256 1221.05 277.93 1216.13 276.62C1209.13 274.695 1204.08 271.639 1204.08 265.477C1204.08 259.898 1208.16 255.644 1215.23 254.512V250.987C1215.23 249.854 1216.15 248.933 1217.28 248.933H1219.35C1220.48 248.933 1221.41 249.854 1221.41 250.987V254.14C1224.8 254.27 1227.28 254.852 1229.23 255.547C1230.24 255.903 1230.79 256.987 1230.51 258.005L1229.69 261.046C1229.36 262.21 1228.12 262.857 1226.98 262.42C1225.17 261.741 1222.62 261.03 1219.3 261.03C1215.11 261.03 1213.92 262.76 1213.92 264.329C1213.92 266.253 1216.44 267.563 1221.89 269.245C1229.69 271.574 1232.92 274.825 1232.92 280.631C1232.92 285.968 1228.96 290.755 1221.29 291.951V295.898C1221.29 297.03 1220.37 297.951 1219.24 297.951H1217.18C1216.05 297.951 1215.13 297.03 1215.13 295.898Z" fill="url(#paint32_linear_323_331)"/>
<path d="M1284.96 336.798C1298.59 336.798 1309.64 325.749 1309.64 312.119C1309.64 298.489 1298.59 287.439 1284.96 287.439C1271.33 287.439 1260.28 298.489 1260.28 312.119C1260.28 325.749 1271.33 336.798 1284.96 336.798Z" fill="url(#paint33_linear_323_331)"/>
<path d="M1284.96 335.973C1298.14 335.973 1308.82 325.293 1308.82 312.119C1308.82 298.944 1298.14 288.264 1284.96 288.264C1271.79 288.264 1261.11 298.944 1261.11 312.119C1261.11 325.293 1271.79 335.973 1284.96 335.973Z" fill="url(#paint34_linear_323_331)"/>
<path d="M1265.3 303.127C1265.15 303.127 1265.02 303.094 1264.88 303.03C1264.42 302.803 1264.23 302.237 1264.47 301.784C1268.4 294.005 1276.26 289.17 1284.96 289.17C1286.35 289.17 1287.74 289.299 1289.1 289.542C1289.6 289.639 1289.94 290.108 1289.85 290.625C1289.75 291.127 1289.28 291.466 1288.76 291.369C1287.52 291.143 1286.24 291.03 1284.96 291.03C1276.96 291.03 1269.73 295.477 1266.12 302.625C1265.96 302.949 1265.64 303.127 1265.3 303.127Z" fill="white"/>
<path opacity="0.78" d="M1285.48 332.819C1296.63 332.819 1305.66 323.783 1305.66 312.636C1305.66 301.489 1296.63 292.453 1285.48 292.453C1274.33 292.453 1265.3 301.489 1265.3 312.636C1265.3 323.783 1274.33 332.819 1285.48 332.819Z" fill="white"/>
<path d="M1283.51 327.644V325.445C1281.21 325.348 1278.95 324.814 1277.35 324.102C1276.76 323.844 1276.47 323.213 1276.65 322.598L1277.22 320.544C1277.43 319.801 1278.24 319.412 1278.95 319.704C1280.55 320.367 1282.5 320.9 1284.64 320.9C1286.84 320.9 1288.49 320.156 1288.49 318.62C1288.49 317.229 1287.21 316.42 1284.15 315.596C1279.79 314.399 1276.63 312.491 1276.63 308.642C1276.63 305.164 1279.17 302.512 1283.59 301.801V299.601C1283.59 298.89 1284.15 298.323 1284.87 298.323H1286.16C1286.87 298.323 1287.44 298.89 1287.44 299.601V301.574C1289.56 301.655 1291.09 302.027 1292.32 302.447C1292.95 302.674 1293.29 303.337 1293.11 303.984L1292.6 305.876C1292.4 306.604 1291.63 307.008 1290.91 306.733C1289.78 306.313 1288.2 305.86 1286.13 305.86C1283.51 305.86 1282.76 306.943 1282.76 307.914C1282.76 309.111 1284.33 309.935 1287.73 310.987C1292.58 312.442 1294.6 314.464 1294.6 318.086C1294.6 321.418 1292.13 324.41 1287.36 325.154V327.612C1287.36 328.323 1286.79 328.889 1286.08 328.889H1284.78C1284.07 328.922 1283.51 328.356 1283.51 327.644Z" fill="url(#paint35_linear_323_331)"/>
<path d="M1236.69 361.299C1248.24 361.299 1257.6 351.937 1257.6 340.388C1257.6 328.839 1248.24 319.477 1236.69 319.477C1225.14 319.477 1215.78 328.839 1215.78 340.388C1215.78 351.937 1225.14 361.299 1236.69 361.299Z" fill="url(#paint36_linear_323_331)"/>
<path d="M1236.69 360.604C1247.85 360.604 1256.9 351.553 1256.9 340.388C1256.9 329.223 1247.85 320.172 1236.69 320.172C1225.52 320.172 1216.47 329.223 1216.47 340.388C1216.47 351.553 1225.52 360.604 1236.69 360.604Z" fill="url(#paint37_linear_323_331)"/>
<path d="M1220 332.771C1219.88 332.771 1219.76 332.739 1219.64 332.69C1219.25 332.496 1219.09 332.027 1219.3 331.639C1222.63 325.04 1229.3 320.933 1236.67 320.933C1237.85 320.933 1239.03 321.046 1240.18 321.24C1240.6 321.321 1240.89 321.725 1240.81 322.146C1240.73 322.566 1240.33 322.857 1239.91 322.776C1238.85 322.582 1237.77 322.485 1236.67 322.485C1229.88 322.485 1223.77 326.253 1220.69 332.318C1220.56 332.609 1220.29 332.771 1220 332.771Z" fill="white"/>
<path opacity="0.78" d="M1237.12 357.935C1246.57 357.935 1254.23 350.275 1254.23 340.825C1254.23 331.375 1246.57 323.714 1237.12 323.714C1227.67 323.714 1220.01 331.375 1220.01 340.825C1220.01 350.275 1227.67 357.935 1237.12 357.935Z" fill="white"/>
<path d="M1235.44 353.552V351.693C1233.5 351.612 1231.58 351.159 1230.22 350.561C1229.73 350.35 1229.49 349.8 1229.62 349.283L1230.09 347.552C1230.27 346.922 1230.96 346.582 1231.56 346.841C1232.92 347.407 1234.59 347.86 1236.38 347.86C1238.26 347.86 1239.65 347.229 1239.65 345.919C1239.65 344.755 1238.56 344.043 1235.98 343.348C1232.27 342.329 1229.6 340.712 1229.6 337.461C1229.6 334.517 1231.76 332.269 1235.49 331.655V329.795C1235.49 329.197 1235.98 328.712 1236.57 328.712H1237.67C1238.27 328.712 1238.76 329.197 1238.76 329.795V331.461C1240.55 331.526 1241.86 331.833 1242.9 332.205C1243.43 332.399 1243.72 332.965 1243.58 333.515L1243.14 335.116C1242.98 335.73 1242.32 336.07 1241.72 335.844C1240.76 335.488 1239.4 335.1 1237.66 335.1C1235.44 335.1 1234.81 336.021 1234.81 336.846C1234.81 337.865 1236.14 338.561 1239.03 339.45C1243.16 340.679 1244.87 342.393 1244.87 345.466C1244.87 348.28 1242.78 350.819 1238.73 351.45V353.536C1238.73 354.135 1238.24 354.62 1237.64 354.62H1236.54C1235.93 354.636 1235.44 354.151 1235.44 353.552Z" fill="url(#paint38_linear_323_331)"/>
<path d="M1294.6 270.733C1312.48 270.733 1326.98 256.237 1326.98 238.356C1326.98 220.474 1312.48 205.978 1294.6 205.978C1276.72 205.978 1262.22 220.474 1262.22 238.356C1262.22 256.237 1276.72 270.733 1294.6 270.733Z" fill="url(#paint39_linear_323_331)"/>
<path d="M1294.6 269.666C1311.89 269.666 1325.91 255.648 1325.91 238.356C1325.91 221.064 1311.89 207.046 1294.6 207.046C1277.31 207.046 1263.29 221.064 1263.29 238.356C1263.29 255.648 1277.31 269.666 1294.6 269.666Z" fill="url(#paint40_linear_323_331)"/>
<path d="M1268.79 226.275C1268.64 226.275 1268.52 226.243 1268.37 226.178C1267.92 225.951 1267.72 225.385 1267.97 224.933C1273.08 214.809 1283.28 208.534 1294.6 208.534C1296.41 208.534 1298.22 208.695 1299.99 209.019C1300.49 209.116 1300.83 209.601 1300.73 210.102C1300.63 210.604 1300.16 210.943 1299.65 210.846C1298 210.539 1296.3 210.394 1294.6 210.394C1283.98 210.394 1274.4 216.296 1269.61 225.774C1269.45 226.097 1269.13 226.275 1268.79 226.275Z" fill="white"/>
<path opacity="0.78" d="M1295.28 265.526C1309.91 265.526 1321.77 253.665 1321.77 239.035C1321.77 224.405 1309.91 212.544 1295.28 212.544C1280.65 212.544 1268.79 224.405 1268.79 239.035C1268.79 253.665 1280.65 265.526 1295.28 265.526Z" fill="white"/>
<path d="M1292.68 258.733V255.854C1289.67 255.741 1286.69 255.03 1284.59 254.108C1283.83 253.784 1283.46 252.927 1283.67 252.135L1284.4 249.45C1284.67 248.464 1285.74 247.962 1286.68 248.35C1288.76 249.224 1291.35 249.919 1294.15 249.919C1297.04 249.919 1299.19 248.933 1299.19 246.927C1299.19 245.116 1297.53 244.032 1293.5 242.949C1287.76 241.38 1283.64 238.873 1283.64 233.827C1283.64 229.267 1286.97 225.774 1292.76 224.852V221.973C1292.76 221.051 1293.5 220.291 1294.44 220.291H1296.14C1297.06 220.291 1297.82 221.035 1297.82 221.973V224.561C1300.6 224.674 1302.62 225.143 1304.22 225.709C1305.05 226 1305.5 226.89 1305.27 227.73L1304.6 230.221C1304.34 231.175 1303.32 231.709 1302.38 231.353C1300.91 230.787 1298.81 230.205 1296.09 230.205C1292.66 230.205 1291.67 231.628 1291.67 232.906C1291.67 234.474 1293.73 235.558 1298.19 236.933C1304.56 238.841 1307.22 241.493 1307.22 246.248C1307.22 250.615 1303.98 254.544 1297.71 255.515V258.733C1297.71 259.655 1296.96 260.415 1296.02 260.415H1294.33C1293.44 260.415 1292.68 259.655 1292.68 258.733Z" fill="url(#paint41_linear_323_331)"/>
<path d="M1337.65 448.534C1290.98 490.614 1246.03 498.507 1189.85 483.127C1186.21 482.124 1183.48 479.132 1182.85 475.412L1182.48 473.261C1181.36 466.679 1187.07 460.97 1193.65 462.102C1241.3 470.302 1276.33 472.841 1325.15 433.784C1330.52 429.482 1338.54 432.038 1340.47 438.652C1341.5 442.194 1340.4 446.043 1337.65 448.534Z" fill="url(#paint42_linear_323_331)"/>
<path d="M1332.95 475.348L1353.21 427.137C1353.82 425.666 1352.66 424.081 1351.07 424.226L1300.99 428.981C1299.13 429.159 1298.14 431.278 1299.23 432.814C1313.77 445.817 1323.52 460.21 1329.31 475.736C1330.24 477.094 1332.3 476.868 1332.95 475.348Z" fill="url(#paint43_linear_323_331)"/>
</g>
<defs>
<radialGradient id="paint0_radial_323_331" cx="0" cy="0" r="1" gradientUnits="userSpaceOnUse" gradientTransform="translate(1920 -114) rotate(156.221) scale(2098.12 2436.73)">
<stop offset="0.00143081" stop-color="#F01A63" stop-opacity="0.6"/>
<stop offset="0.421875" stop-color="#AC27FD"/>
<stop offset="1" stop-color="#2E28D4"/>
</radialGradient>
<linearGradient id="paint1_linear_323_331" x1="582.68" y1="-99.7813" x2="420.442" y2="198.15" gradientUnits="userSpaceOnUse">
<stop stop-color="#2E28D4"/>
<stop offset="0.625" stop-color="#AC27FD"/>
<stop offset="1" stop-color="#DD1E8F"/>
</linearGradient>
<linearGradient id="paint2_linear_323_331" x1="1318.95" y1="353.21" x2="1565.59" y2="-260.134" gradientUnits="userSpaceOnUse">
<stop stop-color="#E11D88"/>
<stop offset="0.32277" stop-color="#AC27FD"/>
<stop offset="0.889504" stop-color="#2E28D4"/>
</linearGradient>
<linearGradient id="paint3_linear_323_331" x1="-101.921" y1="632.408" x2="396.533" y2="296.86" gradientUnits="userSpaceOnUse">
<stop offset="0.177083" stop-color="#2E28D4"/>
<stop offset="0.661458" stop-color="#AC27FD"/>
<stop offset="1" stop-color="#E21D84"/>
</linearGradient>
<linearGradient id="paint4_linear_323_331" x1="1492.61" y1="649.289" x2="1159.85" y2="290.116" gradientUnits="userSpaceOnUse">
<stop stop-color="#B37CFF"/>
<stop offset="1" stop-color="#F895E7"/>
</linearGradient>
<linearGradient id="paint5_linear_323_331" x1="982.128" y1="261.581" x2="1135.53" y2="344.136" gradientUnits="userSpaceOnUse">
<stop stop-color="#A737D5"/>
<stop offset="1" stop-color="#EF497A"/>
</linearGradient>
<linearGradient id="paint6_linear_323_331" x1="1030.1" y1="363.22" x2="1118.2" y2="221.248" gradientUnits="userSpaceOnUse">
<stop stop-color="#CE1567"/>
<stop offset="1" stop-color="#7A1DBC"/>
</linearGradient>
<linearGradient id="paint7_linear_323_331" x1="1285.11" y1="500.918" x2="1187.85" y2="209.141" gradientUnits="userSpaceOnUse">
<stop stop-color="#2B3582"/>
<stop offset="1" stop-color="#150E42"/>
</linearGradient>
<linearGradient id="paint8_linear_323_331" x1="1030.42" y1="541.738" x2="1733.81" y2="33.8793" gradientUnits="userSpaceOnUse">
<stop stop-color="#53D8FF"/>
<stop offset="1" stop-color="#3840F7"/>
</linearGradient>
<linearGradient id="paint9_linear_323_331" x1="1239.7" y1="579.837" x2="1260.92" y2="373.633" gradientUnits="userSpaceOnUse">
<stop stop-color="#2B3582"/>
<stop offset="1" stop-color="#150E42"/>
</linearGradient>
<linearGradient id="paint10_linear_323_331" x1="1384.77" y1="303.62" x2="1379.06" y2="400.649" gradientUnits="userSpaceOnUse">
<stop stop-color="#A737D5"/>
<stop offset="1" stop-color="#EF497A"/>
</linearGradient>
<linearGradient id="paint11_linear_323_331" x1="1384.18" y1="117.944" x2="1167.25" y2="241.542" gradientUnits="userSpaceOnUse">
<stop stop-color="#A737D5"/>
<stop offset="1" stop-color="#EF497A"/>
</linearGradient>
<linearGradient id="paint12_linear_323_331" x1="1368.28" y1="90.0428" x2="1151.36" y2="213.641" gradientUnits="userSpaceOnUse">
<stop stop-color="#A737D5"/>
<stop offset="1" stop-color="#EF497A"/>
</linearGradient>
<linearGradient id="paint13_linear_323_331" x1="1167.25" y1="561.45" x2="1067.47" y2="669.981" gradientUnits="userSpaceOnUse">
<stop stop-color="#2B3582"/>
<stop offset="1" stop-color="#150E42"/>
</linearGradient>
<linearGradient id="paint14_linear_323_331" x1="1134.86" y1="569.511" x2="1143.72" y2="569.511" gradientUnits="userSpaceOnUse">
<stop stop-color="#F9B776"/>
<stop offset="1" stop-color="#F47960"/>
</linearGradient>
<linearGradient id="paint15_linear_323_331" x1="1029.13" y1="569.6" x2="1177.16" y2="467.941" gradientUnits="userSpaceOnUse">
<stop stop-color="#CB236D"/>
<stop offset="1" stop-color="#4C246D"/>
</linearGradient>
<linearGradient id="paint16_linear_323_331" x1="1144.86" y1="540.872" x2="1045.09" y2="649.402" gradientUnits="userSpaceOnUse">
<stop stop-color="#2B3582"/>
<stop offset="1" stop-color="#150E42"/>
</linearGradient>
<linearGradient id="paint17_linear_323_331" x1="1102.92" y1="569.056" x2="1110.57" y2="569.056" gradientUnits="userSpaceOnUse">
<stop stop-color="#F9B776"/>
<stop offset="1" stop-color="#F47960"/>
</linearGradient>
<linearGradient id="paint18_linear_323_331" x1="1022.09" y1="559.359" x2="1170.13" y2="457.7" gradientUnits="userSpaceOnUse">
<stop stop-color="#CB236D"/>
<stop offset="1" stop-color="#4C246D"/>
</linearGradient>
<linearGradient id="paint19_linear_323_331" x1="1136.66" y1="352.576" x2="989.332" y2="578.606" gradientUnits="userSpaceOnUse">
<stop stop-color="#FDF53F"/>
<stop offset="1" stop-color="#D93C65"/>
</linearGradient>
<linearGradient id="paint20_linear_323_331" x1="1101.48" y1="337.87" x2="1122.26" y2="341.015" gradientUnits="userSpaceOnUse">
<stop stop-color="#F9B776"/>
<stop offset="1" stop-color="#F47960"/>
</linearGradient>
<linearGradient id="paint21_linear_323_331" x1="1124.65" y1="330.616" x2="1105.05" y2="309.005" gradientUnits="userSpaceOnUse">
<stop stop-color="#F9B776"/>
<stop offset="1" stop-color="#F47960"/>
</linearGradient>
<linearGradient id="paint22_linear_323_331" x1="1096.93" y1="289.918" x2="1120.61" y2="323.39" gradientUnits="userSpaceOnUse">
<stop stop-color="#2B3582"/>
<stop offset="1" stop-color="#150E42"/>
</linearGradient>
<linearGradient id="paint23_linear_323_331" x1="1116.77" y1="334.202" x2="1099.14" y2="314.758" gradientUnits="userSpaceOnUse">
<stop stop-color="#F9B776"/>
<stop offset="1" stop-color="#F47960"/>
</linearGradient>
<linearGradient id="paint24_linear_323_331" x1="1187.25" y1="380.208" x2="1186.27" y2="339.594" gradientUnits="userSpaceOnUse">
<stop stop-color="#F9B776"/>
<stop offset="1" stop-color="#F47960"/>
</linearGradient>
<linearGradient id="paint25_linear_323_331" x1="1223.55" y1="352.922" x2="1185.38" y2="472.678" gradientUnits="userSpaceOnUse">
<stop stop-color="#9CFFFB"/>
<stop offset="1" stop-color="#9BFFFA"/>
</linearGradient>
<linearGradient id="paint26_linear_323_331" x1="1211.13" y1="335.234" x2="1203.41" y2="400.875" gradientUnits="userSpaceOnUse">
<stop stop-color="#9CFFFB"/>
<stop offset="1" stop-color="#9BFFFA"/>
</linearGradient>
<linearGradient id="paint27_linear_323_331" x1="1154.93" y1="364.484" x2="1007.6" y2="590.514" gradientUnits="userSpaceOnUse">
<stop stop-color="#FDF53F"/>
<stop offset="1" stop-color="#D93C65"/>
</linearGradient>
<linearGradient id="paint28_linear_323_331" x1="1087.13" y1="438.333" x2="1085.89" y2="386.659" gradientUnits="userSpaceOnUse">
<stop stop-color="#F9B776"/>
<stop offset="1" stop-color="#F47960"/>
</linearGradient>
<linearGradient id="paint29_linear_323_331" x1="1107.65" y1="333.666" x2="960.321" y2="559.697" gradientUnits="userSpaceOnUse">
<stop stop-color="#FDF53F"/>
<stop offset="1" stop-color="#D93C65"/>
</linearGradient>
<linearGradient id="paint30_linear_323_331" x1="1163.35" y1="333.831" x2="1216.4" y2="272.257" gradientUnits="userSpaceOnUse">
<stop stop-color="#FDF53F"/>
<stop offset="1" stop-color="#D93C65"/>
</linearGradient>
<linearGradient id="paint31_linear_323_331" x1="1246.38" y1="227.347" x2="1089.51" y2="464.326" gradientUnits="userSpaceOnUse">
<stop stop-color="#FDF53F"/>
<stop offset="1" stop-color="#D93C65"/>
</linearGradient>
<linearGradient id="paint32_linear_323_331" x1="1241.7" y1="234.137" x2="1158.17" y2="374.366" gradientUnits="userSpaceOnUse">
<stop stop-color="#FDF53F"/>
<stop offset="1" stop-color="#D93C65"/>
</linearGradient>
<linearGradient id="paint33_linear_323_331" x1="1251.2" y1="351.302" x2="1284.29" y2="312.889" gradientUnits="userSpaceOnUse">
<stop stop-color="#FDF53F"/>
<stop offset="1" stop-color="#D93C65"/>
</linearGradient>
<linearGradient id="paint34_linear_323_331" x1="1302.99" y1="284.871" x2="1205.13" y2="432.714" gradientUnits="userSpaceOnUse">
<stop stop-color="#FDF53F"/>
<stop offset="1" stop-color="#D93C65"/>
</linearGradient>
<linearGradient id="paint35_linear_323_331" x1="1300.07" y1="289.107" x2="1247.96" y2="376.59" gradientUnits="userSpaceOnUse">
<stop stop-color="#FDF53F"/>
<stop offset="1" stop-color="#D93C65"/>
</linearGradient>
<linearGradient id="paint36_linear_323_331" x1="1208.06" y1="373.61" x2="1236.11" y2="341.043" gradientUnits="userSpaceOnUse">
<stop stop-color="#FDF53F"/>
<stop offset="1" stop-color="#D93C65"/>
</linearGradient>
<linearGradient id="paint37_linear_323_331" x1="1251.97" y1="317.291" x2="1169" y2="442.628" gradientUnits="userSpaceOnUse">
<stop stop-color="#FDF53F"/>
<stop offset="1" stop-color="#D93C65"/>
</linearGradient>
<linearGradient id="paint38_linear_323_331" x1="1249.49" y1="320.882" x2="1205.32" y2="395.049" gradientUnits="userSpaceOnUse">
<stop stop-color="#FDF53F"/>
<stop offset="1" stop-color="#D93C65"/>
</linearGradient>
<linearGradient id="paint39_linear_323_331" x1="1250.29" y1="289.789" x2="1293.72" y2="239.372" gradientUnits="userSpaceOnUse">
<stop stop-color="#FDF53F"/>
<stop offset="1" stop-color="#D93C65"/>
</linearGradient>
<linearGradient id="paint40_linear_323_331" x1="1318.27" y1="202.6" x2="1189.83" y2="396.639" gradientUnits="userSpaceOnUse">
<stop stop-color="#FDF53F"/>
<stop offset="1" stop-color="#D93C65"/>
</linearGradient>
<linearGradient id="paint41_linear_323_331" x1="1314.44" y1="208.16" x2="1246.04" y2="322.979" gradientUnits="userSpaceOnUse">
<stop stop-color="#FDF53F"/>
<stop offset="1" stop-color="#D93C65"/>
</linearGradient>
<linearGradient id="paint42_linear_323_331" x1="1203.15" y1="538.232" x2="1290.05" y2="416.672" gradientUnits="userSpaceOnUse">
<stop stop-color="#A737D5"/>
<stop offset="1" stop-color="#EF497A"/>
</linearGradient>
<linearGradient id="paint43_linear_323_331" x1="1237.43" y1="562.736" x2="1324.33" y2="441.179" gradientUnits="userSpaceOnUse">
<stop stop-color="#A737D5"/>
<stop offset="1" stop-color="#EF497A"/>
</linearGradient>
<clipPath id="clip0_323_331">
<rect width="1920" height="600" fill="white"/>
</clipPath>
</defs>
</svg>
