<svg width="20" height="20" viewBox="0 0 20 20" fill="none" xmlns="http://www.w3.org/2000/svg">
<path opacity="0.4" d="M10 18.3333C13.9903 18.3333 17.225 15.0986 17.225 11.1083C17.225 7.11804 13.9903 3.8833 10 3.8833C6.00977 3.8833 2.77502 7.11804 2.77502 11.1083C2.77502 15.0986 6.00977 18.3333 10 18.3333Z" fill="white"/>
<path d="M10 11.4583C9.65833 11.4583 9.375 11.175 9.375 10.8333V6.66663C9.375 6.32496 9.65833 6.04163 10 6.04163C10.3417 6.04163 10.625 6.32496 10.625 6.66663V10.8333C10.625 11.175 10.3417 11.4583 10 11.4583Z" fill="white"/>
<path d="M12.4084 2.87496H7.5917C7.25837 2.87496 6.9917 2.60829 6.9917 2.27496C6.9917 1.94163 7.25837 1.66663 7.5917 1.66663H12.4084C12.7417 1.66663 13.0084 1.93329 13.0084 2.26663C13.0084 2.59996 12.7417 2.87496 12.4084 2.87496Z" fill="white"/>
</svg>
