<svg width="40" height="40" viewBox="0 0 40 40" fill="none" xmlns="http://www.w3.org/2000/svg">
<rect opacity="0.4" width="40" height="40" rx="20" fill="#2E28D4"/>
<path d="M26.7744 15.7706C26.2655 15.9957 25.7257 16.1436 25.1731 16.2093C25.7556 15.8609 26.1916 15.3126 26.3998 14.6666C25.8531 14.992 25.2538 15.22 24.6291 15.3433C24.2095 14.8943 23.6533 14.5966 23.0471 14.4963C22.4408 14.3961 21.8184 14.4989 21.2766 14.7889C20.7348 15.0789 20.304 15.5397 20.0512 16.0998C19.7983 16.6599 19.7376 17.2878 19.8784 17.886C18.7698 17.8304 17.6853 17.5423 16.6953 17.0404C15.7053 16.5385 14.8318 15.834 14.1318 14.9726C13.884 15.3983 13.7537 15.8821 13.7544 16.3746C13.7544 17.3413 14.2464 18.1953 14.9944 18.6953C14.5518 18.6813 14.1188 18.5618 13.7318 18.3466V18.3813C13.7319 19.0251 13.9547 19.649 14.3623 20.1473C14.77 20.6456 15.3374 20.9876 15.9684 21.1153C15.5575 21.2266 15.1266 21.2431 14.7084 21.1633C14.8863 21.7174 15.2331 22.2021 15.7002 22.5494C16.1672 22.8966 16.7312 23.0891 17.3131 23.1C16.7347 23.5542 16.0725 23.8899 15.3643 24.0881C14.6562 24.2862 13.9158 24.3428 13.1858 24.2546C14.4602 25.0742 15.9438 25.5094 17.4591 25.508C22.5878 25.508 25.3924 21.2593 25.3924 17.5746C25.3924 17.4546 25.3891 17.3333 25.3838 17.2146C25.9297 16.8201 26.4008 16.3313 26.7751 15.7713L26.7744 15.7706Z" fill="white" fill-opacity="0.7"/>
</svg>
