<svg width="60" height="60" viewBox="0 0 60 60" fill="none" xmlns="http://www.w3.org/2000/svg">
<path d="M57.2477 25.5568C53.6494 16.1548 45.176 16.6191 44.6235 11.4347C43.5416 1.28449 41.128 -0.0757017 39.1627 0.00316546C36.0189 0.129376 31.3894 4.50164 26.663 4.14574C18.9709 3.56649 13.1841 -4.34262 5.64739 3.42902C-1.34765 10.642 7.80575 20.4023 4.18114 27.8957C2.37153 31.6365 0.116021 37.3382 1.26047 41.8436C4.89809 56.1641 16.3649 60.8331 33.4649 59.8815C57.1205 58.565 62.398 39.0141 57.2477 25.5568Z" fill="url(#paint0_linear_579_2434)"/>
<path opacity="0.1" d="M56.2577 41.6791L53.5164 41.2435C53.3109 40.5775 53.0442 39.9385 52.7235 39.3324L54.3548 37.0849C54.7041 36.6037 54.6517 35.9401 54.2313 35.5197L51.897 33.1852C51.4766 32.7649 50.8128 32.7125 50.3318 33.0617L50.2683 33.1077V10.2597C50.2683 9.61283 49.7433 9.08783 49.0964 9.08783H7.21582C6.56777 9.08783 6.04395 9.61283 6.04395 10.2597V51.1675C6.04395 51.8156 6.56777 52.3394 7.21582 52.3394H31.2472C31.1289 52.7519 31.2356 53.2097 31.554 53.5281L33.8884 55.8626C34.3088 56.283 34.9725 56.3354 35.4536 55.9861L37.7011 54.3549C38.3072 54.6756 38.9462 54.9424 39.6122 55.1478L40.0477 57.8892C40.1409 58.4764 40.6472 58.9086 41.2418 58.9086H44.5432C45.1377 58.9086 45.6441 58.4764 45.7373 57.8892L46.1729 55.1476C46.8389 54.9421 47.4778 54.6754 48.0839 54.3548L50.3316 55.9861C50.8127 56.3354 51.4764 56.283 51.8967 55.8626L54.2311 53.5281C54.6514 53.1078 54.7039 52.4442 54.3546 51.963L52.7234 49.7156C53.0441 49.1095 53.3108 48.4704 53.5162 47.8043L56.2575 47.3689C56.8446 47.2756 57.2769 46.7692 57.2769 46.1747V42.8733C57.2771 42.2786 56.845 41.7722 56.2577 41.6791Z" fill="#0000CC"/>
<path d="M50.2682 7.4472V48.355C50.2682 49.0031 49.7432 49.5269 49.0963 49.5269H7.21582C6.56777 49.5269 6.04395 49.0031 6.04395 48.355V7.4472C6.04395 6.80033 6.56777 6.27533 7.21582 6.27533H49.0963C49.7432 6.27533 50.2682 6.80021 50.2682 7.4472Z" fill="white"/>
<path d="M34.5944 40.774V49.5267H16.578V40.774C16.578 40.1259 17.1018 39.6021 17.7499 39.6021H33.4225C34.0694 39.6021 34.5944 40.1261 34.5944 40.774Z" fill="#6583FE"/>
<path d="M12.9526 6.27484H7.21533C6.56729 6.27484 6.04346 6.79984 6.04346 7.44672V48.3545C6.04346 49.0026 6.56729 49.5264 7.21533 49.5264H12.9526V6.27484Z" fill="#6583FE"/>
<path d="M10.5491 20.2333H8.91553C8.59197 20.2333 8.32959 19.9709 8.32959 19.6473V18.0137C8.32959 17.6902 8.59197 17.4278 8.91553 17.4278H10.5491C10.8727 17.4278 11.1351 17.6902 11.1351 18.0137V19.6473C11.1351 19.971 10.8727 20.2333 10.5491 20.2333Z" fill="white"/>
<path d="M10.5491 25.4502H8.91553C8.59197 25.4502 8.32959 25.1879 8.32959 24.8643V23.2307C8.32959 22.9072 8.59197 22.6448 8.91553 22.6448H10.5491C10.8727 22.6448 11.1351 22.9072 11.1351 23.2307V24.8643C11.1351 25.1879 10.8727 25.4502 10.5491 25.4502Z" fill="white"/>
<path d="M10.5491 30.6671H8.91553C8.59197 30.6671 8.32959 30.4048 8.32959 30.0812V28.4476C8.32959 28.1241 8.59197 27.8617 8.91553 27.8617H10.5491C10.8727 27.8617 11.1351 28.1241 11.1351 28.4476V30.0812C11.1351 30.4048 10.8727 30.6671 10.5491 30.6671Z" fill="white"/>
<path d="M50.2674 15.2697V7.4466C50.2674 6.79937 49.7428 6.27472 49.0955 6.27472H7.21484C6.56762 6.27472 6.04297 6.79937 6.04297 7.4466V15.2697H50.2674Z" fill="#6583FE"/>
<path d="M38.5603 12.5882H10.8522C10.5286 12.5882 10.2662 12.3258 10.2662 12.0022V9.77649C10.2662 9.45293 10.5286 9.19055 10.8522 9.19055H38.5602C38.8838 9.19055 39.1461 9.45293 39.1461 9.77649V12.0022C39.1463 12.3258 38.8839 12.5882 38.5603 12.5882Z" fill="white"/>
<path d="M42.4022 10.3624C42.7258 10.3624 42.9882 10.1001 42.9882 9.77649C42.9882 9.45288 42.7258 9.19055 42.4022 9.19055C42.0786 9.19055 41.8163 9.45288 41.8163 9.77649C41.8163 10.1001 42.0786 10.3624 42.4022 10.3624Z" fill="white"/>
<path d="M42.4022 12.5882C42.7258 12.5882 42.9882 12.3259 42.9882 12.0023C42.9882 11.6787 42.7258 11.4163 42.4022 11.4163C42.0786 11.4163 41.8163 11.6787 41.8163 12.0023C41.8163 12.3259 42.0786 12.5882 42.4022 12.5882Z" fill="white"/>
<path d="M44.4299 10.3624C44.7535 10.3624 45.0159 10.1001 45.0159 9.77649C45.0159 9.45288 44.7535 9.19055 44.4299 9.19055C44.1063 9.19055 43.844 9.45288 43.844 9.77649C43.844 10.1001 44.1063 10.3624 44.4299 10.3624Z" fill="white"/>
<path d="M44.4299 12.5882C44.7535 12.5882 45.0159 12.3259 45.0159 12.0023C45.0159 11.6787 44.7535 11.4163 44.4299 11.4163C44.1063 11.4163 43.844 11.6787 43.844 12.0023C43.844 12.3259 44.1063 12.5882 44.4299 12.5882Z" fill="white"/>
<path d="M46.4576 10.3624C46.7812 10.3624 47.0436 10.1001 47.0436 9.77649C47.0436 9.45288 46.7812 9.19055 46.4576 9.19055C46.134 9.19055 45.8717 9.45288 45.8717 9.77649C45.8717 10.1001 46.134 10.3624 46.4576 10.3624Z" fill="white"/>
<path d="M46.4576 12.5882C46.7812 12.5882 47.0436 12.3259 47.0436 12.0023C47.0436 11.6787 46.7812 11.4163 46.4576 11.4163C46.134 11.4163 45.8717 11.6787 45.8717 12.0023C45.8717 12.3259 46.134 12.5882 46.4576 12.5882Z" fill="white"/>
<path d="M56.2578 38.8664L53.5165 38.4309C53.311 37.765 53.0443 37.1259 52.7236 36.5198L54.3549 34.2723C54.7042 33.7911 54.6518 33.1275 54.2314 32.7072L51.8969 30.3727C51.4766 29.9523 50.8128 29.8999 50.3318 30.2491L48.0842 31.8804C47.4781 31.5597 46.8391 31.2929 46.1732 31.0875L45.7377 28.3461C45.6444 27.7589 45.138 27.3267 44.5435 27.3267H41.2421C40.6476 27.3267 40.1413 27.7589 40.048 28.3461L39.6125 31.0874C38.9464 31.2928 38.3074 31.5595 37.7013 31.8803L35.4539 30.249C34.9727 29.8998 34.3091 29.9522 33.8887 30.3725L31.5542 32.707C31.1339 33.1274 31.0814 33.7911 31.4307 34.2722L33.0621 36.5197C32.7415 37.1258 32.4748 37.7647 32.2693 38.4307L29.5278 38.8663C28.9406 38.9596 28.5084 39.4659 28.5084 40.0604V43.3618C28.5084 43.9563 28.9406 44.4627 29.5278 44.556L32.2692 44.9915C32.4746 45.6574 32.7414 46.2965 33.0621 46.9025L31.4308 49.1501C31.0816 49.6313 31.134 50.2949 31.5544 50.7152L33.8889 53.0497C34.3092 53.4701 34.973 53.5225 35.454 53.1733L37.7015 51.542C38.3076 51.8627 38.9467 52.1295 39.6126 52.3349L40.0481 55.0763C40.1414 55.6635 40.6478 56.0957 41.2423 56.0957H44.5437C45.1382 56.0957 45.6445 55.6635 45.7378 55.0763L46.1734 52.3347C46.8394 52.1292 47.4783 51.8625 48.0844 51.5419L50.332 53.1733C50.8132 53.5225 51.4768 53.4701 51.8972 53.0497L54.2317 50.7152C54.652 50.2949 54.7044 49.6311 54.3552 49.1501L52.7239 46.9027C53.0447 46.2966 53.3115 45.6575 53.5168 44.9915L56.2581 44.556C56.8453 44.4627 57.2775 43.9563 57.2775 43.3618V40.0606C57.2773 39.4661 56.8451 38.9597 56.2578 38.8664ZM48.7038 41.712C48.7038 44.9206 46.1021 47.5222 42.892 47.5222C39.6834 47.5222 37.0817 44.9206 37.0817 41.712C37.0817 38.502 39.6834 35.9002 42.892 35.9002C46.1021 35.9002 48.7038 38.502 48.7038 41.712Z" fill="#6583FE"/>
<path d="M42.5839 53.3148L42.0997 50.2669C42.3608 50.2909 42.6251 50.3031 42.8922 50.3031C43.1597 50.3031 43.4245 50.2908 43.6859 50.2668L43.2016 53.3148H42.5839ZM48.3783 48.3194C48.7859 47.9805 49.1619 47.6044 49.5008 47.1969L51.3161 49.6978L50.8793 50.1346L48.3783 48.3194ZM34.4694 49.6978L36.2845 47.1971C36.6234 47.6045 36.9995 47.9806 37.407 48.3195L34.9062 50.1346L34.4694 49.6978ZM31.2892 42.0202V41.4025L34.3371 40.9183C34.3131 41.1796 34.3008 41.4444 34.3008 41.712C34.3008 41.9792 34.3131 42.2434 34.337 42.5044L31.2892 42.0202ZM51.4486 42.5043C51.4726 42.2433 51.4848 41.9791 51.4848 41.712C51.4848 41.4444 51.4725 41.1797 51.4485 40.9183L54.4964 41.4025V42.0202L51.4486 42.5043ZM49.5007 36.2259C49.1618 35.8183 48.7857 35.4423 48.3782 35.1033L50.8793 33.288L51.3161 33.7247L49.5007 36.2259ZM34.4694 33.7248L34.9063 33.288L37.4072 35.1032C36.9997 35.4421 36.6237 35.8183 36.2848 36.2259L34.4694 33.7248ZM43.6859 33.1557C43.4245 33.1315 43.1597 33.1193 42.8922 33.1193C42.625 33.1193 42.3608 33.1315 42.0998 33.1555L42.5841 30.1077H43.2018L43.6859 33.1557Z" fill="white"/>
<path d="M27.8904 48.9407H7.21484C6.89176 48.9407 6.62891 48.6778 6.62891 48.3548V15.8556H49.6815V26.72C49.6815 27.0436 49.9437 27.3059 50.2674 27.3059C50.5911 27.3059 50.8534 27.0436 50.8534 26.72V7.44659C50.8534 6.47734 50.0648 5.68878 49.0955 5.68878H7.21484C6.24559 5.68878 5.45703 6.47734 5.45703 7.44659V48.3548C5.45703 49.324 6.24559 50.1126 7.21484 50.1126H27.8904C28.214 50.1126 28.4763 49.8503 28.4763 49.5266C28.4763 49.203 28.214 48.9407 27.8904 48.9407ZM7.21484 6.86066H49.0955C49.4186 6.86066 49.6815 7.12351 49.6815 7.44659V14.6837H6.62891V7.44659C6.62891 7.12351 6.89187 6.86066 7.21484 6.86066Z" fill="#0000CC"/>
<path d="M56.3498 38.2877L53.9624 37.9086C53.806 37.454 53.6207 37.0072 53.4085 36.5738L54.8292 34.6165C55.3507 33.8979 55.2735 32.9207 54.6457 32.2929L52.3113 29.9585C51.6835 29.3306 50.7061 29.2534 49.9877 29.775L48.0303 31.1957C47.5969 30.9834 47.15 30.7981 46.6956 30.6417L46.3164 28.2544C46.177 27.3775 45.4315 26.7409 44.5435 26.7409H41.2421C40.3542 26.7409 39.6087 27.3775 39.4692 28.2544L39.0901 30.6416C38.6355 30.7979 38.1888 30.9833 37.7551 31.1956L35.7981 29.7751C35.0795 29.2534 34.1021 29.3304 33.4744 29.9585L31.14 32.2929C30.5121 32.9208 30.4349 33.898 30.9565 34.6165L32.3772 36.5739C32.1649 37.0075 31.9795 37.4543 31.8233 37.9086L29.4358 38.2877C28.5589 38.4271 27.9224 39.1727 27.9224 40.0607V43.3621C27.9224 44.25 28.5589 44.9954 29.4358 45.1349L31.8232 45.5141C31.9794 45.9684 32.1648 46.4152 32.3771 46.849L30.9566 48.8061C30.435 49.5247 30.5121 50.502 31.14 51.1299L33.4744 53.4642C34.1021 54.0921 35.0792 54.1692 35.7981 53.6477L37.7552 52.2271C38.1887 52.4393 38.6355 52.6247 39.0901 52.781L39.4692 55.1684C39.6085 56.0453 40.3542 56.6818 41.2421 56.6818H44.5435C45.4315 56.6818 46.1769 56.0453 46.3164 55.1684L46.6956 52.7808C47.15 52.6245 47.5967 52.4392 48.0303 52.227L49.9877 53.6477C50.7062 54.1693 51.6835 54.0919 52.3113 53.4642L54.6457 51.1299C55.2735 50.5021 55.3508 49.5249 54.8292 48.8063L53.4087 46.849C53.6209 46.4155 53.8063 45.9687 53.9626 45.5141L56.3498 45.1349C57.2268 44.9956 57.8633 44.25 57.8633 43.3621V40.0607C57.8633 39.1726 57.2268 38.4271 56.3498 38.2877ZM56.6914 43.362C56.6914 43.6702 56.4704 43.929 56.1661 43.9773L53.4248 44.4129C53.2042 44.4481 53.0226 44.6056 52.9568 44.819C52.7651 45.4407 52.5124 46.0495 52.206 46.6287C52.1013 46.8263 52.1183 47.066 52.2496 47.2468L53.8808 49.4944C54.0619 49.7439 54.035 50.0831 53.8172 50.3012L51.4828 52.6356C51.265 52.8534 50.9256 52.8804 50.676 52.6992L48.4283 51.0679C48.2476 50.9366 48.0077 50.9195 47.8103 51.0241C47.2311 51.3306 46.6222 51.5833 46.0005 51.7749C45.7871 51.8407 45.6296 52.0222 45.5945 52.2429L45.1589 54.9845C45.1106 55.289 44.8517 55.5098 44.5435 55.5098H41.2421C40.9338 55.5098 40.6749 55.2888 40.6267 54.9845L40.1912 52.2431C40.156 52.0225 39.9985 51.8409 39.7851 51.7751C39.1633 51.5834 38.5546 51.3307 37.9754 51.0243C37.8894 50.9786 37.7952 50.9562 37.7014 50.9562C37.58 50.9562 37.4592 50.9938 37.3571 51.0679L35.1097 52.6992C34.8601 52.8805 34.521 52.8534 34.3029 52.6356L31.9685 50.3012C31.7505 50.0833 31.7237 49.7439 31.9049 49.4944L33.5361 47.2468C33.6674 47.066 33.6844 46.8263 33.5798 46.6288C33.2731 46.0492 33.0206 45.4402 32.829 44.819C32.7631 44.6056 32.5816 44.4481 32.361 44.4129L29.6196 43.9773C29.3151 43.929 29.0942 43.6702 29.0942 43.362V40.0606C29.0942 39.7522 29.3153 39.4934 29.6196 39.4451L32.3611 39.0096C32.5817 38.9745 32.7633 38.817 32.8291 38.6036C33.0207 37.9821 33.2734 37.3733 33.5799 36.7938C33.6845 36.5963 33.6675 36.3566 33.5362 36.1758L31.9047 33.928C31.7237 33.6786 31.7505 33.3394 31.9685 33.1213L34.3029 30.7869C34.5208 30.5691 34.8602 30.542 35.1096 30.7233L37.357 32.3545C37.538 32.4857 37.7776 32.503 37.9753 32.3981C38.5546 32.0917 39.1636 31.839 39.7851 31.6473C39.9985 31.5815 40.156 31.3999 40.1912 31.1793L40.6267 28.438C40.6749 28.1336 40.9338 27.9127 41.2421 27.9127H44.5435C44.8517 27.9127 45.1106 28.1337 45.1589 28.438L45.5945 31.1794C45.6296 31.4 45.7871 31.5816 46.0005 31.6474C46.6221 31.8391 47.2309 32.0917 47.8101 32.3982C48.0077 32.503 48.2476 32.4859 48.4283 32.3547L50.6761 30.7232C50.9256 30.5422 51.2647 30.5692 51.4828 30.7869L53.8172 33.1213C54.035 33.3393 54.0619 33.6786 53.8808 33.928L52.2494 36.1756C52.1182 36.3565 52.1012 36.5964 52.2059 36.7938C52.5122 37.3726 52.7648 37.9815 52.9566 38.6036C53.0224 38.817 53.2039 38.9745 53.4246 39.0096L56.1661 39.4451C56.4705 39.4934 56.6914 39.7522 56.6914 40.0606V43.362Z" fill="#0000CC"/>
<path d="M42.8921 35.3144C39.3652 35.3144 36.4958 38.1843 36.4958 41.712C36.4958 45.239 39.3652 48.1083 42.8921 48.1083C46.4199 48.1083 49.2898 45.239 49.2898 41.712C49.2897 38.1843 46.4198 35.3144 42.8921 35.3144ZM42.8921 46.9363C40.0114 46.9363 37.6677 44.5927 37.6677 41.7119C37.6677 38.8304 40.0114 36.4861 42.8921 36.4861C45.7736 36.4861 48.1179 38.8304 48.1179 41.7119C48.1178 44.5927 45.7736 46.9363 42.8921 46.9363Z" fill="#0000CC"/>
<path d="M17.1633 18.8305H19.341C19.6646 18.8305 19.927 18.5681 19.927 18.2446C19.927 17.921 19.6646 17.6586 19.341 17.6586H17.1633C16.8398 17.6586 16.5774 17.921 16.5774 18.2446C16.5774 18.5681 16.8398 18.8305 17.1633 18.8305Z" fill="#0000CC"/>
<path d="M17.1633 21.2189H26.3723C26.6958 21.2189 26.9582 20.9566 26.9582 20.633C26.9582 20.3094 26.6958 20.0471 26.3723 20.0471H17.1633C16.8398 20.0471 16.5774 20.3094 16.5774 20.633C16.5774 20.9566 16.8398 21.2189 17.1633 21.2189Z" fill="#0000CC"/>
<path d="M17.1633 23.6075H21.6848C22.0083 23.6075 22.2707 23.3451 22.2707 23.0215C22.2707 22.698 22.0083 22.4356 21.6848 22.4356H17.1633C16.8398 22.4356 16.5774 22.698 16.5774 23.0215C16.5774 23.3451 16.8398 23.6075 17.1633 23.6075Z" fill="#0000CC"/>
<path d="M39.085 20.0471H29.173C28.8494 20.0471 28.587 20.3094 28.587 20.633C28.587 20.9566 28.8494 21.2189 29.173 21.2189H39.085C39.4086 21.2189 39.671 20.9566 39.671 20.633C39.671 20.3094 39.4087 20.0471 39.085 20.0471Z" fill="#0000CC"/>
<path d="M23.8995 23.0215C23.8995 23.3451 24.1619 23.6075 24.4855 23.6075H34.3975C34.7211 23.6075 34.9835 23.3451 34.9835 23.0215C34.9835 22.698 34.7211 22.4356 34.3975 22.4356H24.4855C24.1619 22.4356 23.8995 22.698 23.8995 23.0215Z" fill="#0000CC"/>
<path d="M26.9582 25.41C26.9582 25.0865 26.6958 24.8241 26.3723 24.8241H17.1633C16.8398 24.8241 16.5774 25.0865 16.5774 25.41C16.5774 25.7336 16.8398 25.996 17.1633 25.996H26.3723C26.6958 25.996 26.9582 25.7336 26.9582 25.41Z" fill="#0000CC"/>
<path d="M17.1633 27.2125C16.8398 27.2125 16.5774 27.4749 16.5774 27.7985C16.5774 28.122 16.8398 28.3844 17.1633 28.3844H21.6848C22.0083 28.3844 22.2707 28.122 22.2707 27.7985C22.2707 27.4749 22.0083 27.2125 21.6848 27.2125H17.1633Z" fill="#0000CC"/>
<path d="M39.671 25.41C39.671 25.0865 39.4086 24.8241 39.085 24.8241H29.173C28.8494 24.8241 28.587 25.0865 28.587 25.41C28.587 25.7336 28.8494 25.996 29.173 25.996H39.085C39.4087 25.996 39.671 25.7336 39.671 25.41Z" fill="#0000CC"/>
<path d="M24.4855 28.3844H34.3975C34.7211 28.3844 34.9835 28.122 34.9835 27.7985C34.9835 27.4749 34.7211 27.2125 34.3975 27.2125H24.4855C24.1619 27.2125 23.8995 27.4749 23.8995 27.7985C23.8995 28.122 24.1619 28.3844 24.4855 28.3844Z" fill="#0000CC"/>
<path d="M18.9799 37.5665C18.8301 37.5665 18.6799 37.5094 18.5657 37.3949L16.749 35.5782C16.5202 35.3495 16.5202 34.9785 16.749 34.7497L18.5657 32.9331C18.7943 32.7042 19.1656 32.7042 19.3942 32.9331C19.6231 33.1618 19.6231 33.5328 19.3942 33.7616L17.9919 35.164L19.3942 36.5663C19.6231 36.7951 19.6231 37.1661 19.3942 37.3949C19.2799 37.5094 19.1298 37.5665 18.9799 37.5665Z" fill="#6583FE"/>
<path d="M23.6296 37.5665C23.4797 37.5665 23.3296 37.5094 23.2154 37.3949C22.9865 37.1661 22.9865 36.7951 23.2154 36.5663L24.6176 35.164L23.2154 33.7617C22.9865 33.533 22.9865 33.1619 23.2154 32.9332C23.444 32.7043 23.8152 32.7043 24.0439 32.9332L25.8605 34.7498C26.0894 34.9786 26.0894 35.3496 25.8605 35.5783L24.0439 37.395C23.9295 37.5094 23.7795 37.5665 23.6296 37.5665Z" fill="#6583FE"/>
<path d="M4.77718 5.3372C4.45351 5.3372 4.19124 5.07493 4.19124 4.75126C4.19124 4.34204 3.85819 4.00911 3.44897 4.00911C3.1253 4.00911 2.86304 3.74685 2.86304 3.42317C2.86304 3.0995 3.1253 2.83724 3.44897 2.83724C3.85819 2.83724 4.19124 2.50419 4.19124 2.09497C4.19124 1.7713 4.45351 1.50903 4.77718 1.50903C5.10085 1.50903 5.36312 1.7713 5.36312 2.09497C5.36312 2.50419 5.69604 2.83724 6.10526 2.83724C6.42894 2.83724 6.6912 3.0995 6.6912 3.42317C6.6912 3.74685 6.42894 4.00911 6.10526 4.00911C5.69604 4.00911 5.36312 4.34204 5.36312 4.75126C5.36312 5.07493 5.10073 5.3372 4.77718 5.3372Z" fill="#8383FF"/>
<path d="M54.4962 17.1838C54.1725 17.1838 53.9102 16.9215 53.9102 16.5979C53.9102 16.1887 53.5773 15.8556 53.1681 15.8556C52.8444 15.8556 52.5822 15.5933 52.5822 15.2697C52.5822 14.946 52.8444 14.6837 53.1681 14.6837C53.5773 14.6837 53.9102 14.3508 53.9102 13.9416C53.9102 13.6179 54.1725 13.3557 54.4962 13.3557C54.8198 13.3557 55.0821 13.6179 55.0821 13.9416C55.0821 14.3508 55.4152 14.6837 55.8244 14.6837C56.1481 14.6837 56.4103 14.946 56.4103 15.2697C56.4103 15.5933 56.1481 15.8556 55.8244 15.8556C55.4152 15.8556 55.0821 16.1887 55.0821 16.5979C55.0821 16.9214 54.8198 17.1838 54.4962 17.1838Z" fill="#8383FF"/>
<path d="M29.2108 55.1538C29.0609 55.1538 28.9108 55.0967 28.7965 54.9822L28.1561 54.3418L27.5157 54.9822C27.287 55.211 26.9158 55.211 26.6872 54.9822C26.4583 54.7534 26.4583 54.3824 26.6872 54.1536L27.7418 53.099C27.9705 52.8701 28.3417 52.8701 28.5704 53.099L29.625 54.1536C29.8539 54.3824 29.8539 54.7534 29.625 54.9822C29.5107 55.0967 29.3607 55.1538 29.2108 55.1538Z" fill="#8383FF"/>
<path d="M55.8244 29.1519C55.6745 29.1519 55.5244 29.0948 55.4102 28.9803L54.7697 28.34L54.1293 28.9803C53.9007 29.2091 53.5294 29.2091 53.3008 28.9803C53.0719 28.7515 53.0719 28.3805 53.3008 28.1518L54.3555 27.0971C54.5841 26.8682 54.9554 26.8682 55.184 27.0971L56.2387 28.1518C56.4676 28.3805 56.4676 28.7515 56.2387 28.9803C56.1244 29.0946 55.9743 29.1519 55.8244 29.1519Z" fill="#8383FF"/>
<path d="M23.3254 56.6819C23.1755 56.6819 23.0254 56.6247 22.9111 56.5102L22.2707 55.8699L21.6303 56.5102C21.4017 56.739 21.0304 56.739 20.8018 56.5102C20.5729 56.2814 20.5729 55.9104 20.8018 55.6817L21.8565 54.627C22.0851 54.3981 22.4563 54.3981 22.685 54.627L23.7397 55.6817C23.9685 55.9104 23.9685 56.2814 23.7397 56.5102C23.6254 56.6246 23.4753 56.6819 23.3254 56.6819Z" fill="#8383FF"/>
<defs>
<linearGradient id="paint0_linear_579_2434" x1="0.949927" y1="30" x2="59.0501" y2="30" gradientUnits="userSpaceOnUse">
<stop stop-color="#D2DEFF" stop-opacity="0"/>
<stop offset="1" stop-color="#B7C5FF"/>
</linearGradient>
</defs>
</svg>
