<svg width="60" height="60" viewBox="0 0 60 60" fill="none" xmlns="http://www.w3.org/2000/svg">
<g clip-path="url(#clip0_580_2568)">
<path d="M1.88368 36.139C4.07825 43.6394 10.404 58.9395 21.0933 57.5662C31.8143 56.1886 27.6274 42.364 37.4419 40.4692C41.7622 39.6351 44.6907 47.1125 49.0207 46.8798C54.5974 46.5802 57.4359 41.06 58.9943 36.4192C62.2986 26.5792 57.3503 9.89359 45.7687 7.00375C35.6619 4.48199 34.4798 16.8305 25.692 13.2437C20.7526 11.2278 21.2461 5.2075 15.2304 3.99273C-2.96871 0.317848 -1.03652 26.1589 1.88368 36.139Z" fill="url(#paint0_linear_580_2568)"/>
<path d="M20.605 6.09711C20.2814 6.09711 20.019 5.83484 20.019 5.51117C20.019 5.1234 19.7037 4.80804 19.3159 4.80804C18.9924 4.80804 18.73 4.54578 18.73 4.22211C18.73 3.89843 18.9924 3.63617 19.3159 3.63617C19.7037 3.63617 20.019 3.32082 20.019 2.93304C20.019 2.60937 20.2814 2.34711 20.605 2.34711C20.9285 2.34711 21.1909 2.60937 21.1909 2.93304C21.1909 3.32082 21.5063 3.63617 21.894 3.63617C22.2176 3.63617 22.48 3.89843 22.48 4.22211C22.48 4.54578 22.2176 4.80804 21.894 4.80804C21.5063 4.80804 21.1909 5.1234 21.1909 5.51117C21.1909 5.83472 20.9285 6.09711 20.605 6.09711Z" fill="#6583FE"/>
<path d="M49.0281 7.97211C48.7045 7.97211 48.4421 7.70984 48.4421 7.38617C48.4421 6.9984 48.1267 6.68304 47.7389 6.68304C47.4153 6.68304 47.153 6.42078 47.153 6.09711C47.153 5.77343 47.4153 5.51117 47.7389 5.51117C48.1267 5.51117 48.4421 5.19582 48.4421 4.80804C48.4421 4.48437 48.7045 4.22211 49.0281 4.22211C49.3516 4.22211 49.614 4.48437 49.614 4.80804C49.614 5.19582 49.9294 5.51117 50.317 5.51117C50.6406 5.51117 50.903 5.77343 50.903 6.09711C50.903 6.42078 50.6406 6.68304 50.317 6.68304C49.9294 6.68304 49.614 6.9984 49.614 7.38617C49.614 7.70972 49.3516 7.97211 49.0281 7.97211Z" fill="#6583FE"/>
<path opacity="0.1" d="M53.3754 53.6297H6.62463C5.65385 53.6297 4.86682 52.8427 4.86682 51.8719V15.0438C4.86682 14.073 5.65385 13.286 6.62463 13.286H53.3754C54.3462 13.286 55.1332 14.073 55.1332 15.0438V51.8719C55.1332 52.8428 54.3463 53.6297 53.3754 53.6297Z" fill="#2626BC"/>
<path d="M53.3754 50.8172H6.62463C5.65385 50.8172 4.86682 50.0302 4.86682 49.0594V12.2313C4.86682 11.2605 5.65385 10.4735 6.62463 10.4735H53.3754C54.3462 10.4735 55.1332 11.2605 55.1332 12.2313V49.0594C55.1332 50.0303 54.3463 50.8172 53.3754 50.8172Z" fill="white"/>
<path d="M4.86682 18.5961H55.1332V34.7071H4.86682V18.5961Z" fill="white"/>
<path d="M28.602 29.5754C28.602 31.3625 28.3313 33.0864 27.8274 34.7071H4.86682V18.5961H24.668C27.1254 21.5821 28.602 25.4059 28.602 29.5754Z" fill="#6583FE"/>
<path d="M55.1332 18.5961V12.2313C55.1332 11.2605 54.3462 10.4735 53.3754 10.4735H6.62463C5.65385 10.4735 4.86682 11.2605 4.86682 12.2313V18.5961H55.1332Z" fill="#6583FE"/>
<path d="M53.3754 51.4031H6.62463C5.33229 51.4031 4.28088 50.3517 4.28088 49.0594V12.2313C4.28088 10.939 5.33229 9.88757 6.62463 9.88757H53.3754C54.6678 9.88757 55.7192 10.939 55.7192 12.2313V49.0594C55.7192 50.3517 54.6678 51.4031 53.3754 51.4031ZM6.62463 11.0594C5.97846 11.0594 5.45276 11.5852 5.45276 12.2313V49.0594C5.45276 49.7055 5.97846 50.2312 6.62463 50.2312H53.3754C54.0216 50.2312 54.5473 49.7055 54.5473 49.0594V12.2313C54.5473 11.5852 54.0216 11.0594 53.3754 11.0594H6.62463Z" fill="#2626BC"/>
<path d="M10.0339 16.0753C10.7395 16.0753 11.3114 15.5034 11.3114 14.7978C11.3114 14.0923 10.7395 13.5204 10.0339 13.5204C9.32841 13.5204 8.75647 14.0923 8.75647 14.7978C8.75647 15.5034 9.32841 16.0753 10.0339 16.0753Z" fill="white"/>
<path d="M14.1122 16.0753C14.8177 16.0753 15.3896 15.5034 15.3896 14.7978C15.3896 14.0923 14.8177 13.5204 14.1122 13.5204C13.4067 13.5204 12.8347 14.0923 12.8347 14.7978C12.8347 15.5034 13.4067 16.0753 14.1122 16.0753Z" fill="white"/>
<path d="M18.1903 16.0753C18.8958 16.0753 19.4678 15.5034 19.4678 14.7978C19.4678 14.0923 18.8958 13.5204 18.1903 13.5204C17.4848 13.5204 16.9128 14.0923 16.9128 14.7978C16.9128 15.5034 17.4848 16.0753 18.1903 16.0753Z" fill="white"/>
<path d="M50.6574 16.2331H34.7014V13.3625H50.6574C50.981 13.3625 51.2434 13.6249 51.2434 13.9484V15.6472C51.2434 15.9707 50.9811 16.2331 50.6574 16.2331Z" fill="white"/>
<path d="M34.7799 13.3991C34.1605 12.7796 33.1525 12.7796 32.5331 13.3991C31.9136 14.0186 31.9136 15.0265 32.5331 15.6459C33.0062 16.119 33.7053 16.2295 34.2854 15.9801L34.7949 16.4897C35.0238 16.7184 35.3948 16.7184 35.6235 16.4897C35.8523 16.2609 35.8523 15.8898 35.6235 15.661L35.114 15.1515C35.3635 14.5713 35.253 13.8721 34.7799 13.3991ZM33.3617 14.2277C33.5242 14.0652 33.7887 14.0652 33.9513 14.2277C34.1138 14.3903 34.1138 14.6548 33.9513 14.8173C33.7887 14.9798 33.5242 14.9798 33.3617 14.8173C33.1992 14.6546 33.1992 14.3903 33.3617 14.2277Z" fill="#2626BC"/>
<path d="M15.961 44.0517C18.1106 43.6988 19.5672 41.6702 19.2144 39.5206C18.8616 37.371 16.833 35.9144 14.6834 36.2672C12.5337 36.62 11.0772 38.6487 11.43 40.7983C11.7828 42.9479 13.8114 44.4045 15.961 44.0517Z" fill="#6583FE"/>
<path d="M13.9244 41.6483C13.5811 41.9999 13.3678 42.4803 13.3678 43.0088V43.5842C13.7276 43.7881 14.1213 43.9381 14.5397 44.0213V43.0088C14.5397 42.5823 14.8865 42.2342 15.3143 42.2342C15.742 42.2342 16.0889 42.5823 16.0889 43.0088V44.0213C16.5073 43.9381 16.9022 43.7881 17.2608 43.5842V43.0088C17.2608 42.4803 17.0487 41.9999 16.7041 41.6483C17.0487 41.2967 17.2608 40.8163 17.2608 40.2877C17.2608 39.2143 16.3877 38.3401 15.3143 38.3401C14.2408 38.3401 13.3678 39.2143 13.3678 40.2877C13.3678 40.8163 13.5811 41.2967 13.9244 41.6483ZM14.5397 40.2877C14.5397 39.86 14.8865 39.512 15.3143 39.512C15.742 39.512 16.0889 39.86 16.0889 40.2877C16.0889 40.7143 15.742 41.0624 15.3143 41.0624C14.8865 41.0624 14.5397 40.7143 14.5397 40.2877Z" fill="#2626BC"/>
<path d="M35.1646 42.77H21.1395C20.816 42.77 20.5536 43.0323 20.5536 43.3559C20.5536 43.6795 20.816 43.9418 21.1395 43.9418H35.1646C35.4882 43.9418 35.7506 43.6795 35.7506 43.3559C35.7506 43.0322 35.4882 42.77 35.1646 42.77Z" fill="#2626BC"/>
<path d="M48.6294 46.2609H21.1395C20.816 46.2609 20.5536 46.5232 20.5536 46.8468C20.5536 47.1704 20.816 47.4327 21.1395 47.4327H48.6294C48.9529 47.4327 49.2153 47.1704 49.2153 46.8468C49.2153 46.5232 48.9529 46.2609 48.6294 46.2609Z" fill="#2626BC"/>
<path d="M30.5943 40.4932H21.1395C20.816 40.4932 20.5536 40.7556 20.5536 41.0792C20.5536 41.4027 20.816 41.6651 21.1395 41.6651H30.5943C30.9179 41.6651 31.1803 41.4027 31.1803 41.0792C31.1803 40.7556 30.9179 40.4932 30.5943 40.4932Z" fill="#2626BC"/>
<path d="M22.5084 37.7575H21.1395C20.816 37.7575 20.5536 38.0199 20.5536 38.3434C20.5536 38.667 20.816 38.9294 21.1395 38.9294H22.5084C22.8319 38.9294 23.0943 38.667 23.0943 38.3434C23.0943 38.0199 22.8319 37.7575 22.5084 37.7575Z" fill="#2626BC"/>
<path d="M46.2569 28.2923C48.2627 27.4407 49.1985 25.1243 48.3469 23.1185C47.4954 21.1126 45.1789 20.1768 43.1731 21.0284C41.1672 21.88 40.2315 24.1964 41.083 26.2023C41.9346 28.2081 44.251 29.1439 46.2569 28.2923Z" fill="#6583FE"/>
<path d="M46.6322 24.7981C46.6322 23.7247 45.7592 22.8505 44.6857 22.8505C43.6123 22.8505 42.7393 23.7247 42.7393 24.7981C42.7393 25.3266 42.9514 25.8071 43.2959 26.1587C42.9514 26.5102 42.7393 26.9907 42.7393 27.5192V28.0946C43.0979 28.2985 43.4928 28.4485 43.9111 28.5317V27.5192C43.9111 27.0927 44.258 26.7446 44.6857 26.7446C45.1135 26.7446 45.4603 27.0927 45.4603 27.5192V28.5317C45.8787 28.4485 46.2725 28.2985 46.6322 28.0946V27.5192C46.6322 26.9907 46.4189 26.5102 46.0756 26.1587C46.4189 25.8071 46.6322 25.3266 46.6322 24.7981ZM44.6857 25.5727C44.258 25.5727 43.9111 25.2247 43.9111 24.7981C43.9111 24.3704 44.258 24.0223 44.6857 24.0223C45.1135 24.0223 45.4603 24.3704 45.4603 24.7981C45.4603 25.2247 45.1135 25.5727 44.6857 25.5727Z" fill="#2626BC"/>
<path d="M28.3511 27.2804H38.8606C39.1841 27.2804 39.4465 27.5428 39.4465 27.8663C39.4465 28.1899 39.1841 28.4523 38.8606 28.4523H28.3511C28.0275 28.4523 27.7651 28.1899 27.7651 27.8663C27.7651 27.5428 28.0275 27.2804 28.3511 27.2804Z" fill="#2626BC"/>
<path d="M11.9567 30.7714H38.8606C39.1841 30.7714 39.4465 31.0338 39.4465 31.3574C39.4465 31.6809 39.1841 31.9433 38.8606 31.9433H11.9567C11.6331 31.9433 11.3707 31.6809 11.3707 31.3574C11.3707 31.0338 11.6331 30.7714 11.9567 30.7714Z" fill="#2626BC"/>
<path d="M32.9214 24.9707H38.8606C39.1841 24.9707 39.4465 25.2331 39.4465 25.5566C39.4465 25.8802 39.1841 26.1426 38.8606 26.1426H32.9214C32.5978 26.1426 32.3354 25.8802 32.3354 25.5566C32.3354 25.2331 32.5978 24.9707 32.9214 24.9707Z" fill="#2626BC"/>
<path d="M38.8606 22.5866H37.4917C37.1681 22.5866 36.9058 22.849 36.9058 23.1725C36.9058 23.4961 37.1681 23.7585 37.4917 23.7585H38.8606C39.1841 23.7585 39.4465 23.4961 39.4465 23.1725C39.4465 22.8489 39.1841 22.5866 38.8606 22.5866Z" fill="#2626BC"/>
<path d="M48.6292 31.3574C48.6292 31.681 48.3669 31.9435 48.0431 31.9435C47.7194 31.9435 47.4569 31.6811 47.4569 31.3574C47.4569 31.0337 47.7193 30.7712 48.0431 30.7712C48.3667 30.7712 48.6292 31.0336 48.6292 31.3574Z" fill="#2626BC"/>
<path d="M12.5431 46.8596C12.5431 47.1832 12.2807 47.4457 11.9569 47.4457C11.6332 47.4457 11.3707 47.1833 11.3707 46.8596C11.3707 46.5359 11.6331 46.2734 11.9569 46.2734C12.2807 46.2734 12.5431 46.5359 12.5431 46.8596Z" fill="#2626BC"/>
<path d="M36.6619 57.0406C35.7385 57.0406 34.9871 56.2893 34.9871 55.3658C34.9871 54.4423 35.7383 53.691 36.6619 53.691C37.5853 53.691 38.3368 54.4423 38.3368 55.3658C38.3366 56.2893 37.5853 57.0406 36.6619 57.0406ZM36.6619 54.8629C36.3846 54.8629 36.1589 55.0885 36.1589 55.3658C36.1589 55.643 36.3845 55.8687 36.6619 55.8687C36.9392 55.8687 37.1649 55.643 37.1649 55.3658C37.1648 55.0885 36.9392 54.8629 36.6619 54.8629Z" fill="#6583FE"/>
<path d="M15.3142 7.77181C14.3908 7.77181 13.6394 7.02052 13.6394 6.09708C13.6394 5.17353 14.3907 4.42224 15.3142 4.42224C16.2377 4.42224 16.9891 5.17353 16.9891 6.09708C16.9891 7.02052 16.2378 7.77181 15.3142 7.77181ZM15.3142 5.59412C15.037 5.59412 14.8113 5.81982 14.8113 6.09708C14.8113 6.37435 15.0369 6.59994 15.3142 6.59994C15.5915 6.59994 15.8172 6.37435 15.8172 6.09708C15.8172 5.81982 15.5915 5.59412 15.3142 5.59412Z" fill="#6583FE"/>
<path d="M43.9113 57.2407C43.5877 57.2407 43.3253 56.9785 43.3253 56.6548C43.3253 56.267 43.01 55.9517 42.6222 55.9517C42.2986 55.9517 42.0363 55.6894 42.0363 55.3657C42.0363 55.0421 42.2986 54.7798 42.6222 54.7798C43.01 54.7798 43.3253 54.4644 43.3253 54.0767C43.3253 53.753 43.5877 53.4907 43.9113 53.4907C44.2348 53.4907 44.4972 53.753 44.4972 54.0767C44.4972 54.4644 44.8125 54.7798 45.2003 54.7798C45.5239 54.7798 45.7863 55.0421 45.7863 55.3657C45.7863 55.6894 45.5239 55.9517 45.2003 55.9517C44.8125 55.9517 44.4972 56.267 44.4972 56.6548C44.4972 56.9785 44.2348 57.2407 43.9113 57.2407Z" fill="#6583FE"/>
<path d="M21.501 18.5961C21.501 22.1168 18.647 24.9708 15.1263 24.9708C11.6057 24.9708 8.75159 22.1168 8.75159 18.5961H21.501Z" fill="white"/>
<path d="M55.1332 35.293H4.86682C4.54327 35.293 4.28088 35.0307 4.28088 34.707C4.28088 34.3834 4.54327 34.1211 4.86682 34.1211H55.1332C55.4568 34.1211 55.7192 34.3834 55.7192 34.707C55.7192 35.0307 55.4568 35.293 55.1332 35.293Z" fill="#2626BC"/>
</g>
<defs>
<linearGradient id="paint0_linear_580_2568" x1="2.79153" y1="40.8721" x2="53.8513" y2="11.3927" gradientUnits="userSpaceOnUse">
<stop stop-color="#D2DEFF" stop-opacity="0"/>
<stop offset="1" stop-color="#B7C5FF"/>
</linearGradient>
<clipPath id="clip0_580_2568">
<rect width="60" height="60" fill="white"/>
</clipPath>
</defs>
</svg>
