<svg width="60" height="60" viewBox="0 0 60 60" fill="none" xmlns="http://www.w3.org/2000/svg">
<g clip-path="url(#clip0_580_2672)">
<path d="M52.945 5.1519C34.1299 -6.31724 4.83839 4.14268 1.43011 12.4115C-3.12943 23.4733 4.54471 25.364 5.9703 34.428C7.11417 41.7008 -0.0275888 48.6657 4.04913 55.0861C8.48843 62.0778 23.2052 60.3221 28.7989 57.0135C39.0383 50.957 33.8742 43.8871 38.7228 35.0644C43.3409 26.6612 52.3451 30.0692 57.5854 23.3468C62.5659 16.9576 59.2625 9.00279 52.945 5.1519Z" fill="url(#paint0_linear_580_2672)"/>
<path opacity="0.1" d="M41.0428 58.6335H18.9572C17.0156 58.6335 15.4415 57.0595 15.4415 55.1178V10.5071C15.4415 8.56546 17.0156 6.99152 18.9572 6.99152H41.0428C42.9843 6.99152 44.5584 8.56546 44.5584 10.5071V55.1178C44.5584 57.0595 42.9845 58.6335 41.0428 58.6335Z" fill="#2626BC"/>
<path d="M41.0428 55.821H18.9572C17.0156 55.821 15.4415 54.247 15.4415 52.3053V7.69464C15.4415 5.75296 17.0156 4.17902 18.9572 4.17902H41.0428C42.9843 4.17902 44.5584 5.75296 44.5584 7.69464V52.3053C44.5584 54.247 42.9845 55.821 41.0428 55.821Z" fill="#6583FE"/>
<path d="M15.4418 9.20734H44.5582V50.7925H15.4418V9.20734Z" fill="white"/>
<path d="M15.4418 37.2586H44.5582V50.7926H15.4418V37.2586Z" fill="white"/>
<path d="M41.0428 56.4069H18.9572C16.6956 56.4069 14.8556 54.5669 14.8556 52.3053V7.69464C14.8556 5.43304 16.6956 3.59308 18.9572 3.59308H41.0429C43.3045 3.59308 45.1445 5.43304 45.1445 7.69464V52.3053C45.1443 54.5669 43.3044 56.4069 41.0428 56.4069ZM18.9572 4.76495C17.3417 4.76495 16.0275 6.07921 16.0275 7.69464V52.3053C16.0275 53.9208 17.3417 55.235 18.9572 55.235H41.0429C42.6583 55.235 43.9726 53.9208 43.9726 52.3053V7.69464C43.9726 6.07921 42.6583 4.76495 41.0429 4.76495H18.9572Z" fill="#2626BC"/>
<path d="M32.0487 7.38641H27.9512C27.6276 7.38641 27.3652 7.12403 27.3652 6.80048C27.3652 6.47692 27.6276 6.21454 27.9512 6.21454H32.0487C32.3723 6.21454 32.6347 6.47692 32.6347 6.80048C32.6347 7.12415 32.3723 7.38641 32.0487 7.38641Z" fill="#2626BC"/>
<path d="M35.3689 6.80041C35.3689 7.12408 35.1065 7.38658 34.7827 7.38658C34.459 7.38658 34.1965 7.12419 34.1965 6.80041C34.1965 6.47673 34.4589 6.21423 34.7827 6.21423C35.1065 6.21423 35.3689 6.47662 35.3689 6.80041Z" fill="#2626BC"/>
<path d="M30 47.8753C31.438 47.8753 32.6037 46.7096 32.6037 45.2716C32.6037 43.8337 31.438 42.668 30 42.668C28.5621 42.668 27.3964 43.8337 27.3964 45.2716C27.3964 46.7096 28.5621 47.8753 30 47.8753Z" fill="#6583FE"/>
<path d="M31.036 44.6857H30.586V44.2357C30.586 43.9122 30.3236 43.6498 30 43.6498C29.6765 43.6498 29.4141 43.9122 29.4141 44.2357V44.6857H28.9641C28.6406 44.6857 28.3782 44.9481 28.3782 45.2717C28.3782 45.5952 28.6406 45.8576 28.9641 45.8576H29.4141V46.3076C29.4141 46.6311 29.6765 46.8935 30 46.8935C30.3236 46.8935 30.586 46.6311 30.586 46.3076V45.8576H31.036C31.3595 45.8576 31.6219 45.5952 31.6219 45.2717C31.6219 44.9481 31.3597 44.6857 31.036 44.6857Z" fill="#2626BC"/>
<path d="M40.0136 30.5378H19.9865C19.3392 30.5378 18.8146 30.0131 18.8146 29.3659V23.2848C18.8146 22.6376 19.3392 22.1129 19.9865 22.1129H40.0134C40.6607 22.1129 41.1853 22.6376 41.1853 23.2848V29.3659C41.1854 30.0131 40.6608 30.5378 40.0136 30.5378Z" fill="#6583FE"/>
<path d="M40.0136 40.6524H19.9865C19.3392 40.6524 18.8146 40.1278 18.8146 39.4806V33.3995C18.8146 32.7522 19.3392 32.2276 19.9865 32.2276H40.0134C40.6607 32.2276 41.1853 32.7522 41.1853 33.3995V39.4806C41.1854 40.1278 40.6608 40.6524 40.0136 40.6524Z" fill="#6583FE"/>
<path d="M22.6991 23.6599H20.9786C20.6551 23.6599 20.3927 23.9222 20.3927 24.2458C20.3927 24.5693 20.6551 24.8317 20.9786 24.8317H22.6991C23.0226 24.8317 23.285 24.5693 23.285 24.2458C23.285 23.9222 23.0226 23.6599 22.6991 23.6599Z" fill="#2626BC"/>
<path d="M22.6991 33.7894H20.9786C20.6551 33.7894 20.3927 34.0518 20.3927 34.3754C20.3927 34.6989 20.6551 34.9613 20.9786 34.9613H22.6991C23.0226 34.9613 23.285 34.6989 23.285 34.3754C23.285 34.0518 23.0226 33.7894 22.6991 33.7894Z" fill="#2626BC"/>
<path d="M41.1855 16.6856V19.2508C41.1855 19.8989 40.6605 20.4227 40.0137 20.4227H19.9863C19.3395 20.4227 18.8145 19.8989 18.8145 19.2508V16.6856C18.8145 16.0387 19.3395 15.5137 19.9863 15.5137H40.0137C40.6605 15.5137 41.1855 16.0387 41.1855 16.6856Z" fill="white"/>
<path d="M40.0137 21.0087H19.9863C19.0171 21.0087 18.2285 20.2201 18.2285 19.2508V16.6856C18.2285 15.7163 19.0171 14.9278 19.9863 14.9278H40.0137C40.983 14.9278 41.7715 15.7163 41.7715 16.6856V19.2508C41.7715 20.2201 40.983 21.0087 40.0137 21.0087ZM19.9863 16.0997C19.6632 16.0997 19.4004 16.3625 19.4004 16.6856V19.2508C19.4004 19.5739 19.6632 19.8368 19.9863 19.8368H40.0137C40.3367 19.8368 40.5996 19.5739 40.5996 19.2508V16.6856C40.5996 16.3625 40.3367 16.0997 40.0137 16.0997H19.9863Z" fill="#2626BC"/>
<path d="M41.0237 17.3358C42.3185 16.041 42.3185 13.9417 41.0237 12.6469C39.7289 11.3521 37.6296 11.3521 36.3348 12.6469C35.04 13.9417 35.04 16.041 36.3348 17.3358C37.6296 18.6306 39.7289 18.6306 41.0237 17.3358Z" fill="#6583FE"/>
<path d="M38.0968 13.2261C37.9212 13.2261 37.7476 13.3047 37.6322 13.4545C37.4347 13.7109 37.4827 14.0788 37.7391 14.2763L38.6645 14.9888L37.7391 15.7013C37.4827 15.8988 37.4348 16.2666 37.6322 16.5231C37.8295 16.7793 38.1977 16.8271 38.4539 16.6299L39.9823 15.4531C40.1263 15.3422 40.2108 15.1707 40.2108 14.9888C40.2108 14.8069 40.1264 14.6354 39.9823 14.5245L38.4539 13.3477C38.3474 13.2658 38.2216 13.2261 38.0968 13.2261Z" fill="#2626BC"/>
<path d="M21.8978 47.2895H20.8805C20.5569 47.2895 20.2946 47.5519 20.2946 47.8754C20.2946 48.199 20.5569 48.4614 20.8805 48.4614H21.8978C22.2214 48.4614 22.4837 48.199 22.4837 47.8754C22.4837 47.5519 22.2214 47.2895 21.8978 47.2895Z" fill="#2626BC"/>
<path d="M25.6576 47.2895H24.6403C24.3167 47.2895 24.0543 47.5519 24.0543 47.8754C24.0543 48.199 24.3167 48.4614 24.6403 48.4614H25.6576C25.9811 48.4614 26.2435 48.199 26.2435 47.8754C26.2435 47.5519 25.9811 47.2895 25.6576 47.2895Z" fill="#2626BC"/>
<path d="M35.3598 47.2895H34.3425C34.019 47.2895 33.7566 47.5519 33.7566 47.8754C33.7566 48.199 34.019 48.4614 34.3425 48.4614H35.3598C35.6834 48.4614 35.9458 48.199 35.9458 47.8754C35.9458 47.5519 35.6834 47.2895 35.3598 47.2895Z" fill="#2626BC"/>
<path d="M39.1196 47.2895H38.1023C37.7787 47.2895 37.5164 47.5519 37.5164 47.8754C37.5164 48.199 37.7787 48.4614 38.1023 48.4614H39.1196C39.4432 48.4614 39.7055 48.199 39.7055 47.8754C39.7055 47.5519 39.4432 47.2895 39.1196 47.2895Z" fill="#2626BC"/>
<path d="M51.2433 34.6364C50.3199 34.6364 49.5686 33.8851 49.5686 32.9616C49.5686 32.0381 50.3199 31.2867 51.2433 31.2867C52.1669 31.2867 52.9182 32.038 52.9182 32.9616C52.9182 33.8851 52.1669 34.6364 51.2433 34.6364ZM51.2433 32.4587C50.9661 32.4587 50.7405 32.6843 50.7405 32.9617C50.7405 33.2391 50.9661 33.4647 51.2433 33.4647C51.5206 33.4647 51.7463 33.2391 51.7463 32.9617C51.7463 32.6843 51.5207 32.4587 51.2433 32.4587Z" fill="#6583FE"/>
<path d="M8.03569 46.9465C7.11225 46.9465 6.36096 46.1952 6.36096 45.2716C6.36096 44.3482 7.11225 43.5968 8.03569 43.5968C8.95924 43.5968 9.71053 44.3481 9.71053 45.2716C9.71053 46.1952 8.95924 46.9465 8.03569 46.9465ZM8.03569 44.7688C7.75842 44.7688 7.53284 44.9944 7.53284 45.2718C7.53284 45.549 7.75842 45.7747 8.03569 45.7747C8.31295 45.7747 8.53866 45.5491 8.53866 45.2718C8.53866 44.9944 8.31307 44.7688 8.03569 44.7688Z" fill="#6583FE"/>
<path d="M49.5436 39.7123C49.2199 39.7123 48.9576 39.45 48.9576 39.1264C48.9576 38.7386 48.6423 38.4233 48.2545 38.4233C47.9308 38.4233 47.6686 38.1609 47.6686 37.8373C47.6686 37.5138 47.9308 37.2514 48.2545 37.2514C48.6423 37.2514 48.9576 36.9361 48.9576 36.5483C48.9576 36.2247 49.2199 35.9623 49.5436 35.9623C49.8673 35.9623 50.1295 36.2247 50.1295 36.5483C50.1295 36.9361 50.4449 37.2514 50.8326 37.2514C51.1563 37.2514 51.4186 37.5138 51.4186 37.8373C51.4186 38.1609 51.1563 38.4233 50.8326 38.4233C50.4449 38.4233 50.1295 38.7386 50.1295 39.1264C50.1295 39.45 49.8671 39.7123 49.5436 39.7123Z" fill="#6583FE"/>
<path d="M9.84827 39.3514C9.52459 39.3514 9.26233 39.089 9.26233 38.7654C9.26233 38.3777 8.94698 38.0623 8.5592 38.0623C8.23553 38.0623 7.97327 37.7999 7.97327 37.4764C7.97327 37.1528 8.23553 36.8904 8.5592 36.8904C8.94698 36.8904 9.26233 36.5751 9.26233 36.1873C9.26233 35.8638 9.52459 35.6014 9.84827 35.6014C10.1719 35.6014 10.4342 35.8638 10.4342 36.1873C10.4342 36.5751 10.7496 36.8904 11.1373 36.8904C11.461 36.8904 11.7233 37.1528 11.7233 37.4764C11.7233 37.7999 11.461 38.0623 11.1373 38.0623C10.7496 38.0623 10.4342 38.3777 10.4342 38.7654C10.4342 39.089 10.1719 39.3514 9.84827 39.3514Z" fill="#6583FE"/>
<path d="M50.1779 15.5294C49.8542 15.5294 49.5919 15.267 49.5919 14.9434C49.5919 14.5556 49.2766 14.2403 48.8888 14.2403C48.5651 14.2403 48.3029 13.9779 48.3029 13.6544C48.3029 13.3308 48.5651 13.0684 48.8888 13.0684C49.2766 13.0684 49.5919 12.7531 49.5919 12.3653C49.5919 12.0417 49.8542 11.7794 50.1779 11.7794C50.5015 11.7794 50.7638 12.0417 50.7638 12.3653C50.7638 12.7531 51.0791 13.0684 51.4669 13.0684C51.7906 13.0684 52.0529 13.3308 52.0529 13.6544C52.0529 13.9779 51.7906 14.2403 51.4669 14.2403C51.0791 14.2403 50.7638 14.5556 50.7638 14.9434C50.7638 15.267 50.5014 15.5294 50.1779 15.5294Z" fill="#6583FE"/>
</g>
<defs>
<linearGradient id="paint0_linear_580_2672" x1="0.553308" y1="52.635" x2="45.6991" y2="-1.16767" gradientUnits="userSpaceOnUse">
<stop stop-color="#D2DEFF" stop-opacity="0"/>
<stop offset="1" stop-color="#B7C5FF"/>
</linearGradient>
<clipPath id="clip0_580_2672">
<rect width="60" height="60" fill="white"/>
</clipPath>
</defs>
</svg>
