<svg width="60" height="60" viewBox="0 0 60 60" fill="none" xmlns="http://www.w3.org/2000/svg">
<g clip-path="url(#clip0_580_3001)">
<path d="M57.3827 5.53228C51.3104 -7.31498 36.4195 5.66599 28.0923 9.92049C21.2737 13.4041 0.608075 6.58017 1.3337 16.4762C1.74901 22.1409 9.55229 24.5536 12.8708 29.3669C18.6232 37.7104 12.2351 52.6551 22.0557 58.3486C33.5126 64.9905 40.0595 50.0832 42.4716 40.4948C45.4656 28.5928 63.6418 18.7747 57.3827 5.53228Z" fill="url(#paint0_linear_580_3001)"/>
<path opacity="0.1" d="M51.073 23.3087H42.4759L43.6616 22.123C45.0703 20.7143 45.0703 18.4304 43.6616 17.0218C42.253 15.6132 39.969 15.6132 38.5604 17.0218L34.4658 21.1165C35.8745 19.7078 35.8745 17.4239 34.4658 16.0153C33.884 15.4336 33.153 15.0928 32.3961 14.9916V13.2646C32.3961 9.93257 29.6701 7.12007 26.3382 7.14351C24.3527 7.15745 22.5971 8.13421 21.5119 9.62929C20.7421 7.77304 18.913 6.4671 16.7784 6.4671C13.9492 6.4671 11.6555 8.7607 11.6555 11.5901C11.6555 14.4194 13.949 16.713 16.7784 16.713C18.3245 16.713 19.7094 16.0273 20.6487 14.9443C21.4113 17.3061 23.6344 19.0501 26.2141 19.1661L23.6046 21.7758L22.298 20.4691C22.0036 20.1748 21.5263 20.1748 21.2319 20.4691L18.7012 22.9998C18.6968 22.2071 18.3924 21.4158 17.7876 20.811C16.5689 19.5922 14.593 19.5922 13.3744 20.811C13.3147 20.8706 13.2589 20.9325 13.2051 20.9955C12.768 20.8073 12.2864 20.7027 11.7803 20.7027C9.78819 20.7027 8.17323 22.3176 8.17323 24.3097V43.1689C8.16948 46.8664 9.57772 50.565 12.3988 53.3861C18.0333 59.0205 27.1687 59.0205 32.8032 53.3861L44.0917 42.0976C44.4567 42.2474 44.8562 42.3306 45.2751 42.3306C46.9986 42.3306 48.3958 40.9334 48.3958 39.2099C48.3958 38.4874 48.1495 37.8231 47.7374 37.2943C47.7464 37.2018 47.7511 37.1091 47.7531 37.0161H51.0731C51.4895 37.0161 51.827 36.6786 51.827 36.2623V24.0626C51.8269 23.6462 51.4894 23.3087 51.073 23.3087ZM15.3873 26.3136V26.1314C15.4459 26.135 15.5045 26.1375 15.5631 26.1378L15.3873 26.3136Z" fill="#2626BB"/>
<path d="M46.6983 36.6784C48.107 35.2697 48.107 32.9858 46.6983 31.5772C45.2897 30.1686 43.0058 30.1686 41.5971 31.5772L45.6917 27.4826C47.1005 26.0739 47.1005 23.79 45.6917 22.3814C44.283 20.9728 41.9993 20.9728 40.5906 22.3814L41.3451 21.6268L41.3783 20.8397L37.1542 16.6155L36.244 16.5257L34.4656 18.304C35.8744 16.8953 35.8744 14.6114 34.4656 13.2028C33.0571 11.7942 30.7732 11.7942 29.3645 13.2028L15.3873 27.1805V21.4971C15.3873 19.505 13.7723 17.8901 11.7803 17.8901C9.78819 17.8901 8.17323 19.505 8.17323 21.4971V40.3563C8.16948 44.0538 9.57772 47.7524 12.3988 50.5734C18.0333 56.2079 27.1687 56.2079 32.8032 50.5734L46.6983 36.6784Z" fill="white"/>
<path d="M34.598 18.1719L32.1473 20.6226L37.2485 25.7237L39.6991 23.2731C37.9987 21.5727 36.2984 19.8723 34.598 18.1719Z" fill="#6582FD"/>
<path d="M43.6617 14.2093C42.2531 12.8007 39.9691 12.8007 38.5605 14.2093L36.2442 16.5257L41.3454 21.6268L43.6617 19.3105C45.0703 17.9018 45.0703 15.6179 43.6617 14.2093Z" fill="#6582FD"/>
<path d="M36.0346 39.1524C36.0346 40.8762 34.6378 42.2731 32.9139 42.2731C32.0585 42.2731 31.2839 41.9285 30.7202 41.3719V44.9508C30.7202 45.3668 30.3827 45.7043 29.9667 45.7043H26.8542C26.5624 45.7043 26.3772 45.3844 26.5296 45.136C26.8202 44.6625 26.9878 44.1047 26.9878 43.5082C26.9878 41.7106 25.4667 40.268 23.6409 40.3957C22.0835 40.5059 20.8331 41.7809 20.751 43.3395C20.7159 43.9945 20.8835 44.6098 21.1975 45.1254C21.351 45.3797 21.1764 45.7043 20.8788 45.7043H17.7674C17.3503 45.7043 17.0128 45.3668 17.0128 44.9508V33.3551C17.0128 32.9379 17.3503 32.6004 17.7674 32.6004H29.9667C30.3827 32.6004 30.7202 32.9379 30.7202 33.3551V36.934C31.2839 36.3762 32.0585 36.0317 32.9139 36.0317C34.6378 36.0317 36.0346 37.4285 36.0346 39.1524Z" fill="white"/>
<path d="M16.7784 13.9005C19.6077 13.9005 21.9013 11.6069 21.9013 8.77757C21.9013 5.94823 19.6077 3.6546 16.7784 3.6546C13.949 3.6546 11.6554 5.94823 11.6554 8.77757C11.6554 11.6069 13.949 13.9005 16.7784 13.9005Z" fill="white"/>
<path d="M16.1636 10.6767C16.0082 10.6767 15.8591 10.6149 15.7493 10.5051L14.3523 9.10815C14.1234 8.87928 14.1234 8.50827 14.3523 8.27952C14.5809 8.05077 14.9522 8.05077 15.1808 8.27952L16.1636 9.26225L18.3757 7.0501C18.6043 6.82135 18.9756 6.82135 19.2042 7.0501C19.4331 7.27897 19.4331 7.64999 19.2042 7.87874L16.5778 10.5053C16.468 10.6149 16.3191 10.6767 16.1636 10.6767Z" fill="#6582FD"/>
<path d="M26.3383 4.33102C23.0506 4.3541 20.3897 7.01484 20.3667 10.3027C20.3433 13.6345 23.1557 16.3605 26.4877 16.3605H31.7738C32.1175 16.3605 32.3962 16.0819 32.3962 15.7382V10.4521C32.3962 7.12008 29.6702 4.3077 26.3383 4.33102Z" fill="#6582FD"/>
<path d="M25.6772 8.54321H24.4536C24.1299 8.54321 23.8677 8.28083 23.8677 7.95728C23.8677 7.63372 24.1299 7.37134 24.4536 7.37134H25.6772C26.0008 7.37134 26.2631 7.63372 26.2631 7.95728C26.2631 8.28083 26.0007 8.54321 25.6772 8.54321Z" fill="#2626BB"/>
<path d="M28.31 10.9316H24.4526C24.129 10.9316 23.8667 10.6693 23.8667 10.3457C23.8667 10.0221 24.129 9.75977 24.4526 9.75977H28.31C28.6337 9.75977 28.8959 10.0221 28.8959 10.3457C28.8959 10.6693 28.6337 10.9316 28.31 10.9316Z" fill="white"/>
<path d="M28.31 13.3201H24.4526C24.129 13.3201 23.8667 13.0577 23.8667 12.7342C23.8667 12.4106 24.129 12.1483 24.4526 12.1483H28.31C28.6337 12.1483 28.8959 12.4106 28.8959 12.7342C28.8959 13.0577 28.6337 13.3201 28.31 13.3201Z" fill="white"/>
<path d="M38.7233 21.2501V24.3619C38.7233 24.6591 38.3985 24.8344 38.1445 24.6802C37.6284 24.3669 37.0141 24.1992 36.3585 24.2337C34.7997 24.3156 33.5246 25.5662 33.415 27.1234C33.2865 28.9498 34.7292 30.4704 36.5273 30.4704C37.1238 30.4704 37.681 30.3033 38.1549 30.0131C38.4037 29.8608 38.7233 30.0459 38.7233 30.3376V33.4495C38.7233 33.8659 39.0608 34.2034 39.4771 34.2034H43.056C42.4987 34.7671 42.1543 35.5418 42.1543 36.3971C42.1543 38.1206 43.5515 39.5179 45.275 39.5179C46.9984 39.5179 48.3957 38.1206 48.3957 36.3971C48.3957 35.5418 48.0513 34.7671 47.4939 34.2034H51.0728C51.4892 34.2034 51.8267 33.8659 51.8267 33.4495V21.25C51.8267 20.8336 51.4892 20.4961 51.0728 20.4961H39.477C39.0609 20.4962 38.7233 20.8337 38.7233 21.2501Z" fill="#6582FD"/>
<path d="M48.3243 27.4849C48.3243 29.0659 47.2552 30.4418 45.7245 30.8308C45.4109 30.9106 45.092 30.7209 45.0123 30.4073C44.9323 30.0944 45.1221 29.775 45.4359 29.6952C46.4465 29.4383 47.1523 28.5294 47.1523 27.485C47.1523 26.4406 46.4465 25.5317 45.4357 25.2747C45.122 25.1949 44.9323 24.8764 45.0122 24.5625C45.0919 24.2489 45.4108 24.0593 45.7245 24.1391C47.2552 24.5281 48.3243 25.904 48.3243 27.4849Z" fill="white"/>
<path d="M43.4764 29.9863C43.4764 30.3099 43.214 30.5723 42.8905 30.5723H42.5875C42.264 30.5723 42.0016 30.3099 42.0016 29.9863C42.0016 29.6628 42.264 29.4004 42.5875 29.4004H42.8905C43.214 29.4004 43.4764 29.6628 43.4764 29.9863Z" fill="white"/>
<path d="M43.4764 24.9836C43.4764 25.3071 43.214 25.5695 42.8905 25.5695H42.5875C42.264 25.5695 42.0016 25.3071 42.0016 24.9836C42.0016 24.66 42.264 24.3976 42.5875 24.3976H42.8905C43.214 24.3976 43.4764 24.66 43.4764 24.9836Z" fill="white"/>
<path d="M22.8517 21.3159C23.2735 20.8942 23.7857 20.6183 24.326 20.4883C24.6096 20.4201 24.7046 20.0633 24.4983 19.8569L22.2978 17.6565C22.0034 17.3621 21.5261 17.3621 21.2317 17.6565L18.7011 20.1872C18.6966 19.3945 18.3923 18.6032 17.7875 17.9984C16.5687 16.7796 14.5928 16.7796 13.3742 17.9984C12.1555 19.2171 12.1555 21.193 13.3742 22.4116C13.979 23.0164 14.7704 23.3208 15.563 23.3252L13.0324 25.8559C12.738 26.1503 12.738 26.6276 13.0324 26.9219L21.6588 35.5483C21.9532 35.8427 22.4305 35.8427 22.7248 35.5483L30.9243 27.3489C31.2187 27.0545 31.2187 26.5772 30.9243 26.2828L28.7239 24.0824C28.5138 23.8723 28.1601 23.9778 28.0896 24.2666C27.9461 24.8531 27.6303 25.406 27.1424 25.8451C25.9822 26.8895 24.1962 26.9067 23.0177 25.8832C21.6355 24.6827 21.5804 22.5873 22.8517 21.3159Z" fill="#6582FD"/>
<path d="M51.8268 27.427C52.1505 27.427 52.4128 27.1648 52.4128 26.8411V21.2501C52.4128 20.5113 51.8117 19.9103 51.0729 19.9103H43.8902L44.0761 19.7244C45.7108 18.0895 45.7107 15.4295 44.0759 13.7945C42.4411 12.1597 39.7809 12.1598 38.1461 13.7946L36.1056 15.8351C36.127 14.7341 35.7185 13.6261 34.8802 12.788C34.347 12.2548 33.6983 11.8832 32.9822 11.6967V10.4521C32.9822 8.67504 32.2514 6.93012 30.9772 5.66473C29.7293 4.42559 28.0984 3.74485 26.3798 3.74485C26.3647 3.74485 26.3493 3.74485 26.3342 3.74496C24.4959 3.75785 22.829 4.53692 21.6358 5.775C20.6075 4.10684 18.7858 3.06891 16.779 3.06891C13.6309 3.06891 11.0696 5.62969 11.0696 8.77723C11.0696 11.9254 13.6309 14.4866 16.779 14.4866C18.1245 14.4866 19.4147 14.0125 20.4331 13.163C20.7487 13.8097 21.1734 14.4104 21.7005 14.9413C22.6015 15.8484 23.7458 16.4783 24.9715 16.767L23.6043 18.1342L22.7123 17.2422C22.4593 16.989 22.1229 16.8496 21.765 16.8496C21.4071 16.8496 21.0706 16.9889 20.8176 17.2422L19.0807 18.979C18.8993 18.4596 18.6018 17.9838 18.202 17.584C16.7859 16.168 14.5002 16.1402 13.049 17.4995C12.641 17.3696 12.2157 17.3039 11.7799 17.3039C9.4679 17.3039 7.58692 19.1849 7.58692 21.4969V40.3553C7.58305 44.3722 9.14469 48.1482 11.9843 50.9876C14.8201 53.8234 18.5905 55.385 22.601 55.385C26.6115 55.385 30.3819 53.8234 33.2176 50.9876L44.2475 39.9578C44.5741 40.0522 44.9188 40.1039 45.2754 40.1039C47.3191 40.1039 48.982 38.4411 48.982 36.3972C48.982 35.8317 48.8558 35.2849 48.6168 34.7893H51.0732C51.8121 34.7893 52.4131 34.1883 52.4131 33.4495V30.3025C52.4131 29.9788 52.1509 29.7165 51.8272 29.7165C51.5035 29.7165 51.2413 29.9788 51.2413 30.3025V33.4495C51.2413 33.5421 51.1658 33.6175 51.0732 33.6175H47.4944C47.2579 33.6175 47.0448 33.7595 46.9537 33.9776C46.8627 34.1957 46.9116 34.4473 47.0778 34.6153C47.5501 35.093 47.8102 35.7259 47.8102 36.397C47.8102 37.7948 46.6732 38.9319 45.2755 38.9319C43.8778 38.9319 42.7407 37.7948 42.7407 36.397C42.7407 35.7258 43.0009 35.093 43.4731 34.6153C43.6393 34.4472 43.6883 34.1957 43.5972 33.9776C43.5062 33.7595 43.2929 33.6175 43.0565 33.6175H39.4776C39.385 33.6175 39.3097 33.5421 39.3097 33.4495V30.3375C39.3097 29.9889 39.1204 29.6661 38.8157 29.4955C38.5138 29.3264 38.1434 29.3329 37.8494 29.5132C37.453 29.7559 36.9961 29.8842 36.5278 29.8842C35.817 29.8842 35.1586 29.5978 34.6738 29.0775C34.1891 28.5575 33.9498 27.8781 34 27.1643C34.0896 25.8939 35.1168 24.8856 36.39 24.8186C36.9047 24.7916 37.4061 24.9169 37.8411 25.1808C38.1413 25.363 38.5169 25.3695 38.8215 25.1981C39.1227 25.0286 39.3098 24.7079 39.3098 24.3615V21.2496C39.3098 21.157 39.3852 21.0817 39.4777 21.0817H51.0734C51.166 21.0817 51.2415 21.157 51.2415 21.2496V26.8406C51.2409 27.1648 51.5032 27.427 51.8268 27.427ZM16.7789 13.3148C14.2768 13.3148 12.2414 11.2794 12.2414 8.77735C12.2414 6.27586 14.2769 4.2409 16.7789 4.2409C18.5197 4.2409 20.0844 5.22364 20.8462 6.7677C20.1818 7.78864 19.7899 9.00059 19.7808 10.2986C19.7768 10.8714 19.8499 11.4343 19.9926 11.9774C19.1441 12.8303 17.9901 13.3148 16.7789 13.3148ZM20.9526 10.3068C20.9733 7.35539 23.3912 4.93758 26.3424 4.91696C27.7641 4.90407 29.1158 5.46797 30.1515 6.49641C31.2057 7.54336 31.8103 8.98512 31.8103 10.4522V15.7382C31.8103 15.7582 31.7939 15.7746 31.7737 15.7746H26.4877C25.0207 15.7746 23.5788 15.17 22.532 14.1158C21.5035 13.08 20.9427 11.7273 20.9526 10.3068ZM26.1865 25.793C25.2918 26.2383 24.1876 26.1231 23.402 25.4411C22.8616 24.9717 22.5504 24.322 22.5254 23.6118C22.5004 22.9011 22.7634 22.2328 23.266 21.7303C23.5972 21.3993 24.011 21.1668 24.463 21.0581C24.7983 20.9775 25.0649 20.7205 25.1588 20.3873C25.2536 20.0514 25.1593 19.6894 24.9127 19.4427L24.4329 18.9629L26.4502 16.9455L31.7737 16.9465C32.44 16.9465 32.9822 16.4045 32.9822 15.7382V12.9266C33.38 13.0761 33.7431 13.308 34.0517 13.6167C35.2288 14.7939 35.2296 16.7088 34.0541 17.8869L28.5495 23.3926C28.4342 23.3816 28.3163 23.3899 28.2013 23.4219C27.8647 23.5161 27.6038 23.7864 27.5204 24.1275C27.4818 24.285 27.427 24.4365 27.36 24.5821L26.1865 25.793ZM43.1304 39.4177L32.3887 50.1592C29.7743 52.7736 26.2981 54.2134 22.6006 54.2134C18.9031 54.2134 15.427 52.7736 12.8127 50.1592C10.1948 47.5413 8.75505 44.0599 8.75856 40.3559V21.4969C8.75856 19.8311 10.1138 18.4758 11.7797 18.4758C11.949 18.4758 12.1159 18.4902 12.2798 18.5174C12.0152 19.0335 11.8743 19.6083 11.8743 20.205C11.8743 21.195 12.2599 22.1259 12.96 22.8259C13.3599 23.2259 13.8357 23.5232 14.3551 23.7046L12.6182 25.4415C12.3651 25.6945 12.2258 26.031 12.2258 26.389C12.2258 26.7469 12.3651 27.0833 12.6182 27.3362L14.0252 28.7433C14.2541 28.9722 14.625 28.9723 14.8538 28.7433C15.0827 28.5145 15.0827 28.1435 14.8538 27.9148L13.4468 26.5076C13.4061 26.4669 13.3977 26.4207 13.3977 26.389C13.3977 26.3572 13.4062 26.3109 13.4469 26.2702L15.9775 23.7394C16.1447 23.5723 16.195 23.321 16.1052 23.1023C16.0153 22.8837 15.8029 22.7405 15.5666 22.7391C14.8949 22.7353 14.2634 22.4719 13.7888 21.9972C13.3101 21.5183 13.0465 20.8818 13.0465 20.2048C13.0465 19.5278 13.3101 18.8912 13.7888 18.4124C14.7772 17.424 16.3851 17.424 17.3735 18.4124C17.8482 18.8871 18.1116 19.5184 18.1155 20.1902C18.1168 20.4266 18.2601 20.6391 18.4788 20.7289C18.6975 20.8186 18.9486 20.7686 19.1158 20.6012L21.6465 18.0705C21.6872 18.0299 21.7336 18.0213 21.7652 18.0213C21.7968 18.0213 21.8432 18.0299 21.8839 18.0705L23.8358 20.0224C23.3121 20.2054 22.8341 20.505 22.4377 20.9013C21.7134 21.6257 21.3186 22.6284 21.3546 23.6527C21.3911 24.6914 21.8454 25.6406 22.6339 26.3256C24.0415 27.5479 26.1485 27.5288 27.5348 26.2806C28.0044 25.8579 28.3541 25.3323 28.5587 24.7452L30.5104 26.6971C30.5511 26.7377 30.5597 26.784 30.5597 26.8158C30.5597 26.8475 30.5511 26.8938 30.5104 26.9346L22.3109 35.134C22.2703 35.1747 22.224 35.1832 22.1922 35.1832C22.1605 35.1832 22.1142 35.1747 22.0735 35.134L17.3016 30.3622C17.0728 30.1334 16.7019 30.1334 16.473 30.3622C16.2441 30.591 16.2441 30.962 16.473 31.1907L17.3601 32.0779C16.82 32.2507 16.4277 32.7575 16.4277 33.3548V44.9506C16.4277 45.6892 17.0285 46.29 17.7671 46.29H20.8796C21.2261 46.29 21.5466 46.1026 21.7161 45.8012C21.8873 45.4964 21.8803 45.1207 21.6982 44.8213C21.4345 44.3868 21.3092 43.8847 21.3358 43.37C21.4029 42.0974 22.4114 41.0699 23.6815 40.98C24.3962 40.9302 25.0755 41.1696 25.5954 41.6543C26.1152 42.1391 26.4015 42.7973 26.4015 43.5079C26.4015 43.9774 26.2734 44.4343 26.0309 44.8293C25.8506 45.1233 25.8437 45.4935 26.0128 45.7956C26.1835 46.1005 26.5061 46.2899 26.855 46.2899H29.9663C30.7057 46.2899 31.307 45.6891 31.307 44.9504V42.4935C31.8025 42.7325 32.3493 42.8586 32.9148 42.8586C34.9585 42.8586 36.6214 41.1959 36.6214 39.1519C36.6214 38.631 36.5129 38.135 36.318 37.6848L39.2367 34.7661C39.315 34.7804 39.3952 34.789 39.4775 34.789H41.934C41.695 35.2846 41.5688 35.8314 41.5688 36.3968C41.5685 37.6423 42.1862 38.7451 43.1304 39.4177ZM29.966 33.1862C30.059 33.1862 30.1347 33.2619 30.1347 33.355V36.9339C30.1347 37.1704 30.2769 37.3836 30.495 37.4746C30.7131 37.5656 30.9648 37.5166 31.1327 37.3502C31.6104 36.8776 32.2431 36.6173 32.9143 36.6173C34.312 36.6173 35.4491 37.7544 35.4491 39.1521C35.4491 40.5499 34.312 41.687 32.9143 41.687C32.2432 41.687 31.6104 41.427 31.1324 40.9548C30.9641 40.7889 30.7128 40.7397 30.4947 40.8311C30.2768 40.9221 30.1347 41.1354 30.1347 41.3716V44.9506C30.1347 45.0429 30.059 45.1181 29.966 45.1181H27.2066C27.4472 44.6194 27.573 44.0694 27.573 43.508C27.573 42.484 27.1433 41.496 26.3942 40.7973C25.634 40.0886 24.6413 39.7392 23.5988 39.8111C21.7394 39.9427 20.2633 41.4462 20.1652 43.309C20.1325 43.94 20.257 44.5587 20.527 45.1181H17.7668C17.6744 45.1181 17.5992 45.0429 17.5992 44.9506V33.3548C17.5992 33.2618 17.6744 33.1861 17.7668 33.1861H18.468L21.2445 35.9625C21.4975 36.2156 21.834 36.3551 22.1919 36.3551C22.5498 36.3551 22.8862 36.2157 23.1392 35.9625L25.9156 33.1861H29.966V33.1862ZM36.5273 31.0564C37.0878 31.0564 37.6378 30.9305 38.1374 30.6894V33.4498C38.1374 33.6696 38.1916 33.8767 38.2858 34.06L35.6696 36.6762C34.9906 35.9214 34.0071 35.4457 32.9143 35.4457C32.3488 35.4457 31.8021 35.5719 31.3065 35.811V33.3551C31.3065 33.1084 31.2383 32.8778 31.1216 32.6789L33.8693 29.9313C34.5647 30.6466 35.5284 31.0564 36.5273 31.0564ZM38.1374 21.2501V24.0103C37.5777 23.7398 36.9588 23.6148 36.3279 23.6487C34.465 23.7466 32.9615 25.2227 32.8306 27.0824C32.7841 27.743 32.9083 28.3835 33.1858 28.9579L30.1196 32.0239C30.0691 32.0182 30.018 32.0145 29.966 32.0145H27.0876L31.3386 27.7635C31.5917 27.5105 31.7312 27.174 31.7312 26.8161C31.7312 26.4581 31.5918 26.1217 31.3386 25.8688L29.5346 24.0647L38.9748 14.6235C40.1526 13.4456 42.0693 13.4455 43.2474 14.6234C44.4253 15.8013 44.4253 17.7179 43.2474 18.896L42.2331 19.9104H39.4772C38.7384 19.9103 38.1374 20.5113 38.1374 21.2501Z" fill="#2626BB"/>
<path d="M46.2615 50.4308C45.9378 50.4308 45.6756 50.1686 45.6756 49.8449C45.6756 49.4357 45.3426 49.1027 44.9334 49.1027C44.6097 49.1027 44.3475 48.8405 44.3475 48.5168C44.3475 48.1931 44.6097 47.9309 44.9334 47.9309C45.3426 47.9309 45.6756 47.5979 45.6756 47.1887C45.6756 46.865 45.9378 46.6028 46.2615 46.6028C46.5852 46.6028 46.8474 46.865 46.8474 47.1887C46.8474 47.5979 47.1805 47.9309 47.5897 47.9309C47.9134 47.9309 48.1756 48.1931 48.1756 48.5168C48.1756 48.8405 47.9134 49.1027 47.5897 49.1027C47.1805 49.1027 46.8474 49.4357 46.8474 49.8449C46.8474 50.1684 46.5851 50.4308 46.2615 50.4308Z" fill="#6582FD"/>
<path d="M6.39468 7.54252C6.07112 7.54252 5.80874 7.28025 5.80874 6.95658C5.80874 6.54736 5.47581 6.21443 5.06659 6.21443C4.74303 6.21443 4.48065 5.95217 4.48065 5.6285C4.48065 5.30482 4.74303 5.04256 5.06659 5.04256C5.47581 5.04256 5.80874 4.70951 5.80874 4.30029C5.80874 3.97662 6.07112 3.71436 6.39468 3.71436C6.71823 3.71436 6.98061 3.97662 6.98061 4.30029C6.98061 4.70951 7.31354 5.04256 7.72276 5.04256C8.04632 5.04256 8.3087 5.30482 8.3087 5.6285C8.3087 5.95217 8.04632 6.21443 7.72276 6.21443C7.31354 6.21443 6.98061 6.54736 6.98061 6.95658C6.98061 7.28025 6.71823 7.54252 6.39468 7.54252Z" fill="#6582FD"/>
<path d="M49.6502 14.4864C49.3266 14.4864 49.0643 14.2241 49.0643 13.9004C49.0643 13.4912 48.7314 13.1583 48.3221 13.1583C47.9985 13.1583 47.7362 12.896 47.7362 12.5723C47.7362 12.2487 47.9985 11.9864 48.3221 11.9864C48.7314 11.9864 49.0643 11.6534 49.0643 11.2441C49.0643 10.9205 49.3266 10.6582 49.6502 10.6582C49.9739 10.6582 50.2362 10.9205 50.2362 11.2441C50.2362 11.6534 50.5692 11.9864 50.9784 11.9864C51.3021 11.9864 51.5644 12.2487 51.5644 12.5723C51.5644 12.896 51.3021 13.1583 50.9784 13.1583C50.5692 13.1583 50.2362 13.4912 50.2362 13.9004C50.2362 14.2241 49.9738 14.4864 49.6502 14.4864Z" fill="#6582FD"/>
<path d="M10.6881 55.9126C10.5381 55.9126 10.3882 55.8554 10.2737 55.7409L9.63339 55.1006L8.99308 55.7409C8.76421 55.9698 8.39332 55.9698 8.16445 55.7409C7.93558 55.5122 7.93558 55.1412 8.16445 54.9124L9.21913 53.8577C9.448 53.6289 9.8189 53.6289 10.0478 53.8577L11.1025 54.9124C11.3313 55.1412 11.3313 55.5122 11.1025 55.7409C10.988 55.8554 10.838 55.9126 10.6881 55.9126Z" fill="#6582FD"/>
<path d="M45.3539 9.89072C45.204 9.89072 45.0539 9.83353 44.9397 9.71904L44.2992 9.07873L43.6588 9.71904C43.4302 9.9479 43.0589 9.9479 42.8303 9.71904C42.6014 9.49029 42.6014 9.11927 42.8303 8.89052L43.885 7.83583C44.1136 7.60697 44.4849 7.60697 44.7135 7.83583L45.7682 8.89052C45.997 9.11927 45.997 9.49029 45.7682 9.71904C45.6538 9.83353 45.5038 9.89072 45.3539 9.89072Z" fill="#6582FD"/>
</g>
<defs>
<linearGradient id="paint0_linear_580_3001" x1="8.2562" y1="45.0772" x2="53.115" y2="0.218413" gradientUnits="userSpaceOnUse">
<stop stop-color="#D1DDFF" stop-opacity="0"/>
<stop offset="1" stop-color="#B6C4FF"/>
</linearGradient>
<clipPath id="clip0_580_3001">
<rect width="60" height="60" fill="white"/>
</clipPath>
</defs>
</svg>
