<svg width="60" height="60" viewBox="0 0 60 60" fill="none" xmlns="http://www.w3.org/2000/svg">
<g clip-path="url(#clip0_580_2772)">
<path d="M52.4174 35.4068C38.1391 21.3388 51.1254 23.7492 49.4027 10.2329C47.3096 -6.18996 11.9185 -0.376056 5.92528 10.4416C-0.41468 21.8852 12.6329 23.1364 11.8361 32.2545C11.0566 41.1754 -1.58855 54.7733 8.2238 59.2472C16.1422 62.8575 22.401 52.5251 28.9525 48.5372C39.8282 42.3248 40.1272 51.7896 47.4095 51.3701C56.2796 50.8591 58.4398 41.3404 52.4174 35.4068Z" fill="url(#paint0_linear_580_2772)"/>
<g opacity="0.1">
<path opacity="0.1" d="M14.9332 28.8136C15.0168 28.8551 15.1057 28.8748 15.1932 28.8748C15.4088 28.8748 15.6161 28.7554 15.7184 28.5492C15.9187 28.1458 16.1388 27.7462 16.3726 27.3614C16.5407 27.085 16.4528 26.7245 16.1762 26.5565C15.8997 26.3882 15.539 26.4763 15.3712 26.7529C15.1201 27.166 14.8838 27.5951 14.6688 28.0282C14.5249 28.3182 14.6432 28.6698 14.9332 28.8136Z" fill="#2626BB"/>
<path opacity="0.1" d="M17.841 25.0264C17.9991 25.0264 18.1567 24.9628 18.2722 24.8373C18.5775 24.5055 18.9004 24.1831 19.2319 23.8792C19.4705 23.6605 19.4866 23.2898 19.2679 23.0513C19.0491 22.8127 18.6783 22.7968 18.4401 23.0155C18.0841 23.3417 17.7376 23.6877 17.4101 24.0436C17.1909 24.2817 17.2063 24.6524 17.4444 24.8715C17.5569 24.9753 17.6991 25.0264 17.841 25.0264Z" fill="#2626BB"/>
<path opacity="0.1" d="M13.6305 33.3042C13.6649 33.3103 13.6993 33.3132 13.7331 33.3132C14.012 33.3132 14.2592 33.1133 14.3095 32.8292C14.3879 32.3857 14.4865 31.9401 14.6026 31.505C14.686 31.1923 14.5001 30.8712 14.1875 30.7878C13.8745 30.7046 13.5537 30.8904 13.4703 31.2029C13.3457 31.6701 13.2396 32.1486 13.1554 32.6251C13.0991 32.9439 13.3118 33.2478 13.6305 33.3042Z" fill="#2626BB"/>
<path opacity="0.1" d="M34.9477 50.775C34.5199 50.9148 34.0805 51.0377 33.6421 51.1405C33.3271 51.2143 33.1315 51.5295 33.2052 51.8447C33.2685 52.1148 33.5093 52.297 33.7752 52.297C33.8194 52.297 33.8644 52.292 33.9094 52.2814C34.3803 52.1711 34.852 52.0391 35.3116 51.889C35.6192 51.7885 35.7872 51.4576 35.6866 51.15C35.5861 50.8424 35.2553 50.6747 34.9477 50.775Z" fill="#2626BB"/>
<path opacity="0.1" d="M30.5094 51.5507C30.3396 51.556 30.1681 51.5587 29.9992 51.5587C29.9981 51.5587 29.9972 51.5587 29.9963 51.5587C29.7161 51.5587 29.4322 51.5513 29.1524 51.5367C28.8243 51.519 28.5536 51.768 28.5366 52.0911C28.5196 52.4143 28.7679 52.69 29.091 52.707C29.3912 52.7227 29.6956 52.7306 29.996 52.7306H29.9993C30.1801 52.7306 30.3641 52.7278 30.546 52.7221C30.8695 52.712 31.1235 52.4415 31.1133 52.1181C31.1032 51.7946 30.8306 51.5419 30.5094 51.5507Z" fill="#2626BB"/>
<path opacity="0.1" d="M26.0298 51.0599C25.5941 50.9481 25.1576 50.8159 24.7325 50.6668C24.4272 50.5596 24.0928 50.7205 23.9858 51.026C23.8788 51.3314 24.0395 51.6657 24.3449 51.7727C24.8015 51.9327 25.2704 52.0748 25.7384 52.195C25.7873 52.2075 25.8363 52.2135 25.8846 52.2135C26.1457 52.2135 26.3838 52.0377 26.4517 51.7731C26.532 51.4596 26.3433 51.1403 26.0298 51.0599Z" fill="#2626BB"/>
<path opacity="0.1" d="M45.4448 31.6933C45.5554 32.1295 45.6485 32.576 45.7217 33.0204C45.7689 33.3075 46.0173 33.5113 46.2991 33.5113C46.3307 33.5113 46.3627 33.5087 46.3948 33.5034C46.7141 33.4509 46.9303 33.1495 46.8778 32.8302C46.7993 32.353 46.6994 31.8735 46.5805 31.4051C46.501 31.0914 46.182 30.9018 45.8686 30.9812C45.5549 31.0608 45.3652 31.3796 45.4448 31.6933Z" fill="#2626BB"/>
<path opacity="0.1" d="M44.3664 28.7247C44.4673 28.9345 44.6767 29.0567 44.8949 29.0567C44.9801 29.0567 45.0666 29.0381 45.1485 28.9987C45.4401 28.8584 45.5628 28.5083 45.4225 28.2167C45.2132 27.7816 44.9822 27.3498 44.7362 26.9335C44.5717 26.655 44.2121 26.5624 43.9335 26.7272C43.655 26.8919 43.5626 27.2512 43.7272 27.5297C43.9564 27.9175 44.1715 28.3196 44.3664 28.7247Z" fill="#2626BB"/>
<path opacity="0.1" d="M41.8583 24.983C41.974 25.1119 42.1339 25.1774 42.2945 25.1774C42.4338 25.1774 42.5739 25.128 42.6858 25.0274C42.9266 24.8112 42.9466 24.4407 42.7302 24.2C42.4075 23.8406 42.0652 23.4906 41.713 23.1595C41.477 22.9378 41.1063 22.9494 40.8847 23.1851C40.6631 23.4208 40.6746 23.7917 40.9103 24.0133C41.2386 24.3219 41.5575 24.6481 41.8583 24.983Z" fill="#2626BB"/>
<path opacity="0.1" d="M55.0441 45.1304L54.5996 43.2664C54.4355 42.5771 53.995 41.9863 53.3818 41.6324L46.7523 37.8049C46.8961 37.7115 46.9985 37.5571 47.0171 37.3732C47.056 36.9892 47.0825 36.599 47.0954 36.2135C47.1063 35.8901 46.8531 35.619 46.5296 35.6081C46.1435 35.5937 45.8359 35.9556 45.9468 36.3621C46.0273 36.6575 45.9647 36.9556 45.8544 37.2413C45.8485 37.2566 45.852 37.2703 45.8512 37.2847L42.5878 35.4006C42.2457 35.2031 41.8577 35.1595 41.5022 35.2462C41.3529 30.6293 38.485 26.6996 34.4466 25.0063V22.5613C34.49 22.6182 34.536 22.6732 34.5865 22.7238C34.88 23.0174 35.2861 23.1983 35.7347 23.1963C36.6311 23.1924 37.3413 22.4312 37.3413 21.5348V21.4801C37.7024 21.668 38.06 21.8709 38.4059 22.086C38.5021 22.1458 38.6091 22.1744 38.7148 22.1744C38.9193 22.1744 39.1189 22.0674 39.2272 21.8736C39.383 21.5951 39.2698 21.2427 38.9985 21.0745C38.5956 20.8249 38.178 20.5897 37.757 20.3751C37.6232 20.3069 37.476 20.2971 37.3413 20.3328V14.5344C37.3413 13.8002 37.0286 13.1013 36.4808 12.6121L33.1581 9.64569H33.158V7.7735C33.158 7.44994 32.8956 7.18756 32.572 7.18756H25.4414C25.1178 7.18756 24.8555 7.44994 24.8555 7.7735V9.45479L23.4635 10.7717C22.9487 11.2585 22.6573 11.9355 22.6573 12.6435L22.6574 20.3332C22.5227 20.2974 22.3754 20.3072 22.2415 20.3753C21.8825 20.5582 21.5258 20.7563 21.1807 20.9644C20.9058 21.1301 20.7879 21.4834 20.9429 21.7645C21.0506 21.9599 21.2512 22.0684 21.457 22.0684C21.5604 22.0684 21.665 22.0411 21.76 21.9837C22.0519 21.8068 22.3536 21.6394 22.6574 21.4814V25.1073C22.6574 25.595 22.8954 26.026 23.2604 26.2943C20.4659 28.3161 18.6157 31.5623 18.4965 35.2462C18.1409 35.1595 17.753 35.2031 17.4109 35.4006L14.1507 37.2827C14.1062 36.8523 14.0785 36.4146 14.0691 35.9805C14.062 35.657 13.7944 35.4017 13.4705 35.4075C13.1469 35.4146 12.8905 35.6825 12.8974 36.0061C12.908 36.4903 12.9393 36.979 12.9905 37.4585C13.0068 37.6118 13.0813 37.7443 13.1891 37.8381L6.61698 41.6324C6.00386 41.9863 5.56335 42.5771 5.39917 43.2664L4.95468 45.1304L3.49863 45.971C3.21843 46.1328 3.12234 46.4912 3.28417 46.7714L6.84948 52.9467C7.01132 53.2269 7.36968 53.323 7.64987 53.1612L9.27128 52.2251V52.2252L13.5015 53.6196C14.199 53.8493 14.9607 53.7706 15.5966 53.4036L21.6589 49.9035C22.4352 49.4552 22.7394 48.4596 22.2947 47.6814C22.0721 47.2919 21.7124 47.0306 21.3114 46.9231C21.2423 46.9046 21.1717 46.8924 21.1007 46.8832L23.8005 45.3244C25.5898 46.4702 27.7169 47.1346 29.9993 47.1346C32.2816 47.1346 34.4088 46.4702 36.198 45.3244L38.898 46.8832C38.827 46.8924 38.7564 46.9046 38.6873 46.9231C38.2863 47.0306 37.9266 47.2918 37.704 47.6814C37.2592 48.4596 37.5634 49.4552 38.3398 49.9035L44.4021 53.4036C45.038 53.7706 45.7997 53.8493 46.4972 53.6196L50.7275 52.2252V52.2251L52.3489 53.1612C52.6291 53.323 52.9875 53.2269 53.1493 52.9467L56.7146 46.7714C56.8765 46.4912 56.7804 46.1328 56.5002 45.971L55.0441 45.1304Z" fill="#2626BB"/>
</g>
<path d="M29.9997 44.3219C36.3563 44.3219 41.5094 39.1689 41.5094 32.8122C41.5094 26.4556 36.3563 21.3026 29.9997 21.3026C23.6431 21.3026 18.49 26.4556 18.49 32.8122C18.49 39.1689 23.6431 44.3219 29.9997 44.3219Z" fill="#6582FD"/>
<path d="M29.9998 41.8551C34.9937 41.8551 39.042 37.8068 39.042 32.8129C39.042 27.8191 34.9937 23.7708 29.9998 23.7708C25.006 23.7708 20.9576 27.8191 20.9576 32.8129C20.9576 37.8068 25.006 41.8551 29.9998 41.8551Z" fill="white"/>
<path d="M32.4629 37.5442C32.3064 37.5442 32.1475 37.5142 31.9939 37.4509C31.4316 37.2191 26.5002 35.085 26.5002 31.5808C26.5002 29.651 28.0702 28.0811 30 28.0811C30.6802 28.0811 31.2317 28.6325 31.2317 29.3128C31.2317 29.9931 30.6802 30.5446 30 30.5446C29.4285 30.5446 28.9637 31.0095 28.9637 31.5809C28.9637 32.2903 29.6187 33.1434 30.8082 33.9833C31.8657 34.73 32.9223 35.1693 32.9329 35.1736C33.5619 35.4328 33.8614 36.1529 33.6022 36.7818C33.4061 37.257 32.947 37.5442 32.4629 37.5442Z" fill="#6582FD"/>
<path d="M27.5368 37.544C27.0527 37.544 26.5935 37.2568 26.3976 36.7815C26.1384 36.1526 26.4379 35.4326 27.0669 35.1734C28.3609 34.6359 31.0359 33.0497 31.0359 31.5808C31.0359 31.0094 30.5711 30.5445 29.9997 30.5445C29.3194 30.5445 28.7679 29.9931 28.7679 29.3128C28.7679 28.6325 29.3194 28.0811 29.9997 28.0811C31.9294 28.0811 33.4993 29.651 33.4993 31.5807C33.4993 35.0848 28.568 37.2188 28.0057 37.4506C27.8522 37.5141 27.6931 37.544 27.5368 37.544Z" fill="#6582FD"/>
<path d="M17.411 32.5879C18.1158 32.181 19.0171 32.4224 19.4241 33.1273C19.8309 33.8322 19.5895 34.7334 18.8847 35.1404L21.0323 33.9004C21.7372 33.4934 22.6384 33.735 23.0454 34.4398C23.4524 35.1447 23.2109 36.0459 22.506 36.4529L24.2045 35.4723C24.9094 35.0653 25.8105 35.3068 26.2175 36.0117C26.6245 36.7166 26.383 37.6179 25.6781 38.0248L24.649 38.6189C25.3539 38.2119 26.255 38.4534 26.662 39.1583C27.069 39.8632 26.8275 40.7644 26.1226 41.1714L21.1008 44.0707C21.1718 44.08 21.2425 44.0922 21.3115 44.1107C21.7104 44.2176 22.0684 44.4767 22.2913 44.8627C22.7371 45.6347 22.4727 46.6214 21.7007 47.067L15.5967 50.5911C14.961 50.9581 14.1991 51.0368 13.5016 50.8071L9.27141 49.4127V49.4125L7.14247 50.6416L2.99133 43.4514L4.95481 42.3177L5.3993 40.4537C5.56348 39.7644 6.00399 39.1736 6.61711 38.8196L17.411 32.5879Z" fill="white"/>
<path d="M42.5878 32.5879C41.883 32.181 40.9817 32.4224 40.5747 33.1273C40.1677 33.8322 40.4092 34.7334 41.1141 35.1404L38.9664 33.9004C38.2615 33.4934 37.3604 33.735 36.9534 34.4398C36.5465 35.1447 36.7879 36.0459 37.4928 36.4529L35.7943 35.4723C35.0894 35.0653 34.1881 35.3068 33.7812 36.0117C33.3742 36.7166 33.6158 37.6179 34.3207 38.0248L35.3498 38.6189C34.6449 38.2119 33.7437 38.4534 33.3367 39.1583C32.9298 39.8632 33.1713 40.7644 33.8762 41.1714L38.898 44.0707C38.827 44.08 38.7563 44.0922 38.6873 44.1107C38.2884 44.2176 37.9304 44.4767 37.7075 44.8627C37.2617 45.6347 37.5261 46.6214 38.2981 47.067L44.4021 50.5911C45.0378 50.9581 45.7996 51.0368 46.4971 50.8071L50.7274 49.4127V49.4125L52.8563 50.6416L57.0076 43.4513L55.0441 42.3176L54.5996 40.4536C54.4354 39.7643 53.9949 39.1734 53.3818 38.8195L42.5878 32.5879Z" fill="white"/>
<path d="M22.6577 22.2948C22.6577 23.1087 23.3175 23.7684 24.1313 23.7684C24.9452 23.7684 25.6049 23.1087 25.6049 22.2948V24.7747C25.6049 25.5886 26.2647 26.2483 27.0786 26.2483C27.8924 26.2483 28.5522 25.5886 28.5522 24.7747V26.736C28.5522 27.5498 29.2119 28.2096 30.0258 28.2096C30.8397 28.2096 31.4994 27.5498 31.4994 26.736V25.5477C31.4994 26.3615 32.1592 27.0213 32.973 27.0213C33.7869 27.0213 34.4466 26.3615 34.4466 25.5477V19.7489C34.4901 19.8058 34.5361 19.8608 34.5866 19.9114C34.8786 20.2035 35.2819 20.3839 35.7277 20.3839C36.6192 20.3839 37.3414 19.6617 37.3414 18.7703V11.7221C37.3414 10.988 37.0285 10.289 36.4809 9.79979L33.1582 6.83342H33.1581V4.37506H24.8557V6.64229L23.4637 7.95924C22.9489 8.44604 22.6575 9.12303 22.6575 9.83096L22.6577 22.2948Z" fill="#6582FD"/>
<path d="M13.6305 30.4917C13.6649 30.4978 13.6993 30.5007 13.7331 30.5007C14.012 30.5007 14.2592 30.3008 14.3095 30.0167C14.3879 29.5732 14.4865 29.1276 14.6026 28.6925C14.686 28.3798 14.5001 28.0587 14.1875 27.9753C13.8745 27.8921 13.5537 28.0779 13.4703 28.3904C13.3457 28.8576 13.2396 29.3361 13.1554 29.8126C13.0991 30.1313 13.3118 30.4353 13.6305 30.4917Z" fill="#2626BB"/>
<path d="M14.9332 26.0011C15.0168 26.0426 15.1057 26.0623 15.1932 26.0623C15.4088 26.0623 15.6161 25.9429 15.7184 25.7367C15.9187 25.3333 16.1388 24.9337 16.3726 24.5489C16.5407 24.2725 16.4528 23.912 16.1762 23.744C15.8997 23.5757 15.539 23.6638 15.3712 23.9404C15.1201 24.3535 14.8838 24.7826 14.6688 25.2157C14.5249 25.5057 14.6432 25.8573 14.9332 26.0011Z" fill="#2626BB"/>
<path d="M17.841 22.2139C17.9991 22.2139 18.1567 22.1503 18.2722 22.0248C18.5775 21.693 18.9004 21.3706 19.2319 21.0667C19.4705 20.848 19.4866 20.4773 19.2679 20.2388C19.0491 20.0002 18.6783 19.9843 18.4401 20.203C18.0841 20.5292 17.7376 20.8752 17.4101 21.2311C17.1909 21.4692 17.2063 21.8399 17.4444 22.059C17.5569 22.1628 17.6991 22.2139 17.841 22.2139Z" fill="#2626BB"/>
<path d="M34.9483 47.9625C34.5205 48.1023 34.0811 48.2252 33.6427 48.328C33.3277 48.4018 33.1321 48.717 33.2058 49.0322C33.2691 49.3023 33.51 49.4845 33.7759 49.4845C33.82 49.4845 33.865 49.4795 33.91 49.4689C34.3809 49.3586 34.8526 49.2266 35.3122 49.0765C35.6198 48.976 35.7878 48.6451 35.6872 48.3375C35.5867 48.0299 35.256 47.8622 34.9483 47.9625Z" fill="#2626BB"/>
<path d="M30.51 48.7382C30.3402 48.7435 30.1687 48.7462 29.9998 48.7462C29.9987 48.7462 29.9978 48.7462 29.9969 48.7462C29.7167 48.7462 29.4329 48.7388 29.153 48.7242C28.8249 48.7065 28.5542 48.9555 28.5372 49.2786C28.5202 49.6018 28.7685 49.8775 29.0916 49.8945C29.3918 49.9102 29.6962 49.9181 29.9966 49.9181H29.9999C30.1807 49.9181 30.3647 49.9153 30.5466 49.9096C30.8702 49.8995 31.1241 49.629 31.1139 49.3056C31.1038 48.9821 30.8312 48.7294 30.51 48.7382Z" fill="#2626BB"/>
<path d="M26.0298 48.2474C25.5941 48.1356 25.1576 48.0034 24.7325 47.8543C24.4272 47.7471 24.0928 47.908 23.9858 48.2135C23.8788 48.5189 24.0395 48.8532 24.3449 48.9602C24.8015 49.1202 25.2704 49.2623 25.7384 49.3825C25.7873 49.395 25.8363 49.401 25.8846 49.401C26.1457 49.401 26.3838 49.2252 26.4517 48.9606C26.532 48.6471 26.3433 48.3278 26.0298 48.2474Z" fill="#2626BB"/>
<path d="M44.367 25.9122C44.4679 26.122 44.6773 26.2442 44.8955 26.2442C44.9807 26.2442 45.0672 26.2256 45.1491 26.1862C45.4407 26.0459 45.5634 25.6958 45.4231 25.4042C45.2138 24.9691 44.9828 24.5373 44.7368 24.121C44.5723 23.8425 44.2127 23.7499 43.9342 23.9147C43.6556 24.0794 43.5632 24.4387 43.7278 24.7172C43.957 25.105 44.1721 25.5071 44.367 25.9122Z" fill="#2626BB"/>
<path d="M41.8589 22.1705C41.9746 22.2994 42.1346 22.3649 42.2951 22.3649C42.4344 22.3649 42.5745 22.3155 42.6864 22.2149C42.9272 21.9987 42.9472 21.6282 42.7308 21.3875C42.4081 21.0281 42.0658 20.6781 41.7136 20.347C41.4776 20.1253 41.1069 20.1369 40.8853 20.3726C40.6637 20.6083 40.6752 20.9792 40.911 21.2008C41.2392 21.5094 41.5581 21.8356 41.8589 22.1705Z" fill="#2626BB"/>
<path d="M45.4454 28.8808C45.556 29.317 45.6492 29.7635 45.7223 30.2079C45.7696 30.495 46.018 30.6988 46.2999 30.6988C46.3315 30.6988 46.3635 30.6963 46.3956 30.691C46.715 30.6385 46.9312 30.3371 46.8787 30.0177C46.8002 29.5405 46.7002 29.0611 46.5814 28.5927C46.5018 28.279 46.1828 28.0893 45.8693 28.1688C45.5555 28.2484 45.3658 28.5671 45.4454 28.8808Z" fill="#2626BB"/>
<path d="M8.6534 38.3202C8.93371 38.1584 9.02969 37.8002 8.86785 37.5198C8.70613 37.2397 8.34777 37.1433 8.06746 37.3054L6.3244 38.3117C5.57487 38.7445 5.03006 39.4755 4.82967 40.3173L4.44365 41.9359L2.69848 42.9435C2.41817 43.1053 2.32219 43.4636 2.48403 43.7439C2.59254 43.9318 2.78942 44.037 2.99204 44.037C3.09141 44.037 3.1922 44.0116 3.28442 43.9583L5.24803 42.8247C5.38748 42.7442 5.48768 42.6099 5.52494 42.4532L5.96956 40.5891C6.09565 40.0592 6.43854 39.599 6.91022 39.3268L8.6534 38.3202Z" fill="#2626BB"/>
<path d="M57.3011 42.944L55.5559 41.9365L55.17 40.3181C54.9695 39.4761 54.4247 38.7451 53.6752 38.3123L47.025 34.4729C47.0592 34.1171 47.084 33.7572 47.0959 33.4009C47.1068 33.0774 46.8536 32.8064 46.5301 32.7955C46.2051 32.7833 45.9356 33.038 45.9247 33.3614C45.9196 33.515 45.9109 33.6696 45.9013 33.8242L42.8814 32.0806C42.6236 31.9317 42.3426 31.8442 42.0549 31.8158C41.7876 28.5722 40.2178 25.5588 37.6884 23.4746C37.4386 23.269 37.0695 23.3046 36.8637 23.5542C36.6578 23.8039 36.6935 24.1732 36.9433 24.3791C39.2611 26.289 40.6865 29.0627 40.8965 32.0407C40.5532 32.2196 40.2662 32.491 40.0679 32.8345C39.9116 33.1053 39.8229 33.4018 39.7996 33.7046L39.2601 33.3931C38.7837 33.118 38.2287 33.0449 37.6971 33.1874C37.1658 33.3298 36.7217 33.6705 36.4466 34.1469C36.2903 34.4177 36.2016 34.7142 36.1783 35.017L36.0879 34.9649C35.6115 34.6898 35.0564 34.6166 34.5251 34.7591C33.9936 34.9015 33.5496 35.2424 33.2745 35.7187C32.8147 36.5149 32.9493 37.4934 33.5388 38.1388C33.2543 38.3122 33.008 38.557 32.83 38.8653C32.5548 39.3417 32.4818 39.8968 32.6242 40.4281C32.7666 40.9595 33.1074 41.4037 33.5837 41.6786L35.0263 42.5115C33.4799 43.3141 31.7613 43.7361 29.9999 43.7361C28.2385 43.7361 26.5198 43.3141 24.9735 42.5115L26.4161 41.6786C26.8924 41.4036 27.2333 40.9595 27.3756 40.4281C27.5179 39.8968 27.445 39.3417 27.1698 38.8653C26.9918 38.557 26.7455 38.3122 26.461 38.1388C27.0506 37.4935 27.1852 36.5149 26.7253 35.7187C26.4502 35.2424 26.0061 34.9015 25.4747 34.7591C24.9435 34.6168 24.3884 34.6898 23.9119 34.9649L23.8215 35.017C23.7982 34.7142 23.7095 34.4177 23.5532 34.1469C23.2781 33.6704 22.834 33.3296 22.3027 33.1872C21.7709 33.0447 21.2161 33.1179 20.7397 33.393L20.199 33.7052C20.1764 33.4073 20.0909 33.1099 19.9318 32.8344C19.7296 32.4841 19.4384 32.2175 19.1039 32.0428C19.3185 28.9265 20.8295 26.0987 23.306 24.1803C23.559 24.2915 23.8379 24.3544 24.1316 24.3544C24.4498 24.3544 24.7501 24.2797 25.0193 24.1503V24.7747C25.0193 25.9104 25.9432 26.8343 27.0789 26.8343C27.397 26.8343 27.6974 26.7596 27.9666 26.6303V26.7358C27.9666 27.8715 28.8905 28.7954 30.0261 28.7954C30.9456 28.7954 31.7257 28.1897 31.9897 27.3565C32.2822 27.5162 32.6174 27.6071 32.9734 27.6071C34.1091 27.6071 35.033 26.6832 35.033 25.5476V20.8561C35.2544 20.9296 35.4879 20.9697 35.7281 20.9697C36.8694 20.9697 37.8101 20.0958 37.9171 18.982C38.082 19.0766 38.2457 19.1735 38.4065 19.2735C38.5027 19.3333 38.6097 19.3619 38.7154 19.3619C38.9112 19.3619 39.1026 19.2639 39.2135 19.0854C39.3844 18.8106 39.3001 18.4493 39.0254 18.2784C38.6687 18.0566 38.3002 17.8468 37.928 17.6518V11.722C37.928 10.8222 37.5431 9.96221 36.8718 9.36256L33.7447 6.57104V4.37506C33.7447 4.05151 33.4825 3.78912 33.1588 3.78912C32.8351 3.78912 32.5729 4.05151 32.5729 4.37506V6.8333C32.5729 7.00018 32.644 7.1592 32.7686 7.27041L36.0912 10.2365C36.5136 10.6141 36.7561 11.1555 36.7561 11.722V18.7703C36.7561 19.337 36.295 19.798 35.7283 19.798C35.468 19.798 35.2232 19.701 35.0331 19.5258V13.1019C35.0331 12.7783 34.7708 12.516 34.4472 12.516C34.1235 12.516 33.8612 12.7783 33.8612 13.1019V25.5477C33.8612 26.0372 33.463 26.4354 32.9735 26.4354C32.484 26.4354 32.0858 26.0372 32.0858 25.5477V17.2246C32.0858 16.901 31.8236 16.6386 31.4999 16.6386C31.1762 16.6386 30.914 16.901 30.914 17.2246V26.7361C30.914 27.2256 30.5158 27.6238 30.0263 27.6238C29.5368 27.6238 29.1386 27.2256 29.1386 26.7361V17.2246C29.1386 16.901 28.8763 16.6386 28.5526 16.6386C28.229 16.6386 27.9667 16.901 27.9667 17.2246V24.7748C27.9667 25.2643 27.5685 25.6625 27.079 25.6625C26.5895 25.6625 26.1913 25.2643 26.1913 24.7748V17.2246C26.1913 16.901 25.929 16.6386 25.6054 16.6386C25.2817 16.6386 25.0194 16.901 25.0194 17.2246V22.2948C25.0194 22.7843 24.6212 23.1825 24.1317 23.1825C23.9762 23.1825 23.8301 23.1421 23.7029 23.0715C23.6516 23.0167 23.5923 22.9738 23.5273 22.943C23.3535 22.7808 23.2442 22.5506 23.2442 22.2948L23.244 9.83108C23.244 9.28651 23.4711 8.75951 23.8671 8.38498L25.2591 7.06803C25.376 6.9574 25.4422 6.80342 25.4422 6.6424V4.37506C25.4422 4.05151 25.18 3.78912 24.8563 3.78912C24.5326 3.78912 24.2704 4.05151 24.2704 4.37506V6.38998L23.0618 7.53338C22.4329 8.12811 22.0722 8.96553 22.0722 9.83084L22.0723 17.6533C21.7615 17.8162 21.4528 17.9876 21.1538 18.1685C20.877 18.3361 20.7885 18.6964 20.956 18.9732C21.0661 19.1552 21.2596 19.2558 21.4577 19.2558C21.5611 19.2558 21.6658 19.2285 21.7607 19.171C21.863 19.1092 21.968 19.0501 22.0722 18.9901V22.2946C22.0722 22.7028 22.193 23.0828 22.3988 23.4031C19.8065 25.4928 18.2134 28.5022 17.946 31.8165C17.6627 31.844 17.3808 31.9291 17.1185 32.0804L14.0974 33.8247C14.0837 33.6058 14.0742 33.3865 14.0694 33.168C14.0624 32.8445 13.7947 32.5892 13.4708 32.595C13.1473 32.6021 12.8909 32.87 12.8978 33.1936C12.907 33.6199 12.9334 34.0493 12.9743 34.4731L10.9341 35.6511C10.6538 35.813 10.5578 36.1712 10.7196 36.4515C10.8281 36.6395 11.025 36.7446 11.2276 36.7446C11.327 36.7446 11.4278 36.7193 11.52 36.666L17.7042 33.0955C17.9106 32.9764 18.1451 32.9505 18.3598 33.0034C18.3601 33.0035 18.3605 33.0035 18.3608 33.0036C18.5871 33.0595 18.7914 33.2032 18.9169 33.4205C19.1617 33.8444 19.0159 34.3883 18.592 34.6331L14.201 37.1682C13.9207 37.3301 13.8247 37.6883 13.9866 37.9686C14.1482 38.2487 14.5067 38.3449 14.787 38.1831L21.3257 34.408C21.531 34.2894 21.7703 34.2579 21.9993 34.3193C22.2284 34.3806 22.4197 34.5275 22.5383 34.7328C22.6569 34.9381 22.6883 35.1774 22.627 35.4064C22.5658 35.6355 22.4188 35.8269 22.2135 35.9455L15.6748 39.7206C15.3945 39.8824 15.2985 40.2406 15.4603 40.521C15.6219 40.801 15.9804 40.8971 16.2607 40.7354L24.4979 35.9797C24.7033 35.8612 24.9426 35.8297 25.1715 35.891C25.4005 35.9524 25.592 36.0992 25.7106 36.3047C25.9554 36.7285 25.8096 37.2725 25.3858 37.5173L17.1485 42.273C16.8682 42.4349 16.7722 42.7931 16.9341 43.0734C17.0426 43.2614 17.2395 43.3665 17.4421 43.3665C17.5415 43.3665 17.6422 43.3412 17.7345 43.2879L24.9435 39.1258C25.3671 38.882 25.9106 39.0278 26.1552 39.4513C26.2738 39.6566 26.3052 39.8959 26.2439 40.1249C26.1826 40.354 26.0357 40.5453 25.8304 40.6639L15.0519 46.8868C14.7716 47.0487 14.6756 47.4069 14.8375 47.6872C14.946 47.8752 15.1429 47.9803 15.3455 47.9803C15.4449 47.9803 15.5456 47.955 15.6379 47.9017L21.2011 44.6897C21.448 44.7668 21.6543 44.9301 21.7845 45.1556C21.9218 45.3935 21.9583 45.6704 21.8872 45.9355C21.8163 46.2006 21.6461 46.4222 21.4083 46.5595L15.3043 50.0836C14.8136 50.3668 14.2234 50.4275 13.6856 50.2506L9.4554 48.8563C9.29685 48.8041 9.12376 48.8219 8.97904 48.9053L6.85009 50.1343C6.56978 50.296 6.4738 50.6544 6.63564 50.9347C6.79736 51.2149 7.1556 51.3109 7.43603 51.1492L9.33786 50.0512L13.3191 51.3635C13.6412 51.4696 13.975 51.5219 14.3078 51.5219C14.8577 51.5219 15.4048 51.3787 15.8904 51.0984L21.9943 47.5744C22.5033 47.2806 22.8673 46.8062 23.0193 46.2388C23.1714 45.6713 23.0933 45.0786 22.7994 44.5697C22.6793 44.3617 22.5278 44.1794 22.3534 44.0244L23.7919 43.1939C25.6644 44.3158 27.8026 44.9081 30.0002 44.9081C32.1979 44.9081 34.3359 44.3158 36.2086 43.1939L37.6471 44.0244C37.4727 44.1794 37.3211 44.3617 37.2011 44.5695C36.9072 45.0785 36.8291 45.6712 36.9812 46.2387C37.1332 46.8061 37.4972 47.2805 38.0061 47.5742L44.1101 51.0983C44.5958 51.3787 45.1426 51.5218 45.6927 51.5218C46.0254 51.5218 46.3594 51.4694 46.6815 51.3634L50.6625 50.0512L52.5643 51.1492C52.8447 51.311 53.203 51.2149 53.3647 50.9347C53.5266 50.6544 53.4306 50.296 53.1503 50.1343L51.0213 48.9053C50.8767 48.8217 50.7036 48.804 50.545 48.8563L46.315 50.2506C45.7768 50.4278 45.1866 50.3668 44.6961 50.0837L38.5922 46.5596C38.3544 46.4223 38.1843 46.2007 38.1133 45.9356C38.0422 45.6705 38.0787 45.3936 38.216 45.1556C38.3462 44.9303 38.5525 44.7668 38.7994 44.6897L44.3626 47.9017C44.4549 47.955 44.5556 47.9803 44.655 47.9803C44.8576 47.9803 45.0545 47.8752 45.163 47.6872C45.3249 47.4069 45.2289 47.0487 44.9486 46.8868L34.1701 40.6639C33.9648 40.5453 33.8179 40.354 33.7566 40.1249C33.6953 39.8959 33.7267 39.6566 33.8453 39.4513C34.0897 39.0276 34.6334 38.882 35.057 39.1258L42.266 43.2879C42.3583 43.3412 42.459 43.3665 42.5584 43.3665C42.761 43.3665 42.9579 43.2614 43.0664 43.0734C43.2283 42.7931 43.1323 42.4349 42.852 42.273L34.6147 37.5173C34.1909 37.2725 34.0451 36.7287 34.2899 36.3047C34.4085 36.0994 34.6 35.9524 34.829 35.891C35.0583 35.8297 35.2974 35.8612 35.5026 35.9797L43.7398 40.7354C44.0201 40.8971 44.3785 40.801 44.5402 40.521C44.702 40.2406 44.606 39.8824 44.3257 39.7206L37.787 35.9455C37.5817 35.8269 37.4347 35.6355 37.3734 35.4064C37.3122 35.1774 37.3436 34.9381 37.4622 34.7327C37.5808 34.5274 37.7721 34.3806 38.0012 34.3192C38.2302 34.258 38.4695 34.2894 38.6748 34.4079L45.2135 38.1829C45.4938 38.3448 45.8522 38.2486 46.0139 37.9685C46.1758 37.6882 46.0798 37.3299 45.7995 37.1681L41.4085 34.633C41.2031 34.5144 41.0563 34.323 40.9949 34.094C40.9336 33.8649 40.965 33.6258 41.0836 33.4203C41.2022 33.215 41.3936 33.0682 41.6227 33.0068C41.6261 33.0058 41.6295 33.0055 41.6327 33.0046C41.6377 33.0035 41.6425 33.0026 41.6473 33.0014C41.8688 32.9487 42.0982 32.9811 42.2963 33.0954L53.0902 39.3272C53.5618 39.5995 53.9047 40.0596 54.031 40.5897L54.4754 42.4537C54.5127 42.6104 54.6129 42.7447 54.7524 42.8252L56.716 43.9589C56.8082 44.0122 56.909 44.0375 57.0083 44.0375C57.2109 44.0375 57.4078 43.9324 57.5163 43.7444C57.6774 43.4642 57.5813 43.1059 57.3011 42.944Z" fill="#2626BB"/>
<path d="M27.7582 28.8941C27.873 28.798 27.9949 28.709 28.1215 28.6293C28.0148 28.7347 27.8929 28.825 27.7582 28.8941Z" fill="#FFDAEC"/>
<path d="M51.2999 29.1504C51.0519 29.1504 50.7596 29.0553 50.4652 28.8893C50.1708 29.0553 49.8784 29.1504 49.6305 29.1504C49.3068 29.1504 49.0445 28.888 49.0445 28.5645C49.0445 28.3026 49.2163 28.0808 49.4534 28.0057C49.109 27.5626 48.8708 27.0314 48.8708 26.487C48.8708 25.6078 49.586 24.8926 50.4651 24.8926C51.3441 24.8926 52.0594 25.6078 52.0594 26.487C52.0594 27.031 51.8217 27.5617 51.4778 28.0046C51.7164 28.0783 51.8884 28.301 51.8884 28.5645C51.8885 28.8881 51.6236 29.1504 51.2999 29.1504ZM50.4652 26.0645C50.2323 26.0645 50.0428 26.254 50.0428 26.487C50.0428 26.8068 50.2305 27.1287 50.4655 27.3912C50.7 27.1287 50.8878 26.8068 50.8878 26.487C50.8876 26.2541 50.6982 26.0645 50.4652 26.0645Z" fill="#6582FD"/>
<path d="M17.2925 16.5723C17.0445 16.5723 16.7521 16.4771 16.4577 16.3112C16.1634 16.4771 15.871 16.5723 15.623 16.5723C15.2993 16.5723 15.0371 16.3099 15.0371 15.9864C15.0371 15.7246 15.2089 15.5027 15.4458 15.4276C15.1015 14.9845 14.8633 14.4533 14.8633 13.9089C14.8633 13.0297 15.5786 12.3145 16.4576 12.3145C17.3366 12.3145 18.0518 13.0297 18.0518 13.9089C18.0518 14.4528 17.8142 14.9836 17.4704 15.4264C17.7089 15.5 17.881 15.7229 17.881 15.9864C17.8812 16.31 17.6161 16.5723 17.2925 16.5723ZM16.4577 13.4864C16.2248 13.4864 16.0353 13.6759 16.0353 13.9089C16.0353 14.2287 16.223 14.5507 16.4579 14.8131C16.6925 14.5506 16.8802 14.2287 16.8802 13.9089C16.8802 13.6759 16.6907 13.4864 16.4577 13.4864Z" fill="#6582FD"/>
<path d="M45.4895 18.4217C45.2415 18.4217 44.9491 18.3265 44.6548 18.1606C44.3604 18.3265 44.068 18.4217 43.82 18.4217C43.4964 18.4217 43.2341 18.1593 43.2341 17.8357C43.2341 17.5739 43.4059 17.3521 43.6428 17.277C43.2985 16.8339 43.0603 16.3027 43.0603 15.7582C43.0603 14.8791 43.7756 14.1639 44.6546 14.1639C45.5337 14.1639 46.2489 14.8791 46.2489 15.7582C46.2489 16.3022 46.0112 16.8329 45.6674 17.2758C45.906 17.3494 46.078 17.5723 46.078 17.8357C46.0781 18.1594 45.813 18.4217 45.4895 18.4217ZM44.6548 15.3358C44.4218 15.3358 44.2323 15.5252 44.2323 15.7582C44.2323 16.078 44.42 16.4001 44.6549 16.6624C44.8895 16.3999 45.0772 16.078 45.0772 15.7582C45.0771 15.5252 44.8876 15.3358 44.6548 15.3358Z" fill="#6582FD"/>
<path d="M18.49 10.5458C18.1663 10.5458 17.9041 10.2834 17.9041 9.95981C17.9041 9.60438 17.6148 9.31527 17.2595 9.31527C16.9358 9.31527 16.6736 9.05289 16.6736 8.72933C16.6736 8.40577 16.9358 8.14339 17.2595 8.14339C17.6148 8.14339 17.9041 7.85428 17.9041 7.49885C17.9041 7.17529 18.1663 6.9129 18.49 6.9129C18.8137 6.9129 19.0759 7.17529 19.0759 7.49885C19.0759 7.85428 19.3651 8.14339 19.7205 8.14339C20.0441 8.14339 20.3064 8.40577 20.3064 8.72933C20.3064 9.05289 20.0441 9.31527 19.7205 9.31527C19.3651 9.31527 19.0759 9.60438 19.0759 9.95981C19.0759 10.2834 18.8137 10.5458 18.49 10.5458Z" fill="#6582FD"/>
<path d="M25.2112 56.6017C24.8875 56.6017 24.6252 56.3393 24.6252 56.0157C24.6252 55.6603 24.336 55.3712 23.9807 55.3712C23.657 55.3712 23.3948 55.1088 23.3948 54.7853C23.3948 54.4617 23.657 54.1993 23.9807 54.1993C24.336 54.1993 24.6252 53.9102 24.6252 53.5548C24.6252 53.2313 24.8875 52.9689 25.2112 52.9689C25.5349 52.9689 25.7971 53.2313 25.7971 53.5548C25.7971 53.9102 26.0863 54.1993 26.4417 54.1993C26.7653 54.1993 27.0276 54.4617 27.0276 54.7853C27.0276 55.1088 26.7653 55.3712 26.4417 55.3712C26.0863 55.3712 25.7971 55.6603 25.7971 56.0157C25.7971 56.3393 25.5347 56.6017 25.2112 56.6017Z" fill="#6582FD"/>
</g>
<defs>
<linearGradient id="paint0_linear_580_2772" x1="4.18153" y1="30" x2="55.819" y2="30" gradientUnits="userSpaceOnUse">
<stop stop-color="#D1DDFF" stop-opacity="0"/>
<stop offset="1" stop-color="#B6C4FF"/>
</linearGradient>
<clipPath id="clip0_580_2772">
<rect width="60" height="60" fill="white"/>
</clipPath>
</defs>
</svg>
