<svg width="60" height="60" viewBox="0 0 60 60" fill="none" xmlns="http://www.w3.org/2000/svg">
<g clip-path="url(#clip0_580_2888)">
<path d="M59.0083 50.3352C59.487 48.4181 59.9421 45.6619 56.6135 42.6315C46.1963 33.1475 65.1767 31.1391 51.3887 15.2515C42.983 5.56547 17.9958 -8.5602 11.8735 6.79828C8.15099 16.1365 0.248338 15.4084 0.675721 22.8471C0.949354 27.6107 8.38068 28.1802 5.194 36.4002C1.94041 44.7927 19.2594 50.2391 23.4392 42.4597C24.533 40.4238 26.5173 34.4652 29.0814 36.2279C35.2589 40.4747 31.4303 51.6291 35.5921 56.8511C40.2285 62.6681 56.4986 60.3859 59.0083 50.3352Z" fill="url(#paint0_linear_580_2888)"/>
<path opacity="0.1" d="M37.0751 50.2877V49.7917C37.0751 49.4356 36.7864 49.1468 36.4303 49.1468H34.7744V46.6104C34.7744 46.2543 34.4857 45.9655 34.1295 45.9655H33.6339V40.6321H51.045C51.6922 40.6321 52.2168 40.1074 52.2168 39.4602V28.3652C52.2168 27.718 51.6922 27.1934 51.045 27.1934H49.0205V25.0434H51.045C51.6922 25.0434 52.2168 24.5188 52.2168 23.8716V12.7766C52.2168 12.1294 51.6922 11.6047 51.045 11.6047H13.6425C12.9952 11.6047 12.4706 12.1294 12.4706 12.7766V23.8716C12.4706 24.5188 12.9952 25.0434 13.6425 25.0434H15.6669V27.1934H13.6425C12.9952 27.1934 12.4706 27.718 12.4706 28.3652V35.9447C10.1873 36.6278 7.88046 36.861 6.603 36.9401L5.82687 36.9881C5.3737 37.0163 5.01429 37.3808 4.99273 37.8345L4.95581 38.6112C4.86745 40.4722 4.88749 43.1774 5.48468 45.4964C7.16491 52.0215 11.5428 55.135 13.347 56.1707L13.779 56.4186C14.0534 56.5761 14.3909 56.5763 14.6654 56.4186L15.0973 56.1707C16.0037 55.6504 17.5594 54.6052 19.0965 52.8672H27.6123V53.3632C27.6123 53.7193 27.901 54.0081 28.2571 54.0081H36.4303C36.7864 54.0081 37.0751 53.7193 37.0751 53.3632V52.8672H53.1848V50.2875H37.0751V50.2877ZM31.0535 45.9655H30.5579C30.2017 45.9655 29.913 46.2543 29.913 46.6104V49.1468H28.2571C27.901 49.1468 27.6123 49.4356 27.6123 49.7917V50.2877H20.979C21.7775 48.9485 22.479 47.3626 22.9596 45.4965C23.3644 43.9246 23.5035 42.1758 23.5241 40.6322H31.0535V45.9655Z" fill="#0000CC"/>
<path d="M15.6669 21.9966H49.0205V25.1735H15.6669V21.9966Z" fill="white"/>
<path d="M31.0534 35.6238H33.6339V43.991H31.0534V35.6238Z" fill="white"/>
<path d="M11.5031 47.475H53.1843V50.0543H11.5031V47.475Z" fill="white"/>
<path d="M49.9594 47.4753V50.0549H45.8799V47.4753H49.9594Z" fill="#6583FE"/>
<path d="M34.7744 46.3343V43.7979C34.7744 43.4418 34.4856 43.153 34.1295 43.153H30.5579C30.2017 43.153 29.913 43.4418 29.913 43.7979V46.3343H28.2571C27.901 46.3343 27.6122 46.6231 27.6122 46.9792V50.5508C27.6122 50.907 27.901 51.1957 28.2571 51.1957H36.4303C36.7864 51.1957 37.0751 50.907 37.0751 50.5508V46.9792C37.0751 46.6231 36.7864 46.3343 36.4303 46.3343H34.7744Z" fill="#6583FE"/>
<path d="M51.0449 22.2309H13.6424C12.9952 22.2309 12.4705 21.7063 12.4705 21.0591V9.96411C12.4705 9.31688 12.9952 8.79224 13.6424 8.79224H51.0448C51.692 8.79224 52.2167 9.31688 52.2167 9.96411V21.0591C52.2168 21.7063 51.692 22.2309 51.0449 22.2309Z" fill="#6583FE"/>
<path d="M32.3437 13.2867V17.2711C32.3437 17.5945 32.0812 17.857 31.7577 17.857H23.5276V17.2933H21.8003V17.857H20.2839V17.2933H16.8304V17.857H12.471V12.7007H16.8304V13.7261H20.2839V12.7007H21.8003V13.7261H23.5276V12.7007H31.7577C32.0812 12.7007 32.3437 12.9632 32.3437 13.2867Z" fill="white"/>
<path d="M16.83 12.7009H20.2842V17.8566H16.83V12.7009Z" fill="#6583FE"/>
<path d="M21.7999 12.7009H23.527V17.8566H21.7999V12.7009Z" fill="#6583FE"/>
<path d="M36.4979 17.8566H35.1026C34.7791 17.8566 34.5167 17.5943 34.5167 17.2707V13.2868C34.5167 12.9632 34.7791 12.7009 35.1026 12.7009H36.4979C36.8214 12.7009 37.0838 12.9632 37.0838 13.2868V17.2707C37.0838 17.5944 36.8214 17.8566 36.4979 17.8566Z" fill="white"/>
<path d="M51.0449 37.8197H13.6424C12.9952 37.8197 12.4705 37.295 12.4705 36.6478V25.5529C12.4705 24.9056 12.9952 24.381 13.6424 24.381H51.0448C51.692 24.381 52.2167 24.9056 52.2167 25.5529V36.6478C52.2168 37.2949 51.692 37.8197 51.0449 37.8197Z" fill="#6583FE"/>
<path d="M32.3437 29.1082V33.0926C32.3437 33.416 32.0812 33.6785 31.7577 33.6785H12.471V28.5223H16.8304V29.6391H20.2839V28.5223H21.8003V29.6391H23.5276V28.5223H31.7577C32.0812 28.5223 32.3437 28.7848 32.3437 29.1082Z" fill="white"/>
<path d="M16.83 28.5224H20.2842V33.6782H16.83V28.5224Z" fill="#6583FE"/>
<path d="M21.7999 28.5224H23.527V33.6782H21.7999V28.5224Z" fill="#6583FE"/>
<path d="M36.4979 33.6782H35.1026C34.7791 33.6782 34.5167 33.4158 34.5167 33.0923V29.1083C34.5167 28.7848 34.7791 28.5224 35.1026 28.5224H36.4979C36.8214 28.5224 37.0838 28.7848 37.0838 29.1083V33.0923C37.0838 33.4158 36.8214 33.6782 36.4979 33.6782Z" fill="white"/>
<path d="M13.347 53.3583C11.5428 52.3226 7.16491 49.209 5.48468 42.684C4.88749 40.365 4.86745 37.6599 4.95581 35.7988L4.99273 35.0221C5.01429 34.5686 5.3737 34.2039 5.82687 34.1758L6.603 34.1277C8.09339 34.0354 10.985 33.734 13.6054 32.7523L13.9098 32.6383C14.1111 32.5628 14.333 32.5628 14.5344 32.6383L14.8387 32.7523C17.4593 33.7341 20.3509 34.0355 21.8411 34.1278L22.6173 34.1759C23.0704 34.204 23.4298 34.5686 23.4514 35.0222L23.4882 35.7989C23.5766 37.66 23.5565 40.3653 22.9593 42.6842C21.2792 49.2092 16.9013 52.3227 15.0971 53.3584L14.6651 53.6064C14.3907 53.7639 14.0532 53.7639 13.7787 53.6064L13.347 53.3583Z" fill="#6583FE"/>
<path d="M21.2578 42.2461C20.3097 45.9258 18.4148 48.3949 16.7461 49.9489C16.1449 49.2246 15.2379 48.7617 14.2219 48.7617C13.207 48.7617 12.2988 49.2246 11.6976 49.9489C10.0301 48.3949 8.13513 45.9258 7.18708 42.2461C6.62224 40.0535 6.63982 37.3864 6.7113 35.8817C8.47849 35.7727 11.4562 35.434 14.2219 34.3981C16.9875 35.434 19.9652 35.7727 21.7324 35.8817C21.8039 37.3864 21.8215 40.0535 21.2578 42.2461Z" fill="white"/>
<path d="M16.7466 49.9487C15.733 50.8943 14.8037 51.5003 14.2222 51.8338C13.6407 51.5004 12.7115 50.8943 11.6979 49.9487C12.2993 49.224 13.2065 48.7622 14.2222 48.7622C15.2379 48.7622 16.145 49.224 16.7466 49.9487Z" fill="#6583FE"/>
<path d="M12.7136 41.4399V39.3038C12.7136 38.4721 13.3904 37.7953 14.2222 37.7953C15.054 37.7953 15.7307 38.4721 15.7307 39.3038V41.4399H17.1119V39.3038C17.1119 37.7105 15.8156 36.4141 14.2222 36.4141C12.6288 36.4141 11.3325 37.7105 11.3325 39.3038V41.4399H12.7136Z" fill="#6583FE"/>
<path d="M17.007 47.0384H11.4372C11.0395 47.0384 10.717 46.7159 10.717 46.3182V41.7229C10.717 41.3252 11.0395 41.0027 11.4372 41.0027H17.007C17.4048 41.0027 17.7273 41.3252 17.7273 41.7229V46.3182C17.7273 46.7159 17.4049 47.0384 17.007 47.0384Z" fill="#6583FE"/>
<path d="M15.1277 43.8477C15.1277 43.3283 14.6905 42.911 14.1641 42.944C13.7223 42.9715 13.3591 43.3246 13.3202 43.7656C13.2871 44.1421 13.4845 44.4761 13.7871 44.6421V45.4847C13.7871 45.7249 13.9819 45.9197 14.2221 45.9197C14.4623 45.9197 14.6571 45.7249 14.6571 45.4847V44.6421C14.9376 44.4883 15.1277 44.1903 15.1277 43.8477Z" fill="white"/>
<path d="M53.1848 49.469H37.6611V48.0612H53.1848C53.5084 48.0612 53.7707 47.7988 53.7707 47.4752C53.7707 47.1517 53.5084 46.8893 53.1848 46.8893H37.6565C37.6101 46.2526 37.0787 45.7484 36.4303 45.7484H35.3604V43.7979C35.3604 43.1496 34.8561 42.6179 34.2194 42.5715V38.4054H51.0449C52.0141 38.4054 52.8027 37.6168 52.8027 36.6476V25.5526C52.8027 24.5834 52.0141 23.7948 51.0449 23.7948H49.6064V22.8166H51.0449C52.0141 22.8166 52.8027 22.0281 52.8027 21.0588V9.96411C52.8027 8.99485 52.0141 8.2063 51.0449 8.2063H13.6426C12.6733 8.2063 11.8848 8.99485 11.8848 9.96411V13.6883C11.8848 14.0119 12.1472 14.2743 12.4707 14.2743C12.7943 14.2743 13.0566 14.0119 13.0566 13.6883V9.96411C13.0566 9.64103 13.3195 9.37817 13.6426 9.37817H51.045C51.3681 9.37817 51.6309 9.64103 51.6309 9.96411V21.0591C51.6309 21.3822 51.3681 21.645 51.045 21.645H13.6426C13.3195 21.645 13.0566 21.3822 13.0566 21.0591V17.0645C13.0566 16.7409 12.7943 16.4786 12.4707 16.4786C12.1472 16.4786 11.8848 16.7409 11.8848 17.0645V21.0591C11.8848 22.0283 12.6733 22.8169 13.6426 22.8169H15.0811V23.795H13.6426C12.6733 23.795 11.8848 24.5836 11.8848 25.5529V32.6912C9.79755 33.2656 7.73938 33.4704 6.56692 33.5429L5.79067 33.591C5.03786 33.6376 4.44325 34.2409 4.40751 34.9943L4.37071 35.7709C4.28036 37.6723 4.30204 40.4404 4.91739 42.83C6.65317 49.5708 11.1868 52.7937 13.0554 53.8664L13.4873 54.1144C13.7141 54.2446 13.9681 54.3096 14.2222 54.3096C14.4763 54.3096 14.7304 54.2446 14.9571 54.1144L15.3891 53.8664C16.2935 53.3473 17.8222 52.3224 19.3558 50.6407H27.031C27.0774 51.2774 27.609 51.7815 28.2573 51.7815H36.4304C37.0787 51.7815 37.6102 51.2774 37.6566 50.6407H53.1849C53.5085 50.6407 53.7709 50.3783 53.7709 50.0548C53.7709 49.7312 53.5084 49.469 53.1848 49.469ZM33.0475 42.5671H31.6398V38.4055H33.0475V42.5671ZM16.2528 22.8169H48.4345V23.795H16.2528V22.8169ZM51.0449 24.9669C51.3679 24.9669 51.6308 25.2298 51.6308 25.5529V36.6478C51.6308 36.9709 51.3679 37.2338 51.0449 37.2338H26.7559C26.4323 37.2338 26.1699 37.4961 26.1699 37.8197C26.1699 38.1433 26.4323 38.4056 26.7559 38.4056H30.468V42.5718C29.8313 42.6182 29.3271 43.1497 29.3271 43.7981V45.7486H28.2572C27.6088 45.7486 27.0772 46.2527 27.0309 46.8895H21.9764C22.5944 45.7063 23.1331 44.3598 23.527 42.8304C24.1425 40.4407 24.164 37.6726 24.0738 35.7713L24.037 34.9945C24.0013 34.2411 23.4066 33.6379 22.6538 33.5912L21.8777 33.5432C20.42 33.4528 17.5938 33.1588 15.0445 32.2037L14.7402 32.0898C14.4062 31.9648 14.0384 31.9648 13.7045 32.0898L13.4001 32.2038C13.2862 32.2465 13.1716 32.2874 13.0568 32.3275V25.5531C13.0568 25.23 13.3196 24.9672 13.6427 24.9672H51.0449V24.9669ZM14.8057 52.8502L14.3736 53.0983C14.2802 53.1519 14.1642 53.1518 14.0708 53.0983L13.6388 52.8503C11.899 51.8515 7.67692 48.8473 6.05223 42.538C5.47333 40.2898 5.45481 37.6475 5.5413 35.8267L5.57809 35.05C5.58548 34.8947 5.70805 34.7704 5.86321 34.7608L6.63934 34.7127C8.16231 34.6184 11.1191 34.3097 13.8112 33.3012L14.1156 33.1872C14.1499 33.1743 14.1862 33.1678 14.2223 33.1678C14.2584 33.1678 14.2947 33.1743 14.3292 33.1873L14.6334 33.3012C17.3253 34.3097 20.2822 34.6185 21.8053 34.7128L22.5814 34.7609C22.7366 34.7706 22.8593 34.8949 22.8666 35.0501L22.9034 35.8268C22.9898 37.6477 22.9714 40.29 22.3924 42.5381C20.7675 48.8472 16.5454 51.8514 14.8057 52.8502ZM21.3076 48.0612H27.0263V49.469H20.3354C20.668 49.034 20.994 48.5652 21.3076 48.0612ZM36.4892 50.5508C36.4892 50.5833 36.4627 50.6098 36.4303 50.6098H28.2572C28.2247 50.6098 28.1982 50.5833 28.1982 50.5508V46.9792C28.1982 46.9467 28.2247 46.9202 28.2572 46.9202H29.913C30.2366 46.9202 30.499 46.6579 30.499 46.3343V43.7979C30.499 43.7654 30.5254 43.739 30.5579 43.739H34.1295C34.1621 43.739 34.1885 43.7654 34.1885 43.7979V46.3343C34.1885 46.6579 34.4509 46.9202 34.7744 46.9202H36.4303C36.4627 46.9202 36.4892 46.9467 36.4892 46.9792V50.5508Z" fill="#0000CC"/>
<path d="M40.1574 13.8728C40.481 13.8728 40.7434 13.6105 40.7434 13.2869C40.7434 12.9633 40.481 12.7009 40.1574 12.7009C39.8338 12.7009 39.5715 12.9633 39.5715 13.2869C39.5715 13.6105 39.8338 13.8728 40.1574 13.8728Z" fill="#0000CC"/>
<path d="M42.3864 13.8728C42.71 13.8728 42.9723 13.6105 42.9723 13.2869C42.9723 12.9633 42.71 12.7009 42.3864 12.7009C42.0627 12.7009 41.8004 12.9633 41.8004 13.2869C41.8004 13.6105 42.0627 13.8728 42.3864 13.8728Z" fill="#0000CC"/>
<path d="M44.6152 13.8728C44.9388 13.8728 45.2012 13.6105 45.2012 13.2869C45.2012 12.9633 44.9388 12.7009 44.6152 12.7009C44.2916 12.7009 44.0293 12.9633 44.0293 13.2869C44.0293 13.6105 44.2916 13.8728 44.6152 13.8728Z" fill="#0000CC"/>
<path d="M39.5715 15.3011C39.5715 15.6246 39.8339 15.887 40.1574 15.887H46.8733C47.1969 15.887 47.4593 15.6246 47.4593 15.3011C47.4593 14.9775 47.1969 14.7151 46.8733 14.7151H40.1574C39.8338 14.7151 39.5715 14.9775 39.5715 15.3011Z" fill="#0000CC"/>
<path d="M40.1574 17.9012H46.8733C47.1969 17.9012 47.4593 17.6389 47.4593 17.3153C47.4593 16.9918 47.1969 16.7294 46.8733 16.7294H40.1574C39.8339 16.7294 39.5715 16.9918 39.5715 17.3153C39.5715 17.6389 39.8338 17.9012 40.1574 17.9012Z" fill="#0000CC"/>
<path d="M40.1574 29.6943C40.481 29.6943 40.7434 29.4319 40.7434 29.1083C40.7434 28.7847 40.481 28.5224 40.1574 28.5224C39.8338 28.5224 39.5715 28.7847 39.5715 29.1083C39.5715 29.4319 39.8338 29.6943 40.1574 29.6943Z" fill="#0000CC"/>
<path d="M42.3864 29.6943C42.71 29.6943 42.9723 29.4319 42.9723 29.1083C42.9723 28.7847 42.71 28.5224 42.3864 28.5224C42.0627 28.5224 41.8004 28.7847 41.8004 29.1083C41.8004 29.4319 42.0627 29.6943 42.3864 29.6943Z" fill="#0000CC"/>
<path d="M44.6152 29.6943C44.9388 29.6943 45.2012 29.4319 45.2012 29.1083C45.2012 28.7847 44.9388 28.5224 44.6152 28.5224C44.2916 28.5224 44.0293 28.7847 44.0293 29.1083C44.0293 29.4319 44.2916 29.6943 44.6152 29.6943Z" fill="#0000CC"/>
<path d="M40.1574 31.7085H46.8733C47.1969 31.7085 47.4593 31.4461 47.4593 31.1226C47.4593 30.799 47.1969 30.5366 46.8733 30.5366H40.1574C39.8339 30.5366 39.5715 30.799 39.5715 31.1226C39.5715 31.4461 39.8338 31.7085 40.1574 31.7085Z" fill="#0000CC"/>
<path d="M40.1574 33.7227H46.8733C47.1969 33.7227 47.4593 33.4603 47.4593 33.1368C47.4593 32.8132 47.1969 32.5508 46.8733 32.5508H40.1574C39.8339 32.5508 39.5715 32.8132 39.5715 33.1368C39.5715 33.4603 39.8338 33.7227 40.1574 33.7227Z" fill="#0000CC"/>
<path d="M11.988 41.8762C11.8117 41.8762 11.6688 42.019 11.6688 42.1954C11.6688 42.3716 11.8116 42.5146 11.988 42.5146C12.1642 42.5146 12.3072 42.3717 12.3072 42.1954C12.3072 42.0191 12.1643 41.8762 11.988 41.8762Z" fill="#0000CC"/>
<path d="M16.4562 41.8762C16.28 41.8762 16.137 42.019 16.137 42.1954C16.137 42.3716 16.2799 42.5146 16.4562 42.5146C16.6325 42.5146 16.7755 42.3717 16.7755 42.1954C16.7755 42.0191 16.6325 41.8762 16.4562 41.8762Z" fill="#0000CC"/>
<path d="M6.67591 30.4923C6.35235 30.4923 6.08997 30.2299 6.08997 29.9063C6.08997 29.5509 5.80087 29.2618 5.44544 29.2618C5.12188 29.2618 4.8595 28.9994 4.8595 28.6758C4.8595 28.3523 5.12188 28.0899 5.44544 28.0899C5.80087 28.0899 6.08997 27.8008 6.08997 27.4454C6.08997 27.1218 6.35235 26.8594 6.67591 26.8594C6.99946 26.8594 7.26184 27.1218 7.26184 27.4454C7.26184 27.8008 7.55095 28.0899 7.90638 28.0899C8.22993 28.0899 8.49231 28.3523 8.49231 28.6758C8.49231 28.9994 8.22993 29.2618 7.90638 29.2618C7.55095 29.2618 7.26184 29.5509 7.26184 29.9063C7.26184 30.2299 6.99946 30.4923 6.67591 30.4923Z" fill="#6583FE"/>
<path d="M8.4425 25.1782C8.11895 25.1782 7.85657 24.9158 7.85657 24.5923C7.85657 24.2369 7.56747 23.9478 7.21204 23.9478C6.88848 23.9478 6.6261 23.6854 6.6261 23.3618C6.6261 23.0383 6.88848 22.7759 7.21204 22.7759C7.56747 22.7759 7.85657 22.4868 7.85657 22.1313C7.85657 21.8078 8.11895 21.5454 8.4425 21.5454C8.76606 21.5454 9.02844 21.8078 9.02844 22.1313C9.02844 22.4868 9.31754 22.7759 9.67297 22.7759C9.99653 22.7759 10.2589 23.0383 10.2589 23.3618C10.2589 23.6854 9.99653 23.9478 9.67297 23.9478C9.31754 23.9478 9.02844 24.2369 9.02844 24.5923C9.02844 24.916 8.76606 25.1782 8.4425 25.1782Z" fill="#6583FE"/>
<path d="M45.9997 5.96076C45.6761 5.96076 45.4138 5.69837 45.4138 5.37482C45.4138 5.01939 45.1247 4.73029 44.7692 4.73029C44.4457 4.73029 44.1833 4.4679 44.1833 4.14435C44.1833 3.82079 44.4457 3.55841 44.7692 3.55841C45.1247 3.55841 45.4138 3.26931 45.4138 2.91388C45.4138 2.59032 45.6761 2.32794 45.9997 2.32794C46.3232 2.32794 46.5856 2.59032 46.5856 2.91388C46.5856 3.26931 46.8747 3.55841 47.2302 3.55841C47.5537 3.55841 47.8161 3.82079 47.8161 4.14435C47.8161 4.4679 47.5537 4.73029 47.2302 4.73029C46.8747 4.73029 46.5856 5.01939 46.5856 5.37482C46.5856 5.69837 46.3232 5.96076 45.9997 5.96076Z" fill="#6583FE"/>
<path d="M21.9857 57.8281C21.6622 57.8281 21.3998 57.5657 21.3998 57.2422C21.3998 56.8868 21.1107 56.5977 20.7552 56.5977C20.4317 56.5977 20.1693 56.3353 20.1693 56.0117C20.1693 55.6882 20.4317 55.4258 20.7552 55.4258C21.1107 55.4258 21.3998 55.1367 21.3998 54.7812C21.3998 54.4577 21.6622 54.1953 21.9857 54.1953C22.3093 54.1953 22.5717 54.4577 22.5717 54.7812C22.5717 55.1367 22.8608 55.4258 23.2162 55.4258C23.5397 55.4258 23.8021 55.6882 23.8021 56.0117C23.8021 56.3353 23.5397 56.5977 23.2162 56.5977C22.8609 56.5977 22.5717 56.8868 22.5717 57.2422C22.5717 57.5657 22.3093 57.8281 21.9857 57.8281Z" fill="#6583FE"/>
<path d="M49.9595 6.5467C49.8095 6.5467 49.6596 6.48951 49.5451 6.37513C49.3162 6.14627 49.3162 5.77525 49.5451 5.5465L50.717 4.37463C50.9458 4.14588 51.3167 4.14588 51.5456 4.37463C51.7745 4.60349 51.7745 4.97451 51.5456 5.20326L50.3737 6.37513C50.2593 6.48939 50.1095 6.5467 49.9595 6.5467Z" fill="#6583FE"/>
</g>
<defs>
<linearGradient id="paint0_linear_580_2888" x1="14.2035" y1="50.1796" x2="50.311" y2="14.0721" gradientUnits="userSpaceOnUse">
<stop stop-color="#D2DEFF" stop-opacity="0"/>
<stop offset="1" stop-color="#B7C5FF"/>
</linearGradient>
<clipPath id="clip0_580_2888">
<rect width="60" height="60" fill="white"/>
</clipPath>
</defs>
</svg>
