<svg width="60" height="60" viewBox="0 0 60 60" fill="none" xmlns="http://www.w3.org/2000/svg">
<g clip-path="url(#clip0_2500_35642)">
<path d="M54.0437 3.20535C46.5722 -1.24625 36.9041 -0.9991 29.5664 3.56172C25.4437 6.12414 22.2569 9.81988 18.6431 13.0014C15.4764 15.7892 11.7941 17.7777 8.5236 20.4081C-3.33695 29.9475 -2.20527 55.677 14.4957 59.0947C21.7352 60.5761 31.6297 61.0512 35.8847 53.9804C39.9417 47.2384 41.3025 40.3417 49.2295 36.7606C51.992 35.5125 56.6094 35.5755 58.4808 32.8407C60.8423 29.3894 57.912 25.8044 56.3489 22.7969C54.3344 18.921 53.912 15.0998 55.3295 10.9422C56.5363 7.40184 57.386 5.81149 54.0437 3.20535Z" fill="url(#paint0_linear_2500_35642)"/>
<path d="M50.5773 26.9642V46.6365C50.5773 47.2845 50.0535 47.8083 49.4055 47.8083H10.2695C9.62148 47.8083 9.09766 47.2845 9.09766 46.6365V26.9642H50.5773Z" fill="#8383FF"/>
<path d="M50.5773 26.9642V33.0439C49.7324 33.8724 48.5746 34.3833 47.2984 34.3833H43.5918V37.5134C43.5918 38.1615 43.0668 38.6853 42.4199 38.6853H41.0125C40.3645 38.6853 39.8406 38.1615 39.8406 37.5134V34.3833H19.8344V37.5134C19.8344 38.1615 19.3105 38.6853 18.6625 38.6853H17.2551C16.6082 38.6853 16.0832 38.1615 16.0832 37.5134V34.3833H12.3766C11.1004 34.3833 9.94258 33.8724 9.09766 33.0439V26.9642H50.5773Z" fill="#6C6CFF"/>
<path d="M50.5773 26.9642V46.6365C50.5773 47.2845 50.0535 47.8083 49.4055 47.8083H10.2695C9.62148 47.8083 9.09766 47.2845 9.09766 46.6365V26.9642H50.5773Z" fill="url(#paint1_linear_2500_35642)"/>
<path d="M8.86084 12.2836H50.814C51.4612 12.2836 51.9858 12.8083 51.9858 13.4555V26.8834C51.9858 29.4722 49.8871 31.5709 47.2983 31.5709H12.3765C9.78768 31.5709 7.68896 29.4722 7.68896 26.8834V13.4555C7.68896 12.8083 8.21373 12.2836 8.86084 12.2836Z" fill="#9494FF"/>
<path d="M15.4846 20.717V24.4374C15.4846 25.0847 16.0093 25.6093 16.6565 25.6093H19.262C19.9093 25.6093 20.4339 25.0847 20.4339 24.4374V20.717H15.4846Z" fill="#8383FF"/>
<path d="M39.2412 20.717V24.4374C39.2412 25.0847 39.7659 25.6093 40.4131 25.6093H43.0186C43.6659 25.6093 44.1905 25.0847 44.1905 24.4374V20.717H39.2412Z" fill="#8383FF"/>
<path d="M18.6629 35.8732H17.2554C16.6081 35.8732 16.0835 35.3486 16.0835 34.7013V29.6211C16.0835 28.9739 16.6081 28.4493 17.2554 28.4493H18.6629C19.3101 28.4493 19.8348 28.9739 19.8348 29.6211V34.7013C19.8348 35.3486 19.3101 35.8732 18.6629 35.8732Z" fill="#FF6C6C"/>
<path d="M42.4196 35.8732H41.0122C40.365 35.8732 39.8403 35.3486 39.8403 34.7013V29.6211C39.8403 28.9739 40.365 28.4493 41.0122 28.4493H42.4196C43.0669 28.4493 43.5915 28.9739 43.5915 29.6211V34.7013C43.5915 35.3486 43.0669 35.8732 42.4196 35.8732Z" fill="#FF6C6C"/>
<path d="M19.262 23.5001H16.6565C16.0093 23.5001 15.4846 22.9754 15.4846 22.3282V12.2738C15.4846 11.9502 15.747 11.6878 16.0706 11.6878H19.848C20.1715 11.6878 20.4339 11.9502 20.4339 12.2738V22.3282C20.4339 22.9753 19.9093 23.5001 19.262 23.5001Z" fill="#FF8B00"/>
<path d="M43.0186 23.5001H40.4131C39.7659 23.5001 39.2412 22.9754 39.2412 22.3282V12.2738C39.2412 11.9502 39.5036 11.6878 39.8271 11.6878H43.6046C43.9282 11.6878 44.1905 11.9502 44.1905 12.2738V22.3282C44.1905 22.9753 43.6659 23.5001 43.0186 23.5001Z" fill="#FF8B00"/>
<path d="M32.4849 28.7906H27.1897C26.8661 28.7906 26.6038 28.5283 26.6038 28.2047V26.7586C26.6038 26.4351 26.8661 26.1727 27.1897 26.1727H32.4849C32.8085 26.1727 33.0709 26.4351 33.0709 26.7586V28.2047C33.0709 28.5284 32.8086 28.7906 32.4849 28.7906Z" fill="white"/>
<path d="M52.4282 47.8088H42.5977C42.274 47.8088 42.0117 47.5464 42.0117 47.2229V44.4042C42.0117 44.0806 42.274 43.8182 42.5977 43.8182H52.428C52.7516 43.8182 53.014 44.0806 53.014 44.4042V47.2229C53.0141 47.5465 52.7517 47.8088 52.4282 47.8088Z" fill="#FF9D33"/>
<path d="M52.4282 43.8182H42.5977C42.274 43.8182 42.0117 43.5558 42.0117 43.2323V40.4136C42.0117 40.0899 42.274 39.8276 42.5977 39.8276H52.428C52.7516 39.8276 53.014 40.0899 53.014 40.4136V43.2323C53.0141 43.5558 52.7517 43.8182 52.4282 43.8182Z" fill="#FFAB66"/>
<path d="M24.5627 12.2836V8.2308C24.5627 7.90771 24.8256 7.64486 25.1487 7.64486H34.5262C34.8492 7.64486 35.1121 7.90771 35.1121 8.2308V12.2835H36.284V8.2308C36.284 7.26142 35.4954 6.47298 34.5262 6.47298H25.1487C24.1794 6.47298 23.3909 7.26154 23.3909 8.2308V12.2835H24.5627V12.2836Z" fill="#FF7300"/>
<path d="M17.681 33.0658H16.0835V34.2376H17.681C18.0046 34.2376 18.2669 33.9754 18.2669 33.6517C18.2669 33.328 18.0046 33.0658 17.681 33.0658Z" fill="#FF4D4D"/>
<path d="M19.8346 30.3821H18.2371C17.9135 30.3821 17.6511 30.6444 17.6511 30.968C17.6511 31.2917 17.9135 31.554 18.2371 31.554H19.8346V30.3821Z" fill="#FF4D4D"/>
<path d="M41.4077 30.968C41.4077 31.2917 41.67 31.554 41.9937 31.554H43.5913V30.3821H41.9937C41.67 30.3821 41.4077 30.6444 41.4077 30.968Z" fill="#FF4D4D"/>
<path d="M41.4376 33.0658H39.8401V34.2376H41.4376C41.7613 34.2376 42.0235 33.9754 42.0235 33.6517C42.0235 33.328 41.7611 33.0658 41.4376 33.0658Z" fill="#FF4D4D"/>
<path d="M41.9932 8.67958C41.8433 8.67958 41.6932 8.62239 41.5789 8.5079L41.0556 7.98478L40.5324 8.5079C40.3038 8.73677 39.9325 8.73677 39.7039 8.5079C39.475 8.27915 39.475 7.90814 39.7039 7.67939L40.6414 6.74189C40.87 6.51302 41.2413 6.51302 41.4699 6.74189L42.4074 7.67939C42.6363 7.90814 42.6363 8.27915 42.4074 8.5079C42.293 8.62239 42.143 8.67958 41.9932 8.67958Z" fill="#FF6C6C"/>
<path d="M41.0557 54.5954C40.9058 54.5954 40.7557 54.5382 40.6414 54.4238L40.1181 53.9006L39.5949 54.4238C39.3663 54.6526 38.995 54.6526 38.7664 54.4238C38.5375 54.195 38.5375 53.824 38.7664 53.5952L39.7039 52.6577C39.9325 52.4289 40.3038 52.4289 40.5324 52.6577L41.4699 53.5952C41.6988 53.824 41.6988 54.195 41.4699 54.4238C41.3555 54.5382 41.2055 54.5954 41.0557 54.5954Z" fill="#FF6C6C"/>
<path d="M47.5127 7.74208C47.3628 7.74208 47.2127 7.68489 47.0984 7.5704L46.5752 7.04728L46.0519 7.5704C45.8233 7.79927 45.452 7.79927 45.2234 7.5704C44.9945 7.34165 44.9945 6.97064 45.2234 6.74189L46.1609 5.80439C46.3895 5.57552 46.7608 5.57552 46.9894 5.80439L47.9269 6.74189C48.1558 6.97064 48.1558 7.34165 47.9269 7.5704C47.8127 7.68489 47.6627 7.74208 47.5127 7.74208Z" fill="#FFAB66"/>
<path d="M18.8967 8.34227C18.7467 8.34227 18.5968 8.28508 18.4823 8.17059L17.9592 7.64747L17.4361 8.17059C17.2072 8.39946 16.8363 8.39946 16.6074 8.17059C16.3786 7.94184 16.3786 7.57083 16.6074 7.34208L17.5449 6.40458C17.7738 6.17571 18.1447 6.17571 18.3736 6.40458L19.3111 7.34208C19.5399 7.57083 19.5399 7.94184 19.3111 8.17059C19.1966 8.28497 19.0467 8.34227 18.8967 8.34227Z" fill="#FFAB66"/>
<path d="M34.5383 52.9548H34.1868V52.6033C34.1868 52.2796 33.9245 52.0173 33.6008 52.0173C33.2772 52.0173 33.0149 52.2796 33.0149 52.6033V52.9548H32.6633C32.3397 52.9548 32.0774 53.2171 32.0774 53.5408C32.0774 53.8644 32.3397 54.1267 32.6633 54.1267H33.0149V54.4783C33.0149 54.8019 33.2772 55.0642 33.6008 55.0642C33.9245 55.0642 34.1868 54.8019 34.1868 54.4783V54.1267H34.5383C34.862 54.1267 35.1243 53.8644 35.1243 53.5408C35.1244 53.2171 34.862 52.9548 34.5383 52.9548Z" fill="#6C6CFF"/>
</g>
<defs>
<linearGradient id="paint0_linear_2500_35642" x1="0.632658" y1="30" x2="59.3673" y2="30" gradientUnits="userSpaceOnUse">
<stop offset="0.00038092" stop-color="#FFB3B3"/>
<stop offset="0.992" stop-color="#FFE8DC" stop-opacity="0"/>
</linearGradient>
<linearGradient id="paint1_linear_2500_35642" x1="29.8375" y1="47.8083" x2="29.8375" y2="26.9642" gradientUnits="userSpaceOnUse">
<stop stop-color="#FF4D4D" stop-opacity="0.4"/>
<stop offset="1" stop-color="#FF4D4D" stop-opacity="0"/>
</linearGradient>
<clipPath id="clip0_2500_35642">
<rect width="60" height="60" fill="white"/>
</clipPath>
</defs>
</svg>
