<svg width="60" height="60" viewBox="0 0 60 60" fill="none" xmlns="http://www.w3.org/2000/svg">
<g clip-path="url(#clip0_2500_35580)">
<path d="M58.4349 28.6983C57.8701 25.9301 56.3178 23.0815 53.6376 22.1879C51.4204 21.4487 48.6857 22.3145 46.8031 20.9296C42.2193 17.5575 44.3176 12.6459 36.3641 13.3846C34.5998 13.5484 32.5754 13.2977 31.4704 11.9122C30.3429 10.4982 30.6528 8.4668 30.3175 6.68965C29.651 3.1568 26.215 0.468985 22.6339 0.151642C11.6604 -0.820546 6.93512 2.87285 2.69305 11.4033C1.73633 13.3271 0.818871 15.5382 1.48368 17.5816C3.71668 24.444 12.7514 21.2447 18.2129 21.806C25.8429 22.5902 21.4531 29.4643 26.1322 30.8276C27.1385 31.1208 28.1738 30.4819 29.2121 30.3398C32.0406 29.953 34.5512 32.8226 34.688 35.6741C34.9558 41.2507 31.1961 46.2786 28.693 51.0877C26.7331 54.8528 27.2956 59.0265 31.7509 59.8065C45.3738 62.1914 61.151 42.0103 58.4349 28.6983Z" fill="url(#paint0_linear_2500_35580)"/>
<path d="M52.1392 30C52.1392 37.398 48.5087 43.95 42.933 47.9684L32.3837 48.7254L23.0158 51.0141C14.2115 48.0891 7.86108 39.7852 7.86108 30C7.86108 19.5738 15.0705 10.8293 24.7759 8.48086H24.7771L35.4412 13.4285L46.4744 15.2121C49.9958 19.1309 52.1392 24.3164 52.1392 30Z" fill="#8399FE"/>
<path d="M27.2392 17.843V29.1375C27.2392 30 26.5408 30.6984 25.6783 30.6984H22.99L21.6658 32.3801C21.2919 32.8559 20.5701 32.8559 20.1951 32.3801L18.8708 30.6984H7.8728C7.8646 30.4664 7.86108 30.2332 7.86108 30C7.86108 24.2941 10.0208 19.091 13.5658 15.1664L25.8212 16.2891C26.6251 16.3629 27.2392 17.0367 27.2392 17.843Z" fill="#6583FE"/>
<path d="M52.1391 30C52.1391 35.0895 50.4211 39.7781 47.5325 43.5176H41.1293L39.8051 45.1992C39.4301 45.675 38.7083 45.675 38.3344 45.1992L37.0102 43.5176H34.3219C33.4594 43.5176 32.761 42.8191 32.761 41.9566V30.6621C32.761 29.8559 33.375 29.182 34.179 29.1082L51.9973 27.4758C52.0911 28.3043 52.1391 29.1469 52.1391 30Z" fill="#6583FE"/>
<path d="M28.1778 29.6082V33.9533C28.1778 34.2118 28.0752 34.4598 27.8924 34.6425L22.5149 40.02C22.3321 40.2028 22.0842 40.3055 21.8257 40.3055H16.8374C16.299 40.3055 15.8626 39.8691 15.8626 39.3307V35.9176C15.8626 35.3793 15.4262 34.9429 14.8878 34.9429H11.8204C11.2821 34.9429 10.8457 34.5064 10.8457 33.9681V29.411C10.8457 29.1525 10.743 28.9045 10.5602 28.7218L8.16455 26.3262C8.97549 21.4746 11.3638 17.1574 14.7845 13.9195L16.2688 15.4048C16.4515 15.5876 16.554 15.8353 16.554 16.0938V23.8482C16.554 24.1068 16.6567 24.3547 16.8395 24.5374L19.3471 27.045C19.5299 27.2278 19.7777 27.3305 20.0362 27.3305H25.8992C26.1576 27.3305 26.4055 27.4331 26.5883 27.6157L27.8921 28.9187C28.0751 29.1015 28.1778 29.3496 28.1778 29.6082Z" fill="#01ECA5"/>
<path d="M27.2392 28.2656V29.1375C27.2392 30 26.5407 30.6984 25.6782 30.6984H22.9899L21.6657 32.3801C21.2919 32.8559 20.57 32.8559 20.195 32.3801L18.8708 30.6984H10.8458V29.4117C10.8458 29.1527 10.7427 28.9043 10.5599 28.7215L8.16455 26.3262C8.87588 22.0734 10.7989 18.2309 13.5657 15.1664H13.5669L16.2786 15.4148C16.4544 15.5965 16.554 15.8402 16.554 16.0934V23.8477C16.554 24.1066 16.6571 24.3551 16.8399 24.5379L19.3466 27.0445C19.5294 27.2274 19.7778 27.3305 20.0368 27.3305H25.8997C26.1575 27.3305 26.406 27.4336 26.5888 27.6152L27.2392 28.2656Z" fill="#00D890"/>
<path d="M43.1728 24.0265L45.066 25.9187C45.2489 26.1015 45.3517 26.3495 45.3517 26.6081V30.6553C45.3517 31.1937 44.9153 31.6301 44.3769 31.6301H43.5487C43.2902 31.6301 43.0423 31.7327 42.8596 31.9155L40.6796 34.0955C40.299 34.4761 40.299 35.0933 40.6796 35.4739L40.7496 35.5439C41.1302 35.9245 41.1302 36.5417 40.7496 36.9224L38.3582 39.3138C37.9775 39.6944 37.3603 39.6944 36.9797 39.3138L35.5298 37.864C35.347 37.6812 35.2444 37.4333 35.2444 37.1748V32.1698C35.2444 31.9113 35.347 31.6634 35.5298 31.4807L37.4937 29.5168C37.6765 29.334 37.7791 29.0862 37.7791 28.8277V21.6489C37.7791 21.3903 37.6765 21.1424 37.4937 20.9597L35.2744 18.7404C35.0916 18.5576 34.8437 18.4549 34.5852 18.4549H30.2447C29.9862 18.4549 29.7382 18.3523 29.5555 18.1695L25.0616 13.6755C24.8788 13.4927 24.7761 13.2449 24.7761 12.9864V8.48086C26.4507 8.07539 28.2003 7.86094 30.0003 7.86094C36.5429 7.86094 42.4222 10.6992 46.4746 15.2121L43.1729 18.5137C42.9901 18.6966 42.8874 18.9444 42.8874 19.2029V23.3371C42.8871 23.5957 42.9899 23.8437 43.1728 24.0265Z" fill="#01ECA5"/>
<path d="M42.9328 47.9684C39.2953 50.5934 34.827 52.1391 30 52.1391C27.5602 52.1391 25.2117 51.7441 23.0156 51.0141L23.8798 47.4325C23.9854 46.9948 24.377 46.6863 24.8273 46.6863H26.7109C27.0956 46.6863 27.4444 46.46 27.6011 46.1087L28.9549 43.0734C29.1116 42.7221 29.4604 42.4958 29.8451 42.4958H31.8449C32.149 42.4958 32.4356 42.6377 32.62 42.8795L34.3954 45.2078C34.6748 45.5743 35.173 45.6949 35.5893 45.4969C35.8859 45.3558 36.2336 45.3735 36.5142 45.544L37.3547 46.0546C37.5458 46.1707 37.7709 46.2176 37.9925 46.1873L40.7923 45.8054C41.157 45.7557 41.5182 45.9151 41.7268 46.2184C42.0171 46.6406 42.4617 47.2866 42.9328 47.9684Z" fill="#01ECA5"/>
<path d="M25.8211 13.4766L5.47567 11.6128C4.56138 11.529 3.77271 12.2488 3.77271 13.167V26.3254C3.77271 27.1873 4.47138 27.8859 5.33329 27.8859H18.871L20.1945 29.5675C20.5694 30.0438 21.2912 30.0438 21.6662 29.5675L22.9897 27.8859H25.6788C26.5407 27.8859 27.2394 27.1873 27.2394 26.3254V15.0308C27.2394 14.2239 26.6245 13.5502 25.8211 13.4766Z" fill="#01ECA5"/>
<path d="M3.77271 19.5601H15.2988V24.3371H3.77271V19.5601Z" fill="#02FFB3"/>
<path d="M7.67896 16.6141H11.4973C11.8208 16.6141 12.0832 16.3519 12.0832 16.0282C12.0832 15.7045 11.8208 15.4423 11.4973 15.4423H7.67896C7.35528 15.4423 7.09302 15.7045 7.09302 16.0282C7.09302 16.3519 7.35528 16.6141 7.67896 16.6141Z" fill="#97FFD2"/>
<path d="M7.67896 20.146H15.716C16.0396 20.146 16.302 19.8838 16.302 19.5601C16.302 19.2364 16.0396 18.9742 15.716 18.9742H7.67896C7.35528 18.9742 7.09302 19.2364 7.09302 19.5601C7.09302 19.8838 7.35528 20.146 7.67896 20.146Z" fill="white"/>
<path d="M7.67896 22.5346H22.5129C22.8365 22.5346 23.0988 22.2723 23.0988 21.9486C23.0988 21.625 22.8365 21.3627 22.5129 21.3627H7.67896C7.35528 21.3627 7.09302 21.625 7.09302 21.9486C7.09302 22.2723 7.35528 22.5346 7.67896 22.5346Z" fill="white"/>
<path d="M7.67896 24.9231H22.5129C22.8365 24.9231 23.0988 24.6608 23.0988 24.3371C23.0988 24.0135 22.8365 23.7512 22.5129 23.7512H7.67896C7.35528 23.7512 7.09302 24.0135 7.09302 24.3371C7.09302 24.6608 7.35528 24.9231 7.67896 24.9231Z" fill="white"/>
<path d="M22.8643 17.4344C23.1879 17.4344 23.4502 17.1721 23.4502 16.8485C23.4502 16.5249 23.1879 16.2626 22.8643 16.2626C22.5407 16.2626 22.2783 16.5249 22.2783 16.8485C22.2783 17.1721 22.5407 17.4344 22.8643 17.4344Z" fill="#00D890"/>
<path d="M20.6946 17.4344C21.0182 17.4344 21.2805 17.1721 21.2805 16.8485C21.2805 16.5249 21.0182 16.2626 20.6946 16.2626C20.371 16.2626 20.1086 16.5249 20.1086 16.8485C20.1086 17.1721 20.371 17.4344 20.6946 17.4344Z" fill="#00D890"/>
<path d="M18.5247 17.4344C18.8483 17.4344 19.1106 17.1721 19.1106 16.8485C19.1106 16.5249 18.8483 16.2626 18.5247 16.2626C18.2011 16.2626 17.9387 16.5249 17.9387 16.8485C17.9387 17.1721 18.2011 17.4344 18.5247 17.4344Z" fill="#00D890"/>
<path d="M54.525 32.2453V37.0219H56.2278V39.1441C56.2278 40.0066 55.5282 40.7051 54.6668 40.7051H41.1293L39.8051 42.3867C39.4301 42.8625 38.7083 42.8625 38.3344 42.3867L37.0102 40.7051H34.3219C33.4594 40.7051 32.761 40.0066 32.761 39.1441V27.8496C32.761 27.0434 33.375 26.3695 34.179 26.2957L54.5239 24.4324C55.4391 24.348 56.2278 25.0676 56.2278 25.9863V32.2453H54.525Z" fill="#FF7EB8"/>
<path d="M44.7009 32.2453H56.227V37.0224H44.7009V32.2453Z" fill="#FFA8CF"/>
<path d="M52.1704 29.2993H48.3521C48.0285 29.2993 47.7661 29.0371 47.7661 28.7134C47.7661 28.3897 48.0285 28.1275 48.3521 28.1275H52.1704C52.494 28.1275 52.7563 28.3897 52.7563 28.7134C52.7563 29.0371 52.494 29.2993 52.1704 29.2993Z" fill="#FFC4DF"/>
<path d="M52.1704 32.8312H44.1333C43.8097 32.8312 43.5474 32.569 43.5474 32.2453C43.5474 31.9216 43.8097 31.6594 44.1333 31.6594H52.1704C52.494 31.6594 52.7563 31.9216 52.7563 32.2453C52.7563 32.569 52.494 32.8312 52.1704 32.8312Z" fill="#FFDBED"/>
<path d="M52.1704 35.2198H37.3364C37.0129 35.2198 36.7505 34.9575 36.7505 34.6338C36.7505 34.3101 37.0129 34.0479 37.3364 34.0479H52.1704C52.494 34.0479 52.7563 34.3101 52.7563 34.6338C52.7563 34.9575 52.494 35.2198 52.1704 35.2198Z" fill="#FFDBED"/>
<path d="M52.1704 37.6083H37.3364C37.0129 37.6083 36.7505 37.346 36.7505 37.0223C36.7505 36.6987 37.0129 36.4364 37.3364 36.4364H52.1704C52.494 36.4364 52.7563 36.6987 52.7563 37.0223C52.7563 37.346 52.494 37.6083 52.1704 37.6083Z" fill="#FFDBED"/>
<path d="M36.9849 30.1196C37.3085 30.1196 37.5708 29.8573 37.5708 29.5337C37.5708 29.2101 37.3085 28.9478 36.9849 28.9478C36.6613 28.9478 36.3989 29.2101 36.3989 29.5337C36.3989 29.8573 36.6613 30.1196 36.9849 30.1196Z" fill="#FE2C8F"/>
<path d="M39.1548 30.1196C39.4784 30.1196 39.7407 29.8573 39.7407 29.5337C39.7407 29.2101 39.4784 28.9478 39.1548 28.9478C38.8312 28.9478 38.5688 29.2101 38.5688 29.5337C38.5688 29.8573 38.8312 30.1196 39.1548 30.1196Z" fill="#FE2C8F"/>
<path d="M41.3245 30.1196C41.6481 30.1196 41.9104 29.8573 41.9104 29.5337C41.9104 29.2101 41.6481 28.9478 41.3245 28.9478C41.0009 28.9478 40.7385 29.2101 40.7385 29.5337C40.7385 29.8573 41.0009 30.1196 41.3245 30.1196Z" fill="#FE2C8F"/>
<path d="M20.6947 57.6852C20.5447 57.6852 20.3948 57.628 20.2803 57.5135L19.0498 56.2831C18.821 56.0543 18.821 55.6833 19.0498 55.4545L20.2803 54.2241C20.5092 53.9952 20.8801 53.9952 21.1089 54.2241L22.3394 55.4545C22.5683 55.6833 22.5683 56.0543 22.3394 56.2831L21.1089 57.5135C20.9945 57.628 20.8447 57.6852 20.6947 57.6852ZM20.2929 55.8688L20.6948 56.2706L21.0966 55.8688L20.6948 55.467L20.2929 55.8688Z" fill="#02FFB3"/>
<path d="M49.8856 12.4904C49.7356 12.4904 49.5857 12.4332 49.4712 12.3188L48.2407 11.0883C48.0119 10.8595 48.0119 10.4885 48.2407 10.2598L49.4712 9.0293C49.7001 8.80043 50.071 8.80043 50.2998 9.0293L51.5303 10.2598C51.7592 10.4885 51.7592 10.8595 51.5303 11.0883L50.2998 12.3188C50.1855 12.4332 50.0356 12.4904 49.8856 12.4904ZM49.4838 10.674L49.8856 11.0759L50.2874 10.674L49.8856 10.2722L49.4838 10.674Z" fill="#6583FE"/>
<path d="M52.1703 18.6063C52.0203 18.6063 51.8704 18.5491 51.7559 18.4346C51.527 18.2059 51.527 17.8349 51.7559 17.6061L52.9278 16.4343C53.1566 16.2054 53.5275 16.2054 53.7564 16.4343C53.9853 16.663 53.9853 17.034 53.7564 17.2628L52.5845 18.4346C52.4701 18.5491 52.3203 18.6063 52.1703 18.6063Z" fill="#FF7EB8"/>
<path d="M13.8529 53.7554C13.7029 53.7554 13.553 53.6982 13.4385 53.5837C13.2096 53.355 13.2096 52.984 13.4385 52.7552L14.6104 51.5834C14.8392 51.3545 15.2101 51.3545 15.439 51.5834C15.6679 51.8121 15.6679 52.1831 15.439 52.4119L14.2671 53.5837C14.1528 53.6982 14.0029 53.7554 13.8529 53.7554Z" fill="#FF7EB8"/>
<path d="M13.8529 9.55454C13.7029 9.55454 13.553 9.49735 13.4385 9.38286C13.2096 9.15411 13.2096 8.78309 13.4385 8.55434L14.6104 7.38247C14.8392 7.1536 15.2101 7.1536 15.439 7.38247C15.6679 7.61122 15.6679 7.98223 15.439 8.21098L14.2671 9.38286C14.1528 9.49735 14.0029 9.55454 13.8529 9.55454Z" fill="#6583FE"/>
<path d="M56.2278 32.2453V25.9863C56.2278 25.0676 55.4392 24.348 54.5239 24.4324L51.5015 24.7092C50.621 21.1199 48.8661 17.8736 46.4743 15.2121C42.422 10.6992 36.5427 7.86094 30.0001 7.86094C28.2001 7.86094 26.4505 8.07539 24.7759 8.48086C21.6385 9.24 18.7626 10.6683 16.3061 12.6049L5.47567 11.6128C4.56138 11.529 3.77271 12.2488 3.77271 13.167V26.3253C3.77271 27.1873 4.47138 27.8859 5.33329 27.8859H7.96181C7.89583 28.5819 7.86091 29.2869 7.86091 30.0001C7.86091 39.7853 14.2113 48.0892 23.0156 51.0142C25.2117 51.7442 27.5601 52.1392 30 52.1392C34.8269 52.1392 39.2953 50.5935 42.9328 47.9685C45.5819 46.0592 47.7907 43.5773 49.3809 40.7052H54.6668C55.5281 40.7052 56.2277 40.0067 56.2277 39.1442V37.022H54.525V32.2454H56.2278V32.2453Z" fill="url(#paint1_linear_2500_35580)"/>
</g>
<defs>
<linearGradient id="paint0_linear_2500_35580" x1="13.5717" y1="43.1139" x2="44.4875" y2="12.198" gradientUnits="userSpaceOnUse">
<stop offset="0.0485" stop-color="#FFDBED"/>
<stop offset="0.9993" stop-color="#D2DEFF"/>
</linearGradient>
<linearGradient id="paint1_linear_2500_35580" x1="30.0003" y1="52.1391" x2="30.0003" y2="7.86094" gradientUnits="userSpaceOnUse">
<stop stop-color="#FF7EB8" stop-opacity="0.6"/>
<stop offset="0.0094" stop-color="#FF83BB" stop-opacity="0.594"/>
<stop offset="0.0786" stop-color="#FFA4CD" stop-opacity="0.553"/>
<stop offset="0.156" stop-color="#FFC1DD" stop-opacity="0.506"/>
<stop offset="0.2421" stop-color="#FFD8E9" stop-opacity="0.454"/>
<stop offset="0.3408" stop-color="#FFE9F3" stop-opacity="0.395"/>
<stop offset="0.46" stop-color="#FFF6FA" stop-opacity="0.323"/>
<stop offset="0.6202" stop-color="#FFFDFE" stop-opacity="0.227"/>
<stop offset="0.9972" stop-color="white" stop-opacity="0"/>
</linearGradient>
<clipPath id="clip0_2500_35580">
<rect width="60" height="60" fill="white"/>
</clipPath>
</defs>
</svg>
