<svg width="60" height="60" viewBox="0 0 60 60" fill="none" xmlns="http://www.w3.org/2000/svg">
<g clip-path="url(#clip0_2500_35457)">
<path d="M54.0437 3.20528C46.5722 -1.24632 36.9041 -0.999176 29.5664 3.56164C25.4437 6.12407 22.2569 9.81981 18.6431 13.0013C15.4764 15.7891 11.7941 17.7777 8.5236 20.4081C-3.33695 29.9475 -2.20527 55.6769 14.4957 59.0946C21.7352 60.5761 31.6297 61.0511 35.8847 53.9803C39.9417 47.2384 41.3025 40.3416 49.2295 36.7605C51.992 35.5125 56.6094 35.5754 58.4807 32.8406C60.8423 29.3893 57.912 25.8043 56.3489 22.7968C54.3344 18.9209 53.912 15.0997 55.3295 10.9421C56.5363 7.40176 57.386 5.81141 54.0437 3.20528Z" fill="url(#paint0_linear_2500_35457)"/>
<path d="M44.7694 33.3021V5.12057C44.7694 4.79713 44.5081 4.53463 44.1835 4.53463H22.2073L15.23 11.5096V33.3021H44.7694Z" fill="white"/>
<path d="M15.2305 11.5102L21.6201 11.5107C21.9437 11.5107 22.2061 11.2485 22.2061 10.9248L22.2066 4.53516L15.2305 11.5102Z" fill="#FFAB66"/>
<path d="M31.5537 24.88L18.5748 37.859C17.5905 38.8433 17.5669 40.4779 18.5695 41.4432C19.5415 42.379 21.0881 42.3678 22.0464 41.4096C21.0767 42.3791 21.0767 43.9511 22.0464 44.9206C23.0159 45.8901 24.5879 45.8901 25.5574 44.9206C24.5879 45.8901 24.5879 47.4621 25.5574 48.4317C26.527 49.4013 28.099 49.4013 29.0685 48.4317C28.0989 49.4013 28.0989 50.9733 29.0685 51.9427C30.038 52.9122 31.6099 52.9122 32.5795 51.9427L43.2629 41.2593H49.6187V24.0016H33.6744C32.8791 24.0016 32.1162 24.3177 31.5537 24.88Z" fill="#FFAB66"/>
<path d="M44.2253 44.2381C43.2539 45.1744 41.707 45.1627 40.7484 44.2053C41.7187 45.1744 41.7187 46.7459 40.7484 47.7162C39.7793 48.6853 38.2078 48.6853 37.2375 47.7162C37.7226 48.2014 37.9652 48.8365 37.9652 49.4717C37.9652 50.1068 37.7226 50.742 37.2375 51.2271C36.2683 52.1963 34.6957 52.1963 33.7265 51.2271C34.6957 52.1963 34.6957 53.7678 33.7265 54.7381C32.7574 55.7072 31.1847 55.7072 30.2156 54.7381L16.7367 41.2592H10.3816V24.0021H26.325C27.1207 24.0021 27.8835 24.3174 28.446 24.8799L44.2207 40.6545C45.205 41.6389 45.2285 43.2725 44.2253 44.2381Z" fill="#FFD6BB"/>
<path d="M22.4812 25.0826C22.4812 28.4236 19.7718 31.133 16.4308 31.133C13.0898 31.133 10.3816 28.4236 10.3816 25.0826C10.3816 24.7135 10.4144 24.3525 10.4789 24.0021H22.3839C22.4484 24.3525 22.4812 24.7135 22.4812 25.0826Z" fill="#FFC599"/>
<path d="M36.1628 32.5967H34.9159C34.1542 32.5967 33.4241 32.899 32.885 33.4369C32.3753 33.9478 30.1382 36.185 29.4901 36.8318C29.0014 37.3205 28.3616 37.5654 27.7217 37.5654C27.0807 37.5654 26.4409 37.3205 25.9522 36.8318C24.9761 35.8545 24.9761 34.2713 25.9522 33.2939L31.4061 27.84L36.1628 32.5967Z" fill="#FFC599"/>
<path d="M37.652 47.3016C37.652 47.3016 37.6515 47.3012 37.6514 47.3011L30.2006 39.8502C29.9719 39.6214 29.601 39.6213 29.372 39.8502C29.1431 40.0789 29.1431 40.45 29.372 40.6787L36.8234 48.1302C36.8236 48.1303 36.8238 48.1305 36.8238 48.1305C36.8238 48.1305 37.2059 48.5764 37.652 48.1305C38.0979 47.6845 37.652 47.3016 37.652 47.3016Z" fill="#FFC599"/>
<path d="M41.1631 43.7905L41.1618 43.7895L33.7116 36.3392C33.483 36.1103 33.1117 36.1103 32.8831 36.3392C32.6542 36.5679 32.6542 36.9389 32.8831 37.1677L40.3343 44.6191C40.3343 44.6191 40.7686 45.0135 41.1631 44.6191C41.5575 44.2246 41.1631 43.7905 41.1631 43.7905Z" fill="#FFC599"/>
<path d="M44.2253 44.2381C43.2539 45.1744 41.707 45.1627 40.7484 44.2053C41.7187 45.1744 41.7187 46.7459 40.7484 47.7162C39.7793 48.6853 38.2078 48.6853 37.2375 47.7162C37.7226 48.2014 37.9652 48.8365 37.9652 49.4717C37.9652 50.1068 37.7226 50.742 37.2375 51.2271C36.2683 52.1963 34.6957 52.1963 33.7265 51.2271C34.6957 52.1963 34.6957 53.7678 33.7265 54.7381C32.7574 55.7072 31.1847 55.7072 30.2156 54.7381L16.7367 41.2592H10.3816V24.0021H26.325C27.1207 24.0021 27.8835 24.3174 28.446 24.8799L44.2207 40.6545C45.205 41.6389 45.2285 43.2725 44.2253 44.2381Z" fill="url(#paint1_linear_2500_35457)"/>
<path d="M30.6885 53.8337L33.0258 51.4964C33.9953 50.5269 33.9953 48.9548 33.0258 47.9853C32.0563 47.0158 30.4844 47.0158 29.5147 47.9853L27.1774 50.3226C26.2079 51.2922 26.2079 52.8641 27.1774 53.8337C28.1469 54.8033 29.7189 54.8033 30.6885 53.8337Z" fill="#FFAB66"/>
<path d="M27.1775 50.3226L29.5148 47.9853C30.4843 47.0158 30.4843 45.4438 29.5148 44.4742C28.5452 43.5047 26.9733 43.5047 26.0038 44.4742L23.6665 46.8115C22.697 47.781 22.697 49.353 23.6665 50.3226C24.6359 51.2922 26.2079 51.2922 27.1775 50.3226Z" fill="#FFAB66"/>
<path d="M23.6665 46.8116L26.0038 44.4743C26.9733 43.5048 26.9733 41.9329 26.0038 40.9632C25.0342 39.9938 23.4624 39.9938 22.4928 40.9632L20.1555 43.3006C19.186 44.2701 19.186 45.842 20.1555 46.8116C21.125 47.7811 22.6969 47.7811 23.6665 46.8116Z" fill="#FFAB66"/>
<path d="M20.1554 43.3005L22.4927 40.9632C23.4622 39.9937 23.4622 38.4218 22.4927 37.4522C21.5232 36.4827 19.9512 36.4827 18.9817 37.4522L16.6444 39.7895C15.6749 40.759 15.6749 42.3309 16.6444 43.3005C17.6138 44.27 19.1858 44.27 20.1554 43.3005Z" fill="#FFAB66"/>
<path d="M40.867 24.0016H33.6749C32.8791 24.0016 32.1163 24.3175 31.5534 24.8804L25.9526 30.4811C24.9756 31.4581 24.9756 33.0421 25.9526 34.0193L25.9527 34.0194C26.9296 34.9962 28.5134 34.9964 29.4904 34.0196C30.1378 33.3721 32.3747 31.1354 32.8853 30.6249C33.4242 30.0862 34.1543 29.7842 34.9164 29.7842H40.867V24.0016Z" fill="#FFAB66"/>
<path d="M40.8671 29.198H34.9164C34.3289 29.198 33.7347 29.3732 33.233 29.6471C33.5285 29.9425 33.8239 30.2379 34.1193 30.5334C34.3628 30.4468 34.6503 30.3699 34.9164 30.3699H40.8671C41.1908 30.3699 41.453 30.1076 41.453 29.784C41.453 29.4603 41.1908 29.198 40.8671 29.198Z" fill="#FF9D33"/>
<path d="M12.512 23.619V41.9471C12.512 42.499 12.0643 42.9467 11.5124 42.9467H7.49753C6.94558 42.9467 6.49792 42.499 6.49792 41.9471V23.619C6.49792 23.0658 6.94558 22.6182 7.49753 22.6182H11.5124C12.0643 22.6182 12.512 23.0658 12.512 23.619Z" fill="#B3B3FF"/>
<path d="M12.5121 24.0021V29.6916C11.2078 28.5818 10.3816 26.9283 10.3816 25.0826C10.3816 24.7135 10.4144 24.3525 10.4789 24.0021H12.5121Z" fill="#9494FF"/>
<path d="M52.5022 42.9471H48.4872C47.935 42.9471 47.4874 42.4995 47.4874 41.9474V23.6186C47.4874 23.0664 47.9351 22.6189 48.4872 22.6189H52.5022C53.0544 22.6189 53.502 23.0664 53.502 23.6186V41.9473C53.502 42.4995 53.0544 42.9471 52.5022 42.9471Z" fill="#FF6C6C"/>
<path d="M31.1879 20.6469H29.5881C29.2646 20.6469 29.0022 20.3845 29.0022 20.0609V8.89494C29.0022 8.57126 29.2646 8.309 29.5881 8.309H31.1879C31.5115 8.309 31.7738 8.57126 31.7738 8.89494V20.0609C31.7738 20.3846 31.5114 20.6469 31.1879 20.6469Z" fill="#FFAB66"/>
<path d="M29.0022 15.09V20.061C29.0022 20.3846 29.2646 20.647 29.5881 20.647H31.1879C31.5115 20.647 31.7738 20.3846 31.7738 20.061V15.09H29.0022Z" fill="#FF6C6C"/>
<path d="M35.9399 20.6469H34.3402C34.0167 20.6469 33.7543 20.3845 33.7543 20.0609V12.4106C33.7543 12.087 34.0167 11.8246 34.3402 11.8246H35.9399C36.2635 11.8246 36.5259 12.087 36.5259 12.4106V20.0609C36.5259 20.3846 36.2635 20.6469 35.9399 20.6469Z" fill="#FFAB66"/>
<path d="M33.7535 18.6056V20.0611C33.7535 20.3846 34.0159 20.647 34.3395 20.647H35.9392C36.2628 20.647 36.5251 20.3846 36.5251 20.0611V18.6056H33.7535Z" fill="#FF6C6C"/>
<path d="M40.6905 20.6469H39.0908C38.7673 20.6469 38.5049 20.3845 38.5049 20.0609V8.89494C38.5049 8.57126 38.7673 8.309 39.0908 8.309H40.6905C41.0141 8.309 41.2765 8.57126 41.2765 8.89494V20.0609C41.2765 20.3846 41.0142 20.6469 40.6905 20.6469Z" fill="#FFAB66"/>
<path d="M38.5049 11.5743V20.061C38.5049 20.3846 38.7673 20.647 39.0908 20.647H40.6905C41.0141 20.647 41.2765 20.3846 41.2765 20.061V11.5743H38.5049Z" fill="#FF6C6C"/>
<path d="M25.8406 16.254H24.6078C24.2841 16.254 24.0219 15.9917 24.0219 15.6681C24.0219 15.3445 24.2841 15.0822 24.6078 15.0822H25.8406C26.1643 15.0822 26.4265 15.3445 26.4265 15.6681C26.4265 15.9917 26.1643 16.254 25.8406 16.254Z" fill="#FFAB66"/>
<path d="M21.9605 16.254H21.4308C21.1071 16.254 20.8448 15.9917 20.8448 15.6681C20.8448 15.3445 21.1071 15.0822 21.4308 15.0822H21.9605C22.2841 15.0822 22.5464 15.3445 22.5464 15.6681C22.5464 15.9917 22.2841 16.254 21.9605 16.254Z" fill="#FFAB66"/>
<path d="M25.8406 18.6302H19.3086C18.9849 18.6302 18.7227 18.3678 18.7227 18.0443C18.7227 17.7207 18.9849 17.4583 19.3086 17.4583H25.8406C26.1643 17.4583 26.4266 17.7207 26.4266 18.0443C26.4266 18.3678 26.1643 18.6302 25.8406 18.6302Z" fill="#8383FF"/>
<path d="M25.8406 20.6548H19.3086C18.9849 20.6548 18.7227 20.3924 18.7227 20.0689C18.7227 19.7453 18.9849 19.4829 19.3086 19.4829H25.8406C26.1643 19.4829 26.4266 19.7453 26.4266 20.0689C26.4266 20.3926 26.1643 20.6548 25.8406 20.6548Z" fill="#8383FF"/>
<path d="M16.4312 28.3202C19.7724 28.3202 22.481 25.6116 22.481 22.2704C22.481 18.9292 19.7724 16.2206 16.4312 16.2206C13.0899 16.2206 10.3813 18.9292 10.3813 22.2704C10.3813 25.6116 13.0899 28.3202 16.4312 28.3202Z" fill="#4D4DFF"/>
<path d="M17.1112 21.6845H17.0171V20.7501H17.9396C18.2632 20.7501 18.5256 20.4879 18.5256 20.1642C18.5256 19.8405 18.2632 19.5783 17.9396 19.5783H17.0171V19.3801C17.0171 19.0564 16.7548 18.7942 16.4312 18.7942C16.1076 18.7942 15.8453 19.0564 15.8453 19.3801V19.5783H15.7512C14.8474 19.5783 14.1122 20.3135 14.1122 21.2172C14.1122 22.121 14.8474 22.8562 15.7512 22.8562H15.8453V23.7904H14.9228C14.5992 23.7904 14.3368 24.0527 14.3368 24.3764C14.3368 24.7001 14.5992 24.9623 14.9228 24.9623H15.8453V25.1605C15.8453 25.4842 16.1076 25.7464 16.4312 25.7464C16.7548 25.7464 17.0171 25.4842 17.0171 25.1605V24.9623H17.1112C18.015 24.9623 18.7502 24.2271 18.7502 23.3233C18.7502 22.4196 18.015 21.6845 17.1112 21.6845ZM15.7512 21.6845C15.4936 21.6845 15.2841 21.4749 15.2841 21.2174C15.2841 20.9598 15.4936 20.7503 15.7512 20.7503H15.8453V21.6846H15.7512V21.6845ZM17.1112 23.7906H17.0171V22.8563H17.1112C17.3688 22.8563 17.5784 23.0659 17.5784 23.3235C17.5784 23.581 17.3688 23.7906 17.1112 23.7906Z" fill="white"/>
<path d="M11.3191 14.7077C11.1691 14.7077 11.0192 14.6505 10.9047 14.536L10.3816 14.0129L9.85844 14.536C9.62957 14.7649 9.25867 14.7649 9.0298 14.536C8.80094 14.3072 8.80094 13.9362 9.0298 13.7075L9.9673 12.77C10.1962 12.5411 10.5671 12.5411 10.7959 12.77L11.7334 13.7075C11.9623 13.9362 11.9623 14.3072 11.7334 14.536C11.6189 14.6505 11.4691 14.7077 11.3191 14.7077Z" fill="#FF6C6C"/>
<path d="M20.7107 53.253C20.5607 53.253 20.4108 53.1958 20.2963 53.0813L19.7732 52.5582L19.25 53.0813C19.0212 53.3102 18.6503 53.3102 18.4214 53.0813C18.1925 52.8526 18.1925 52.4815 18.4214 52.2528L19.3589 51.3153C19.5878 51.0864 19.9587 51.0864 20.1875 51.3153L21.125 52.2528C21.3539 52.4815 21.3539 52.8526 21.125 53.0813C21.0105 53.1958 20.8607 53.253 20.7107 53.253Z" fill="#FF6C6C"/>
<path d="M51.3529 17.1066H51.0013V16.755C51.0013 16.4314 50.7391 16.1691 50.4154 16.1691C50.0917 16.1691 49.8295 16.4314 49.8295 16.755V17.1066H49.4779C49.1542 17.1066 48.892 17.3689 48.892 17.6925C48.892 18.0162 49.1542 18.2785 49.4779 18.2785H49.8295V18.63C49.8295 18.9537 50.0917 19.216 50.4154 19.216C50.7391 19.216 51.0013 18.9537 51.0013 18.63V18.2785H51.3529C51.6766 18.2785 51.9388 18.0162 51.9388 17.6925C51.9388 17.3689 51.6766 17.1066 51.3529 17.1066Z" fill="#6C6CFF"/>
<path d="M15.6354 49.3862H15.2838V49.0347C15.2838 48.711 15.0214 48.4487 14.6979 48.4487C14.3743 48.4487 14.1119 48.711 14.1119 49.0347V49.3862H13.7604C13.4368 49.3862 13.1744 49.6485 13.1744 49.9722C13.1744 50.2958 13.4368 50.5581 13.7604 50.5581H14.1119V50.9097C14.1119 51.2333 14.3743 51.4956 14.6979 51.4956C15.0214 51.4956 15.2838 51.2333 15.2838 50.9097V50.5581H15.6354C15.9589 50.5581 16.2213 50.2958 16.2213 49.9722C16.2213 49.6485 15.9589 49.3862 15.6354 49.3862Z" fill="#FFAB66"/>
<path d="M50.4343 12.5653C50.2844 12.5653 50.1343 12.5081 50.02 12.3936L49.4968 11.8705L49.0498 12.3172C48.8212 12.5461 48.45 12.5461 48.2213 12.3172C47.9925 12.0885 47.9925 11.7175 48.2213 11.4887L49.0825 10.6275C49.3112 10.3986 49.6824 10.3986 49.9111 10.6275L50.8486 11.565C51.0774 11.7938 51.0774 12.1648 50.8486 12.3935C50.7343 12.508 50.5842 12.5653 50.4343 12.5653Z" fill="#FFAB66"/>
</g>
<defs>
<linearGradient id="paint0_linear_2500_35457" x1="0.632658" y1="30" x2="59.3673" y2="30" gradientUnits="userSpaceOnUse">
<stop offset="0.00072338" stop-color="#FFD6BB"/>
<stop offset="0.9993" stop-color="#FFD9D9" stop-opacity="0"/>
</linearGradient>
<linearGradient id="paint1_linear_2500_35457" x1="27.675" y1="55.465" x2="27.675" y2="24.0021" gradientUnits="userSpaceOnUse">
<stop stop-color="#FF4D4D" stop-opacity="0.4"/>
<stop offset="1" stop-color="#FF4D4D" stop-opacity="0"/>
</linearGradient>
<clipPath id="clip0_2500_35457">
<rect width="60" height="60" fill="white"/>
</clipPath>
</defs>
</svg>
