<svg width="600" height="600" viewBox="0 0 600 600" fill="none" xmlns="http://www.w3.org/2000/svg">
<g opacity="0.1">
<path opacity="0.2" d="M488.5 163.5L411.75 86.75C388.25 63.25 356.5 50.2502 323.25 50.2502H200C125 50.2502 75 100.25 75 175.25V425.25C75 500.25 125 550.25 200 550.25H400C475 550.25 525 500.25 525 425.25V252C525 218.5 511.75 186.75 488.5 163.5Z" fill="#2E28D4"/>
<path d="M237.5 468.75C232.75 468.75 228 467 224.25 463.25L174.251 413.25C167.001 406 167.001 394 174.251 386.75L224.25 336.75C231.5 329.5 243.5 329.5 250.75 336.75C258 344 258 356 250.75 363.25L214 400L250.75 436.75C258 444 258 456 250.75 463.25C247 467 242.25 468.75 237.5 468.75Z" fill="#2E28D4"/>
<path d="M362.501 468.75C357.751 468.75 353.001 467 349.251 463.25C342.001 456 342.001 444 349.251 436.75L386.001 400L349.251 363.25C342.001 356 342.001 344 349.251 336.75C356.501 329.5 368.501 329.5 375.751 336.75L425.751 386.75C433.001 394 433.001 406 425.751 413.25L375.751 463.25C372.001 467 367.251 468.75 362.501 468.75Z" fill="#2E28D4"/>
</g>
</svg>
