<svg width="18" height="18" viewBox="0 0 18 18" fill="none" xmlns="http://www.w3.org/2000/svg">
<circle cx="9" cy="9" r="9" fill="#F01A63"/>
<path d="M9.48985 8.98348L11.9198 6.55349C11.9745 6.48972 12.003 6.40769 11.9998 6.3238C11.9965 6.23991 11.9617 6.16033 11.9024 6.10096C11.843 6.0416 11.7634 6.00682 11.6795 6.00358C11.5956 6.00034 11.5136 6.02888 11.4498 6.08349L9.01985 8.51349L6.58985 6.08015C6.52608 6.02554 6.44406 5.99701 6.36016 6.00025C6.27627 6.00349 6.19669 6.03827 6.13733 6.09763C6.07796 6.157 6.04318 6.23658 6.03994 6.32047C6.0367 6.40436 6.06524 6.48638 6.11985 6.55015L8.54985 8.98348L6.11651 11.4135C6.08162 11.4434 6.05328 11.4801 6.03327 11.5215C6.01327 11.5628 6.00202 11.6079 6.00025 11.6538C5.99848 11.6997 6.00621 11.7455 6.02297 11.7883C6.03973 11.831 6.06515 11.8699 6.09763 11.9024C6.13012 11.9349 6.16897 11.9603 6.21174 11.977C6.25452 11.9938 6.30029 12.0015 6.3462 11.9998C6.39211 11.998 6.43715 11.9867 6.4785 11.9667C6.51986 11.9467 6.55663 11.9184 6.58651 11.8835L9.01985 9.45349L11.4498 11.8835C11.5136 11.9381 11.5956 11.9666 11.6795 11.9634C11.7634 11.9601 11.843 11.9254 11.9024 11.866C11.9617 11.8066 11.9965 11.7271 11.9998 11.6432C12.003 11.5593 11.9745 11.4773 11.9198 11.4135L9.48985 8.98348Z" fill="white"/>
</svg>
