<svg width="40" height="40" viewBox="0 0 40 40" fill="none" xmlns="http://www.w3.org/2000/svg">
<rect opacity="0.4" width="40" height="40" rx="20" fill="#2E28D4"/>
<path d="M26.3619 16.332C26.6666 17.52 26.6666 20 26.6666 20C26.6666 20 26.6666 22.48 26.3619 23.668C26.1926 24.3246 25.6972 24.8413 25.0699 25.016C23.9306 25.3333 19.9999 25.3333 19.9999 25.3333C19.9999 25.3333 16.0712 25.3333 14.9299 25.016C14.2999 24.8386 13.8052 24.3226 13.6379 23.668C13.3332 22.48 13.3332 20 13.3332 20C13.3332 20 13.3332 17.52 13.6379 16.332C13.8072 15.6753 14.3026 15.1586 14.9299 14.984C16.0712 14.6666 19.9999 14.6666 19.9999 14.6666C19.9999 14.6666 23.9306 14.6666 25.0699 14.984C25.6999 15.1613 26.1946 15.6773 26.3619 16.332ZM18.6666 22.3333L22.6666 20L18.6666 17.6666V22.3333Z" fill="white" fill-opacity="0.7"/>
</svg>
